<?xml version="1.0" encoding="UTF-8" standalone="no"?>
<!-- Created with Inkscape (http://www.inkscape.org/) -->

<svg
   xmlns:dc="http://purl.org/dc/elements/1.1/"
   xmlns:cc="http://creativecommons.org/ns#"
   xmlns:rdf="http://www.w3.org/1999/02/22-rdf-syntax-ns#"
   xmlns:svg="http://www.w3.org/2000/svg"
   xmlns="http://www.w3.org/2000/svg"
   xmlns:sodipodi="http://sodipodi.sourceforge.net/DTD/sodipodi-0.dtd"
   xmlns:inkscape="http://www.inkscape.org/namespaces/inkscape"
   version="1.1"
   id="svg891"
   xml:space="preserve"
   width="466.66666"
   height="381.48001"
   viewBox="0 0 466.66666 381.48001"
   sodipodi:docname="logo.svg"
   inkscape:version="0.92.3 (2405546, 2018-03-11)"><metadata
     id="metadata897"><rdf:RDF><cc:Work
         rdf:about=""><dc:format>image/svg+xml</dc:format><dc:type
           rdf:resource="http://purl.org/dc/dcmitype/StillImage" /><dc:title></dc:title></cc:Work></rdf:RDF></metadata><defs
     id="defs895" /><sodipodi:namedview
     pagecolor="#ffffff"
     bordercolor="#666666"
     borderopacity="1"
     objecttolerance="10"
     gridtolerance="10"
     guidetolerance="10"
     inkscape:pageopacity="0"
     inkscape:pageshadow="2"
     inkscape:window-width="948"
     inkscape:window-height="480"
     id="namedview893"
     showgrid="false"
     inkscape:zoom="0.5057143"
     inkscape:cx="233.33333"
     inkscape:cy="190.74001"
     inkscape:window-x="771"
     inkscape:window-y="416"
     inkscape:window-maximized="0"
     inkscape:current-layer="g899" /><g
     id="g899"
     inkscape:groupmode="layer"
     inkscape:label="ink_ext_XXXXXX"
     transform="matrix(1.3333333,0,0,-1.3333333,0,381.48)"><path
       inkscape:connector-curvature="0"
       id="path903"
       style="fill:#ffffff;fill-opacity:1;fill-rule:nonzero;stroke:none;stroke-width:0.1"
       d="m 248.517,168.871 -29.129,51.252 -0.311,0.547 -32,-40 -14.386,10.067 c -0.747,-1.401 -1.5,-2.789 -2.255,-4.175 -6.288,-11.557 -12.843,-22.639 -19.538,-33.215 -0.33,-0.521 -0.658,-1.046 -0.988,-1.563 -0.904,-1.417 -1.812,-2.817 -2.72,-4.212 -1.251,-1.922 -2.505,-3.833 -3.763,-5.722 l 12.63,-11.585 0.443,0.561 17.195,21.809 27.516,-29.942 9.459,14.232 19.754,29.723 19.645,-20.354 0.295,0.46 5.695,8.849 -3.772,6.634 -1.553,2.732 -2.217,3.902" /><path
       inkscape:connector-curvature="0"
       id="path905"
       style="fill:#f9e505;fill-opacity:1;fill-rule:nonzero;stroke:none;stroke-width:0.1"
       d="m 132.138,149.294 0.032,0.048 c 2.334,3.506 4.407,6.683 6.337,9.711 7.09,11.12 13.836,22.55 20.052,33.973 0.737,1.353 1.472,2.709 2.201,4.076 l 7.182,13.463 12.502,-8.749 3.995,-2.796 24.079,30.097 12.453,15.566 9.859,-17.326 0.314,-0.552 25.631,-45.1 0.002,0.002 9.371,-16.491 1.666,-2.932 4.045,-7.116 1.892,-3.33 c 3.229,9.329 4.988,19.344 4.988,29.771 0,50.246 -40.733,90.98 -90.98,90.98 -50.246,0 -90.9797,-40.734 -90.9797,-90.98 0,-20.95 7.0847,-40.242 18.9837,-55.622 5.521,7.465 11.006,15.245 16.375,23.307" /><path
       inkscape:connector-curvature="0"
       id="path907"
       style="fill:#35517c;fill-opacity:1;fill-rule:nonzero;stroke:none;stroke-width:0.1"
       d="m 270.665,129.902 -3.815,6.714 -3.249,5.717 -1.857,-2.884 -0.295,-0.46 -9.236,-14.387 -11.873,12.302 -7.964,8.25 -10.444,-15.715 -9.459,-14.231 -9.547,-14.365 -11.671,12.7 -16.773,18.25 -7.366,-9.344 -0.443,-0.561 -9.023,-11.434 -10.734,9.845 -11.193,10.267 c -3.561,-5.095 -7.136,-10.046 -10.709,-14.839 -1.356,-1.821 -2.712,-3.614 -4.066,-5.388 -1.396,-1.829 -2.789,-3.629 -4.18,-5.41 C 86.6594,66.4023 57.7188,39.2297 40.3691,27.2238 c 2.0926,-0.1066 4.2582,-0.1582 6.4821,-0.1582 52.3121,0 138.3868,28.2371 143.8418,30.6629 L 177.268,26.9563 c 41.864,19.0964 76.218,24.0507 100.586,24.0507 26.257,0 40.917,-5.748 40.917,-5.748 l -44.31,77.964 -3.796,6.679" /><path
       inkscape:connector-curvature="0"
       id="path909"
       style="fill:#100f0d;fill-opacity:1;fill-rule:nonzero;stroke:none;stroke-width:0.1"
       d="M 330.528,51.9414 282.26,136.868 c 6.547,13.806 10.002,29.008 10.002,44.741 0,27.914 -10.871,54.156 -30.609,73.894 -19.738,19.738 -45.981,30.608 -73.894,30.608 -27.913,0 -54.157,-10.87 -73.894,-30.608 -19.738,-19.738 -30.6084,-45.98 -30.6084,-73.894 0,-24.662 8.4907,-48.016 24.0794,-66.735 C 78.807,78.1633 50.35,50.5742 32.6746,38.343 L 0,15.7324 39.6836,13.718 c 2.2844,-0.1153 4.6957,-0.175 7.1676,-0.175 28.8461,0 66.4128,8.073 92.8478,14.8449 9.579,2.4551 18.653,4.9781 26.631,7.3152 L 164.873,32.3633 150.755,0 182.88,14.6535 c 41.369,18.8711 74.481,22.8309 94.974,22.8309 22.253,0 35.177,-4.5266 36.024,-4.8321 L 350,17.9152 Z M 96.7793,181.609 c 0,50.246 40.7337,90.98 90.9797,90.98 50.247,0 90.98,-40.734 90.98,-90.98 0,-10.427 -1.759,-20.442 -4.988,-29.771 l -1.892,3.33 -4.045,7.116 -1.666,2.932 -9.371,16.491 -0.002,-0.002 -25.631,45.1 -0.314,0.552 -9.859,17.326 -12.453,-15.566 -24.079,-30.097 -3.995,2.796 -12.502,8.749 -7.182,-13.463 c -0.729,-1.367 -1.464,-2.723 -2.201,-4.076 -6.216,-11.423 -12.962,-22.853 -20.052,-33.973 -1.93,-3.028 -4.003,-6.205 -6.337,-9.711 l -0.032,-0.048 c -5.369,-8.062 -10.854,-15.842 -16.375,-23.307 -11.899,15.38 -18.9837,34.672 -18.9837,55.622 z m 159.2797,-26.006 -5.695,-8.849 -0.295,-0.46 -19.645,20.354 -19.754,-29.723 -9.459,-14.232 -27.516,29.942 -17.195,-21.809 -0.443,-0.561 -12.63,11.585 c 1.258,1.889 2.512,3.8 3.763,5.722 0.908,1.395 1.816,2.795 2.72,4.212 0.33,0.517 0.658,1.042 0.988,1.563 6.695,10.576 13.25,21.658 19.538,33.215 0.755,1.386 1.508,2.774 2.255,4.175 l 14.386,-10.067 32,40 0.311,-0.547 29.129,-51.252 2.217,-3.902 1.553,-2.732 z M 277.854,51.007 c -24.368,0 -58.722,-4.9543 -100.586,-24.0507 l 13.425,30.7722 C 185.238,55.3027 99.1633,27.0656 46.8512,27.0656 c -2.2239,0 -4.3895,0.0516 -6.4821,0.1582 17.3497,12.0059 46.2903,39.1785 76.3989,77.7052 1.391,1.781 2.784,3.581 4.18,5.41 1.354,1.774 2.71,3.567 4.066,5.388 3.573,4.793 7.148,9.744 10.709,14.839 l 11.193,-10.267 10.734,-9.845 9.023,11.434 0.443,0.561 7.366,9.344 16.773,-18.25 11.671,-12.7 9.547,14.365 9.459,14.231 10.444,15.715 7.964,-8.25 11.873,-12.302 9.236,14.387 0.295,0.46 1.857,2.884 3.249,-5.717 3.815,-6.714 3.796,-6.679 44.31,-77.964 c 0,0 -14.66,5.748 -40.917,5.748" /></g></svg>