<?xml version="1.0" encoding="utf-8" standalone="no"?>
<!DOCTYPE svg PUBLIC "-//W3C//DTD SVG 1.1//EN"
  "http://www.w3.org/Graphics/SVG/1.1/DTD/svg11.dtd">
<!-- Created with matplotlib (https://matplotlib.org/) -->
<svg height="319.536641pt" version="1.1" viewBox="0 0 432.158125 319.536641" width="432.158125pt" xmlns="http://www.w3.org/2000/svg" xmlns:xlink="http://www.w3.org/1999/xlink">
 <defs>
  <style type="text/css">
*{stroke-linecap:butt;stroke-linejoin:round;}
  </style>
 </defs>
 <g id="figure_1">
  <g id="patch_1">
   <path d="M 0 319.536641 
L 432.158125 319.536641 
L 432.158125 0 
L 0 0 
z
" style="fill:#ffffff;"/>
  </g>
  <g id="axes_1">
   <g id="patch_2">
    <path d="M 38.789375 273.779141 
L 416.158125 273.779141 
L 416.158125 11.379141 
L 38.789375 11.379141 
z
" style="fill:#ffffff;"/>
   </g>
   <g id="matplotlib.axis_1">
    <g id="xtick_1">
     <g id="line2d_1">
      <defs>
       <path d="M 0 0 
L 0 3.5 
" id="mfca5ec9a66" style="stroke:#000000;stroke-width:0.8;"/>
      </defs>
      <g>
       <use style="stroke:#000000;stroke-width:0.8;" x="38.789375" xlink:href="#mfca5ec9a66" y="273.779141"/>
      </g>
     </g>
     <g id="text_1">
      <!-- $\mathdefault{−0.5}$ -->
      <defs>
       <path d="M 10.59375 35.5 
L 73.1875 35.5 
L 73.1875 27.203125 
L 10.59375 27.203125 
z
" id="DejaVuSans-8722"/>
       <path d="M 31.78125 66.40625 
Q 24.171875 66.40625 20.328125 58.90625 
Q 16.5 51.421875 16.5 36.375 
Q 16.5 21.390625 20.328125 13.890625 
Q 24.171875 6.390625 31.78125 6.390625 
Q 39.453125 6.390625 43.28125 13.890625 
Q 47.125 21.390625 47.125 36.375 
Q 47.125 51.421875 43.28125 58.90625 
Q 39.453125 66.40625 31.78125 66.40625 
z
M 31.78125 74.21875 
Q 44.046875 74.21875 50.515625 64.515625 
Q 56.984375 54.828125 56.984375 36.375 
Q 56.984375 17.96875 50.515625 8.265625 
Q 44.046875 -1.421875 31.78125 -1.421875 
Q 19.53125 -1.421875 13.0625 8.265625 
Q 6.59375 17.96875 6.59375 36.375 
Q 6.59375 54.828125 13.0625 64.515625 
Q 19.53125 74.21875 31.78125 74.21875 
z
" id="DejaVuSans-48"/>
       <path d="M 10.6875 12.40625 
L 21 12.40625 
L 21 0 
L 10.6875 0 
z
" id="DejaVuSans-46"/>
       <path d="M 10.796875 72.90625 
L 49.515625 72.90625 
L 49.515625 64.59375 
L 19.828125 64.59375 
L 19.828125 46.734375 
Q 21.96875 47.46875 24.109375 47.828125 
Q 26.265625 48.1875 28.421875 48.1875 
Q 40.625 48.1875 47.75 41.5 
Q 54.890625 34.8125 54.890625 23.390625 
Q 54.890625 11.625 47.5625 5.09375 
Q 40.234375 -1.421875 26.90625 -1.421875 
Q 22.3125 -1.421875 17.546875 -0.640625 
Q 12.796875 0.140625 7.71875 1.703125 
L 7.71875 11.625 
Q 12.109375 9.234375 16.796875 8.0625 
Q 21.484375 6.890625 26.703125 6.890625 
Q 35.15625 6.890625 40.078125 11.328125 
Q 45.015625 15.765625 45.015625 23.390625 
Q 45.015625 31 40.078125 35.4375 
Q 35.15625 39.890625 26.703125 39.890625 
Q 22.75 39.890625 18.8125 39.015625 
Q 14.890625 38.140625 10.796875 36.28125 
z
" id="DejaVuSans-53"/>
      </defs>
      <g transform="translate(25.424375 289.137422)scale(0.11 -0.11)">
       <use transform="translate(0 0.78125)" xlink:href="#DejaVuSans-8722"/>
       <use transform="translate(83.789062 0.78125)" xlink:href="#DejaVuSans-48"/>
       <use transform="translate(147.412109 0.78125)" xlink:href="#DejaVuSans-46"/>
       <use transform="translate(179.199219 0.78125)" xlink:href="#DejaVuSans-53"/>
      </g>
     </g>
    </g>
    <g id="xtick_2">
     <g id="line2d_2">
      <g>
       <use style="stroke:#000000;stroke-width:0.8;" x="114.263125" xlink:href="#mfca5ec9a66" y="273.779141"/>
      </g>
     </g>
     <g id="text_2">
      <!-- $\mathdefault{0.0}$ -->
      <g transform="translate(105.463125 289.137422)scale(0.11 -0.11)">
       <use transform="translate(0 0.78125)" xlink:href="#DejaVuSans-48"/>
       <use transform="translate(63.623047 0.78125)" xlink:href="#DejaVuSans-46"/>
       <use transform="translate(95.410156 0.78125)" xlink:href="#DejaVuSans-48"/>
      </g>
     </g>
    </g>
    <g id="xtick_3">
     <g id="line2d_3">
      <g>
       <use style="stroke:#000000;stroke-width:0.8;" x="189.736875" xlink:href="#mfca5ec9a66" y="273.779141"/>
      </g>
     </g>
     <g id="text_3">
      <!-- $\mathdefault{0.5}$ -->
      <g transform="translate(180.936875 289.137422)scale(0.11 -0.11)">
       <use transform="translate(0 0.78125)" xlink:href="#DejaVuSans-48"/>
       <use transform="translate(63.623047 0.78125)" xlink:href="#DejaVuSans-46"/>
       <use transform="translate(95.410156 0.78125)" xlink:href="#DejaVuSans-53"/>
      </g>
     </g>
    </g>
    <g id="xtick_4">
     <g id="line2d_4">
      <g>
       <use style="stroke:#000000;stroke-width:0.8;" x="265.210625" xlink:href="#mfca5ec9a66" y="273.779141"/>
      </g>
     </g>
     <g id="text_4">
      <!-- $\mathdefault{1.0}$ -->
      <defs>
       <path d="M 12.40625 8.296875 
L 28.515625 8.296875 
L 28.515625 63.921875 
L 10.984375 60.40625 
L 10.984375 69.390625 
L 28.421875 72.90625 
L 38.28125 72.90625 
L 38.28125 8.296875 
L 54.390625 8.296875 
L 54.390625 0 
L 12.40625 0 
z
" id="DejaVuSans-49"/>
      </defs>
      <g transform="translate(256.410625 289.137422)scale(0.11 -0.11)">
       <use transform="translate(0 0.78125)" xlink:href="#DejaVuSans-49"/>
       <use transform="translate(63.623047 0.78125)" xlink:href="#DejaVuSans-46"/>
       <use transform="translate(95.410156 0.78125)" xlink:href="#DejaVuSans-48"/>
      </g>
     </g>
    </g>
    <g id="xtick_5">
     <g id="line2d_5">
      <g>
       <use style="stroke:#000000;stroke-width:0.8;" x="340.684375" xlink:href="#mfca5ec9a66" y="273.779141"/>
      </g>
     </g>
     <g id="text_5">
      <!-- $\mathdefault{1.5}$ -->
      <g transform="translate(331.884375 289.137422)scale(0.11 -0.11)">
       <use transform="translate(0 0.09375)" xlink:href="#DejaVuSans-49"/>
       <use transform="translate(63.623047 0.09375)" xlink:href="#DejaVuSans-46"/>
       <use transform="translate(95.410156 0.09375)" xlink:href="#DejaVuSans-53"/>
      </g>
     </g>
    </g>
    <g id="xtick_6">
     <g id="line2d_6">
      <g>
       <use style="stroke:#000000;stroke-width:0.8;" x="416.158125" xlink:href="#mfca5ec9a66" y="273.779141"/>
      </g>
     </g>
     <g id="text_6">
      <!-- $\mathdefault{2.0}$ -->
      <defs>
       <path d="M 19.1875 8.296875 
L 53.609375 8.296875 
L 53.609375 0 
L 7.328125 0 
L 7.328125 8.296875 
Q 12.9375 14.109375 22.625 23.890625 
Q 32.328125 33.6875 34.8125 36.53125 
Q 39.546875 41.84375 41.421875 45.53125 
Q 43.3125 49.21875 43.3125 52.78125 
Q 43.3125 58.59375 39.234375 62.25 
Q 35.15625 65.921875 28.609375 65.921875 
Q 23.96875 65.921875 18.8125 64.3125 
Q 13.671875 62.703125 7.8125 59.421875 
L 7.8125 69.390625 
Q 13.765625 71.78125 18.9375 73 
Q 24.125 74.21875 28.421875 74.21875 
Q 39.75 74.21875 46.484375 68.546875 
Q 53.21875 62.890625 53.21875 53.421875 
Q 53.21875 48.921875 51.53125 44.890625 
Q 49.859375 40.875 45.40625 35.40625 
Q 44.1875 33.984375 37.640625 27.21875 
Q 31.109375 20.453125 19.1875 8.296875 
z
" id="DejaVuSans-50"/>
      </defs>
      <g transform="translate(407.358125 289.137422)scale(0.11 -0.11)">
       <use transform="translate(0 0.78125)" xlink:href="#DejaVuSans-50"/>
       <use transform="translate(63.623047 0.78125)" xlink:href="#DejaVuSans-46"/>
       <use transform="translate(95.410156 0.78125)" xlink:href="#DejaVuSans-48"/>
      </g>
     </g>
    </g>
    <g id="text_7">
     <!-- Hinz -->
     <defs>
      <path d="M 9.8125 72.90625 
L 19.671875 72.90625 
L 19.671875 43.015625 
L 55.515625 43.015625 
L 55.515625 72.90625 
L 65.375 72.90625 
L 65.375 0 
L 55.515625 0 
L 55.515625 34.71875 
L 19.671875 34.71875 
L 19.671875 0 
L 9.8125 0 
z
" id="DejaVuSans-72"/>
      <path d="M 9.421875 54.6875 
L 18.40625 54.6875 
L 18.40625 0 
L 9.421875 0 
z
M 9.421875 75.984375 
L 18.40625 75.984375 
L 18.40625 64.59375 
L 9.421875 64.59375 
z
" id="DejaVuSans-105"/>
      <path d="M 54.890625 33.015625 
L 54.890625 0 
L 45.90625 0 
L 45.90625 32.71875 
Q 45.90625 40.484375 42.875 44.328125 
Q 39.84375 48.1875 33.796875 48.1875 
Q 26.515625 48.1875 22.3125 43.546875 
Q 18.109375 38.921875 18.109375 30.90625 
L 18.109375 0 
L 9.078125 0 
L 9.078125 54.6875 
L 18.109375 54.6875 
L 18.109375 46.1875 
Q 21.34375 51.125 25.703125 53.5625 
Q 30.078125 56 35.796875 56 
Q 45.21875 56 50.046875 50.171875 
Q 54.890625 44.34375 54.890625 33.015625 
z
" id="DejaVuSans-110"/>
      <path d="M 5.515625 54.6875 
L 48.1875 54.6875 
L 48.1875 46.484375 
L 14.40625 7.171875 
L 48.1875 7.171875 
L 48.1875 0 
L 4.296875 0 
L 4.296875 8.203125 
L 38.09375 47.515625 
L 5.515625 47.515625 
z
" id="DejaVuSans-122"/>
     </defs>
     <g transform="translate(212.154687 309.425078)scale(0.14 -0.14)">
      <use xlink:href="#DejaVuSans-72"/>
      <use x="75.195312" xlink:href="#DejaVuSans-105"/>
      <use x="102.978516" xlink:href="#DejaVuSans-110"/>
      <use x="166.357422" xlink:href="#DejaVuSans-122"/>
     </g>
    </g>
   </g>
   <g id="matplotlib.axis_2">
    <g id="ytick_1">
     <g id="line2d_7">
      <defs>
       <path d="M 0 0 
L -3.5 0 
" id="m1168c3ea5e" style="stroke:#000000;stroke-width:0.8;"/>
      </defs>
      <g>
       <use style="stroke:#000000;stroke-width:0.8;" x="38.789375" xlink:href="#m1168c3ea5e" y="244.623585"/>
      </g>
     </g>
     <g id="text_8">
      <!-- $\mathdefault{0}$ -->
      <g transform="translate(24.749375 248.802726)scale(0.11 -0.11)">
       <use transform="translate(0 0.78125)" xlink:href="#DejaVuSans-48"/>
      </g>
     </g>
    </g>
    <g id="ytick_2">
     <g id="line2d_8">
      <g>
       <use style="stroke:#000000;stroke-width:0.8;" x="38.789375" xlink:href="#m1168c3ea5e" y="186.312474"/>
      </g>
     </g>
     <g id="text_9">
      <!-- $\mathdefault{1}$ -->
      <g transform="translate(24.749375 190.491615)scale(0.11 -0.11)">
       <use transform="translate(0 0.09375)" xlink:href="#DejaVuSans-49"/>
      </g>
     </g>
    </g>
    <g id="ytick_3">
     <g id="line2d_9">
      <g>
       <use style="stroke:#000000;stroke-width:0.8;" x="38.789375" xlink:href="#m1168c3ea5e" y="128.001363"/>
      </g>
     </g>
     <g id="text_10">
      <!-- $\mathdefault{2}$ -->
      <g transform="translate(24.749375 132.180503)scale(0.11 -0.11)">
       <use transform="translate(0 0.78125)" xlink:href="#DejaVuSans-50"/>
      </g>
     </g>
    </g>
    <g id="ytick_4">
     <g id="line2d_10">
      <g>
       <use style="stroke:#000000;stroke-width:0.8;" x="38.789375" xlink:href="#m1168c3ea5e" y="69.690252"/>
      </g>
     </g>
     <g id="text_11">
      <!-- $\mathdefault{3}$ -->
      <defs>
       <path d="M 40.578125 39.3125 
Q 47.65625 37.796875 51.625 33 
Q 55.609375 28.21875 55.609375 21.1875 
Q 55.609375 10.40625 48.1875 4.484375 
Q 40.765625 -1.421875 27.09375 -1.421875 
Q 22.515625 -1.421875 17.65625 -0.515625 
Q 12.796875 0.390625 7.625 2.203125 
L 7.625 11.71875 
Q 11.71875 9.328125 16.59375 8.109375 
Q 21.484375 6.890625 26.8125 6.890625 
Q 36.078125 6.890625 40.9375 10.546875 
Q 45.796875 14.203125 45.796875 21.1875 
Q 45.796875 27.640625 41.28125 31.265625 
Q 36.765625 34.90625 28.71875 34.90625 
L 20.21875 34.90625 
L 20.21875 43.015625 
L 29.109375 43.015625 
Q 36.375 43.015625 40.234375 45.921875 
Q 44.09375 48.828125 44.09375 54.296875 
Q 44.09375 59.90625 40.109375 62.90625 
Q 36.140625 65.921875 28.71875 65.921875 
Q 24.65625 65.921875 20.015625 65.03125 
Q 15.375 64.15625 9.8125 62.3125 
L 9.8125 71.09375 
Q 15.4375 72.65625 20.34375 73.4375 
Q 25.25 74.21875 29.59375 74.21875 
Q 40.828125 74.21875 47.359375 69.109375 
Q 53.90625 64.015625 53.90625 55.328125 
Q 53.90625 49.265625 50.4375 45.09375 
Q 46.96875 40.921875 40.578125 39.3125 
z
" id="DejaVuSans-51"/>
      </defs>
      <g transform="translate(24.749375 73.869392)scale(0.11 -0.11)">
       <use transform="translate(0 0.78125)" xlink:href="#DejaVuSans-51"/>
      </g>
     </g>
    </g>
    <g id="ytick_5">
     <g id="line2d_11">
      <g>
       <use style="stroke:#000000;stroke-width:0.8;" x="38.789375" xlink:href="#m1168c3ea5e" y="11.379141"/>
      </g>
     </g>
     <g id="text_12">
      <!-- $\mathdefault{4}$ -->
      <defs>
       <path d="M 37.796875 64.3125 
L 12.890625 25.390625 
L 37.796875 25.390625 
z
M 35.203125 72.90625 
L 47.609375 72.90625 
L 47.609375 25.390625 
L 58.015625 25.390625 
L 58.015625 17.1875 
L 47.609375 17.1875 
L 47.609375 0 
L 37.796875 0 
L 37.796875 17.1875 
L 4.890625 17.1875 
L 4.890625 26.703125 
z
" id="DejaVuSans-52"/>
      </defs>
      <g transform="translate(24.749375 15.558281)scale(0.11 -0.11)">
       <use transform="translate(0 0.09375)" xlink:href="#DejaVuSans-52"/>
      </g>
     </g>
    </g>
    <g id="text_13">
     <!-- Kunz -->
     <defs>
      <path d="M 9.8125 72.90625 
L 19.671875 72.90625 
L 19.671875 42.09375 
L 52.390625 72.90625 
L 65.09375 72.90625 
L 28.90625 38.921875 
L 67.671875 0 
L 54.6875 0 
L 19.671875 35.109375 
L 19.671875 0 
L 9.8125 0 
z
" id="DejaVuSans-75"/>
      <path d="M 8.5 21.578125 
L 8.5 54.6875 
L 17.484375 54.6875 
L 17.484375 21.921875 
Q 17.484375 14.15625 20.5 10.265625 
Q 23.53125 6.390625 29.59375 6.390625 
Q 36.859375 6.390625 41.078125 11.03125 
Q 45.3125 15.671875 45.3125 23.6875 
L 45.3125 54.6875 
L 54.296875 54.6875 
L 54.296875 0 
L 45.3125 0 
L 45.3125 8.40625 
Q 42.046875 3.421875 37.71875 1 
Q 33.40625 -1.421875 27.6875 -1.421875 
Q 18.265625 -1.421875 13.375 4.4375 
Q 8.5 10.296875 8.5 21.578125 
z
M 31.109375 56 
z
" id="DejaVuSans-117"/>
     </defs>
     <g transform="translate(17.837813 159.366016)rotate(-90)scale(0.14 -0.14)">
      <use xlink:href="#DejaVuSans-75"/>
      <use x="60.576172" xlink:href="#DejaVuSans-117"/>
      <use x="123.955078" xlink:href="#DejaVuSans-110"/>
      <use x="187.333984" xlink:href="#DejaVuSans-122"/>
     </g>
    </g>
   </g>
   <g id="LineCollection_1">
    <path clip-path="url(#p0d8e34b3da)" d="M 186.274825 238.147683 
L 187.466358 237.555477 
L 190.14731 235.936951 
L 193.961378 233.605993 
L 196.539967 232.266679 
L 197.892279 231.509498 
L 204.743599 227.538048 
L 205.339366 227.288573 
L 205.468881 227.355859 
L 205.120082 227.802297 
L 202.360531 230.634236 
L 202.956298 230.439898 
L 204.743599 229.523599 
L 211.297035 225.785704 
L 215.765286 222.906566 
L 215.765286 223.207796 
L 214.829071 224.45401 
L 214.871636 224.685817 
L 214.891327 224.677229 
L 215.765286 224.283305 
L 220.590181 221.328943 
L 222.616606 220.159278 
L 224.910864 218.873533 
L 227.680625 217.408133 
L 232.370193 214.409151 
L 237.212895 211.488725 
L 256.277436 198.674894 
L 262.650389 193.872994 
L 266.703357 190.693482 
L 273.85256 184.935062 
L 275.67906 183.381696 
L 280.034997 180.03341 
L 284.576364 176.567385 
L 286.544743 174.89937 
L 287.285514 174.006494 
L 287.198248 174.006494 
L 286.363665 174.323998 
L 286.065781 174.474973 
L 285.7614 174.452932 
L 285.767898 174.446936 
L 288.216713 172.220741 
L 295.002285 166.639208 
L 304.534555 158.32073 
L 305.571555 157.041843 
L 306.099427 156.148966 
L 306.338584 155.702528 
L 308.109157 154.069955 
L 311.981642 150.565242 
L 311.670927 150.568489 
L 310.071153 151.238146 
L 311.86057 149.675612 
L 315.962005 146.104107 
L 319.886822 142.309382 
L 322.169315 139.853972 
L 322.814012 138.514657 
L 323.750004 137.398562 
L 324.626062 136.282466 
L 325.982164 134.995906 
L 327.650201 133.380618 
L 328.35479 132.487742 
L 328.3852 132.041304 
L 329.268737 131.148427 
L 332.5356 128.295296 
L 335.628289 125.121512 
L 335.873964 124.675073 
L 335.812318 124.58908 
L 335.216551 124.717842 
L 334.025017 125.180939 
L 334.025017 125.046528 
L 334.353512 124.675073 
L 337.003852 122.419155 
L 340.876337 119.278565 
L 342.277143 117.9785 
L 342.579497 117.532062 
L 342.365754 117.394916 
L 341.472104 117.46565 
L 341.369628 117.308843 
L 341.472104 116.625032 
L 341.133895 116.639186 
L 339.982686 117.187945 
L 337.301735 118.756112 
L 337.125666 118.648158 
L 338.861652 117.308843 
L 341.512 115.299871 
L 345.642472 111.864601 
L 346.238239 111.220791 
L 346.335735 111.058708 
L 346.238239 110.985651 
L 345.344589 111.390421 
L 341.769987 113.758193 
L 336.705968 117.577783 
L 334.65038 119.317815 
L 333.0451 121.103568 
L 332.345972 121.773225 
L 329.854649 123.572562 
L 321.348883 129.809113 
L 318.237194 132.520405 
L 317.881724 132.93418 
L 317.823312 133.157399 
L 317.939311 133.253912 
L 318.268124 133.380618 
L 318.237194 133.414495 
L 317.343544 134.328362 
L 314.456799 136.952124 
L 314.066826 137.573562 
L 313.815222 138.291438 
L 312.091521 139.853972 
L 306.84892 144.318354 
L 301.555721 149.237505 
L 299.894288 150.791708 
L 297.683236 153.545389 
L 294.816975 156.148966 
L 292.562965 157.934719 
L 289.762879 160.16691 
L 286.814105 162.845539 
L 284.839 164.408073 
L 275.230204 171.997522 
L 268.788541 177.584095 
L 264.056846 181.595943 
L 264.022406 181.893682 
L 263.724522 182.28759 
L 262.410753 183.381696 
L 259.554154 185.352867 
L 257.697843 186.506764 
L 255.681669 187.89589 
L 252.523236 190.078269 
L 244.064215 195.910355 
L 239.758132 198.783814 
L 237.14173 200.569567 
L 234.234061 202.595664 
L 233.638294 202.914288 
L 232.148876 203.440304 
L 229.251394 205.257168 
L 225.816046 207.712578 
L 221.985448 210.391207 
L 210.105501 218.122063 
L 209.999751 217.980656 
L 211.892802 216.360699 
L 212.960811 215.302027 
L 213.084335 215.048248 
L 212.987687 215.078808 
L 212.440122 215.302027 
L 210.403384 216.579751 
L 205.623487 219.989628 
L 194.780333 228.471954 
L 192.530377 230.56197 
L 192.129731 231.150583 
L 192.05658 231.820241 
L 191.572458 232.489898 
L 189.986012 234.052432 
L 186.561835 237.400718 
L 186.083492 238.070375 
L 186.274825 238.147683 
L 186.274825 238.147683 
" style="fill:none;stroke:#000000;stroke-width:1.714286;"/>
    <path clip-path="url(#p0d8e34b3da)" d="M 194.317678 226.9113 
L 194.32955 226.90942 
L 194.317678 226.908405 
L 194.316291 226.90942 
L 194.317678 226.9113 
" style="fill:none;stroke:#000000;stroke-width:1.714286;"/>
    <path clip-path="url(#p0d8e34b3da)" d="M 194.615561 226.833232 
L 194.913445 226.722734 
L 194.979888 226.686201 
L 195.211328 226.550776 
L 195.372755 226.462982 
L 195.509212 226.382248 
L 195.774475 226.239763 
L 195.807095 226.220183 
L 196.104979 226.041804 
L 196.145563 226.016544 
L 196.402862 225.852837 
L 196.497807 225.793325 
L 196.700745 225.661782 
L 196.846397 225.570106 
L 196.998629 225.469541 
L 197.192428 225.346887 
L 197.296512 225.276599 
L 197.536416 225.123668 
L 197.594396 225.083484 
L 197.880279 224.900449 
L 197.892279 224.891878 
L 198.190163 224.692412 
L 198.21321 224.677229 
L 198.488046 224.487417 
L 198.53886 224.45401 
L 198.78593 224.280069 
L 198.859831 224.230791 
L 199.083813 224.06878 
L 199.17474 224.007572 
L 199.381697 223.853391 
L 199.483025 223.784353 
L 199.67958 223.632568 
L 199.782787 223.561134 
L 199.977463 223.40386 
L 200.070737 223.337915 
L 200.275347 223.162425 
L 200.340873 223.114696 
L 200.57323 222.898102 
L 200.581925 222.891477 
L 200.57323 222.877856 
L 200.275347 222.887162 
L 200.267224 222.891477 
L 199.977463 223.054725 
L 199.863526 223.114696 
L 199.67958 223.219588 
L 199.45146 223.337915 
L 199.381697 223.37822 
L 199.083813 223.544904 
L 199.057899 223.561134 
L 198.78593 223.733509 
L 198.705058 223.784353 
L 198.488046 223.924262 
L 198.356229 224.007572 
L 198.190163 224.116691 
L 198.010649 224.230791 
L 197.892279 224.310232 
L 197.666432 224.45401 
L 197.594396 224.503434 
L 197.324676 224.677229 
L 197.296512 224.697139 
L 196.998629 224.894292 
L 196.989466 224.900449 
L 196.700745 225.100951 
L 196.666995 225.123668 
L 196.402862 225.310086 
L 196.348203 225.346887 
L 196.104979 225.521619 
L 196.033578 225.570106 
L 195.807095 225.736569 
L 195.723939 225.793325 
L 195.509212 225.955079 
L 195.419849 226.016544 
L 195.211328 226.178419 
L 195.122915 226.239763 
L 194.913445 226.408488 
L 194.835665 226.462982 
L 194.615561 226.648935 
L 194.563372 226.686201 
L 194.615561 226.833232 
" style="fill:none;stroke:#000000;stroke-width:1.714286;"/>
    <path clip-path="url(#p0d8e34b3da)" d="M 208.913967 218.891752 
L 208.894599 218.873533 
L 208.913967 218.849186 
L 208.940776 218.873533 
L 208.913967 218.891752 
" style="fill:none;stroke:#000000;stroke-width:1.714286;"/>
    <path clip-path="url(#p0d8e34b3da)" d="M 209.211851 218.715123 
L 209.111704 218.650314 
L 209.211851 218.580749 
L 209.343214 218.650314 
L 209.211851 218.715123 
" style="fill:none;stroke:#000000;stroke-width:1.714286;"/>
    <path clip-path="url(#p0d8e34b3da)" d="M 209.509734 218.525256 
L 209.417221 218.427095 
L 209.509734 218.359939 
L 209.655758 218.427095 
L 209.509734 218.525256 
" style="fill:none;stroke:#000000;stroke-width:1.714286;"/>
    <path clip-path="url(#p0d8e34b3da)" d="M 209.807617 218.317846 
L 209.712812 218.203876 
L 209.807617 218.132148 
L 209.985718 218.203876 
L 209.807617 218.317846 
" style="fill:none;stroke:#000000;stroke-width:1.714286;"/>
    <path clip-path="url(#p0d8e34b3da)" d="M 228.872158 204.393204 
L 228.917975 204.364291 
L 228.872158 204.339156 
L 228.842769 204.364291 
L 228.872158 204.393204 
" style="fill:none;stroke:#000000;stroke-width:1.714286;"/>
    <path clip-path="url(#p0d8e34b3da)" d="M 229.170042 204.209091 
L 229.272746 204.141072 
L 229.170042 204.08332 
L 229.100254 204.141072 
L 229.170042 204.209091 
" style="fill:none;stroke:#000000;stroke-width:1.714286;"/>
    <path clip-path="url(#p0d8e34b3da)" d="M 229.467925 204.01357 
L 229.605859 203.917853 
L 229.467925 203.83874 
L 229.368904 203.917853 
L 229.467925 204.01357 
" style="fill:none;stroke:#000000;stroke-width:1.714286;"/>
    <path clip-path="url(#p0d8e34b3da)" d="M 229.765809 203.806109 
L 229.915665 203.694634 
L 229.765809 203.604995 
L 229.650107 203.694634 
L 229.765809 203.806109 
" style="fill:none;stroke:#000000;stroke-width:1.714286;"/>
    <path clip-path="url(#p0d8e34b3da)" d="M 230.063692 203.586429 
L 230.21581 203.471415 
L 230.063692 203.379181 
L 229.940565 203.471415 
L 230.063692 203.586429 
" style="fill:none;stroke:#000000;stroke-width:1.714286;"/>
    <path clip-path="url(#p0d8e34b3da)" d="M 230.361576 203.358909 
L 230.501786 203.248196 
L 230.361576 203.16211 
L 230.242709 203.248196 
L 230.361576 203.358909 
" style="fill:none;stroke:#000000;stroke-width:1.714286;"/>
    <path clip-path="url(#p0d8e34b3da)" d="M 230.659459 203.119788 
L 230.774499 203.024977 
L 230.659459 202.953521 
L 230.557392 203.024977 
L 230.659459 203.119788 
" style="fill:none;stroke:#000000;stroke-width:1.714286;"/>
    <path clip-path="url(#p0d8e34b3da)" d="M 230.957343 202.867949 
L 231.034328 202.801758 
L 230.957343 202.753422 
L 230.885909 202.801758 
L 230.957343 202.867949 
" style="fill:none;stroke:#000000;stroke-width:1.714286;"/>
    <path clip-path="url(#p0d8e34b3da)" d="M 231.255226 202.601798 
L 231.281167 202.578539 
L 231.255226 202.562088 
L 231.230068 202.578539 
L 231.255226 202.601798 
" style="fill:none;stroke:#000000;stroke-width:1.714286;"/>
    <path clip-path="url(#p0d8e34b3da)" d="M 309.896458 151.489309 
L 309.847714 151.461365 
L 309.896458 151.410964 
L 309.952418 151.461365 
L 309.896458 151.489309 
" style="fill:none;stroke:#000000;stroke-width:1.714286;"/>
    <path clip-path="url(#p0d8e34b3da)" d="M 336.408085 119.327832 
L 336.326736 119.317815 
L 336.408085 119.26444 
L 336.425226 119.317815 
L 336.408085 119.327832 
" style="fill:none;stroke:#000000;stroke-width:1.714286;"/>
    <path clip-path="url(#p0d8e34b3da)" d="M 336.705968 119.129589 
L 336.56031 119.094596 
L 336.705968 118.995204 
L 336.767572 119.094596 
L 336.705968 119.129589 
" style="fill:none;stroke:#000000;stroke-width:1.714286;"/>
    <path clip-path="url(#p0d8e34b3da)" d="M 337.003852 118.938325 
L 336.834427 118.871377 
L 337.003852 118.755036 
L 337.127059 118.871377 
L 337.003852 118.938325 
" style="fill:none;stroke:#000000;stroke-width:1.714286;"/>
   </g>
   <g id="LineCollection_2">
    <path clip-path="url(#p0d8e34b3da)" d="M 196.998629 227.860977 
L 197.607976 227.802297 
L 199.381697 226.94079 
L 200.899855 226.686201 
L 202.360531 225.954436 
L 204.147832 225.102241 
L 204.19203 225.123668 
L 204.147832 225.383016 
L 203.448837 226.239763 
L 202.166717 227.579078 
L 202.360531 227.665089 
L 203.368631 227.132639 
L 206.067767 225.570106 
L 208.616084 223.899189 
L 209.509734 223.490004 
L 210.403384 223.549426 
L 212.011641 223.114696 
L 211.712977 223.561134 
L 211.086547 224.230791 
L 211.297035 224.343745 
L 213.382219 223.01983 
L 220.531422 218.227217 
L 223.83349 216.418123 
L 224.999674 216.067119 
L 226.060806 215.748465 
L 227.277439 215.078808 
L 228.654388 214.185932 
L 235.723478 209.437363 
L 235.915339 209.498331 
L 235.28787 210.167988 
L 231.475897 213.293055 
L 231.553109 213.408422 
L 232.248101 213.069836 
L 234.234061 211.808001 
L 245.982564 203.471415 
L 252.404951 198.754188 
L 256.873203 195.55678 
L 266.10759 188.735391 
L 266.703357 188.444056 
L 267.00124 188.466278 
L 267.308023 188.292516 
L 267.346949 188.069297 
L 271.469492 184.493871 
L 277.561025 179.586972 
L 277.427161 179.390001 
L 277.07471 179.363752 
L 278.080592 178.247657 
L 280.405996 175.953973 
L 281.304502 175.12259 
L 282.789063 174.110785 
L 284.874248 172.804457 
L 287.555199 170.96974 
L 292.321334 167.276318 
L 297.11747 163.291977 
L 297.33323 163.068758 
L 297.087469 162.977965 
L 295.043912 164.184854 
L 293.810751 164.878082 
L 293.604964 164.854511 
L 294.128816 164.184854 
L 296.291317 162.399101 
L 300.729191 158.827595 
L 301.435829 158.157938 
L 301.257837 158.019532 
L 300.425439 158.157938 
L 301.123144 157.488281 
L 305.248901 154.139994 
L 307.540314 152.131022 
L 310.205296 149.452393 
L 315.613442 144.764792 
L 315.556243 144.627516 
L 314.960476 144.881168 
L 313.768943 145.496206 
L 313.667181 145.434449 
L 314.543814 144.541573 
L 316.758808 142.309382 
L 317.086587 141.639725 
L 317.939311 140.8156 
L 320.415409 138.737877 
L 321.35149 137.845 
L 321.216029 137.711189 
L 320.172944 138.068219 
L 320.123198 137.845 
L 320.620262 137.239075 
L 321.667559 136.282466 
L 328.365232 130.694615 
L 329.715308 129.362674 
L 329.854649 129.10923 
L 329.258882 129.312094 
L 326.577931 130.840523 
L 326.46091 130.701989 
L 327.332536 129.809113 
L 332.010122 125.344731 
L 331.939833 125.153927 
L 330.748299 125.82748 
L 329.746082 126.460826 
L 321.966915 131.594865 
L 320.260879 132.93418 
L 319.414864 133.827056 
L 318.295686 135.612809 
L 317.218017 136.728905 
L 317.343544 136.811803 
L 318.832961 136.309538 
L 319.54296 136.059247 
L 319.773821 136.059247 
L 319.726612 136.130048 
L 319.428728 136.531273 
L 317.158082 138.514657 
L 314.364709 140.576111 
L 307.138796 145.657669 
L 305.994458 146.773764 
L 305.428206 147.890968 
L 302.628127 150.791708 
L 301.972752 151.684584 
L 299.395284 154.363213 
L 298.491741 155.25609 
L 293.126532 159.497253 
L 290.23615 161.889385 
L 284.397887 167.086702 
L 283.086947 168.694992 
L 281.243971 170.434988 
L 278.320812 172.97202 
L 275.48153 175.12259 
L 262.493789 184.497792 
L 259.554154 186.992246 
L 256.873203 189.323822 
L 252.702835 192.623088 
L 249.128233 195.255893 
L 236.733011 203.694634 
L 234.531944 205.042565 
L 231.553109 207.140164 
L 228.687207 209.275112 
L 228.26807 209.275112 
L 228.276392 209.494895 
L 228.574275 209.308853 
L 228.574275 209.535705 
L 227.382741 210.556334 
L 223.377022 213.516274 
L 222.914489 213.811917 
L 222.788778 213.739494 
L 224.398323 212.400179 
L 227.955366 209.72155 
L 227.680625 209.627551 
L 226.191207 210.407286 
L 225.59544 210.674514 
L 225.480525 210.614426 
L 225.59544 210.08657 
L 224.999674 210.322434 
L 220.450336 213.293055 
L 218.148354 214.747928 
L 217.78074 214.855589 
L 217.850471 214.628216 
L 219.513933 212.846617 
L 219.339888 212.770712 
L 218.351528 213.293055 
L 211.892802 217.587569 
L 198.977304 226.462982 
L 198.488046 226.700428 
L 197.810586 226.90942 
L 196.998629 227.522554 
L 196.873468 227.802297 
L 196.998629 227.860977 
L 196.998629 227.860977 
" style="fill:none;stroke:#000000;stroke-width:1.714286;"/>
    <path clip-path="url(#p0d8e34b3da)" d="M 210.999151 224.495484 
L 211.079752 224.45401 
L 210.999151 224.350023 
L 210.920434 224.45401 
L 210.999151 224.495484 
" style="fill:none;stroke:#000000;stroke-width:1.714286;"/>
    <path clip-path="url(#p0d8e34b3da)" d="M 222.020839 214.414316 
L 222.011983 214.409151 
L 222.020839 214.401333 
L 222.028498 214.409151 
L 222.020839 214.414316 
" style="fill:none;stroke:#000000;stroke-width:1.714286;"/>
    <path clip-path="url(#p0d8e34b3da)" d="M 222.318722 214.21544 
L 222.267127 214.185932 
L 222.318722 214.14127 
L 222.361944 214.185932 
L 222.318722 214.21544 
" style="fill:none;stroke:#000000;stroke-width:1.714286;"/>
    <path clip-path="url(#p0d8e34b3da)" d="M 222.616606 214.01259 
L 222.527902 213.962713 
L 222.616606 213.88758 
L 222.691143 213.962713 
L 222.616606 214.01259 
" style="fill:none;stroke:#000000;stroke-width:1.714286;"/>
    <path clip-path="url(#p0d8e34b3da)" d="M 231.255226 213.524314 
L 231.281048 213.516274 
L 231.255226 213.509553 
L 231.248114 213.516274 
L 231.255226 213.524314 
" style="fill:none;stroke:#000000;stroke-width:1.714286;"/>
    <path clip-path="url(#p0d8e34b3da)" d="M 227.978508 209.680637 
L 228.275528 209.498331 
L 227.978508 209.46845 
L 227.91462 209.498331 
L 227.978508 209.680637 
" style="fill:none;stroke:#000000;stroke-width:1.714286;"/>
    <path clip-path="url(#p0d8e34b3da)" d="M 236.021361 209.293864 
L 236.015794 209.275112 
L 236.021361 209.271985 
L 236.036637 209.275112 
L 236.021361 209.293864 
" style="fill:none;stroke:#000000;stroke-width:1.714286;"/>
    <path clip-path="url(#p0d8e34b3da)" d="M 277.725045 179.408184 
L 277.770373 179.363752 
L 277.725045 179.282385 
L 277.517842 179.363752 
L 277.725045 179.408184 
" style="fill:none;stroke:#000000;stroke-width:1.714286;"/>
    <path clip-path="url(#p0d8e34b3da)" d="M 297.385353 162.965785 
L 297.441059 162.845539 
L 297.385353 162.82393 
L 297.342114 162.845539 
L 297.385353 162.965785 
" style="fill:none;stroke:#000000;stroke-width:1.714286;"/>
    <path clip-path="url(#p0d8e34b3da)" d="M 301.555721 157.942415 
L 301.560862 157.934719 
L 301.555721 157.931824 
L 301.544471 157.934719 
L 301.555721 157.942415 
" style="fill:none;stroke:#000000;stroke-width:1.714286;"/>
    <path clip-path="url(#p0d8e34b3da)" d="M 321.513912 137.642249 
L 321.53062 137.621781 
L 321.513912 137.605943 
L 321.468224 137.621781 
L 321.513912 137.642249 
" style="fill:none;stroke:#000000;stroke-width:1.714286;"/>
    <path clip-path="url(#p0d8e34b3da)" d="M 320.620262 130.953563 
L 321.015423 130.925208 
L 322.407563 130.160987 
L 324.878554 128.693017 
L 325.088514 128.612501 
L 325.684281 128.611896 
L 327.769465 127.249223 
L 328.663115 126.569849 
L 335.216551 121.748989 
L 337.305094 119.987472 
L 338.118833 119.094596 
L 337.897502 119.020886 
L 336.705968 119.662188 
L 325.088514 127.241927 
L 321.79831 129.809113 
L 320.620262 130.953563 
L 320.620262 130.953563 
" style="fill:none;stroke:#000000;stroke-width:1.714286;"/>
    <path clip-path="url(#p0d8e34b3da)" d="M 326.280048 130.94009 
L 326.268855 130.925208 
L 326.280048 130.911277 
L 326.322958 130.925208 
L 326.280048 130.94009 
" style="fill:none;stroke:#000000;stroke-width:1.714286;"/>
    <path clip-path="url(#p0d8e34b3da)" d="M 336.110201 118.746584 
L 336.34099 118.648158 
L 336.408085 118.623245 
L 336.705968 118.458679 
L 336.755633 118.424939 
L 337.003852 118.274834 
L 337.110427 118.201719 
L 337.301735 118.083441 
L 337.453222 117.9785 
L 337.599619 117.886067 
L 337.786753 117.755281 
L 337.897502 117.68391 
L 338.112825 117.532062 
L 338.195386 117.475464 
L 338.41791 117.308843 
L 338.493269 117.258531 
L 338.735681 117.085624 
L 338.791153 117.047853 
L 339.048665 116.862405 
L 339.089036 116.834373 
L 339.357517 116.639186 
L 339.386919 116.61837 
L 339.662724 116.415967 
L 339.684803 116.400031 
L 339.964638 116.192748 
L 339.982686 116.179468 
L 340.263496 115.969528 
L 340.28057 115.956724 
L 340.559434 115.746309 
L 340.578453 115.731771 
L 340.852493 115.52309 
L 340.876337 115.504514 
L 341.142625 115.299871 
L 341.17422 115.274783 
L 341.429706 115.076652 
L 341.472104 115.042344 
L 341.713493 114.853433 
L 341.769987 114.806844 
L 341.993633 114.630214 
L 342.067871 114.567825 
L 342.26968 114.406995 
L 342.365754 114.324642 
L 342.540563 114.183776 
L 342.663637 114.076395 
L 342.806426 113.960557 
L 342.961521 113.822672 
L 343.06578 113.737337 
L 343.259404 113.561916 
L 343.317272 113.514118 
L 343.557288 113.292519 
L 343.559231 113.290899 
L 343.753401 113.06768 
L 343.855171 112.931312 
L 343.927248 112.844461 
L 343.855171 112.7905 
L 343.739818 112.844461 
L 343.557288 112.921112 
L 343.259404 113.066638 
L 343.257859 113.06768 
L 342.961521 113.248135 
L 342.898716 113.290899 
L 342.663637 113.436782 
L 342.551095 113.514118 
L 342.365754 113.631328 
L 342.212891 113.737337 
L 342.067871 113.830797 
L 341.882461 113.960557 
L 341.769987 114.034422 
L 341.55852 114.183776 
L 341.472104 114.241607 
L 341.240059 114.406995 
L 341.17422 114.451895 
L 340.926305 114.630214 
L 340.876337 114.664939 
L 340.616652 114.853433 
L 340.578453 114.880484 
L 340.310644 115.076652 
L 340.28057 115.098355 
L 340.007952 115.299871 
L 339.982686 115.31845 
L 339.708351 115.52309 
L 339.684803 115.540735 
L 339.411711 115.746309 
L 339.386919 115.76524 
L 339.117993 115.969528 
L 339.089036 115.99206 
L 338.827243 116.192748 
L 338.791153 116.221363 
L 338.539597 116.415967 
L 338.493269 116.453398 
L 338.255285 116.639186 
L 338.195386 116.688503 
L 337.974647 116.862405 
L 337.897502 116.927129 
L 337.698146 117.085624 
L 337.599619 117.16986 
L 337.426393 117.308843 
L 337.301735 117.416472 
L 337.158646 117.532062 
L 337.003852 117.669154 
L 336.898345 117.755281 
L 336.705968 117.928797 
L 336.645618 117.9785 
L 336.408085 118.196658 
L 336.401993 118.201719 
L 336.197176 118.424939 
L 336.110201 118.533939 
L 336.010086 118.648158 
L 336.110201 118.746584 
" style="fill:none;stroke:#000000;stroke-width:1.714286;"/>
   </g>
   <g id="LineCollection_3">
    <path clip-path="url(#p0d8e34b3da)" d="M 415.066347 11.379141 
L 414.82335 14.029646 
L 416.158125 15.284218 
L 416.549305 14.029646 
L 417.145549 11.379141 
" style="fill:none;stroke:#fff5f0;stroke-width:1.5;"/>
    <path clip-path="url(#p0d8e34b3da)" d="M 100.540625 247.355494 
L 107.401875 248.026153 
L 114.263125 248.528663 
L 121.124375 248.780768 
L 127.985625 248.742353 
L 134.846875 248.429527 
L 141.708125 247.890837 
L 148.569375 247.116934 
L 162.39709 244.623585 
L 172.618525 241.97308 
L 182.875625 238.895389 
L 189.736875 236.539545 
L 196.598125 233.879455 
L 203.459375 230.920273 
L 217.181875 224.298709 
L 218.708333 223.419545 
L 224.043125 220.737767 
L 228.152925 218.118535 
L 230.904375 216.697565 
L 232.720931 215.46803 
L 237.765625 212.616401 
L 241.061974 210.167019 
L 244.626875 208.138931 
L 249.024749 204.866009 
L 251.488125 203.430979 
L 252.946083 202.215504 
L 256.579187 199.564999 
L 258.349375 198.510821 
L 260.131281 196.914494 
L 263.698844 194.263989 
L 265.210625 193.341613 
L 267.018011 191.613484 
L 270.394994 188.962979 
L 272.071875 187.908801 
L 273.649633 186.312474 
L 276.734156 183.661969 
L 278.933125 182.226939 
L 280.078861 181.011464 
L 282.821627 178.360959 
L 285.794375 176.332871 
L 288.764386 173.059949 
L 292.655625 170.20832 
L 294.642433 167.758939 
L 297.453082 165.108434 
L 299.516875 163.687464 
L 300.501645 162.457929 
L 302.775293 159.807423 
L 306.378125 157.125646 
L 308.268875 154.506413 
L 310.772864 151.855908 
L 313.239375 150.084568 
L 315.833041 146.554898 
L 318.623724 143.904393 
L 320.100625 142.890655 
L 321.207429 141.253888 
L 323.182257 138.603383 
L 326.961875 135.502091 
L 328.340581 133.302373 
L 330.301785 130.651868 
L 333.823125 127.859253 
L 335.293048 125.350858 
L 337.186753 122.700353 
L 340.684375 119.917322 
L 342.083041 117.399343 
L 343.855249 114.748838 
L 346.845261 112.098333 
L 347.545625 111.671146 
L 348.735902 109.447827 
L 350.350657 106.797322 
L 352.868638 104.146817 
L 354.406875 103.161512 
L 356.728714 98.845807 
L 358.754002 96.195302 
L 361.268125 94.455425 
L 363.038937 90.894292 
L 364.662332 88.243787 
L 368.141838 85.593282 
L 369.313653 82.942777 
L 370.652869 80.292272 
L 372.67336 77.641767 
L 374.990625 76.245766 
L 378.113896 69.690252 
L 381.41312 67.039747 
L 381.851875 66.88259 
L 383.950873 61.738737 
L 385.382911 59.088232 
L 388.713125 57.054473 
L 388.98004 56.437726 
L 390.984729 51.136716 
L 392.329408 48.486211 
L 395.574375 46.991143 
L 396.026562 45.835706 
L 397.802438 40.534696 
L 398.505571 37.884191 
L 395.574375 37.174945 
L 395.266038 37.884191 
L 393.225571 43.185201 
L 391.509854 45.835706 
L 388.713125 46.6919 
L 386.846524 51.136716 
L 385.441504 53.787221 
L 381.851875 55.934872 
L 381.605391 56.437726 
L 380.46777 59.088232 
L 379.129135 61.738737 
L 376.524976 64.389242 
L 374.990625 65.019839 
L 372.718124 69.690252 
L 370.764452 72.340757 
L 368.129375 73.902338 
L 366.218904 77.641767 
L 364.436343 80.292272 
L 361.268125 82.468053 
L 360.998768 82.942777 
L 359.627361 85.593282 
L 357.885 88.243787 
L 354.35113 90.894292 
L 352.934207 93.544797 
L 351.167327 96.195302 
L 347.545625 98.984665 
L 346.126071 101.496312 
L 344.285353 104.146817 
L 340.684375 106.929848 
L 339.184474 109.447827 
L 337.216042 112.098333 
L 333.749997 114.748838 
L 332.083019 117.399343 
L 329.909906 120.049848 
L 326.961875 122.194347 
L 324.781333 125.350858 
L 322.269117 128.001363 
L 320.100625 129.501963 
L 317.21108 133.302373 
L 314.075889 135.952878 
L 313.239375 136.488184 
L 311.661016 138.603383 
L 309.238809 141.253888 
L 306.378125 143.296651 
L 303.709224 146.554898 
L 300.543205 149.205403 
L 299.516875 149.872849 
L 297.86526 151.855908 
L 295.164438 154.506413 
L 292.655625 156.232204 
L 289.299848 159.807423 
L 285.603706 162.457929 
L 283.141377 165.108434 
L 278.933125 168.171775 
L 276.750147 170.409444 
L 273.335912 173.059949 
L 272.071875 173.85867 
L 270.138197 175.710454 
L 266.688383 178.360959 
L 265.210625 179.283335 
L 263.290394 181.011464 
L 259.660871 183.661969 
L 258.349375 184.46069 
L 256.16808 186.312474 
L 251.488125 189.375815 
L 248.701856 191.613484 
L 244.356765 194.263989 
L 240.768651 196.914494 
L 237.765625 198.640285 
L 236.418284 199.564999 
L 227.852236 204.866009 
L 223.016502 207.516514 
L 213.388526 212.817524 
L 202.365594 218.118535 
L 196.347347 220.76904 
L 189.736875 223.55207 
L 182.875625 226.208907 
L 175.712104 228.720555 
L 167.387258 231.37106 
L 162.291875 232.932641 
L 148.569375 236.169215 
L 145.556089 236.67207 
L 141.708125 237.528263 
L 134.846875 238.613329 
L 127.985625 239.368606 
L 121.124375 240.206579 
L 114.263125 240.718508 
L 107.401875 241.008356 
L 93.679375 241.170298 
L 86.818125 241.243128 
L 80.65998 241.97308 
L 87.045836 244.623585 
L 93.679375 245.851974 
L 100.540625 247.355494 
L 100.540625 247.355494 
" style="fill:none;stroke:#fff5f0;stroke-width:1.5;"/>
    <path clip-path="url(#p0d8e34b3da)" d="M 402.435625 36.701949 
L 402.958087 35.233686 
L 403.758048 32.583181 
L 404.407214 29.932676 
L 402.435625 27.328202 
L 401.547651 29.932676 
L 400.660319 32.583181 
L 399.840354 35.233686 
L 402.435625 36.701949 
" style="fill:none;stroke:#fff5f0;stroke-width:1.5;"/>
    <path clip-path="url(#p0d8e34b3da)" d="M 409.296875 26.138343 
L 409.792227 24.631666 
L 410.486336 21.981161 
L 410.858459 19.330656 
L 409.296875 17.564154 
L 408.689263 19.330656 
L 407.917532 21.981161 
L 407.42468 24.631666 
L 409.296875 26.138343 
" style="fill:none;stroke:#fff5f0;stroke-width:1.5;"/>
   </g>
   <g id="LineCollection_4">
    <path clip-path="url(#p0d8e34b3da)" d="M 121.124375 245.663306 
L 127.985625 246.192042 
L 134.846875 246.172685 
L 141.708125 245.780169 
L 148.569375 245.157033 
L 152.847591 244.623585 
L 155.430625 244.159795 
L 166.314876 241.97308 
L 176.662984 239.322575 
L 184.786819 236.67207 
L 192.092617 234.021565 
L 196.598125 232.311534 
L 198.756814 231.37106 
L 204.968024 228.720555 
L 210.896179 226.07005 
L 217.181875 222.950951 
L 220.853543 220.76904 
L 224.043125 219.236566 
L 225.797412 218.118535 
L 230.923648 215.46803 
L 234.641241 212.817524 
L 237.765625 211.176473 
L 239.124136 210.167019 
L 243.237804 207.516514 
L 244.626875 206.785044 
L 246.971912 204.866009 
L 251.511639 202.215504 
L 254.463486 199.564999 
L 258.724872 196.914494 
L 261.596251 194.263989 
L 265.210625 192.058769 
L 268.390813 188.962979 
L 272.404352 186.312474 
L 274.90166 183.661969 
L 278.951603 181.011464 
L 281.205676 178.360959 
L 284.552277 175.710454 
L 285.794375 174.978983 
L 287.378046 173.059949 
L 290.077732 170.409444 
L 292.655625 168.768393 
L 295.686271 165.108434 
L 299.527323 162.457929 
L 301.396413 159.807423 
L 303.971059 157.156918 
L 306.378125 155.624445 
L 309.135419 151.855908 
L 312.39427 149.205403 
L 313.239375 148.736809 
L 314.640619 146.554898 
L 316.68424 143.904393 
L 320.100625 141.559401 
L 320.307217 141.253888 
L 321.895042 138.603383 
L 324.011558 135.952878 
L 326.961875 134.032165 
L 328.95134 130.651868 
L 331.065986 128.001363 
L 333.823125 126.291332 
L 335.821553 122.700353 
L 337.809698 120.049848 
L 340.684375 118.313767 
L 341.192312 117.399343 
L 342.532229 114.748838 
L 344.274684 112.098333 
L 347.545625 110.103225 
L 347.896499 109.447827 
L 349.121467 106.797322 
L 350.573823 104.146817 
L 354.509277 101.496312 
L 356.83034 96.195302 
L 358.858274 93.544797 
L 361.268125 92.825663 
L 363.110104 88.243787 
L 364.123558 85.593282 
L 361.268125 84.185554 
L 357.974174 90.894292 
L 354.406875 92.515317 
L 353.864136 93.544797 
L 352.600871 96.195302 
L 350.937272 98.845807 
L 347.545625 100.625512 
L 347.053459 101.496312 
L 345.690896 104.146817 
L 343.825754 106.797322 
L 340.684375 108.533403 
L 338.663174 112.098333 
L 336.51692 114.748838 
L 333.823125 116.230207 
L 331.474317 120.049848 
L 328.848991 122.700353 
L 326.961875 123.679955 
L 325.901127 125.350858 
L 324.057887 128.001363 
L 320.100625 130.795064 
L 318.49889 133.302373 
L 316.281038 135.952878 
L 313.239375 137.899313 
L 310.807178 141.253888 
L 307.783065 143.904393 
L 306.378125 144.691434 
L 304.990594 146.554898 
L 302.62964 149.205403 
L 299.516875 151.229703 
L 296.845899 154.506413 
L 292.655625 157.51971 
L 290.781734 159.807423 
L 287.844687 162.457929 
L 285.794375 163.70199 
L 284.525349 165.108434 
L 281.79129 167.758939 
L 278.933125 169.555235 
L 275.403707 173.059949 
L 272.071875 175.165271 
L 268.743656 178.360959 
L 265.210625 180.566179 
L 261.806303 183.661969 
L 258.349375 185.767291 
L 254.541388 188.962979 
L 251.488125 190.759275 
L 250.424493 191.613484 
L 246.837029 194.263989 
L 244.626875 195.50805 
L 242.781344 196.914494 
L 237.765625 199.927791 
L 234.617988 202.215504 
L 229.940579 204.866009 
L 225.576959 207.516514 
L 224.043125 208.303556 
L 221.025614 210.167019 
L 210.320625 215.611226 
L 205.577321 218.118535 
L 193.874822 223.419545 
L 187.372577 226.07005 
L 182.875625 227.849755 
L 169.153125 232.613837 
L 148.569375 238.152337 
L 141.708125 239.356592 
L 134.846875 240.903039 
L 126.189832 241.97308 
L 121.124375 243.37592 
L 114.263125 244.623585 
L 121.124375 245.663306 
L 121.124375 245.663306 
" style="fill:none;stroke:#fb694a;stroke-width:1.5;"/>
    <path clip-path="url(#p0d8e34b3da)" d="M 368.129375 83.774325 
L 368.495698 82.942777 
L 369.421238 80.292272 
L 370.18147 77.641767 
L 368.129375 75.566628 
L 367.266593 77.641767 
L 366.238786 80.292272 
L 365.242305 82.942777 
L 368.129375 83.774325 
" style="fill:none;stroke:#fb694a;stroke-width:1.5;"/>
    <path clip-path="url(#p0d8e34b3da)" d="M 374.990625 74.527472 
L 375.745862 72.340757 
L 376.45919 69.690252 
L 375.941386 67.039747 
L 374.990625 66.740727 
L 374.850634 67.039747 
L 373.922093 69.690252 
L 373.145649 72.340757 
L 374.990625 74.527472 
" style="fill:none;stroke:#fb694a;stroke-width:1.5;"/>
    <path clip-path="url(#p0d8e34b3da)" d="M 381.851875 64.922689 
L 382.063003 64.389242 
L 382.783532 61.738737 
L 383.025075 59.088232 
L 381.851875 57.917993 
L 381.392001 59.088232 
L 380.643366 61.738737 
L 380.712194 64.389242 
L 381.851875 64.922689 
" style="fill:none;stroke:#fb694a;stroke-width:1.5;"/>
    <path clip-path="url(#p0d8e34b3da)" d="M 388.713125 54.943805 
L 389.09427 53.787221 
L 389.591467 51.136716 
L 388.713125 48.520229 
L 387.991382 51.136716 
L 387.70938 53.787221 
L 388.713125 54.943805 
" style="fill:none;stroke:#fb694a;stroke-width:1.5;"/>
    <path clip-path="url(#p0d8e34b3da)" d="M 395.574375 44.734301 
L 395.986062 43.185201 
L 396.168934 40.534696 
L 395.574375 39.464655 
L 395.229757 40.534696 
L 394.857694 43.185201 
L 395.574375 44.734301 
" style="fill:none;stroke:#fb694a;stroke-width:1.5;"/>
    <path clip-path="url(#p0d8e34b3da)" d="M 402.435625 34.151637 
L 402.766315 32.583181 
L 402.565446 29.932676 
L 402.435625 29.761182 
L 402.377156 29.932676 
L 401.991685 32.583181 
L 402.435625 34.151637 
" style="fill:none;stroke:#fb694a;stroke-width:1.5;"/>
    <path clip-path="url(#p0d8e34b3da)" d="M 409.296875 23.020882 
L 409.475605 21.981161 
L 409.296875 20.733496 
L 409.089613 21.981161 
L 409.296875 23.020882 
" style="fill:none;stroke:#fb694a;stroke-width:1.5;"/>
   </g>
   <g id="LineCollection_5">
    <path clip-path="url(#p0d8e34b3da)" d="M 162.291875 239.53823 
L 163.966834 239.322575 
L 162.291875 238.747496 
L 160.212884 239.322575 
L 162.291875 239.53823 
" style="fill:none;stroke:#67000d;stroke-width:1.5;"/>
    <path clip-path="url(#p0d8e34b3da)" d="M 169.153125 238.13547 
L 176.014375 236.969371 
L 177.101333 236.67207 
L 182.875625 234.886698 
L 185.594184 234.021565 
L 189.736875 232.643302 
L 193.152504 231.37106 
L 196.598125 230.143446 
L 199.888018 228.720555 
L 203.459375 227.354155 
L 206.069883 226.07005 
L 210.320625 224.316364 
L 211.962714 223.419545 
L 217.181875 221.094202 
L 217.729051 220.76904 
L 222.345192 218.118535 
L 224.043125 217.398175 
L 226.847619 215.46803 
L 230.904375 213.529145 
L 231.899774 212.817524 
L 236.038971 210.167019 
L 237.765625 209.38579 
L 240.047624 207.516514 
L 244.626875 205.105128 
L 244.919076 204.866009 
L 247.893115 202.215504 
L 251.488125 200.339832 
L 252.347786 199.564999 
L 255.395826 196.914494 
L 258.349375 195.393359 
L 259.493659 194.263989 
L 262.492231 191.613484 
L 265.210625 190.217551 
L 266.386632 188.962979 
L 269.169777 186.312474 
L 272.071875 184.791339 
L 273.069165 183.661969 
L 275.522277 181.011464 
L 278.933125 179.135792 
L 279.589726 178.360959 
L 281.699642 175.710454 
L 285.794375 173.299068 
L 285.991707 173.059949 
L 287.815779 170.409444 
L 290.820059 167.758939 
L 292.655625 166.977709 
L 293.91946 165.108434 
L 295.930116 162.457929 
L 299.516875 160.519044 
L 300.017533 159.807423 
L 301.613113 157.156918 
L 304.302476 154.506413 
L 306.378125 153.786054 
L 307.497975 151.855908 
L 309.045639 149.205403 
L 313.239375 146.880061 
L 313.448197 146.554898 
L 314.744757 143.904393 
L 316.0995 141.253888 
L 313.239375 139.865987 
L 312.375546 141.253888 
L 310.855006 143.904393 
L 306.378125 146.412323 
L 306.271964 146.554898 
L 304.716074 149.205403 
L 302.539398 151.855908 
L 299.516875 153.122368 
L 298.527361 154.506413 
L 296.59771 157.156918 
L 292.655625 159.32885 
L 292.26362 159.807423 
L 290.37257 162.457929 
L 286.508147 165.108434 
L 285.794375 165.352601 
L 283.992573 167.758939 
L 280.989848 170.409444 
L 278.933125 171.340195 
L 277.471503 173.059949 
L 274.647221 175.710454 
L 272.071875 176.995346 
L 270.798928 178.360959 
L 267.929019 181.011464 
L 265.210625 182.407397 
L 263.951735 183.661969 
L 260.875599 186.312474 
L 258.349375 187.597367 
L 256.892931 188.962979 
L 253.393517 191.613484 
L 251.488125 192.544235 
L 249.561987 194.263989 
L 245.168119 196.914494 
L 244.626875 197.158662 
L 241.845331 199.564999 
L 237.765625 201.736931 
L 237.107161 202.215504 
L 233.467226 204.866009 
L 230.904375 206.132469 
L 228.930732 207.516514 
L 224.043125 210.024445 
L 223.812253 210.167019 
L 219.831179 212.817524 
L 217.181875 214.080129 
L 214.851737 215.46803 
L 210.320625 217.627124 
L 209.390979 218.118535 
L 203.920334 220.76904 
L 203.459375 220.975725 
L 198.763455 223.419545 
L 196.598125 224.38543 
L 192.903528 226.07005 
L 189.736875 227.448312 
L 186.593872 228.720555 
L 182.875625 230.297318 
L 179.896155 231.37106 
L 176.014375 233.003128 
L 172.839555 234.021565 
L 169.153125 235.658947 
L 165.626362 236.67207 
L 169.153125 238.13547 
" style="fill:none;stroke:#67000d;stroke-width:1.5;"/>
    <path clip-path="url(#p0d8e34b3da)" d="M 320.100625 139.500202 
L 320.607827 138.603383 
L 321.753673 135.952878 
L 322.338793 133.302373 
L 320.100625 132.810962 
L 319.786699 133.302373 
L 318.486187 135.952878 
L 317.080209 138.603383 
L 320.100625 139.500202 
" style="fill:none;stroke:#67000d;stroke-width:1.5;"/>
    <path clip-path="url(#p0d8e34b3da)" d="M 326.961875 131.935973 
L 327.600894 130.651868 
L 328.537975 128.001363 
L 326.961875 125.557544 
L 325.846658 128.001363 
L 324.859405 130.651868 
L 326.961875 131.935973 
" style="fill:none;stroke:#67000d;stroke-width:1.5;"/>
    <path clip-path="url(#p0d8e34b3da)" d="M 333.823125 124.123244 
L 334.456352 122.700353 
L 335.154461 120.049848 
L 333.823125 118.365228 
L 333.038729 120.049848 
L 332.247008 122.700353 
L 333.823125 124.123244 
" style="fill:none;stroke:#67000d;stroke-width:1.5;"/>
    <path clip-path="url(#p0d8e34b3da)" d="M 340.684375 116.02108 
L 341.209209 114.748838 
L 341.704108 112.098333 
L 340.684375 110.82609 
L 340.110306 112.098333 
L 339.500719 114.748838 
L 340.684375 116.02108 
" style="fill:none;stroke:#67000d;stroke-width:1.5;"/>
    <path clip-path="url(#p0d8e34b3da)" d="M 347.545625 107.662456 
L 347.892277 106.797322 
L 348.279007 104.146817 
L 347.545625 103.073076 
L 347.096439 104.146817 
L 346.727333 106.797322 
L 347.545625 107.662456 
" style="fill:none;stroke:#67000d;stroke-width:1.5;"/>
    <path clip-path="url(#p0d8e34b3da)" d="M 354.406875 99.143109 
L 354.527455 98.845807 
L 354.906678 96.195302 
L 354.406875 95.176866 
L 354.034414 96.195302 
L 354.064293 98.845807 
L 354.406875 99.143109 
" style="fill:none;stroke:#67000d;stroke-width:1.5;"/>
    <path clip-path="url(#p0d8e34b3da)" d="M 361.268125 89.707187 
L 361.557876 88.243787 
L 361.268125 87.230664 
L 360.97932 88.243787 
L 361.268125 89.707187 
" style="fill:none;stroke:#67000d;stroke-width:1.5;"/>
    <path clip-path="url(#p0d8e34b3da)" d="M 368.129375 80.507927 
L 368.189606 80.292272 
L 368.129375 79.717193 
L 368.041229 80.292272 
L 368.129375 80.507927 
" style="fill:none;stroke:#67000d;stroke-width:1.5;"/>
   </g>
   <g id="patch_3">
    <path d="M 38.789375 273.779141 
L 38.789375 11.379141 
" style="fill:none;stroke:#000000;stroke-linecap:square;stroke-linejoin:miter;stroke-width:0.8;"/>
   </g>
   <g id="patch_4">
    <path d="M 416.158125 273.779141 
L 416.158125 11.379141 
" style="fill:none;stroke:#000000;stroke-linecap:square;stroke-linejoin:miter;stroke-width:0.8;"/>
   </g>
   <g id="patch_5">
    <path d="M 38.789375 273.779141 
L 416.158125 273.779141 
" style="fill:none;stroke:#000000;stroke-linecap:square;stroke-linejoin:miter;stroke-width:0.8;"/>
   </g>
   <g id="patch_6">
    <path d="M 38.789375 11.379141 
L 416.158125 11.379141 
" style="fill:none;stroke:#000000;stroke-linecap:square;stroke-linejoin:miter;stroke-width:0.8;"/>
   </g>
  </g>
 </g>
 <defs>
  <clipPath id="p0d8e34b3da">
   <rect height="262.4" width="377.36875" x="38.789375" y="11.379141"/>
  </clipPath>
 </defs>
</svg>
