<?xml version="1.0" encoding="utf-8" standalone="no"?>
<!DOCTYPE svg PUBLIC "-//W3C//DTD SVG 1.1//EN"
  "http://www.w3.org/Graphics/SVG/1.1/DTD/svg11.dtd">
<!-- Created with matplotlib (https://matplotlib.org/) -->
<svg height="319.536641pt" version="1.1" viewBox="0 0 432.158125 319.536641" width="432.158125pt" xmlns="http://www.w3.org/2000/svg" xmlns:xlink="http://www.w3.org/1999/xlink">
 <metadata>
  <rdf:RDF xmlns:cc="http://creativecommons.org/ns#" xmlns:dc="http://purl.org/dc/elements/1.1/" xmlns:rdf="http://www.w3.org/1999/02/22-rdf-syntax-ns#">
   <cc:Work>
    <dc:type rdf:resource="http://purl.org/dc/dcmitype/StillImage"/>
    <dc:date>2021-02-04T16:32:26.295538</dc:date>
    <dc:format>image/svg+xml</dc:format>
    <dc:creator>
     <cc:Agent>
      <dc:title>Matplotlib v3.3.2, https://matplotlib.org/</dc:title>
     </cc:Agent>
    </dc:creator>
   </cc:Work>
  </rdf:RDF>
 </metadata>
 <defs>
  <style type="text/css">*{stroke-linecap:butt;stroke-linejoin:round;}</style>
 </defs>
 <g id="figure_1">
  <g id="patch_1">
   <path d="M 0 319.536641 
L 432.158125 319.536641 
L 432.158125 0 
L 0 0 
z
" style="fill:#ffffff;"/>
  </g>
  <g id="axes_1">
   <g id="patch_2">
    <path d="M 38.789375 273.779141 
L 416.158125 273.779141 
L 416.158125 11.379141 
L 38.789375 11.379141 
z
" style="fill:#ffffff;"/>
   </g>
   <g id="matplotlib.axis_1">
    <g id="xtick_1">
     <g id="line2d_1">
      <defs>
       <path d="M 0 0 
L 0 3.5 
" id="m21209f1564" style="stroke:#000000;stroke-width:0.8;"/>
      </defs>
      <g>
       <use style="stroke:#000000;stroke-width:0.8;" x="38.789375" xlink:href="#m21209f1564" y="273.779141"/>
      </g>
     </g>
     <g id="text_1">
      <!-- $\mathdefault{−0.5}$ -->
      <g transform="translate(25.424375 289.137422)scale(0.11 -0.11)">
       <defs>
        <path d="M 10.59375 35.5 
L 73.1875 35.5 
L 73.1875 27.203125 
L 10.59375 27.203125 
z
" id="DejaVuSans-8722"/>
        <path d="M 31.78125 66.40625 
Q 24.171875 66.40625 20.328125 58.90625 
Q 16.5 51.421875 16.5 36.375 
Q 16.5 21.390625 20.328125 13.890625 
Q 24.171875 6.390625 31.78125 6.390625 
Q 39.453125 6.390625 43.28125 13.890625 
Q 47.125 21.390625 47.125 36.375 
Q 47.125 51.421875 43.28125 58.90625 
Q 39.453125 66.40625 31.78125 66.40625 
z
M 31.78125 74.21875 
Q 44.046875 74.21875 50.515625 64.515625 
Q 56.984375 54.828125 56.984375 36.375 
Q 56.984375 17.96875 50.515625 8.265625 
Q 44.046875 -1.421875 31.78125 -1.421875 
Q 19.53125 -1.421875 13.0625 8.265625 
Q 6.59375 17.96875 6.59375 36.375 
Q 6.59375 54.828125 13.0625 64.515625 
Q 19.53125 74.21875 31.78125 74.21875 
z
" id="DejaVuSans-48"/>
        <path d="M 10.6875 12.40625 
L 21 12.40625 
L 21 0 
L 10.6875 0 
z
" id="DejaVuSans-46"/>
        <path d="M 10.796875 72.90625 
L 49.515625 72.90625 
L 49.515625 64.59375 
L 19.828125 64.59375 
L 19.828125 46.734375 
Q 21.96875 47.46875 24.109375 47.828125 
Q 26.265625 48.1875 28.421875 48.1875 
Q 40.625 48.1875 47.75 41.5 
Q 54.890625 34.8125 54.890625 23.390625 
Q 54.890625 11.625 47.5625 5.09375 
Q 40.234375 -1.421875 26.90625 -1.421875 
Q 22.3125 -1.421875 17.546875 -0.640625 
Q 12.796875 0.140625 7.71875 1.703125 
L 7.71875 11.625 
Q 12.109375 9.234375 16.796875 8.0625 
Q 21.484375 6.890625 26.703125 6.890625 
Q 35.15625 6.890625 40.078125 11.328125 
Q 45.015625 15.765625 45.015625 23.390625 
Q 45.015625 31 40.078125 35.4375 
Q 35.15625 39.890625 26.703125 39.890625 
Q 22.75 39.890625 18.8125 39.015625 
Q 14.890625 38.140625 10.796875 36.28125 
z
" id="DejaVuSans-53"/>
       </defs>
       <use transform="translate(0 0.78125)" xlink:href="#DejaVuSans-8722"/>
       <use transform="translate(83.789062 0.78125)" xlink:href="#DejaVuSans-48"/>
       <use transform="translate(147.412109 0.78125)" xlink:href="#DejaVuSans-46"/>
       <use transform="translate(179.199219 0.78125)" xlink:href="#DejaVuSans-53"/>
      </g>
     </g>
    </g>
    <g id="xtick_2">
     <g id="line2d_2">
      <g>
       <use style="stroke:#000000;stroke-width:0.8;" x="114.263125" xlink:href="#m21209f1564" y="273.779141"/>
      </g>
     </g>
     <g id="text_2">
      <!-- $\mathdefault{0.0}$ -->
      <g transform="translate(105.463125 289.137422)scale(0.11 -0.11)">
       <use transform="translate(0 0.78125)" xlink:href="#DejaVuSans-48"/>
       <use transform="translate(63.623047 0.78125)" xlink:href="#DejaVuSans-46"/>
       <use transform="translate(95.410156 0.78125)" xlink:href="#DejaVuSans-48"/>
      </g>
     </g>
    </g>
    <g id="xtick_3">
     <g id="line2d_3">
      <g>
       <use style="stroke:#000000;stroke-width:0.8;" x="189.736875" xlink:href="#m21209f1564" y="273.779141"/>
      </g>
     </g>
     <g id="text_3">
      <!-- $\mathdefault{0.5}$ -->
      <g transform="translate(180.936875 289.137422)scale(0.11 -0.11)">
       <use transform="translate(0 0.78125)" xlink:href="#DejaVuSans-48"/>
       <use transform="translate(63.623047 0.78125)" xlink:href="#DejaVuSans-46"/>
       <use transform="translate(95.410156 0.78125)" xlink:href="#DejaVuSans-53"/>
      </g>
     </g>
    </g>
    <g id="xtick_4">
     <g id="line2d_4">
      <g>
       <use style="stroke:#000000;stroke-width:0.8;" x="265.210625" xlink:href="#m21209f1564" y="273.779141"/>
      </g>
     </g>
     <g id="text_4">
      <!-- $\mathdefault{1.0}$ -->
      <g transform="translate(256.410625 289.137422)scale(0.11 -0.11)">
       <defs>
        <path d="M 12.40625 8.296875 
L 28.515625 8.296875 
L 28.515625 63.921875 
L 10.984375 60.40625 
L 10.984375 69.390625 
L 28.421875 72.90625 
L 38.28125 72.90625 
L 38.28125 8.296875 
L 54.390625 8.296875 
L 54.390625 0 
L 12.40625 0 
z
" id="DejaVuSans-49"/>
       </defs>
       <use transform="translate(0 0.78125)" xlink:href="#DejaVuSans-49"/>
       <use transform="translate(63.623047 0.78125)" xlink:href="#DejaVuSans-46"/>
       <use transform="translate(95.410156 0.78125)" xlink:href="#DejaVuSans-48"/>
      </g>
     </g>
    </g>
    <g id="xtick_5">
     <g id="line2d_5">
      <g>
       <use style="stroke:#000000;stroke-width:0.8;" x="340.684375" xlink:href="#m21209f1564" y="273.779141"/>
      </g>
     </g>
     <g id="text_5">
      <!-- $\mathdefault{1.5}$ -->
      <g transform="translate(331.884375 289.137422)scale(0.11 -0.11)">
       <use transform="translate(0 0.09375)" xlink:href="#DejaVuSans-49"/>
       <use transform="translate(63.623047 0.09375)" xlink:href="#DejaVuSans-46"/>
       <use transform="translate(95.410156 0.09375)" xlink:href="#DejaVuSans-53"/>
      </g>
     </g>
    </g>
    <g id="xtick_6">
     <g id="line2d_6">
      <g>
       <use style="stroke:#000000;stroke-width:0.8;" x="416.158125" xlink:href="#m21209f1564" y="273.779141"/>
      </g>
     </g>
     <g id="text_6">
      <!-- $\mathdefault{2.0}$ -->
      <g transform="translate(407.358125 289.137422)scale(0.11 -0.11)">
       <defs>
        <path d="M 19.1875 8.296875 
L 53.609375 8.296875 
L 53.609375 0 
L 7.328125 0 
L 7.328125 8.296875 
Q 12.9375 14.109375 22.625 23.890625 
Q 32.328125 33.6875 34.8125 36.53125 
Q 39.546875 41.84375 41.421875 45.53125 
Q 43.3125 49.21875 43.3125 52.78125 
Q 43.3125 58.59375 39.234375 62.25 
Q 35.15625 65.921875 28.609375 65.921875 
Q 23.96875 65.921875 18.8125 64.3125 
Q 13.671875 62.703125 7.8125 59.421875 
L 7.8125 69.390625 
Q 13.765625 71.78125 18.9375 73 
Q 24.125 74.21875 28.421875 74.21875 
Q 39.75 74.21875 46.484375 68.546875 
Q 53.21875 62.890625 53.21875 53.421875 
Q 53.21875 48.921875 51.53125 44.890625 
Q 49.859375 40.875 45.40625 35.40625 
Q 44.1875 33.984375 37.640625 27.21875 
Q 31.109375 20.453125 19.1875 8.296875 
z
" id="DejaVuSans-50"/>
       </defs>
       <use transform="translate(0 0.78125)" xlink:href="#DejaVuSans-50"/>
       <use transform="translate(63.623047 0.78125)" xlink:href="#DejaVuSans-46"/>
       <use transform="translate(95.410156 0.78125)" xlink:href="#DejaVuSans-48"/>
      </g>
     </g>
    </g>
    <g id="text_7">
     <!-- Hinz -->
     <g transform="translate(212.154687 309.425078)scale(0.14 -0.14)">
      <defs>
       <path d="M 9.8125 72.90625 
L 19.671875 72.90625 
L 19.671875 43.015625 
L 55.515625 43.015625 
L 55.515625 72.90625 
L 65.375 72.90625 
L 65.375 0 
L 55.515625 0 
L 55.515625 34.71875 
L 19.671875 34.71875 
L 19.671875 0 
L 9.8125 0 
z
" id="DejaVuSans-72"/>
       <path d="M 9.421875 54.6875 
L 18.40625 54.6875 
L 18.40625 0 
L 9.421875 0 
z
M 9.421875 75.984375 
L 18.40625 75.984375 
L 18.40625 64.59375 
L 9.421875 64.59375 
z
" id="DejaVuSans-105"/>
       <path d="M 54.890625 33.015625 
L 54.890625 0 
L 45.90625 0 
L 45.90625 32.71875 
Q 45.90625 40.484375 42.875 44.328125 
Q 39.84375 48.1875 33.796875 48.1875 
Q 26.515625 48.1875 22.3125 43.546875 
Q 18.109375 38.921875 18.109375 30.90625 
L 18.109375 0 
L 9.078125 0 
L 9.078125 54.6875 
L 18.109375 54.6875 
L 18.109375 46.1875 
Q 21.34375 51.125 25.703125 53.5625 
Q 30.078125 56 35.796875 56 
Q 45.21875 56 50.046875 50.171875 
Q 54.890625 44.34375 54.890625 33.015625 
z
" id="DejaVuSans-110"/>
       <path d="M 5.515625 54.6875 
L 48.1875 54.6875 
L 48.1875 46.484375 
L 14.40625 7.171875 
L 48.1875 7.171875 
L 48.1875 0 
L 4.296875 0 
L 4.296875 8.203125 
L 38.09375 47.515625 
L 5.515625 47.515625 
z
" id="DejaVuSans-122"/>
      </defs>
      <use xlink:href="#DejaVuSans-72"/>
      <use x="75.195312" xlink:href="#DejaVuSans-105"/>
      <use x="102.978516" xlink:href="#DejaVuSans-110"/>
      <use x="166.357422" xlink:href="#DejaVuSans-122"/>
     </g>
    </g>
   </g>
   <g id="matplotlib.axis_2">
    <g id="ytick_1">
     <g id="line2d_7">
      <defs>
       <path d="M 0 0 
L -3.5 0 
" id="m082749cd96" style="stroke:#000000;stroke-width:0.8;"/>
      </defs>
      <g>
       <use style="stroke:#000000;stroke-width:0.8;" x="38.789375" xlink:href="#m082749cd96" y="244.623585"/>
      </g>
     </g>
     <g id="text_8">
      <!-- $\mathdefault{0}$ -->
      <g transform="translate(24.749375 248.802726)scale(0.11 -0.11)">
       <use transform="translate(0 0.78125)" xlink:href="#DejaVuSans-48"/>
      </g>
     </g>
    </g>
    <g id="ytick_2">
     <g id="line2d_8">
      <g>
       <use style="stroke:#000000;stroke-width:0.8;" x="38.789375" xlink:href="#m082749cd96" y="186.312474"/>
      </g>
     </g>
     <g id="text_9">
      <!-- $\mathdefault{1}$ -->
      <g transform="translate(24.749375 190.491615)scale(0.11 -0.11)">
       <use transform="translate(0 0.09375)" xlink:href="#DejaVuSans-49"/>
      </g>
     </g>
    </g>
    <g id="ytick_3">
     <g id="line2d_9">
      <g>
       <use style="stroke:#000000;stroke-width:0.8;" x="38.789375" xlink:href="#m082749cd96" y="128.001363"/>
      </g>
     </g>
     <g id="text_10">
      <!-- $\mathdefault{2}$ -->
      <g transform="translate(24.749375 132.180503)scale(0.11 -0.11)">
       <use transform="translate(0 0.78125)" xlink:href="#DejaVuSans-50"/>
      </g>
     </g>
    </g>
    <g id="ytick_4">
     <g id="line2d_10">
      <g>
       <use style="stroke:#000000;stroke-width:0.8;" x="38.789375" xlink:href="#m082749cd96" y="69.690252"/>
      </g>
     </g>
     <g id="text_11">
      <!-- $\mathdefault{3}$ -->
      <g transform="translate(24.749375 73.869392)scale(0.11 -0.11)">
       <defs>
        <path d="M 40.578125 39.3125 
Q 47.65625 37.796875 51.625 33 
Q 55.609375 28.21875 55.609375 21.1875 
Q 55.609375 10.40625 48.1875 4.484375 
Q 40.765625 -1.421875 27.09375 -1.421875 
Q 22.515625 -1.421875 17.65625 -0.515625 
Q 12.796875 0.390625 7.625 2.203125 
L 7.625 11.71875 
Q 11.71875 9.328125 16.59375 8.109375 
Q 21.484375 6.890625 26.8125 6.890625 
Q 36.078125 6.890625 40.9375 10.546875 
Q 45.796875 14.203125 45.796875 21.1875 
Q 45.796875 27.640625 41.28125 31.265625 
Q 36.765625 34.90625 28.71875 34.90625 
L 20.21875 34.90625 
L 20.21875 43.015625 
L 29.109375 43.015625 
Q 36.375 43.015625 40.234375 45.921875 
Q 44.09375 48.828125 44.09375 54.296875 
Q 44.09375 59.90625 40.109375 62.90625 
Q 36.140625 65.921875 28.71875 65.921875 
Q 24.65625 65.921875 20.015625 65.03125 
Q 15.375 64.15625 9.8125 62.3125 
L 9.8125 71.09375 
Q 15.4375 72.65625 20.34375 73.4375 
Q 25.25 74.21875 29.59375 74.21875 
Q 40.828125 74.21875 47.359375 69.109375 
Q 53.90625 64.015625 53.90625 55.328125 
Q 53.90625 49.265625 50.4375 45.09375 
Q 46.96875 40.921875 40.578125 39.3125 
z
" id="DejaVuSans-51"/>
       </defs>
       <use transform="translate(0 0.78125)" xlink:href="#DejaVuSans-51"/>
      </g>
     </g>
    </g>
    <g id="ytick_5">
     <g id="line2d_11">
      <g>
       <use style="stroke:#000000;stroke-width:0.8;" x="38.789375" xlink:href="#m082749cd96" y="11.379141"/>
      </g>
     </g>
     <g id="text_12">
      <!-- $\mathdefault{4}$ -->
      <g transform="translate(24.749375 15.558281)scale(0.11 -0.11)">
       <defs>
        <path d="M 37.796875 64.3125 
L 12.890625 25.390625 
L 37.796875 25.390625 
z
M 35.203125 72.90625 
L 47.609375 72.90625 
L 47.609375 25.390625 
L 58.015625 25.390625 
L 58.015625 17.1875 
L 47.609375 17.1875 
L 47.609375 0 
L 37.796875 0 
L 37.796875 17.1875 
L 4.890625 17.1875 
L 4.890625 26.703125 
z
" id="DejaVuSans-52"/>
       </defs>
       <use transform="translate(0 0.09375)" xlink:href="#DejaVuSans-52"/>
      </g>
     </g>
    </g>
    <g id="text_13">
     <!-- Kunz -->
     <g transform="translate(17.837813 159.366016)rotate(-90)scale(0.14 -0.14)">
      <defs>
       <path d="M 9.8125 72.90625 
L 19.671875 72.90625 
L 19.671875 42.09375 
L 52.390625 72.90625 
L 65.09375 72.90625 
L 28.90625 38.921875 
L 67.671875 0 
L 54.6875 0 
L 19.671875 35.109375 
L 19.671875 0 
L 9.8125 0 
z
" id="DejaVuSans-75"/>
       <path d="M 8.5 21.578125 
L 8.5 54.6875 
L 17.484375 54.6875 
L 17.484375 21.921875 
Q 17.484375 14.15625 20.5 10.265625 
Q 23.53125 6.390625 29.59375 6.390625 
Q 36.859375 6.390625 41.078125 11.03125 
Q 45.3125 15.671875 45.3125 23.6875 
L 45.3125 54.6875 
L 54.296875 54.6875 
L 54.296875 0 
L 45.3125 0 
L 45.3125 8.40625 
Q 42.046875 3.421875 37.71875 1 
Q 33.40625 -1.421875 27.6875 -1.421875 
Q 18.265625 -1.421875 13.375 4.4375 
Q 8.5 10.296875 8.5 21.578125 
z
M 31.109375 56 
z
" id="DejaVuSans-117"/>
      </defs>
      <use xlink:href="#DejaVuSans-75"/>
      <use x="60.576172" xlink:href="#DejaVuSans-117"/>
      <use x="123.955078" xlink:href="#DejaVuSans-110"/>
      <use x="187.333984" xlink:href="#DejaVuSans-122"/>
     </g>
    </g>
   </g>
   <g id="LineCollection_1">
    <path clip-path="url(#p4437b88d4b)" d="M 178.980273 239.875671 
L 180.002911 239.353266 
L 181.777252 238.223792 
L 184.294534 236.630994 
L 185.972722 235.78148 
L 187.930608 234.769222 
L 190.447889 233.191014 
L 195.762151 229.630894 
L 196.041849 229.503979 
L 196.256336 229.591418 
L 195.482453 230.294891 
L 193.404274 231.876106 
L 188.424288 235.614686 
L 186.023317 237.691675 
L 185.693024 238.164381 
L 186.25242 237.972226 
L 189.049399 236.237055 
L 200.237318 228.901564 
L 200.342619 228.968322 
L 200.038623 229.383719 
L 198.455046 231.045311 
L 197.698637 231.876106 
L 197.599438 232.083805 
L 197.720036 232.176226 
L 198.378872 231.876106 
L 200.517016 230.584765 
L 203.873392 228.552118 
L 204.992184 228.083316 
L 205.244069 228.137526 
L 204.825327 228.968322 
L 204.992184 229.158985 
L 206.197287 228.552924 
L 212.823727 224.509947 
L 215.117792 223.983549 
L 214.847305 224.398946 
L 213.383123 226.091639 
L 213.803091 226.060537 
L 214.781612 225.541217 
L 219.11755 222.737355 
L 225.969531 218.311576 
L 229.436243 216.29869 
L 238.55594 210.575874 
L 243.590503 207.014875 
L 248.065671 204.1537 
L 250.023556 203.082147 
L 252.709949 201.344371 
L 255.337818 199.367881 
L 256.340529 198.436586 
L 257.364445 197.398092 
L 260.652079 194.629597 
L 265.439922 191.167125 
L 269.909339 188.259341 
L 274.50141 184.936159 
L 279.490883 180.98988 
L 282.777485 178.082096 
L 285.279156 175.38201 
L 291.139158 170.325681 
L 293.133562 168.527947 
L 297.115329 164.997066 
L 297.572211 164.319182 
L 299.490773 162.50468 
L 307.15049 155.442918 
L 309.039828 153.099212 
L 318.002755 143.604081 
L 321.905934 139.385197 
L 322.053515 139.034706 
L 321.905934 138.764849 
L 321.775245 138.619308 
L 322.100474 138.203911 
L 328.898383 132.046952 
L 330.669626 130.103654 
L 332.692127 127.403569 
L 333.093853 126.679138 
L 334.536153 125.118881 
L 335.543892 123.872688 
L 336.374743 122.626494 
L 340.500333 118.680216 
L 340.645698 118.189451 
L 340.784116 117.641721 
L 340.645698 117.481925 
L 340.083067 117.641721 
L 338.594073 118.472517 
L 337.009624 119.512024 
L 334.212645 121.47002 
L 330.856269 124.093925 
L 328.898383 125.788362 
L 327.446825 127.19587 
L 325.26231 129.217536 
L 324.390317 130.103654 
L 323.968651 130.726751 
L 324.143518 130.793173 
L 324.423216 130.729546 
L 324.423216 130.982376 
L 323.02031 132.180643 
L 317.034188 136.957717 
L 312.819391 140.696297 
L 306.423148 146.096468 
L 304.740879 147.55036 
L 299.714763 151.704338 
L 296.453419 154.278882 
L 291.61581 158.143003 
L 289.740668 159.917512 
L 290.066029 159.804594 
L 290.85946 159.328622 
L 292.057335 158.7661 
L 291.698554 159.20636 
L 282.448275 167.074055 
L 280.510635 168.586997 
L 274.011864 173.51272 
L 271.716001 175.797408 
L 269.580995 177.458999 
L 265.090258 180.574482 
L 262.609965 182.349944 
L 261.49106 183.274568 
L 261.195868 183.689966 
L 261.187443 183.897664 
L 260.515559 184.72846 
L 259.156716 185.974653 
L 255.827071 188.674739 
L 250.499905 192.621017 
L 247.967547 194.07491 
L 246.107785 194.935158 
L 243.560067 195.736501 
L 241.912315 196.782355 
L 230.154009 204.667553 
L 225.410135 207.397138 
L 221.774062 209.523208 
L 217.298894 212.22525 
L 215.795686 213.183207 
L 208.628257 217.780367 
L 206.030531 219.414173 
L 205.831277 219.508436 
L 205.606179 219.414173 
L 206.615139 218.375679 
L 208.158545 216.714088 
L 208.007737 216.714088 
L 206.890117 217.337184 
L 204.712486 218.827546 
L 197.999734 223.820722 
L 192.126077 228.149726 
L 183.935141 233.953095 
L 180.938158 236.537063 
L 180.498236 237.068578 
L 180.65846 237.255814 
L 181.702691 237.068578 
L 180.776189 237.899374 
L 178.964508 239.560965 
L 178.821647 239.768664 
L 178.980273 239.875671 
L 178.980273 239.875671 
" style="fill:none;stroke:#000000;stroke-width:1.714286;"/>
    <path clip-path="url(#p4437b88d4b)" d="M 181.777252 236.937311 
L 181.73194 236.860879 
L 181.777252 236.844466 
L 181.819879 236.860879 
L 181.777252 236.937311 
" style="fill:none;stroke:#000000;stroke-width:1.714286;"/>
    <path clip-path="url(#p4437b88d4b)" d="M 180.65846 234.673614 
L 181.217856 234.484626 
L 183.555611 233.122299 
L 185.133628 232.06777 
L 190.785518 227.929827 
L 198.838828 221.43116 
L 203.053803 218.375679 
L 206.110975 215.816285 
L 206.670371 215.157534 
L 206.670371 215.014258 
L 205.831277 215.355028 
L 203.034298 217.146595 
L 199.118526 220.045544 
L 192.821234 224.814344 
L 190.447889 226.483867 
L 184.823567 230.629913 
L 180.938158 233.999211 
L 180.52729 234.576192 
L 180.65846 234.673614 
L 180.65846 234.673614 
" style="fill:none;stroke:#000000;stroke-width:1.714286;"/>
    <path clip-path="url(#p4437b88d4b)" d="M 196.321547 229.429333 
L 196.305166 229.383719 
L 196.321547 229.376527 
L 196.342169 229.383719 
L 196.321547 229.429333 
" style="fill:none;stroke:#000000;stroke-width:1.714286;"/>
    <path clip-path="url(#p4437b88d4b)" d="M 205.55158 219.637012 
L 205.520009 219.621872 
L 205.55158 219.538559 
L 205.584848 219.621872 
L 205.55158 219.637012 
" style="fill:none;stroke:#000000;stroke-width:1.714286;"/>
   </g>
   <g id="LineCollection_2">
    <path clip-path="url(#p4437b88d4b)" d="M 182.896044 235.511173 
L 183.45544 235.315208 
L 187.157694 233.329998 
L 186.25242 234.244311 
L 185.361895 234.991589 
L 185.413326 235.196376 
L 187.091514 234.25102 
L 190.470106 232.706902 
L 193.244869 230.800715 
L 195.542259 228.968322 
L 195.762151 228.756548 
L 195.395254 228.760623 
L 194.643359 229.005088 
L 194.58168 228.968322 
L 194.643359 228.757651 
L 199.95762 224.351076 
L 201.681326 222.945054 
L 201.823019 222.737355 
L 201.812286 222.529656 
L 202.474902 221.678641 
L 203.157379 220.868065 
L 203.225713 220.660366 
L 202.930343 220.660366 
L 202.195204 221.083326 
L 199.305441 223.152753 
L 190.126759 229.799117 
L 187.077588 231.876106 
L 184.294534 233.988287 
L 182.93859 235.199288 
L 182.789551 235.406987 
L 182.896044 235.511173 
L 182.896044 235.511173 
" style="fill:none;stroke:#000000;stroke-width:1.714286;"/>
    <path clip-path="url(#p4437b88d4b)" d="M 184.85393 235.434139 
L 184.917383 235.406987 
L 184.85393 235.397763 
L 184.842424 235.406987 
L 184.85393 235.434139 
" style="fill:none;stroke:#000000;stroke-width:1.714286;"/>
    <path clip-path="url(#p4437b88d4b)" d="M 185.133628 235.289761 
L 185.406813 235.199288 
L 185.133628 235.174682 
L 185.103163 235.199288 
L 185.133628 235.289761 
" style="fill:none;stroke:#000000;stroke-width:1.714286;"/>
    <path clip-path="url(#p4437b88d4b)" d="M 182.336648 233.464812 
L 183.175742 233.073407 
L 185.705242 231.460708 
L 188.355444 229.591418 
L 191.566681 227.06997 
L 193.69785 225.229742 
L 194.733429 224.191247 
L 194.643359 223.989731 
L 191.664371 225.852839 
L 189.845189 227.099032 
L 187.227155 228.968322 
L 183.822207 231.668407 
L 182.155128 233.329998 
L 182.336648 233.464812 
L 182.336648 233.464812 
" style="fill:none;stroke:#000000;stroke-width:1.714286;"/>
    <path clip-path="url(#p4437b88d4b)" d="M 198.55913 229.030605 
L 198.87391 228.968322 
L 201.447155 227.306731 
L 206.49277 223.568151 
L 210.586143 220.503034 
L 210.586143 220.712393 
L 204.712486 226.086456 
L 204.049702 226.891333 
L 204.220682 226.891333 
L 205.606351 226.060537 
L 210.306445 223.021422 
L 210.715628 222.945054 
L 210.651223 223.360452 
L 210.865841 223.434414 
L 211.592965 223.152753 
L 217.019196 220.401025 
L 222.892854 216.786424 
L 222.982909 216.921787 
L 222.379815 217.752582 
L 222.741002 217.752582 
L 223.731947 217.213527 
L 229.885303 213.111928 
L 231.004095 212.643185 
L 232.122886 212.398576 
L 233.521376 211.655493 
L 235.75896 210.242394 
L 238.098388 208.82153 
L 238.616801 208.613831 
L 239.115336 208.636696 
L 240.61985 207.783036 
L 243.310805 205.912183 
L 246.852653 203.21366 
L 254.05891 197.605791 
L 256.048497 196.151898 
L 259.533287 193.551747 
L 261.569466 191.997921 
L 268.044641 187.013148 
L 270.441508 184.868022 
L 272.985691 182.651471 
L 278.552749 178.298856 
L 280.562632 176.628204 
L 284.706104 173.17157 
L 292.817345 166.756509 
L 294.495533 165.257535 
L 295.956104 163.750873 
L 296.453419 163.075133 
L 296.484633 162.712379 
L 296.369939 162.50468 
L 296.361982 162.296981 
L 296.173721 162.153345 
L 295.165627 162.296981 
L 295.614325 161.851984 
L 298.173421 159.804594 
L 301.487983 157.508572 
L 304.664901 155.235219 
L 306.522546 153.517351 
L 306.729187 153.15823 
L 306.522546 153.093201 
L 306.242848 153.131371 
L 306.242848 152.844148 
L 306.905485 152.119736 
L 308.480432 150.662965 
L 310.456337 148.796554 
L 310.932055 148.173457 
L 310.582391 147.758059 
L 311.277411 146.635957 
L 310.997713 146.635062 
L 310.997713 146.465056 
L 312.431344 145.057974 
L 314.657687 143.188684 
L 324.507345 134.880728 
L 325.074258 134.257632 
L 325.187347 134.049933 
L 324.982612 133.932284 
L 324.138305 134.257632 
L 322.547492 134.880728 
L 323.234479 134.257632 
L 326.6608 131.29486 
L 329.737477 128.426297 
L 330.071662 128.026665 
L 330.017175 127.8073 
L 329.987162 127.818966 
L 329.178081 128.215575 
L 323.861912 131.972944 
L 319.866411 135.088427 
L 317.990163 136.807304 
L 314.074391 140.415943 
L 306.522546 146.816327 
L 304.388504 148.588855 
L 303.444226 149.41965 
L 303.392077 149.627349 
L 303.467296 149.627349 
L 306.802244 147.515668 
L 307.36164 147.197286 
L 307.36164 147.372747 
L 305.683452 148.852634 
L 302.047378 151.951791 
L 290.928669 161.050788 
L 287.007917 164.789367 
L 286.28949 165.620163 
L 286.384292 165.792331 
L 286.820385 165.827862 
L 286.501326 166.24326 
L 284.706104 167.732336 
L 281.909125 169.753294 
L 275.460104 174.343516 
L 262.297416 184.936159 
L 261.560597 185.766954 
L 261.067819 186.390051 
L 259.533287 187.468148 
L 259.084709 187.428545 
L 258.673581 187.636244 
L 256.400102 189.297835 
L 250.555675 193.867211 
L 244.921271 197.81349 
L 234.419804 204.875251 
L 225.130437 210.698819 
L 224.291343 210.992143 
L 222.892854 211.771617 
L 218.697384 214.453811 
L 214.781612 217.042829 
L 214.183622 217.129485 
L 211.984633 218.380779 
L 209.321604 220.244969 
L 200.469162 227.306731 
L 198.55913 229.030605 
L 198.55913 229.030605 
" style="fill:none;stroke:#000000;stroke-width:1.714286;"/>
    <path clip-path="url(#p4437b88d4b)" d="M 194.923057 223.995679 
L 194.935522 223.983549 
L 194.923057 223.946707 
L 194.696568 223.983549 
L 194.923057 223.995679 
" style="fill:none;stroke:#000000;stroke-width:1.714286;"/>
    <path clip-path="url(#p4437b88d4b)" d="M 204.432788 221.953429 
L 204.504359 221.90656 
L 204.712486 221.795652 
L 204.84528 221.698861 
L 204.992184 221.607311 
L 205.141036 221.491162 
L 205.271882 221.417009 
L 205.49341 221.283463 
L 205.55158 221.244922 
L 205.793153 221.075764 
L 205.831277 221.050948 
L 206.084244 220.868065 
L 206.110975 220.849323 
L 206.339735 220.660366 
L 206.390673 220.622152 
L 206.61238 220.452668 
L 206.670371 220.40706 
L 206.861352 220.244969 
L 206.950069 220.16931 
L 207.102568 220.03727 
L 207.229767 219.924741 
L 207.337487 219.829571 
L 207.509465 219.67167 
L 207.564653 219.621872 
L 207.749019 219.414173 
L 207.509465 219.386014 
L 207.457634 219.414173 
L 207.229767 219.543951 
L 207.089051 219.621872 
L 206.950069 219.703401 
L 206.727667 219.829571 
L 206.670371 219.864404 
L 206.390673 220.033672 
L 206.385017 220.03727 
L 206.110975 220.221495 
L 206.074764 220.244969 
L 205.831277 220.415975 
L 205.775943 220.452668 
L 205.55158 220.643721 
L 205.530972 220.660366 
L 205.271882 220.846425 
L 205.240525 220.868065 
L 204.992184 221.068334 
L 204.980971 221.075764 
L 204.712486 221.282402 
L 204.710945 221.283463 
L 204.487929 221.491162 
L 204.432788 221.55736 
L 204.308886 221.698861 
L 204.22772 221.90656 
L 204.432788 221.953429 
" style="fill:none;stroke:#000000;stroke-width:1.714286;"/>
    <path clip-path="url(#p4437b88d4b)" d="M 197.720036 221.731984 
L 197.782391 221.698861 
L 197.720036 221.686946 
L 197.694547 221.698861 
L 197.720036 221.731984 
" style="fill:none;stroke:#000000;stroke-width:1.714286;"/>
    <path clip-path="url(#p4437b88d4b)" d="M 198.55913 221.088001 
L 198.586094 221.075764 
L 198.55913 221.055741 
L 198.542652 221.075764 
L 198.55913 221.088001 
" style="fill:none;stroke:#000000;stroke-width:1.714286;"/>
    <path clip-path="url(#p4437b88d4b)" d="M 198.838828 220.9692 
L 199.0505 220.868065 
L 199.118526 220.837558 
L 199.398224 220.679435 
L 199.426586 220.660366 
L 199.677922 220.501521 
L 199.749626 220.452668 
L 199.95762 220.318147 
L 200.06361 220.244969 
L 200.237318 220.130002 
L 200.36986 220.03727 
L 200.517016 219.937607 
L 200.669399 219.829571 
L 200.796714 219.741337 
L 200.963001 219.621872 
L 201.076412 219.541444 
L 201.251236 219.414173 
L 201.35611 219.338067 
L 201.534495 219.206474 
L 201.635808 219.131241 
L 201.813018 218.998775 
L 201.915506 218.920898 
L 202.086895 218.791077 
L 202.195204 218.70686 
L 202.356082 218.583378 
L 202.474902 218.488837 
L 202.62039 218.375679 
L 202.7546 218.266404 
L 202.879479 218.16798 
L 203.034298 218.038988 
L 203.132845 217.960281 
L 203.313996 217.805829 
L 203.379786 217.752582 
L 203.593694 217.565945 
L 203.619373 217.544883 
L 203.83231 217.337184 
L 203.873392 217.28667 
L 204.009585 217.129485 
L 203.873392 217.028352 
L 203.661722 217.129485 
L 203.593694 217.159994 
L 203.313996 217.318117 
L 203.285635 217.337184 
L 203.034298 217.496031 
L 202.962596 217.544883 
L 202.7546 217.679406 
L 202.648613 217.752582 
L 202.474902 217.867551 
L 202.342363 217.960281 
L 202.195204 218.059946 
L 202.042825 218.16798 
L 201.915506 218.256217 
L 201.749223 218.375679 
L 201.635808 218.45611 
L 201.460989 218.583378 
L 201.35611 218.659487 
L 201.177729 218.791077 
L 201.076412 218.866313 
L 200.899207 218.998775 
L 200.796714 219.076657 
L 200.625329 219.206474 
L 200.517016 219.290694 
L 200.356143 219.414173 
L 200.237318 219.508718 
L 200.091835 219.621872 
L 199.95762 219.73115 
L 199.832745 219.829571 
L 199.677922 219.958566 
L 199.579379 220.03727 
L 199.398224 220.191724 
L 199.332437 220.244969 
L 199.118526 220.431608 
L 199.092849 220.452668 
L 198.879912 220.660366 
L 198.838828 220.710883 
L 198.702636 220.868065 
L 198.838828 220.9692 
" style="fill:none;stroke:#000000;stroke-width:1.714286;"/>
    <path clip-path="url(#p4437b88d4b)" d="M 203.313996 220.516673 
L 203.348159 220.452668 
L 203.313996 220.43714 
L 203.289117 220.452668 
L 203.313996 220.516673 
" style="fill:none;stroke:#000000;stroke-width:1.714286;"/>
    <path clip-path="url(#p4437b88d4b)" d="M 210.865841 220.457106 
L 210.802536 220.452668 
L 210.865841 220.425242 
L 210.870411 220.452668 
L 210.865841 220.457106 
" style="fill:none;stroke:#000000;stroke-width:1.714286;"/>
    <path clip-path="url(#p4437b88d4b)" d="M 204.15309 216.94181 
L 204.169568 216.921787 
L 204.15309 216.90955 
L 204.126126 216.921787 
L 204.15309 216.94181 
" style="fill:none;stroke:#000000;stroke-width:1.714286;"/>
    <path clip-path="url(#p4437b88d4b)" d="M 295.054929 162.510878 
L 295.043996 162.50468 
L 295.054929 162.48766 
L 295.072281 162.50468 
L 295.054929 162.510878 
" style="fill:none;stroke:#000000;stroke-width:1.714286;"/>
    <path clip-path="url(#p4437b88d4b)" d="M 322.46533 135.093191 
L 322.445696 135.088427 
L 322.46533 135.052478 
L 322.474496 135.088427 
L 322.46533 135.093191 
" style="fill:none;stroke:#000000;stroke-width:1.714286;"/>
    <path clip-path="url(#p4437b88d4b)" d="M 326.940498 128.469644 
L 327.224684 128.442063 
L 329.178081 127.281716 
L 332.534457 124.832901 
L 335.21516 122.626494 
L 337.613469 120.341807 
L 338.483545 119.303312 
L 338.408114 119.074315 
L 337.009624 119.812717 
L 333.865459 122.003398 
L 331.135967 124.208846 
L 329.974919 125.32658 
L 328.144412 127.19587 
L 326.926468 128.442063 
L 326.940498 128.469644 
L 326.940498 128.469644 
" style="fill:none;stroke:#000000;stroke-width:1.714286;"/>
   </g>
   <g id="LineCollection_3">
    <path clip-path="url(#p4437b88d4b)" d="M 415.066347 11.379141 
L 414.82335 14.029646 
L 416.158125 15.284218 
L 416.549305 14.029646 
L 417.145549 11.379141 
" style="fill:none;stroke:#fff5f0;stroke-width:1.5;"/>
    <path clip-path="url(#p4437b88d4b)" d="M 100.540625 247.355494 
L 107.401875 248.026153 
L 114.263125 248.528663 
L 121.124375 248.780768 
L 127.985625 248.742353 
L 134.846875 248.429527 
L 141.708125 247.890837 
L 148.569375 247.116934 
L 162.39709 244.623585 
L 172.618525 241.97308 
L 182.875625 238.895389 
L 189.736875 236.539545 
L 196.598125 233.879455 
L 203.459375 230.920273 
L 217.181875 224.298709 
L 218.708333 223.419545 
L 224.043125 220.737767 
L 228.152925 218.118535 
L 230.904375 216.697565 
L 232.720931 215.46803 
L 237.765625 212.616401 
L 241.061974 210.167019 
L 244.626875 208.138931 
L 249.024749 204.866009 
L 251.488125 203.430979 
L 252.946083 202.215504 
L 256.579187 199.564999 
L 258.349375 198.510821 
L 260.131281 196.914494 
L 263.698844 194.263989 
L 265.210625 193.341613 
L 267.018011 191.613484 
L 270.394994 188.962979 
L 272.071875 187.908801 
L 273.649633 186.312474 
L 276.734156 183.661969 
L 278.933125 182.226939 
L 280.078861 181.011464 
L 282.821627 178.360959 
L 285.794375 176.332871 
L 288.764386 173.059949 
L 292.655625 170.20832 
L 294.642433 167.758939 
L 297.453082 165.108434 
L 299.516875 163.687464 
L 300.501645 162.457929 
L 302.775293 159.807423 
L 306.378125 157.125646 
L 308.268875 154.506413 
L 310.772864 151.855908 
L 313.239375 150.084568 
L 315.833041 146.554898 
L 318.623724 143.904393 
L 320.100625 142.890655 
L 321.207429 141.253888 
L 323.182257 138.603383 
L 326.961875 135.502091 
L 328.340581 133.302373 
L 330.301785 130.651868 
L 333.823125 127.859253 
L 335.293048 125.350858 
L 337.186753 122.700353 
L 340.684375 119.917322 
L 342.083041 117.399343 
L 343.855249 114.748838 
L 346.845261 112.098333 
L 347.545625 111.671146 
L 348.735902 109.447827 
L 350.350657 106.797322 
L 352.868638 104.146817 
L 354.406875 103.161512 
L 356.728714 98.845807 
L 358.754002 96.195302 
L 361.268125 94.455425 
L 363.038937 90.894292 
L 364.662332 88.243787 
L 368.141838 85.593282 
L 369.313653 82.942777 
L 370.652869 80.292272 
L 372.67336 77.641767 
L 374.990625 76.245766 
L 378.113896 69.690252 
L 381.41312 67.039747 
L 381.851875 66.88259 
L 383.950873 61.738737 
L 385.382911 59.088232 
L 388.713125 57.054473 
L 388.98004 56.437726 
L 390.984729 51.136716 
L 392.329408 48.486211 
L 395.574375 46.991143 
L 396.026562 45.835706 
L 397.802438 40.534696 
L 398.505571 37.884191 
L 395.574375 37.174945 
L 395.266038 37.884191 
L 393.225571 43.185201 
L 391.509854 45.835706 
L 388.713125 46.6919 
L 386.846524 51.136716 
L 385.441504 53.787221 
L 381.851875 55.934872 
L 381.605391 56.437726 
L 380.46777 59.088232 
L 379.129135 61.738737 
L 376.524976 64.389242 
L 374.990625 65.019839 
L 372.718124 69.690252 
L 370.764452 72.340757 
L 368.129375 73.902338 
L 366.218904 77.641767 
L 364.436343 80.292272 
L 361.268125 82.468053 
L 360.998768 82.942777 
L 359.627361 85.593282 
L 357.885 88.243787 
L 354.35113 90.894292 
L 352.934207 93.544797 
L 351.167327 96.195302 
L 347.545625 98.984665 
L 346.126071 101.496312 
L 344.285353 104.146817 
L 340.684375 106.929848 
L 339.184474 109.447827 
L 337.216042 112.098333 
L 333.749997 114.748838 
L 332.083019 117.399343 
L 329.909906 120.049848 
L 326.961875 122.194347 
L 324.781333 125.350858 
L 322.269117 128.001363 
L 320.100625 129.501963 
L 317.21108 133.302373 
L 314.075889 135.952878 
L 313.239375 136.488184 
L 311.661016 138.603383 
L 309.238809 141.253888 
L 306.378125 143.296651 
L 303.709224 146.554898 
L 300.543205 149.205403 
L 299.516875 149.872849 
L 297.86526 151.855908 
L 295.164438 154.506413 
L 292.655625 156.232204 
L 289.299848 159.807423 
L 285.603706 162.457929 
L 283.141377 165.108434 
L 278.933125 168.171775 
L 276.750147 170.409444 
L 273.335912 173.059949 
L 272.071875 173.85867 
L 270.138197 175.710454 
L 266.688383 178.360959 
L 265.210625 179.283335 
L 263.290394 181.011464 
L 259.660871 183.661969 
L 258.349375 184.46069 
L 256.16808 186.312474 
L 251.488125 189.375815 
L 248.701856 191.613484 
L 244.356765 194.263989 
L 240.768651 196.914494 
L 237.765625 198.640285 
L 236.418284 199.564999 
L 227.852236 204.866009 
L 223.016502 207.516514 
L 213.388526 212.817524 
L 202.365594 218.118535 
L 196.347347 220.76904 
L 189.736875 223.55207 
L 182.875625 226.208907 
L 175.712104 228.720555 
L 167.387258 231.37106 
L 162.291875 232.932641 
L 148.569375 236.169215 
L 145.556089 236.67207 
L 141.708125 237.528263 
L 134.846875 238.613329 
L 127.985625 239.368606 
L 121.124375 240.206579 
L 114.263125 240.718508 
L 107.401875 241.008356 
L 93.679375 241.170298 
L 86.818125 241.243128 
L 80.65998 241.97308 
L 87.045836 244.623585 
L 93.679375 245.851974 
L 100.540625 247.355494 
L 100.540625 247.355494 
" style="fill:none;stroke:#fff5f0;stroke-width:1.5;"/>
    <path clip-path="url(#p4437b88d4b)" d="M 402.435625 36.701949 
L 402.958087 35.233686 
L 403.758048 32.583181 
L 404.407214 29.932676 
L 402.435625 27.328202 
L 401.547651 29.932676 
L 400.660319 32.583181 
L 399.840354 35.233686 
L 402.435625 36.701949 
" style="fill:none;stroke:#fff5f0;stroke-width:1.5;"/>
    <path clip-path="url(#p4437b88d4b)" d="M 409.296875 26.138343 
L 409.792227 24.631666 
L 410.486336 21.981161 
L 410.858459 19.330656 
L 409.296875 17.564154 
L 408.689263 19.330656 
L 407.917532 21.981161 
L 407.42468 24.631666 
L 409.296875 26.138343 
" style="fill:none;stroke:#fff5f0;stroke-width:1.5;"/>
   </g>
   <g id="LineCollection_4">
    <path clip-path="url(#p4437b88d4b)" d="M 121.124375 245.663306 
L 127.985625 246.192042 
L 134.846875 246.172685 
L 141.708125 245.780169 
L 148.569375 245.157033 
L 152.847591 244.623585 
L 155.430625 244.159795 
L 166.314876 241.97308 
L 176.662984 239.322575 
L 184.786819 236.67207 
L 192.092617 234.021565 
L 196.598125 232.311534 
L 198.756814 231.37106 
L 204.968024 228.720555 
L 210.896179 226.07005 
L 217.181875 222.950951 
L 220.853543 220.76904 
L 224.043125 219.236566 
L 225.797412 218.118535 
L 230.923648 215.46803 
L 234.641241 212.817524 
L 237.765625 211.176473 
L 239.124136 210.167019 
L 243.237804 207.516514 
L 244.626875 206.785044 
L 246.971912 204.866009 
L 251.511639 202.215504 
L 254.463486 199.564999 
L 258.724872 196.914494 
L 261.596251 194.263989 
L 265.210625 192.058769 
L 268.390813 188.962979 
L 272.404352 186.312474 
L 274.90166 183.661969 
L 278.951603 181.011464 
L 281.205676 178.360959 
L 284.552277 175.710454 
L 285.794375 174.978983 
L 287.378046 173.059949 
L 290.077732 170.409444 
L 292.655625 168.768393 
L 295.686271 165.108434 
L 299.527323 162.457929 
L 301.396413 159.807423 
L 303.971059 157.156918 
L 306.378125 155.624445 
L 309.135419 151.855908 
L 312.39427 149.205403 
L 313.239375 148.736809 
L 314.640619 146.554898 
L 316.68424 143.904393 
L 320.100625 141.559401 
L 320.307217 141.253888 
L 321.895042 138.603383 
L 324.011558 135.952878 
L 326.961875 134.032165 
L 328.95134 130.651868 
L 331.065986 128.001363 
L 333.823125 126.291332 
L 335.821553 122.700353 
L 337.809698 120.049848 
L 340.684375 118.313767 
L 341.192312 117.399343 
L 342.532229 114.748838 
L 344.274684 112.098333 
L 347.545625 110.103225 
L 347.896499 109.447827 
L 349.121467 106.797322 
L 350.573823 104.146817 
L 354.509277 101.496312 
L 356.83034 96.195302 
L 358.858274 93.544797 
L 361.268125 92.825663 
L 363.110104 88.243787 
L 364.123558 85.593282 
L 361.268125 84.185554 
L 357.974174 90.894292 
L 354.406875 92.515317 
L 353.864136 93.544797 
L 352.600871 96.195302 
L 350.937272 98.845807 
L 347.545625 100.625512 
L 347.053459 101.496312 
L 345.690896 104.146817 
L 343.825754 106.797322 
L 340.684375 108.533403 
L 338.663174 112.098333 
L 336.51692 114.748838 
L 333.823125 116.230207 
L 331.474317 120.049848 
L 328.848991 122.700353 
L 326.961875 123.679955 
L 325.901127 125.350858 
L 324.057887 128.001363 
L 320.100625 130.795064 
L 318.49889 133.302373 
L 316.281038 135.952878 
L 313.239375 137.899313 
L 310.807178 141.253888 
L 307.783065 143.904393 
L 306.378125 144.691434 
L 304.990594 146.554898 
L 302.62964 149.205403 
L 299.516875 151.229703 
L 296.845899 154.506413 
L 292.655625 157.51971 
L 290.781734 159.807423 
L 287.844687 162.457929 
L 285.794375 163.70199 
L 284.525349 165.108434 
L 281.79129 167.758939 
L 278.933125 169.555235 
L 275.403707 173.059949 
L 272.071875 175.165271 
L 268.743656 178.360959 
L 265.210625 180.566179 
L 261.806303 183.661969 
L 258.349375 185.767291 
L 254.541388 188.962979 
L 251.488125 190.759275 
L 250.424493 191.613484 
L 246.837029 194.263989 
L 244.626875 195.50805 
L 242.781344 196.914494 
L 237.765625 199.927791 
L 234.617988 202.215504 
L 229.940579 204.866009 
L 225.576959 207.516514 
L 224.043125 208.303556 
L 221.025614 210.167019 
L 210.320625 215.611226 
L 205.577321 218.118535 
L 193.874822 223.419545 
L 187.372577 226.07005 
L 182.875625 227.849755 
L 169.153125 232.613837 
L 148.569375 238.152337 
L 141.708125 239.356592 
L 134.846875 240.903039 
L 126.189832 241.97308 
L 121.124375 243.37592 
L 114.263125 244.623585 
L 121.124375 245.663306 
L 121.124375 245.663306 
" style="fill:none;stroke:#fb694a;stroke-width:1.5;"/>
    <path clip-path="url(#p4437b88d4b)" d="M 368.129375 83.774325 
L 368.495698 82.942777 
L 369.421238 80.292272 
L 370.18147 77.641767 
L 368.129375 75.566628 
L 367.266593 77.641767 
L 366.238786 80.292272 
L 365.242305 82.942777 
L 368.129375 83.774325 
" style="fill:none;stroke:#fb694a;stroke-width:1.5;"/>
    <path clip-path="url(#p4437b88d4b)" d="M 374.990625 74.527472 
L 375.745862 72.340757 
L 376.45919 69.690252 
L 375.941386 67.039747 
L 374.990625 66.740727 
L 374.850634 67.039747 
L 373.922093 69.690252 
L 373.145649 72.340757 
L 374.990625 74.527472 
" style="fill:none;stroke:#fb694a;stroke-width:1.5;"/>
    <path clip-path="url(#p4437b88d4b)" d="M 381.851875 64.922689 
L 382.063003 64.389242 
L 382.783532 61.738737 
L 383.025075 59.088232 
L 381.851875 57.917993 
L 381.392001 59.088232 
L 380.643366 61.738737 
L 380.712194 64.389242 
L 381.851875 64.922689 
" style="fill:none;stroke:#fb694a;stroke-width:1.5;"/>
    <path clip-path="url(#p4437b88d4b)" d="M 388.713125 54.943805 
L 389.09427 53.787221 
L 389.591467 51.136716 
L 388.713125 48.520229 
L 387.991382 51.136716 
L 387.70938 53.787221 
L 388.713125 54.943805 
" style="fill:none;stroke:#fb694a;stroke-width:1.5;"/>
    <path clip-path="url(#p4437b88d4b)" d="M 395.574375 44.734301 
L 395.986062 43.185201 
L 396.168934 40.534696 
L 395.574375 39.464655 
L 395.229757 40.534696 
L 394.857694 43.185201 
L 395.574375 44.734301 
" style="fill:none;stroke:#fb694a;stroke-width:1.5;"/>
    <path clip-path="url(#p4437b88d4b)" d="M 402.435625 34.151637 
L 402.766315 32.583181 
L 402.565446 29.932676 
L 402.435625 29.761182 
L 402.377156 29.932676 
L 401.991685 32.583181 
L 402.435625 34.151637 
" style="fill:none;stroke:#fb694a;stroke-width:1.5;"/>
    <path clip-path="url(#p4437b88d4b)" d="M 409.296875 23.020882 
L 409.475605 21.981161 
L 409.296875 20.733496 
L 409.089613 21.981161 
L 409.296875 23.020882 
" style="fill:none;stroke:#fb694a;stroke-width:1.5;"/>
   </g>
   <g id="LineCollection_5">
    <path clip-path="url(#p4437b88d4b)" d="M 162.291875 239.53823 
L 163.966834 239.322575 
L 162.291875 238.747496 
L 160.212884 239.322575 
L 162.291875 239.53823 
" style="fill:none;stroke:#67000d;stroke-width:1.5;"/>
    <path clip-path="url(#p4437b88d4b)" d="M 169.153125 238.13547 
L 176.014375 236.969371 
L 177.101333 236.67207 
L 182.875625 234.886698 
L 185.594184 234.021565 
L 189.736875 232.643302 
L 193.152504 231.37106 
L 196.598125 230.143446 
L 199.888018 228.720555 
L 203.459375 227.354155 
L 206.069883 226.07005 
L 210.320625 224.316364 
L 211.962714 223.419545 
L 217.181875 221.094202 
L 217.729051 220.76904 
L 222.345192 218.118535 
L 224.043125 217.398175 
L 226.847619 215.46803 
L 230.904375 213.529145 
L 231.899774 212.817524 
L 236.038971 210.167019 
L 237.765625 209.38579 
L 240.047624 207.516514 
L 244.626875 205.105128 
L 244.919076 204.866009 
L 247.893115 202.215504 
L 251.488125 200.339832 
L 252.347786 199.564999 
L 255.395826 196.914494 
L 258.349375 195.393359 
L 259.493659 194.263989 
L 262.492231 191.613484 
L 265.210625 190.217551 
L 266.386632 188.962979 
L 269.169777 186.312474 
L 272.071875 184.791339 
L 273.069165 183.661969 
L 275.522277 181.011464 
L 278.933125 179.135792 
L 279.589726 178.360959 
L 281.699642 175.710454 
L 285.794375 173.299068 
L 285.991707 173.059949 
L 287.815779 170.409444 
L 290.820059 167.758939 
L 292.655625 166.977709 
L 293.91946 165.108434 
L 295.930116 162.457929 
L 299.516875 160.519044 
L 300.017533 159.807423 
L 301.613113 157.156918 
L 304.302476 154.506413 
L 306.378125 153.786054 
L 307.497975 151.855908 
L 309.045639 149.205403 
L 313.239375 146.880061 
L 313.448197 146.554898 
L 314.744757 143.904393 
L 316.0995 141.253888 
L 313.239375 139.865987 
L 312.375546 141.253888 
L 310.855006 143.904393 
L 306.378125 146.412323 
L 306.271964 146.554898 
L 304.716074 149.205403 
L 302.539398 151.855908 
L 299.516875 153.122368 
L 298.527361 154.506413 
L 296.59771 157.156918 
L 292.655625 159.32885 
L 292.26362 159.807423 
L 290.37257 162.457929 
L 286.508147 165.108434 
L 285.794375 165.352601 
L 283.992573 167.758939 
L 280.989848 170.409444 
L 278.933125 171.340195 
L 277.471503 173.059949 
L 274.647221 175.710454 
L 272.071875 176.995346 
L 270.798928 178.360959 
L 267.929019 181.011464 
L 265.210625 182.407397 
L 263.951735 183.661969 
L 260.875599 186.312474 
L 258.349375 187.597367 
L 256.892931 188.962979 
L 253.393517 191.613484 
L 251.488125 192.544235 
L 249.561987 194.263989 
L 245.168119 196.914494 
L 244.626875 197.158662 
L 241.845331 199.564999 
L 237.765625 201.736931 
L 237.107161 202.215504 
L 233.467226 204.866009 
L 230.904375 206.132469 
L 228.930732 207.516514 
L 224.043125 210.024445 
L 223.812253 210.167019 
L 219.831179 212.817524 
L 217.181875 214.080129 
L 214.851737 215.46803 
L 210.320625 217.627124 
L 209.390979 218.118535 
L 203.920334 220.76904 
L 203.459375 220.975725 
L 198.763455 223.419545 
L 196.598125 224.38543 
L 192.903528 226.07005 
L 189.736875 227.448312 
L 186.593872 228.720555 
L 182.875625 230.297318 
L 179.896155 231.37106 
L 176.014375 233.003128 
L 172.839555 234.021565 
L 169.153125 235.658947 
L 165.626362 236.67207 
L 169.153125 238.13547 
" style="fill:none;stroke:#67000d;stroke-width:1.5;"/>
    <path clip-path="url(#p4437b88d4b)" d="M 320.100625 139.500202 
L 320.607827 138.603383 
L 321.753673 135.952878 
L 322.338793 133.302373 
L 320.100625 132.810962 
L 319.786699 133.302373 
L 318.486187 135.952878 
L 317.080209 138.603383 
L 320.100625 139.500202 
" style="fill:none;stroke:#67000d;stroke-width:1.5;"/>
    <path clip-path="url(#p4437b88d4b)" d="M 326.961875 131.935973 
L 327.600894 130.651868 
L 328.537975 128.001363 
L 326.961875 125.557544 
L 325.846658 128.001363 
L 324.859405 130.651868 
L 326.961875 131.935973 
" style="fill:none;stroke:#67000d;stroke-width:1.5;"/>
    <path clip-path="url(#p4437b88d4b)" d="M 333.823125 124.123244 
L 334.456352 122.700353 
L 335.154461 120.049848 
L 333.823125 118.365228 
L 333.038729 120.049848 
L 332.247008 122.700353 
L 333.823125 124.123244 
" style="fill:none;stroke:#67000d;stroke-width:1.5;"/>
    <path clip-path="url(#p4437b88d4b)" d="M 340.684375 116.02108 
L 341.209209 114.748838 
L 341.704108 112.098333 
L 340.684375 110.82609 
L 340.110306 112.098333 
L 339.500719 114.748838 
L 340.684375 116.02108 
" style="fill:none;stroke:#67000d;stroke-width:1.5;"/>
    <path clip-path="url(#p4437b88d4b)" d="M 347.545625 107.662456 
L 347.892277 106.797322 
L 348.279007 104.146817 
L 347.545625 103.073076 
L 347.096439 104.146817 
L 346.727333 106.797322 
L 347.545625 107.662456 
" style="fill:none;stroke:#67000d;stroke-width:1.5;"/>
    <path clip-path="url(#p4437b88d4b)" d="M 354.406875 99.143109 
L 354.527455 98.845807 
L 354.906678 96.195302 
L 354.406875 95.176866 
L 354.034414 96.195302 
L 354.064293 98.845807 
L 354.406875 99.143109 
" style="fill:none;stroke:#67000d;stroke-width:1.5;"/>
    <path clip-path="url(#p4437b88d4b)" d="M 361.268125 89.707187 
L 361.557876 88.243787 
L 361.268125 87.230664 
L 360.97932 88.243787 
L 361.268125 89.707187 
" style="fill:none;stroke:#67000d;stroke-width:1.5;"/>
    <path clip-path="url(#p4437b88d4b)" d="M 368.129375 80.507927 
L 368.189606 80.292272 
L 368.129375 79.717193 
L 368.041229 80.292272 
L 368.129375 80.507927 
" style="fill:none;stroke:#67000d;stroke-width:1.5;"/>
   </g>
   <g id="patch_3">
    <path d="M 38.789375 273.779141 
L 38.789375 11.379141 
" style="fill:none;stroke:#000000;stroke-linecap:square;stroke-linejoin:miter;stroke-width:0.8;"/>
   </g>
   <g id="patch_4">
    <path d="M 416.158125 273.779141 
L 416.158125 11.379141 
" style="fill:none;stroke:#000000;stroke-linecap:square;stroke-linejoin:miter;stroke-width:0.8;"/>
   </g>
   <g id="patch_5">
    <path d="M 38.789375 273.779141 
L 416.158125 273.779141 
" style="fill:none;stroke:#000000;stroke-linecap:square;stroke-linejoin:miter;stroke-width:0.8;"/>
   </g>
   <g id="patch_6">
    <path d="M 38.789375 11.379141 
L 416.158125 11.379141 
" style="fill:none;stroke:#000000;stroke-linecap:square;stroke-linejoin:miter;stroke-width:0.8;"/>
   </g>
  </g>
 </g>
 <defs>
  <clipPath id="p4437b88d4b">
   <rect height="262.4" width="377.36875" x="38.789375" y="11.379141"/>
  </clipPath>
 </defs>
</svg>
