<?xml version="1.0" encoding="utf-8" standalone="no"?>
<!DOCTYPE svg PUBLIC "-//W3C//DTD SVG 1.1//EN"
  "http://www.w3.org/Graphics/SVG/1.1/DTD/svg11.dtd">
<!-- Created with matplotlib (https://matplotlib.org/) -->
<svg height="567.3575pt" version="1.1" viewBox="0 0 567.334687 567.3575" width="567.334687pt" xmlns="http://www.w3.org/2000/svg" xmlns:xlink="http://www.w3.org/1999/xlink">
 <defs>
  <style type="text/css">
*{stroke-linecap:butt;stroke-linejoin:round;}
  </style>
 </defs>
 <g id="figure_1">
  <g id="patch_1">
   <path d="M 0 567.3575 
L 567.334687 567.3575 
L 567.334687 0 
L 0 0 
z
" style="fill:#ffffff;"/>
  </g>
  <g id="axes_1">
   <g id="patch_2">
    <path d="M 35.289375 525.1 
L 297.712031 525.1 
L 297.712031 266.15 
L 35.289375 266.15 
z
" style="fill:#ffffff;"/>
   </g>
   <g id="matplotlib.axis_1">
    <g id="xtick_1">
     <g id="line2d_1">
      <defs>
       <path d="M 0 0 
L 0 -3.5 
" id="m883d02055b" style="stroke:#000000;stroke-width:0.8;"/>
      </defs>
      <g>
       <use style="stroke:#000000;stroke-width:0.8;" x="45.600648" xlink:href="#m883d02055b" y="525.1"/>
      </g>
     </g>
     <g id="line2d_2">
      <defs>
       <path d="M 0 0 
L 0 3.5 
" id="m0ab44865df" style="stroke:#000000;stroke-width:0.8;"/>
      </defs>
      <g>
       <use style="stroke:#000000;stroke-width:0.8;" x="45.600648" xlink:href="#m0ab44865df" y="266.15"/>
      </g>
     </g>
     <g id="text_1">
      <!-- $\mathdefault{0.0}$ -->
      <defs>
       <path d="M 31.78125 66.40625 
Q 24.171875 66.40625 20.328125 58.90625 
Q 16.5 51.421875 16.5 36.375 
Q 16.5 21.390625 20.328125 13.890625 
Q 24.171875 6.390625 31.78125 6.390625 
Q 39.453125 6.390625 43.28125 13.890625 
Q 47.125 21.390625 47.125 36.375 
Q 47.125 51.421875 43.28125 58.90625 
Q 39.453125 66.40625 31.78125 66.40625 
z
M 31.78125 74.21875 
Q 44.046875 74.21875 50.515625 64.515625 
Q 56.984375 54.828125 56.984375 36.375 
Q 56.984375 17.96875 50.515625 8.265625 
Q 44.046875 -1.421875 31.78125 -1.421875 
Q 19.53125 -1.421875 13.0625 8.265625 
Q 6.59375 17.96875 6.59375 36.375 
Q 6.59375 54.828125 13.0625 64.515625 
Q 19.53125 74.21875 31.78125 74.21875 
z
" id="DejaVuSans-48"/>
       <path d="M 10.6875 12.40625 
L 21 12.40625 
L 21 0 
L 10.6875 0 
z
" id="DejaVuSans-46"/>
      </defs>
      <g transform="translate(36.800648 536.958281)scale(0.11 -0.11)">
       <use transform="translate(0 0.78125)" xlink:href="#DejaVuSans-48"/>
       <use transform="translate(63.623047 0.78125)" xlink:href="#DejaVuSans-46"/>
       <use transform="translate(95.410156 0.78125)" xlink:href="#DejaVuSans-48"/>
      </g>
     </g>
    </g>
    <g id="xtick_2">
     <g id="line2d_3">
      <g>
       <use style="stroke:#000000;stroke-width:0.8;" x="101.745325" xlink:href="#m883d02055b" y="525.1"/>
      </g>
     </g>
     <g id="line2d_4">
      <g>
       <use style="stroke:#000000;stroke-width:0.8;" x="101.745325" xlink:href="#m0ab44865df" y="266.15"/>
      </g>
     </g>
     <g id="text_2">
      <!-- $\mathdefault{0.5}$ -->
      <defs>
       <path d="M 10.796875 72.90625 
L 49.515625 72.90625 
L 49.515625 64.59375 
L 19.828125 64.59375 
L 19.828125 46.734375 
Q 21.96875 47.46875 24.109375 47.828125 
Q 26.265625 48.1875 28.421875 48.1875 
Q 40.625 48.1875 47.75 41.5 
Q 54.890625 34.8125 54.890625 23.390625 
Q 54.890625 11.625 47.5625 5.09375 
Q 40.234375 -1.421875 26.90625 -1.421875 
Q 22.3125 -1.421875 17.546875 -0.640625 
Q 12.796875 0.140625 7.71875 1.703125 
L 7.71875 11.625 
Q 12.109375 9.234375 16.796875 8.0625 
Q 21.484375 6.890625 26.703125 6.890625 
Q 35.15625 6.890625 40.078125 11.328125 
Q 45.015625 15.765625 45.015625 23.390625 
Q 45.015625 31 40.078125 35.4375 
Q 35.15625 39.890625 26.703125 39.890625 
Q 22.75 39.890625 18.8125 39.015625 
Q 14.890625 38.140625 10.796875 36.28125 
z
" id="DejaVuSans-53"/>
      </defs>
      <g transform="translate(92.945325 536.958281)scale(0.11 -0.11)">
       <use transform="translate(0 0.78125)" xlink:href="#DejaVuSans-48"/>
       <use transform="translate(63.623047 0.78125)" xlink:href="#DejaVuSans-46"/>
       <use transform="translate(95.410156 0.78125)" xlink:href="#DejaVuSans-53"/>
      </g>
     </g>
    </g>
    <g id="xtick_3">
     <g id="line2d_5">
      <g>
       <use style="stroke:#000000;stroke-width:0.8;" x="157.890001" xlink:href="#m883d02055b" y="525.1"/>
      </g>
     </g>
     <g id="line2d_6">
      <g>
       <use style="stroke:#000000;stroke-width:0.8;" x="157.890001" xlink:href="#m0ab44865df" y="266.15"/>
      </g>
     </g>
     <g id="text_3">
      <!-- $\mathdefault{1.0}$ -->
      <defs>
       <path d="M 12.40625 8.296875 
L 28.515625 8.296875 
L 28.515625 63.921875 
L 10.984375 60.40625 
L 10.984375 69.390625 
L 28.421875 72.90625 
L 38.28125 72.90625 
L 38.28125 8.296875 
L 54.390625 8.296875 
L 54.390625 0 
L 12.40625 0 
z
" id="DejaVuSans-49"/>
      </defs>
      <g transform="translate(149.090001 536.958281)scale(0.11 -0.11)">
       <use transform="translate(0 0.78125)" xlink:href="#DejaVuSans-49"/>
       <use transform="translate(63.623047 0.78125)" xlink:href="#DejaVuSans-46"/>
       <use transform="translate(95.410156 0.78125)" xlink:href="#DejaVuSans-48"/>
      </g>
     </g>
    </g>
    <g id="xtick_4">
     <g id="line2d_7">
      <g>
       <use style="stroke:#000000;stroke-width:0.8;" x="214.034678" xlink:href="#m883d02055b" y="525.1"/>
      </g>
     </g>
     <g id="line2d_8">
      <g>
       <use style="stroke:#000000;stroke-width:0.8;" x="214.034678" xlink:href="#m0ab44865df" y="266.15"/>
      </g>
     </g>
     <g id="text_4">
      <!-- $\mathdefault{1.5}$ -->
      <g transform="translate(205.234678 536.958281)scale(0.11 -0.11)">
       <use transform="translate(0 0.09375)" xlink:href="#DejaVuSans-49"/>
       <use transform="translate(63.623047 0.09375)" xlink:href="#DejaVuSans-46"/>
       <use transform="translate(95.410156 0.09375)" xlink:href="#DejaVuSans-53"/>
      </g>
     </g>
    </g>
    <g id="xtick_5">
     <g id="line2d_9">
      <g>
       <use style="stroke:#000000;stroke-width:0.8;" x="270.179355" xlink:href="#m883d02055b" y="525.1"/>
      </g>
     </g>
     <g id="line2d_10">
      <g>
       <use style="stroke:#000000;stroke-width:0.8;" x="270.179355" xlink:href="#m0ab44865df" y="266.15"/>
      </g>
     </g>
     <g id="text_5">
      <!-- $\mathdefault{2.0}$ -->
      <defs>
       <path d="M 19.1875 8.296875 
L 53.609375 8.296875 
L 53.609375 0 
L 7.328125 0 
L 7.328125 8.296875 
Q 12.9375 14.109375 22.625 23.890625 
Q 32.328125 33.6875 34.8125 36.53125 
Q 39.546875 41.84375 41.421875 45.53125 
Q 43.3125 49.21875 43.3125 52.78125 
Q 43.3125 58.59375 39.234375 62.25 
Q 35.15625 65.921875 28.609375 65.921875 
Q 23.96875 65.921875 18.8125 64.3125 
Q 13.671875 62.703125 7.8125 59.421875 
L 7.8125 69.390625 
Q 13.765625 71.78125 18.9375 73 
Q 24.125 74.21875 28.421875 74.21875 
Q 39.75 74.21875 46.484375 68.546875 
Q 53.21875 62.890625 53.21875 53.421875 
Q 53.21875 48.921875 51.53125 44.890625 
Q 49.859375 40.875 45.40625 35.40625 
Q 44.1875 33.984375 37.640625 27.21875 
Q 31.109375 20.453125 19.1875 8.296875 
z
" id="DejaVuSans-50"/>
      </defs>
      <g transform="translate(261.379355 536.958281)scale(0.11 -0.11)">
       <use transform="translate(0 0.78125)" xlink:href="#DejaVuSans-50"/>
       <use transform="translate(63.623047 0.78125)" xlink:href="#DejaVuSans-46"/>
       <use transform="translate(95.410156 0.78125)" xlink:href="#DejaVuSans-48"/>
      </g>
     </g>
    </g>
    <g id="text_6">
     <!-- Hinz -->
     <defs>
      <path d="M 9.8125 72.90625 
L 19.671875 72.90625 
L 19.671875 43.015625 
L 55.515625 43.015625 
L 55.515625 72.90625 
L 65.375 72.90625 
L 65.375 0 
L 55.515625 0 
L 55.515625 34.71875 
L 19.671875 34.71875 
L 19.671875 0 
L 9.8125 0 
z
" id="DejaVuSans-72"/>
      <path d="M 9.421875 54.6875 
L 18.40625 54.6875 
L 18.40625 0 
L 9.421875 0 
z
M 9.421875 75.984375 
L 18.40625 75.984375 
L 18.40625 64.59375 
L 9.421875 64.59375 
z
" id="DejaVuSans-105"/>
      <path d="M 54.890625 33.015625 
L 54.890625 0 
L 45.90625 0 
L 45.90625 32.71875 
Q 45.90625 40.484375 42.875 44.328125 
Q 39.84375 48.1875 33.796875 48.1875 
Q 26.515625 48.1875 22.3125 43.546875 
Q 18.109375 38.921875 18.109375 30.90625 
L 18.109375 0 
L 9.078125 0 
L 9.078125 54.6875 
L 18.109375 54.6875 
L 18.109375 46.1875 
Q 21.34375 51.125 25.703125 53.5625 
Q 30.078125 56 35.796875 56 
Q 45.21875 56 50.046875 50.171875 
Q 54.890625 44.34375 54.890625 33.015625 
z
" id="DejaVuSans-110"/>
      <path d="M 5.515625 54.6875 
L 48.1875 54.6875 
L 48.1875 46.484375 
L 14.40625 7.171875 
L 48.1875 7.171875 
L 48.1875 0 
L 4.296875 0 
L 4.296875 8.203125 
L 38.09375 47.515625 
L 5.515625 47.515625 
z
" id="DejaVuSans-122"/>
     </defs>
     <g transform="translate(151.181641 557.245937)scale(0.14 -0.14)">
      <use xlink:href="#DejaVuSans-72"/>
      <use x="75.195312" xlink:href="#DejaVuSans-105"/>
      <use x="102.978516" xlink:href="#DejaVuSans-110"/>
      <use x="166.357422" xlink:href="#DejaVuSans-122"/>
     </g>
    </g>
   </g>
   <g id="matplotlib.axis_2">
    <g id="ytick_1">
     <g id="line2d_11">
      <defs>
       <path d="M 0 0 
L 3.5 0 
" id="me6a3a0c9d4" style="stroke:#000000;stroke-width:0.8;"/>
      </defs>
      <g>
       <use style="stroke:#000000;stroke-width:0.8;" x="35.289375" xlink:href="#me6a3a0c9d4" y="491.257021"/>
      </g>
     </g>
     <g id="line2d_12">
      <defs>
       <path d="M 0 0 
L -3.5 0 
" id="md114696919" style="stroke:#000000;stroke-width:0.8;"/>
      </defs>
      <g>
       <use style="stroke:#000000;stroke-width:0.8;" x="297.712031" xlink:href="#md114696919" y="491.257021"/>
      </g>
     </g>
     <g id="text_7">
      <!-- $\mathdefault{0}$ -->
      <g transform="translate(24.749375 495.436162)scale(0.11 -0.11)">
       <use transform="translate(0 0.78125)" xlink:href="#DejaVuSans-48"/>
      </g>
     </g>
    </g>
    <g id="ytick_2">
     <g id="line2d_13">
      <g>
       <use style="stroke:#000000;stroke-width:0.8;" x="35.289375" xlink:href="#me6a3a0c9d4" y="438.377845"/>
      </g>
     </g>
     <g id="line2d_14">
      <g>
       <use style="stroke:#000000;stroke-width:0.8;" x="297.712031" xlink:href="#md114696919" y="438.377845"/>
      </g>
     </g>
     <g id="text_8">
      <!-- $\mathdefault{1}$ -->
      <g transform="translate(24.749375 442.556986)scale(0.11 -0.11)">
       <use transform="translate(0 0.09375)" xlink:href="#DejaVuSans-49"/>
      </g>
     </g>
    </g>
    <g id="ytick_3">
     <g id="line2d_15">
      <g>
       <use style="stroke:#000000;stroke-width:0.8;" x="35.289375" xlink:href="#me6a3a0c9d4" y="385.498669"/>
      </g>
     </g>
     <g id="line2d_16">
      <g>
       <use style="stroke:#000000;stroke-width:0.8;" x="297.712031" xlink:href="#md114696919" y="385.498669"/>
      </g>
     </g>
     <g id="text_9">
      <!-- $\mathdefault{2}$ -->
      <g transform="translate(24.749375 389.67781)scale(0.11 -0.11)">
       <use transform="translate(0 0.78125)" xlink:href="#DejaVuSans-50"/>
      </g>
     </g>
    </g>
    <g id="ytick_4">
     <g id="line2d_17">
      <g>
       <use style="stroke:#000000;stroke-width:0.8;" x="35.289375" xlink:href="#me6a3a0c9d4" y="332.619493"/>
      </g>
     </g>
     <g id="line2d_18">
      <g>
       <use style="stroke:#000000;stroke-width:0.8;" x="297.712031" xlink:href="#md114696919" y="332.619493"/>
      </g>
     </g>
     <g id="text_10">
      <!-- $\mathdefault{3}$ -->
      <defs>
       <path d="M 40.578125 39.3125 
Q 47.65625 37.796875 51.625 33 
Q 55.609375 28.21875 55.609375 21.1875 
Q 55.609375 10.40625 48.1875 4.484375 
Q 40.765625 -1.421875 27.09375 -1.421875 
Q 22.515625 -1.421875 17.65625 -0.515625 
Q 12.796875 0.390625 7.625 2.203125 
L 7.625 11.71875 
Q 11.71875 9.328125 16.59375 8.109375 
Q 21.484375 6.890625 26.8125 6.890625 
Q 36.078125 6.890625 40.9375 10.546875 
Q 45.796875 14.203125 45.796875 21.1875 
Q 45.796875 27.640625 41.28125 31.265625 
Q 36.765625 34.90625 28.71875 34.90625 
L 20.21875 34.90625 
L 20.21875 43.015625 
L 29.109375 43.015625 
Q 36.375 43.015625 40.234375 45.921875 
Q 44.09375 48.828125 44.09375 54.296875 
Q 44.09375 59.90625 40.109375 62.90625 
Q 36.140625 65.921875 28.71875 65.921875 
Q 24.65625 65.921875 20.015625 65.03125 
Q 15.375 64.15625 9.8125 62.3125 
L 9.8125 71.09375 
Q 15.4375 72.65625 20.34375 73.4375 
Q 25.25 74.21875 29.59375 74.21875 
Q 40.828125 74.21875 47.359375 69.109375 
Q 53.90625 64.015625 53.90625 55.328125 
Q 53.90625 49.265625 50.4375 45.09375 
Q 46.96875 40.921875 40.578125 39.3125 
z
" id="DejaVuSans-51"/>
      </defs>
      <g transform="translate(24.749375 336.798634)scale(0.11 -0.11)">
       <use transform="translate(0 0.78125)" xlink:href="#DejaVuSans-51"/>
      </g>
     </g>
    </g>
    <g id="ytick_5">
     <g id="line2d_19">
      <g>
       <use style="stroke:#000000;stroke-width:0.8;" x="35.289375" xlink:href="#me6a3a0c9d4" y="279.740317"/>
      </g>
     </g>
     <g id="line2d_20">
      <g>
       <use style="stroke:#000000;stroke-width:0.8;" x="297.712031" xlink:href="#md114696919" y="279.740317"/>
      </g>
     </g>
     <g id="text_11">
      <!-- $\mathdefault{4}$ -->
      <defs>
       <path d="M 37.796875 64.3125 
L 12.890625 25.390625 
L 37.796875 25.390625 
z
M 35.203125 72.90625 
L 47.609375 72.90625 
L 47.609375 25.390625 
L 58.015625 25.390625 
L 58.015625 17.1875 
L 47.609375 17.1875 
L 47.609375 0 
L 37.796875 0 
L 37.796875 17.1875 
L 4.890625 17.1875 
L 4.890625 26.703125 
z
" id="DejaVuSans-52"/>
      </defs>
      <g transform="translate(24.749375 283.919457)scale(0.11 -0.11)">
       <use transform="translate(0 0.09375)" xlink:href="#DejaVuSans-52"/>
      </g>
     </g>
    </g>
    <g id="text_12">
     <!-- Kunz -->
     <defs>
      <path d="M 9.8125 72.90625 
L 19.671875 72.90625 
L 19.671875 42.09375 
L 52.390625 72.90625 
L 65.09375 72.90625 
L 28.90625 38.921875 
L 67.671875 0 
L 54.6875 0 
L 19.671875 35.109375 
L 19.671875 0 
L 9.8125 0 
z
" id="DejaVuSans-75"/>
      <path d="M 8.5 21.578125 
L 8.5 54.6875 
L 17.484375 54.6875 
L 17.484375 21.921875 
Q 17.484375 14.15625 20.5 10.265625 
Q 23.53125 6.390625 29.59375 6.390625 
Q 36.859375 6.390625 41.078125 11.03125 
Q 45.3125 15.671875 45.3125 23.6875 
L 45.3125 54.6875 
L 54.296875 54.6875 
L 54.296875 0 
L 45.3125 0 
L 45.3125 8.40625 
Q 42.046875 3.421875 37.71875 1 
Q 33.40625 -1.421875 27.6875 -1.421875 
Q 18.265625 -1.421875 13.375 4.4375 
Q 8.5 10.296875 8.5 21.578125 
z
M 31.109375 56 
z
" id="DejaVuSans-117"/>
     </defs>
     <g transform="translate(17.837813 412.411875)rotate(-90)scale(0.14 -0.14)">
      <use xlink:href="#DejaVuSans-75"/>
      <use x="60.576172" xlink:href="#DejaVuSans-117"/>
      <use x="123.955078" xlink:href="#DejaVuSans-110"/>
      <use x="187.333984" xlink:href="#DejaVuSans-122"/>
     </g>
    </g>
   </g>
   <g id="LineCollection_1">
    <path clip-path="url(#p85ef071d62)" d="M 64.541702 498.827321 
L 65.933895 498.178921 
L 67.168665 497.647697 
L 69.798203 496.882821 
L 73.736073 495.049949 
L 74.721184 494.842669 
L 76.691406 494.31817 
L 78.333258 494.142109 
L 79.792469 493.64257 
L 83.258814 492.511645 
L 84.900665 492.084356 
L 89.16948 490.471327 
L 98.884361 486.51402 
L 112.155406 480.010442 
L 115.43911 478.064898 
L 118.722814 476.036239 
L 122.050738 473.877044 
L 124.961851 472.035127 
L 137.890301 462.860193 
L 141.051999 460.344245 
L 151.888222 451.157229 
L 159.76911 443.916705 
L 166.008148 437.771389 
L 172.122354 431.429765 
L 181.022837 421.709015 
L 186.367111 415.28568 
L 195.957946 403.563613 
L 205.390872 391.250662 
L 208.367926 387.187934 
L 210.588593 384.122112 
L 213.357964 380.233811 
L 223.0615 366.300735 
L 225.448385 362.73646 
L 227.168935 360.14426 
L 237.124817 344.267033 
L 238.911779 341.350808 
L 242.190074 336.146567 
L 243.936823 333.250182 
L 249.085852 324.404751 
L 251.082634 321.261257 
L 252.870397 318.345031 
L 253.865024 316.400881 
L 254.036462 315.428806 
L 253.952116 314.780756 
L 254.22058 313.808681 
L 254.548964 312.836606 
L 254.339778 312.693978 
L 253.354667 313.399745 
L 246.130519 320.131312 
L 243.503556 322.889304 
L 241.533333 325.154042 
L 240.219852 326.96828 
L 236.829936 331.630057 
L 234.965926 334.283474 
L 228.070148 344.810445 
L 226.211779 347.507284 
L 224.458074 350.147905 
L 220.605895 355.607909 
L 217.562296 360.150708 
L 204.099111 378.670225 
L 189.979185 396.62992 
L 183.740148 403.922164 
L 169.291851 419.664677 
L 159.76911 429.20781 
L 154.691622 434.021966 
L 147.291036 440.639969 
L 144.317031 443.094666 
L 129.114164 454.759567 
L 124.633481 457.76358 
L 118.066073 462.009876 
L 115.11074 463.843207 
L 111.465361 465.776418 
L 109.856814 466.530248 
L 107.558221 467.920373 
L 105.259629 469.359995 
L 103.617777 470.135329 
L 101.319184 471.052775 
L 98.692221 472.673066 
L 95.865732 474.525094 
L 94.751777 475.045057 
L 94.423406 475.019094 
L 93.766666 474.496909 
L 93.381834 474.525094 
L 92.453184 474.930008 
L 91.139703 475.726851 
L 87.199258 478.818974 
L 80.960221 484.098071 
L 71.43748 491.131966 
L 68.344745 493.966595 
L 65.886816 496.558796 
L 64.449699 498.502946 
L 64.541702 498.827321 
L 64.541702 498.827321 
" style="fill:none;stroke:#e41a1c;stroke-width:1.142857;"/>
    <path clip-path="url(#p85ef071d62)" d="M 257.623482 303.529967 
L 257.993692 303.43988 
L 259.019885 302.79183 
L 260.262161 301.819755 
L 262.220667 300.133476 
L 266.161111 296.305258 
L 268.86245 293.395104 
L 270.603667 291.126929 
L 270.849581 290.478879 
L 270.758296 290.388802 
L 270.388119 290.478879 
L 269.361999 291.126929 
L 268.119868 292.099004 
L 266.161111 293.785615 
L 262.220667 297.613728 
L 259.519404 300.523655 
L 257.778117 302.79183 
L 257.532193 303.43988 
L 257.623482 303.529967 
L 257.623482 303.529967 
" style="fill:none;stroke:#e41a1c;stroke-width:1.142857;"/>
   </g>
   <g id="LineCollection_2">
    <path clip-path="url(#p85ef071d62)" d="M 71.43748 493.542976 
L 71.765851 493.615688 
L 72.094221 493.508053 
L 72.422591 493.522087 
L 76.363036 491.988269 
L 77.818774 491.69842 
L 79.64674 491.118838 
L 81.616962 490.924565 
L 83.258814 490.337186 
L 85.557406 489.571784 
L 87.855999 489.050383 
L 90.154591 488.214602 
L 94.095036 486.64149 
L 99.677332 484.43052 
L 102.096787 483.27377 
L 111.827036 478.343262 
L 117.737703 475.121287 
L 122.334888 472.227531 
L 129.958749 467.072518 
L 134.156221 464.017901 
L 144.007333 456.474725 
L 151.368663 450.223217 
L 156.485407 445.573382 
L 163.052814 439.277459 
L 168.635111 433.625732 
L 174.217407 427.700895 
L 179.142962 422.271565 
L 182.378376 418.468764 
L 200.520082 396.111038 
L 210.077109 383.150036 
L 218.491751 371.161111 
L 222.159481 365.769581 
L 224.155169 362.73646 
L 227.194133 357.876084 
L 230.04037 353.533329 
L 231.808733 350.747534 
L 235.359471 344.915083 
L 241.861704 334.194213 
L 245.555978 327.741757 
L 249.415278 321.585282 
L 250.034135 320.289181 
L 250.069986 319.641131 
L 249.742593 319.470779 
L 249.085852 319.518658 
L 248.429111 319.704869 
L 247.444 320.291736 
L 246.010952 321.585282 
L 244.817037 322.940696 
L 242.190074 326.265051 
L 239.563111 329.700707 
L 238.165068 331.954082 
L 236.916128 333.898233 
L 228.825369 345.563133 
L 227.085037 348.179675 
L 223.801333 352.833156 
L 219.947572 358.524135 
L 217.890666 361.466405 
L 213.621852 367.35728 
L 202.420814 382.501986 
L 192.217288 395.462987 
L 188.971794 399.351288 
L 180.128074 409.46497 
L 171.902128 418.468764 
L 164.037925 426.614763 
L 158.743526 431.75379 
L 152.544962 437.401763 
L 147.159538 442.122591 
L 139.410147 448.470652 
L 133.723674 452.815417 
L 125.223322 458.971893 
L 115.43911 465.156835 
L 107.558221 469.697833 
L 104.602888 471.272326 
L 101.628958 472.904969 
L 99.348962 473.758025 
L 97.70711 474.547015 
L 95.408517 475.956633 
L 92.781554 477.570167 
L 92.124814 477.843972 
L 91.731619 477.765344 
L 91.468073 476.98916 
L 91.139703 476.952861 
L 90.482962 477.19645 
L 89.16948 477.992485 
L 85.885777 480.562309 
L 77.982438 487.486095 
L 74.043708 490.40232 
L 72.298848 492.022445 
L 71.523885 492.99452 
L 71.380482 493.318545 
L 71.43748 493.542976 
L 71.43748 493.542976 
" style="fill:none;stroke:#e41a1c;stroke-width:1.142857;"/>
    <path clip-path="url(#p85ef071d62)" d="M 260.578815 300.554461 
L 260.654027 300.523655 
L 260.907185 300.427622 
L 261.235556 300.24019 
L 261.286263 300.19963 
L 261.563926 299.994212 
L 261.708927 299.875605 
L 261.892296 299.735504 
L 262.1122 299.55158 
L 262.220667 299.465999 
L 262.499499 299.227555 
L 262.549037 299.187195 
L 262.87349 298.90353 
L 262.877408 298.900234 
L 263.205778 298.606012 
L 263.233913 298.579505 
L 263.534148 298.304595 
L 263.585679 298.25548 
L 263.862519 297.996514 
L 263.929993 297.931455 
L 264.190889 297.682131 
L 264.267472 297.60743 
L 264.519259 297.361613 
L 264.598516 297.283405 
L 264.84763 297.034946 
L 264.923328 296.95938 
L 265.176 296.701929 
L 265.241924 296.635355 
L 265.504371 296.362168 
L 265.554134 296.31133 
L 265.832741 296.015055 
L 265.859592 295.987304 
L 266.157759 295.663279 
L 266.161111 295.6594 
L 266.448567 295.339254 
L 266.489482 295.290356 
L 266.73111 295.015229 
L 266.817852 294.908182 
L 267.00423 294.691204 
L 267.146222 294.510247 
L 267.266409 294.367179 
L 267.474593 294.093179 
L 267.515689 294.043154 
L 267.705633 293.719129 
L 267.802963 293.469309 
L 267.834178 293.395104 
L 267.802963 293.364303 
L 267.727768 293.395104 
L 267.474593 293.491151 
L 267.146222 293.678582 
L 267.095534 293.719129 
L 266.817852 293.924567 
L 266.672878 294.043154 
L 266.489482 294.183279 
L 266.269611 294.367179 
L 266.161111 294.452787 
L 265.882315 294.691204 
L 265.832741 294.731594 
L 265.508325 295.015229 
L 265.504371 295.018556 
L 265.176 295.312783 
L 265.147904 295.339254 
L 264.84763 295.614203 
L 264.79614 295.663279 
L 264.519259 295.922285 
L 264.451827 295.987304 
L 264.190889 296.236668 
L 264.114347 296.31133 
L 263.862519 296.557185 
L 263.783301 296.635355 
L 263.534148 296.88385 
L 263.458486 296.95938 
L 263.205778 297.216864 
L 263.139887 297.283405 
L 262.877408 297.556621 
L 262.827673 297.60743 
L 262.549037 297.90373 
L 262.522211 297.931455 
L 262.224038 298.25548 
L 262.220667 298.259382 
L 261.933228 298.579505 
L 261.892296 298.628423 
L 261.650682 298.90353 
L 261.563926 299.010594 
L 261.37756 299.227555 
L 261.235556 299.408524 
L 261.115378 299.55158 
L 260.907185 299.825587 
L 260.866094 299.875605 
L 260.676149 300.19963 
L 260.578815 300.449449 
L 260.547598 300.523655 
L 260.578815 300.554461 
" style="fill:none;stroke:#e41a1c;stroke-width:1.142857;"/>
   </g>
   <g id="LineCollection_3">
    <path clip-path="url(#p85ef071d62)" d="M 93.109925 483.168446 
L 93.766666 483.234476 
L 94.902313 482.949745 
L 96.393629 482.29468 
L 99.020592 481.137163 
L 103.289406 479.668382 
L 106.333958 478.413394 
L 113.797258 474.702828 
L 123.136665 469.340693 
L 126.932073 466.90264 
L 136.126444 460.414427 
L 143.022221 455.062327 
L 148.604518 450.410295 
L 155.171925 444.581612 
L 161.410962 438.682369 
L 167.700669 432.40184 
L 173.572906 426.245365 
L 178.197947 421.060965 
L 189.650814 407.544934 
L 193.658045 402.591538 
L 203.452017 389.630537 
L 210.821894 379.261736 
L 218.891922 367.27281 
L 224.351435 358.524135 
L 225.792948 356.255959 
L 226.512714 354.635834 
L 226.542119 354.311809 
L 226.428296 354.097286 
L 225.771555 354.568189 
L 223.978031 356.579984 
L 222.099718 358.84816 
L 219.860889 361.766832 
L 215.592074 367.794133 
L 209.89983 375.373436 
L 203.114 384.192709 
L 193.807556 395.787013 
L 186.367111 404.643125 
L 178.482502 413.608389 
L 171.891548 420.73694 
L 165.908193 426.893415 
L 160.260282 432.40184 
L 153.530073 438.645849 
L 146.962666 444.431662 
L 141.70874 448.77804 
L 134.151198 454.759567 
L 127.917184 459.356219 
L 121.021406 464.17216 
L 116.40686 467.072518 
L 104.931258 474.059857 
L 100.334073 476.578707 
L 97.37874 478.49245 
L 93.438295 481.226634 
L 92.99571 481.653644 
L 92.659629 482.301694 
L 92.781554 482.911008 
L 92.797348 482.949745 
L 93.109925 483.168446 
L 93.109925 483.168446 
" style="fill:none;stroke:#e41a1c;stroke-width:1.142857;"/>
   </g>
   <g id="patch_3">
    <path d="M 35.289375 525.1 
L 35.289375 266.15 
" style="fill:none;stroke:#000000;stroke-linecap:square;stroke-linejoin:miter;stroke-width:0.8;"/>
   </g>
   <g id="patch_4">
    <path d="M 297.712031 525.1 
L 297.712031 266.15 
" style="fill:none;stroke:#000000;stroke-linecap:square;stroke-linejoin:miter;stroke-width:0.8;"/>
   </g>
   <g id="patch_5">
    <path d="M 35.289375 525.1 
L 297.712031 525.1 
" style="fill:none;stroke:#000000;stroke-linecap:square;stroke-linejoin:miter;stroke-width:0.8;"/>
   </g>
   <g id="patch_6">
    <path d="M 35.289375 266.15 
L 297.712031 266.15 
" style="fill:none;stroke:#000000;stroke-linecap:square;stroke-linejoin:miter;stroke-width:0.8;"/>
   </g>
  </g>
  <g id="axes_2">
   <g id="patch_7">
    <path d="M 35.289375 266.15 
L 297.712031 266.15 
L 297.712031 7.2 
L 35.289375 7.2 
z
" style="fill:#ffffff;"/>
   </g>
   <g id="matplotlib.axis_3">
    <g id="xtick_6">
     <g id="line2d_21">
      <g>
       <use style="stroke:#000000;stroke-width:0.8;" x="45.600648" xlink:href="#m883d02055b" y="266.15"/>
      </g>
     </g>
    </g>
    <g id="xtick_7">
     <g id="line2d_22">
      <g>
       <use style="stroke:#000000;stroke-width:0.8;" x="101.745325" xlink:href="#m883d02055b" y="266.15"/>
      </g>
     </g>
    </g>
    <g id="xtick_8">
     <g id="line2d_23">
      <g>
       <use style="stroke:#000000;stroke-width:0.8;" x="157.890001" xlink:href="#m883d02055b" y="266.15"/>
      </g>
     </g>
    </g>
    <g id="xtick_9">
     <g id="line2d_24">
      <g>
       <use style="stroke:#000000;stroke-width:0.8;" x="214.034678" xlink:href="#m883d02055b" y="266.15"/>
      </g>
     </g>
    </g>
    <g id="xtick_10">
     <g id="line2d_25">
      <g>
       <use style="stroke:#000000;stroke-width:0.8;" x="270.179355" xlink:href="#m883d02055b" y="266.15"/>
      </g>
     </g>
    </g>
   </g>
   <g id="matplotlib.axis_4">
    <g id="ytick_6"/>
    <g id="ytick_7"/>
    <g id="ytick_8"/>
    <g id="ytick_9"/>
    <g id="ytick_10"/>
   </g>
   <g id="line2d_26">
    <path clip-path="url(#pe5ee7e2d0d)" d="M 35.212418 266.15 
L 51.527258 266.047941 
L 54.913357 265.825552 
L 57.068147 265.496044 
L 59.222937 264.975517 
L 61.0699 264.298949 
L 62.609036 263.487113 
L 64.148172 262.39377 
L 65.687307 260.974795 
L 66.918616 259.572443 
L 68.149925 257.888008 
L 69.381233 255.866374 
L 70.612542 253.500186 
L 72.151678 250.051449 
L 73.690814 245.983885 
L 75.229949 241.310597 
L 77.076912 234.886672 
L 78.923875 227.633627 
L 81.078665 218.264707 
L 83.84911 205.143854 
L 93.699579 157.263264 
L 96.470024 145.419447 
L 98.624814 137.119157 
L 100.16395 131.822285 
L 102.626567 123.332847 
L 105.089184 115.582403 
L 105.397011 115.051301 
L 109.090937 104.334794 
L 110.9379 99.237964 
L 114.016172 91.610794 
L 114.939653 89.331454 
L 115.247481 88.986392 
L 117.094444 84.534749 
L 117.402271 84.037189 
L 118.325752 81.813362 
L 120.172715 77.857715 
L 121.711851 74.336302 
L 123.558814 70.270413 
L 126.944913 63.520659 
L 130.946666 55.917027 
L 133.409283 51.767859 
L 134.948419 49.264139 
L 139.257999 42.89183 
L 142.028444 39.456887 
L 143.875407 37.416919 
L 146.953678 34.608896 
L 149.724123 32.772361 
L 151.571086 31.811885 
L 153.418049 31.115845 
L 154.957185 30.717541 
L 156.188493 30.528982 
L 158.035456 30.603511 
L 160.190246 30.884952 
L 161.729382 31.27911 
L 162.960691 31.786651 
L 165.731135 33.334092 
L 170.040715 36.827204 
L 172.81116 39.781586 
L 177.736395 46.361093 
L 180.814666 51.196707 
L 184.200765 57.036573 
L 189.126 66.327057 
L 197.129506 83.159467 
L 203.593876 97.822275 
L 205.748666 102.752996 
L 209.442592 111.602446 
L 217.138271 130.806087 
L 221.140025 142.133525 
L 224.218296 152.043853 
L 227.296568 162.74584 
L 230.067012 173.317014 
L 232.837457 184.635266 
L 233.145284 184.13104 
L 239.609654 209.093717 
L 242.380099 218.980369 
L 244.842716 226.932683 
L 246.997506 233.134462 
L 248.844469 237.875434 
L 250.691432 242.03809 
L 252.538395 245.701925 
L 254.385358 248.882561 
L 256.232321 251.643026 
L 258.079284 254.03795 
L 259.926247 256.103958 
L 262.081037 258.183291 
L 264.543654 260.149806 
L 266.698445 261.574444 
L 268.853235 262.728581 
L 271.008025 263.667563 
L 273.162815 264.425173 
L 275.625432 265.066955 
L 278.395877 265.543993 
L 281.781976 265.880474 
L 286.70721 266.081605 
L 295.326371 266.15 
L 297.788988 266.15 
L 297.788988 266.15 
" style="fill:none;stroke:#e41a1c;stroke-linecap:square;stroke-width:1.142857;"/>
   </g>
   <g id="patch_8">
    <path d="M 35.289375 266.15 
L 35.289375 7.2 
" style="fill:none;stroke:#000000;stroke-linecap:square;stroke-linejoin:miter;stroke-width:0.8;"/>
   </g>
   <g id="patch_9">
    <path d="M 297.712031 266.15 
L 297.712031 7.2 
" style="fill:none;stroke:#000000;stroke-linecap:square;stroke-linejoin:miter;stroke-width:0.8;"/>
   </g>
   <g id="patch_10">
    <path d="M 35.289375 266.15 
L 297.712031 266.15 
" style="fill:none;stroke:#000000;stroke-linecap:square;stroke-linejoin:miter;stroke-width:0.8;"/>
   </g>
   <g id="patch_11">
    <path d="M 35.289375 7.2 
L 297.712031 7.2 
" style="fill:none;stroke:#000000;stroke-linecap:square;stroke-linejoin:miter;stroke-width:0.8;"/>
   </g>
  </g>
  <g id="axes_3">
   <g id="patch_12">
    <path d="M 297.712031 525.1 
L 560.134687 525.1 
L 560.134687 266.15 
L 297.712031 266.15 
z
" style="fill:#ffffff;"/>
   </g>
   <g id="matplotlib.axis_5">
    <g id="xtick_11">
     <g id="line2d_27">
      <g>
       <use style="stroke:#000000;stroke-width:0.8;" x="332.008862" xlink:href="#m883d02055b" y="525.1"/>
      </g>
     </g>
     <g id="text_13">
      <!-- $\mathdefault{0}$ -->
      <g transform="translate(328.488862 536.958281)scale(0.11 -0.11)">
       <use transform="translate(0 0.78125)" xlink:href="#DejaVuSans-48"/>
      </g>
     </g>
    </g>
    <g id="xtick_12">
     <g id="line2d_28">
      <g>
       <use style="stroke:#000000;stroke-width:0.8;" x="385.597176" xlink:href="#m883d02055b" y="525.1"/>
      </g>
     </g>
     <g id="text_14">
      <!-- $\mathdefault{1}$ -->
      <g transform="translate(382.077176 536.958281)scale(0.11 -0.11)">
       <use transform="translate(0 0.09375)" xlink:href="#DejaVuSans-49"/>
      </g>
     </g>
    </g>
    <g id="xtick_13">
     <g id="line2d_29">
      <g>
       <use style="stroke:#000000;stroke-width:0.8;" x="439.18549" xlink:href="#m883d02055b" y="525.1"/>
      </g>
     </g>
     <g id="text_15">
      <!-- $\mathdefault{2}$ -->
      <g transform="translate(435.66549 536.958281)scale(0.11 -0.11)">
       <use transform="translate(0 0.78125)" xlink:href="#DejaVuSans-50"/>
      </g>
     </g>
    </g>
    <g id="xtick_14">
     <g id="line2d_30">
      <g>
       <use style="stroke:#000000;stroke-width:0.8;" x="492.773804" xlink:href="#m883d02055b" y="525.1"/>
      </g>
     </g>
     <g id="text_16">
      <!-- $\mathdefault{3}$ -->
      <g transform="translate(489.253804 536.958281)scale(0.11 -0.11)">
       <use transform="translate(0 0.78125)" xlink:href="#DejaVuSans-51"/>
      </g>
     </g>
    </g>
    <g id="xtick_15">
     <g id="line2d_31">
      <g>
       <use style="stroke:#000000;stroke-width:0.8;" x="546.362117" xlink:href="#m883d02055b" y="525.1"/>
      </g>
     </g>
     <g id="text_17">
      <!-- $\mathdefault{4}$ -->
      <g transform="translate(542.842117 536.958281)scale(0.11 -0.11)">
       <use transform="translate(0 0.09375)" xlink:href="#DejaVuSans-52"/>
      </g>
     </g>
    </g>
    <g id="text_18">
     <!-- Kunz -->
     <g transform="translate(412.136484 557.245937)scale(0.14 -0.14)">
      <use xlink:href="#DejaVuSans-75"/>
      <use x="60.576172" xlink:href="#DejaVuSans-117"/>
      <use x="123.955078" xlink:href="#DejaVuSans-110"/>
      <use x="187.333984" xlink:href="#DejaVuSans-122"/>
     </g>
    </g>
   </g>
   <g id="matplotlib.axis_6">
    <g id="ytick_11"/>
    <g id="ytick_12"/>
    <g id="ytick_13"/>
    <g id="ytick_14"/>
    <g id="ytick_15"/>
   </g>
   <g id="line2d_32">
    <path clip-path="url(#p3cdc57a47b)" d="M 297.635074 525.1 
L 310.871642 524.995377 
L 313.642087 524.728892 
L 315.48905 524.335694 
L 317.028186 523.792761 
L 318.259494 523.144207 
L 319.490803 522.236543 
L 320.722112 521.003324 
L 321.95342 519.366062 
L 322.876902 517.8053 
L 324.10821 515.213966 
L 325.339519 511.931285 
L 326.570828 507.858959 
L 327.802136 502.895308 
L 329.033445 496.968117 
L 330.264754 490.007587 
L 331.80389 479.823105 
L 333.343025 467.969408 
L 335.189988 451.782824 
L 337.344778 430.654496 
L 340.730877 394.866263 
L 343.809149 362.972981 
L 345.963939 342.988572 
L 347.503075 330.359393 
L 349.042211 319.434861 
L 350.581346 310.3395 
L 351.812655 304.336857 
L 353.043964 299.500649 
L 354.275272 295.71988 
L 355.198754 293.511981 
L 356.122235 291.845296 
L 357.353544 290.390981 
L 357.661371 290.109559 
L 357.969198 290.066644 
L 358.89268 289.609713 
L 359.508334 289.476706 
L 360.431816 289.633581 
L 361.355297 290.062479 
L 361.663124 290.672346 
L 362.586606 291.314839 
L 363.510087 292.169763 
L 364.125742 292.821983 
L 365.972705 295.432729 
L 366.588359 296.480103 
L 367.51184 297.925051 
L 368.743149 300.118733 
L 369.358803 301.183385 
L 369.974458 302.622644 
L 371.821421 305.932313 
L 373.052729 308.082351 
L 374.899692 311.323822 
L 379.209273 319.118336 
L 385.673643 331.065425 
L 389.983223 339.409192 
L 409.376335 378.121201 
L 418.303322 394.506453 
L 421.689421 400.45933 
L 424.767693 405.659694 
L 430.308582 414.908115 
L 435.233816 422.729453 
L 442.929495 434.28947 
L 449.393866 443.056273 
L 455.550409 450.782492 
L 461.399125 457.64296 
L 472.480903 470.28667 
L 473.712212 471.614901 
L 477.09831 475.226419 
L 477.713965 475.862072 
L 482.023545 481.009459 
L 487.564434 488.101453 
L 491.25836 493.332843 
L 495.875767 500.479958 
L 499.87752 506.865099 
L 500.185348 506.388814 
L 503.263619 510.436205 
L 505.726236 513.176079 
L 507.573199 514.899473 
L 509.112335 516.102683 
L 510.651471 517.086907 
L 512.498434 518.032275 
L 514.961051 518.935318 
L 516.808014 519.403585 
L 518.962804 519.735377 
L 521.425422 519.965882 
L 526.350656 520.391055 
L 528.813274 520.756782 
L 532.815027 521.690662 
L 533.738508 521.995156 
L 542.049842 524.171159 
L 545.128113 524.644486 
L 548.514212 524.921219 
L 553.439447 525.066452 
L 560.211644 525.1 
L 560.211644 525.1 
" style="fill:none;stroke:#e41a1c;stroke-linecap:square;stroke-width:1.142857;"/>
   </g>
   <g id="patch_13">
    <path d="M 297.712031 525.1 
L 297.712031 266.15 
" style="fill:none;stroke:#000000;stroke-linecap:square;stroke-linejoin:miter;stroke-width:0.8;"/>
   </g>
   <g id="patch_14">
    <path d="M 560.134687 525.1 
L 560.134687 266.15 
" style="fill:none;stroke:#000000;stroke-linecap:square;stroke-linejoin:miter;stroke-width:0.8;"/>
   </g>
   <g id="patch_15">
    <path d="M 297.712031 525.1 
L 560.134687 525.1 
" style="fill:none;stroke:#000000;stroke-linecap:square;stroke-linejoin:miter;stroke-width:0.8;"/>
   </g>
   <g id="patch_16">
    <path d="M 297.712031 266.15 
L 560.134687 266.15 
" style="fill:none;stroke:#000000;stroke-linecap:square;stroke-linejoin:miter;stroke-width:0.8;"/>
   </g>
  </g>
 </g>
 <defs>
  <clipPath id="p85ef071d62">
   <rect height="258.95" width="262.422656" x="35.289375" y="266.15"/>
  </clipPath>
  <clipPath id="pe5ee7e2d0d">
   <rect height="258.95" width="262.422656" x="35.289375" y="7.2"/>
  </clipPath>
  <clipPath id="p3cdc57a47b">
   <rect height="258.95" width="262.422656" x="297.712031" y="266.15"/>
  </clipPath>
 </defs>
</svg>
