<?xml version="1.0" encoding="utf-8" standalone="no"?>
<!DOCTYPE svg PUBLIC "-//W3C//DTD SVG 1.1//EN"
  "http://www.w3.org/Graphics/SVG/1.1/DTD/svg11.dtd">
<!-- Created with matplotlib (https://matplotlib.org/) -->
<svg height="567.3575pt" version="1.1" viewBox="0 0 567.358125 567.3575" width="567.358125pt" xmlns="http://www.w3.org/2000/svg" xmlns:xlink="http://www.w3.org/1999/xlink">
 <defs>
  <style type="text/css">
*{stroke-linecap:butt;stroke-linejoin:round;}
  </style>
 </defs>
 <g id="figure_1">
  <g id="patch_1">
   <path d="M 0 567.3575 
L 567.358125 567.3575 
L 567.358125 0 
L 0 0 
z
" style="fill:#ffffff;"/>
  </g>
  <g id="axes_1">
   <g id="patch_2">
    <path d="M 35.289375 525.1 
L 297.72375 525.1 
L 297.72375 266.15 
L 35.289375 266.15 
z
" style="fill:#ffffff;"/>
   </g>
   <g id="matplotlib.axis_1">
    <g id="xtick_1">
     <g id="line2d_1">
      <defs>
       <path d="M 0 0 
L 0 -3.5 
" id="m6487e28ccc" style="stroke:#000000;stroke-width:0.8;"/>
      </defs>
      <g>
       <use style="stroke:#000000;stroke-width:0.8;" x="95.615511" xlink:href="#m6487e28ccc" y="525.1"/>
      </g>
     </g>
     <g id="line2d_2">
      <defs>
       <path d="M 0 0 
L 0 3.5 
" id="m6e3bd4570c" style="stroke:#000000;stroke-width:0.8;"/>
      </defs>
      <g>
       <use style="stroke:#000000;stroke-width:0.8;" x="95.615511" xlink:href="#m6e3bd4570c" y="266.15"/>
      </g>
     </g>
     <g id="text_1">
      <!-- $\mathdefault{0.5}$ -->
      <defs>
       <path d="M 31.78125 66.40625 
Q 24.171875 66.40625 20.328125 58.90625 
Q 16.5 51.421875 16.5 36.375 
Q 16.5 21.390625 20.328125 13.890625 
Q 24.171875 6.390625 31.78125 6.390625 
Q 39.453125 6.390625 43.28125 13.890625 
Q 47.125 21.390625 47.125 36.375 
Q 47.125 51.421875 43.28125 58.90625 
Q 39.453125 66.40625 31.78125 66.40625 
z
M 31.78125 74.21875 
Q 44.046875 74.21875 50.515625 64.515625 
Q 56.984375 54.828125 56.984375 36.375 
Q 56.984375 17.96875 50.515625 8.265625 
Q 44.046875 -1.421875 31.78125 -1.421875 
Q 19.53125 -1.421875 13.0625 8.265625 
Q 6.59375 17.96875 6.59375 36.375 
Q 6.59375 54.828125 13.0625 64.515625 
Q 19.53125 74.21875 31.78125 74.21875 
z
" id="DejaVuSans-48"/>
       <path d="M 10.6875 12.40625 
L 21 12.40625 
L 21 0 
L 10.6875 0 
z
" id="DejaVuSans-46"/>
       <path d="M 10.796875 72.90625 
L 49.515625 72.90625 
L 49.515625 64.59375 
L 19.828125 64.59375 
L 19.828125 46.734375 
Q 21.96875 47.46875 24.109375 47.828125 
Q 26.265625 48.1875 28.421875 48.1875 
Q 40.625 48.1875 47.75 41.5 
Q 54.890625 34.8125 54.890625 23.390625 
Q 54.890625 11.625 47.5625 5.09375 
Q 40.234375 -1.421875 26.90625 -1.421875 
Q 22.3125 -1.421875 17.546875 -0.640625 
Q 12.796875 0.140625 7.71875 1.703125 
L 7.71875 11.625 
Q 12.109375 9.234375 16.796875 8.0625 
Q 21.484375 6.890625 26.703125 6.890625 
Q 35.15625 6.890625 40.078125 11.328125 
Q 45.015625 15.765625 45.015625 23.390625 
Q 45.015625 31 40.078125 35.4375 
Q 35.15625 39.890625 26.703125 39.890625 
Q 22.75 39.890625 18.8125 39.015625 
Q 14.890625 38.140625 10.796875 36.28125 
z
" id="DejaVuSans-53"/>
      </defs>
      <g transform="translate(86.815511 536.958281)scale(0.11 -0.11)">
       <use transform="translate(0 0.78125)" xlink:href="#DejaVuSans-48"/>
       <use transform="translate(63.623047 0.78125)" xlink:href="#DejaVuSans-46"/>
       <use transform="translate(95.410156 0.78125)" xlink:href="#DejaVuSans-53"/>
      </g>
     </g>
    </g>
    <g id="xtick_2">
     <g id="line2d_3">
      <g>
       <use style="stroke:#000000;stroke-width:0.8;" x="178.817347" xlink:href="#m6487e28ccc" y="525.1"/>
      </g>
     </g>
     <g id="line2d_4">
      <g>
       <use style="stroke:#000000;stroke-width:0.8;" x="178.817347" xlink:href="#m6e3bd4570c" y="266.15"/>
      </g>
     </g>
     <g id="text_2">
      <!-- $\mathdefault{1.0}$ -->
      <defs>
       <path d="M 12.40625 8.296875 
L 28.515625 8.296875 
L 28.515625 63.921875 
L 10.984375 60.40625 
L 10.984375 69.390625 
L 28.421875 72.90625 
L 38.28125 72.90625 
L 38.28125 8.296875 
L 54.390625 8.296875 
L 54.390625 0 
L 12.40625 0 
z
" id="DejaVuSans-49"/>
      </defs>
      <g transform="translate(170.017347 536.958281)scale(0.11 -0.11)">
       <use transform="translate(0 0.78125)" xlink:href="#DejaVuSans-49"/>
       <use transform="translate(63.623047 0.78125)" xlink:href="#DejaVuSans-46"/>
       <use transform="translate(95.410156 0.78125)" xlink:href="#DejaVuSans-48"/>
      </g>
     </g>
    </g>
    <g id="xtick_3">
     <g id="line2d_5">
      <g>
       <use style="stroke:#000000;stroke-width:0.8;" x="262.019183" xlink:href="#m6487e28ccc" y="525.1"/>
      </g>
     </g>
     <g id="line2d_6">
      <g>
       <use style="stroke:#000000;stroke-width:0.8;" x="262.019183" xlink:href="#m6e3bd4570c" y="266.15"/>
      </g>
     </g>
     <g id="text_3">
      <!-- $\mathdefault{1.5}$ -->
      <g transform="translate(253.219183 536.958281)scale(0.11 -0.11)">
       <use transform="translate(0 0.09375)" xlink:href="#DejaVuSans-49"/>
       <use transform="translate(63.623047 0.09375)" xlink:href="#DejaVuSans-46"/>
       <use transform="translate(95.410156 0.09375)" xlink:href="#DejaVuSans-53"/>
      </g>
     </g>
    </g>
    <g id="text_4">
     <!-- Hinz -->
     <defs>
      <path d="M 9.8125 72.90625 
L 19.671875 72.90625 
L 19.671875 43.015625 
L 55.515625 43.015625 
L 55.515625 72.90625 
L 65.375 72.90625 
L 65.375 0 
L 55.515625 0 
L 55.515625 34.71875 
L 19.671875 34.71875 
L 19.671875 0 
L 9.8125 0 
z
" id="DejaVuSans-72"/>
      <path d="M 9.421875 54.6875 
L 18.40625 54.6875 
L 18.40625 0 
L 9.421875 0 
z
M 9.421875 75.984375 
L 18.40625 75.984375 
L 18.40625 64.59375 
L 9.421875 64.59375 
z
" id="DejaVuSans-105"/>
      <path d="M 54.890625 33.015625 
L 54.890625 0 
L 45.90625 0 
L 45.90625 32.71875 
Q 45.90625 40.484375 42.875 44.328125 
Q 39.84375 48.1875 33.796875 48.1875 
Q 26.515625 48.1875 22.3125 43.546875 
Q 18.109375 38.921875 18.109375 30.90625 
L 18.109375 0 
L 9.078125 0 
L 9.078125 54.6875 
L 18.109375 54.6875 
L 18.109375 46.1875 
Q 21.34375 51.125 25.703125 53.5625 
Q 30.078125 56 35.796875 56 
Q 45.21875 56 50.046875 50.171875 
Q 54.890625 44.34375 54.890625 33.015625 
z
" id="DejaVuSans-110"/>
      <path d="M 5.515625 54.6875 
L 48.1875 54.6875 
L 48.1875 46.484375 
L 14.40625 7.171875 
L 48.1875 7.171875 
L 48.1875 0 
L 4.296875 0 
L 4.296875 8.203125 
L 38.09375 47.515625 
L 5.515625 47.515625 
z
" id="DejaVuSans-122"/>
     </defs>
     <g transform="translate(151.1875 557.245937)scale(0.14 -0.14)">
      <use xlink:href="#DejaVuSans-72"/>
      <use x="75.195312" xlink:href="#DejaVuSans-105"/>
      <use x="102.978516" xlink:href="#DejaVuSans-110"/>
      <use x="166.357422" xlink:href="#DejaVuSans-122"/>
     </g>
    </g>
   </g>
   <g id="matplotlib.axis_2">
    <g id="ytick_1">
     <g id="line2d_7">
      <defs>
       <path d="M 0 0 
L 3.5 0 
" id="m1df5d07c39" style="stroke:#000000;stroke-width:0.8;"/>
      </defs>
      <g>
       <use style="stroke:#000000;stroke-width:0.8;" x="35.289375" xlink:href="#m1df5d07c39" y="489.546164"/>
      </g>
     </g>
     <g id="line2d_8">
      <defs>
       <path d="M 0 0 
L -3.5 0 
" id="m14a400e012" style="stroke:#000000;stroke-width:0.8;"/>
      </defs>
      <g>
       <use style="stroke:#000000;stroke-width:0.8;" x="297.72375" xlink:href="#m14a400e012" y="489.546164"/>
      </g>
     </g>
     <g id="text_5">
      <!-- $\mathdefault{0}$ -->
      <g transform="translate(24.749375 493.725305)scale(0.11 -0.11)">
       <use transform="translate(0 0.78125)" xlink:href="#DejaVuSans-48"/>
      </g>
     </g>
    </g>
    <g id="ytick_2">
     <g id="line2d_9">
      <g>
       <use style="stroke:#000000;stroke-width:0.8;" x="35.289375" xlink:href="#m1df5d07c39" y="404.901707"/>
      </g>
     </g>
     <g id="line2d_10">
      <g>
       <use style="stroke:#000000;stroke-width:0.8;" x="297.72375" xlink:href="#m14a400e012" y="404.901707"/>
      </g>
     </g>
     <g id="text_6">
      <!-- $\mathdefault{1}$ -->
      <g transform="translate(24.749375 409.080848)scale(0.11 -0.11)">
       <use transform="translate(0 0.09375)" xlink:href="#DejaVuSans-49"/>
      </g>
     </g>
    </g>
    <g id="ytick_3">
     <g id="line2d_11">
      <g>
       <use style="stroke:#000000;stroke-width:0.8;" x="35.289375" xlink:href="#m1df5d07c39" y="320.257251"/>
      </g>
     </g>
     <g id="line2d_12">
      <g>
       <use style="stroke:#000000;stroke-width:0.8;" x="297.72375" xlink:href="#m14a400e012" y="320.257251"/>
      </g>
     </g>
     <g id="text_7">
      <!-- $\mathdefault{2}$ -->
      <defs>
       <path d="M 19.1875 8.296875 
L 53.609375 8.296875 
L 53.609375 0 
L 7.328125 0 
L 7.328125 8.296875 
Q 12.9375 14.109375 22.625 23.890625 
Q 32.328125 33.6875 34.8125 36.53125 
Q 39.546875 41.84375 41.421875 45.53125 
Q 43.3125 49.21875 43.3125 52.78125 
Q 43.3125 58.59375 39.234375 62.25 
Q 35.15625 65.921875 28.609375 65.921875 
Q 23.96875 65.921875 18.8125 64.3125 
Q 13.671875 62.703125 7.8125 59.421875 
L 7.8125 69.390625 
Q 13.765625 71.78125 18.9375 73 
Q 24.125 74.21875 28.421875 74.21875 
Q 39.75 74.21875 46.484375 68.546875 
Q 53.21875 62.890625 53.21875 53.421875 
Q 53.21875 48.921875 51.53125 44.890625 
Q 49.859375 40.875 45.40625 35.40625 
Q 44.1875 33.984375 37.640625 27.21875 
Q 31.109375 20.453125 19.1875 8.296875 
z
" id="DejaVuSans-50"/>
      </defs>
      <g transform="translate(24.749375 324.436391)scale(0.11 -0.11)">
       <use transform="translate(0 0.78125)" xlink:href="#DejaVuSans-50"/>
      </g>
     </g>
    </g>
    <g id="text_8">
     <!-- Kunz -->
     <defs>
      <path d="M 9.8125 72.90625 
L 19.671875 72.90625 
L 19.671875 42.09375 
L 52.390625 72.90625 
L 65.09375 72.90625 
L 28.90625 38.921875 
L 67.671875 0 
L 54.6875 0 
L 19.671875 35.109375 
L 19.671875 0 
L 9.8125 0 
z
" id="DejaVuSans-75"/>
      <path d="M 8.5 21.578125 
L 8.5 54.6875 
L 17.484375 54.6875 
L 17.484375 21.921875 
Q 17.484375 14.15625 20.5 10.265625 
Q 23.53125 6.390625 29.59375 6.390625 
Q 36.859375 6.390625 41.078125 11.03125 
Q 45.3125 15.671875 45.3125 23.6875 
L 45.3125 54.6875 
L 54.296875 54.6875 
L 54.296875 0 
L 45.3125 0 
L 45.3125 8.40625 
Q 42.046875 3.421875 37.71875 1 
Q 33.40625 -1.421875 27.6875 -1.421875 
Q 18.265625 -1.421875 13.375 4.4375 
Q 8.5 10.296875 8.5 21.578125 
z
M 31.109375 56 
z
" id="DejaVuSans-117"/>
     </defs>
     <g transform="translate(17.837813 412.411875)rotate(-90)scale(0.14 -0.14)">
      <use xlink:href="#DejaVuSans-75"/>
      <use x="60.576172" xlink:href="#DejaVuSans-117"/>
      <use x="123.955078" xlink:href="#DejaVuSans-110"/>
      <use x="187.333984" xlink:href="#DejaVuSans-122"/>
     </g>
    </g>
   </g>
   <g id="LineCollection_1">
    <path clip-path="url(#p09e39b5263)" d="M 66.184934 493.076437 
L 67.260259 492.34647 
L 69.140399 490.722503 
L 72.626925 487.486095 
L 77.536419 482.625719 
L 77.67841 482.23859 
L 77.330398 482.301694 
L 75.379715 483.657384 
L 73.08102 485.624872 
L 69.465543 489.10622 
L 66.75643 492.022445 
L 66.095692 492.99452 
L 66.184934 493.076437 
L 66.184934 493.076437 
" style="fill:none;stroke:#e41a1c;stroke-width:1.142857;"/>
    <path clip-path="url(#p09e39b5263)" d="M 88.515116 483.509955 
L 89.500271 482.932388 
L 91.530804 481.329619 
L 95.082817 478.720468 
L 95.42152 478.737419 
L 96.067972 478.345241 
L 105.991133 470.312769 
L 107.241376 469.340693 
L 108.039192 468.692643 
L 108.874989 468.151021 
L 108.874989 468.451717 
L 105.542467 472.580944 
L 105.435293 472.904969 
L 105.591138 473.008609 
L 106.396567 472.580944 
L 107.561448 471.851769 
L 110.188529 470.208871 
L 112.487224 468.963988 
L 113.800764 467.990352 
L 118.06977 464.527014 
L 118.149066 464.804343 
L 117.413 465.885457 
L 114.688424 469.340693 
L 114.551241 469.664718 
L 114.785919 469.781416 
L 115.771074 469.138533 
L 118.72654 466.586952 
L 124.63747 461.34619 
L 128.578091 457.968375 
L 129.563246 457.310994 
L 129.928159 457.351767 
L 130.220016 457.448117 
L 131.533556 456.510584 
L 138.758027 450.089808 
L 142.370262 447.223685 
L 146.310883 443.689765 
L 150.983667 439.530391 
L 159.163228 432.725865 
L 160.103054 431.890964 
L 166.99914 425.52929 
L 175.537151 417.295721 
L 175.702997 417.496689 
L 174.223611 419.178642 
L 170.28299 423.027417 
L 164.855065 428.51354 
L 163.05852 430.81942 
L 161.823133 432.40184 
L 158.981098 435.642091 
L 159.117899 435.809039 
L 160.431439 434.781935 
L 165.486067 430.45769 
L 166.367578 429.485615 
L 166.333284 428.837565 
L 171.268146 423.648043 
L 181.776467 413.460973 
L 185.101543 410.044114 
L 187.359012 407.372374 
L 191.678491 402.267513 
L 192.142355 401.619463 
L 191.956403 401.45355 
L 190.314478 402.712067 
L 189.000938 403.707668 
L 188.801667 403.563613 
L 189.257493 402.915563 
L 192.944474 398.703238 
L 198.195719 393.251473 
L 202.939142 388.334437 
L 206.076959 384.623937 
L 206.584101 383.798087 
L 206.66235 383.474062 
L 206.591945 383.150036 
L 206.733729 382.782914 
L 208.253548 380.881861 
L 210.023987 378.937711 
L 220.054345 368.244885 
L 224.162334 363.38451 
L 227.750372 359.146823 
L 228.735527 357.79267 
L 229.392297 356.666624 
L 231.034222 353.906099 
L 235.886078 347.831309 
L 236.327562 346.859234 
L 236.862023 345.887158 
L 241.419772 340.054708 
L 244.184889 335.842383 
L 245.256813 334.222258 
L 246.000012 332.926157 
L 247.471367 330.982007 
L 248.767014 329.264449 
L 249.055304 328.713832 
L 248.436901 328.713832 
L 248.438629 328.706015 
L 248.715205 328.065782 
L 250.196921 326.121632 
L 252.064564 323.853457 
L 257.409625 317.372956 
L 259.275335 314.333741 
L 261.148327 311.540506 
L 261.464933 310.892456 
L 261.57687 310.244406 
L 262.207993 308.948306 
L 263.976972 306.68013 
L 265.843036 304.408254 
L 266.765425 303.115855 
L 267.156576 302.081079 
L 266.828191 301.910073 
L 265.817414 301.819755 
L 265.514651 301.448945 
L 265.186266 301.38251 
L 264.529496 301.631813 
L 262.887571 302.652689 
L 262.745361 302.467805 
L 264.857881 300.14857 
L 267.19484 297.60743 
L 269.880863 294.367179 
L 270.158596 293.719129 
L 270.112042 293.673193 
L 269.332269 294.043154 
L 268.446446 294.691204 
L 267.156576 295.729722 
L 260.26049 302.168427 
L 255.991485 306.549824 
L 254.414964 308.300255 
L 251.50822 311.864531 
L 250.01399 313.484656 
L 245.811549 317.515031 
L 239.572233 323.75173 
L 237.369578 326.121632 
L 234.974843 329.24122 
L 234.770471 329.685907 
L 234.594627 330.333957 
L 233.69445 331.630057 
L 230.210012 336.166408 
L 230.078149 336.490433 
L 230.049067 337.159659 
L 228.735527 338.835476 
L 221.837962 346.535209 
L 215.92851 353.086544 
L 207.916911 360.79231 
L 207.639456 361.116335 
L 207.718885 361.371743 
L 209.689195 360.430893 
L 209.846708 360.468285 
L 209.689195 361.001669 
L 209.36081 361.470894 
L 206.479314 364.68061 
L 199.837644 371.255432 
L 197.429647 373.753311 
L 195.747508 375.697461 
L 193.458196 378.613686 
L 192.607565 379.585761 
L 187.030627 385.126095 
L 172.845958 398.703238 
L 166.881301 405.183738 
L 161.744979 411.268667 
L 161.088209 412.046131 
L 158.0843 415.552539 
L 146.967653 425.356599 
L 145.325728 426.656584 
L 142.041877 429.186132 
L 141.855918 429.16159 
L 142.333565 428.51354 
L 145.359588 424.949265 
L 145.654113 424.265698 
L 144.564557 424.949265 
L 143.027032 426.252387 
L 140.232439 428.837565 
L 137.352213 431.75379 
L 134.796065 434.670016 
L 134.379948 435.318066 
L 134.489021 435.669715 
L 134.617425 435.966116 
L 131.533556 438.961393 
L 128.249706 441.94735 
L 126.12271 443.742716 
L 123.499101 445.686867 
L 123.281565 445.686867 
L 123.9807 444.432418 
L 124.116352 444.066741 
L 123.9807 443.939825 
L 123.32393 444.257463 
L 121.025235 446.046721 
L 115.370298 450.871267 
L 111.456477 453.787492 
L 109.203374 455.473729 
L 102.964058 460.707672 
L 99.166114 463.832268 
L 94.754432 467.416061 
L 86.873191 474.012053 
L 81.728216 478.737419 
L 79.205085 481.329619 
L 79.320335 481.434692 
L 79.745117 481.329619 
L 81.290646 480.333816 
L 85.231266 477.306739 
L 93.112507 470.932055 
L 97.213378 467.720568 
L 100.336978 465.290476 
L 102.964058 463.198587 
L 102.964058 463.588312 
L 96.396357 471.293355 
L 95.88191 472.256919 
L 95.411202 473.44044 
L 94.754432 474.35646 
L 91.071004 479.061444 
L 88.367296 483.27377 
L 88.515116 483.509955 
L 88.515116 483.509955 
" style="fill:none;stroke:#e41a1c;stroke-width:1.142857;"/>
    <path clip-path="url(#p09e39b5263)" d="M 103.292443 463.21132 
L 103.003084 463.184218 
L 103.292443 463.093752 
L 103.31591 463.184218 
L 103.292443 463.21132 
" style="fill:none;stroke:#e41a1c;stroke-width:1.142857;"/>
    <path clip-path="url(#p09e39b5263)" d="M 144.668958 448.08166 
L 145.382663 447.631017 
L 147.296038 445.992172 
L 150.271759 443.094666 
L 154.192124 438.906046 
L 155.897104 436.938191 
L 156.329867 436.290141 
L 156.162434 436.127018 
L 154.520509 437.437412 
L 147.933491 443.742716 
L 145.575006 446.334917 
L 144.610205 447.631017 
L 144.473357 447.955042 
L 144.668958 448.08166 
L 144.668958 448.08166 
" style="fill:none;stroke:#e41a1c;stroke-width:1.142857;"/>
    <path clip-path="url(#p09e39b5263)" d="M 156.490819 435.996591 
L 156.507362 435.966116 
L 156.490819 435.945411 
L 156.460647 435.966116 
L 156.490819 435.996591 
" style="fill:none;stroke:#e41a1c;stroke-width:1.142857;"/>
    <path clip-path="url(#p09e39b5263)" d="M 158.789514 436.0299 
L 158.885834 435.966116 
L 158.789514 435.895464 
L 158.734262 435.966116 
L 158.789514 436.0299 
" style="fill:none;stroke:#e41a1c;stroke-width:1.142857;"/>
    <path clip-path="url(#p09e39b5263)" d="M 134.817406 435.707162 
L 134.552182 435.642091 
L 134.817406 435.568725 
L 134.879403 435.642091 
L 134.817406 435.707162 
" style="fill:none;stroke:#e41a1c;stroke-width:1.142857;"/>
    <path clip-path="url(#p09e39b5263)" d="M 175.865536 417.290429 
L 175.708734 417.172664 
L 175.865536 417.054842 
L 175.956712 417.172664 
L 175.865536 417.290429 
" style="fill:none;stroke:#e41a1c;stroke-width:1.142857;"/>
    <path clip-path="url(#p09e39b5263)" d="M 176.193921 416.864342 
L 176.170809 416.848639 
L 176.193921 416.832106 
L 176.206052 416.848639 
L 176.193921 416.864342 
" style="fill:none;stroke:#e41a1c;stroke-width:1.142857;"/>
    <path clip-path="url(#p09e39b5263)" d="M 188.672552 403.892761 
L 188.665246 403.887638 
L 188.672552 403.871619 
L 188.681177 403.887638 
L 188.672552 403.892761 
" style="fill:none;stroke:#e41a1c;stroke-width:1.142857;"/>
    <path clip-path="url(#p09e39b5263)" d="M 192.284788 401.348759 
L 192.318385 401.295438 
L 192.284788 401.269404 
L 192.239905 401.295438 
L 192.284788 401.348759 
" style="fill:none;stroke:#e41a1c;stroke-width:1.142857;"/>
    <path clip-path="url(#p09e39b5263)" d="M 176.193921 397.502462 
L 176.047628 397.407138 
L 176.193921 397.194199 
L 176.302878 397.407138 
L 176.193921 397.502462 
" style="fill:none;stroke:#e41a1c;stroke-width:1.142857;"/>
    <path clip-path="url(#p09e39b5263)" d="M 176.522306 397.216677 
L 176.282502 397.083113 
L 176.511407 396.759088 
L 176.522306 396.744994 
L 176.790099 396.435063 
L 176.850691 396.35625 
L 177.067655 396.111038 
L 177.179076 395.966844 
L 177.334253 395.787013 
L 177.507461 395.559334 
L 177.598407 395.462987 
L 177.835846 395.178063 
L 177.873769 395.138962 
L 178.139795 394.814937 
L 178.164231 394.782348 
L 178.403133 394.490912 
L 178.492616 394.371784 
L 178.672775 394.166887 
L 178.821001 394.010446 
L 178.984482 393.842862 
L 179.149386 393.643726 
L 179.280873 393.518837 
L 179.477771 393.312502 
L 179.592734 393.194812 
L 179.806156 392.959285 
L 179.896504 392.870787 
L 180.134542 392.619477 
L 180.21358 392.546762 
L 180.462927 392.293104 
L 180.538786 392.222737 
L 180.791312 391.979629 
L 180.887353 391.898712 
L 181.119697 391.684171 
L 181.30675 391.574687 
L 181.448082 391.478661 
L 181.573474 391.574687 
L 181.469029 391.898712 
L 181.448082 391.935236 
L 181.246736 392.222737 
L 181.119697 392.366137 
L 180.95519 392.546762 
L 180.791312 392.76695 
L 180.704183 392.870787 
L 180.463929 393.194812 
L 180.462927 393.195928 
L 180.170378 393.518837 
L 180.134542 393.559943 
L 179.869804 393.842862 
L 179.806156 393.914518 
L 179.580257 394.166887 
L 179.477771 394.276357 
L 179.270043 394.490912 
L 179.149386 394.616974 
L 178.956421 394.814937 
L 178.821001 394.95692 
L 178.651668 395.138962 
L 178.492616 395.316223 
L 178.342504 395.462987 
L 178.164231 395.645532 
L 178.034713 395.787013 
L 177.835846 396.000148 
L 177.716257 396.111038 
L 177.507461 396.305069 
L 177.365917 396.435063 
L 177.179076 396.608435 
L 177.018993 396.759088 
L 176.850691 396.920941 
L 176.668971 397.083113 
L 176.522306 397.216677 
" style="fill:none;stroke:#e41a1c;stroke-width:1.142857;"/>
    <path clip-path="url(#p09e39b5263)" d="M 182.104852 391.145804 
L 181.978849 390.926637 
L 182.104852 390.628109 
L 182.200716 390.926637 
L 182.104852 391.145804 
" style="fill:none;stroke:#e41a1c;stroke-width:1.142857;"/>
    <path clip-path="url(#p09e39b5263)" d="M 207.3905 361.464555 
L 207.49406 361.44036 
L 207.3905 361.428052 
L 207.379724 361.44036 
L 207.3905 361.464555 
" style="fill:none;stroke:#e41a1c;stroke-width:1.142857;"/>
    <path clip-path="url(#p09e39b5263)" d="M 262.230801 303.120754 
L 262.223995 303.115855 
L 262.230801 303.107799 
L 262.238853 303.115855 
L 262.230801 303.120754 
" style="fill:none;stroke:#e41a1c;stroke-width:1.142857;"/>
    <path clip-path="url(#p09e39b5263)" d="M 262.559186 302.871184 
L 262.477899 302.79183 
L 262.559186 302.696456 
L 262.697267 302.79183 
L 262.559186 302.871184 
" style="fill:none;stroke:#e41a1c;stroke-width:1.142857;"/>
   </g>
   <g id="LineCollection_2">
    <path clip-path="url(#p09e39b5263)" d="M 91.798967 480.145739 
L 92.784122 479.523918 
L 95.841586 477.117294 
L 101.322133 472.854806 
L 104.434762 470.636794 
L 110.516914 465.987435 
L 112.158839 464.744784 
L 112.815609 464.382646 
L 112.958386 464.480318 
L 112.573872 465.128368 
L 109.4841 469.016668 
L 109.531759 469.239213 
L 110.188529 468.957112 
L 111.830454 467.865296 
L 115.771074 465.094892 
L 117.741385 463.622179 
L 124.309085 458.021721 
L 124.309085 458.458986 
L 123.277007 460.267993 
L 123.32393 460.604484 
L 123.345637 460.592018 
L 123.99297 460.267993 
L 134.817406 451.902413 
L 136.459332 450.837312 
L 140.24328 447.631017 
L 144.668958 444.169483 
L 146.967653 442.319785 
L 163.734574 427.541465 
L 167.768112 423.97719 
L 171.268146 420.620197 
L 178.201278 413.608389 
L 189.000938 402.148006 
L 191.628018 399.314197 
L 195.240253 395.709229 
L 200.916396 389.954562 
L 202.848469 387.686387 
L 203.15258 387.038337 
L 203.056378 387.038337 
L 202.136339 387.499226 
L 201.807954 387.718382 
L 201.472405 387.686387 
L 201.479569 387.677683 
L 203.890677 384.770162 
L 209.689195 378.459027 
L 213.037664 374.725386 
L 216.585281 370.644248 
L 220.854286 365.966751 
L 222.167826 364.268868 
L 223.152981 362.680444 
L 223.774024 361.44036 
L 224.156577 360.468285 
L 225.780062 358.471901 
L 229.925714 353.663759 
L 230.377452 353.010996 
L 230.034922 353.015709 
L 228.407142 354.104007 
L 228.27134 353.987784 
L 230.049067 351.923211 
L 232.575775 349.127409 
L 235.303228 345.866433 
L 237.601923 342.909791 
L 239.335363 340.702758 
L 241.608285 337.462508 
L 241.870928 336.458683 
L 242.106284 335.842383 
L 244.550958 331.954082 
L 248.26931 327.093707 
L 248.427118 326.769682 
L 248.460642 326.121632 
L 249.17994 325.149557 
L 250.408939 323.743966 
L 252.578229 321.261257 
L 256.253434 316.400881 
L 256.716214 315.428806 
L 256.648255 315.303979 
L 256.129542 315.428806 
L 255.334715 315.865694 
L 255.00633 316.08177 
L 254.616759 316.076856 
L 255.040076 315.428806 
L 257.32719 312.836606 
L 263.548922 306.03208 
L 264.108355 305.060005 
L 263.872726 304.860923 
L 262.887571 304.963601 
L 262.774602 304.73598 
L 262.887571 303.74336 
L 262.514732 303.763905 
L 261.46106 304.411955 
L 259.60372 305.802221 
L 258.29018 306.836837 
L 258.096083 306.68013 
L 259.734943 305.060005 
L 260.681757 304.08793 
L 263.544341 301.17155 
L 266.576536 297.931455 
L 268.141731 295.898558 
L 268.24921 295.663279 
L 268.141731 295.557229 
L 267.385186 295.987304 
L 266.156379 296.95938 
L 264.201111 298.656623 
L 258.94695 303.776054 
L 255.991485 306.922379 
L 254.825969 308.300255 
L 253.69279 310.016811 
L 253.364405 310.594208 
L 252.50329 311.540506 
L 250.737324 313.20958 
L 240.396163 323.205407 
L 237.273538 326.817096 
L 236.88167 327.417732 
L 236.817277 327.741757 
L 236.945153 327.881856 
L 237.307635 328.065782 
L 235.959998 329.815491 
L 233.587527 332.602132 
L 232.715989 333.898233 
L 232.676147 334.266981 
L 232.676147 334.683714 
L 232.347762 335.260674 
L 230.705837 337.239706 
L 225.780062 342.687926 
L 224.138136 344.707891 
L 221.176203 348.479359 
L 217.052421 353.339734 
L 214.698691 357.228034 
L 212.606481 359.820235 
L 209.296099 363.38451 
L 206.076959 366.727855 
L 204.033151 369.21696 
L 203.121494 370.292834 
L 199.509259 374.048825 
L 191.278686 382.501986 
L 187.687397 386.720995 
L 183.98036 390.926637 
L 179.806156 395.338073 
L 178.164231 397.183937 
L 177.545428 398.055188 
L 177.507461 398.487385 
L 177.179076 399.059183 
L 175.865536 400.511437 
L 173.655783 402.591538 
L 170.28299 405.393984 
L 165.909643 409.396064 
L 163.71529 411.387033 
L 154.470928 419.764864 
L 146.853614 426.56939 
L 144.668958 428.538399 
L 144.012188 429.000914 
L 142.698647 429.563772 
L 141.713492 430.25103 
L 139.414797 432.179554 
L 128.578091 442.125832 
L 118.06977 451.076533 
L 117.953192 450.871267 
L 119.711695 448.897812 
L 121.025235 447.295067 
L 121.35362 446.61458 
L 120.643442 446.982967 
L 118.72654 448.551478 
L 113.78372 453.139442 
L 110.516914 456.506677 
L 107.14871 459.943968 
L 103.292443 463.865111 
L 100.328581 467.072518 
L 98.766558 469.016668 
L 98.253383 469.988743 
L 98.172741 470.960819 
L 97.639048 471.932894 
L 96.067972 473.983154 
L 92.581348 478.413394 
L 91.70922 479.709494 
L 91.588043 480.033519 
L 91.798967 480.145739 
L 91.798967 480.145739 
" style="fill:none;stroke:#e41a1c;stroke-width:1.142857;"/>
    <path clip-path="url(#p09e39b5263)" d="M 100.665363 463.834997 
L 100.678451 463.832268 
L 100.665363 463.830794 
L 100.663834 463.832268 
L 100.665363 463.834997 
" style="fill:none;stroke:#e41a1c;stroke-width:1.142857;"/>
    <path clip-path="url(#p09e39b5263)" d="M 100.993748 463.721673 
L 101.322133 463.561274 
L 101.39538 463.508243 
L 101.650518 463.31166 
L 101.828474 463.184218 
L 101.978903 463.067024 
L 102.271328 462.860193 
L 102.307288 462.831771 
L 102.635673 462.572835 
L 102.680413 462.536168 
L 102.964058 462.29853 
L 103.068725 462.212143 
L 103.292443 462.021195 
L 103.453008 461.888118 
L 103.620828 461.742138 
L 103.834471 461.564093 
L 103.949213 461.462063 
L 104.213682 461.240068 
L 104.277598 461.181737 
L 104.592754 460.916043 
L 104.605983 460.903602 
L 104.934368 460.614057 
L 104.959775 460.592018 
L 105.262753 460.316486 
L 105.31877 460.267993 
L 105.591138 460.0155 
L 105.672607 459.943968 
L 105.919523 459.708792 
L 106.01976 459.619943 
L 106.247908 459.396133 
L 106.359612 459.295918 
L 106.576293 459.075586 
L 106.690069 458.971893 
L 106.904678 458.743594 
L 107.007503 458.647868 
L 107.233063 458.393127 
L 107.305299 458.323843 
L 107.561448 458.009435 
L 107.571033 457.999818 
L 107.561448 457.980046 
L 107.233063 457.993555 
L 107.224109 457.999818 
L 106.904678 458.236789 
L 106.779074 458.323843 
L 106.576293 458.476104 
L 106.324815 458.647868 
L 106.247908 458.706374 
L 105.919523 458.948334 
L 105.890956 458.971893 
L 105.591138 459.222113 
L 105.501985 459.295918 
L 105.262753 459.499009 
L 105.117439 459.619943 
L 104.934368 459.77834 
L 104.736473 459.943968 
L 104.605983 460.059284 
L 104.357011 460.267993 
L 104.277598 460.339736 
L 103.98026 460.592018 
L 103.949213 460.620919 
L 103.620828 460.907106 
L 103.610727 460.916043 
L 103.292443 461.207093 
L 103.255237 461.240068 
L 102.964058 461.510673 
L 102.903802 461.564093 
L 102.635673 461.817735 
L 102.556962 461.888118 
L 102.307288 462.129756 
L 102.215617 462.212143 
L 101.978903 462.446946 
L 101.88039 462.536168 
L 101.650518 462.771146 
L 101.553052 462.860193 
L 101.322133 463.105115 
L 101.236389 463.184218 
L 100.993748 463.454147 
L 100.936215 463.508243 
L 100.993748 463.721673 
" style="fill:none;stroke:#e41a1c;stroke-width:1.142857;"/>
    <path clip-path="url(#p09e39b5263)" d="M 116.756229 452.193814 
L 116.734878 452.167367 
L 116.756229 452.132024 
L 116.785783 452.167367 
L 116.756229 452.193814 
" style="fill:none;stroke:#e41a1c;stroke-width:1.142857;"/>
    <path clip-path="url(#p09e39b5263)" d="M 117.084615 451.937419 
L 116.974213 451.843342 
L 117.084615 451.742362 
L 117.229429 451.843342 
L 117.084615 451.937419 
" style="fill:none;stroke:#e41a1c;stroke-width:1.142857;"/>
    <path clip-path="url(#p09e39b5263)" d="M 117.413 451.661808 
L 117.311014 451.519317 
L 117.413 451.421834 
L 117.573976 451.519317 
L 117.413 451.661808 
" style="fill:none;stroke:#e41a1c;stroke-width:1.142857;"/>
    <path clip-path="url(#p09e39b5263)" d="M 117.741385 451.360731 
L 117.636871 451.195292 
L 117.741385 451.091173 
L 117.937722 451.195292 
L 117.741385 451.360731 
" style="fill:none;stroke:#e41a1c;stroke-width:1.142857;"/>
    <path clip-path="url(#p09e39b5263)" d="M 138.758027 431.147709 
L 138.808535 431.10574 
L 138.758027 431.069253 
L 138.725628 431.10574 
L 138.758027 431.147709 
" style="fill:none;stroke:#e41a1c;stroke-width:1.142857;"/>
    <path clip-path="url(#p09e39b5263)" d="M 139.086412 430.880451 
L 139.199632 430.781715 
L 139.086412 430.697882 
L 139.009478 430.781715 
L 139.086412 430.880451 
" style="fill:none;stroke:#e41a1c;stroke-width:1.142857;"/>
    <path clip-path="url(#p09e39b5263)" d="M 139.414797 430.596633 
L 139.566854 430.45769 
L 139.414797 430.342849 
L 139.305637 430.45769 
L 139.414797 430.596633 
" style="fill:none;stroke:#e41a1c;stroke-width:1.142857;"/>
    <path clip-path="url(#p09e39b5263)" d="M 139.743182 430.295482 
L 139.908382 430.133665 
L 139.743182 430.003546 
L 139.615633 430.133665 
L 139.743182 430.295482 
" style="fill:none;stroke:#e41a1c;stroke-width:1.142857;"/>
    <path clip-path="url(#p09e39b5263)" d="M 140.071567 429.976594 
L 140.239261 429.80964 
L 140.071567 429.675753 
L 139.935832 429.80964 
L 140.071567 429.976594 
" style="fill:none;stroke:#e41a1c;stroke-width:1.142857;"/>
    <path clip-path="url(#p09e39b5263)" d="M 140.399952 429.646326 
L 140.554519 429.485615 
L 140.399952 429.360652 
L 140.268914 429.485615 
L 140.399952 429.646326 
" style="fill:none;stroke:#e41a1c;stroke-width:1.142857;"/>
    <path clip-path="url(#p09e39b5263)" d="M 140.728337 429.299218 
L 140.855156 429.16159 
L 140.728337 429.057865 
L 140.615819 429.16159 
L 140.728337 429.299218 
" style="fill:none;stroke:#e41a1c;stroke-width:1.142857;"/>
    <path clip-path="url(#p09e39b5263)" d="M 141.056722 428.933649 
L 141.141591 428.837565 
L 141.056722 428.767401 
L 140.977974 428.837565 
L 141.056722 428.933649 
" style="fill:none;stroke:#e41a1c;stroke-width:1.142857;"/>
    <path clip-path="url(#p09e39b5263)" d="M 141.385107 428.547303 
L 141.413704 428.51354 
L 141.385107 428.489661 
L 141.357373 428.51354 
L 141.385107 428.547303 
" style="fill:none;stroke:#e41a1c;stroke-width:1.142857;"/>
    <path clip-path="url(#p09e39b5263)" d="M 228.078757 354.352373 
L 228.025022 354.311809 
L 228.078757 354.238648 
L 228.140447 354.311809 
L 228.078757 354.352373 
" style="fill:none;stroke:#e41a1c;stroke-width:1.142857;"/>
    <path clip-path="url(#p09e39b5263)" d="M 257.305025 307.666746 
L 257.215347 307.652205 
L 257.305025 307.574727 
L 257.323922 307.652205 
L 257.305025 307.666746 
" style="fill:none;stroke:#e41a1c;stroke-width:1.142857;"/>
    <path clip-path="url(#p09e39b5263)" d="M 257.63341 307.378977 
L 257.472837 307.32818 
L 257.63341 307.183904 
L 257.701321 307.32818 
L 257.63341 307.378977 
" style="fill:none;stroke:#e41a1c;stroke-width:1.142857;"/>
    <path clip-path="url(#p09e39b5263)" d="M 257.961795 307.101338 
L 257.775022 307.004155 
L 257.961795 306.835275 
L 258.097618 307.004155 
L 257.961795 307.101338 
" style="fill:none;stroke:#e41a1c;stroke-width:1.142857;"/>
   </g>
   <g id="LineCollection_3">
    <path clip-path="url(#p09e39b5263)" d="M 103.620828 465.213549 
L 103.949213 465.236138 
L 104.292569 465.128368 
L 106.247908 463.877805 
L 106.674853 463.832268 
L 107.235792 463.832268 
L 108.546604 463.124955 
L 111.502069 461.208964 
L 111.550793 461.240068 
L 111.502069 461.616538 
L 110.845299 462.685248 
L 109.771306 464.156293 
L 109.318099 464.804343 
L 109.531759 464.929197 
L 110.234195 464.480318 
L 111.830454 463.317292 
L 112.85551 462.536168 
L 115.879566 459.943968 
L 116.756229 459.201262 
L 117.413 458.86864 
L 118.398155 458.954898 
L 119.38331 458.541927 
L 120.04008 458.251944 
L 120.171088 458.323843 
L 120.04008 458.686897 
L 119.151269 459.943968 
L 119.38331 460.107931 
L 121.35362 458.480271 
L 128.906476 451.771709 
L 130.548401 450.479147 
L 132.847096 448.815088 
L 133.863448 448.279067 
L 135.802562 447.544748 
L 137.000018 446.658942 
L 138.429642 445.447274 
L 141.713492 442.446216 
L 145.982498 438.685624 
L 146.310883 438.469815 
L 146.52239 438.558316 
L 145.982498 439.343667 
L 144.90767 440.502466 
L 143.309637 442.122591 
L 141.628373 444.066741 
L 141.713492 444.234207 
L 142.479647 443.742716 
L 144.442028 442.122591 
L 159.774669 427.680191 
L 163.05852 424.505939 
L 168.130284 419.764864 
L 170.28299 417.675125 
L 179.806156 408.418816 
L 180.462927 407.995913 
L 180.791312 408.028171 
L 181.129507 407.775938 
L 181.172418 407.451913 
L 185.396551 402.591538 
L 192.181036 395.462987 
L 192.432359 395.138962 
L 192.284788 394.85304 
L 191.896248 394.814937 
L 192.755095 393.518837 
L 196.559146 388.658462 
L 197.867333 387.473636 
L 202.5489 383.474062 
L 205.748574 380.372043 
L 209.689195 376.209883 
L 213.991273 371.485136 
L 214.229126 371.161111 
L 213.9582 371.029315 
L 212.092412 372.457211 
L 210.345965 373.787527 
L 210.119106 373.753311 
L 210.696598 372.781236 
L 212.64466 370.660515 
L 215.27174 367.879387 
L 218.555591 364.34625 
L 218.751808 364.03256 
L 218.555591 363.831649 
L 217.898821 364.112053 
L 217.63796 364.03256 
L 218.227206 363.263389 
L 221.42672 359.820235 
L 224.966859 355.931934 
L 226.151526 354.311809 
L 227.093602 352.974326 
L 229.286352 350.423509 
L 233.917559 345.239108 
L 234.381128 344.591058 
L 234.318073 344.391788 
L 233.661302 344.75999 
L 232.347762 345.652779 
L 232.235582 345.563133 
L 233.004532 344.493833 
L 234.765807 342.322883 
L 235.643773 341.026783 
L 236.005115 340.054708 
L 236.737698 339.082633 
L 240.500051 334.870308 
L 240.70672 334.546283 
L 240.557388 334.352042 
L 239.407497 334.870308 
L 239.352658 334.546283 
L 239.715488 333.898233 
L 241.647476 331.630057 
L 248.962434 323.529432 
L 249.926946 322.233332 
L 250.080554 321.865432 
L 249.752169 321.94774 
L 248.438629 322.912929 
L 246.468319 324.378578 
L 246.339315 324.177482 
L 247.125089 323.096025 
L 252.456736 316.400881 
L 252.37925 316.12391 
L 251.394094 316.830684 
L 241.059596 325.797607 
L 239.243168 327.741757 
L 238.571794 328.713832 
L 237.569936 330.982007 
L 236.150002 332.926157 
L 236.288383 333.046493 
L 237.601923 332.475866 
L 238.915463 331.893156 
L 238.915463 332.056857 
L 238.587078 332.639276 
L 236.288383 335.301253 
L 233.989688 337.596653 
L 231.657846 339.730683 
L 226.263512 344.591058 
L 224.226122 346.859234 
L 223.65709 347.831309 
L 223.481366 348.569098 
L 222.824596 349.557913 
L 219.869131 353.743426 
L 219.212361 354.806145 
L 214.916325 360.468285 
L 211.98789 363.516524 
L 207.482335 368.244885 
L 200.699957 376.021486 
L 199.784087 377.317586 
L 198.808362 378.937711 
L 197.210563 380.978921 
L 193.598328 385.188766 
L 190.821209 388.010412 
L 187.030627 391.635865 
L 181.119697 397.101337 
L 178.164231 399.883066 
L 174.223611 404.005443 
L 171.83119 406.803863 
L 169.201135 409.720089 
L 161.86709 417.172664 
L 158.558205 420.088889 
L 155.834049 422.55269 
L 148.281193 429.493451 
L 145.37502 431.75379 
L 142.041877 434.822939 
L 139.850373 436.938191 
L 139.414797 437.326408 
L 138.819182 437.910266 
L 138.758027 438.248505 
L 138.092083 438.234291 
L 138.101257 438.553328 
L 138.429642 438.283269 
L 138.429642 438.612569 
L 137.340487 439.854416 
L 134.160636 443.102514 
L 132.190326 444.819922 
L 132.051742 444.714791 
L 133.503866 443.082836 
L 137.74736 438.882341 
L 137.444487 438.745892 
L 136.315636 439.530391 
L 135.145792 440.265664 
L 135.01911 440.178441 
L 135.145792 439.412204 
L 134.794994 439.530391 
L 132.847096 441.091104 
L 127.195292 446.010892 
L 126.53091 446.334917 
L 126.607781 446.004861 
L 128.441572 443.418691 
L 128.249706 443.308508 
L 127.264551 443.976436 
L 119.054925 451.209051 
L 106.576293 462.674678 
L 104.934368 463.607583 
L 104.277598 464.02578 
L 103.558159 464.804343 
L 103.482852 465.128368 
L 103.620828 465.213549 
L 103.620828 465.213549 
" style="fill:none;stroke:#e41a1c;stroke-width:1.142857;"/>
    <path clip-path="url(#p09e39b5263)" d="M 119.054925 460.328196 
L 119.143779 460.267993 
L 119.054925 460.117044 
L 118.968147 460.267993 
L 119.054925 460.328196 
" style="fill:none;stroke:#e41a1c;stroke-width:1.142857;"/>
    <path clip-path="url(#p09e39b5263)" d="M 131.205171 445.694364 
L 131.195408 445.686867 
L 131.205171 445.675518 
L 131.213615 445.686867 
L 131.205171 445.694364 
" style="fill:none;stroke:#e41a1c;stroke-width:1.142857;"/>
    <path clip-path="url(#p09e39b5263)" d="M 131.533556 445.405675 
L 131.476677 445.362842 
L 131.533556 445.29801 
L 131.581204 445.362842 
L 131.533556 445.405675 
" style="fill:none;stroke:#e41a1c;stroke-width:1.142857;"/>
    <path clip-path="url(#p09e39b5263)" d="M 131.861941 445.111219 
L 131.764154 445.038816 
L 131.861941 444.929754 
L 131.944111 445.038816 
L 131.861941 445.111219 
" style="fill:none;stroke:#e41a1c;stroke-width:1.142857;"/>
    <path clip-path="url(#p09e39b5263)" d="M 141.385107 444.402436 
L 141.413573 444.390766 
L 141.385107 444.381009 
L 141.377267 444.390766 
L 141.385107 444.402436 
" style="fill:none;stroke:#e41a1c;stroke-width:1.142857;"/>
    <path clip-path="url(#p09e39b5263)" d="M 137.772872 438.822952 
L 138.100305 438.558316 
L 137.772872 438.514941 
L 137.702441 438.558316 
L 137.772872 438.822952 
" style="fill:none;stroke:#e41a1c;stroke-width:1.142857;"/>
    <path clip-path="url(#p09e39b5263)" d="M 146.639268 438.261512 
L 146.633131 438.234291 
L 146.639268 438.229753 
L 146.656108 438.234291 
L 146.639268 438.261512 
" style="fill:none;stroke:#e41a1c;stroke-width:1.142857;"/>
    <path clip-path="url(#p09e39b5263)" d="M 192.613173 394.879434 
L 192.663143 394.814937 
L 192.613173 394.696825 
L 192.384754 394.814937 
L 192.613173 394.879434 
" style="fill:none;stroke:#e41a1c;stroke-width:1.142857;"/>
    <path clip-path="url(#p09e39b5263)" d="M 214.286585 371.011634 
L 214.347996 370.837086 
L 214.286585 370.805717 
L 214.238919 370.837086 
L 214.286585 371.011634 
" style="fill:none;stroke:#e41a1c;stroke-width:1.142857;"/>
    <path clip-path="url(#p09e39b5263)" d="M 218.883976 363.719706 
L 218.889643 363.708535 
L 218.883976 363.704333 
L 218.871574 363.708535 
L 218.883976 363.719706 
" style="fill:none;stroke:#e41a1c;stroke-width:1.142857;"/>
    <path clip-path="url(#p09e39b5263)" d="M 240.885773 334.251969 
L 240.904192 334.222258 
L 240.885773 334.199268 
L 240.835407 334.222258 
L 240.885773 334.251969 
" style="fill:none;stroke:#e41a1c;stroke-width:1.142857;"/>
    <path clip-path="url(#p09e39b5263)" d="M 239.900618 324.542667 
L 240.336241 324.501507 
L 241.678222 323.529432 
L 243.184469 322.326146 
L 244.594936 321.261257 
L 244.826394 321.144379 
L 245.483164 321.1435 
L 247.605921 319.317106 
L 248.767014 318.179263 
L 255.334715 311.848674 
L 257.756278 309.272331 
L 259.02847 307.652205 
L 259.190944 307.32818 
L 258.94695 307.221182 
L 257.855146 307.97623 
L 255.563468 309.920381 
L 252.034616 312.836606 
L 249.423784 314.960089 
L 244.659869 319.317106 
L 241.491861 322.557357 
L 240.130649 324.177482 
L 239.900618 324.542667 
L 239.900618 324.542667 
" style="fill:none;stroke:#e41a1c;stroke-width:1.142857;"/>
    <path clip-path="url(#p09e39b5263)" d="M 246.139934 324.52311 
L 246.127595 324.501507 
L 246.139934 324.481284 
L 246.187239 324.501507 
L 246.139934 324.52311 
" style="fill:none;stroke:#e41a1c;stroke-width:1.142857;"/>
    <path clip-path="url(#p09e39b5263)" d="M 256.97664 306.823006 
L 257.23106 306.68013 
L 257.305025 306.643967 
L 257.63341 306.405083 
L 257.688161 306.356105 
L 257.961795 306.138213 
L 258.079284 306.03208 
L 258.29018 305.860388 
L 258.457178 305.708055 
L 258.618565 305.573879 
L 258.824861 305.38403 
L 258.94695 305.280428 
L 259.184321 305.060005 
L 259.275335 304.977847 
L 259.520644 304.73598 
L 259.60372 304.662947 
L 259.870953 304.411955 
L 259.932105 304.357126 
L 260.215985 304.08793 
L 260.26049 304.047239 
L 260.556462 303.763905 
L 260.588875 303.733689 
L 260.892921 303.43988 
L 260.91726 303.416748 
L 261.225749 303.115855 
L 261.245646 303.096578 
L 261.555208 302.79183 
L 261.574031 302.773242 
L 261.881449 302.467805 
L 261.902416 302.446701 
L 262.204516 302.14378 
L 262.230801 302.116814 
L 262.524355 301.819755 
L 262.559186 301.783338 
L 262.840832 301.49573 
L 262.887571 301.445928 
L 263.153677 301.171705 
L 263.215956 301.104076 
L 263.462502 300.84768 
L 263.544341 300.757116 
L 263.766815 300.523655 
L 263.872726 300.404111 
L 264.065434 300.19963 
L 264.201111 300.043756 
L 264.35852 299.875605 
L 264.529496 299.675452 
L 264.644431 299.55158 
L 264.857881 299.296938 
L 264.921673 299.227555 
L 265.186266 298.905881 
L 265.188408 298.90353 
L 265.40246 298.579505 
L 265.514651 298.381552 
L 265.594108 298.25548 
L 265.514651 298.177149 
L 265.387487 298.25548 
L 265.186266 298.366746 
L 264.857881 298.577992 
L 264.856178 298.579505 
L 264.529496 298.841453 
L 264.46026 298.90353 
L 264.201111 299.115293 
L 264.077044 299.227555 
L 263.872726 299.397697 
L 263.70421 299.55158 
L 263.544341 299.687245 
L 263.339946 299.875605 
L 263.215956 299.982828 
L 262.982835 300.19963 
L 262.887571 300.283577 
L 262.631766 300.523655 
L 262.559186 300.588832 
L 262.285886 300.84768 
L 262.230801 300.898087 
L 261.944525 301.171705 
L 261.902416 301.210972 
L 261.607184 301.49573 
L 261.574031 301.527233 
L 261.273498 301.819755 
L 261.245646 301.846724 
L 260.94322 302.14378 
L 260.91726 302.169394 
L 260.616206 302.467805 
L 260.588875 302.495284 
L 260.292413 302.79183 
L 260.26049 302.824537 
L 259.971891 303.115855 
L 259.932105 303.157394 
L 259.654792 303.43988 
L 259.60372 303.494215 
L 259.341368 303.763905 
L 259.275335 303.835494 
L 259.031995 304.08793 
L 258.94695 304.181883 
L 258.727181 304.411955 
L 258.618565 304.534233 
L 258.427602 304.73598 
L 258.29018 304.892214 
L 258.132439 305.060005 
L 257.961795 305.259008 
L 257.845485 305.38403 
L 257.63341 305.635905 
L 257.56688 305.708055 
L 257.305025 306.024733 
L 257.298309 306.03208 
L 257.07252 306.356105 
L 256.97664 306.51433 
L 256.866273 306.68013 
L 256.97664 306.823006 
" style="fill:none;stroke:#e41a1c;stroke-width:1.142857;"/>
   </g>
   <g id="patch_3">
    <path d="M 35.289375 525.1 
L 35.289375 266.15 
" style="fill:none;stroke:#000000;stroke-linecap:square;stroke-linejoin:miter;stroke-width:0.8;"/>
   </g>
   <g id="patch_4">
    <path d="M 297.72375 525.1 
L 297.72375 266.15 
" style="fill:none;stroke:#000000;stroke-linecap:square;stroke-linejoin:miter;stroke-width:0.8;"/>
   </g>
   <g id="patch_5">
    <path d="M 35.289375 525.1 
L 297.72375 525.1 
" style="fill:none;stroke:#000000;stroke-linecap:square;stroke-linejoin:miter;stroke-width:0.8;"/>
   </g>
   <g id="patch_6">
    <path d="M 35.289375 266.15 
L 297.72375 266.15 
" style="fill:none;stroke:#000000;stroke-linecap:square;stroke-linejoin:miter;stroke-width:0.8;"/>
   </g>
  </g>
  <g id="axes_2">
   <g id="patch_7">
    <path d="M 35.289375 266.15 
L 297.72375 266.15 
L 297.72375 7.2 
L 35.289375 7.2 
z
" style="fill:#ffffff;"/>
   </g>
   <g id="matplotlib.axis_3">
    <g id="xtick_4">
     <g id="line2d_13">
      <g>
       <use style="stroke:#000000;stroke-width:0.8;" x="95.615511" xlink:href="#m6487e28ccc" y="266.15"/>
      </g>
     </g>
    </g>
    <g id="xtick_5">
     <g id="line2d_14">
      <g>
       <use style="stroke:#000000;stroke-width:0.8;" x="178.817347" xlink:href="#m6487e28ccc" y="266.15"/>
      </g>
     </g>
    </g>
    <g id="xtick_6">
     <g id="line2d_15">
      <g>
       <use style="stroke:#000000;stroke-width:0.8;" x="262.019183" xlink:href="#m6487e28ccc" y="266.15"/>
      </g>
     </g>
    </g>
   </g>
   <g id="matplotlib.axis_4">
    <g id="ytick_4"/>
    <g id="ytick_5"/>
    <g id="ytick_6"/>
    <g id="ytick_7"/>
    <g id="ytick_8"/>
   </g>
   <g id="line2d_16">
    <path clip-path="url(#pb82def9708)" d="M 35.212415 266.148155 
L 54.606392 266.030134 
L 60.455369 265.821397 
L 64.765142 265.415715 
L 67.843551 264.989101 
L 70.306278 264.436009 
L 73.076847 263.596247 
L 74.616051 262.977958 
L 75.847415 262.335013 
L 78.310142 260.857221 
L 80.772869 258.824841 
L 82.312074 257.222696 
L 84.774801 254.095151 
L 87.237528 250.142808 
L 88.468892 247.789646 
L 90.623778 243.010559 
L 92.162983 239.079205 
L 94.010028 233.60356 
L 95.857074 227.528795 
L 98.01196 219.328295 
L 100.474687 208.60092 
L 102.629574 198.368731 
L 104.168778 190.414509 
L 107.555028 172.036195 
L 112.788324 142.342365 
L 113.096165 141.153079 
L 116.482415 122.547774 
L 118.021619 114.507777 
L 120.792187 101.525669 
L 123.254915 91.248927 
L 125.717642 82.080208 
L 127.872528 75.326685 
L 129.103892 72.134457 
L 130.643097 68.092013 
L 132.182301 64.94758 
L 133.721506 62.076153 
L 136.492074 57.712959 
L 138.031278 56.04282 
L 138.64696 55.590694 
L 139.262642 55.054345 
L 140.186165 54.192741 
L 141.417528 52.722163 
L 141.725369 52.5693 
L 142.341051 51.776137 
L 143.264574 50.996856 
L 143.572415 50.768603 
L 143.880256 50.702617 
L 144.803778 49.807113 
L 145.111619 49.864459 
L 145.727301 49.429671 
L 147.266506 48.271968 
L 147.574347 48.472071 
L 147.882188 48.488138 
L 148.497869 48.084349 
L 149.113551 47.51316 
L 150.344915 46.636309 
L 151.576278 45.645415 
L 151.884119 45.670277 
L 152.499801 44.993763 
L 152.807642 44.58691 
L 153.115483 44.548161 
L 154.346847 43.652801 
L 154.654687 43.680159 
L 155.270369 43.096068 
L 155.886051 42.801752 
L 156.809574 41.876461 
L 157.117415 41.700296 
L 157.425256 41.280418 
L 158.040938 41.073128 
L 159.887983 40.019726 
L 160.195824 40.119082 
L 161.119347 39.272226 
L 161.735028 38.609011 
L 163.889915 36.842391 
L 164.197756 36.659856 
L 164.505597 36.609294 
L 165.121278 36.211989 
L 167.276165 34.931253 
L 167.584006 34.933795 
L 169.431051 33.938341 
L 170.970256 33.020548 
L 171.585938 32.644689 
L 171.893778 32.650375 
L 173.125142 31.807072 
L 173.432983 31.858618 
L 174.972188 31.497913 
L 175.280028 31.350687 
L 175.89571 31.320999 
L 176.203551 31.064324 
L 176.819233 30.976238 
L 177.434915 30.994889 
L 178.358438 30.966979 
L 178.666278 30.963348 
L 179.28196 31.222154 
L 181.744687 30.526706 
L 182.360369 30.774109 
L 182.66821 30.627502 
L 183.591733 31.067798 
L 184.515256 31.130487 
L 184.823097 31.287297 
L 185.130938 31.2874 
L 185.746619 31.427866 
L 186.362301 31.505071 
L 186.670142 31.567529 
L 187.285824 31.561238 
L 188.517188 31.929783 
L 189.132869 32.308386 
L 190.056392 32.585292 
L 190.364233 32.836783 
L 191.595597 33.144766 
L 192.211278 33.528647 
L 193.134801 33.938453 
L 193.442642 33.894339 
L 193.750483 34.078329 
L 194.058324 34.085925 
L 194.366165 34.346528 
L 194.674006 34.348113 
L 195.597528 34.82373 
L 196.21321 35.035586 
L 197.752415 35.765578 
L 198.983778 36.416308 
L 199.291619 36.512516 
L 199.907301 37.045092 
L 200.215142 37.067747 
L 200.522983 36.24945 
L 201.138665 36.679006 
L 201.446506 36.637771 
L 202.062188 37.14874 
L 203.909233 38.036154 
L 204.217074 38.10281 
L 204.524915 38.049633 
L 205.140597 38.308936 
L 205.448437 38.464321 
L 205.756278 37.846176 
L 206.679801 38.380138 
L 207.603324 38.648723 
L 208.219006 39.214837 
L 209.75821 40.362554 
L 210.989574 41.432356 
L 211.297415 41.367035 
L 211.913097 41.897414 
L 212.220937 42.019998 
L 212.836619 42.553285 
L 213.14446 42.65313 
L 214.067983 43.355661 
L 214.375824 43.44922 
L 214.991506 44.238972 
L 215.299347 44.211935 
L 216.222869 45.038449 
L 216.838551 45.409976 
L 218.377756 47.187006 
L 218.685597 45.609806 
L 221.456165 48.399349 
L 224.842415 52.709554 
L 225.765938 54.365149 
L 226.997301 56.656634 
L 227.920824 58.53397 
L 229.460028 61.499107 
L 232.846278 69.965584 
L 235.001165 76.342222 
L 237.156051 83.611971 
L 239.310937 92.154181 
L 241.465824 101.549482 
L 246.083438 124.600187 
L 248.546165 138.75853 
L 252.240256 160.08191 
L 257.16571 188.732691 
L 259.628437 202.187398 
L 262.399006 215.978339 
L 264.553892 225.475788 
L 266.400937 232.944043 
L 267.940142 238.364419 
L 269.787188 244.012059 
L 271.634233 248.777892 
L 272.865597 251.538755 
L 274.712642 254.995616 
L 275.944006 256.912715 
L 277.48321 258.947262 
L 279.330256 260.957806 
L 281.177301 262.441939 
L 282.716506 263.416621 
L 284.563551 264.271532 
L 287.64196 265.244039 
L 290.412528 265.690759 
L 294.106619 265.987279 
L 297.80071 266.095164 
L 297.80071 266.095164 
" style="fill:none;stroke:#e41a1c;stroke-linecap:square;stroke-width:1.142857;"/>
   </g>
   <g id="patch_8">
    <path d="M 35.289375 266.15 
L 35.289375 7.2 
" style="fill:none;stroke:#000000;stroke-linecap:square;stroke-linejoin:miter;stroke-width:0.8;"/>
   </g>
   <g id="patch_9">
    <path d="M 297.72375 266.15 
L 297.72375 7.2 
" style="fill:none;stroke:#000000;stroke-linecap:square;stroke-linejoin:miter;stroke-width:0.8;"/>
   </g>
   <g id="patch_10">
    <path d="M 35.289375 266.15 
L 297.72375 266.15 
" style="fill:none;stroke:#000000;stroke-linecap:square;stroke-linejoin:miter;stroke-width:0.8;"/>
   </g>
   <g id="patch_11">
    <path d="M 35.289375 7.2 
L 297.72375 7.2 
" style="fill:none;stroke:#000000;stroke-linecap:square;stroke-linejoin:miter;stroke-width:0.8;"/>
   </g>
  </g>
  <g id="axes_3">
   <g id="patch_12">
    <path d="M 297.72375 525.1 
L 560.158125 525.1 
L 560.158125 266.15 
L 297.72375 266.15 
z
" style="fill:#ffffff;"/>
   </g>
   <g id="matplotlib.axis_5">
    <g id="xtick_7">
     <g id="line2d_17">
      <g>
       <use style="stroke:#000000;stroke-width:0.8;" x="333.755991" xlink:href="#m6487e28ccc" y="525.1"/>
      </g>
     </g>
     <g id="text_9">
      <!-- $\mathdefault{0}$ -->
      <g transform="translate(330.235991 536.958281)scale(0.11 -0.11)">
       <use transform="translate(0 0.78125)" xlink:href="#DejaVuSans-48"/>
      </g>
     </g>
    </g>
    <g id="xtick_8">
     <g id="line2d_18">
      <g>
       <use style="stroke:#000000;stroke-width:0.8;" x="419.539405" xlink:href="#m6487e28ccc" y="525.1"/>
      </g>
     </g>
     <g id="text_10">
      <!-- $\mathdefault{1}$ -->
      <g transform="translate(416.019405 536.958281)scale(0.11 -0.11)">
       <use transform="translate(0 0.09375)" xlink:href="#DejaVuSans-49"/>
      </g>
     </g>
    </g>
    <g id="xtick_9">
     <g id="line2d_19">
      <g>
       <use style="stroke:#000000;stroke-width:0.8;" x="505.322819" xlink:href="#m6487e28ccc" y="525.1"/>
      </g>
     </g>
     <g id="text_11">
      <!-- $\mathdefault{2}$ -->
      <g transform="translate(501.802819 536.958281)scale(0.11 -0.11)">
       <use transform="translate(0 0.78125)" xlink:href="#DejaVuSans-50"/>
      </g>
     </g>
    </g>
    <g id="text_12">
     <!-- Kunz -->
     <g transform="translate(412.154062 557.245937)scale(0.14 -0.14)">
      <use xlink:href="#DejaVuSans-75"/>
      <use x="60.576172" xlink:href="#DejaVuSans-117"/>
      <use x="123.955078" xlink:href="#DejaVuSans-110"/>
      <use x="187.333984" xlink:href="#DejaVuSans-122"/>
     </g>
    </g>
   </g>
   <g id="matplotlib.axis_6">
    <g id="ytick_9"/>
    <g id="ytick_10"/>
    <g id="ytick_11"/>
    <g id="ytick_12"/>
    <g id="ytick_13"/>
   </g>
   <g id="line2d_20">
    <path clip-path="url(#pfc76a53bc1)" d="M 297.64679 525.099408 
L 314.885881 524.986764 
L 319.811335 524.691198 
L 323.197585 524.223987 
L 325.044631 523.799104 
L 327.199517 523.110133 
L 329.046562 522.242289 
L 330.585767 521.335646 
L 332.124972 520.225177 
L 333.356335 519.064142 
L 334.89554 517.437736 
L 336.434744 515.424565 
L 337.358267 513.989119 
L 339.205312 510.673766 
L 341.360199 505.953021 
L 342.899403 501.887967 
L 345.05429 495.146315 
L 346.593494 489.489502 
L 348.44054 481.966708 
L 349.979744 474.767955 
L 352.442472 461.978623 
L 354.905199 447.822767 
L 357.367926 432.104081 
L 360.138494 413.34389 
L 364.140426 385.741446 
L 368.75804 354.858852 
L 372.452131 333.574968 
L 374.299176 324.285012 
L 377.069744 312.657479 
L 378.91679 306.112438 
L 379.532472 304.430736 
L 380.763835 301.040063 
L 382.30304 297.567495 
L 383.534403 295.248927 
L 384.457926 293.725187 
L 385.68929 292.226771 
L 386.304972 291.597777 
L 387.228494 290.777936 
L 388.152017 290.220461 
L 389.383381 289.727035 
L 389.999062 289.503417 
L 391.538267 289.645704 
L 393.385312 290.423096 
L 393.693153 290.687135 
L 394.308835 290.893529 
L 395.540199 291.695594 
L 396.463722 292.095138 
L 397.079403 292.7416 
L 398.002926 293.269657 
L 398.618608 293.914107 
L 399.542131 294.553812 
L 400.157812 295.208113 
L 400.465653 295.411876 
L 401.081335 296.197321 
L 401.389176 296.422624 
L 402.004858 297.286621 
L 402.62054 298.204673 
L 403.236222 298.982005 
L 404.159744 299.854498 
L 404.467585 300.054926 
L 406.314631 302.508447 
L 406.930312 302.997587 
L 407.545994 303.911852 
L 407.853835 304.160369 
L 408.777358 305.421974 
L 409.39304 306.03761 
L 410.316562 307.368262 
L 411.855767 308.938243 
L 412.471449 309.903309 
L 413.702812 311.263235 
L 414.626335 312.630502 
L 416.16554 314.438888 
L 416.781222 315.402634 
L 418.628267 317.846781 
L 418.936108 318.095546 
L 420.783153 320.433952 
L 422.322358 322.421018 
L 422.93804 323.291654 
L 425.092926 325.333341 
L 425.708608 326.101527 
L 429.402699 330.207543 
L 430.326222 331.042554 
L 433.404631 334.413768 
L 434.020312 334.840564 
L 434.635994 335.349861 
L 436.48304 337.366282 
L 437.098722 337.892574 
L 437.714403 338.387087 
L 438.945767 339.582954 
L 439.561449 340.363777 
L 440.177131 341.095219 
L 442.024176 342.912453 
L 443.25554 343.98317 
L 444.179062 344.711534 
L 445.718267 346.590822 
L 446.64179 347.684095 
L 448.180994 349.272298 
L 448.796676 349.936056 
L 450.02804 351.377204 
L 450.335881 351.361808 
L 451.259403 352.343624 
L 451.875085 353.076277 
L 452.798608 353.907241 
L 453.106449 354.09432 
L 456.184858 358.228782 
L 456.492699 358.310496 
L 457.416222 359.530866 
L 458.031903 360.430314 
L 458.955426 361.304096 
L 459.263267 360.985966 
L 459.571108 361.221329 
L 460.494631 362.355287 
L 462.649517 364.990105 
L 463.265199 365.954728 
L 463.880881 366.697559 
L 464.188722 366.39338 
L 465.112244 367.487818 
L 466.343608 369.061637 
L 468.190653 371.724829 
L 468.806335 372.370461 
L 469.422017 373.131378 
L 470.34554 374.328773 
L 470.653381 374.420719 
L 471.269062 375.024344 
L 471.884744 375.803793 
L 472.808267 376.891913 
L 473.116108 377.180054 
L 474.655312 379.271151 
L 475.578835 380.417375 
L 478.041562 383.898387 
L 478.349403 384.264243 
L 478.657244 382.933898 
L 481.119972 385.962348 
L 484.506222 390.056581 
L 486.353267 392.51927 
L 486.968949 393.389134 
L 487.892472 394.624185 
L 489.739517 397.317688 
L 491.278722 399.564774 
L 492.510085 401.412182 
L 493.741449 403.457528 
L 498.359062 412.33354 
L 501.745312 420.185814 
L 502.976676 423.43125 
L 505.747244 431.075883 
L 507.286449 435.661666 
L 513.135426 455.030807 
L 517.75304 471.14578 
L 522.678494 487.318394 
L 525.756903 496.175569 
L 527.603949 500.910491 
L 529.450994 505.096318 
L 531.605881 509.368403 
L 533.760767 513.014397 
L 535.607813 515.554637 
L 537.454858 517.703897 
L 539.301903 519.497205 
L 541.764631 521.342357 
L 542.995994 522.060793 
L 545.150881 522.988393 
L 546.690085 523.558441 
L 550.076335 524.362206 
L 553.154744 524.718775 
L 558.080199 524.988881 
L 560.235085 525.045022 
L 560.235085 525.045022 
" style="fill:none;stroke:#e41a1c;stroke-linecap:square;stroke-width:1.142857;"/>
   </g>
   <g id="patch_13">
    <path d="M 297.72375 525.1 
L 297.72375 266.15 
" style="fill:none;stroke:#000000;stroke-linecap:square;stroke-linejoin:miter;stroke-width:0.8;"/>
   </g>
   <g id="patch_14">
    <path d="M 560.158125 525.1 
L 560.158125 266.15 
" style="fill:none;stroke:#000000;stroke-linecap:square;stroke-linejoin:miter;stroke-width:0.8;"/>
   </g>
   <g id="patch_15">
    <path d="M 297.72375 525.1 
L 560.158125 525.1 
" style="fill:none;stroke:#000000;stroke-linecap:square;stroke-linejoin:miter;stroke-width:0.8;"/>
   </g>
   <g id="patch_16">
    <path d="M 297.72375 266.15 
L 560.158125 266.15 
" style="fill:none;stroke:#000000;stroke-linecap:square;stroke-linejoin:miter;stroke-width:0.8;"/>
   </g>
  </g>
 </g>
 <defs>
  <clipPath id="p09e39b5263">
   <rect height="258.95" width="262.434375" x="35.289375" y="266.15"/>
  </clipPath>
  <clipPath id="pb82def9708">
   <rect height="258.95" width="262.434375" x="35.289375" y="7.2"/>
  </clipPath>
  <clipPath id="pfc76a53bc1">
   <rect height="258.95" width="262.434375" x="297.72375" y="266.15"/>
  </clipPath>
 </defs>
</svg>
