<?xml version="1.0" encoding="utf-8" standalone="no"?>
<!DOCTYPE svg PUBLIC "-//W3C//DTD SVG 1.1//EN"
  "http://www.w3.org/Graphics/SVG/1.1/DTD/svg11.dtd">
<!-- Created with matplotlib (https://matplotlib.org/) -->
<svg height="567.3575pt" version="1.1" viewBox="0 0 567.358125 567.3575" width="567.358125pt" xmlns="http://www.w3.org/2000/svg" xmlns:xlink="http://www.w3.org/1999/xlink">
 <metadata>
  <rdf:RDF xmlns:cc="http://creativecommons.org/ns#" xmlns:dc="http://purl.org/dc/elements/1.1/" xmlns:rdf="http://www.w3.org/1999/02/22-rdf-syntax-ns#">
   <cc:Work>
    <dc:type rdf:resource="http://purl.org/dc/dcmitype/StillImage"/>
    <dc:date>2021-02-04T14:06:38.439949</dc:date>
    <dc:format>image/svg+xml</dc:format>
    <dc:creator>
     <cc:Agent>
      <dc:title>Matplotlib v3.3.2, https://matplotlib.org/</dc:title>
     </cc:Agent>
    </dc:creator>
   </cc:Work>
  </rdf:RDF>
 </metadata>
 <defs>
  <style type="text/css">*{stroke-linecap:butt;stroke-linejoin:round;}</style>
 </defs>
 <g id="figure_1">
  <g id="patch_1">
   <path d="M 0 567.3575 
L 567.358125 567.3575 
L 567.358125 0 
L 0 0 
z
" style="fill:#ffffff;"/>
  </g>
  <g id="axes_1">
   <g id="patch_2">
    <path d="M 35.289375 525.1 
L 297.72375 525.1 
L 297.72375 266.15 
L 35.289375 266.15 
z
" style="fill:#ffffff;"/>
   </g>
   <g id="matplotlib.axis_1">
    <g id="xtick_1">
     <g id="line2d_1">
      <defs>
       <path d="M 0 0 
L 0 -3.5 
" id="mf6d5e37a40" style="stroke:#000000;stroke-width:0.8;"/>
      </defs>
      <g>
       <use style="stroke:#000000;stroke-width:0.8;" x="48.585537" xlink:href="#mf6d5e37a40" y="525.1"/>
      </g>
     </g>
     <g id="line2d_2">
      <defs>
       <path d="M 0 0 
L 0 3.5 
" id="m4c9dd989cb" style="stroke:#000000;stroke-width:0.8;"/>
      </defs>
      <g>
       <use style="stroke:#000000;stroke-width:0.8;" x="48.585537" xlink:href="#m4c9dd989cb" y="266.15"/>
      </g>
     </g>
     <g id="text_1">
      <!-- $\mathdefault{0.4}$ -->
      <g transform="translate(39.785537 536.958281)scale(0.11 -0.11)">
       <defs>
        <path d="M 31.78125 66.40625 
Q 24.171875 66.40625 20.328125 58.90625 
Q 16.5 51.421875 16.5 36.375 
Q 16.5 21.390625 20.328125 13.890625 
Q 24.171875 6.390625 31.78125 6.390625 
Q 39.453125 6.390625 43.28125 13.890625 
Q 47.125 21.390625 47.125 36.375 
Q 47.125 51.421875 43.28125 58.90625 
Q 39.453125 66.40625 31.78125 66.40625 
z
M 31.78125 74.21875 
Q 44.046875 74.21875 50.515625 64.515625 
Q 56.984375 54.828125 56.984375 36.375 
Q 56.984375 17.96875 50.515625 8.265625 
Q 44.046875 -1.421875 31.78125 -1.421875 
Q 19.53125 -1.421875 13.0625 8.265625 
Q 6.59375 17.96875 6.59375 36.375 
Q 6.59375 54.828125 13.0625 64.515625 
Q 19.53125 74.21875 31.78125 74.21875 
z
" id="DejaVuSans-48"/>
        <path d="M 10.6875 12.40625 
L 21 12.40625 
L 21 0 
L 10.6875 0 
z
" id="DejaVuSans-46"/>
        <path d="M 37.796875 64.3125 
L 12.890625 25.390625 
L 37.796875 25.390625 
z
M 35.203125 72.90625 
L 47.609375 72.90625 
L 47.609375 25.390625 
L 58.015625 25.390625 
L 58.015625 17.1875 
L 47.609375 17.1875 
L 47.609375 0 
L 37.796875 0 
L 37.796875 17.1875 
L 4.890625 17.1875 
L 4.890625 26.703125 
z
" id="DejaVuSans-52"/>
       </defs>
       <use transform="translate(0 0.78125)" xlink:href="#DejaVuSans-48"/>
       <use transform="translate(63.623047 0.78125)" xlink:href="#DejaVuSans-46"/>
       <use transform="translate(95.410156 0.78125)" xlink:href="#DejaVuSans-52"/>
      </g>
     </g>
    </g>
    <g id="xtick_2">
     <g id="line2d_3">
      <g>
       <use style="stroke:#000000;stroke-width:0.8;" x="87.666355" xlink:href="#mf6d5e37a40" y="525.1"/>
      </g>
     </g>
     <g id="line2d_4">
      <g>
       <use style="stroke:#000000;stroke-width:0.8;" x="87.666355" xlink:href="#m4c9dd989cb" y="266.15"/>
      </g>
     </g>
     <g id="text_2">
      <!-- $\mathdefault{0.6}$ -->
      <g transform="translate(78.866355 536.958281)scale(0.11 -0.11)">
       <defs>
        <path d="M 33.015625 40.375 
Q 26.375 40.375 22.484375 35.828125 
Q 18.609375 31.296875 18.609375 23.390625 
Q 18.609375 15.53125 22.484375 10.953125 
Q 26.375 6.390625 33.015625 6.390625 
Q 39.65625 6.390625 43.53125 10.953125 
Q 47.40625 15.53125 47.40625 23.390625 
Q 47.40625 31.296875 43.53125 35.828125 
Q 39.65625 40.375 33.015625 40.375 
z
M 52.59375 71.296875 
L 52.59375 62.3125 
Q 48.875 64.0625 45.09375 64.984375 
Q 41.3125 65.921875 37.59375 65.921875 
Q 27.828125 65.921875 22.671875 59.328125 
Q 17.53125 52.734375 16.796875 39.40625 
Q 19.671875 43.65625 24.015625 45.921875 
Q 28.375 48.1875 33.59375 48.1875 
Q 44.578125 48.1875 50.953125 41.515625 
Q 57.328125 34.859375 57.328125 23.390625 
Q 57.328125 12.15625 50.6875 5.359375 
Q 44.046875 -1.421875 33.015625 -1.421875 
Q 20.359375 -1.421875 13.671875 8.265625 
Q 6.984375 17.96875 6.984375 36.375 
Q 6.984375 53.65625 15.1875 63.9375 
Q 23.390625 74.21875 37.203125 74.21875 
Q 40.921875 74.21875 44.703125 73.484375 
Q 48.484375 72.75 52.59375 71.296875 
z
" id="DejaVuSans-54"/>
       </defs>
       <use transform="translate(0 0.78125)" xlink:href="#DejaVuSans-48"/>
       <use transform="translate(63.623047 0.78125)" xlink:href="#DejaVuSans-46"/>
       <use transform="translate(95.410156 0.78125)" xlink:href="#DejaVuSans-54"/>
      </g>
     </g>
    </g>
    <g id="xtick_3">
     <g id="line2d_5">
      <g>
       <use style="stroke:#000000;stroke-width:0.8;" x="126.747174" xlink:href="#mf6d5e37a40" y="525.1"/>
      </g>
     </g>
     <g id="line2d_6">
      <g>
       <use style="stroke:#000000;stroke-width:0.8;" x="126.747174" xlink:href="#m4c9dd989cb" y="266.15"/>
      </g>
     </g>
     <g id="text_3">
      <!-- $\mathdefault{0.8}$ -->
      <g transform="translate(118.112174 536.958281)scale(0.11 -0.11)">
       <defs>
        <path d="M 31.78125 34.625 
Q 24.75 34.625 20.71875 30.859375 
Q 16.703125 27.09375 16.703125 20.515625 
Q 16.703125 13.921875 20.71875 10.15625 
Q 24.75 6.390625 31.78125 6.390625 
Q 38.8125 6.390625 42.859375 10.171875 
Q 46.921875 13.96875 46.921875 20.515625 
Q 46.921875 27.09375 42.890625 30.859375 
Q 38.875 34.625 31.78125 34.625 
z
M 21.921875 38.8125 
Q 15.578125 40.375 12.03125 44.71875 
Q 8.5 49.078125 8.5 55.328125 
Q 8.5 64.0625 14.71875 69.140625 
Q 20.953125 74.21875 31.78125 74.21875 
Q 42.671875 74.21875 48.875 69.140625 
Q 55.078125 64.0625 55.078125 55.328125 
Q 55.078125 49.078125 51.53125 44.71875 
Q 48 40.375 41.703125 38.8125 
Q 48.828125 37.15625 52.796875 32.3125 
Q 56.78125 27.484375 56.78125 20.515625 
Q 56.78125 9.90625 50.3125 4.234375 
Q 43.84375 -1.421875 31.78125 -1.421875 
Q 19.734375 -1.421875 13.25 4.234375 
Q 6.78125 9.90625 6.78125 20.515625 
Q 6.78125 27.484375 10.78125 32.3125 
Q 14.796875 37.15625 21.921875 38.8125 
z
M 18.3125 54.390625 
Q 18.3125 48.734375 21.84375 45.5625 
Q 25.390625 42.390625 31.78125 42.390625 
Q 38.140625 42.390625 41.71875 45.5625 
Q 45.3125 48.734375 45.3125 54.390625 
Q 45.3125 60.0625 41.71875 63.234375 
Q 38.140625 66.40625 31.78125 66.40625 
Q 25.390625 66.40625 21.84375 63.234375 
Q 18.3125 60.0625 18.3125 54.390625 
z
" id="DejaVuSans-56"/>
       </defs>
       <use transform="translate(0 0.78125)" xlink:href="#DejaVuSans-48"/>
       <use transform="translate(63.623047 0.78125)" xlink:href="#DejaVuSans-46"/>
       <use transform="translate(92.785156 0.78125)" xlink:href="#DejaVuSans-56"/>
      </g>
     </g>
    </g>
    <g id="xtick_4">
     <g id="line2d_7">
      <g>
       <use style="stroke:#000000;stroke-width:0.8;" x="165.827992" xlink:href="#mf6d5e37a40" y="525.1"/>
      </g>
     </g>
     <g id="line2d_8">
      <g>
       <use style="stroke:#000000;stroke-width:0.8;" x="165.827992" xlink:href="#m4c9dd989cb" y="266.15"/>
      </g>
     </g>
     <g id="text_4">
      <!-- $\mathdefault{1.0}$ -->
      <g transform="translate(157.027992 536.958281)scale(0.11 -0.11)">
       <defs>
        <path d="M 12.40625 8.296875 
L 28.515625 8.296875 
L 28.515625 63.921875 
L 10.984375 60.40625 
L 10.984375 69.390625 
L 28.421875 72.90625 
L 38.28125 72.90625 
L 38.28125 8.296875 
L 54.390625 8.296875 
L 54.390625 0 
L 12.40625 0 
z
" id="DejaVuSans-49"/>
       </defs>
       <use transform="translate(0 0.78125)" xlink:href="#DejaVuSans-49"/>
       <use transform="translate(63.623047 0.78125)" xlink:href="#DejaVuSans-46"/>
       <use transform="translate(95.410156 0.78125)" xlink:href="#DejaVuSans-48"/>
      </g>
     </g>
    </g>
    <g id="xtick_5">
     <g id="line2d_9">
      <g>
       <use style="stroke:#000000;stroke-width:0.8;" x="204.90881" xlink:href="#mf6d5e37a40" y="525.1"/>
      </g>
     </g>
     <g id="line2d_10">
      <g>
       <use style="stroke:#000000;stroke-width:0.8;" x="204.90881" xlink:href="#m4c9dd989cb" y="266.15"/>
      </g>
     </g>
     <g id="text_5">
      <!-- $\mathdefault{1.2}$ -->
      <g transform="translate(196.43881 536.958281)scale(0.11 -0.11)">
       <defs>
        <path d="M 19.1875 8.296875 
L 53.609375 8.296875 
L 53.609375 0 
L 7.328125 0 
L 7.328125 8.296875 
Q 12.9375 14.109375 22.625 23.890625 
Q 32.328125 33.6875 34.8125 36.53125 
Q 39.546875 41.84375 41.421875 45.53125 
Q 43.3125 49.21875 43.3125 52.78125 
Q 43.3125 58.59375 39.234375 62.25 
Q 35.15625 65.921875 28.609375 65.921875 
Q 23.96875 65.921875 18.8125 64.3125 
Q 13.671875 62.703125 7.8125 59.421875 
L 7.8125 69.390625 
Q 13.765625 71.78125 18.9375 73 
Q 24.125 74.21875 28.421875 74.21875 
Q 39.75 74.21875 46.484375 68.546875 
Q 53.21875 62.890625 53.21875 53.421875 
Q 53.21875 48.921875 51.53125 44.890625 
Q 49.859375 40.875 45.40625 35.40625 
Q 44.1875 33.984375 37.640625 27.21875 
Q 31.109375 20.453125 19.1875 8.296875 
z
" id="DejaVuSans-50"/>
       </defs>
       <use transform="translate(0 0.78125)" xlink:href="#DejaVuSans-49"/>
       <use transform="translate(63.623047 0.78125)" xlink:href="#DejaVuSans-46"/>
       <use transform="translate(89.910156 0.78125)" xlink:href="#DejaVuSans-50"/>
      </g>
     </g>
    </g>
    <g id="xtick_6">
     <g id="line2d_11">
      <g>
       <use style="stroke:#000000;stroke-width:0.8;" x="243.989628" xlink:href="#mf6d5e37a40" y="525.1"/>
      </g>
     </g>
     <g id="line2d_12">
      <g>
       <use style="stroke:#000000;stroke-width:0.8;" x="243.989628" xlink:href="#m4c9dd989cb" y="266.15"/>
      </g>
     </g>
     <g id="text_6">
      <!-- $\mathdefault{1.4}$ -->
      <g transform="translate(235.189628 536.958281)scale(0.11 -0.11)">
       <use transform="translate(0 0.09375)" xlink:href="#DejaVuSans-49"/>
       <use transform="translate(63.623047 0.09375)" xlink:href="#DejaVuSans-46"/>
       <use transform="translate(95.410156 0.09375)" xlink:href="#DejaVuSans-52"/>
      </g>
     </g>
    </g>
    <g id="xtick_7">
     <g id="line2d_13">
      <g>
       <use style="stroke:#000000;stroke-width:0.8;" x="283.070447" xlink:href="#mf6d5e37a40" y="525.1"/>
      </g>
     </g>
     <g id="line2d_14">
      <g>
       <use style="stroke:#000000;stroke-width:0.8;" x="283.070447" xlink:href="#m4c9dd989cb" y="266.15"/>
      </g>
     </g>
     <g id="text_7">
      <!-- $\mathdefault{1.6}$ -->
      <g transform="translate(274.270447 536.958281)scale(0.11 -0.11)">
       <use transform="translate(0 0.78125)" xlink:href="#DejaVuSans-49"/>
       <use transform="translate(63.623047 0.78125)" xlink:href="#DejaVuSans-46"/>
       <use transform="translate(95.410156 0.78125)" xlink:href="#DejaVuSans-54"/>
      </g>
     </g>
    </g>
    <g id="text_8">
     <!-- Hinz -->
     <g transform="translate(151.1875 557.245937)scale(0.14 -0.14)">
      <defs>
       <path d="M 9.8125 72.90625 
L 19.671875 72.90625 
L 19.671875 43.015625 
L 55.515625 43.015625 
L 55.515625 72.90625 
L 65.375 72.90625 
L 65.375 0 
L 55.515625 0 
L 55.515625 34.71875 
L 19.671875 34.71875 
L 19.671875 0 
L 9.8125 0 
z
" id="DejaVuSans-72"/>
       <path d="M 9.421875 54.6875 
L 18.40625 54.6875 
L 18.40625 0 
L 9.421875 0 
z
M 9.421875 75.984375 
L 18.40625 75.984375 
L 18.40625 64.59375 
L 9.421875 64.59375 
z
" id="DejaVuSans-105"/>
       <path d="M 54.890625 33.015625 
L 54.890625 0 
L 45.90625 0 
L 45.90625 32.71875 
Q 45.90625 40.484375 42.875 44.328125 
Q 39.84375 48.1875 33.796875 48.1875 
Q 26.515625 48.1875 22.3125 43.546875 
Q 18.109375 38.921875 18.109375 30.90625 
L 18.109375 0 
L 9.078125 0 
L 9.078125 54.6875 
L 18.109375 54.6875 
L 18.109375 46.1875 
Q 21.34375 51.125 25.703125 53.5625 
Q 30.078125 56 35.796875 56 
Q 45.21875 56 50.046875 50.171875 
Q 54.890625 44.34375 54.890625 33.015625 
z
" id="DejaVuSans-110"/>
       <path d="M 5.515625 54.6875 
L 48.1875 54.6875 
L 48.1875 46.484375 
L 14.40625 7.171875 
L 48.1875 7.171875 
L 48.1875 0 
L 4.296875 0 
L 4.296875 8.203125 
L 38.09375 47.515625 
L 5.515625 47.515625 
z
" id="DejaVuSans-122"/>
      </defs>
      <use xlink:href="#DejaVuSans-72"/>
      <use x="75.195312" xlink:href="#DejaVuSans-105"/>
      <use x="102.978516" xlink:href="#DejaVuSans-110"/>
      <use x="166.357422" xlink:href="#DejaVuSans-122"/>
     </g>
    </g>
   </g>
   <g id="matplotlib.axis_2">
    <g id="ytick_1">
     <g id="line2d_15">
      <defs>
       <path d="M 0 0 
L 3.5 0 
" id="md211663deb" style="stroke:#000000;stroke-width:0.8;"/>
      </defs>
      <g>
       <use style="stroke:#000000;stroke-width:0.8;" x="35.289375" xlink:href="#md211663deb" y="504.542814"/>
      </g>
     </g>
     <g id="line2d_16">
      <defs>
       <path d="M 0 0 
L -3.5 0 
" id="mf76fcd8336" style="stroke:#000000;stroke-width:0.8;"/>
      </defs>
      <g>
       <use style="stroke:#000000;stroke-width:0.8;" x="297.72375" xlink:href="#mf76fcd8336" y="504.542814"/>
      </g>
     </g>
     <g id="text_9">
      <!-- $\mathdefault{0}$ -->
      <g transform="translate(24.749375 508.721955)scale(0.11 -0.11)">
       <use transform="translate(0 0.78125)" xlink:href="#DejaVuSans-48"/>
      </g>
     </g>
    </g>
    <g id="ytick_2">
     <g id="line2d_17">
      <g>
       <use style="stroke:#000000;stroke-width:0.8;" x="35.289375" xlink:href="#md211663deb" y="409.002084"/>
      </g>
     </g>
     <g id="line2d_18">
      <g>
       <use style="stroke:#000000;stroke-width:0.8;" x="297.72375" xlink:href="#mf76fcd8336" y="409.002084"/>
      </g>
     </g>
     <g id="text_10">
      <!-- $\mathdefault{1}$ -->
      <g transform="translate(24.749375 413.181225)scale(0.11 -0.11)">
       <use transform="translate(0 0.09375)" xlink:href="#DejaVuSans-49"/>
      </g>
     </g>
    </g>
    <g id="ytick_3">
     <g id="line2d_19">
      <g>
       <use style="stroke:#000000;stroke-width:0.8;" x="35.289375" xlink:href="#md211663deb" y="313.461354"/>
      </g>
     </g>
     <g id="line2d_20">
      <g>
       <use style="stroke:#000000;stroke-width:0.8;" x="297.72375" xlink:href="#mf76fcd8336" y="313.461354"/>
      </g>
     </g>
     <g id="text_11">
      <!-- $\mathdefault{2}$ -->
      <g transform="translate(24.749375 317.640495)scale(0.11 -0.11)">
       <use transform="translate(0 0.78125)" xlink:href="#DejaVuSans-50"/>
      </g>
     </g>
    </g>
    <g id="text_12">
     <!-- Kunz -->
     <g transform="translate(17.837813 412.411875)rotate(-90)scale(0.14 -0.14)">
      <defs>
       <path d="M 9.8125 72.90625 
L 19.671875 72.90625 
L 19.671875 42.09375 
L 52.390625 72.90625 
L 65.09375 72.90625 
L 28.90625 38.921875 
L 67.671875 0 
L 54.6875 0 
L 19.671875 35.109375 
L 19.671875 0 
L 9.8125 0 
z
" id="DejaVuSans-75"/>
       <path d="M 8.5 21.578125 
L 8.5 54.6875 
L 17.484375 54.6875 
L 17.484375 21.921875 
Q 17.484375 14.15625 20.5 10.265625 
Q 23.53125 6.390625 29.59375 6.390625 
Q 36.859375 6.390625 41.078125 11.03125 
Q 45.3125 15.671875 45.3125 23.6875 
L 45.3125 54.6875 
L 54.296875 54.6875 
L 54.296875 0 
L 45.3125 0 
L 45.3125 8.40625 
Q 42.046875 3.421875 37.71875 1 
Q 33.40625 -1.421875 27.6875 -1.421875 
Q 18.265625 -1.421875 13.375 4.4375 
Q 8.5 10.296875 8.5 21.578125 
z
M 31.109375 56 
z
" id="DejaVuSans-117"/>
      </defs>
      <use xlink:href="#DejaVuSans-75"/>
      <use x="60.576172" xlink:href="#DejaVuSans-117"/>
      <use x="123.955078" xlink:href="#DejaVuSans-110"/>
      <use x="187.333984" xlink:href="#DejaVuSans-122"/>
     </g>
    </g>
   </g>
   <g id="LineCollection_1">
    <path clip-path="url(#p198225a3fa)" d="M 61.915928 498.602768 
L 62.901083 497.957165 
L 67.004998 494.614645 
L 70.235205 492.022445 
L 72.095865 490.353135 
L 76.730001 486.189995 
L 79.64872 483.869899 
L 80.633875 483.197207 
L 80.96226 483.152433 
L 80.96226 483.443657 
L 80.96226 483.701818 
L 81.290646 483.816412 
L 81.947416 483.751065 
L 82.275801 483.866178 
L 82.994329 483.597795 
L 84.403006 482.625719 
L 86.216421 481.254814 
L 87.201576 480.554258 
L 87.574806 480.357544 
L 87.529961 480.732155 
L 86.384943 482.301694 
L 86.544806 482.460001 
L 87.995327 481.329619 
L 97.709897 473.185975 
L 97.882123 473.228994 
L 97.279297 474.525094 
L 97.474304 474.525094 
L 98.045543 474.201069 
L 100.336978 472.489461 
L 100.613881 472.580944 
L 100.082297 473.228994 
L 98.635633 474.849119 
L 98.695052 474.979269 
L 99.351823 474.788998 
L 100.478281 474.201069 
L 101.978903 473.083261 
L 105.591138 469.916958 
L 108.874989 466.705495 
L 113.143994 462.180571 
L 113.472379 461.952093 
L 114.129149 461.921662 
L 115.114304 461.395825 
L 115.442689 461.211029 
L 115.788238 461.240068 
L 115.771074 461.285232 
L 115.29871 462.212143 
L 114.322591 463.832268 
L 114.457534 463.954979 
L 119.772479 459.295918 
L 125.35362 454.435542 
L 129.234861 451.469825 
L 129.565081 451.519317 
L 129.563246 451.522151 
L 128.162169 453.463467 
L 127.508763 454.435542 
L 127.592936 454.710048 
L 129.274954 453.463467 
L 130.548401 452.481898 
L 130.876786 452.376757 
L 130.950471 452.491392 
L 130.825186 452.815417 
L 130.876786 453.156269 
L 130.901252 453.139442 
L 131.861941 452.483343 
L 134.160636 450.422279 
L 141.056722 443.617803 
L 146.639268 438.127526 
L 146.967653 438.281465 
L 147.380092 438.234291 
L 148.371272 437.586241 
L 149.939359 436.290141 
L 152.221813 434.242216 
L 162.073365 424.925475 
L 163.386905 423.818327 
L 166.71037 420.73694 
L 172.910071 414.561807 
L 179.314276 408.423989 
L 181.854167 406.155813 
L 184.755978 403.563613 
L 187.030627 401.18611 
L 190.971248 396.955869 
L 194.321962 393.518837 
L 198.670844 388.982487 
L 199.741339 387.686387 
L 199.509259 387.548265 
L 197.093026 389.630537 
L 193.598328 392.707522 
L 192.941558 393.076454 
L 192.846273 392.870787 
L 193.520228 391.898712 
L 196.27022 388.658462 
L 196.225408 388.340744 
L 194.255098 389.765067 
L 194.073066 389.630537 
L 194.506436 388.982487 
L 196.225408 386.927718 
L 200.998344 381.853936 
L 216.468907 365.97671 
L 216.952242 365.32866 
L 216.913666 365.118934 
L 216.496067 365.32866 
L 215.27174 366.107508 
L 215.180618 365.97671 
L 217.730473 363.38451 
L 220.89729 360.14426 
L 223.514343 357.228034 
L 223.913707 356.579984 
L 223.723946 356.579984 
L 222.490223 357.552059 
L 218.883976 360.741102 
L 218.757305 360.468285 
L 220.854286 358.127478 
L 225.961541 352.691684 
L 234.071052 343.618983 
L 236.496907 340.378733 
L 236.815617 339.730683 
L 236.616768 339.615603 
L 235.959998 339.824566 
L 235.85852 339.730683 
L 235.959998 339.292389 
L 237.793953 336.490433 
L 238.234579 335.842383 
L 238.20029 335.194333 
L 237.930308 334.736989 
L 237.804274 334.546283 
L 237.930308 334.174372 
L 239.522558 332.278107 
L 243.065402 328.713832 
L 248.841336 322.881382 
L 252.37925 318.966301 
L 253.364405 317.6784 
L 253.493935 317.372956 
L 253.364405 317.221662 
L 252.37925 317.535458 
L 252.37925 317.309239 
L 253.467504 315.752831 
L 255.025089 313.808681 
L 259.130319 308.624281 
L 258.94695 308.468024 
L 258.213254 308.948306 
L 256.97664 309.944444 
L 255.001435 311.540506 
L 254.649732 311.540506 
L 255.343524 309.920381 
L 256.31987 308.562152 
L 262.024795 302.14378 
L 263.215956 300.728121 
L 264.741277 298.90353 
L 265.186266 298.250707 
L 266.172676 296.95938 
L 266.171421 296.594675 
L 264.405332 297.931455 
L 262.559186 299.606098 
L 258.29018 303.851352 
L 253.69279 308.408446 
L 250.631131 311.216481 
L 248.767014 312.899023 
L 240.074341 321.261257 
L 227.180611 334.870308 
L 225.451677 336.855766 
L 223.444678 339.082633 
L 222.824596 339.811645 
L 221.149787 341.674833 
L 219.540746 343.711304 
L 219.080985 344.591058 
L 218.555591 345.437989 
L 217.570436 346.536934 
L 212.64466 351.302441 
L 208.70404 355.302502 
L 205.70865 358.524135 
L 203.449879 360.966663 
L 197.867333 366.350143 
L 197.538948 366.643855 
L 197.334933 366.62476 
L 197.867333 365.887596 
L 198.852489 364.630511 
L 199.235049 364.03256 
L 199.180874 363.931839 
L 198.824033 364.03256 
L 196.882178 365.441348 
L 192.613173 368.951532 
L 190.641493 370.837086 
L 188.576315 373.105261 
L 187.890708 374.077336 
L 187.717925 374.401361 
L 187.687397 375.056491 
L 186.956725 376.021486 
L 185.060317 377.982872 
L 180.663254 382.501986 
L 177.024289 386.714312 
L 175.006594 388.982487 
L 171.995401 391.898712 
L 169.62622 393.886375 
L 163.71529 398.786471 
L 155.834049 406.082776 
L 155.177279 406.561868 
L 154.192124 407.205896 
L 153.840768 407.127888 
L 152.337778 408.099964 
L 148.609578 410.786895 
L 145.654113 413.29034 
L 143.683802 415.047644 
L 139.086412 419.552845 
L 136.130947 422.714505 
L 130.876786 428.518682 
L 130.663339 428.837565 
L 130.876786 428.944988 
L 134.160636 426.092303 
L 140.071567 420.651205 
L 141.056722 420.003681 
L 142.041877 419.328756 
L 144.340573 417.368444 
L 147.296038 414.694063 
L 147.415097 414.904489 
L 143.355417 419.229539 
L 138.339363 423.97719 
L 132.518711 429.003336 
L 128.249706 432.814498 
L 125.622625 435.030423 
L 125.29424 435.1624 
L 125.220504 434.994041 
L 125.858718 434.021966 
L 126.347465 433.373916 
L 126.401916 433.049891 
L 126.273428 433.049891 
L 122.66716 435.981514 
L 121.682005 436.744483 
L 121.588972 436.614166 
L 123.819923 433.697941 
L 123.652315 433.420482 
L 122.66716 434.076032 
L 120.367723 435.966116 
L 118.06977 437.953566 
L 107.561448 447.745848 
L 105.839758 449.575167 
L 104.356197 451.519317 
L 104.19485 451.843342 
L 104.277598 451.987842 
L 104.702871 451.843342 
L 105.919523 451.025837 
L 106.247908 450.774812 
L 106.576293 450.648505 
L 106.722958 450.871267 
L 99.817727 458.647868 
L 99.219838 459.619943 
L 99.351823 459.746385 
L 100.008593 459.402189 
L 101.978903 457.956466 
L 102.307288 457.816185 
L 102.307288 458.019645 
L 100.807777 459.943968 
L 100.178334 460.916043 
L 100.146714 461.240068 
L 100.336978 461.295546 
L 100.433774 461.564093 
L 98.038282 463.898144 
L 85.888036 475.521406 
L 85.743632 475.497169 
L 85.888036 475.147106 
L 93.234264 466.424468 
L 93.805228 465.452393 
L 93.769277 465.312656 
L 93.440892 465.289054 
L 92.455737 465.795589 
L 91.050398 466.748493 
L 90.157042 467.43162 
L 85.559651 471.392131 
L 70.453939 486.133104 
L 66.956931 489.75427 
L 64.214624 493.083601 
L 64.08486 493.318545 
L 64.214624 493.50682 
L 64.871394 493.17736 
L 68.155244 490.868703 
L 68.309095 491.05037 
L 68.155244 491.379931 
L 65.513666 494.29062 
L 62.286679 497.854896 
L 61.915928 498.602768 
L 61.915928 498.602768 
" style="fill:none;stroke:#e41a1c;stroke-width:1.142857;"/>
    <path clip-path="url(#p198225a3fa)" d="M 86.216421 482.68165 
L 86.296529 482.625719 
L 86.216421 482.547092 
L 86.161852 482.625719 
L 86.216421 482.68165 
" style="fill:none;stroke:#e41a1c;stroke-width:1.142857;"/>
    <path clip-path="url(#p198225a3fa)" d="M 85.559651 475.825011 
L 85.547412 475.821194 
L 85.559651 475.789237 
L 85.563311 475.821194 
L 85.559651 475.825011 
" style="fill:none;stroke:#e41a1c;stroke-width:1.142857;"/>
    <path clip-path="url(#p198225a3fa)" d="M 114.129149 464.198758 
L 114.190655 464.156293 
L 114.129149 464.088668 
L 114.083571 464.156293 
L 114.129149 464.198758 
" style="fill:none;stroke:#e41a1c;stroke-width:1.142857;"/>
    <path clip-path="url(#p198225a3fa)" d="M 100.665363 461.310289 
L 100.415085 461.240068 
L 100.665363 461.155298 
L 100.753245 461.240068 
L 100.665363 461.310289 
" style="fill:none;stroke:#e41a1c;stroke-width:1.142857;"/>
    <path clip-path="url(#p198225a3fa)" d="M 101.322133 451.804411 
L 101.650518 451.623612 
L 101.805779 451.519317 
L 101.978903 451.402324 
L 102.269632 451.195292 
L 102.307288 451.167956 
L 102.635673 450.903514 
L 102.673422 450.871267 
L 102.964058 450.618772 
L 103.045123 450.547242 
L 103.292443 450.322531 
L 103.401159 450.223217 
L 103.620828 450.013934 
L 103.741834 449.899192 
L 103.949213 449.691402 
L 104.066956 449.575167 
L 104.277598 449.352427 
L 104.375812 449.251142 
L 104.605983 448.993256 
L 104.667133 448.927117 
L 104.934368 448.608391 
L 104.939018 448.603092 
L 105.154041 448.279067 
L 105.262753 448.079137 
L 105.333621 447.955042 
L 105.262753 447.772578 
L 104.934368 447.842188 
L 104.725831 447.955042 
L 104.605983 448.020383 
L 104.277598 448.247287 
L 104.239711 448.279067 
L 103.949213 448.519202 
L 103.852788 448.603092 
L 103.620828 448.804023 
L 103.484463 448.927117 
L 103.292443 449.101485 
L 103.132711 449.251142 
L 102.964058 449.411754 
L 102.796092 449.575167 
L 102.635673 449.735457 
L 102.473672 449.899192 
L 102.307288 450.073711 
L 102.164972 450.223217 
L 101.978903 450.428206 
L 101.869947 450.547242 
L 101.650518 450.8013 
L 101.588975 450.871267 
L 101.32381 451.195292 
L 101.322133 451.198839 
L 101.167783 451.519317 
L 101.322133 451.804411 
" style="fill:none;stroke:#e41a1c;stroke-width:1.142857;"/>
    <path clip-path="url(#p198225a3fa)" d="M 106.904678 450.566133 
L 106.857267 450.547242 
L 106.904678 450.525145 
L 106.916617 450.547242 
L 106.904678 450.566133 
" style="fill:none;stroke:#e41a1c;stroke-width:1.142857;"/>
    <path clip-path="url(#p198225a3fa)" d="M 145.654113 437.666575 
L 145.543617 437.586241 
L 145.654113 437.454719 
L 145.795543 437.262216 
L 145.982498 437.052311 
L 146.072819 436.938191 
L 146.310883 436.682479 
L 146.368104 436.614166 
L 146.639268 436.334759 
L 146.681626 436.290141 
L 146.967653 436.003168 
L 147.002274 435.966116 
L 147.296038 435.690202 
L 147.342403 435.642091 
L 147.624423 435.380161 
L 147.691536 435.318066 
L 147.952808 435.094041 
L 148.054902 434.994041 
L 148.281193 434.791939 
L 148.407982 434.670016 
L 148.609578 434.491939 
L 148.763786 434.345991 
L 148.937963 434.193567 
L 149.12182 434.021966 
L 149.266348 433.896463 
L 149.479421 433.697941 
L 149.594733 433.595489 
L 149.838435 433.373916 
L 149.923118 433.307456 
L 150.227382 433.049891 
L 150.251503 433.030988 
L 150.579888 432.840716 
L 150.667935 433.049891 
L 150.579888 433.173405 
L 150.430268 433.373916 
L 150.251503 433.596788 
L 150.163917 433.697941 
L 149.923118 433.988366 
L 149.893095 434.021966 
L 149.606675 434.345991 
L 149.594733 434.360224 
L 149.303086 434.670016 
L 149.266348 434.713102 
L 148.994581 434.994041 
L 148.937963 435.059134 
L 148.678311 435.318066 
L 148.609578 435.395098 
L 148.350075 435.642091 
L 148.281193 435.716797 
L 148.002288 435.966116 
L 147.952808 436.033782 
L 147.712991 436.290141 
L 147.624423 436.372711 
L 147.296038 436.601024 
L 147.278337 436.614166 
L 146.967653 436.89323 
L 146.911167 436.938191 
L 146.639268 437.10598 
L 146.39476 437.262216 
L 146.310883 437.313889 
L 145.982498 437.492932 
L 145.838341 437.586241 
L 145.654113 437.666575 
" style="fill:none;stroke:#e41a1c;stroke-width:1.142857;"/>
    <path clip-path="url(#p198225a3fa)" d="M 121.35362 436.993499 
L 121.315661 436.938191 
L 121.35362 436.889607 
L 121.429439 436.938191 
L 121.35362 436.993499 
" style="fill:none;stroke:#e41a1c;stroke-width:1.142857;"/>
    <path clip-path="url(#p198225a3fa)" d="M 123.9807 433.377552 
L 123.982885 433.373916 
L 123.9807 433.37051 
L 123.960696 433.373916 
L 123.9807 433.377552 
" style="fill:none;stroke:#e41a1c;stroke-width:1.142857;"/>
    <path clip-path="url(#p198225a3fa)" d="M 150.908273 432.739293 
L 150.850181 432.725865 
L 150.908273 432.70242 
L 150.918078 432.725865 
L 150.908273 432.739293 
" style="fill:none;stroke:#e41a1c;stroke-width:1.142857;"/>
    <path clip-path="url(#p198225a3fa)" d="M 130.548401 429.201855 
L 130.600451 429.16159 
L 130.548401 429.027575 
L 130.456592 429.16159 
L 130.548401 429.201855 
" style="fill:none;stroke:#e41a1c;stroke-width:1.142857;"/>
    <path clip-path="url(#p198225a3fa)" d="M 162.073365 423.458627 
L 161.842532 423.32914 
L 162.153817 422.68109 
L 163.165422 421.38499 
L 165.451704 418.792789 
L 167.984295 416.28369 
L 172.31396 412.312289 
L 175.208766 409.613716 
L 182.104852 402.909521 
L 182.400208 402.915563 
L 181.238282 404.211663 
L 173.442612 411.988264 
L 169.448679 416.524614 
L 167.468293 418.792789 
L 165.02883 421.281627 
L 163.05852 423.04179 
L 162.073365 423.458627 
L 162.073365 423.458627 
" style="fill:none;stroke:#e41a1c;stroke-width:1.142857;"/>
    <path clip-path="url(#p198225a3fa)" d="M 147.624423 414.679726 
L 147.430717 414.580464 
L 147.624423 414.402445 
L 147.715461 414.580464 
L 147.624423 414.679726 
" style="fill:none;stroke:#e41a1c;stroke-width:1.142857;"/>
    <path clip-path="url(#p198225a3fa)" d="M 147.952808 414.327293 
L 147.798205 414.256439 
L 147.952808 414.112655 
L 148.018007 414.256439 
L 147.952808 414.327293 
" style="fill:none;stroke:#e41a1c;stroke-width:1.142857;"/>
    <path clip-path="url(#p198225a3fa)" d="M 148.281193 413.977957 
L 148.167913 413.932414 
L 148.281193 413.826182 
L 148.3238 413.932414 
L 148.281193 413.977957 
" style="fill:none;stroke:#e41a1c;stroke-width:1.142857;"/>
    <path clip-path="url(#p198225a3fa)" d="M 148.609578 413.630798 
L 148.545366 413.608389 
L 148.609578 413.547728 
L 148.630474 413.608389 
L 148.609578 413.630798 
" style="fill:none;stroke:#e41a1c;stroke-width:1.142857;"/>
    <path clip-path="url(#p198225a3fa)" d="M 148.937963 413.285187 
L 148.935152 413.284364 
L 148.937963 413.281695 
L 148.938732 413.284364 
L 148.937963 413.285187 
" style="fill:none;stroke:#e41a1c;stroke-width:1.142857;"/>
    <path clip-path="url(#p198225a3fa)" d="M 199.837644 387.526004 
L 199.935959 387.362362 
L 199.837644 387.300165 
L 199.759062 387.362362 
L 199.837644 387.526004 
" style="fill:none;stroke:#e41a1c;stroke-width:1.142857;"/>
    <path clip-path="url(#p198225a3fa)" d="M 214.943355 366.324909 
L 214.921166 366.300735 
L 214.943355 366.275601 
L 214.985743 366.300735 
L 214.943355 366.324909 
" style="fill:none;stroke:#e41a1c;stroke-width:1.142857;"/>
    <path clip-path="url(#p198225a3fa)" d="M 218.555591 360.948451 
L 218.501484 360.79231 
L 218.555591 360.716853 
L 218.792131 360.79231 
L 218.555591 360.948451 
" style="fill:none;stroke:#e41a1c;stroke-width:1.142857;"/>
   </g>
   <g id="LineCollection_2">
    <path clip-path="url(#p198225a3fa)" d="M 66.513319 491.228489 
L 67.170089 490.872811 
L 71.776514 487.486095 
L 72.095865 487.384229 
L 72.326053 487.486095 
L 72.42425 487.984195 
L 73.08102 487.719429 
L 74.39456 486.789563 
L 76.712898 484.56987 
L 82.185237 478.737419 
L 89.171886 470.798296 
L 90.710336 469.016668 
L 91.892964 467.396543 
L 91.970044 467.072518 
L 91.798967 466.981919 
L 90.909226 467.396543 
L 90.157042 467.864773 
L 86.713571 470.636794 
L 85.231266 471.976363 
L 75.379715 481.511653 
L 70.066902 486.838045 
L 69.140399 487.845084 
L 67.1115 490.078295 
L 66.416359 491.05037 
L 66.513319 491.228489 
L 66.513319 491.228489 
" style="fill:none;stroke:#e41a1c;stroke-width:1.142857;"/>
    <path clip-path="url(#p198225a3fa)" d="M 81.619031 481.013767 
L 82.025606 481.005594 
L 83.260956 480.211011 
L 84.246111 479.641859 
L 84.451703 479.709494 
L 84.30828 480.357544 
L 84.574496 480.486828 
L 85.328355 480.357544 
L 85.559651 480.52785 
L 86.216421 480.258269 
L 87.529961 479.273358 
L 90.485427 476.722044 
L 94.184354 473.553019 
L 95.411202 472.643743 
L 95.51144 472.904969 
L 94.226292 474.849119 
L 94.466435 474.849119 
L 96.6013 473.228994 
L 100.336978 470.15576 
L 101.650518 469.212349 
L 101.868919 469.340693 
L 101.650518 470.098844 
L 102.018635 469.988743 
L 103.646181 468.692643 
L 108.47993 464.480318 
L 110.188529 463.125896 
L 111.173684 462.469882 
L 112.487224 461.486275 
L 114.785919 459.482357 
L 118.085963 456.703717 
L 118.72654 456.322914 
L 118.990553 456.379692 
L 119.054925 456.842581 
L 119.38331 456.93253 
L 119.711695 456.905076 
L 119.849669 457.027742 
L 119.711695 457.78713 
L 120.204247 457.675792 
L 121.025235 457.090266 
L 125.762948 452.815417 
L 129.563246 448.883676 
L 134.169497 444.066741 
L 135.145792 443.244092 
L 135.267978 443.418691 
L 132.190326 446.661023 
L 128.773353 450.223217 
L 128.610534 450.547242 
L 128.96281 450.547242 
L 134.160636 447.067323 
L 134.588895 447.306992 
L 135.145792 446.982547 
L 137.509692 444.714791 
L 141.846905 440.178441 
L 144.012187 437.886538 
L 148.937963 433.265255 
L 151.565043 431.066413 
L 156.632522 426.56939 
L 158.87489 424.62524 
L 160.431439 422.986823 
L 163.71529 419.646305 
L 167.327525 416.193837 
L 175.807768 408.423989 
L 185.060317 399.09781 
L 186.373857 397.670933 
L 187.359012 396.320829 
L 189.000937 394.353587 
L 192.613173 390.276597 
L 196.916861 385.418212 
L 200.39684 381.853936 
L 207.89083 374.077336 
L 208.578292 373.105261 
L 208.375655 372.989371 
L 207.317303 373.429286 
L 207.3905 373.036534 
L 208.70404 371.30868 
L 209.76315 369.86501 
L 211.33112 367.474309 
L 213.9582 364.105199 
L 215.03657 362.73646 
L 217.124306 360.468285 
L 223.481366 353.820398 
L 231.045935 345.563133 
L 231.457722 344.915083 
L 231.362607 344.667668 
L 231.034222 344.725154 
L 230.779367 344.591058 
L 231.359045 342.970933 
L 231.131724 342.646908 
L 231.711349 341.674833 
L 233.989687 338.724458 
L 234.318073 338.081215 
L 234.666345 337.138483 
L 235.639891 335.842383 
L 238.063122 333.250182 
L 248.110244 322.801327 
L 248.274288 322.557357 
L 248.110244 322.365224 
L 246.796704 323.115285 
L 246.625364 322.881382 
L 247.125089 322.090892 
L 249.385204 318.993081 
L 250.762388 317.048931 
L 250.892813 316.724906 
L 250.737324 316.585901 
L 250.080554 316.876886 
L 249.833135 316.724906 
L 250.737324 315.331954 
L 251.786775 313.808681 
L 251.87923 313.484656 
L 251.722479 313.135402 
L 253.69279 310.849778 
L 258.139419 306.03208 
L 261.330543 302.14378 
L 261.643046 301.49573 
L 261.574031 301.397048 
L 259.591482 303.115855 
L 253.922334 308.624281 
L 241.311938 320.289181 
L 231.90544 330.009932 
L 222.696059 340.378733 
L 221.497119 341.998858 
L 221.511056 342.144761 
L 221.866479 342.322883 
L 221.839441 342.379108 
L 221.495793 342.970933 
L 219.540746 345.041283 
L 215.600125 348.880212 
L 210.67435 353.677536 
L 207.985506 356.579984 
L 202.464724 362.507865 
L 192.584506 372.457211 
L 192.399854 373.105261 
L 191.188575 374.401361 
L 189.657708 375.7698 
L 174.483762 390.602612 
L 172.253301 393.245004 
L 170.804842 395.462987 
L 170.166761 396.435063 
L 166.877396 399.999338 
L 164.37206 402.394987 
L 163.386905 403.252911 
L 163.05852 403.348436 
L 162.991087 403.239588 
L 163.286057 402.591538 
L 164.236056 400.971413 
L 164.043675 400.683101 
L 162.073365 402.106057 
L 156.623849 407.775938 
L 153.369094 411.016189 
L 148.243022 415.552539 
L 137.444487 426.033298 
L 134.156403 428.837565 
L 132.847096 429.616569 
L 130.193148 431.75379 
L 122.01039 438.905909 
L 121.682005 439.017157 
L 121.459388 438.882341 
L 121.35362 438.173553 
L 120.317303 438.882341 
L 117.084615 441.829387 
L 112.815609 445.728456 
L 107.561448 450.630573 
L 103.043165 455.407617 
L 101.650518 457.263317 
L 101.650518 457.404163 
L 102.761113 456.703717 
L 105.181936 454.759567 
L 105.591138 454.416351 
L 105.919523 454.340116 
L 105.919523 454.448887 
L 102.984406 457.999818 
L 102.794155 458.323843 
L 102.964058 458.512932 
L 103.72724 457.999818 
L 105.591138 456.477794 
L 107.233063 455.068409 
L 107.443602 455.083592 
L 107.233063 455.442066 
L 101.782653 460.916043 
L 95.390624 466.748493 
L 92.455737 469.471325 
L 87.38571 474.525094 
L 82.096067 480.357544 
L 81.619031 481.013767 
L 81.619031 481.013767 
" style="fill:none;stroke:#e41a1c;stroke-width:1.142857;"/>
    <path clip-path="url(#p198225a3fa)" d="M 95.739587 472.590971 
L 95.663352 472.580944 
L 95.739587 472.559641 
L 95.747 472.580944 
L 95.739587 472.590971 
" style="fill:none;stroke:#e41a1c;stroke-width:1.142857;"/>
    <path clip-path="url(#p198225a3fa)" d="M 102.635673 458.658503 
L 102.655776 458.647868 
L 102.635673 458.632471 
L 102.626891 458.647868 
L 102.635673 458.658503 
" style="fill:none;stroke:#e41a1c;stroke-width:1.142857;"/>
    <path clip-path="url(#p198225a3fa)" d="M 108.546604 447.987662 
L 108.597836 447.955042 
L 108.546604 447.873797 
L 108.496957 447.955042 
L 108.546604 447.987662 
" style="fill:none;stroke:#e41a1c;stroke-width:1.142857;"/>
    <path clip-path="url(#p198225a3fa)" d="M 108.874989 447.7827 
L 110.188529 446.827958 
L 114.129149 443.402936 
L 118.147692 439.530391 
L 120.368465 437.060952 
L 120.69685 436.508267 
L 120.316968 436.614166 
L 118.06977 438.404871 
L 112.974038 443.094666 
L 109.458026 446.658942 
L 108.673231 447.631017 
L 108.874989 447.7827 
L 108.874989 447.7827 
" style="fill:none;stroke:#e41a1c;stroke-width:1.142857;"/>
    <path clip-path="url(#p198225a3fa)" d="M 135.474177 443.186728 
L 135.330008 443.094666 
L 135.474177 442.981495 
L 135.557237 443.094666 
L 135.474177 443.186728 
" style="fill:none;stroke:#e41a1c;stroke-width:1.142857;"/>
    <path clip-path="url(#p198225a3fa)" d="M 135.802562 442.815367 
L 135.736076 442.770641 
L 135.802562 442.721711 
L 135.842702 442.770641 
L 135.802562 442.815367 
" style="fill:none;stroke:#e41a1c;stroke-width:1.142857;"/>
    <path clip-path="url(#p198225a3fa)" d="M 151.236658 434.376942 
L 151.276409 434.345991 
L 151.565043 434.133942 
L 151.705307 434.021966 
L 151.893428 433.879373 
L 152.115142 433.697941 
L 152.221813 433.614529 
L 152.508751 433.373916 
L 152.550198 433.340488 
L 152.878583 433.054651 
L 152.883628 433.049891 
L 153.206969 432.753732 
L 153.236265 432.725865 
L 153.535354 432.447865 
L 153.586109 432.40184 
L 153.863739 432.151098 
L 153.940399 432.077815 
L 154.192124 431.838691 
L 154.280363 431.75379 
L 154.520509 431.522636 
L 154.616403 431.429765 
L 154.848894 431.202821 
L 154.948487 431.10574 
L 155.177279 430.879238 
L 155.276683 430.781715 
L 155.505664 430.55178 
L 155.600954 430.45769 
L 155.834049 430.220224 
L 155.921149 430.133665 
L 156.162434 429.884216 
L 156.236989 429.80964 
L 156.490819 429.543234 
L 156.54804 429.485615 
L 156.819204 429.196543 
L 156.853679 429.16159 
L 157.147589 428.843126 
L 157.153035 428.837565 
L 157.431475 428.51354 
L 157.475974 428.455358 
L 157.695011 428.189515 
L 157.804359 428.039533 
L 157.942745 427.86549 
L 158.132744 427.590288 
L 158.169997 427.541465 
L 158.132744 427.318532 
L 157.804359 427.356264 
L 157.475974 427.498084 
L 157.399227 427.541465 
L 157.147589 427.654518 
L 156.850564 427.86549 
L 156.819204 427.883899 
L 156.490819 428.12563 
L 156.432389 428.189515 
L 156.162434 428.415864 
L 156.076244 428.51354 
L 155.834049 428.73794 
L 155.748062 428.837565 
L 155.505664 429.077091 
L 155.433569 429.16159 
L 155.177279 429.426828 
L 155.127603 429.485615 
L 154.848894 429.784456 
L 154.827754 429.80964 
L 154.531535 430.133665 
L 154.520509 430.144929 
L 154.236472 430.45769 
L 154.192124 430.50446 
L 153.927856 430.781715 
L 153.863739 430.848577 
L 153.635848 431.10574 
L 153.535354 431.217396 
L 153.349404 431.429765 
L 153.206969 431.591298 
L 153.066181 431.75379 
L 152.878583 431.971095 
L 152.77712 432.077815 
L 152.550198 432.327369 
L 152.486146 432.40184 
L 152.221813 432.718386 
L 152.215424 432.725865 
L 151.953508 433.049891 
L 151.893428 433.127469 
L 151.697946 433.373916 
L 151.565043 433.550163 
L 151.449496 433.697941 
L 151.236658 433.987986 
L 151.210498 434.021966 
L 151.130177 434.345991 
L 151.236658 434.376942 
" style="fill:none;stroke:#e41a1c;stroke-width:1.142857;"/>
    <path clip-path="url(#p198225a3fa)" d="M 173.238456 413.353052 
L 173.32807 413.284364 
L 173.238456 413.210002 
L 173.184577 413.284364 
L 173.238456 413.353052 
" style="fill:none;stroke:#e41a1c;stroke-width:1.142857;"/>
    <path clip-path="url(#p198225a3fa)" d="M 173.566841 413.122354 
L 173.769148 412.960339 
L 173.895226 412.869003 
L 174.175531 412.636314 
L 174.223611 412.599527 
L 174.551996 412.315274 
L 174.555098 412.312289 
L 174.880381 412.008915 
L 174.901768 411.988264 
L 175.208766 411.698729 
L 175.244353 411.664239 
L 175.537151 411.388023 
L 175.586416 411.340214 
L 175.865536 411.071186 
L 175.921829 411.016189 
L 176.193921 410.750731 
L 176.25359 410.692164 
L 176.522306 410.426675 
L 176.581645 410.368139 
L 176.850691 410.098826 
L 176.905853 410.044114 
L 177.179076 409.766865 
L 177.22596 409.720089 
L 177.507461 409.399855 
L 177.510943 409.396064 
L 177.820379 409.072039 
L 177.835846 409.054784 
L 178.143316 408.748014 
L 178.164231 408.724897 
L 178.436134 408.423989 
L 178.492616 408.355908 
L 178.716705 408.099964 
L 178.821001 407.98266 
L 179.007582 407.775938 
L 179.149386 407.595175 
L 179.268979 407.451913 
L 179.149386 407.249741 
L 178.823006 407.451913 
L 178.821001 407.453108 
L 178.492616 407.737521 
L 178.450993 407.775938 
L 178.164231 408.046788 
L 178.110506 408.099964 
L 177.835846 408.347558 
L 177.753844 408.423989 
L 177.507461 408.647304 
L 177.400712 408.748014 
L 177.179076 408.953106 
L 177.054572 409.072039 
L 176.850691 409.264701 
L 176.714929 409.396064 
L 176.522306 409.572694 
L 176.369334 409.720089 
L 176.193921 409.891534 
L 176.039894 410.044114 
L 175.865536 410.218081 
L 175.716319 410.368139 
L 175.537151 410.550367 
L 175.397659 410.692164 
L 175.208766 410.888159 
L 175.084535 411.016189 
L 174.880381 411.232194 
L 174.776892 411.340214 
L 174.551996 411.594979 
L 174.489875 411.664239 
L 174.223611 411.954297 
L 174.191591 411.988264 
L 173.905012 412.312289 
L 173.895226 412.325093 
L 173.661213 412.636314 
L 173.566841 412.762795 
L 173.42154 412.960339 
L 173.566841 413.122354 
" style="fill:none;stroke:#e41a1c;stroke-width:1.142857;"/>
    <path clip-path="url(#p198225a3fa)" d="M 179.477771 407.174949 
L 179.515805 407.127888 
L 179.477771 407.064696 
L 179.369457 407.127888 
L 179.477771 407.174949 
" style="fill:none;stroke:#e41a1c;stroke-width:1.142857;"/>
    <path clip-path="url(#p198225a3fa)" d="M 215.600125 360.129677 
L 215.563133 359.820235 
L 215.600125 359.768616 
L 215.823347 359.49621 
L 215.92851 359.352415 
L 216.067024 359.172185 
L 216.256896 358.918427 
L 216.311772 358.84816 
L 216.566137 358.524135 
L 216.585281 358.50195 
L 216.85923 358.200109 
L 216.913666 358.13876 
L 217.159924 357.876084 
L 217.242051 357.787922 
L 217.465572 357.552059 
L 217.570436 357.4373 
L 217.770987 357.228034 
L 217.898821 357.091451 
L 218.080983 356.904009 
L 218.227206 356.7461 
L 218.387413 356.579984 
L 218.555591 356.416604 
L 218.722425 356.255959 
L 218.883976 356.101613 
L 219.064943 355.931934 
L 219.212361 355.78973 
L 219.40434 355.607909 
L 219.540746 355.474815 
L 219.738285 355.283884 
L 219.869131 355.158542 
L 220.081385 354.959859 
L 220.197516 354.85383 
L 220.44027 354.635834 
L 220.525901 354.560149 
L 220.806484 354.311809 
L 220.854286 354.2694 
L 221.167289 353.987784 
L 221.182671 353.973569 
L 221.511056 353.71559 
L 221.576187 353.663759 
L 221.839441 353.464112 
L 222.002267 353.339734 
L 222.167826 353.21796 
L 222.436153 353.339734 
L 222.187255 353.663759 
L 222.167826 353.685387 
L 221.914486 353.987784 
L 221.839441 354.071873 
L 221.624125 354.311809 
L 221.511056 354.432382 
L 221.337467 354.635834 
L 221.182671 354.80764 
L 221.042915 354.959859 
L 220.854286 355.148435 
L 220.728985 355.283884 
L 220.525901 355.492293 
L 220.420046 355.607909 
L 220.197516 355.851247 
L 220.118902 355.931934 
L 219.869131 356.177826 
L 219.79426 356.255959 
L 219.540746 356.516611 
L 219.479954 356.579984 
L 219.212361 356.85425 
L 219.163916 356.904009 
L 218.883976 357.175632 
L 218.829419 357.228034 
L 218.555591 357.497902 
L 218.500775 357.552059 
L 218.227206 357.820561 
L 218.169997 357.876084 
L 217.898821 358.129893 
L 217.825466 358.200109 
L 217.570436 358.445087 
L 217.486874 358.524135 
L 217.242051 358.76185 
L 217.146535 358.84816 
L 216.913666 359.054795 
L 216.772445 359.172185 
L 216.585281 359.33024 
L 216.381973 359.49621 
L 216.256896 359.601795 
L 216.003354 359.820235 
L 215.92851 359.884242 
L 215.600125 360.129677 
" style="fill:none;stroke:#e41a1c;stroke-width:1.142857;"/>
    <path clip-path="url(#p198225a3fa)" d="M 222.496211 353.218424 
L 222.435852 353.015709 
L 222.496211 352.969282 
L 222.587341 353.015709 
L 222.496211 353.218424 
" style="fill:none;stroke:#e41a1c;stroke-width:1.142857;"/>
    <path clip-path="url(#p198225a3fa)" d="M 246.468319 323.208573 
L 246.465783 323.205407 
L 246.468319 323.200776 
L 246.479267 323.205407 
L 246.468319 323.208573 
" style="fill:none;stroke:#e41a1c;stroke-width:1.142857;"/>
    <path clip-path="url(#p198225a3fa)" d="M 248.438629 322.299303 
L 248.477807 322.233332 
L 248.438629 322.188308 
L 248.349402 322.233332 
L 248.438629 322.299303 
" style="fill:none;stroke:#e41a1c;stroke-width:1.142857;"/>
   </g>
   <g id="LineCollection_3">
    <path clip-path="url(#p198225a3fa)" d="M 70.453939 487.19474 
L 70.845127 487.16207 
L 74.39456 484.412246 
L 81.413435 478.413394 
L 83.978699 475.821194 
L 87.909226 471.608869 
L 89.213441 469.988743 
L 89.375449 469.664718 
L 89.171886 469.439091 
L 88.515116 469.756325 
L 87.201576 470.692167 
L 84.574496 472.944164 
L 78.542637 478.737419 
L 70.722422 486.838045 
L 70.453939 487.19474 
L 70.453939 487.19474 
" style="fill:none;stroke:#e41a1c;stroke-width:1.142857;"/>
    <path clip-path="url(#p198225a3fa)" d="M 87.858346 475.334254 
L 88.70153 474.849119 
L 92.127352 472.532931 
L 95.411202 469.634459 
L 97.381512 467.96881 
L 97.546412 468.044593 
L 97.235766 468.692643 
L 96.989403 469.340693 
L 97.113867 469.340693 
L 98.112583 468.692643 
L 100.665363 466.558008 
L 106.03849 461.888118 
L 105.919523 462.547499 
L 104.934368 464.033455 
L 104.3936 464.804343 
L 104.18965 465.128368 
L 104.277598 465.433547 
L 105.919523 464.21536 
L 108.546604 462.173108 
L 108.717413 462.212143 
L 108.546604 463.222092 
L 108.607859 463.184218 
L 109.573405 462.536168 
L 113.143994 459.424717 
L 119.51138 453.787492 
L 123.32393 450.415277 
L 129.563246 444.812064 
L 131.861941 443.075749 
L 132.190326 442.980552 
L 132.190326 443.217948 
L 131.234102 444.714791 
L 131.580079 444.714791 
L 140.152263 437.262216 
L 147.952808 429.980027 
L 151.893428 426.346192 
L 154.848894 423.803361 
L 162.40175 417.04852 
L 166.34237 413.536854 
L 167.104273 412.960339 
L 170.718721 409.720089 
L 174.971922 405.507763 
L 178.236941 401.943488 
L 178.707626 401.295438 
L 178.84605 400.971413 
L 181.377476 398.055188 
L 186.373857 393.088482 
L 188.548848 390.926637 
L 189.660689 389.630537 
L 190.115033 388.658462 
L 190.642863 387.952983 
L 197.952144 379.585761 
L 200.822799 376.213532 
L 202.534837 374.401361 
L 206.17187 370.51306 
L 208.070648 368.244885 
L 209.811522 365.652685 
L 211.80684 362.412435 
L 211.518654 361.764385 
L 211.98789 360.693619 
L 210.67435 361.535903 
L 210.345965 361.609613 
L 210.345965 361.354177 
L 211.440458 360.14426 
L 219.920904 351.719609 
L 221.555324 350.099484 
L 227.421987 344.498812 
L 228.40847 343.294958 
L 228.407142 342.911051 
L 227.421987 343.534092 
L 225.780062 344.939293 
L 223.481366 346.928974 
L 223.152981 346.969633 
L 223.152981 346.833471 
L 223.809751 346.061197 
L 224.910885 344.915083 
L 226.806574 342.970933 
L 231.150127 338.434583 
L 231.034222 338.181499 
L 229.720682 338.876513 
L 229.604946 338.758608 
L 230.264072 337.786533 
L 232.347762 335.160227 
L 234.646458 332.462979 
L 235.798372 331.306032 
L 236.622513 330.333957 
L 236.672927 330.009932 
L 237.273538 329.227967 
L 243.184469 322.792957 
L 245.07954 320.613206 
L 244.826394 320.496459 
L 241.542543 323.552056 
L 236.16359 328.713832 
L 233.210109 331.306032 
L 232.347762 331.932326 
L 232.18893 331.630057 
L 232.676147 330.937176 
L 233.989687 329.566237 
L 236.803165 326.769682 
L 252.050865 311.837901 
L 253.772297 309.920381 
L 253.69279 309.693225 
L 252.579265 310.568431 
L 243.038725 318.993081 
L 238.550463 323.529432 
L 232.418187 330.009932 
L 231.690992 330.933307 
L 230.663309 332.278107 
L 229.063912 334.145105 
L 225.478091 338.110558 
L 225.780062 338.199671 
L 227.093602 337.392926 
L 227.162353 337.462508 
L 226.207794 338.758608 
L 223.152981 342.148997 
L 219.868628 345.563133 
L 214.576507 350.747534 
L 212.316275 353.070044 
L 209.266289 356.579984 
L 203.778264 362.364612 
L 203.121494 363.274586 
L 203.052672 363.38451 
L 202.793109 364.389717 
L 201.151184 366.357775 
L 196.881539 371.161111 
L 196.813565 371.809161 
L 195.37996 374.077336 
L 193.875567 376.021486 
L 192.613173 377.338279 
L 188.672552 380.892928 
L 184.731932 384.467628 
L 181.776467 387.247678 
L 177.131537 391.898712 
L 169.62622 400.011554 
L 165.317432 404.211663 
L 159.117899 410.144156 
L 156.687278 412.636314 
L 152.07688 418.144739 
L 140.728337 429.859976 
L 138.227466 432.077815 
L 135.03997 434.670016 
L 134.817406 434.80337 
L 134.528732 434.670016 
L 135.211103 433.697941 
L 136.637634 432.077815 
L 151.658302 417.172664 
L 151.565043 416.957503 
L 150.873756 417.496689 
L 141.003751 426.245365 
L 137.38671 429.80964 
L 129.234861 438.125346 
L 127.546361 439.530391 
L 124.92469 441.474541 
L 123.9807 442.02795 
L 123.84046 441.798566 
L 125.470447 439.854416 
L 128.279813 436.614166 
L 128.470516 436.290141 
L 128.249706 436.171188 
L 127.264551 436.765126 
L 125.222274 438.234291 
L 122.995545 440.061484 
L 119.38331 443.477474 
L 115.977924 446.982967 
L 111.78681 451.843342 
L 111.674763 452.167367 
L 111.859334 452.167367 
L 114.129149 450.461958 
L 114.256878 450.547242 
L 112.815609 452.21421 
L 110.026417 455.083592 
L 104.605983 460.442827 
L 103.620828 461.360486 
L 103.355473 461.240068 
L 104.277598 460.144236 
L 106.689936 457.351767 
L 106.576293 457.133604 
L 103.14643 460.267993 
L 98.038282 464.984713 
L 91.842728 470.636794 
L 88.718829 473.877044 
L 87.718706 475.173144 
L 87.858346 475.334254 
L 87.858346 475.334254 
" style="fill:none;stroke:#e41a1c;stroke-width:1.142857;"/>
    <path clip-path="url(#p198225a3fa)" d="M 102.635673 462.222513 
L 102.624294 462.212143 
L 102.635673 462.196004 
L 102.646374 462.212143 
L 102.635673 462.222513 
" style="fill:none;stroke:#e41a1c;stroke-width:1.142857;"/>
    <path clip-path="url(#p198225a3fa)" d="M 102.964058 461.94656 
L 102.88029 461.888118 
L 102.964058 461.769151 
L 103.024367 461.888118 
L 102.964058 461.94656 
" style="fill:none;stroke:#e41a1c;stroke-width:1.142857;"/>
    <path clip-path="url(#p198225a3fa)" d="M 103.292443 461.656814 
L 103.125525 461.564093 
L 103.292443 461.322809 
L 103.387875 461.564093 
L 103.292443 461.656814 
" style="fill:none;stroke:#e41a1c;stroke-width:1.142857;"/>
    <path clip-path="url(#p198225a3fa)" d="M 106.904678 457.112471 
L 106.984521 457.027742 
L 106.904678 456.88134 
L 106.714338 457.027742 
L 106.904678 457.112471 
" style="fill:none;stroke:#e41a1c;stroke-width:1.142857;"/>
    <path clip-path="url(#p198225a3fa)" d="M 107.233063 456.731681 
L 107.255096 456.703717 
L 107.233063 456.648942 
L 107.169006 456.703717 
L 107.233063 456.731681 
" style="fill:none;stroke:#e41a1c;stroke-width:1.142857;"/>
    <path clip-path="url(#p198225a3fa)" d="M 114.457534 450.240347 
L 114.44756 450.223217 
L 114.457534 450.216168 
L 114.470749 450.223217 
L 114.457534 450.240347 
" style="fill:none;stroke:#e41a1c;stroke-width:1.142857;"/>
    <path clip-path="url(#p198225a3fa)" d="M 123.652315 442.138128 
L 123.638309 442.122591 
L 123.652315 442.103772 
L 123.707159 442.122591 
L 123.652315 442.138128 
" style="fill:none;stroke:#e41a1c;stroke-width:1.142857;"/>
    <path clip-path="url(#p198225a3fa)" d="M 134.489021 435.00283 
L 134.472364 434.994041 
L 134.489021 434.886612 
L 134.503978 434.994041 
L 134.489021 435.00283 
" style="fill:none;stroke:#e41a1c;stroke-width:1.142857;"/>
    <path clip-path="url(#p198225a3fa)" d="M 151.893428 416.903819 
L 151.949256 416.848639 
L 151.893428 416.736875 
L 151.727389 416.848639 
L 151.893428 416.903819 
" style="fill:none;stroke:#e41a1c;stroke-width:1.142857;"/>
    <path clip-path="url(#p198225a3fa)" d="M 152.221813 416.554905 
L 152.253781 416.524614 
L 152.221813 416.482901 
L 152.153002 416.524614 
L 152.221813 416.554905 
" style="fill:none;stroke:#e41a1c;stroke-width:1.142857;"/>
    <path clip-path="url(#p198225a3fa)" d="M 212.316275 360.527247 
L 212.37156 360.468285 
L 212.316275 360.38978 
L 212.246753 360.468285 
L 212.316275 360.527247 
" style="fill:none;stroke:#e41a1c;stroke-width:1.142857;"/>
    <path clip-path="url(#p198225a3fa)" d="M 212.64466 360.238659 
L 212.726746 360.14426 
L 212.64466 360.029814 
L 212.515376 360.14426 
L 212.64466 360.238659 
" style="fill:none;stroke:#e41a1c;stroke-width:1.142857;"/>
    <path clip-path="url(#p198225a3fa)" d="M 212.973045 359.886255 
L 213.025462 359.820235 
L 212.973045 359.747028 
L 212.876036 359.820235 
L 212.973045 359.886255 
" style="fill:none;stroke:#e41a1c;stroke-width:1.142857;"/>
    <path clip-path="url(#p198225a3fa)" d="M 213.30143 359.51379 
L 213.317016 359.49621 
L 213.30143 359.469858 
L 213.274826 359.49621 
L 213.30143 359.51379 
" style="fill:none;stroke:#e41a1c;stroke-width:1.142857;"/>
    <path clip-path="url(#p198225a3fa)" d="M 213.629815 359.179673 
L 213.636976 359.172185 
L 213.629815 359.160451 
L 213.616569 359.172185 
L 213.629815 359.179673 
" style="fill:none;stroke:#e41a1c;stroke-width:1.142857;"/>
    <path clip-path="url(#p198225a3fa)" d="M 213.9582 358.868991 
L 213.977815 358.84816 
L 213.9582 358.803036 
L 213.924117 358.84816 
L 213.9582 358.868991 
" style="fill:none;stroke:#e41a1c;stroke-width:1.142857;"/>
    <path clip-path="url(#p198225a3fa)" d="M 214.286585 358.599864 
L 214.367758 358.524135 
L 214.286585 358.383678 
L 214.143018 358.524135 
L 214.286585 358.599864 
" style="fill:none;stroke:#e41a1c;stroke-width:1.142857;"/>
    <path clip-path="url(#p198225a3fa)" d="M 214.61497 358.25069 
L 214.667586 358.200109 
L 214.61497 358.118162 
L 214.516059 358.200109 
L 214.61497 358.25069 
" style="fill:none;stroke:#e41a1c;stroke-width:1.142857;"/>
    <path clip-path="url(#p198225a3fa)" d="M 214.943355 357.943304 
L 215.011394 357.876084 
L 214.943355 357.771711 
L 214.839214 357.876084 
L 214.943355 357.943304 
" style="fill:none;stroke:#e41a1c;stroke-width:1.142857;"/>
    <path clip-path="url(#p198225a3fa)" d="M 215.27174 357.621649 
L 215.343172 357.552059 
L 215.27174 357.449977 
L 215.162673 357.552059 
L 215.27174 357.621649 
" style="fill:none;stroke:#e41a1c;stroke-width:1.142857;"/>
    <path clip-path="url(#p198225a3fa)" d="M 215.600125 357.305811 
L 215.682593 357.228034 
L 215.600125 357.104283 
L 215.487417 357.228034 
L 215.600125 357.305811 
" style="fill:none;stroke:#e41a1c;stroke-width:1.142857;"/>
    <path clip-path="url(#p198225a3fa)" d="M 215.92851 356.997527 
L 216.014725 356.904009 
L 215.92851 356.773065 
L 215.788037 356.904009 
L 215.92851 356.997527 
" style="fill:none;stroke:#e41a1c;stroke-width:1.142857;"/>
    <path clip-path="url(#p198225a3fa)" d="M 216.256896 356.645795 
L 216.323733 356.579984 
L 216.256896 356.483157 
L 216.149568 356.579984 
L 216.256896 356.645795 
" style="fill:none;stroke:#e41a1c;stroke-width:1.142857;"/>
    <path clip-path="url(#p198225a3fa)" d="M 216.585281 356.308957 
L 216.635479 356.255959 
L 216.585281 356.174605 
L 216.504526 356.255959 
L 216.585281 356.308957 
" style="fill:none;stroke:#e41a1c;stroke-width:1.142857;"/>
    <path clip-path="url(#p198225a3fa)" d="M 216.913666 355.973202 
L 216.954364 355.931934 
L 216.913666 355.874257 
L 216.843619 355.931934 
L 216.913666 355.973202 
" style="fill:none;stroke:#e41a1c;stroke-width:1.142857;"/>
    <path clip-path="url(#p198225a3fa)" d="M 231.362607 338.129953 
L 231.379187 338.110558 
L 231.362607 338.089601 
L 231.266066 338.110558 
L 231.362607 338.129953 
" style="fill:none;stroke:#e41a1c;stroke-width:1.142857;"/>
    <path clip-path="url(#p198225a3fa)" d="M 245.154779 320.500595 
L 245.286748 320.289181 
L 245.154779 320.220687 
L 245.076254 320.289181 
L 245.154779 320.500595 
" style="fill:none;stroke:#e41a1c;stroke-width:1.142857;"/>
    <path clip-path="url(#p198225a3fa)" d="M 245.483164 319.991235 
L 245.499414 319.965156 
L 245.483164 319.955716 
L 245.472084 319.965156 
L 245.483164 319.991235 
" style="fill:none;stroke:#e41a1c;stroke-width:1.142857;"/>
    <path clip-path="url(#p198225a3fa)" d="M 254.021175 309.636067 
L 254.057072 309.596356 
L 254.021175 309.496379 
L 253.854934 309.596356 
L 254.021175 309.636067 
" style="fill:none;stroke:#e41a1c;stroke-width:1.142857;"/>
   </g>
   <g id="patch_3">
    <path d="M 35.289375 525.1 
L 35.289375 266.15 
" style="fill:none;stroke:#000000;stroke-linecap:square;stroke-linejoin:miter;stroke-width:0.8;"/>
   </g>
   <g id="patch_4">
    <path d="M 297.72375 525.1 
L 297.72375 266.15 
" style="fill:none;stroke:#000000;stroke-linecap:square;stroke-linejoin:miter;stroke-width:0.8;"/>
   </g>
   <g id="patch_5">
    <path d="M 35.289375 525.1 
L 297.72375 525.1 
" style="fill:none;stroke:#000000;stroke-linecap:square;stroke-linejoin:miter;stroke-width:0.8;"/>
   </g>
   <g id="patch_6">
    <path d="M 35.289375 266.15 
L 297.72375 266.15 
" style="fill:none;stroke:#000000;stroke-linecap:square;stroke-linejoin:miter;stroke-width:0.8;"/>
   </g>
  </g>
  <g id="axes_2">
   <g id="patch_7">
    <path d="M 35.289375 266.15 
L 297.72375 266.15 
L 297.72375 7.2 
L 35.289375 7.2 
z
" style="fill:#ffffff;"/>
   </g>
   <g id="matplotlib.axis_3">
    <g id="xtick_8">
     <g id="line2d_21">
      <g>
       <use style="stroke:#000000;stroke-width:0.8;" x="48.585537" xlink:href="#mf6d5e37a40" y="266.15"/>
      </g>
     </g>
    </g>
    <g id="xtick_9">
     <g id="line2d_22">
      <g>
       <use style="stroke:#000000;stroke-width:0.8;" x="87.666355" xlink:href="#mf6d5e37a40" y="266.15"/>
      </g>
     </g>
    </g>
    <g id="xtick_10">
     <g id="line2d_23">
      <g>
       <use style="stroke:#000000;stroke-width:0.8;" x="126.747174" xlink:href="#mf6d5e37a40" y="266.15"/>
      </g>
     </g>
    </g>
    <g id="xtick_11">
     <g id="line2d_24">
      <g>
       <use style="stroke:#000000;stroke-width:0.8;" x="165.827992" xlink:href="#mf6d5e37a40" y="266.15"/>
      </g>
     </g>
    </g>
    <g id="xtick_12">
     <g id="line2d_25">
      <g>
       <use style="stroke:#000000;stroke-width:0.8;" x="204.90881" xlink:href="#mf6d5e37a40" y="266.15"/>
      </g>
     </g>
    </g>
    <g id="xtick_13">
     <g id="line2d_26">
      <g>
       <use style="stroke:#000000;stroke-width:0.8;" x="243.989628" xlink:href="#mf6d5e37a40" y="266.15"/>
      </g>
     </g>
    </g>
    <g id="xtick_14">
     <g id="line2d_27">
      <g>
       <use style="stroke:#000000;stroke-width:0.8;" x="283.070447" xlink:href="#mf6d5e37a40" y="266.15"/>
      </g>
     </g>
    </g>
   </g>
   <g id="matplotlib.axis_4">
    <g id="ytick_4"/>
    <g id="ytick_5"/>
    <g id="ytick_6"/>
    <g id="ytick_7"/>
    <g id="ytick_8"/>
   </g>
   <g id="line2d_28">
    <path clip-path="url(#p8e0621a8d4)" d="M 35.212415 266.113817 
L 38.906506 265.98853 
L 40.137869 265.893859 
L 43.83196 265.573512 
L 46.910369 265.087109 
L 49.988778 264.244536 
L 51.835824 263.543831 
L 53.99071 262.43833 
L 55.529915 261.444219 
L 57.069119 260.277078 
L 58.300483 259.116684 
L 60.76321 256.242371 
L 62.610256 253.676356 
L 64.14946 251.240805 
L 65.688665 248.461757 
L 68.151392 243.211146 
L 70.92196 236.395984 
L 72.461165 232.186627 
L 75.847415 221.988938 
L 78.617983 212.724582 
L 81.08071 204.057662 
L 89.084574 174.677208 
L 97.396278 143.847408 
L 101.706051 128.276254 
L 103.860938 120.705817 
L 107.247187 109.027308 
L 114.327528 86.7125 
L 117.098097 79.156117 
L 117.405937 79.198842 
L 121.100028 70.800732 
L 122.639233 67.737146 
L 126.025483 62.062122 
L 126.333324 61.85985 
L 127.256847 60.537634 
L 127.872528 59.635406 
L 128.180369 61.658414 
L 129.103892 60.261405 
L 130.950937 57.728932 
L 131.258778 58.587108 
L 132.182301 57.259615 
L 133.413665 55.822686 
L 134.645028 54.866286 
L 135.876392 53.883184 
L 137.107756 53.055369 
L 137.415597 52.829613 
L 137.723437 52.789373 
L 138.954801 51.844053 
L 139.570483 51.670825 
L 140.494006 51.150065 
L 143.264574 49.659238 
L 144.188097 48.986123 
L 145.41946 48.482853 
L 146.035142 48.267459 
L 146.650824 47.653901 
L 147.266506 47.438453 
L 147.882187 47.097111 
L 148.497869 46.715155 
L 150.344915 46.15106 
L 150.652756 46.110886 
L 151.884119 45.298148 
L 152.19196 45.345913 
L 152.499801 45.112855 
L 152.807642 45.209468 
L 154.346847 44.240079 
L 155.57821 42.988339 
L 156.193892 42.588666 
L 156.809574 42.060625 
L 158.96446 40.452111 
L 159.580142 39.958506 
L 160.811506 39.211073 
L 161.427188 38.688964 
L 164.197756 36.206779 
L 164.813437 36.036164 
L 165.429119 35.435611 
L 165.73696 34.979927 
L 166.660483 34.553114 
L 168.815369 33.007908 
L 169.431051 32.737855 
L 169.738892 32.459802 
L 170.046733 32.466936 
L 170.970256 31.995818 
L 171.585938 31.937927 
L 173.432983 31.240359 
L 173.740824 31.220451 
L 174.356506 31.007785 
L 175.280028 30.924248 
L 176.819233 30.631784 
L 180.513324 31.16927 
L 180.821165 31.390156 
L 181.129006 30.980162 
L 182.052528 31.30614 
L 182.66821 31.52407 
L 182.976051 31.733771 
L 183.283892 31.695063 
L 183.591733 31.960742 
L 183.899574 31.944657 
L 184.515256 32.481708 
L 184.823097 32.539102 
L 185.438778 33.133224 
L 187.285824 35.22355 
L 189.132869 37.565119 
L 189.44071 37.00472 
L 190.979915 38.829406 
L 194.058324 43.835662 
L 196.21321 47.547567 
L 196.828892 48.776717 
L 197.752415 50.644715 
L 198.060256 50.263306 
L 198.675938 51.173083 
L 201.138665 56.658193 
L 203.601392 62.477982 
L 204.832756 65.213843 
L 206.679801 70.021517 
L 207.603324 72.014725 
L 211.913097 83.891864 
L 214.375824 90.925821 
L 220.840483 110.894106 
L 223.30321 119.29101 
L 231.922756 151.423687 
L 246.083438 209.385501 
L 248.854006 219.74599 
L 251.624574 229.067846 
L 253.77946 235.50286 
L 255.934347 241.245853 
L 258.397074 246.901193 
L 260.55196 251.018277 
L 262.091165 253.541138 
L 263.93821 256.142404 
L 265.169574 257.650326 
L 266.708778 259.255567 
L 268.555824 260.907682 
L 270.402869 262.174606 
L 272.249915 263.218045 
L 274.09696 264.065339 
L 276.251847 264.758472 
L 279.022415 265.31801 
L 282.716506 265.79358 
L 287.026278 266.011223 
L 293.798778 266.13347 
L 297.80071 266.145713 
L 297.80071 266.145713 
" style="fill:none;stroke:#e41a1c;stroke-linecap:square;stroke-width:1.142857;"/>
   </g>
   <g id="patch_8">
    <path d="M 35.289375 266.15 
L 35.289375 7.2 
" style="fill:none;stroke:#000000;stroke-linecap:square;stroke-linejoin:miter;stroke-width:0.8;"/>
   </g>
   <g id="patch_9">
    <path d="M 297.72375 266.15 
L 297.72375 7.2 
" style="fill:none;stroke:#000000;stroke-linecap:square;stroke-linejoin:miter;stroke-width:0.8;"/>
   </g>
   <g id="patch_10">
    <path d="M 35.289375 266.15 
L 297.72375 266.15 
" style="fill:none;stroke:#000000;stroke-linecap:square;stroke-linejoin:miter;stroke-width:0.8;"/>
   </g>
   <g id="patch_11">
    <path d="M 35.289375 7.2 
L 297.72375 7.2 
" style="fill:none;stroke:#000000;stroke-linecap:square;stroke-linejoin:miter;stroke-width:0.8;"/>
   </g>
  </g>
  <g id="axes_3">
   <g id="patch_12">
    <path d="M 297.72375 525.1 
L 560.158125 525.1 
L 560.158125 266.15 
L 297.72375 266.15 
z
" style="fill:#ffffff;"/>
   </g>
   <g id="matplotlib.axis_5">
    <g id="xtick_15">
     <g id="line2d_29">
      <g>
       <use style="stroke:#000000;stroke-width:0.8;" x="318.557549" xlink:href="#mf6d5e37a40" y="525.1"/>
      </g>
     </g>
     <g id="text_13">
      <!-- $\mathdefault{0}$ -->
      <g transform="translate(315.037549 536.958281)scale(0.11 -0.11)">
       <use transform="translate(0 0.78125)" xlink:href="#DejaVuSans-48"/>
      </g>
     </g>
    </g>
    <g id="xtick_16">
     <g id="line2d_30">
      <g>
       <use style="stroke:#000000;stroke-width:0.8;" x="415.383854" xlink:href="#mf6d5e37a40" y="525.1"/>
      </g>
     </g>
     <g id="text_14">
      <!-- $\mathdefault{1}$ -->
      <g transform="translate(411.863854 536.958281)scale(0.11 -0.11)">
       <use transform="translate(0 0.09375)" xlink:href="#DejaVuSans-49"/>
      </g>
     </g>
    </g>
    <g id="xtick_17">
     <g id="line2d_31">
      <g>
       <use style="stroke:#000000;stroke-width:0.8;" x="512.21016" xlink:href="#mf6d5e37a40" y="525.1"/>
      </g>
     </g>
     <g id="text_15">
      <!-- $\mathdefault{2}$ -->
      <g transform="translate(508.69016 536.958281)scale(0.11 -0.11)">
       <use transform="translate(0 0.78125)" xlink:href="#DejaVuSans-50"/>
      </g>
     </g>
    </g>
    <g id="text_16">
     <!-- Kunz -->
     <g transform="translate(412.154062 557.245937)scale(0.14 -0.14)">
      <use xlink:href="#DejaVuSans-75"/>
      <use x="60.576172" xlink:href="#DejaVuSans-117"/>
      <use x="123.955078" xlink:href="#DejaVuSans-110"/>
      <use x="187.333984" xlink:href="#DejaVuSans-122"/>
     </g>
    </g>
   </g>
   <g id="matplotlib.axis_6">
    <g id="ytick_9"/>
    <g id="ytick_10"/>
    <g id="ytick_11"/>
    <g id="ytick_12"/>
    <g id="ytick_13"/>
   </g>
   <g id="line2d_32">
    <path clip-path="url(#p5ded8100be)" d="M 297.64679 525.0847 
L 304.111449 524.958616 
L 305.650653 524.858508 
L 309.036903 524.56911 
L 311.499631 524.178965 
L 313.654517 523.685205 
L 316.117244 522.849113 
L 317.96429 521.963287 
L 319.503494 520.960909 
L 320.734858 520.04326 
L 322.274062 518.680999 
L 324.121108 516.586688 
L 325.352472 514.876849 
L 326.583835 513.053136 
L 328.430881 509.705248 
L 330.277926 505.690064 
L 331.817131 501.847882 
L 333.356335 497.568567 
L 336.126903 488.397329 
L 339.205312 476.355058 
L 341.66804 465.334331 
L 346.285653 442.487995 
L 349.979744 422.56405 
L 361.369858 361.541297 
L 363.832585 349.639636 
L 366.295312 338.668664 
L 368.142358 331.112186 
L 372.452131 315.559139 
L 374.299176 310.097843 
L 375.53054 306.734347 
L 378.608949 299.833509 
L 380.763835 296.067212 
L 382.30304 293.944605 
L 382.610881 294.344088 
L 383.226562 293.428188 
L 383.842244 292.761435 
L 384.150085 292.422303 
L 384.457926 292.407752 
L 385.073608 291.887935 
L 385.381449 291.995917 
L 387.228494 290.586271 
L 387.844176 290.392653 
L 388.767699 290.008206 
L 389.07554 290.118921 
L 389.999062 289.792274 
L 390.614744 289.609454 
L 390.922585 289.706943 
L 391.230426 289.578386 
L 391.538267 289.659143 
L 392.46179 289.515474 
L 392.769631 289.548797 
L 393.077472 291.655889 
L 394.924517 291.553245 
L 395.232358 292.575793 
L 395.84804 292.465012 
L 397.387244 292.802838 
L 397.695085 292.726656 
L 398.926449 292.974786 
L 399.542131 293.171534 
L 400.773494 293.609231 
L 401.389176 293.968656 
L 403.236222 294.826422 
L 403.851903 295.027805 
L 404.159744 295.157863 
L 404.467585 295.083248 
L 404.775426 295.294632 
L 405.083267 295.310895 
L 406.314631 296.007943 
L 407.238153 296.313097 
L 407.853835 296.647493 
L 409.39304 297.34293 
L 409.700881 297.459401 
L 410.316562 298.053027 
L 410.932244 298.096911 
L 412.163608 298.635699 
L 412.471449 298.559324 
L 413.394972 299.02141 
L 413.702812 299.277139 
L 414.010653 299.258575 
L 414.626335 299.635894 
L 415.857699 300.460962 
L 416.16554 300.876841 
L 417.396903 301.383037 
L 417.704744 301.536552 
L 418.012585 301.839194 
L 418.628267 302.167341 
L 420.475312 303.831479 
L 421.090994 304.321978 
L 421.706676 304.853333 
L 422.322358 305.419294 
L 422.630199 305.538086 
L 423.553722 306.365389 
L 423.861562 306.425416 
L 424.169403 306.682996 
L 424.785085 307.370108 
L 425.400767 307.989288 
L 426.32429 309.061724 
L 426.632131 309.413132 
L 426.939972 309.498662 
L 427.555653 310.327394 
L 428.479176 311.396195 
L 430.634062 313.940386 
L 431.249744 314.722336 
L 436.175199 321.340438 
L 436.790881 322.378831 
L 438.022244 323.936054 
L 438.637926 324.966272 
L 438.945767 325.656425 
L 439.561449 326.6533 
L 441.100653 329.590524 
L 441.716335 330.555047 
L 442.332017 331.81378 
L 443.25554 333.600619 
L 443.563381 333.776711 
L 445.410426 337.075929 
L 446.026108 338.153068 
L 450.951562 348.576032 
L 452.490767 352.168843 
L 452.798608 351.937378 
L 454.645653 355.906154 
L 457.724062 363.00095 
L 459.878949 367.230331 
L 461.725994 371.549787 
L 462.033835 371.352504 
L 465.727926 379.557094 
L 466.651449 381.302659 
L 467.267131 382.402106 
L 479.580767 407.034713 
L 480.812131 409.574936 
L 488.815994 426.984456 
L 491.586562 433.786474 
L 493.741449 439.216087 
L 496.512017 446.777279 
L 500.513949 458.276599 
L 502.360994 463.873429 
L 509.441335 484.443691 
L 514.36679 497.081115 
L 515.905994 500.656907 
L 518.368722 505.720754 
L 520.831449 510.047351 
L 522.678494 512.844992 
L 524.52554 515.269743 
L 526.988267 517.931233 
L 529.450994 520.016516 
L 531.913722 521.552879 
L 533.452926 522.31668 
L 535.915653 523.301839 
L 538.07054 523.869408 
L 540.533267 524.325635 
L 544.227358 524.769811 
L 548.537131 524.970938 
L 554.386108 525.0807 
L 560.235085 525.096891 
L 560.235085 525.096891 
" style="fill:none;stroke:#e41a1c;stroke-linecap:square;stroke-width:1.142857;"/>
   </g>
   <g id="patch_13">
    <path d="M 297.72375 525.1 
L 297.72375 266.15 
" style="fill:none;stroke:#000000;stroke-linecap:square;stroke-linejoin:miter;stroke-width:0.8;"/>
   </g>
   <g id="patch_14">
    <path d="M 560.158125 525.1 
L 560.158125 266.15 
" style="fill:none;stroke:#000000;stroke-linecap:square;stroke-linejoin:miter;stroke-width:0.8;"/>
   </g>
   <g id="patch_15">
    <path d="M 297.72375 525.1 
L 560.158125 525.1 
" style="fill:none;stroke:#000000;stroke-linecap:square;stroke-linejoin:miter;stroke-width:0.8;"/>
   </g>
   <g id="patch_16">
    <path d="M 297.72375 266.15 
L 560.158125 266.15 
" style="fill:none;stroke:#000000;stroke-linecap:square;stroke-linejoin:miter;stroke-width:0.8;"/>
   </g>
  </g>
 </g>
 <defs>
  <clipPath id="p198225a3fa">
   <rect height="258.95" width="262.434375" x="35.289375" y="266.15"/>
  </clipPath>
  <clipPath id="p8e0621a8d4">
   <rect height="258.95" width="262.434375" x="35.289375" y="7.2"/>
  </clipPath>
  <clipPath id="p5ded8100be">
   <rect height="258.95" width="262.434375" x="297.72375" y="266.15"/>
  </clipPath>
 </defs>
</svg>
