<?xml version="1.0" encoding="utf-8" standalone="no"?>
<!DOCTYPE svg PUBLIC "-//W3C//DTD SVG 1.1//EN"
  "http://www.w3.org/Graphics/SVG/1.1/DTD/svg11.dtd">
<!-- Created with matplotlib (https://matplotlib.org/) -->
<svg height="567.3575pt" version="1.1" viewBox="0 0 567.358125 567.3575" width="567.358125pt" xmlns="http://www.w3.org/2000/svg" xmlns:xlink="http://www.w3.org/1999/xlink">
 <metadata>
  <rdf:RDF xmlns:cc="http://creativecommons.org/ns#" xmlns:dc="http://purl.org/dc/elements/1.1/" xmlns:rdf="http://www.w3.org/1999/02/22-rdf-syntax-ns#">
   <cc:Work>
    <dc:type rdf:resource="http://purl.org/dc/dcmitype/StillImage"/>
    <dc:date>2021-02-04T13:44:33.190764</dc:date>
    <dc:format>image/svg+xml</dc:format>
    <dc:creator>
     <cc:Agent>
      <dc:title>Matplotlib v3.3.2, https://matplotlib.org/</dc:title>
     </cc:Agent>
    </dc:creator>
   </cc:Work>
  </rdf:RDF>
 </metadata>
 <defs>
  <style type="text/css">*{stroke-linecap:butt;stroke-linejoin:round;}</style>
 </defs>
 <g id="figure_1">
  <g id="patch_1">
   <path d="M 0 567.3575 
L 567.358125 567.3575 
L 567.358125 0 
L 0 0 
z
" style="fill:#ffffff;"/>
  </g>
  <g id="axes_1">
   <g id="patch_2">
    <path d="M 35.289375 525.1 
L 297.72375 525.1 
L 297.72375 266.15 
L 35.289375 266.15 
z
" style="fill:#ffffff;"/>
   </g>
   <g id="matplotlib.axis_1">
    <g id="xtick_1">
     <g id="line2d_1">
      <defs>
       <path d="M 0 0 
L 0 -3.5 
" id="m5d1d384750" style="stroke:#000000;stroke-width:0.8;"/>
      </defs>
      <g>
       <use style="stroke:#000000;stroke-width:0.8;" x="116.008693" xlink:href="#m5d1d384750" y="525.1"/>
      </g>
     </g>
     <g id="line2d_2">
      <defs>
       <path d="M 0 0 
L 0 3.5 
" id="m165434add5" style="stroke:#000000;stroke-width:0.8;"/>
      </defs>
      <g>
       <use style="stroke:#000000;stroke-width:0.8;" x="116.008693" xlink:href="#m165434add5" y="266.15"/>
      </g>
     </g>
     <g id="text_1">
      <!-- $\mathdefault{0.5}$ -->
      <g transform="translate(107.208693 536.958281)scale(0.11 -0.11)">
       <defs>
        <path d="M 31.78125 66.40625 
Q 24.171875 66.40625 20.328125 58.90625 
Q 16.5 51.421875 16.5 36.375 
Q 16.5 21.390625 20.328125 13.890625 
Q 24.171875 6.390625 31.78125 6.390625 
Q 39.453125 6.390625 43.28125 13.890625 
Q 47.125 21.390625 47.125 36.375 
Q 47.125 51.421875 43.28125 58.90625 
Q 39.453125 66.40625 31.78125 66.40625 
z
M 31.78125 74.21875 
Q 44.046875 74.21875 50.515625 64.515625 
Q 56.984375 54.828125 56.984375 36.375 
Q 56.984375 17.96875 50.515625 8.265625 
Q 44.046875 -1.421875 31.78125 -1.421875 
Q 19.53125 -1.421875 13.0625 8.265625 
Q 6.59375 17.96875 6.59375 36.375 
Q 6.59375 54.828125 13.0625 64.515625 
Q 19.53125 74.21875 31.78125 74.21875 
z
" id="DejaVuSans-48"/>
        <path d="M 10.6875 12.40625 
L 21 12.40625 
L 21 0 
L 10.6875 0 
z
" id="DejaVuSans-46"/>
        <path d="M 10.796875 72.90625 
L 49.515625 72.90625 
L 49.515625 64.59375 
L 19.828125 64.59375 
L 19.828125 46.734375 
Q 21.96875 47.46875 24.109375 47.828125 
Q 26.265625 48.1875 28.421875 48.1875 
Q 40.625 48.1875 47.75 41.5 
Q 54.890625 34.8125 54.890625 23.390625 
Q 54.890625 11.625 47.5625 5.09375 
Q 40.234375 -1.421875 26.90625 -1.421875 
Q 22.3125 -1.421875 17.546875 -0.640625 
Q 12.796875 0.140625 7.71875 1.703125 
L 7.71875 11.625 
Q 12.109375 9.234375 16.796875 8.0625 
Q 21.484375 6.890625 26.703125 6.890625 
Q 35.15625 6.890625 40.078125 11.328125 
Q 45.015625 15.765625 45.015625 23.390625 
Q 45.015625 31 40.078125 35.4375 
Q 35.15625 39.890625 26.703125 39.890625 
Q 22.75 39.890625 18.8125 39.015625 
Q 14.890625 38.140625 10.796875 36.28125 
z
" id="DejaVuSans-53"/>
       </defs>
       <use transform="translate(0 0.78125)" xlink:href="#DejaVuSans-48"/>
       <use transform="translate(63.623047 0.78125)" xlink:href="#DejaVuSans-46"/>
       <use transform="translate(95.410156 0.78125)" xlink:href="#DejaVuSans-53"/>
      </g>
     </g>
    </g>
    <g id="xtick_2">
     <g id="line2d_3">
      <g>
       <use style="stroke:#000000;stroke-width:0.8;" x="191.41837" xlink:href="#m5d1d384750" y="525.1"/>
      </g>
     </g>
     <g id="line2d_4">
      <g>
       <use style="stroke:#000000;stroke-width:0.8;" x="191.41837" xlink:href="#m165434add5" y="266.15"/>
      </g>
     </g>
     <g id="text_2">
      <!-- $\mathdefault{1.0}$ -->
      <g transform="translate(182.61837 536.958281)scale(0.11 -0.11)">
       <defs>
        <path d="M 12.40625 8.296875 
L 28.515625 8.296875 
L 28.515625 63.921875 
L 10.984375 60.40625 
L 10.984375 69.390625 
L 28.421875 72.90625 
L 38.28125 72.90625 
L 38.28125 8.296875 
L 54.390625 8.296875 
L 54.390625 0 
L 12.40625 0 
z
" id="DejaVuSans-49"/>
       </defs>
       <use transform="translate(0 0.78125)" xlink:href="#DejaVuSans-49"/>
       <use transform="translate(63.623047 0.78125)" xlink:href="#DejaVuSans-46"/>
       <use transform="translate(95.410156 0.78125)" xlink:href="#DejaVuSans-48"/>
      </g>
     </g>
    </g>
    <g id="xtick_3">
     <g id="line2d_5">
      <g>
       <use style="stroke:#000000;stroke-width:0.8;" x="266.828047" xlink:href="#m5d1d384750" y="525.1"/>
      </g>
     </g>
     <g id="line2d_6">
      <g>
       <use style="stroke:#000000;stroke-width:0.8;" x="266.828047" xlink:href="#m165434add5" y="266.15"/>
      </g>
     </g>
     <g id="text_3">
      <!-- $\mathdefault{1.5}$ -->
      <g transform="translate(258.028047 536.958281)scale(0.11 -0.11)">
       <use transform="translate(0 0.09375)" xlink:href="#DejaVuSans-49"/>
       <use transform="translate(63.623047 0.09375)" xlink:href="#DejaVuSans-46"/>
       <use transform="translate(95.410156 0.09375)" xlink:href="#DejaVuSans-53"/>
      </g>
     </g>
    </g>
    <g id="text_4">
     <!-- Hinz -->
     <g transform="translate(151.1875 557.245937)scale(0.14 -0.14)">
      <defs>
       <path d="M 9.8125 72.90625 
L 19.671875 72.90625 
L 19.671875 43.015625 
L 55.515625 43.015625 
L 55.515625 72.90625 
L 65.375 72.90625 
L 65.375 0 
L 55.515625 0 
L 55.515625 34.71875 
L 19.671875 34.71875 
L 19.671875 0 
L 9.8125 0 
z
" id="DejaVuSans-72"/>
       <path d="M 9.421875 54.6875 
L 18.40625 54.6875 
L 18.40625 0 
L 9.421875 0 
z
M 9.421875 75.984375 
L 18.40625 75.984375 
L 18.40625 64.59375 
L 9.421875 64.59375 
z
" id="DejaVuSans-105"/>
       <path d="M 54.890625 33.015625 
L 54.890625 0 
L 45.90625 0 
L 45.90625 32.71875 
Q 45.90625 40.484375 42.875 44.328125 
Q 39.84375 48.1875 33.796875 48.1875 
Q 26.515625 48.1875 22.3125 43.546875 
Q 18.109375 38.921875 18.109375 30.90625 
L 18.109375 0 
L 9.078125 0 
L 9.078125 54.6875 
L 18.109375 54.6875 
L 18.109375 46.1875 
Q 21.34375 51.125 25.703125 53.5625 
Q 30.078125 56 35.796875 56 
Q 45.21875 56 50.046875 50.171875 
Q 54.890625 44.34375 54.890625 33.015625 
z
" id="DejaVuSans-110"/>
       <path d="M 5.515625 54.6875 
L 48.1875 54.6875 
L 48.1875 46.484375 
L 14.40625 7.171875 
L 48.1875 7.171875 
L 48.1875 0 
L 4.296875 0 
L 4.296875 8.203125 
L 38.09375 47.515625 
L 5.515625 47.515625 
z
" id="DejaVuSans-122"/>
      </defs>
      <use xlink:href="#DejaVuSans-72"/>
      <use x="75.195312" xlink:href="#DejaVuSans-105"/>
      <use x="102.978516" xlink:href="#DejaVuSans-110"/>
      <use x="166.357422" xlink:href="#DejaVuSans-122"/>
     </g>
    </g>
   </g>
   <g id="matplotlib.axis_2">
    <g id="ytick_1">
     <g id="line2d_7">
      <defs>
       <path d="M 0 0 
L 3.5 0 
" id="m06e640fa32" style="stroke:#000000;stroke-width:0.8;"/>
      </defs>
      <g>
       <use style="stroke:#000000;stroke-width:0.8;" x="35.289375" xlink:href="#m06e640fa32" y="484.102021"/>
      </g>
     </g>
     <g id="line2d_8">
      <defs>
       <path d="M 0 0 
L -3.5 0 
" id="mc754550dd5" style="stroke:#000000;stroke-width:0.8;"/>
      </defs>
      <g>
       <use style="stroke:#000000;stroke-width:0.8;" x="297.72375" xlink:href="#mc754550dd5" y="484.102021"/>
      </g>
     </g>
     <g id="text_5">
      <!-- $\mathdefault{0}$ -->
      <g transform="translate(24.749375 488.281162)scale(0.11 -0.11)">
       <use transform="translate(0 0.78125)" xlink:href="#DejaVuSans-48"/>
      </g>
     </g>
    </g>
    <g id="ytick_2">
     <g id="line2d_9">
      <g>
       <use style="stroke:#000000;stroke-width:0.8;" x="35.289375" xlink:href="#m06e640fa32" y="397.461119"/>
      </g>
     </g>
     <g id="line2d_10">
      <g>
       <use style="stroke:#000000;stroke-width:0.8;" x="297.72375" xlink:href="#mc754550dd5" y="397.461119"/>
      </g>
     </g>
     <g id="text_6">
      <!-- $\mathdefault{1}$ -->
      <g transform="translate(24.749375 401.64026)scale(0.11 -0.11)">
       <use transform="translate(0 0.09375)" xlink:href="#DejaVuSans-49"/>
      </g>
     </g>
    </g>
    <g id="ytick_3">
     <g id="line2d_11">
      <g>
       <use style="stroke:#000000;stroke-width:0.8;" x="35.289375" xlink:href="#m06e640fa32" y="310.820216"/>
      </g>
     </g>
     <g id="line2d_12">
      <g>
       <use style="stroke:#000000;stroke-width:0.8;" x="297.72375" xlink:href="#mc754550dd5" y="310.820216"/>
      </g>
     </g>
     <g id="text_7">
      <!-- $\mathdefault{2}$ -->
      <g transform="translate(24.749375 314.999357)scale(0.11 -0.11)">
       <defs>
        <path d="M 19.1875 8.296875 
L 53.609375 8.296875 
L 53.609375 0 
L 7.328125 0 
L 7.328125 8.296875 
Q 12.9375 14.109375 22.625 23.890625 
Q 32.328125 33.6875 34.8125 36.53125 
Q 39.546875 41.84375 41.421875 45.53125 
Q 43.3125 49.21875 43.3125 52.78125 
Q 43.3125 58.59375 39.234375 62.25 
Q 35.15625 65.921875 28.609375 65.921875 
Q 23.96875 65.921875 18.8125 64.3125 
Q 13.671875 62.703125 7.8125 59.421875 
L 7.8125 69.390625 
Q 13.765625 71.78125 18.9375 73 
Q 24.125 74.21875 28.421875 74.21875 
Q 39.75 74.21875 46.484375 68.546875 
Q 53.21875 62.890625 53.21875 53.421875 
Q 53.21875 48.921875 51.53125 44.890625 
Q 49.859375 40.875 45.40625 35.40625 
Q 44.1875 33.984375 37.640625 27.21875 
Q 31.109375 20.453125 19.1875 8.296875 
z
" id="DejaVuSans-50"/>
       </defs>
       <use transform="translate(0 0.78125)" xlink:href="#DejaVuSans-50"/>
      </g>
     </g>
    </g>
    <g id="text_8">
     <!-- Kunz -->
     <g transform="translate(17.837813 412.411875)rotate(-90)scale(0.14 -0.14)">
      <defs>
       <path d="M 9.8125 72.90625 
L 19.671875 72.90625 
L 19.671875 42.09375 
L 52.390625 72.90625 
L 65.09375 72.90625 
L 28.90625 38.921875 
L 67.671875 0 
L 54.6875 0 
L 19.671875 35.109375 
L 19.671875 0 
L 9.8125 0 
z
" id="DejaVuSans-75"/>
       <path d="M 8.5 21.578125 
L 8.5 54.6875 
L 17.484375 54.6875 
L 17.484375 21.921875 
Q 17.484375 14.15625 20.5 10.265625 
Q 23.53125 6.390625 29.59375 6.390625 
Q 36.859375 6.390625 41.078125 11.03125 
Q 45.3125 15.671875 45.3125 23.6875 
L 45.3125 54.6875 
L 54.296875 54.6875 
L 54.296875 0 
L 45.3125 0 
L 45.3125 8.40625 
Q 42.046875 3.421875 37.71875 1 
Q 33.40625 -1.421875 27.6875 -1.421875 
Q 18.265625 -1.421875 13.375 4.4375 
Q 8.5 10.296875 8.5 21.578125 
z
M 31.109375 56 
z
" id="DejaVuSans-117"/>
      </defs>
      <use xlink:href="#DejaVuSans-75"/>
      <use x="60.576172" xlink:href="#DejaVuSans-117"/>
      <use x="123.955078" xlink:href="#DejaVuSans-110"/>
      <use x="187.333984" xlink:href="#DejaVuSans-122"/>
     </g>
    </g>
   </g>
   <g id="LineCollection_1">
    <path clip-path="url(#pfbd0a2f28b)" d="M 67.455912 491.644267 
L 68.511514 491.167157 
L 73.131563 488.152609 
L 76.604463 485.972369 
L 76.732494 486.069436 
L 76.450196 486.763827 
L 75.548861 488.239232 
L 74.78202 489.541391 
L 74.653564 489.888587 
L 75.022553 490.235782 
L 75.196993 490.335128 
L 75.900728 490.256597 
L 77.762159 489.194196 
L 79.771269 487.625093 
L 83.289942 484.673811 
L 85.049278 483.468516 
L 85.209222 483.639067 
L 84.862342 484.333458 
L 83.99281 486.069436 
L 83.854187 486.763827 
L 83.993676 487.490111 
L 84.345544 487.733981 
L 85.125358 487.458218 
L 86.820508 486.416631 
L 89.271686 484.513493 
L 91.38289 482.86419 
L 92.438492 482.160775 
L 93.494094 481.588246 
L 93.735261 481.903089 
L 93.40069 482.944676 
L 93.173968 483.639067 
L 93.494094 483.891733 
L 93.845961 483.867 
L 95.021157 483.291872 
L 97.716502 481.869272 
L 100.53144 480.421137 
L 102.290777 479.791873 
L 104.050113 478.681283 
L 109.679991 474.764024 
L 110.042188 474.959179 
L 109.679991 475.82852 
L 109.274125 476.695156 
L 109.220603 477.042352 
L 109.328123 477.171301 
L 109.824822 477.042352 
L 110.735593 476.532787 
L 115.661735 473.051218 
L 116.093856 472.876006 
L 116.50616 472.876006 
L 117.069204 472.653687 
L 117.772939 472.329106 
L 119.884143 470.763591 
L 121.995347 469.221914 
L 123.402816 468.305185 
L 126.476766 466.626486 
L 127.470918 466.279291 
L 128.328958 465.752288 
L 131.357046 463.501726 
L 133.606968 461.726527 
L 135.109814 460.724162 
L 135.366305 460.587187 
L 136.070039 460.709501 
L 136.901589 460.376966 
L 137.829376 459.782035 
L 143.205981 455.863425 
L 145.570457 454.12638 
L 147.681661 452.330595 
L 154.963944 445.794754 
L 156.830211 444.384112 
L 158.941415 442.49605 
L 161.839264 439.545235 
L 173.367975 427.472608 
L 176.366754 424.963022 
L 179.34972 422.499424 
L 182.516525 419.70306 
L 184.627729 417.467619 
L 186.76881 414.894352 
L 194.128147 405.714438 
L 201.869228 396.836628 
L 204.883276 393.021034 
L 209.362832 387.118709 
L 211.124777 385.035536 
L 214.712174 380.521994 
L 221.925665 370.254538 
L 228.774626 361.079045 
L 230.761642 357.607089 
L 233.889154 353.314968 
L 234.375199 352.399156 
L 234.980389 351.010374 
L 236.717895 348.23281 
L 240.349291 343.372073 
L 242.031615 340.594508 
L 243.037704 338.882488 
L 243.897708 337.469749 
L 244.797041 335.673189 
L 246.070853 333.303402 
L 247.354342 331.567425 
L 251.56208 326.012296 
L 253.620978 322.193145 
L 254.686018 320.457168 
L 255.050117 319.415581 
L 255.432475 318.373994 
L 256.408662 316.880188 
L 258.891449 313.513257 
L 259.575468 312.324064 
L 259.897088 311.430084 
L 260.279203 310.308632 
L 260.507728 309.694106 
L 260.515389 308.999715 
L 260.279203 308.29417 
L 260.63107 307.256797 
L 261.686672 305.481385 
L 264.501611 301.963346 
L 266.38799 299.625436 
L 267.76056 297.542263 
L 267.918711 296.847872 
L 267.668417 296.727173 
L 266.612815 297.107647 
L 264.853478 298.322569 
L 260.63107 301.83175 
L 252.186255 309.925679 
L 246.268425 315.943626 
L 240.574633 321.972474 
L 238.291049 324.623514 
L 233.785784 330.525838 
L 231.77795 333.573375 
L 228.231583 338.511335 
L 227.852327 339.205726 
L 227.724558 339.900117 
L 227.710748 340.594508 
L 227.458523 341.288899 
L 226.70565 342.677682 
L 225.529 344.413659 
L 223.63468 346.844028 
L 217.050197 355.176721 
L 216.708634 355.871112 
L 216.700792 356.218307 
L 217.222753 356.565503 
L 217.06388 357.259894 
L 216.295788 358.379029 
L 213.832717 361.151404 
L 208.737985 366.634173 
L 206.79537 368.773577 
L 190.961341 385.803693 
L 188.339802 389.201883 
L 184.382635 393.715425 
L 180.314166 398.228966 
L 175.037236 404.131291 
L 170.981567 408.297637 
L 166.584789 412.463983 
L 159.64515 418.79495 
L 152.959671 425.005202 
L 148.385396 429.250234 
L 146.080203 430.865346 
L 145.21859 431.19348 
L 143.81112 431.438279 
L 143.107386 431.788583 
L 140.272404 433.990106 
L 137.125641 436.840086 
L 133.224942 440.586821 
L 130.284797 443.364385 
L 123.31178 449.613905 
L 121.291612 451.103158 
L 120.939745 451.254988 
L 120.60873 451.002687 
L 120.587877 450.640749 
L 120.23601 450.536672 
L 119.091024 451.349883 
L 114.958 454.646701 
L 114.578717 454.821838 
L 114.254266 454.337856 
L 114.19878 454.127447 
L 113.709004 453.433056 
L 113.92259 452.738665 
L 115.309868 450.115819 
L 114.958 449.9912 
L 114.254266 450.330135 
L 111.418875 452.738665 
L 106.865052 456.575265 
L 105.80945 457.310796 
L 101.466046 460.724162 
L 99.788251 462.112944 
L 97.716502 463.888759 
L 91.38289 469.718824 
L 91.275514 469.40405 
L 94.549696 465.162789 
L 94.901563 464.495422 
L 94.982728 464.196117 
L 94.901563 463.987593 
L 94.197829 463.895467 
L 92.790359 463.931349 
L 91.734757 464.488377 
L 87.51235 467.799218 
L 81.827373 473.223201 
L 77.942559 477.389547 
L 74.446401 481.903089 
L 72.733922 484.127265 
L 72.263919 484.680654 
L 72.192059 485.027849 
L 69.283158 488.152609 
L 67.405544 490.582978 
L 67.07127 491.277369 
L 67.138203 491.624564 
L 67.455912 491.644267 
L 67.455912 491.644267 
" style="fill:none;stroke:#e41a1c;stroke-width:1.142857;"/>
    <path clip-path="url(#pfbd0a2f28b)" d="M 91.031023 469.873274 
L 90.962509 469.751246 
L 91.031023 469.668351 
L 91.338538 469.751246 
L 91.031023 469.873274 
" style="fill:none;stroke:#e41a1c;stroke-width:1.142857;"/>
   </g>
   <g id="LineCollection_2">
    <path clip-path="url(#pfbd0a2f28b)" d="M 70.974586 487.837338 
L 72.733922 486.508156 
L 74.845126 484.525074 
L 75.548861 483.881739 
L 76.252595 483.414417 
L 77.308197 482.467083 
L 77.652453 482.59748 
L 76.987132 483.639067 
L 77.308197 483.717261 
L 78.658145 482.944676 
L 79.771269 482.235453 
L 80.123136 482.116602 
L 80.317963 482.250285 
L 80.160883 482.944676 
L 79.013365 485.375045 
L 79.067534 485.604474 
L 79.419401 485.639047 
L 80.123136 485.317258 
L 84.38207 482.59748 
L 87.207457 480.514307 
L 88.919819 479.430271 
L 89.239142 479.472721 
L 88.745914 480.514307 
L 87.7563 482.250285 
L 87.606593 482.944676 
L 88.00697 483.291872 
L 88.567951 483.393366 
L 89.271686 483.143191 
L 90.718798 482.250285 
L 95.605298 478.697161 
L 98.068369 477.289784 
L 98.307674 477.389547 
L 98.183478 478.77833 
L 98.420236 478.896809 
L 99.475838 478.630991 
L 101.235175 477.84221 
L 105.105715 475.624797 
L 106.161317 475.279692 
L 107.920654 474.175579 
L 114.254266 469.913628 
L 115.291043 469.40405 
L 115.341791 469.40405 
L 115.437716 469.751246 
L 114.958 470.675455 
L 114.549534 471.487223 
L 114.606133 471.846338 
L 114.626963 471.834419 
L 115.784245 471.140028 
L 117.876748 469.40405 
L 124.831506 463.501726 
L 125.162153 463.388192 
L 125.271755 463.501726 
L 124.996637 464.196117 
L 124.701696 464.890508 
L 124.810285 465.080283 
L 125.51402 464.801195 
L 126.921489 463.839972 
L 133.606968 459.26006 
L 135.366305 458.170759 
L 139.236845 455.327355 
L 142.450639 452.738665 
L 145.21859 450.579255 
L 145.570457 450.506314 
L 145.626749 450.655492 
L 145.570457 451.383063 
L 146.003199 451.349883 
L 146.647265 451.002687 
L 148.385396 449.598635 
L 150.170205 447.877927 
L 164.49768 432.94852 
L 168.19983 429.129369 
L 170.113484 427.393391 
L 170.553037 427.035529 
L 170.904904 426.886732 
L 171.290616 427.046196 
L 171.608639 427.242088 
L 172.312373 426.819902 
L 175.223722 424.615827 
L 180.053454 420.542255 
L 182.249986 418.366307 
L 184.374711 415.935939 
L 186.199929 413.50557 
L 188.206474 410.728006 
L 190.53519 407.950441 
L 197.068115 400.659335 
L 199.514279 397.534575 
L 201.890468 394.409816 
L 207.850972 387.102477 
L 210.392071 383.99395 
L 214.23035 378.438821 
L 220.166329 370.280981 
L 222.277532 367.5813 
L 224.052753 365.245391 
L 225.092471 363.367227 
L 226.49994 361.192095 
L 228.433502 358.30148 
L 230.760615 354.829525 
L 235.648491 347.848738 
L 237.668159 344.413659 
L 240.547831 339.900117 
L 240.824032 338.858531 
L 241.070171 338.16414 
L 241.719949 337.122553 
L 243.104163 335.386575 
L 245.500775 332.581112 
L 247.722316 329.831447 
L 248.405608 328.78986 
L 249.019449 327.342165 
L 249.723183 325.84179 
L 250.858891 323.581927 
L 251.617227 321.84595 
L 252.538122 320.35515 
L 256.76053 314.388467 
L 257.483393 312.818866 
L 257.842464 311.777279 
L 257.965446 310.388497 
L 258.555045 308.999715 
L 259.575468 307.236004 
L 263.094141 303.038016 
L 264.501611 301.340224 
L 265.557213 299.928796 
L 266.146196 298.931045 
L 266.260947 298.568637 
L 265.90908 298.398726 
L 265.205345 298.685792 
L 263.446009 299.902727 
L 258.167999 304.496762 
L 252.186255 310.355573 
L 247.611979 315.080065 
L 243.560279 319.415581 
L 240.898574 322.540341 
L 238.996101 324.970709 
L 237.05596 327.810023 
L 235.296623 330.527172 
L 231.50955 336.080966 
L 230.74253 338.16414 
L 229.666746 340.072225 
L 227.639681 343.024877 
L 225.41994 345.802441 
L 221.221931 351.13753 
L 220.935775 351.704765 
L 220.943287 352.051961 
L 221.150533 352.399156 
L 221.034334 353.093547 
L 220.518196 354.21416 
L 219.428747 355.871112 
L 217.913525 357.607089 
L 214.888319 360.783946 
L 209.401341 366.634173 
L 206.443503 369.917574 
L 203.181552 373.578084 
L 200.582436 376.702844 
L 199.054289 378.869208 
L 197.241629 381.563581 
L 194.010815 385.382732 
L 189.607689 389.896274 
L 185.562433 394.06262 
L 182.868393 397.210052 
L 180.982535 399.617749 
L 178.230811 403.089704 
L 176.182914 405.39148 
L 172.312373 409.413725 
L 168.441833 413.176599 
L 160.700752 420.193275 
L 156.478344 424.010463 
L 146.977926 433.141283 
L 144.514855 434.80564 
L 141.348049 436.653842 
L 139.236845 438.168803 
L 136.421907 440.471922 
L 131.847632 444.446877 
L 130.79203 445.149505 
L 129.002507 445.794754 
L 125.849329 448.225123 
L 121.291612 452.217848 
L 118.476674 454.582905 
L 117.421072 455.295431 
L 116.36547 455.785255 
L 114.936356 456.557816 
L 112.846796 458.21469 
L 110.618231 460.029771 
L 108.624389 461.505981 
L 108.470096 461.418553 
L 108.871765 460.724162 
L 110.965755 457.599402 
L 111.068324 457.252207 
L 110.735593 456.963101 
L 110.031858 457.260304 
L 108.624389 458.102609 
L 106.865052 459.269562 
L 106.708402 458.988184 
L 106.767266 458.640989 
L 106.513185 458.25671 
L 105.457583 458.790859 
L 104.026603 459.682575 
L 99.123971 463.22103 
L 95.249596 466.626486 
L 93.37414 468.362464 
L 83.289942 477.953779 
L 81.852596 478.77833 
L 82.23434 478.076555 
L 89.975421 470.085936 
L 92.466072 466.973682 
L 92.766418 466.279291 
L 92.438492 465.984405 
L 91.734757 465.793938 
L 91.38289 465.712992 
L 90.679155 465.93497 
L 89.587535 466.626486 
L 88.216084 467.683444 
L 86.10488 469.486647 
L 81.897191 473.570397 
L 78.363799 477.475767 
L 77.308197 478.847902 
L 76.434224 480.167112 
L 74.845126 482.67587 
L 73.398039 484.333458 
L 73.085345 484.680654 
L 72.955302 485.027849 
L 71.326453 486.803788 
L 70.7114 487.805413 
L 70.974586 487.837338 
L 70.974586 487.837338 
" style="fill:none;stroke:#e41a1c;stroke-width:1.142857;"/>
    <path clip-path="url(#pfbd0a2f28b)" d="M 77.660065 482.586232 
L 77.560041 482.250285 
L 77.660065 482.158728 
L 77.859923 482.250285 
L 77.660065 482.586232 
" style="fill:none;stroke:#e41a1c;stroke-width:1.142857;"/>
    <path clip-path="url(#pfbd0a2f28b)" d="M 78.011932 482.044466 
L 77.956471 481.903089 
L 78.011932 481.85372 
L 78.100261 481.903089 
L 78.011932 482.044466 
" style="fill:none;stroke:#e41a1c;stroke-width:1.142857;"/>
    <path clip-path="url(#pfbd0a2f28b)" d="M 91.734757 473.57469 
L 91.72853 473.570397 
L 91.734757 473.560116 
L 91.739751 473.570397 
L 91.734757 473.57469 
" style="fill:none;stroke:#e41a1c;stroke-width:1.142857;"/>
    <path clip-path="url(#pfbd0a2f28b)" d="M 92.086625 473.296236 
L 91.959641 473.223201 
L 92.086625 472.987153 
L 92.17084 473.223201 
L 92.086625 473.296236 
" style="fill:none;stroke:#e41a1c;stroke-width:1.142857;"/>
    <path clip-path="url(#pfbd0a2f28b)" d="M 92.438492 473.013166 
L 92.151693 472.876006 
L 92.416843 472.52881 
L 92.438492 472.508027 
L 92.766549 472.181615 
L 92.790359 472.156096 
L 93.078195 471.834419 
L 93.142227 471.757576 
L 93.388393 471.487223 
L 93.494094 471.378809 
L 93.727247 471.140028 
L 93.845961 471.019184 
L 94.069867 470.792832 
L 94.197829 470.663845 
L 94.414628 470.445637 
L 94.549696 470.310219 
L 94.761896 470.098441 
L 94.901563 469.959412 
L 95.111906 469.751246 
L 95.253431 469.611331 
L 95.464625 469.40405 
L 95.605298 469.265879 
L 95.820011 469.056855 
L 95.957165 468.922957 
L 96.174289 468.709659 
L 96.309032 468.573266 
L 96.530053 468.362464 
L 96.6609 468.237107 
L 96.895021 468.015268 
L 97.012767 467.902848 
L 97.242472 467.668073 
L 97.364634 467.540125 
L 97.602672 467.320877 
L 97.716502 467.214717 
L 97.979186 466.973682 
L 98.068369 466.890436 
L 98.35698 466.626486 
L 98.420236 466.56735 
L 98.704423 466.279291 
L 98.772104 466.207442 
L 99.077141 465.932095 
L 99.123971 465.889064 
L 99.464424 465.584899 
L 99.475838 465.574327 
L 99.827706 465.394183 
L 100.039385 465.237704 
L 100.179573 465.13533 
L 100.454203 465.237704 
L 100.195509 465.584899 
L 100.179573 465.600695 
L 99.874222 465.932095 
L 99.827706 465.982413 
L 99.577734 466.279291 
L 99.475838 466.375125 
L 99.231799 466.626486 
L 99.123971 466.727994 
L 98.884605 466.973682 
L 98.772104 467.079623 
L 98.511193 467.320877 
L 98.420236 467.399789 
L 98.152632 467.668073 
L 98.068369 467.746371 
L 97.798965 468.015268 
L 97.716502 468.091928 
L 97.444387 468.362464 
L 97.364634 468.436689 
L 97.069203 468.709659 
L 97.012767 468.759248 
L 96.707849 469.056855 
L 96.6609 469.100261 
L 96.349671 469.40405 
L 96.309032 469.44204 
L 95.991257 469.751246 
L 95.957165 469.783384 
L 95.630929 470.098441 
L 95.605298 470.122278 
L 95.270016 470.445637 
L 95.253431 470.461154 
L 94.909232 470.792832 
L 94.901563 470.800056 
L 94.549696 471.137601 
L 94.547123 471.140028 
L 94.197829 471.465362 
L 94.174783 471.487223 
L 93.845961 471.803722 
L 93.80885 471.834419 
L 93.494094 472.0928 
L 93.394808 472.181615 
L 93.142227 472.420262 
L 93.018633 472.52881 
L 92.790359 472.721695 
L 92.605589 472.876006 
L 92.438492 473.013166 
" style="fill:none;stroke:#e41a1c;stroke-width:1.142857;"/>
    <path clip-path="url(#pfbd0a2f28b)" d="M 100.53144 465.027076 
L 100.50651 464.890508 
L 100.53144 464.871899 
L 100.597522 464.890508 
L 100.53144 465.027076 
" style="fill:none;stroke:#e41a1c;stroke-width:1.142857;"/>
   </g>
   <g id="LineCollection_3">
    <path clip-path="url(#pfbd0a2f28b)" d="M 79.771269 477.644703 
L 80.123136 477.494755 
L 80.291977 477.389547 
L 80.475003 477.290661 
L 80.82687 477.063139 
L 80.856302 477.042352 
L 81.178738 476.835993 
L 81.375567 476.695156 
L 81.530605 476.593224 
L 81.868994 476.347961 
L 81.882472 476.33886 
L 82.23434 476.102801 
L 82.379106 476.000765 
L 82.586207 475.861269 
L 82.878901 475.65357 
L 82.938074 475.612967 
L 83.289942 475.367163 
L 83.373985 475.306374 
L 83.641809 475.119024 
L 83.859313 474.959179 
L 83.993676 474.862713 
L 84.327907 474.611983 
L 84.345544 474.598919 
L 84.697411 474.319758 
L 84.762079 474.264788 
L 85.049278 474.02832 
L 85.176534 473.917592 
L 85.401146 473.726432 
L 85.549519 473.570397 
L 85.753013 473.348858 
L 85.894732 473.223201 
L 86.10488 473.038762 
L 86.282249 472.876006 
L 86.456748 472.715533 
L 86.653318 472.52881 
L 86.808615 472.379139 
L 87.009394 472.181615 
L 87.160482 472.028942 
L 87.351277 471.834419 
L 87.51235 471.663664 
L 87.679206 471.487223 
L 87.864217 471.281292 
L 87.992897 471.140028 
L 88.216084 470.878944 
L 88.291561 470.792832 
L 88.567951 470.452657 
L 88.573865 470.445637 
L 88.786165 470.098441 
L 88.919819 469.806972 
L 88.946615 469.751246 
L 88.942811 469.40405 
L 88.919819 469.283473 
L 88.89505 469.056855 
L 88.893226 468.709659 
L 88.567951 468.4316 
L 88.216084 468.569144 
L 87.972555 468.709659 
L 87.864217 468.766523 
L 87.51235 468.999081 
L 87.440015 469.056855 
L 87.160482 469.259795 
L 86.983416 469.40405 
L 86.808615 469.534916 
L 86.548317 469.751246 
L 86.456748 469.821947 
L 86.130647 470.098441 
L 86.10488 470.118961 
L 85.753013 470.421454 
L 85.726765 470.445637 
L 85.401146 470.730217 
L 85.333959 470.792832 
L 85.049278 471.04725 
L 84.950862 471.140028 
L 84.697411 471.371654 
L 84.576218 471.487223 
L 84.345544 471.702801 
L 84.209099 471.834419 
L 83.993676 472.0403 
L 83.848857 472.181615 
L 83.641809 472.383975 
L 83.495084 472.52881 
L 83.289942 472.733855 
L 83.147591 472.876006 
L 82.938074 473.087944 
L 82.803751 473.223201 
L 82.586207 473.45014 
L 82.468447 473.570397 
L 82.23434 473.820049 
L 82.139904 473.917592 
L 81.882472 474.198203 
L 81.818736 474.264788 
L 81.530605 474.585792 
L 81.505816 474.611983 
L 81.19924 474.959179 
L 81.178738 474.984236 
L 80.898144 475.306374 
L 80.82687 475.396029 
L 80.606804 475.65357 
L 80.475003 475.824093 
L 80.32683 476.000765 
L 80.123136 476.271587 
L 80.060227 476.347961 
L 79.8195 476.695156 
L 79.771269 476.781368 
L 79.613293 477.042352 
L 79.431746 477.389547 
L 79.771269 477.644703 
" style="fill:none;stroke:#e41a1c;stroke-width:1.142857;"/>
    <path clip-path="url(#pfbd0a2f28b)" d="M 95.605298 475.022306 
L 95.682196 474.959179 
L 95.957165 474.728317 
L 96.088254 474.611983 
L 96.309032 474.407369 
L 96.457445 474.264788 
L 96.6609 474.058793 
L 96.798942 473.917592 
L 97.012767 473.680993 
L 97.110784 473.570397 
L 97.364634 473.264045 
L 97.398983 473.223201 
L 97.71605 472.876006 
L 97.716502 472.871531 
L 97.807778 472.52881 
L 97.716502 472.508947 
L 97.68015 472.52881 
L 97.364634 472.688886 
L 97.109743 472.876006 
L 97.012767 472.974982 
L 96.846298 473.223201 
L 96.6609 473.374293 
L 96.467497 473.570397 
L 96.309032 473.71759 
L 96.128283 473.917592 
L 95.957165 474.096654 
L 95.819183 474.264788 
L 95.605298 474.5109 
L 95.528423 474.611983 
L 95.262601 474.959179 
L 95.605298 475.022306 
" style="fill:none;stroke:#e41a1c;stroke-width:1.142857;"/>
    <path clip-path="url(#pfbd0a2f28b)" d="M 88.567951 474.617531 
L 88.575452 474.611983 
L 88.567951 474.601687 
L 88.562285 474.611983 
L 88.567951 474.617531 
" style="fill:none;stroke:#e41a1c;stroke-width:1.142857;"/>
    <path clip-path="url(#pfbd0a2f28b)" d="M 88.919819 474.395061 
L 89.087369 474.264788 
L 89.271686 474.140252 
L 89.547219 473.917592 
L 89.623553 473.86314 
L 89.975391 473.570397 
L 89.975421 473.570374 
L 90.327288 473.251011 
L 90.355506 473.223201 
L 90.679155 472.926082 
L 90.729773 472.876006 
L 91.031023 472.596519 
L 91.102442 472.52881 
L 91.38289 472.272052 
L 91.484004 472.181615 
L 91.734757 471.971541 
L 91.87575 471.834419 
L 92.086625 471.635535 
L 92.236372 471.487223 
L 92.438492 471.289229 
L 92.585759 471.140028 
L 92.790359 470.946629 
L 92.948359 470.792832 
L 93.142227 470.607282 
L 93.307417 470.445637 
L 93.494094 470.264658 
L 93.663027 470.098441 
L 93.845961 469.918723 
L 94.015218 469.751246 
L 94.197829 469.569371 
L 94.363873 469.40405 
L 94.549696 469.216313 
L 94.708824 469.056855 
L 94.901563 468.859222 
L 95.0498 468.709659 
L 95.253431 468.497606 
L 95.386405 468.362464 
L 95.605298 468.1308 
L 95.718094 468.015268 
L 95.957165 467.757911 
L 96.039843 467.668073 
L 96.309032 467.333381 
L 96.320531 467.320877 
L 96.621702 466.973682 
L 96.6609 466.920527 
L 96.896618 466.626486 
L 97.012767 466.456272 
L 97.14625 466.279291 
L 97.012767 466.119818 
L 96.6609 466.278498 
L 96.65993 466.279291 
L 96.309032 466.56214 
L 96.232531 466.626486 
L 95.957165 466.8314 
L 95.775191 466.973682 
L 95.605298 467.11471 
L 95.365649 467.320877 
L 95.253431 467.414203 
L 94.961493 467.668073 
L 94.901563 467.720218 
L 94.572036 468.015268 
L 94.549696 468.035206 
L 94.197829 468.358119 
L 94.193269 468.362464 
L 93.845961 468.690941 
L 93.826518 468.709659 
L 93.494094 469.029164 
L 93.465619 469.056855 
L 93.142227 469.372611 
L 93.110215 469.40405 
L 92.790359 469.721167 
L 92.760026 469.751246 
L 92.438492 470.074768 
L 92.414838 470.098441 
L 92.086625 470.433397 
L 92.074503 470.445637 
L 91.740182 470.792832 
L 91.734757 470.798705 
L 91.428317 471.140028 
L 91.38289 471.192069 
L 91.080482 471.487223 
L 91.031023 471.539142 
L 90.756941 471.834419 
L 90.679155 471.921237 
L 90.440704 472.181615 
L 90.327288 472.310113 
L 90.1291 472.52881 
L 89.975421 472.705223 
L 89.822034 472.876006 
L 89.623553 473.106429 
L 89.519457 473.223201 
L 89.271686 473.513663 
L 89.221422 473.570397 
L 88.943575 473.917592 
L 88.919819 473.960872 
L 88.758902 474.264788 
L 88.919819 474.395061 
" style="fill:none;stroke:#e41a1c;stroke-width:1.142857;"/>
    <path clip-path="url(#pfbd0a2f28b)" d="M 93.845961 473.622756 
L 93.938513 473.570397 
L 93.845961 473.489646 
L 93.760884 473.570397 
L 93.845961 473.622756 
" style="fill:none;stroke:#e41a1c;stroke-width:1.142857;"/>
    <path clip-path="url(#pfbd0a2f28b)" d="M 94.197829 473.432066 
L 94.549696 473.253355 
L 94.598014 473.223201 
L 94.901563 472.989541 
L 95.039232 472.876006 
L 95.253431 472.672027 
L 95.449262 472.52881 
L 95.605298 472.396091 
L 95.88088 472.181615 
L 95.957165 472.110211 
L 96.309032 471.88892 
L 96.38108 471.834419 
L 96.6609 471.678416 
L 97.003168 471.487223 
L 97.012767 471.478718 
L 97.364634 471.194105 
L 97.425482 471.140028 
L 97.716502 470.871779 
L 97.795296 470.792832 
L 98.068369 470.50993 
L 98.124977 470.445637 
L 98.420236 470.105681 
L 98.426003 470.098441 
L 98.679183 469.751246 
L 98.772104 469.600186 
L 98.894626 469.40405 
L 98.772104 469.219111 
L 98.420236 469.362548 
L 98.358261 469.40405 
L 98.068369 469.618671 
L 97.862804 469.751246 
L 97.716502 469.858654 
L 97.364634 470.088691 
L 97.352237 470.098441 
L 97.012767 470.378896 
L 96.929356 470.445637 
L 96.6609 470.672258 
L 96.522746 470.792832 
L 96.309032 470.996396 
L 96.152999 471.140028 
L 95.957165 471.341524 
L 95.777975 471.487223 
L 95.605298 471.64003 
L 95.377002 471.834419 
L 95.253431 471.951551 
L 94.999137 472.181615 
L 94.901563 472.2674 
L 94.589336 472.52881 
L 94.549696 472.572399 
L 94.256655 472.876006 
L 94.197829 472.948958 
L 94.000145 473.223201 
L 94.197829 473.432066 
" style="fill:none;stroke:#e41a1c;stroke-width:1.142857;"/>
    <path clip-path="url(#pfbd0a2f28b)" d="M 101.587042 472.214148 
L 102.724996 471.487223 
L 107.216919 467.927923 
L 107.389292 468.015268 
L 106.936134 468.709659 
L 105.445456 470.792832 
L 105.14861 471.487223 
L 105.457583 471.722245 
L 106.161317 471.421292 
L 107.551337 470.445637 
L 109.679991 468.648254 
L 112.8895 465.584899 
L 118.167338 460.029771 
L 120.23601 457.532862 
L 120.65447 456.905011 
L 120.587877 456.598676 
L 119.520352 457.252207 
L 112.846796 462.389026 
L 112.43131 462.46014 
L 108.524054 465.237704 
L 105.457583 467.783867 
L 103.346379 469.797341 
L 101.55593 471.834419 
L 101.471163 472.181615 
L 101.587042 472.214148 
L 101.587042 472.214148 
" style="fill:none;stroke:#e41a1c;stroke-width:1.142857;"/>
    <path clip-path="url(#pfbd0a2f28b)" d="M 114.606133 466.854683 
L 115.309868 466.584346 
L 125.227504 460.724162 
L 135.366305 452.737099 
L 137.477509 450.806454 
L 141.022579 447.530732 
L 141.699917 447.048818 
L 141.842997 447.183536 
L 140.996182 448.23947 
L 138.181243 451.034115 
L 134.033018 455.169034 
L 132.199499 457.300349 
L 131.532995 458.293793 
L 131.847632 458.426035 
L 132.617067 457.946598 
L 137.829376 453.770014 
L 141.789274 450.655492 
L 144.988855 448.225123 
L 153.637468 439.89243 
L 157.182079 437.079224 
L 158.711567 436.420475 
L 159.997017 435.562426 
L 161.410492 434.337302 
L 165.91469 429.82376 
L 170.428925 424.963022 
L 175.427436 419.755089 
L 179.78427 415.935939 
L 181.109056 414.838685 
L 183.923995 412.106183 
L 187.090801 408.876976 
L 191.771308 403.436899 
L 200.109891 393.069772 
L 201.237987 391.632251 
L 202.662441 389.549078 
L 203.681127 388.160296 
L 205.739769 385.825481 
L 210.02222 380.86919 
L 212.278364 377.74443 
L 213.128982 376.309766 
L 213.364644 375.661257 
L 213.325372 374.966866 
L 213.61218 374.272475 
L 214.364809 373.230888 
L 216.999523 370.047492 
L 218.58139 368.022955 
L 220.084467 365.592587 
L 222.435918 361.079045 
L 223.23879 360.037458 
L 233.889154 346.307756 
L 233.94751 346.149637 
L 233.889154 345.948228 
L 233.537287 345.926422 
L 232.814352 346.149637 
L 232.833552 345.7706 
L 235.583442 342.330486 
L 240.644555 336.428162 
L 241.988315 334.692184 
L 242.685837 333.264597 
L 243.037704 332.342432 
L 243.854995 330.873034 
L 247.611979 324.508159 
L 249.822757 321.498754 
L 250.987919 319.762777 
L 255.024254 312.47167 
L 255.096288 312.124475 
L 254.916311 311.430084 
L 257.698865 308.305324 
L 261.232364 304.486173 
L 263.466418 301.708609 
L 263.858435 301.014218 
L 263.797876 300.64662 
L 263.74048 300.667022 
L 262.978809 301.014218 
L 261.686672 301.922403 
L 257.464264 305.621256 
L 253.01063 310.041302 
L 248.007003 315.59643 
L 246.908245 317.212662 
L 246.908245 317.478952 
L 247.611979 317.271715 
L 247.963847 317.173436 
L 248.322341 317.332408 
L 248.315714 317.339051 
L 244.759078 321.151559 
L 242.685837 323.585304 
L 241.125275 325.665101 
L 239.167164 328.65404 
L 235.648491 333.735656 
L 235.203066 334.692184 
L 234.484136 336.428162 
L 233.171425 338.511335 
L 231.714055 340.594508 
L 226.707108 347.538419 
L 225.248396 349.968788 
L 225.038842 350.663179 
L 224.740604 351.799055 
L 224.388736 353.035058 
L 224.826987 353.093547 
L 222.277532 355.532981 
L 220.690405 356.565503 
L 219.110727 357.91044 
L 212.777115 364.080848 
L 209.885178 367.328564 
L 207.499105 370.361548 
L 207.437227 370.453324 
L 207.344891 370.80052 
L 207.499105 371.029114 
L 208.20284 370.729691 
L 209.258442 370.046239 
L 209.595917 370.106128 
L 208.554707 371.636668 
L 207.307309 373.230888 
L 205.739769 375.352227 
L 189.202005 394.353018 
L 186.387066 397.359363 
L 179.701587 404.857246 
L 177.590383 407.188167 
L 172.923277 412.116788 
L 166.483798 418.713503 
L 163.163823 422.258871 
L 159.64515 425.726787 
L 155.774609 429.23028 
L 150.496527 433.990106 
L 144.385448 439.545235 
L 140.996182 442.356841 
L 139.94058 443.046691 
L 139.588713 443.115218 
L 139.066323 442.669994 
L 138.884978 442.687079 
L 137.477509 443.560855 
L 135.366305 445.185871 
L 128.680826 451.027473 
L 117.421072 462.931665 
L 115.309868 465.443803 
L 114.606133 466.446574 
L 114.507363 466.626486 
L 114.606133 466.854683 
L 114.606133 466.854683 
" style="fill:none;stroke:#e41a1c;stroke-width:1.142857;"/>
   </g>
   <g id="patch_3">
    <path d="M 35.289375 525.1 
L 35.289375 266.15 
" style="fill:none;stroke:#000000;stroke-linecap:square;stroke-linejoin:miter;stroke-width:0.8;"/>
   </g>
   <g id="patch_4">
    <path d="M 297.72375 525.1 
L 297.72375 266.15 
" style="fill:none;stroke:#000000;stroke-linecap:square;stroke-linejoin:miter;stroke-width:0.8;"/>
   </g>
   <g id="patch_5">
    <path d="M 35.289375 525.1 
L 297.72375 525.1 
" style="fill:none;stroke:#000000;stroke-linecap:square;stroke-linejoin:miter;stroke-width:0.8;"/>
   </g>
   <g id="patch_6">
    <path d="M 35.289375 266.15 
L 297.72375 266.15 
" style="fill:none;stroke:#000000;stroke-linecap:square;stroke-linejoin:miter;stroke-width:0.8;"/>
   </g>
  </g>
  <g id="axes_2">
   <g id="patch_7">
    <path d="M 35.289375 266.15 
L 297.72375 266.15 
L 297.72375 7.2 
L 35.289375 7.2 
z
" style="fill:#ffffff;"/>
   </g>
   <g id="matplotlib.axis_3">
    <g id="xtick_4">
     <g id="line2d_13">
      <g>
       <use style="stroke:#000000;stroke-width:0.8;" x="116.008693" xlink:href="#m5d1d384750" y="266.15"/>
      </g>
     </g>
    </g>
    <g id="xtick_5">
     <g id="line2d_14">
      <g>
       <use style="stroke:#000000;stroke-width:0.8;" x="191.41837" xlink:href="#m5d1d384750" y="266.15"/>
      </g>
     </g>
    </g>
    <g id="xtick_6">
     <g id="line2d_15">
      <g>
       <use style="stroke:#000000;stroke-width:0.8;" x="266.828047" xlink:href="#m5d1d384750" y="266.15"/>
      </g>
     </g>
    </g>
   </g>
   <g id="matplotlib.axis_4">
    <g id="ytick_4"/>
    <g id="ytick_5"/>
    <g id="ytick_6"/>
    <g id="ytick_7"/>
    <g id="ytick_8"/>
   </g>
   <g id="line2d_16">
    <path clip-path="url(#p1924438dba)" d="M 35.212415 266.14361 
L 41.984915 266.026828 
L 46.294688 265.817311 
L 50.296619 265.304789 
L 52.759347 264.806965 
L 54.914233 264.188025 
L 56.761278 263.396718 
L 58.608324 262.431564 
L 60.455369 261.182771 
L 61.994574 259.927607 
L 64.14946 257.755991 
L 65.688665 255.880347 
L 67.227869 253.737828 
L 69.074915 250.76645 
L 71.229801 246.650489 
L 73.384688 242.046787 
L 75.539574 236.794395 
L 77.69446 231.040858 
L 80.157188 223.902289 
L 85.390483 207.92646 
L 91.547301 188.970011 
L 94.62571 180.402523 
L 98.935483 170.110843 
L 102.629574 162.692157 
L 106.323665 156.403233 
L 107.862869 154.094022 
L 108.786392 152.630151 
L 110.941278 149.684954 
L 111.55696 148.828923 
L 113.404006 146.302417 
L 117.098097 141.62425 
L 119.868665 137.916624 
L 120.176506 137.461329 
L 120.484347 137.352558 
L 125.10196 130.874412 
L 126.025483 129.656835 
L 129.103892 125.312862 
L 130.643097 122.937849 
L 130.950938 124.159132 
L 133.721506 119.076351 
L 134.029347 119.127832 
L 137.107756 113.263805 
L 137.723438 112.321279 
L 138.64696 110.450428 
L 139.878324 108.138324 
L 140.801847 106.468908 
L 141.417528 105.270207 
L 141.725369 105.035762 
L 143.880256 101.145777 
L 146.958665 94.783847 
L 147.574347 93.563814 
L 148.497869 91.627552 
L 149.421392 89.912949 
L 153.423324 82.122291 
L 161.735028 65.248192 
L 162.658551 63.447991 
L 163.889915 61.113554 
L 164.813438 59.393352 
L 167.584006 53.994001 
L 169.431051 50.71476 
L 170.046733 49.552457 
L 170.970256 48.245864 
L 171.893778 46.465664 
L 172.201619 46.116017 
L 172.817301 45.152231 
L 173.125142 44.827864 
L 174.048665 43.281476 
L 177.742756 38.333838 
L 178.050597 38.114195 
L 179.28196 36.697676 
L 182.66821 33.90618 
L 183.283892 33.482416 
L 186.05446 31.746587 
L 187.593665 31.140949 
L 187.901506 31.050865 
L 188.517188 31.067663 
L 188.825028 30.95771 
L 189.132869 30.986755 
L 190.364233 30.596006 
L 190.672074 30.526706 
L 190.979915 30.71585 
L 191.595597 30.657023 
L 193.750483 31.400799 
L 194.058324 31.37086 
L 194.981847 31.735482 
L 195.597528 32.176135 
L 198.368097 33.743701 
L 198.983778 34.303474 
L 200.522983 35.969627 
L 201.138665 36.676579 
L 202.062187 37.824952 
L 202.98571 39.128005 
L 203.601392 39.983308 
L 204.217074 40.74613 
L 205.140597 42.020519 
L 205.756278 43.109713 
L 206.064119 43.702855 
L 206.679801 44.201895 
L 207.911165 46.488933 
L 208.219006 46.475438 
L 208.526847 46.679744 
L 209.450369 48.306086 
L 210.681733 50.896509 
L 210.989574 50.958148 
L 211.913097 52.885153 
L 212.220937 52.184189 
L 212.528778 52.755961 
L 212.836619 52.690311 
L 219.301278 64.688378 
L 220.532642 66.945485 
L 223.30321 72.048233 
L 228.228665 82.099466 
L 230.999233 88.023166 
L 234.693324 97.308054 
L 238.079574 107.12774 
L 240.23446 114.271927 
L 242.081506 121.098005 
L 244.236392 129.68311 
L 246.699119 140.393609 
L 253.77946 174.965588 
L 255.934347 185.684143 
L 261.783324 213.412089 
L 264.553892 224.857452 
L 267.32446 234.699368 
L 269.171506 240.347586 
L 271.018551 245.306018 
L 272.557756 248.922166 
L 274.404801 252.631886 
L 276.251847 255.728403 
L 278.098892 258.239222 
L 279.638097 259.949388 
L 281.177301 261.346438 
L 282.716506 262.461858 
L 284.871392 263.667036 
L 286.718438 264.422869 
L 289.181165 265.123822 
L 291.951733 265.610028 
L 294.722301 265.878163 
L 297.80071 266.032692 
L 297.80071 266.032692 
" style="fill:none;stroke:#e41a1c;stroke-linecap:square;stroke-width:1.142857;"/>
   </g>
   <g id="patch_8">
    <path d="M 35.289375 266.15 
L 35.289375 7.2 
" style="fill:none;stroke:#000000;stroke-linecap:square;stroke-linejoin:miter;stroke-width:0.8;"/>
   </g>
   <g id="patch_9">
    <path d="M 297.72375 266.15 
L 297.72375 7.2 
" style="fill:none;stroke:#000000;stroke-linecap:square;stroke-linejoin:miter;stroke-width:0.8;"/>
   </g>
   <g id="patch_10">
    <path d="M 35.289375 266.15 
L 297.72375 266.15 
" style="fill:none;stroke:#000000;stroke-linecap:square;stroke-linejoin:miter;stroke-width:0.8;"/>
   </g>
   <g id="patch_11">
    <path d="M 35.289375 7.2 
L 297.72375 7.2 
" style="fill:none;stroke:#000000;stroke-linecap:square;stroke-linejoin:miter;stroke-width:0.8;"/>
   </g>
  </g>
  <g id="axes_3">
   <g id="patch_12">
    <path d="M 297.72375 525.1 
L 560.158125 525.1 
L 560.158125 266.15 
L 297.72375 266.15 
z
" style="fill:#ffffff;"/>
   </g>
   <g id="matplotlib.axis_5">
    <g id="xtick_7">
     <g id="line2d_17">
      <g>
       <use style="stroke:#000000;stroke-width:0.8;" x="339.273389" xlink:href="#m5d1d384750" y="525.1"/>
      </g>
     </g>
     <g id="text_9">
      <!-- $\mathdefault{0}$ -->
      <g transform="translate(335.753389 536.958281)scale(0.11 -0.11)">
       <use transform="translate(0 0.78125)" xlink:href="#DejaVuSans-48"/>
      </g>
     </g>
    </g>
    <g id="xtick_8">
     <g id="line2d_18">
      <g>
       <use style="stroke:#000000;stroke-width:0.8;" x="427.080112" xlink:href="#m5d1d384750" y="525.1"/>
      </g>
     </g>
     <g id="text_10">
      <!-- $\mathdefault{1}$ -->
      <g transform="translate(423.560112 536.958281)scale(0.11 -0.11)">
       <use transform="translate(0 0.09375)" xlink:href="#DejaVuSans-49"/>
      </g>
     </g>
    </g>
    <g id="xtick_9">
     <g id="line2d_19">
      <g>
       <use style="stroke:#000000;stroke-width:0.8;" x="514.886836" xlink:href="#m5d1d384750" y="525.1"/>
      </g>
     </g>
     <g id="text_11">
      <!-- $\mathdefault{2}$ -->
      <g transform="translate(511.366836 536.958281)scale(0.11 -0.11)">
       <use transform="translate(0 0.78125)" xlink:href="#DejaVuSans-50"/>
      </g>
     </g>
    </g>
    <g id="text_12">
     <!-- Kunz -->
     <g transform="translate(412.154062 557.245937)scale(0.14 -0.14)">
      <use xlink:href="#DejaVuSans-75"/>
      <use x="60.576172" xlink:href="#DejaVuSans-117"/>
      <use x="123.955078" xlink:href="#DejaVuSans-110"/>
      <use x="187.333984" xlink:href="#DejaVuSans-122"/>
     </g>
    </g>
   </g>
   <g id="matplotlib.axis_6">
    <g id="ytick_9"/>
    <g id="ytick_10"/>
    <g id="ytick_11"/>
    <g id="ytick_12"/>
    <g id="ytick_13"/>
   </g>
   <g id="line2d_20">
    <path clip-path="url(#p3f025914cb)" d="M 297.64679 525.084096 
L 303.495767 524.950995 
L 306.882017 524.719961 
L 309.344744 524.436852 
L 312.423153 523.810607 
L 314.57804 523.083578 
L 316.732926 522.039833 
L 318.579972 520.828633 
L 320.119176 519.56933 
L 321.658381 518.023867 
L 323.197585 516.094624 
L 325.044631 513.18234 
L 326.275994 510.846762 
L 327.815199 507.564262 
L 329.662244 502.92317 
L 331.50929 497.292557 
L 333.048494 492.022851 
L 334.89554 484.760171 
L 337.666108 472.047242 
L 339.513153 462.519315 
L 341.66804 450.397081 
L 345.669972 425.597583 
L 352.134631 383.083882 
L 356.136563 358.391519 
L 359.522812 339.775021 
L 361.369858 331.022031 
L 363.216903 323.201125 
L 365.063949 316.435101 
L 366.603153 311.450762 
L 368.450199 306.290088 
L 369.989403 302.665569 
L 371.836449 299.165496 
L 374.299176 295.539928 
L 375.222699 294.476686 
L 378.608949 291.743789 
L 380.763835 290.873453 
L 383.226562 290.164004 
L 383.842244 289.931478 
L 385.381449 289.739998 
L 386.304972 289.559675 
L 387.228494 289.476706 
L 387.536335 289.749036 
L 388.152017 289.705561 
L 389.07554 289.966141 
L 389.691222 289.837464 
L 389.999062 289.855072 
L 390.306903 290.045362 
L 391.230426 290.164379 
L 392.769631 289.869284 
L 393.385312 290.202908 
L 394.000994 290.060586 
L 394.308835 290.333631 
L 397.079403 290.401429 
L 397.387244 290.281886 
L 398.618608 290.561852 
L 399.542131 291.00191 
L 399.849972 292.47889 
L 400.157812 292.359226 
L 400.465653 292.911743 
L 401.081335 292.836134 
L 402.004858 292.882562 
L 402.312699 293.036873 
L 402.62054 292.881768 
L 402.928381 293.099852 
L 403.236222 293.10317 
L 403.544062 293.281143 
L 403.851903 293.213559 
L 404.159744 293.460286 
L 404.467585 293.525821 
L 404.775426 293.29501 
L 405.083267 293.28755 
L 405.391108 293.597355 
L 405.698949 293.516001 
L 406.00679 293.565209 
L 406.622472 293.349229 
L 406.930313 293.371034 
L 407.238153 293.541449 
L 407.545994 293.576838 
L 407.853835 293.773055 
L 408.161676 293.697145 
L 409.39304 293.867265 
L 410.008722 293.964542 
L 410.932244 294.429076 
L 411.855767 294.993427 
L 412.163608 295.078115 
L 412.471449 295.407785 
L 412.77929 295.454511 
L 413.394972 295.758855 
L 413.702812 295.920384 
L 414.318494 296.007397 
L 414.626335 296.18976 
L 414.934176 296.100077 
L 415.857699 296.651848 
L 416.16554 296.982954 
L 416.781222 297.380786 
L 417.396903 297.80451 
L 417.704744 297.755918 
L 419.55179 299.016812 
L 420.475312 299.763661 
L 420.783153 300.011725 
L 421.398835 300.688177 
L 422.014517 301.335101 
L 422.630199 302.029439 
L 422.93804 302.287685 
L 423.553722 303.172538 
L 424.169403 303.760952 
L 425.400767 304.924096 
L 426.016449 305.517765 
L 427.863494 307.666311 
L 432.173267 313.402998 
L 434.943835 317.928115 
L 436.175199 319.956201 
L 438.637926 324.22043 
L 440.792812 328.537311 
L 442.639858 332.389901 
L 443.563381 334.363217 
L 444.794744 336.862015 
L 446.026108 339.761458 
L 451.875085 352.752337 
L 453.722131 357.059689 
L 454.337812 358.444608 
L 455.569176 361.602094 
L 455.877017 362.108357 
L 457.108381 364.821586 
L 458.031903 366.939469 
L 458.955426 368.870783 
L 459.878949 370.837151 
L 462.649517 376.165445 
L 462.957358 376.85441 
L 463.265199 377.252376 
L 466.343608 383.11552 
L 466.651449 383.476821 
L 467.882812 385.669283 
L 468.190653 385.52042 
L 470.037699 388.504774 
L 470.34554 388.473266 
L 470.653381 389.00307 
L 470.961222 388.990068 
L 471.576903 389.771126 
L 471.884744 388.898402 
L 473.423949 390.546804 
L 477.425881 394.202689 
L 481.427812 396.977274 
L 486.353267 399.592732 
L 486.968949 399.93987 
L 489.123835 401.088929 
L 489.739517 401.546986 
L 492.510085 403.557585 
L 493.433608 404.395117 
L 493.741449 404.615763 
L 494.972812 405.935756 
L 496.204176 407.197 
L 498.051222 409.552656 
L 500.206108 412.879147 
L 502.053153 416.110375 
L 506.670767 426.929512 
L 509.441335 434.713607 
L 512.211903 443.554733 
L 514.058949 449.740994 
L 516.829517 459.284481 
L 521.13929 474.229455 
L 524.833381 486.422938 
L 527.296108 493.745883 
L 529.143153 498.751978 
L 531.605881 504.545158 
L 533.452926 508.359408 
L 535.299972 511.659335 
L 537.454858 514.866402 
L 538.994062 516.76247 
L 540.533267 518.380868 
L 542.380312 520.037294 
L 544.227358 521.321364 
L 546.382244 522.476534 
L 548.844972 523.420903 
L 551.61554 524.114234 
L 555.00179 524.617732 
L 559.311562 524.935803 
L 560.235085 524.964662 
L 560.235085 524.964662 
" style="fill:none;stroke:#e41a1c;stroke-linecap:square;stroke-width:1.142857;"/>
   </g>
   <g id="patch_13">
    <path d="M 297.72375 525.1 
L 297.72375 266.15 
" style="fill:none;stroke:#000000;stroke-linecap:square;stroke-linejoin:miter;stroke-width:0.8;"/>
   </g>
   <g id="patch_14">
    <path d="M 560.158125 525.1 
L 560.158125 266.15 
" style="fill:none;stroke:#000000;stroke-linecap:square;stroke-linejoin:miter;stroke-width:0.8;"/>
   </g>
   <g id="patch_15">
    <path d="M 297.72375 525.1 
L 560.158125 525.1 
" style="fill:none;stroke:#000000;stroke-linecap:square;stroke-linejoin:miter;stroke-width:0.8;"/>
   </g>
   <g id="patch_16">
    <path d="M 297.72375 266.15 
L 560.158125 266.15 
" style="fill:none;stroke:#000000;stroke-linecap:square;stroke-linejoin:miter;stroke-width:0.8;"/>
   </g>
  </g>
 </g>
 <defs>
  <clipPath id="pfbd0a2f28b">
   <rect height="258.95" width="262.434375" x="35.289375" y="266.15"/>
  </clipPath>
  <clipPath id="p1924438dba">
   <rect height="258.95" width="262.434375" x="35.289375" y="7.2"/>
  </clipPath>
  <clipPath id="p3f025914cb">
   <rect height="258.95" width="262.434375" x="297.72375" y="266.15"/>
  </clipPath>
 </defs>
</svg>
