<?xml version="1.0" encoding="utf-8" standalone="no"?>
<!DOCTYPE svg PUBLIC "-//W3C//DTD SVG 1.1//EN"
  "http://www.w3.org/Graphics/SVG/1.1/DTD/svg11.dtd">
<!-- Created with matplotlib (https://matplotlib.org/) -->
<svg height="567.3575pt" version="1.1" viewBox="0 0 567.358125 567.3575" width="567.358125pt" xmlns="http://www.w3.org/2000/svg" xmlns:xlink="http://www.w3.org/1999/xlink">
 <defs>
  <style type="text/css">
*{stroke-linecap:butt;stroke-linejoin:round;}
  </style>
 </defs>
 <g id="figure_1">
  <g id="patch_1">
   <path d="M 0 567.3575 
L 567.358125 567.3575 
L 567.358125 0 
L 0 0 
z
" style="fill:#ffffff;"/>
  </g>
  <g id="axes_1">
   <g id="patch_2">
    <path d="M 35.289375 525.1 
L 297.72375 525.1 
L 297.72375 266.15 
L 35.289375 266.15 
z
" style="fill:#ffffff;"/>
   </g>
   <g id="matplotlib.axis_1">
    <g id="xtick_1">
     <g id="line2d_1">
      <defs>
       <path d="M 0 0 
L 0 -3.5 
" id="ma12a420f0c" style="stroke:#000000;stroke-width:0.8;"/>
      </defs>
      <g>
       <use style="stroke:#000000;stroke-width:0.8;" x="94.721785" xlink:href="#ma12a420f0c" y="525.1"/>
      </g>
     </g>
     <g id="line2d_2">
      <defs>
       <path d="M 0 0 
L 0 3.5 
" id="m3b3f5b301c" style="stroke:#000000;stroke-width:0.8;"/>
      </defs>
      <g>
       <use style="stroke:#000000;stroke-width:0.8;" x="94.721785" xlink:href="#m3b3f5b301c" y="266.15"/>
      </g>
     </g>
     <g id="text_1">
      <!-- $\mathdefault{0.5}$ -->
      <defs>
       <path d="M 31.78125 66.40625 
Q 24.171875 66.40625 20.328125 58.90625 
Q 16.5 51.421875 16.5 36.375 
Q 16.5 21.390625 20.328125 13.890625 
Q 24.171875 6.390625 31.78125 6.390625 
Q 39.453125 6.390625 43.28125 13.890625 
Q 47.125 21.390625 47.125 36.375 
Q 47.125 51.421875 43.28125 58.90625 
Q 39.453125 66.40625 31.78125 66.40625 
z
M 31.78125 74.21875 
Q 44.046875 74.21875 50.515625 64.515625 
Q 56.984375 54.828125 56.984375 36.375 
Q 56.984375 17.96875 50.515625 8.265625 
Q 44.046875 -1.421875 31.78125 -1.421875 
Q 19.53125 -1.421875 13.0625 8.265625 
Q 6.59375 17.96875 6.59375 36.375 
Q 6.59375 54.828125 13.0625 64.515625 
Q 19.53125 74.21875 31.78125 74.21875 
z
" id="DejaVuSans-48"/>
       <path d="M 10.6875 12.40625 
L 21 12.40625 
L 21 0 
L 10.6875 0 
z
" id="DejaVuSans-46"/>
       <path d="M 10.796875 72.90625 
L 49.515625 72.90625 
L 49.515625 64.59375 
L 19.828125 64.59375 
L 19.828125 46.734375 
Q 21.96875 47.46875 24.109375 47.828125 
Q 26.265625 48.1875 28.421875 48.1875 
Q 40.625 48.1875 47.75 41.5 
Q 54.890625 34.8125 54.890625 23.390625 
Q 54.890625 11.625 47.5625 5.09375 
Q 40.234375 -1.421875 26.90625 -1.421875 
Q 22.3125 -1.421875 17.546875 -0.640625 
Q 12.796875 0.140625 7.71875 1.703125 
L 7.71875 11.625 
Q 12.109375 9.234375 16.796875 8.0625 
Q 21.484375 6.890625 26.703125 6.890625 
Q 35.15625 6.890625 40.078125 11.328125 
Q 45.015625 15.765625 45.015625 23.390625 
Q 45.015625 31 40.078125 35.4375 
Q 35.15625 39.890625 26.703125 39.890625 
Q 22.75 39.890625 18.8125 39.015625 
Q 14.890625 38.140625 10.796875 36.28125 
z
" id="DejaVuSans-53"/>
      </defs>
      <g transform="translate(85.921785 536.958281)scale(0.11 -0.11)">
       <use transform="translate(0 0.78125)" xlink:href="#DejaVuSans-48"/>
       <use transform="translate(63.623047 0.78125)" xlink:href="#DejaVuSans-46"/>
       <use transform="translate(95.410156 0.78125)" xlink:href="#DejaVuSans-53"/>
      </g>
     </g>
    </g>
    <g id="xtick_2">
     <g id="line2d_3">
      <g>
       <use style="stroke:#000000;stroke-width:0.8;" x="166.702427" xlink:href="#ma12a420f0c" y="525.1"/>
      </g>
     </g>
     <g id="line2d_4">
      <g>
       <use style="stroke:#000000;stroke-width:0.8;" x="166.702427" xlink:href="#m3b3f5b301c" y="266.15"/>
      </g>
     </g>
     <g id="text_2">
      <!-- $\mathdefault{1.0}$ -->
      <defs>
       <path d="M 12.40625 8.296875 
L 28.515625 8.296875 
L 28.515625 63.921875 
L 10.984375 60.40625 
L 10.984375 69.390625 
L 28.421875 72.90625 
L 38.28125 72.90625 
L 38.28125 8.296875 
L 54.390625 8.296875 
L 54.390625 0 
L 12.40625 0 
z
" id="DejaVuSans-49"/>
      </defs>
      <g transform="translate(157.902427 536.958281)scale(0.11 -0.11)">
       <use transform="translate(0 0.78125)" xlink:href="#DejaVuSans-49"/>
       <use transform="translate(63.623047 0.78125)" xlink:href="#DejaVuSans-46"/>
       <use transform="translate(95.410156 0.78125)" xlink:href="#DejaVuSans-48"/>
      </g>
     </g>
    </g>
    <g id="xtick_3">
     <g id="line2d_5">
      <g>
       <use style="stroke:#000000;stroke-width:0.8;" x="238.683069" xlink:href="#ma12a420f0c" y="525.1"/>
      </g>
     </g>
     <g id="line2d_6">
      <g>
       <use style="stroke:#000000;stroke-width:0.8;" x="238.683069" xlink:href="#m3b3f5b301c" y="266.15"/>
      </g>
     </g>
     <g id="text_3">
      <!-- $\mathdefault{1.5}$ -->
      <g transform="translate(229.883069 536.958281)scale(0.11 -0.11)">
       <use transform="translate(0 0.09375)" xlink:href="#DejaVuSans-49"/>
       <use transform="translate(63.623047 0.09375)" xlink:href="#DejaVuSans-46"/>
       <use transform="translate(95.410156 0.09375)" xlink:href="#DejaVuSans-53"/>
      </g>
     </g>
    </g>
    <g id="text_4">
     <!-- Hinz -->
     <defs>
      <path d="M 9.8125 72.90625 
L 19.671875 72.90625 
L 19.671875 43.015625 
L 55.515625 43.015625 
L 55.515625 72.90625 
L 65.375 72.90625 
L 65.375 0 
L 55.515625 0 
L 55.515625 34.71875 
L 19.671875 34.71875 
L 19.671875 0 
L 9.8125 0 
z
" id="DejaVuSans-72"/>
      <path d="M 9.421875 54.6875 
L 18.40625 54.6875 
L 18.40625 0 
L 9.421875 0 
z
M 9.421875 75.984375 
L 18.40625 75.984375 
L 18.40625 64.59375 
L 9.421875 64.59375 
z
" id="DejaVuSans-105"/>
      <path d="M 54.890625 33.015625 
L 54.890625 0 
L 45.90625 0 
L 45.90625 32.71875 
Q 45.90625 40.484375 42.875 44.328125 
Q 39.84375 48.1875 33.796875 48.1875 
Q 26.515625 48.1875 22.3125 43.546875 
Q 18.109375 38.921875 18.109375 30.90625 
L 18.109375 0 
L 9.078125 0 
L 9.078125 54.6875 
L 18.109375 54.6875 
L 18.109375 46.1875 
Q 21.34375 51.125 25.703125 53.5625 
Q 30.078125 56 35.796875 56 
Q 45.21875 56 50.046875 50.171875 
Q 54.890625 44.34375 54.890625 33.015625 
z
" id="DejaVuSans-110"/>
      <path d="M 5.515625 54.6875 
L 48.1875 54.6875 
L 48.1875 46.484375 
L 14.40625 7.171875 
L 48.1875 7.171875 
L 48.1875 0 
L 4.296875 0 
L 4.296875 8.203125 
L 38.09375 47.515625 
L 5.515625 47.515625 
z
" id="DejaVuSans-122"/>
     </defs>
     <g transform="translate(151.1875 557.245937)scale(0.14 -0.14)">
      <use xlink:href="#DejaVuSans-72"/>
      <use x="75.195312" xlink:href="#DejaVuSans-105"/>
      <use x="102.978516" xlink:href="#DejaVuSans-110"/>
      <use x="166.357422" xlink:href="#DejaVuSans-122"/>
     </g>
    </g>
   </g>
   <g id="matplotlib.axis_2">
    <g id="ytick_1">
     <g id="line2d_7">
      <defs>
       <path d="M 0 0 
L 3.5 0 
" id="m7983665aba" style="stroke:#000000;stroke-width:0.8;"/>
      </defs>
      <g>
       <use style="stroke:#000000;stroke-width:0.8;" x="35.289375" xlink:href="#m7983665aba" y="489.872244"/>
      </g>
     </g>
     <g id="line2d_8">
      <defs>
       <path d="M 0 0 
L -3.5 0 
" id="m7c032bb1ee" style="stroke:#000000;stroke-width:0.8;"/>
      </defs>
      <g>
       <use style="stroke:#000000;stroke-width:0.8;" x="297.72375" xlink:href="#m7c032bb1ee" y="489.872244"/>
      </g>
     </g>
     <g id="text_5">
      <!-- $\mathdefault{0}$ -->
      <g transform="translate(24.749375 494.051385)scale(0.11 -0.11)">
       <use transform="translate(0 0.78125)" xlink:href="#DejaVuSans-48"/>
      </g>
     </g>
    </g>
    <g id="ytick_2">
     <g id="line2d_9">
      <g>
       <use style="stroke:#000000;stroke-width:0.8;" x="35.289375" xlink:href="#m7983665aba" y="418.570673"/>
      </g>
     </g>
     <g id="line2d_10">
      <g>
       <use style="stroke:#000000;stroke-width:0.8;" x="297.72375" xlink:href="#m7c032bb1ee" y="418.570673"/>
      </g>
     </g>
     <g id="text_6">
      <!-- $\mathdefault{1}$ -->
      <g transform="translate(24.749375 422.749814)scale(0.11 -0.11)">
       <use transform="translate(0 0.09375)" xlink:href="#DejaVuSans-49"/>
      </g>
     </g>
    </g>
    <g id="ytick_3">
     <g id="line2d_11">
      <g>
       <use style="stroke:#000000;stroke-width:0.8;" x="35.289375" xlink:href="#m7983665aba" y="347.269102"/>
      </g>
     </g>
     <g id="line2d_12">
      <g>
       <use style="stroke:#000000;stroke-width:0.8;" x="297.72375" xlink:href="#m7c032bb1ee" y="347.269102"/>
      </g>
     </g>
     <g id="text_7">
      <!-- $\mathdefault{2}$ -->
      <defs>
       <path d="M 19.1875 8.296875 
L 53.609375 8.296875 
L 53.609375 0 
L 7.328125 0 
L 7.328125 8.296875 
Q 12.9375 14.109375 22.625 23.890625 
Q 32.328125 33.6875 34.8125 36.53125 
Q 39.546875 41.84375 41.421875 45.53125 
Q 43.3125 49.21875 43.3125 52.78125 
Q 43.3125 58.59375 39.234375 62.25 
Q 35.15625 65.921875 28.609375 65.921875 
Q 23.96875 65.921875 18.8125 64.3125 
Q 13.671875 62.703125 7.8125 59.421875 
L 7.8125 69.390625 
Q 13.765625 71.78125 18.9375 73 
Q 24.125 74.21875 28.421875 74.21875 
Q 39.75 74.21875 46.484375 68.546875 
Q 53.21875 62.890625 53.21875 53.421875 
Q 53.21875 48.921875 51.53125 44.890625 
Q 49.859375 40.875 45.40625 35.40625 
Q 44.1875 33.984375 37.640625 27.21875 
Q 31.109375 20.453125 19.1875 8.296875 
z
" id="DejaVuSans-50"/>
      </defs>
      <g transform="translate(24.749375 351.448243)scale(0.11 -0.11)">
       <use transform="translate(0 0.78125)" xlink:href="#DejaVuSans-50"/>
      </g>
     </g>
    </g>
    <g id="ytick_4">
     <g id="line2d_13">
      <g>
       <use style="stroke:#000000;stroke-width:0.8;" x="35.289375" xlink:href="#m7983665aba" y="275.967532"/>
      </g>
     </g>
     <g id="line2d_14">
      <g>
       <use style="stroke:#000000;stroke-width:0.8;" x="297.72375" xlink:href="#m7c032bb1ee" y="275.967532"/>
      </g>
     </g>
     <g id="text_8">
      <!-- $\mathdefault{3}$ -->
      <defs>
       <path d="M 40.578125 39.3125 
Q 47.65625 37.796875 51.625 33 
Q 55.609375 28.21875 55.609375 21.1875 
Q 55.609375 10.40625 48.1875 4.484375 
Q 40.765625 -1.421875 27.09375 -1.421875 
Q 22.515625 -1.421875 17.65625 -0.515625 
Q 12.796875 0.390625 7.625 2.203125 
L 7.625 11.71875 
Q 11.71875 9.328125 16.59375 8.109375 
Q 21.484375 6.890625 26.8125 6.890625 
Q 36.078125 6.890625 40.9375 10.546875 
Q 45.796875 14.203125 45.796875 21.1875 
Q 45.796875 27.640625 41.28125 31.265625 
Q 36.765625 34.90625 28.71875 34.90625 
L 20.21875 34.90625 
L 20.21875 43.015625 
L 29.109375 43.015625 
Q 36.375 43.015625 40.234375 45.921875 
Q 44.09375 48.828125 44.09375 54.296875 
Q 44.09375 59.90625 40.109375 62.90625 
Q 36.140625 65.921875 28.71875 65.921875 
Q 24.65625 65.921875 20.015625 65.03125 
Q 15.375 64.15625 9.8125 62.3125 
L 9.8125 71.09375 
Q 15.4375 72.65625 20.34375 73.4375 
Q 25.25 74.21875 29.59375 74.21875 
Q 40.828125 74.21875 47.359375 69.109375 
Q 53.90625 64.015625 53.90625 55.328125 
Q 53.90625 49.265625 50.4375 45.09375 
Q 46.96875 40.921875 40.578125 39.3125 
z
" id="DejaVuSans-51"/>
      </defs>
      <g transform="translate(24.749375 280.146672)scale(0.11 -0.11)">
       <use transform="translate(0 0.78125)" xlink:href="#DejaVuSans-51"/>
      </g>
     </g>
    </g>
    <g id="text_9">
     <!-- Kunz -->
     <defs>
      <path d="M 9.8125 72.90625 
L 19.671875 72.90625 
L 19.671875 42.09375 
L 52.390625 72.90625 
L 65.09375 72.90625 
L 28.90625 38.921875 
L 67.671875 0 
L 54.6875 0 
L 19.671875 35.109375 
L 19.671875 0 
L 9.8125 0 
z
" id="DejaVuSans-75"/>
      <path d="M 8.5 21.578125 
L 8.5 54.6875 
L 17.484375 54.6875 
L 17.484375 21.921875 
Q 17.484375 14.15625 20.5 10.265625 
Q 23.53125 6.390625 29.59375 6.390625 
Q 36.859375 6.390625 41.078125 11.03125 
Q 45.3125 15.671875 45.3125 23.6875 
L 45.3125 54.6875 
L 54.296875 54.6875 
L 54.296875 0 
L 45.3125 0 
L 45.3125 8.40625 
Q 42.046875 3.421875 37.71875 1 
Q 33.40625 -1.421875 27.6875 -1.421875 
Q 18.265625 -1.421875 13.375 4.4375 
Q 8.5 10.296875 8.5 21.578125 
z
M 31.109375 56 
z
" id="DejaVuSans-117"/>
     </defs>
     <g transform="translate(17.837813 412.411875)rotate(-90)scale(0.14 -0.14)">
      <use xlink:href="#DejaVuSans-75"/>
      <use x="60.576172" xlink:href="#DejaVuSans-117"/>
      <use x="123.955078" xlink:href="#DejaVuSans-110"/>
      <use x="187.333984" xlink:href="#DejaVuSans-122"/>
     </g>
    </g>
   </g>
   <g id="LineCollection_1">
    <path clip-path="url(#p10579514f0)" d="M 64.871394 494.399219 
L 65.303332 494.29062 
L 66.184934 493.755281 
L 71.110709 490.02885 
L 71.767479 489.682706 
L 72.095865 489.661096 
L 72.752635 489.742196 
L 73.409405 489.691211 
L 74.066175 489.840196 
L 74.722945 489.660854 
L 76.36487 488.760195 
L 78.99195 487.379008 
L 79.64872 487.190386 
L 80.96226 487.265582 
L 82.02503 486.838045 
L 83.589341 486.07603 
L 85.231266 485.348421 
L 87.86836 484.245845 
L 90.813812 482.948693 
L 92.243657 482.301694 
L 95.411202 480.579342 
L 98.695052 478.981102 
L 101.783103 477.441319 
L 103.620828 476.392538 
L 106.904678 474.506375 
L 109.531759 473.14751 
L 114.129149 470.282473 
L 117.741385 468.177811 
L 120.368465 466.679682 
L 124.309085 463.745668 
L 126.279396 462.424836 
L 128.578091 460.769292 
L 132.696421 457.675792 
L 136.459332 455.022022 
L 141.385107 451.085986 
L 150.908273 443.19354 
L 153.206969 441.404879 
L 155.663573 439.206366 
L 159.956045 434.994041 
L 183.111808 411.016189 
L 191.387702 401.619463 
L 200.908693 390.278587 
L 209.36081 379.140887 
L 217.898821 368.540865 
L 221.839441 362.780949 
L 223.565808 360.468285 
L 229.063912 352.56504 
L 231.362607 349.292295 
L 234.871892 344.267033 
L 237.372264 340.054708 
L 241.545142 333.898233 
L 243.582515 330.982007 
L 247.513156 324.825532 
L 249.423784 321.572847 
L 251.845482 318.021006 
L 254.021175 314.702878 
L 258.478796 308.300255 
L 259.305315 306.68013 
L 260.06828 305.060005 
L 261.600421 302.467805 
L 262.465223 300.84768 
L 262.590527 300.19963 
L 262.559186 300.157216 
L 262.230801 300.098883 
L 261.385043 300.523655 
L 260.468748 301.171705 
L 259.275335 302.151898 
L 256.742155 304.411955 
L 254.677945 306.392678 
L 250.564533 310.568431 
L 243.54518 318.345031 
L 237.447828 324.825532 
L 233.332917 329.725144 
L 228.964742 334.546283 
L 224.78555 339.730683 
L 223.752681 341.350808 
L 223.020939 342.646908 
L 221.182671 344.916888 
L 219.540746 346.973596 
L 219.186611 347.507284 
L 219.067984 347.831309 
L 219.212361 348.533848 
L 218.555591 349.505031 
L 210.264842 359.172185 
L 208.670664 361.116335 
L 205.420189 365.126862 
L 203.877632 367.27281 
L 202.709866 368.892935 
L 200.822799 371.251352 
L 196.882178 376.048299 
L 193.683783 379.909786 
L 189.657708 384.498992 
L 182.761622 392.011598 
L 174.209004 401.295438 
L 169.954605 405.847312 
L 165.675635 410.044114 
L 151.534072 423.32914 
L 145.654113 428.35863 
L 136.725929 435.642091 
L 127.264551 442.875046 
L 118.06977 449.653963 
L 112.158839 453.953006 
L 110.845299 454.772014 
L 109.203374 455.476591 
L 107.889833 455.874055 
L 107.675572 455.731642 
L 108.135506 454.759567 
L 108.218219 454.36876 
L 107.561448 454.716822 
L 105.123805 457.027742 
L 96.396357 465.995171 
L 91.142197 470.977628 
L 89.171886 472.676789 
L 88.515116 473.058259 
L 88.515116 472.785091 
L 89.025805 471.608869 
L 88.843501 471.400071 
L 88.186731 471.689045 
L 86.873191 472.626655 
L 83.260956 475.717495 
L 79.952567 478.737419 
L 74.39456 483.812087 
L 68.812014 489.254191 
L 66.841704 491.421646 
L 65.528164 493.013661 
L 64.871394 494.046031 
L 64.871394 494.399219 
L 64.871394 494.399219 
" style="fill:none;stroke:#e41a1c;stroke-width:1.142857;"/>
    <path clip-path="url(#p10579514f0)" d="M 268.141731 290.501303 
L 268.167842 290.478879 
L 268.470116 290.239108 
L 268.561293 290.154854 
L 268.798501 289.949518 
L 268.919406 289.830829 
L 269.126886 289.637431 
L 269.253332 289.506804 
L 269.455271 289.30611 
L 269.569533 289.182779 
L 269.783656 288.957601 
L 269.871795 288.858754 
L 270.112042 288.592987 
L 270.162259 288.534729 
L 270.440427 288.212552 
L 270.441972 288.210704 
L 270.543218 287.886679 
L 270.440427 287.862907 
L 270.41342 287.886679 
L 270.112042 288.146678 
L 270.041919 288.210704 
L 269.783656 288.443984 
L 269.687763 288.534729 
L 269.455271 288.754406 
L 269.348787 288.858754 
L 269.126886 289.077889 
L 269.023434 289.182779 
L 268.798501 289.414732 
L 268.710658 289.506804 
L 268.470116 289.765598 
L 268.409865 289.830829 
L 268.141731 290.131542 
L 268.120867 290.154854 
L 268.048432 290.478879 
L 268.141731 290.501303 
" style="fill:none;stroke:#e41a1c;stroke-width:1.142857;"/>
   </g>
   <g id="LineCollection_2">
    <path clip-path="url(#p10579514f0)" d="M 68.483629 490.940968 
L 69.301494 490.40232 
L 73.08102 487.447441 
L 75.7081 485.493209 
L 76.36487 485.115361 
L 76.693255 484.999465 
L 76.825528 485.21792 
L 76.912909 485.86597 
L 77.02164 486.016119 
L 77.380006 486.189995 
L 78.006795 486.041529 
L 78.99195 485.517018 
L 81.619031 484.087498 
L 83.589341 483.259864 
L 84.246111 483.276943 
L 84.902881 483.246247 
L 85.888036 482.817092 
L 89.171886 481.100727 
L 91.470582 480.23837 
L 104.277598 473.673442 
L 107.233063 472.116846 
L 109.860144 470.542978 
L 112.487224 468.979952 
L 115.136891 467.396543 
L 127.592936 459.495689 
L 135.50327 453.463467 
L 138.758027 451.092448 
L 142.710979 447.955042 
L 150.579888 441.30092 
L 157.475974 434.934716 
L 164.151881 428.51354 
L 169.720866 423.005115 
L 175.865536 416.63605 
L 182.761622 409.254123 
L 188.344167 403.06405 
L 192.360971 398.379213 
L 198.599398 390.602612 
L 206.767265 380.557836 
L 211.503646 374.725386 
L 219.960625 363.060485 
L 221.547183 360.79231 
L 225.780062 354.896431 
L 232.765487 344.591058 
L 234.974843 341.317537 
L 240.0047 333.898233 
L 242.199313 330.621353 
L 243.405898 328.713832 
L 244.851509 326.121632 
L 254.508575 311.864531 
L 254.877255 310.892456 
L 255.334715 309.910053 
L 259.449056 303.43988 
L 259.406129 303.115855 
L 259.235358 303.115855 
L 258.215235 303.763905 
L 256.648255 305.070746 
L 254.021175 307.53435 
L 251.394094 310.279355 
L 248.602474 313.484656 
L 246.231848 316.076856 
L 239.732319 322.881382 
L 234.646458 328.875284 
L 230.368103 333.574208 
L 228.407142 335.945954 
L 227.421987 337.372194 
L 227.221889 337.786533 
L 227.424245 338.110558 
L 227.750372 338.028376 
L 227.920571 338.110558 
L 227.750372 338.498213 
L 225.780062 340.853772 
L 224.318093 342.646908 
L 223.883148 343.294958 
L 224.138136 343.595191 
L 224.386813 343.618983 
L 224.117275 344.267033 
L 222.496211 346.213754 
L 218.211054 351.071559 
L 216.913666 352.92407 
L 215.92851 354.419297 
L 212.973045 358.039935 
L 211.616134 359.820235 
L 209.247401 363.060485 
L 206.329137 366.62476 
L 194.363121 381.205886 
L 189.817922 386.390287 
L 181.742087 395.462987 
L 176.850691 400.727367 
L 169.62622 408.183516 
L 160.145632 417.496689 
L 155.177279 422.077955 
L 146.445354 429.80964 
L 137.492091 437.262216 
L 129.563246 443.368476 
L 124.63747 447.035589 
L 119.711695 450.44477 
L 106.576293 459.30125 
L 102.964058 461.260977 
L 100.665363 463.034138 
L 97.709897 465.533275 
L 95.082817 467.875734 
L 86.799264 475.497169 
L 84.902881 477.02142 
L 84.794984 476.793269 
L 85.559651 475.672333 
L 86.356368 474.525094 
L 86.67109 473.877044 
L 86.544806 473.71203 
L 85.888036 474.028389 
L 83.917726 475.576778 
L 77.288519 481.653644 
L 70.782324 487.858869 
L 68.812014 490.033275 
L 68.333853 490.726345 
L 68.483629 490.940968 
L 68.483629 490.940968 
" style="fill:none;stroke:#e41a1c;stroke-width:1.142857;"/>
   </g>
   <g id="LineCollection_3">
    <path clip-path="url(#p10579514f0)" d="M 78.006795 482.15796 
L 78.33518 482.014331 
L 78.380286 481.977669 
L 78.663565 481.749325 
L 78.778743 481.653644 
L 78.99195 481.476969 
L 79.164914 481.329619 
L 79.320335 481.196796 
L 79.538732 481.005594 
L 79.64872 480.90833 
L 79.900005 480.681569 
L 79.977105 480.609697 
L 80.243085 480.357544 
L 80.30549 480.298077 
L 80.580213 480.033519 
L 80.633875 479.980151 
L 80.905141 479.709494 
L 80.96226 479.650097 
L 81.216951 479.385469 
L 81.290646 479.305086 
L 81.515776 479.061444 
L 81.619031 478.943125 
L 81.80123 478.737419 
L 81.947416 478.561111 
L 82.072645 478.413394 
L 81.947416 478.121633 
L 81.619031 478.37824 
L 81.579243 478.413394 
L 81.290646 478.666138 
L 81.21123 478.737419 
L 80.96226 478.961163 
L 80.852272 479.061444 
L 80.633875 479.262874 
L 80.501493 479.385469 
L 80.30549 479.570992 
L 80.158245 479.709494 
L 79.977105 479.885508 
L 79.82219 480.033519 
L 79.64872 480.206625 
L 79.493232 480.357544 
L 79.320335 480.533057 
L 79.168999 480.681569 
L 78.99195 480.867862 
L 78.85444 481.005594 
L 78.663565 481.212247 
L 78.548326 481.329619 
L 78.33518 481.567403 
L 78.251982 481.653644 
L 78.006795 481.936111 
L 77.967453 481.977669 
L 78.006795 482.15796 
" style="fill:none;stroke:#e41a1c;stroke-width:1.142857;"/>
    <path clip-path="url(#p10579514f0)" d="M 82.275801 478.155057 
L 82.327486 478.089369 
L 82.275801 477.974607 
L 82.016838 478.089369 
L 82.275801 478.155057 
" style="fill:none;stroke:#e41a1c;stroke-width:1.142857;"/>
    <path clip-path="url(#p10579514f0)" d="M 88.186731 477.706847 
L 89.171886 477.312508 
L 90.813812 476.578987 
L 91.470582 476.440297 
L 92.597867 475.821194 
L 94.848236 474.201069 
L 96.396357 473.165558 
L 97.053127 472.959506 
L 97.709897 473.216134 
L 98.366667 473.089378 
L 99.498577 472.580944 
L 105.919523 469.180892 
L 108.546604 467.865971 
L 114.129149 464.652901 
L 116.129176 463.508243 
L 122.66716 459.089964 
L 125.29424 457.417004 
L 127.592936 456.00514 
L 130.876786 453.636992 
L 143.462818 444.066741 
L 148.609578 439.711134 
L 154.848894 434.334518 
L 160.103054 429.405434 
L 166.670755 422.922909 
L 178.321582 411.016189 
L 191.819194 395.787013 
L 195.279508 391.574687 
L 204.50359 380.233811 
L 207.3905 376.609797 
L 225.915088 351.071559 
L 231.440519 342.646908 
L 232.931337 340.378733 
L 235.303228 336.779962 
L 237.127158 333.898233 
L 238.716031 331.306032 
L 244.012053 323.853457 
L 244.826394 322.140508 
L 246.909597 319.317106 
L 247.088902 318.993081 
L 246.796704 318.797883 
L 245.811549 319.347765 
L 243.841239 320.944494 
L 240.991617 323.529432 
L 237.255422 327.093707 
L 233.850898 330.657982 
L 232.826976 331.954082 
L 232.622309 332.278107 
L 232.676147 332.46755 
L 233.332917 332.144936 
L 235.631613 330.507382 
L 236.288383 330.052396 
L 236.401742 330.333957 
L 232.986157 334.870308 
L 233.126453 335.194333 
L 233.004532 335.576975 
L 231.890558 337.138483 
L 229.202141 340.378733 
L 227.392918 342.646908 
L 226.67524 343.943008 
L 226.108447 344.931591 
L 224.466521 347.04655 
L 213.476173 360.79231 
L 210.345965 364.920891 
L 207.718885 368.324859 
L 200.494414 377.0389 
L 191.794062 387.362362 
L 183.090007 397.270755 
L 176.850691 403.983648 
L 171.191006 409.720089 
L 155.770186 424.62524 
L 150.247221 429.485615 
L 143.18707 435.642091 
L 138.429642 439.609617 
L 123.652315 451.203997 
L 116.903263 456.055667 
L 115.442689 456.842403 
L 113.267903 457.999818 
L 110.516914 459.702217 
L 106.247908 462.60835 
L 101.270818 466.424468 
L 99.023438 468.094988 
L 98.336552 468.368618 
L 98.038282 468.102596 
L 97.709897 468.123219 
L 96.724742 468.752189 
L 94.85774 470.312769 
L 92.364092 472.580944 
L 89.462242 475.497169 
L 88.400336 476.793269 
L 88.04799 477.441319 
L 88.186731 477.706847 
L 88.186731 477.706847 
" style="fill:none;stroke:#e41a1c;stroke-width:1.142857;"/>
    <path clip-path="url(#p10579514f0)" d="M 236.616768 330.035426 
L 236.446712 330.009932 
L 236.616768 329.968117 
L 236.636447 330.009932 
L 236.616768 330.035426 
" style="fill:none;stroke:#e41a1c;stroke-width:1.142857;"/>
   </g>
   <g id="patch_3">
    <path d="M 35.289375 525.1 
L 35.289375 266.15 
" style="fill:none;stroke:#000000;stroke-linecap:square;stroke-linejoin:miter;stroke-width:0.8;"/>
   </g>
   <g id="patch_4">
    <path d="M 297.72375 525.1 
L 297.72375 266.15 
" style="fill:none;stroke:#000000;stroke-linecap:square;stroke-linejoin:miter;stroke-width:0.8;"/>
   </g>
   <g id="patch_5">
    <path d="M 35.289375 525.1 
L 297.72375 525.1 
" style="fill:none;stroke:#000000;stroke-linecap:square;stroke-linejoin:miter;stroke-width:0.8;"/>
   </g>
   <g id="patch_6">
    <path d="M 35.289375 266.15 
L 297.72375 266.15 
" style="fill:none;stroke:#000000;stroke-linecap:square;stroke-linejoin:miter;stroke-width:0.8;"/>
   </g>
  </g>
  <g id="axes_2">
   <g id="patch_7">
    <path d="M 35.289375 266.15 
L 297.72375 266.15 
L 297.72375 7.2 
L 35.289375 7.2 
z
" style="fill:#ffffff;"/>
   </g>
   <g id="matplotlib.axis_3">
    <g id="xtick_4">
     <g id="line2d_15">
      <g>
       <use style="stroke:#000000;stroke-width:0.8;" x="94.721785" xlink:href="#ma12a420f0c" y="266.15"/>
      </g>
     </g>
    </g>
    <g id="xtick_5">
     <g id="line2d_16">
      <g>
       <use style="stroke:#000000;stroke-width:0.8;" x="166.702427" xlink:href="#ma12a420f0c" y="266.15"/>
      </g>
     </g>
    </g>
    <g id="xtick_6">
     <g id="line2d_17">
      <g>
       <use style="stroke:#000000;stroke-width:0.8;" x="238.683069" xlink:href="#ma12a420f0c" y="266.15"/>
      </g>
     </g>
    </g>
   </g>
   <g id="matplotlib.axis_4">
    <g id="ytick_5"/>
    <g id="ytick_6"/>
    <g id="ytick_7"/>
    <g id="ytick_8"/>
    <g id="ytick_9"/>
   </g>
   <g id="line2d_18">
    <path clip-path="url(#p4b17529849)" d="M 35.212415 266.149954 
L 48.757415 266.038864 
L 52.451506 265.827198 
L 55.222074 265.477695 
L 57.37696 265.011371 
L 59.531847 264.274151 
L 61.686733 263.208922 
L 63.225938 262.192503 
L 64.765142 260.903732 
L 66.304347 259.292473 
L 68.151392 256.883542 
L 69.382756 254.96378 
L 70.92196 252.156148 
L 72.461165 248.890952 
L 74.30821 244.354363 
L 76.155256 239.116928 
L 78.310142 232.178491 
L 80.465028 224.357875 
L 82.619915 215.710772 
L 85.698324 202.349647 
L 89.392415 185.180844 
L 98.319801 143.544435 
L 101.706051 129.222584 
L 104.168778 119.713146 
L 106.015824 113.282578 
L 106.323665 112.809714 
L 108.478551 105.557682 
L 110.633438 98.991095 
L 112.788324 93.123084 
L 114.635369 88.599722 
L 115.251051 87.17241 
L 115.558892 87.142973 
L 115.866733 86.455921 
L 116.174574 86.050716 
L 116.790256 84.589601 
L 117.098097 84.634947 
L 118.32946 81.904983 
L 120.484347 77.383916 
L 120.792188 76.737723 
L 121.100028 76.409488 
L 123.254915 72.529623 
L 124.794119 70.003941 
L 126.333324 67.644921 
L 128.180369 64.99741 
L 129.103892 63.751669 
L 130.643097 61.479319 
L 133.413665 57.284129 
L 136.184233 53.458734 
L 137.415597 51.866547 
L 139.570483 49.036509 
L 144.803778 42.678623 
L 149.421392 37.838739 
L 151.268438 36.207362 
L 152.807642 35.07547 
L 155.886051 33.002464 
L 157.117415 32.413343 
L 160.503665 31.070824 
L 163.582074 30.537707 
L 166.044801 30.62913 
L 167.891847 30.825118 
L 171.893778 32.039347 
L 174.048665 32.959667 
L 178.050597 35.326681 
L 179.589801 36.397649 
L 182.66821 38.870761 
L 188.825028 44.709215 
L 192.519119 48.791742 
L 193.750483 50.22956 
L 194.058324 50.398657 
L 196.21321 52.98024 
L 198.368097 55.770798 
L 198.675938 55.99288 
L 198.983778 56.028162 
L 202.677869 60.589094 
L 203.293551 61.19471 
L 204.217074 62.216984 
L 204.832756 62.933074 
L 205.448438 63.583448 
L 207.603324 66.270815 
L 207.911165 66.121311 
L 211.913097 71.16454 
L 214.991506 75.445197 
L 216.222869 77.335482 
L 217.762074 79.674639 
L 218.377756 80.632844 
L 218.685597 80.773555 
L 222.379688 87.675918 
L 224.226733 91.9526 
L 226.073778 96.902169 
L 227.920824 102.493713 
L 229.767869 108.874537 
L 231.614915 116.042797 
L 233.769801 125.227439 
L 236.540369 138.406784 
L 239.003097 151.478095 
L 244.544233 183.068196 
L 248.546165 205.17655 
L 250.701051 216.055508 
L 252.855938 225.853536 
L 254.702983 233.310274 
L 256.550028 239.837875 
L 258.089233 244.591045 
L 259.628438 248.687246 
L 261.167642 252.175658 
L 262.706847 255.098211 
L 264.246051 257.544143 
L 265.169574 258.812835 
L 266.400937 260.235208 
L 267.940142 261.671321 
L 269.787188 263.069487 
L 271.634233 264.03838 
L 273.481278 264.744719 
L 275.636165 265.304671 
L 278.406733 265.74631 
L 282.100824 265.996586 
L 287.949801 266.123977 
L 297.80071 266.149344 
L 297.80071 266.149344 
" style="fill:none;stroke:#e41a1c;stroke-linecap:square;stroke-width:1.142857;"/>
   </g>
   <g id="patch_8">
    <path d="M 35.289375 266.15 
L 35.289375 7.2 
" style="fill:none;stroke:#000000;stroke-linecap:square;stroke-linejoin:miter;stroke-width:0.8;"/>
   </g>
   <g id="patch_9">
    <path d="M 297.72375 266.15 
L 297.72375 7.2 
" style="fill:none;stroke:#000000;stroke-linecap:square;stroke-linejoin:miter;stroke-width:0.8;"/>
   </g>
   <g id="patch_10">
    <path d="M 35.289375 266.15 
L 297.72375 266.15 
" style="fill:none;stroke:#000000;stroke-linecap:square;stroke-linejoin:miter;stroke-width:0.8;"/>
   </g>
   <g id="patch_11">
    <path d="M 35.289375 7.2 
L 297.72375 7.2 
" style="fill:none;stroke:#000000;stroke-linecap:square;stroke-linejoin:miter;stroke-width:0.8;"/>
   </g>
  </g>
  <g id="axes_3">
   <g id="patch_12">
    <path d="M 297.72375 525.1 
L 560.158125 525.1 
L 560.158125 266.15 
L 297.72375 266.15 
z
" style="fill:#ffffff;"/>
   </g>
   <g id="matplotlib.axis_5">
    <g id="xtick_7">
     <g id="line2d_19">
      <g>
       <use style="stroke:#000000;stroke-width:0.8;" x="333.425523" xlink:href="#ma12a420f0c" y="525.1"/>
      </g>
     </g>
     <g id="text_10">
      <!-- $\mathdefault{0}$ -->
      <g transform="translate(329.905523 536.958281)scale(0.11 -0.11)">
       <use transform="translate(0 0.78125)" xlink:href="#DejaVuSans-48"/>
      </g>
     </g>
    </g>
    <g id="xtick_8">
     <g id="line2d_20">
      <g>
       <use style="stroke:#000000;stroke-width:0.8;" x="405.686512" xlink:href="#ma12a420f0c" y="525.1"/>
      </g>
     </g>
     <g id="text_11">
      <!-- $\mathdefault{1}$ -->
      <g transform="translate(402.166512 536.958281)scale(0.11 -0.11)">
       <use transform="translate(0 0.09375)" xlink:href="#DejaVuSans-49"/>
      </g>
     </g>
    </g>
    <g id="xtick_9">
     <g id="line2d_21">
      <g>
       <use style="stroke:#000000;stroke-width:0.8;" x="477.947502" xlink:href="#ma12a420f0c" y="525.1"/>
      </g>
     </g>
     <g id="text_12">
      <!-- $\mathdefault{2}$ -->
      <g transform="translate(474.427502 536.958281)scale(0.11 -0.11)">
       <use transform="translate(0 0.78125)" xlink:href="#DejaVuSans-50"/>
      </g>
     </g>
    </g>
    <g id="xtick_10">
     <g id="line2d_22">
      <g>
       <use style="stroke:#000000;stroke-width:0.8;" x="550.208491" xlink:href="#ma12a420f0c" y="525.1"/>
      </g>
     </g>
     <g id="text_13">
      <!-- $\mathdefault{3}$ -->
      <g transform="translate(546.688491 536.958281)scale(0.11 -0.11)">
       <use transform="translate(0 0.78125)" xlink:href="#DejaVuSans-51"/>
      </g>
     </g>
    </g>
    <g id="text_14">
     <!-- Kunz -->
     <g transform="translate(412.154062 557.245937)scale(0.14 -0.14)">
      <use xlink:href="#DejaVuSans-75"/>
      <use x="60.576172" xlink:href="#DejaVuSans-117"/>
      <use x="123.955078" xlink:href="#DejaVuSans-110"/>
      <use x="187.333984" xlink:href="#DejaVuSans-122"/>
     </g>
    </g>
   </g>
   <g id="matplotlib.axis_6">
    <g id="ytick_10"/>
    <g id="ytick_11"/>
    <g id="ytick_12"/>
    <g id="ytick_13"/>
    <g id="ytick_14"/>
   </g>
   <g id="line2d_23">
    <path clip-path="url(#p7732b3f2a8)" d="M 297.64679 525.099998 
L 311.499631 524.989001 
L 315.193722 524.719459 
L 317.348608 524.389279 
L 319.503494 523.823049 
L 321.35054 523.062025 
L 322.889744 522.156811 
L 324.428949 520.943706 
L 325.660312 519.69467 
L 326.891676 518.155822 
L 328.12304 516.289764 
L 329.354403 514.022852 
L 330.585767 511.34059 
L 331.817131 508.191641 
L 333.048494 504.527683 
L 334.587699 499.186722 
L 336.126903 492.965604 
L 337.666108 485.787684 
L 339.205312 477.70064 
L 341.052358 466.777986 
L 343.207244 452.542463 
L 345.669972 434.685015 
L 349.056222 408.312125 
L 353.673835 372.130853 
L 356.444403 352.157984 
L 358.59929 338.177502 
L 360.446335 327.522665 
L 362.293381 318.213021 
L 363.832585 311.513166 
L 365.37179 305.792332 
L 366.603153 301.887648 
L 368.142358 297.885306 
L 369.373722 295.241523 
L 369.989403 294.269544 
L 371.220767 292.524845 
L 371.528608 292.436106 
L 372.452131 291.347506 
L 373.067813 290.774711 
L 374.607017 289.835456 
L 375.53054 289.604851 
L 376.146222 289.509684 
L 377.069744 289.558968 
L 378.301108 289.817977 
L 378.91679 290.141199 
L 379.224631 290.827074 
L 380.148153 291.206192 
L 380.455994 291.393172 
L 380.763835 291.982271 
L 381.379517 292.33035 
L 384.457926 295.095645 
L 385.073608 295.844811 
L 386.304972 297.129164 
L 389.383381 300.728581 
L 392.153949 304.289681 
L 393.385312 305.97227 
L 395.84804 309.393795 
L 397.695085 311.998615 
L 407.238153 325.925231 
L 421.398835 348.178039 
L 429.094858 360.495542 
L 440.177131 376.949684 
L 457.724063 400.539804 
L 458.031903 400.761662 
L 458.955426 401.982603 
L 459.263267 402.096256 
L 461.110312 404.383878 
L 462.957358 406.719758 
L 463.265199 406.860361 
L 464.188722 407.955545 
L 464.804403 408.613453 
L 466.035767 410.118492 
L 468.498494 412.940189 
L 469.114176 413.670213 
L 469.422017 413.540129 
L 470.653381 414.763683 
L 473.73179 417.959922 
L 475.270994 419.442114 
L 475.886676 420.106182 
L 476.194517 420.257679 
L 479.272926 423.135197 
L 479.888608 423.700953 
L 481.427813 425.174564 
L 482.043494 425.420915 
L 485.429744 428.926237 
L 486.661108 430.391518 
L 488.815994 433.306942 
L 491.278722 437.176325 
L 493.125767 440.54347 
L 494.972813 444.364918 
L 496.819858 448.628493 
L 498.974744 453.993619 
L 502.976676 465.125515 
L 513.135426 494.904758 
L 515.290313 500.285817 
L 517.137358 504.426885 
L 519.292244 508.660587 
L 520.831449 511.296068 
L 522.678494 514.073724 
L 524.217699 516.022834 
L 526.372585 518.339959 
L 528.219631 519.884763 
L 530.374517 521.348938 
L 532.221563 522.350935 
L 534.376449 523.169946 
L 537.454858 523.986876 
L 539.609744 524.359245 
L 543.303835 524.763085 
L 548.844972 524.998312 
L 559.003722 525.094031 
L 560.235085 525.095536 
L 560.235085 525.095536 
" style="fill:none;stroke:#e41a1c;stroke-linecap:square;stroke-width:1.142857;"/>
   </g>
   <g id="patch_13">
    <path d="M 297.72375 525.1 
L 297.72375 266.15 
" style="fill:none;stroke:#000000;stroke-linecap:square;stroke-linejoin:miter;stroke-width:0.8;"/>
   </g>
   <g id="patch_14">
    <path d="M 560.158125 525.1 
L 560.158125 266.15 
" style="fill:none;stroke:#000000;stroke-linecap:square;stroke-linejoin:miter;stroke-width:0.8;"/>
   </g>
   <g id="patch_15">
    <path d="M 297.72375 525.1 
L 560.158125 525.1 
" style="fill:none;stroke:#000000;stroke-linecap:square;stroke-linejoin:miter;stroke-width:0.8;"/>
   </g>
   <g id="patch_16">
    <path d="M 297.72375 266.15 
L 560.158125 266.15 
" style="fill:none;stroke:#000000;stroke-linecap:square;stroke-linejoin:miter;stroke-width:0.8;"/>
   </g>
  </g>
 </g>
 <defs>
  <clipPath id="p10579514f0">
   <rect height="258.95" width="262.434375" x="35.289375" y="266.15"/>
  </clipPath>
  <clipPath id="p4b17529849">
   <rect height="258.95" width="262.434375" x="35.289375" y="7.2"/>
  </clipPath>
  <clipPath id="p7732b3f2a8">
   <rect height="258.95" width="262.434375" x="297.72375" y="266.15"/>
  </clipPath>
 </defs>
</svg>
