<?xml version="1.0" encoding="utf-8" standalone="no"?>
<!DOCTYPE svg PUBLIC "-//W3C//DTD SVG 1.1//EN"
  "http://www.w3.org/Graphics/SVG/1.1/DTD/svg11.dtd">
<!-- Created with matplotlib (https://matplotlib.org/) -->
<svg height="567.3575pt" version="1.1" viewBox="0 0 567.358125 567.3575" width="567.358125pt" xmlns="http://www.w3.org/2000/svg" xmlns:xlink="http://www.w3.org/1999/xlink">
 <metadata>
  <rdf:RDF xmlns:cc="http://creativecommons.org/ns#" xmlns:dc="http://purl.org/dc/elements/1.1/" xmlns:rdf="http://www.w3.org/1999/02/22-rdf-syntax-ns#">
   <cc:Work>
    <dc:type rdf:resource="http://purl.org/dc/dcmitype/StillImage"/>
    <dc:date>2021-02-04T16:32:27.773417</dc:date>
    <dc:format>image/svg+xml</dc:format>
    <dc:creator>
     <cc:Agent>
      <dc:title>Matplotlib v3.3.2, https://matplotlib.org/</dc:title>
     </cc:Agent>
    </dc:creator>
   </cc:Work>
  </rdf:RDF>
 </metadata>
 <defs>
  <style type="text/css">*{stroke-linecap:butt;stroke-linejoin:round;}</style>
 </defs>
 <g id="figure_1">
  <g id="patch_1">
   <path d="M 0 567.3575 
L 567.358125 567.3575 
L 567.358125 0 
L 0 0 
z
" style="fill:#ffffff;"/>
  </g>
  <g id="axes_1">
   <g id="patch_2">
    <path d="M 35.289375 525.1 
L 297.72375 525.1 
L 297.72375 266.15 
L 35.289375 266.15 
z
" style="fill:#ffffff;"/>
   </g>
   <g id="matplotlib.axis_1">
    <g id="xtick_1">
     <g id="line2d_1">
      <defs>
       <path d="M 0 0 
L 0 -3.5 
" id="m7169a38d7f" style="stroke:#000000;stroke-width:0.8;"/>
      </defs>
      <g>
       <use style="stroke:#000000;stroke-width:0.8;" x="66.01742" xlink:href="#m7169a38d7f" y="525.1"/>
      </g>
     </g>
     <g id="line2d_2">
      <defs>
       <path d="M 0 0 
L 0 3.5 
" id="m6f1ca15802" style="stroke:#000000;stroke-width:0.8;"/>
      </defs>
      <g>
       <use style="stroke:#000000;stroke-width:0.8;" x="66.01742" xlink:href="#m6f1ca15802" y="266.15"/>
      </g>
     </g>
     <g id="text_1">
      <!-- $\mathdefault{0.4}$ -->
      <g transform="translate(57.21742 536.958281)scale(0.11 -0.11)">
       <defs>
        <path d="M 31.78125 66.40625 
Q 24.171875 66.40625 20.328125 58.90625 
Q 16.5 51.421875 16.5 36.375 
Q 16.5 21.390625 20.328125 13.890625 
Q 24.171875 6.390625 31.78125 6.390625 
Q 39.453125 6.390625 43.28125 13.890625 
Q 47.125 21.390625 47.125 36.375 
Q 47.125 51.421875 43.28125 58.90625 
Q 39.453125 66.40625 31.78125 66.40625 
z
M 31.78125 74.21875 
Q 44.046875 74.21875 50.515625 64.515625 
Q 56.984375 54.828125 56.984375 36.375 
Q 56.984375 17.96875 50.515625 8.265625 
Q 44.046875 -1.421875 31.78125 -1.421875 
Q 19.53125 -1.421875 13.0625 8.265625 
Q 6.59375 17.96875 6.59375 36.375 
Q 6.59375 54.828125 13.0625 64.515625 
Q 19.53125 74.21875 31.78125 74.21875 
z
" id="DejaVuSans-48"/>
        <path d="M 10.6875 12.40625 
L 21 12.40625 
L 21 0 
L 10.6875 0 
z
" id="DejaVuSans-46"/>
        <path d="M 37.796875 64.3125 
L 12.890625 25.390625 
L 37.796875 25.390625 
z
M 35.203125 72.90625 
L 47.609375 72.90625 
L 47.609375 25.390625 
L 58.015625 25.390625 
L 58.015625 17.1875 
L 47.609375 17.1875 
L 47.609375 0 
L 37.796875 0 
L 37.796875 17.1875 
L 4.890625 17.1875 
L 4.890625 26.703125 
z
" id="DejaVuSans-52"/>
       </defs>
       <use transform="translate(0 0.78125)" xlink:href="#DejaVuSans-48"/>
       <use transform="translate(63.623047 0.78125)" xlink:href="#DejaVuSans-46"/>
       <use transform="translate(95.410156 0.78125)" xlink:href="#DejaVuSans-52"/>
      </g>
     </g>
    </g>
    <g id="xtick_2">
     <g id="line2d_3">
      <g>
       <use style="stroke:#000000;stroke-width:0.8;" x="101.462011" xlink:href="#m7169a38d7f" y="525.1"/>
      </g>
     </g>
     <g id="line2d_4">
      <g>
       <use style="stroke:#000000;stroke-width:0.8;" x="101.462011" xlink:href="#m6f1ca15802" y="266.15"/>
      </g>
     </g>
     <g id="text_2">
      <!-- $\mathdefault{0.6}$ -->
      <g transform="translate(92.662011 536.958281)scale(0.11 -0.11)">
       <defs>
        <path d="M 33.015625 40.375 
Q 26.375 40.375 22.484375 35.828125 
Q 18.609375 31.296875 18.609375 23.390625 
Q 18.609375 15.53125 22.484375 10.953125 
Q 26.375 6.390625 33.015625 6.390625 
Q 39.65625 6.390625 43.53125 10.953125 
Q 47.40625 15.53125 47.40625 23.390625 
Q 47.40625 31.296875 43.53125 35.828125 
Q 39.65625 40.375 33.015625 40.375 
z
M 52.59375 71.296875 
L 52.59375 62.3125 
Q 48.875 64.0625 45.09375 64.984375 
Q 41.3125 65.921875 37.59375 65.921875 
Q 27.828125 65.921875 22.671875 59.328125 
Q 17.53125 52.734375 16.796875 39.40625 
Q 19.671875 43.65625 24.015625 45.921875 
Q 28.375 48.1875 33.59375 48.1875 
Q 44.578125 48.1875 50.953125 41.515625 
Q 57.328125 34.859375 57.328125 23.390625 
Q 57.328125 12.15625 50.6875 5.359375 
Q 44.046875 -1.421875 33.015625 -1.421875 
Q 20.359375 -1.421875 13.671875 8.265625 
Q 6.984375 17.96875 6.984375 36.375 
Q 6.984375 53.65625 15.1875 63.9375 
Q 23.390625 74.21875 37.203125 74.21875 
Q 40.921875 74.21875 44.703125 73.484375 
Q 48.484375 72.75 52.59375 71.296875 
z
" id="DejaVuSans-54"/>
       </defs>
       <use transform="translate(0 0.78125)" xlink:href="#DejaVuSans-48"/>
       <use transform="translate(63.623047 0.78125)" xlink:href="#DejaVuSans-46"/>
       <use transform="translate(95.410156 0.78125)" xlink:href="#DejaVuSans-54"/>
      </g>
     </g>
    </g>
    <g id="xtick_3">
     <g id="line2d_5">
      <g>
       <use style="stroke:#000000;stroke-width:0.8;" x="136.906602" xlink:href="#m7169a38d7f" y="525.1"/>
      </g>
     </g>
     <g id="line2d_6">
      <g>
       <use style="stroke:#000000;stroke-width:0.8;" x="136.906602" xlink:href="#m6f1ca15802" y="266.15"/>
      </g>
     </g>
     <g id="text_3">
      <!-- $\mathdefault{0.8}$ -->
      <g transform="translate(128.271602 536.958281)scale(0.11 -0.11)">
       <defs>
        <path d="M 31.78125 34.625 
Q 24.75 34.625 20.71875 30.859375 
Q 16.703125 27.09375 16.703125 20.515625 
Q 16.703125 13.921875 20.71875 10.15625 
Q 24.75 6.390625 31.78125 6.390625 
Q 38.8125 6.390625 42.859375 10.171875 
Q 46.921875 13.96875 46.921875 20.515625 
Q 46.921875 27.09375 42.890625 30.859375 
Q 38.875 34.625 31.78125 34.625 
z
M 21.921875 38.8125 
Q 15.578125 40.375 12.03125 44.71875 
Q 8.5 49.078125 8.5 55.328125 
Q 8.5 64.0625 14.71875 69.140625 
Q 20.953125 74.21875 31.78125 74.21875 
Q 42.671875 74.21875 48.875 69.140625 
Q 55.078125 64.0625 55.078125 55.328125 
Q 55.078125 49.078125 51.53125 44.71875 
Q 48 40.375 41.703125 38.8125 
Q 48.828125 37.15625 52.796875 32.3125 
Q 56.78125 27.484375 56.78125 20.515625 
Q 56.78125 9.90625 50.3125 4.234375 
Q 43.84375 -1.421875 31.78125 -1.421875 
Q 19.734375 -1.421875 13.25 4.234375 
Q 6.78125 9.90625 6.78125 20.515625 
Q 6.78125 27.484375 10.78125 32.3125 
Q 14.796875 37.15625 21.921875 38.8125 
z
M 18.3125 54.390625 
Q 18.3125 48.734375 21.84375 45.5625 
Q 25.390625 42.390625 31.78125 42.390625 
Q 38.140625 42.390625 41.71875 45.5625 
Q 45.3125 48.734375 45.3125 54.390625 
Q 45.3125 60.0625 41.71875 63.234375 
Q 38.140625 66.40625 31.78125 66.40625 
Q 25.390625 66.40625 21.84375 63.234375 
Q 18.3125 60.0625 18.3125 54.390625 
z
" id="DejaVuSans-56"/>
       </defs>
       <use transform="translate(0 0.78125)" xlink:href="#DejaVuSans-48"/>
       <use transform="translate(63.623047 0.78125)" xlink:href="#DejaVuSans-46"/>
       <use transform="translate(92.785156 0.78125)" xlink:href="#DejaVuSans-56"/>
      </g>
     </g>
    </g>
    <g id="xtick_4">
     <g id="line2d_7">
      <g>
       <use style="stroke:#000000;stroke-width:0.8;" x="172.351193" xlink:href="#m7169a38d7f" y="525.1"/>
      </g>
     </g>
     <g id="line2d_8">
      <g>
       <use style="stroke:#000000;stroke-width:0.8;" x="172.351193" xlink:href="#m6f1ca15802" y="266.15"/>
      </g>
     </g>
     <g id="text_4">
      <!-- $\mathdefault{1.0}$ -->
      <g transform="translate(163.551193 536.958281)scale(0.11 -0.11)">
       <defs>
        <path d="M 12.40625 8.296875 
L 28.515625 8.296875 
L 28.515625 63.921875 
L 10.984375 60.40625 
L 10.984375 69.390625 
L 28.421875 72.90625 
L 38.28125 72.90625 
L 38.28125 8.296875 
L 54.390625 8.296875 
L 54.390625 0 
L 12.40625 0 
z
" id="DejaVuSans-49"/>
       </defs>
       <use transform="translate(0 0.78125)" xlink:href="#DejaVuSans-49"/>
       <use transform="translate(63.623047 0.78125)" xlink:href="#DejaVuSans-46"/>
       <use transform="translate(95.410156 0.78125)" xlink:href="#DejaVuSans-48"/>
      </g>
     </g>
    </g>
    <g id="xtick_5">
     <g id="line2d_9">
      <g>
       <use style="stroke:#000000;stroke-width:0.8;" x="207.795784" xlink:href="#m7169a38d7f" y="525.1"/>
      </g>
     </g>
     <g id="line2d_10">
      <g>
       <use style="stroke:#000000;stroke-width:0.8;" x="207.795784" xlink:href="#m6f1ca15802" y="266.15"/>
      </g>
     </g>
     <g id="text_5">
      <!-- $\mathdefault{1.2}$ -->
      <g transform="translate(199.325784 536.958281)scale(0.11 -0.11)">
       <defs>
        <path d="M 19.1875 8.296875 
L 53.609375 8.296875 
L 53.609375 0 
L 7.328125 0 
L 7.328125 8.296875 
Q 12.9375 14.109375 22.625 23.890625 
Q 32.328125 33.6875 34.8125 36.53125 
Q 39.546875 41.84375 41.421875 45.53125 
Q 43.3125 49.21875 43.3125 52.78125 
Q 43.3125 58.59375 39.234375 62.25 
Q 35.15625 65.921875 28.609375 65.921875 
Q 23.96875 65.921875 18.8125 64.3125 
Q 13.671875 62.703125 7.8125 59.421875 
L 7.8125 69.390625 
Q 13.765625 71.78125 18.9375 73 
Q 24.125 74.21875 28.421875 74.21875 
Q 39.75 74.21875 46.484375 68.546875 
Q 53.21875 62.890625 53.21875 53.421875 
Q 53.21875 48.921875 51.53125 44.890625 
Q 49.859375 40.875 45.40625 35.40625 
Q 44.1875 33.984375 37.640625 27.21875 
Q 31.109375 20.453125 19.1875 8.296875 
z
" id="DejaVuSans-50"/>
       </defs>
       <use transform="translate(0 0.78125)" xlink:href="#DejaVuSans-49"/>
       <use transform="translate(63.623047 0.78125)" xlink:href="#DejaVuSans-46"/>
       <use transform="translate(89.910156 0.78125)" xlink:href="#DejaVuSans-50"/>
      </g>
     </g>
    </g>
    <g id="xtick_6">
     <g id="line2d_11">
      <g>
       <use style="stroke:#000000;stroke-width:0.8;" x="243.240375" xlink:href="#m7169a38d7f" y="525.1"/>
      </g>
     </g>
     <g id="line2d_12">
      <g>
       <use style="stroke:#000000;stroke-width:0.8;" x="243.240375" xlink:href="#m6f1ca15802" y="266.15"/>
      </g>
     </g>
     <g id="text_6">
      <!-- $\mathdefault{1.4}$ -->
      <g transform="translate(234.440375 536.958281)scale(0.11 -0.11)">
       <use transform="translate(0 0.09375)" xlink:href="#DejaVuSans-49"/>
       <use transform="translate(63.623047 0.09375)" xlink:href="#DejaVuSans-46"/>
       <use transform="translate(95.410156 0.09375)" xlink:href="#DejaVuSans-52"/>
      </g>
     </g>
    </g>
    <g id="xtick_7">
     <g id="line2d_13">
      <g>
       <use style="stroke:#000000;stroke-width:0.8;" x="278.684965" xlink:href="#m7169a38d7f" y="525.1"/>
      </g>
     </g>
     <g id="line2d_14">
      <g>
       <use style="stroke:#000000;stroke-width:0.8;" x="278.684965" xlink:href="#m6f1ca15802" y="266.15"/>
      </g>
     </g>
     <g id="text_7">
      <!-- $\mathdefault{1.6}$ -->
      <g transform="translate(269.884965 536.958281)scale(0.11 -0.11)">
       <use transform="translate(0 0.78125)" xlink:href="#DejaVuSans-49"/>
       <use transform="translate(63.623047 0.78125)" xlink:href="#DejaVuSans-46"/>
       <use transform="translate(95.410156 0.78125)" xlink:href="#DejaVuSans-54"/>
      </g>
     </g>
    </g>
    <g id="text_8">
     <!-- Hinz -->
     <g transform="translate(151.1875 557.245937)scale(0.14 -0.14)">
      <defs>
       <path d="M 9.8125 72.90625 
L 19.671875 72.90625 
L 19.671875 43.015625 
L 55.515625 43.015625 
L 55.515625 72.90625 
L 65.375 72.90625 
L 65.375 0 
L 55.515625 0 
L 55.515625 34.71875 
L 19.671875 34.71875 
L 19.671875 0 
L 9.8125 0 
z
" id="DejaVuSans-72"/>
       <path d="M 9.421875 54.6875 
L 18.40625 54.6875 
L 18.40625 0 
L 9.421875 0 
z
M 9.421875 75.984375 
L 18.40625 75.984375 
L 18.40625 64.59375 
L 9.421875 64.59375 
z
" id="DejaVuSans-105"/>
       <path d="M 54.890625 33.015625 
L 54.890625 0 
L 45.90625 0 
L 45.90625 32.71875 
Q 45.90625 40.484375 42.875 44.328125 
Q 39.84375 48.1875 33.796875 48.1875 
Q 26.515625 48.1875 22.3125 43.546875 
Q 18.109375 38.921875 18.109375 30.90625 
L 18.109375 0 
L 9.078125 0 
L 9.078125 54.6875 
L 18.109375 54.6875 
L 18.109375 46.1875 
Q 21.34375 51.125 25.703125 53.5625 
Q 30.078125 56 35.796875 56 
Q 45.21875 56 50.046875 50.171875 
Q 54.890625 44.34375 54.890625 33.015625 
z
" id="DejaVuSans-110"/>
       <path d="M 5.515625 54.6875 
L 48.1875 54.6875 
L 48.1875 46.484375 
L 14.40625 7.171875 
L 48.1875 7.171875 
L 48.1875 0 
L 4.296875 0 
L 4.296875 8.203125 
L 38.09375 47.515625 
L 5.515625 47.515625 
z
" id="DejaVuSans-122"/>
      </defs>
      <use xlink:href="#DejaVuSans-72"/>
      <use x="75.195312" xlink:href="#DejaVuSans-105"/>
      <use x="102.978516" xlink:href="#DejaVuSans-110"/>
      <use x="166.357422" xlink:href="#DejaVuSans-122"/>
     </g>
    </g>
   </g>
   <g id="matplotlib.axis_2">
    <g id="ytick_1">
     <g id="line2d_15">
      <defs>
       <path d="M 0 0 
L 3.5 0 
" id="m343da777a5" style="stroke:#000000;stroke-width:0.8;"/>
      </defs>
      <g>
       <use style="stroke:#000000;stroke-width:0.8;" x="35.289375" xlink:href="#m343da777a5" y="498.300368"/>
      </g>
     </g>
     <g id="line2d_16">
      <defs>
       <path d="M 0 0 
L -3.5 0 
" id="m31cddc4aae" style="stroke:#000000;stroke-width:0.8;"/>
      </defs>
      <g>
       <use style="stroke:#000000;stroke-width:0.8;" x="297.72375" xlink:href="#m31cddc4aae" y="498.300368"/>
      </g>
     </g>
     <g id="text_9">
      <!-- $\mathdefault{0}$ -->
      <g transform="translate(24.749375 502.479509)scale(0.11 -0.11)">
       <use transform="translate(0 0.78125)" xlink:href="#DejaVuSans-48"/>
      </g>
     </g>
    </g>
    <g id="ytick_2">
     <g id="line2d_17">
      <g>
       <use style="stroke:#000000;stroke-width:0.8;" x="35.289375" xlink:href="#m343da777a5" y="407.330888"/>
      </g>
     </g>
     <g id="line2d_18">
      <g>
       <use style="stroke:#000000;stroke-width:0.8;" x="297.72375" xlink:href="#m31cddc4aae" y="407.330888"/>
      </g>
     </g>
     <g id="text_10">
      <!-- $\mathdefault{1}$ -->
      <g transform="translate(24.749375 411.510028)scale(0.11 -0.11)">
       <use transform="translate(0 0.09375)" xlink:href="#DejaVuSans-49"/>
      </g>
     </g>
    </g>
    <g id="ytick_3">
     <g id="line2d_19">
      <g>
       <use style="stroke:#000000;stroke-width:0.8;" x="35.289375" xlink:href="#m343da777a5" y="316.361407"/>
      </g>
     </g>
     <g id="line2d_20">
      <g>
       <use style="stroke:#000000;stroke-width:0.8;" x="297.72375" xlink:href="#m31cddc4aae" y="316.361407"/>
      </g>
     </g>
     <g id="text_11">
      <!-- $\mathdefault{2}$ -->
      <g transform="translate(24.749375 320.540548)scale(0.11 -0.11)">
       <use transform="translate(0 0.78125)" xlink:href="#DejaVuSans-50"/>
      </g>
     </g>
    </g>
    <g id="text_12">
     <!-- Kunz -->
     <g transform="translate(17.837813 412.411875)rotate(-90)scale(0.14 -0.14)">
      <defs>
       <path d="M 9.8125 72.90625 
L 19.671875 72.90625 
L 19.671875 42.09375 
L 52.390625 72.90625 
L 65.09375 72.90625 
L 28.90625 38.921875 
L 67.671875 0 
L 54.6875 0 
L 19.671875 35.109375 
L 19.671875 0 
L 9.8125 0 
z
" id="DejaVuSans-75"/>
       <path d="M 8.5 21.578125 
L 8.5 54.6875 
L 17.484375 54.6875 
L 17.484375 21.921875 
Q 17.484375 14.15625 20.5 10.265625 
Q 23.53125 6.390625 29.59375 6.390625 
Q 36.859375 6.390625 41.078125 11.03125 
Q 45.3125 15.671875 45.3125 23.6875 
L 45.3125 54.6875 
L 54.296875 54.6875 
L 54.296875 0 
L 45.3125 0 
L 45.3125 8.40625 
Q 42.046875 3.421875 37.71875 1 
Q 33.40625 -1.421875 27.6875 -1.421875 
Q 18.265625 -1.421875 13.375 4.4375 
Q 8.5 10.296875 8.5 21.578125 
z
M 31.109375 56 
z
" id="DejaVuSans-117"/>
      </defs>
      <use xlink:href="#DejaVuSans-75"/>
      <use x="60.576172" xlink:href="#DejaVuSans-117"/>
      <use x="123.955078" xlink:href="#DejaVuSans-110"/>
      <use x="187.333984" xlink:href="#DejaVuSans-122"/>
     </g>
    </g>
   </g>
   <g id="LineCollection_1">
    <path clip-path="url(#p513b46d1c1)" d="M 68.483629 493.445145 
L 69.140399 493.125902 
L 72.543981 490.40232 
L 77.445237 486.51402 
L 78.99195 485.493413 
L 81.619031 483.500027 
L 83.589341 481.873461 
L 83.784827 481.977669 
L 83.260956 482.628313 
L 79.576901 486.51402 
L 75.194071 491.69842 
L 74.839125 492.34647 
L 75.125584 492.34647 
L 76.443814 491.374395 
L 79.129597 489.10622 
L 81.619031 486.9014 
L 85.624268 483.27377 
L 88.515116 480.63883 
L 90.813812 478.657536 
L 92.127352 477.606466 
L 92.455737 477.374085 
L 92.779915 477.441319 
L 91.470582 479.187363 
L 88.711368 482.625719 
L 87.201576 484.571721 
L 86.544806 485.605008 
L 86.95068 485.541945 
L 87.858346 484.83476 
L 92.455737 480.993656 
L 92.810477 481.005594 
L 91.251804 483.27377 
L 91.585091 483.27377 
L 93.003039 482.301694 
L 100.336978 476.730426 
L 103.992148 473.553019 
L 106.247908 471.844893 
L 107.889833 471.048216 
L 108.546604 470.808574 
L 108.743831 470.960819 
L 108.507053 471.608869 
L 107.63317 473.228994 
L 107.526954 473.553019 
L 107.561448 473.883581 
L 107.963007 473.877044 
L 108.655243 473.553019 
L 109.860144 472.702947 
L 115.771074 467.528977 
L 118.155637 465.452393 
L 120.04008 463.99739 
L 126.607781 458.581344 
L 128.249706 457.295151 
L 129.563246 456.377737 
L 129.891631 456.238708 
L 130.220016 456.254722 
L 130.220016 456.43309 
L 129.563246 457.545162 
L 128.825956 458.647868 
L 128.735559 458.971893 
L 128.943626 458.971893 
L 130.548401 457.657197 
L 131.938802 456.379692 
L 135.154462 453.139442 
L 142.370262 445.775122 
L 145.654113 442.737916 
L 148.281193 440.530409 
L 151.236658 437.99298 
L 163.71529 426.241822 
L 166.34237 424.183351 
L 166.99914 423.897735 
L 167.65591 423.863599 
L 167.811589 423.97719 
L 167.798653 424.301215 
L 167.984295 424.414389 
L 171.729817 420.412914 
L 176.850691 414.810729 
L 179.250027 411.988264 
L 183.816643 406.479838 
L 186.401727 403.887638 
L 192.978606 397.731163 
L 195.573287 395.138962 
L 196.005906 394.490912 
L 195.897023 394.306209 
L 195.555808 394.166887 
L 195.568638 394.147917 
L 197.678831 390.926637 
L 199.180874 388.008681 
L 201.479569 385.361726 
L 204.586664 381.853936 
L 209.36081 376.276198 
L 217.261947 367.596835 
L 217.377553 367.27281 
L 217.242051 367.045623 
L 217.026054 366.948785 
L 217.242051 366.300294 
L 219.683496 363.38451 
L 226.362399 355.607909 
L 227.355425 353.987784 
L 227.750372 353.323373 
L 229.259849 350.747534 
L 229.657202 349.127409 
L 230.228347 348.155334 
L 231.362607 346.442456 
L 235.303228 341.621502 
L 237.601923 338.819422 
L 238.258693 337.87786 
L 238.452011 337.462508 
L 238.587078 336.73916 
L 239.365756 335.518358 
L 240.885773 333.512751 
L 242.044218 331.954082 
L 242.476519 330.982007 
L 242.771652 329.685907 
L 243.393879 328.713832 
L 245.265467 326.445657 
L 250.737324 319.639581 
L 251.722479 317.948933 
L 253.364405 315.405672 
L 257.992758 308.300255 
L 259.60372 305.560183 
L 263.435008 299.55158 
L 263.562008 298.90353 
L 263.544341 298.875879 
L 263.203079 298.579505 
L 262.887571 298.142058 
L 262.305256 298.25548 
L 261.902416 298.459816 
L 258.94695 300.719191 
L 251.251878 307.97623 
L 246.77322 312.836606 
L 244.367024 315.752831 
L 243.077079 317.372956 
L 240.998518 319.965156 
L 239.095884 322.557357 
L 238.587078 323.975211 
L 236.288383 326.47561 
L 233.280051 329.685907 
L 229.150907 334.546283 
L 227.421987 336.538286 
L 222.11223 342.322883 
L 215.27174 350.171943 
L 208.04727 357.692418 
L 204.435034 360.995337 
L 200.70058 364.356585 
L 198.507591 366.62476 
L 197.209848 368.244885 
L 196.045414 370.189035 
L 195.240253 371.208114 
L 193.190599 373.429286 
L 188.615276 377.965636 
L 184.731932 381.859124 
L 179.519787 387.362362 
L 176.193921 391.251565 
L 175.208766 392.678061 
L 174.790097 393.518837 
L 174.223611 394.634793 
L 173.369125 395.787013 
L 170.93976 398.492749 
L 163.71529 406.239935 
L 162.839777 407.451913 
L 162.730135 407.890695 
L 162.905664 408.099964 
L 162.730135 408.548596 
L 161.416594 410.151415 
L 158.691369 412.960339 
L 155.788763 415.552539 
L 153.03942 417.496689 
L 152.878583 417.554684 
L 152.549797 417.496689 
L 152.550198 417.495458 
L 152.878583 416.786385 
L 153.863739 415.544315 
L 157.505485 411.340214 
L 157.70079 411.016189 
L 157.475974 410.849964 
L 156.490819 411.56524 
L 152.155098 415.552539 
L 139.414797 427.892507 
L 136.854682 430.133665 
L 136.130947 430.635755 
L 136.010861 430.45769 
L 136.787717 429.351749 
L 137.836411 427.86549 
L 137.999006 427.541465 
L 137.772872 427.290518 
L 136.787717 427.924977 
L 134.817406 429.521048 
L 127.126376 436.290141 
L 126.696299 436.938191 
L 126.607781 437.34234 
L 126.279396 437.911362 
L 125.248426 438.882341 
L 122.139815 441.798566 
L 119.711695 443.789856 
L 118.398155 444.724808 
L 116.756229 445.548175 
L 114.321804 447.631017 
L 111.502069 450.315068 
L 106.576293 455.075659 
L 106.448323 454.759567 
L 106.576293 454.431201 
L 107.005552 453.787492 
L 108.218219 451.942989 
L 108.218219 451.824091 
L 108.175242 451.843342 
L 107.518748 452.167367 
L 106.247908 453.153403 
L 103.620828 455.442255 
L 97.669929 461.240068 
L 88.186731 470.703807 
L 85.055901 473.553019 
L 83.260956 475.195943 
L 76.601713 481.653644 
L 71.963468 486.838045 
L 70.951626 488.45817 
L 71.37784 489.10622 
L 70.426244 490.40232 
L 68.678865 492.670495 
L 68.355326 493.318545 
L 68.483629 493.445145 
L 68.483629 493.445145 
" style="fill:none;stroke:#e41a1c;stroke-width:1.142857;"/>
    <path clip-path="url(#p513b46d1c1)" d="M 71.439094 484.310703 
L 71.791875 484.245845 
L 72.752635 483.682597 
L 78.663565 478.704307 
L 84.902881 472.575384 
L 88.303363 469.016668 
L 90.157042 466.976602 
L 96.764268 460.267993 
L 99.703209 457.351767 
L 104.277598 452.370732 
L 105.18751 451.195292 
L 105.678129 450.223217 
L 105.591138 450.137382 
L 104.934368 450.40358 
L 102.635673 452.172749 
L 100.665363 453.866431 
L 95.060953 459.295918 
L 89.384311 465.128368 
L 84.902881 469.401279 
L 78.006795 476.163661 
L 75.250471 479.061444 
L 71.589595 483.597795 
L 71.373378 484.245845 
L 71.439094 484.310703 
L 71.439094 484.310703 
" style="fill:none;stroke:#e41a1c;stroke-width:1.142857;"/>
    <path clip-path="url(#p513b46d1c1)" d="M 83.917726 481.773964 
L 83.865211 481.653644 
L 83.917726 481.616287 
L 84.023433 481.653644 
L 83.917726 481.773964 
" style="fill:none;stroke:#e41a1c;stroke-width:1.142857;"/>
    <path clip-path="url(#p513b46d1c1)" d="M 84.246111 481.36635 
L 84.234976 481.329619 
L 84.246111 481.32057 
L 84.278465 481.329619 
L 84.246111 481.36635 
" style="fill:none;stroke:#e41a1c;stroke-width:1.142857;"/>
    <path clip-path="url(#p513b46d1c1)" d="M 106.247908 455.088342 
L 106.246435 455.083592 
L 106.247908 455.081369 
L 106.346838 455.083592 
L 106.247908 455.088342 
" style="fill:none;stroke:#e41a1c;stroke-width:1.142857;"/>
    <path clip-path="url(#p513b46d1c1)" d="M 153.863739 438.270752 
L 153.929988 438.234291 
L 153.863739 438.162011 
L 153.812356 438.234291 
L 153.863739 438.270752 
" style="fill:none;stroke:#e41a1c;stroke-width:1.142857;"/>
    <path clip-path="url(#p513b46d1c1)" d="M 154.192124 438.059647 
L 154.432391 437.910266 
L 154.520509 437.839316 
L 154.848894 437.588642 
L 154.851471 437.586241 
L 155.177279 437.266061 
L 155.181221 437.262216 
L 155.505664 437.035314 
L 155.641265 436.938191 
L 155.834049 436.743295 
L 155.963933 436.614166 
L 156.162434 436.404193 
L 156.272857 436.290141 
L 156.490819 436.048967 
L 156.568019 435.966116 
L 156.819204 435.675664 
L 156.849324 435.642091 
L 156.819204 435.541432 
L 156.490819 435.635643 
L 156.48174 435.642091 
L 156.162434 435.884827 
L 156.050013 435.966116 
L 155.834049 436.136221 
L 155.627592 436.290141 
L 155.505664 436.391059 
L 155.329048 436.614166 
L 155.177279 436.868228 
L 155.07771 436.938191 
L 154.848894 437.12441 
L 154.673089 437.262216 
L 154.520509 437.406591 
L 154.321171 437.586241 
L 154.192124 437.734822 
L 154.030286 437.910266 
L 154.192124 438.059647 
" style="fill:none;stroke:#e41a1c;stroke-width:1.142857;"/>
    <path clip-path="url(#p513b46d1c1)" d="M 169.62622 426.0134 
L 169.954605 426.024682 
L 170.28299 426.228031 
L 170.611375 426.034935 
L 170.765856 425.92134 
L 170.93976 425.79579 
L 171.181024 425.597315 
L 171.268146 425.526295 
L 171.545945 425.27329 
L 171.596531 425.227213 
L 171.874607 424.949265 
L 171.924916 424.898506 
L 172.175868 424.62524 
L 172.253301 424.53934 
L 172.455312 424.301215 
L 172.581686 424.148051 
L 172.716329 423.97719 
L 172.910071 423.72207 
L 172.960757 423.653165 
L 173.149524 423.32914 
L 173.238456 423.139922 
L 173.295659 423.005115 
L 173.478007 422.68109 
L 173.566841 422.536757 
L 173.67244 422.357065 
L 173.861705 422.03304 
L 173.895226 421.975435 
L 174.047741 421.709015 
L 174.221232 421.38499 
L 173.895226 421.370001 
L 173.876689 421.38499 
L 173.566841 421.624579 
L 173.465816 421.709015 
L 173.238456 421.892533 
L 173.075749 422.03304 
L 172.910071 422.172581 
L 172.703228 422.357065 
L 172.581686 422.463839 
L 172.345764 422.68109 
L 172.253301 422.765786 
L 172.001493 423.005115 
L 171.924916 423.078231 
L 171.669065 423.32914 
L 171.596531 423.401308 
L 171.347567 423.653165 
L 171.268146 423.735488 
L 171.036471 423.97719 
L 170.93976 424.081598 
L 170.735599 424.301215 
L 170.611375 424.440869 
L 170.445114 424.62524 
L 170.28299 424.815003 
L 170.165524 424.949265 
L 169.954605 425.206263 
L 169.897703 425.27329 
L 169.672134 425.597315 
L 169.62622 425.735829 
L 169.56597 425.92134 
L 169.62622 426.0134 
" style="fill:none;stroke:#e41a1c;stroke-width:1.142857;"/>
    <path clip-path="url(#p513b46d1c1)" d="M 166.99914 425.315388 
L 167.066017 425.27329 
L 166.99914 425.264945 
L 166.9919 425.27329 
L 166.99914 425.315388 
" style="fill:none;stroke:#e41a1c;stroke-width:1.142857;"/>
    <path clip-path="url(#p513b46d1c1)" d="M 167.65591 424.675586 
L 167.710127 424.62524 
L 167.65591 424.520277 
L 167.611423 424.62524 
L 167.65591 424.675586 
" style="fill:none;stroke:#e41a1c;stroke-width:1.142857;"/>
    <path clip-path="url(#p513b46d1c1)" d="M 177.507461 411.901657 
L 177.488837 411.664239 
L 177.507461 411.64587 
L 177.809061 411.340214 
L 177.835846 411.315302 
L 178.147875 411.016189 
L 178.164231 411.002598 
L 178.492616 410.804988 
L 178.56892 411.016189 
L 178.492616 411.085292 
L 178.23482 411.340214 
L 178.164231 411.404267 
L 177.876944 411.664239 
L 177.835846 411.698234 
L 177.507461 411.901657 
" style="fill:none;stroke:#e41a1c;stroke-width:1.142857;"/>
    <path clip-path="url(#p513b46d1c1)" d="M 157.804359 410.768391 
L 157.839769 410.692164 
L 157.804359 410.666706 
L 157.761705 410.692164 
L 157.804359 410.768391 
" style="fill:none;stroke:#e41a1c;stroke-width:1.142857;"/>
    <path clip-path="url(#p513b46d1c1)" d="M 178.821001 410.735611 
L 178.660364 410.692164 
L 178.821001 410.576134 
L 178.865816 410.692164 
L 178.821001 410.735611 
" style="fill:none;stroke:#e41a1c;stroke-width:1.142857;"/>
    <path clip-path="url(#p513b46d1c1)" d="M 179.149386 410.401363 
L 179.055013 410.368139 
L 179.149386 410.29769 
L 179.185835 410.368139 
L 179.149386 410.401363 
" style="fill:none;stroke:#e41a1c;stroke-width:1.142857;"/>
    <path clip-path="url(#p513b46d1c1)" d="M 179.477771 410.063741 
L 179.436566 410.044114 
L 179.477771 410.012645 
L 179.499259 410.044114 
L 179.477771 410.063741 
" style="fill:none;stroke:#e41a1c;stroke-width:1.142857;"/>
    <path clip-path="url(#p513b46d1c1)" d="M 161.088209 404.6035 
L 161.236687 404.535688 
L 161.416594 404.463164 
L 161.744979 404.262127 
L 161.806223 404.211663 
L 162.073365 404.016722 
L 162.227891 403.887638 
L 162.40175 403.757734 
L 162.630993 403.563613 
L 162.730135 403.487774 
L 163.01929 403.239588 
L 163.05852 403.208869 
L 163.386905 402.924788 
L 163.396808 402.915563 
L 163.71529 402.64181 
L 163.768908 402.591538 
L 164.043675 402.351467 
L 164.132641 402.267513 
L 164.37206 402.05432 
L 164.488143 401.943488 
L 164.700445 401.75187 
L 164.839091 401.619463 
L 165.02883 401.445434 
L 165.18484 401.295438 
L 165.357215 401.134736 
L 165.525991 400.971413 
L 165.6856 400.820181 
L 165.863011 400.647388 
L 166.013985 400.502 
L 166.196214 400.323363 
L 166.34237 400.180315 
L 166.525796 399.999338 
L 166.670755 399.855144 
L 166.851844 399.675313 
L 166.99914 399.526399 
L 167.177264 399.351288 
L 167.327525 399.19876 
L 167.498452 399.027263 
L 167.65591 398.863097 
L 167.814251 398.703238 
L 167.984295 398.523057 
L 168.125891 398.379213 
L 168.31268 398.178047 
L 168.434597 398.055188 
L 168.641065 397.831403 
L 168.738713 397.731163 
L 168.96945 397.474611 
L 169.034783 397.407138 
L 169.297835 397.109739 
L 169.323461 397.083113 
L 169.608883 396.759088 
L 169.62622 396.737449 
L 169.892951 396.435063 
L 169.954605 396.356148 
L 170.16771 396.111038 
L 170.28299 395.959608 
L 170.445162 395.787013 
L 170.611375 395.578835 
L 170.709956 395.462987 
L 170.93976 395.144678 
L 170.944549 395.138962 
L 171.076928 394.814937 
L 170.93976 394.710726 
L 170.733986 394.814937 
L 170.611375 394.870648 
L 170.28299 395.088781 
L 170.222159 395.138962 
L 169.954605 395.334709 
L 169.801161 395.462987 
L 169.62622 395.593959 
L 169.398349 395.787013 
L 169.297835 395.864017 
L 169.010121 396.111038 
L 168.96945 396.142921 
L 168.641065 396.427306 
L 168.632733 396.435063 
L 168.31268 396.710254 
L 168.260559 396.759088 
L 167.984295 397.000487 
L 167.896677 397.083113 
L 167.65591 397.296933 
L 167.539801 397.407138 
L 167.327525 397.598737 
L 167.188906 397.731163 
L 166.99914 397.905259 
L 166.84321 398.055188 
L 166.670755 398.21597 
L 166.502073 398.379213 
L 166.34237 398.530539 
L 166.165069 398.703238 
L 166.013985 398.848736 
L 165.831881 399.027263 
L 165.6856 399.170437 
L 165.502316 399.351288 
L 165.357215 399.495627 
L 165.176286 399.675313 
L 165.02883 399.824391 
L 164.853808 399.999338 
L 164.700445 400.156921 
L 164.535006 400.323363 
L 164.37206 400.493528 
L 164.220114 400.647388 
L 164.043675 400.834655 
L 163.909489 400.971413 
L 163.71529 401.180899 
L 163.603631 401.295438 
L 163.386905 401.533046 
L 163.303205 401.619463 
L 163.05852 401.89211 
L 163.009079 401.943488 
L 162.730135 402.259391 
L 162.722369 402.267513 
L 162.434194 402.591538 
L 162.40175 402.631853 
L 162.151634 402.915563 
L 162.073365 403.015098 
L 161.87809 403.239588 
L 161.744979 403.412836 
L 161.615573 403.563613 
L 161.416594 403.828676 
L 161.366665 403.887638 
L 161.163069 404.211663 
L 161.088209 404.391081 
L 161.019919 404.535688 
L 161.088209 404.6035 
" style="fill:none;stroke:#e41a1c;stroke-width:1.142857;"/>
    <path clip-path="url(#p513b46d1c1)" d="M 187.030627 381.558887 
L 186.913862 381.529911 
L 187.030627 381.134164 
L 188.483264 379.261736 
L 189.986093 377.627803 
L 193.079238 374.401361 
L 195.940002 371.809161 
L 197.210563 370.914468 
L 197.210563 371.246116 
L 195.897023 372.843772 
L 190.642863 378.38444 
L 187.917854 380.881861 
L 187.030627 381.558887 
L 187.030627 381.558887 
" style="fill:none;stroke:#e41a1c;stroke-width:1.142857;"/>
   </g>
   <g id="LineCollection_2">
    <path clip-path="url(#p513b46d1c1)" d="M 71.110709 490.893284 
L 72.095865 490.256699 
L 78.672856 484.893895 
L 80.96226 483.429958 
L 84.574496 480.464744 
L 90.485427 475.149801 
L 91.142197 474.712707 
L 91.39402 474.849119 
L 90.813812 475.586522 
L 89.034947 477.441319 
L 82.604186 483.821334 
L 80.434888 486.189995 
L 78.956689 488.134145 
L 78.99195 488.22355 
L 79.349119 488.134145 
L 81.290646 486.640504 
L 85.559651 482.861204 
L 90.485427 478.379801 
L 94.607855 474.849119 
L 96.067972 473.772896 
L 96.191603 473.877044 
L 95.83469 474.525094 
L 94.426047 476.508632 
L 93.087382 478.413394 
L 92.970915 478.737419 
L 93.112507 478.881603 
L 93.769277 478.504609 
L 97.875718 475.173144 
L 99.088239 474.201069 
L 100.993748 472.818984 
L 101.650518 472.496371 
L 101.946248 472.580944 
L 101.454616 473.877044 
L 101.650518 474.174492 
L 102.964058 473.313122 
L 110.516914 467.069211 
L 111.173684 466.812678 
L 111.830454 466.670725 
L 113.472379 466.011833 
L 113.538693 466.100443 
L 113.44761 466.424468 
L 111.502069 469.389214 
L 111.830454 469.438534 
L 113.143994 468.530517 
L 117.52804 464.804343 
L 126.279396 457.251762 
L 129.98207 454.435542 
L 131.579187 453.139442 
L 133.24434 451.843342 
L 139.086412 447.028968 
L 141.887562 444.390766 
L 150.908273 436.147013 
L 152.550198 434.951358 
L 154.669657 433.373916 
L 157.674522 430.781715 
L 160.311845 428.189515 
L 162.40175 425.55601 
L 164.043675 423.564047 
L 166.34237 421.003416 
L 170.723771 416.524614 
L 172.581686 414.936033 
L 176.522306 411.587508 
L 182.761622 405.675985 
L 186.435694 401.943488 
L 192.738907 394.814937 
L 193.781566 393.194812 
L 194.379574 392.222737 
L 195.646535 390.602612 
L 197.210563 388.861602 
L 201.218948 384.446137 
L 202.956474 382.177961 
L 204.763419 380.01558 
L 209.653497 374.401361 
L 210.345965 373.019788 
L 212.316275 370.510662 
L 218.71465 363.060485 
L 221.591537 359.172185 
L 223.538114 355.931934 
L 225.133123 353.663759 
L 226.932377 351.071559 
L 229.063912 348.040711 
L 233.27537 342.322883 
L 235.047311 339.730683 
L 238.726816 334.546283 
L 239.088733 333.574208 
L 238.915463 333.153211 
L 238.762025 332.926157 
L 238.915463 332.574065 
L 240.257781 330.982007 
L 244.244725 326.445657 
L 246.236225 323.853457 
L 249.204653 319.641131 
L 251.462834 315.752831 
L 252.155956 314.132706 
L 253.520797 312.188556 
L 254.927382 309.920381 
L 255.6631 308.270042 
L 260.588875 302.130528 
L 260.86559 301.49573 
L 261.079773 300.19963 
L 260.91726 299.950336 
L 260.256692 300.19963 
L 258.916794 301.171705 
L 257.305025 302.517959 
L 252.200621 307.32818 
L 248.545047 311.216481 
L 242.527698 318.670711 
L 242.081401 319.317106 
L 241.417622 320.289181 
L 241.337238 320.613206 
L 241.542543 320.716829 
L 241.870928 320.617568 
L 241.870928 321.012001 
L 240.52374 322.557357 
L 237.273538 325.904474 
L 234.318073 329.061542 
L 231.600534 332.278107 
L 229.720682 334.564166 
L 220.737586 344.591058 
L 219.212361 346.351685 
L 212.247329 353.987784 
L 201.967804 365.004635 
L 201.151184 366.152871 
L 201.533181 365.97671 
L 202.333586 365.32866 
L 203.871113 364.356585 
L 203.449879 365.043422 
L 193.926713 375.846293 
L 189.000938 380.957225 
L 187.359012 382.497134 
L 184.403547 385.422604 
L 182.684464 387.362362 
L 180.272579 390.602612 
L 178.492616 392.551417 
L 176.804242 394.166887 
L 172.580816 398.055188 
L 170.127777 400.323363 
L 168.267954 402.267513 
L 167.787658 402.915563 
L 167.637586 403.239588 
L 167.627695 403.563613 
L 166.99914 404.645863 
L 165.243479 406.803863 
L 161.945287 410.368139 
L 157.804359 414.624618 
L 154.848894 417.362777 
L 152.106609 419.440839 
L 150.251503 420.609347 
L 149.168338 421.060965 
L 147.624423 421.572712 
L 146.125363 422.68109 
L 144.652927 423.97719 
L 132.805193 434.670016 
L 124.498323 441.150516 
L 120.69685 444.070978 
L 118.597711 445.686867 
L 115.771074 448.058247 
L 113.472379 449.985075 
L 112.158839 450.958345 
L 109.203374 453.518099 
L 106.691391 455.731642 
L 102.869611 458.971893 
L 102.635673 459.118949 
L 102.371391 458.971893 
L 103.292443 457.672661 
L 105.283695 455.083592 
L 105.368048 454.759567 
L 105.190989 454.759567 
L 104.263118 455.407617 
L 101.978903 457.435891 
L 96.067972 463.210765 
L 86.214064 472.904969 
L 82.598781 476.145219 
L 78.33518 480.203291 
L 75.7081 482.977486 
L 74.01818 484.893895 
L 73.047385 486.189995 
L 72.892905 486.51402 
L 73.08102 486.806121 
L 74.066175 486.359332 
L 74.30702 486.51402 
L 73.504037 487.486095 
L 71.092201 490.40232 
L 70.924471 490.726345 
L 71.110709 490.893284 
L 71.110709 490.893284 
" style="fill:none;stroke:#e41a1c;stroke-width:1.142857;"/>
    <path clip-path="url(#p513b46d1c1)" d="M 74.39456 486.309233 
L 74.34136 486.189995 
L 74.39456 486.16439 
L 74.444606 486.189995 
L 74.39456 486.309233 
" style="fill:none;stroke:#e41a1c;stroke-width:1.142857;"/>
    <path clip-path="url(#p513b46d1c1)" d="M 73.08102 482.777706 
L 73.73779 482.482871 
L 76.036485 480.727046 
L 84.045402 473.228994 
L 89.725119 467.072518 
L 91.471849 465.128368 
L 95.082817 461.519144 
L 99.374723 457.351767 
L 102.635673 453.773129 
L 103.570686 452.491392 
L 103.620828 452.107712 
L 102.857903 452.491392 
L 101.588595 453.463467 
L 100.008593 454.826614 
L 95.700439 458.971893 
L 88.186731 466.635423 
L 83.881328 470.636794 
L 81.135207 473.228994 
L 77.971146 476.469244 
L 73.682259 481.329619 
L 73.032236 482.301694 
L 72.927016 482.625719 
L 73.08102 482.777706 
L 73.08102 482.777706 
" style="fill:none;stroke:#e41a1c;stroke-width:1.142857;"/>
    <path clip-path="url(#p513b46d1c1)" d="M 91.470582 474.596255 
L 91.451349 474.525094 
L 91.470582 474.513872 
L 91.494794 474.525094 
L 91.470582 474.596255 
" style="fill:none;stroke:#e41a1c;stroke-width:1.142857;"/>
    <path clip-path="url(#p513b46d1c1)" d="M 102.307288 459.319537 
L 102.270222 459.295918 
L 102.307288 459.165944 
L 102.346347 459.295918 
L 102.307288 459.319537 
" style="fill:none;stroke:#e41a1c;stroke-width:1.142857;"/>
   </g>
   <g id="LineCollection_3">
    <path clip-path="url(#p513b46d1c1)" d="M 75.7081 484.084357 
L 76.148714 483.92182 
L 77.67841 482.781131 
L 80.30549 480.671098 
L 80.633875 480.572467 
L 80.711576 480.681569 
L 79.760984 481.977669 
L 78.603182 483.27377 
L 78.663565 483.593251 
L 80.30549 482.339116 
L 81.619031 481.60018 
L 82.932571 480.955386 
L 84.246111 479.987157 
L 85.888036 478.580417 
L 87.858346 476.735707 
L 90.157042 474.33227 
L 90.813812 473.546662 
L 90.38305 473.553019 
L 89.500271 473.934401 
L 89.427856 473.877044 
L 89.500271 473.548383 
L 95.082817 467.336191 
L 97.53086 464.804343 
L 97.929696 464.156293 
L 97.917095 463.832268 
L 98.482881 462.860193 
L 99.576558 460.916043 
L 99.351823 460.811659 
L 95.969407 463.832268 
L 92.127352 467.676522 
L 88.134805 471.608869 
L 84.574496 474.850046 
L 81.290646 477.783616 
L 78.006795 481.010475 
L 75.982085 483.27377 
L 75.583069 483.92182 
L 75.7081 484.084357 
L 75.7081 484.084357 
" style="fill:none;stroke:#e41a1c;stroke-width:1.142857;"/>
    <path clip-path="url(#p513b46d1c1)" d="M 78.006795 483.964179 
L 78.081294 483.92182 
L 78.006795 483.90743 
L 77.993287 483.92182 
L 78.006795 483.964179 
" style="fill:none;stroke:#e41a1c;stroke-width:1.142857;"/>
    <path clip-path="url(#p513b46d1c1)" d="M 78.33518 483.738939 
L 78.655918 483.597795 
L 78.33518 483.559407 
L 78.299413 483.597795 
L 78.33518 483.738939 
" style="fill:none;stroke:#e41a1c;stroke-width:1.142857;"/>
    <path clip-path="url(#p513b46d1c1)" d="M 75.05133 480.891888 
L 75.7081 480.520102 
L 78.33518 478.376065 
L 83.260956 473.704956 
L 85.849908 470.960819 
L 89.60602 466.424468 
L 89.500271 466.110088 
L 86.544806 468.534476 
L 79.825892 474.849119 
L 76.233066 478.737419 
L 74.838212 480.681569 
L 75.05133 480.891888 
L 75.05133 480.891888 
" style="fill:none;stroke:#e41a1c;stroke-width:1.142857;"/>
    <path clip-path="url(#p513b46d1c1)" d="M 94.097662 473.97421 
L 94.467235 473.877044 
L 97.053127 471.679618 
L 99.530794 469.340693 
L 106.961261 461.888118 
L 107.889833 460.911753 
L 108.218219 460.670593 
L 108.218219 460.997207 
L 101.978903 468.532209 
L 100.640904 470.312769 
L 100.543978 470.636794 
L 100.744721 470.636794 
L 102.00642 469.664718 
L 107.889833 464.599457 
L 108.218219 464.405967 
L 108.370243 464.480318 
L 108.294627 465.128368 
L 108.546604 465.243755 
L 109.203374 464.935272 
L 112.158839 463.019062 
L 113.16244 462.536168 
L 114.884933 461.240068 
L 122.66716 454.872417 
L 122.772892 455.083592 
L 122.064817 456.379692 
L 122.338775 456.464846 
L 123.412572 455.731642 
L 125.29424 454.077298 
L 130.548401 449.387739 
L 131.861941 448.526106 
L 132.518711 448.351563 
L 133.175481 448.205119 
L 134.489021 447.379678 
L 138.464024 444.066741 
L 140.519524 442.446616 
L 141.128177 442.122591 
L 141.385107 442.207753 
L 141.767327 442.122591 
L 143.355417 440.935623 
L 146.310883 438.231327 
L 151.565043 432.907895 
L 159.774669 424.468491 
L 175.080798 409.072039 
L 178.669943 404.859713 
L 180.305588 402.915563 
L 183.656334 399.351288 
L 188.344167 394.471389 
L 192.096435 390.278587 
L 195.352933 386.714312 
L 204.106649 377.568724 
L 207.52697 373.429286 
L 208.857022 371.485136 
L 209.095281 370.837086 
L 208.925071 369.86501 
L 208.70404 369.640928 
L 208.04727 369.890086 
L 207.718885 370.037 
L 207.520467 369.86501 
L 208.04727 369.170784 
L 210.67435 366.347024 
L 214.61497 362.683838 
L 217.729966 359.820235 
L 219.801835 357.552059 
L 220.989499 355.931934 
L 221.096898 355.607909 
L 220.854286 355.506459 
L 220.525901 355.566007 
L 220.442595 355.283884 
L 220.854286 354.588471 
L 222.617093 352.367659 
L 225.687403 348.479359 
L 226.031359 347.831309 
L 225.780062 347.471387 
L 225.620829 347.183259 
L 226.569606 345.563133 
L 226.436832 345.4327 
L 226.108447 345.431304 
L 226.108447 345.166082 
L 227.526581 343.294958 
L 229.526334 341.026783 
L 233.661302 336.528029 
L 238.587078 331.118633 
L 241.969702 327.093707 
L 242.635297 326.121632 
L 242.768072 325.797607 
L 242.527698 325.614066 
L 241.870928 325.919083 
L 239.900618 327.184479 
L 239.668696 327.093707 
L 240.229003 326.399379 
L 245.811549 319.943939 
L 248.094476 317.048931 
L 248.5026 316.400881 
L 248.438629 316.058655 
L 248.403391 316.076856 
L 247.781859 316.439203 
L 245.92664 318.021006 
L 243.841239 319.981982 
L 238.587078 325.211762 
L 235.948155 328.065782 
L 233.880921 330.657982 
L 230.377452 334.959986 
L 225.509538 340.702758 
L 222.487278 343.943008 
L 218.078468 348.803384 
L 217.240122 349.775459 
L 217.242051 350.120355 
L 217.267208 350.099484 
L 219.984392 347.831309 
L 220.854286 347.064406 
L 221.839441 346.308413 
L 221.839441 346.582144 
L 220.197516 348.523702 
L 215.943911 353.339734 
L 213.30143 356.146015 
L 210.207874 359.49621 
L 202.464724 368.019796 
L 200.467398 370.51306 
L 198.435732 373.105261 
L 197.210563 374.830918 
L 197.09926 375.049411 
L 197.210563 375.318006 
L 197.722567 375.373436 
L 197.538948 375.775688 
L 196.225185 377.317586 
L 192.941558 380.602999 
L 184.691639 388.334437 
L 174.419418 399.027263 
L 172.56194 400.971413 
L 168.673583 405.507763 
L 168.269418 406.155813 
L 166.921491 408.099964 
L 166.155957 408.748014 
L 165.6856 409.133821 
L 165.357215 408.947132 
L 164.321087 409.720089 
L 161.399819 412.636314 
L 160.220277 413.932414 
L 153.781646 420.412914 
L 147.812814 425.92134 
L 143.027032 430.345533 
L 140.395072 432.725865 
L 135.057291 437.262216 
L 131.533556 440.286281 
L 125.944967 445.038816 
L 125.29424 445.375321 
L 124.54292 445.686867 
L 123.175424 446.658942 
L 121.025235 448.392047 
L 113.143994 455.272426 
L 112.441912 455.407617 
L 110.188529 457.073946 
L 107.055404 459.943968 
L 104.226581 462.860193 
L 98.695052 468.700993 
L 94.089681 473.877044 
L 94.097662 473.97421 
L 94.097662 473.97421 
" style="fill:none;stroke:#e41a1c;stroke-width:1.142857;"/>
    <path clip-path="url(#p513b46d1c1)" d="M 89.828656 466.119367 
L 89.843291 466.100443 
L 89.828656 466.042967 
L 89.562743 466.100443 
L 89.828656 466.119367 
" style="fill:none;stroke:#e41a1c;stroke-width:1.142857;"/>
    <path clip-path="url(#p513b46d1c1)" d="M 100.993748 462.933313 
L 101.077778 462.860193 
L 101.322133 462.687168 
L 101.478042 462.536168 
L 101.650518 462.393343 
L 101.825281 462.212143 
L 101.978903 462.096459 
L 102.238992 461.888118 
L 102.307288 461.827991 
L 102.590912 461.564093 
L 102.635673 461.525377 
L 102.932673 461.240068 
L 102.964058 461.210828 
L 103.232638 460.916043 
L 103.292443 460.856425 
L 103.552742 460.592018 
L 103.620828 460.520867 
L 103.845052 460.267993 
L 103.949213 460.14996 
L 104.128257 459.943968 
L 104.277598 459.768414 
L 104.404068 459.619943 
L 104.605983 459.373607 
L 104.670778 459.295918 
L 104.887236 458.971893 
L 104.605983 458.927962 
L 104.54513 458.971893 
L 104.277598 459.174356 
L 104.112387 459.295918 
L 103.949213 459.423109 
L 103.688097 459.619943 
L 103.620828 459.674285 
L 103.292443 459.938355 
L 103.285801 459.943968 
L 102.964058 460.231372 
L 102.921543 460.267993 
L 102.635673 460.534774 
L 102.570706 460.592018 
L 102.307288 460.890074 
L 102.283093 460.916043 
L 101.978903 461.206307 
L 101.942088 461.240068 
L 101.650518 461.552501 
L 101.637353 461.564093 
L 101.322133 461.886463 
L 101.320324 461.888118 
L 101.058488 462.212143 
L 100.993748 462.315416 
L 100.848278 462.536168 
L 100.752984 462.860193 
L 100.993748 462.933313 
" style="fill:none;stroke:#e41a1c;stroke-width:1.142857;"/>
    <path clip-path="url(#p513b46d1c1)" d="M 93.112507 462.587842 
L 93.185716 462.536168 
L 93.112507 462.517579 
L 93.082581 462.536168 
L 93.112507 462.587842 
" style="fill:none;stroke:#e41a1c;stroke-width:1.142857;"/>
    <path clip-path="url(#p513b46d1c1)" d="M 94.097662 461.583182 
L 94.129319 461.564093 
L 94.097662 461.532856 
L 94.078316 461.564093 
L 94.097662 461.583182 
" style="fill:none;stroke:#e41a1c;stroke-width:1.142857;"/>
    <path clip-path="url(#p513b46d1c1)" d="M 94.426047 461.397844 
L 94.674564 461.240068 
L 94.754432 461.192474 
L 95.082817 460.945791 
L 95.116116 460.916043 
L 95.411202 460.668233 
L 95.495388 460.592018 
L 95.739587 460.382156 
L 95.864027 460.267993 
L 96.067972 460.088637 
L 96.223586 459.943968 
L 96.396357 459.788486 
L 96.575266 459.619943 
L 96.724742 459.482291 
L 96.919975 459.295918 
L 97.053127 459.170443 
L 97.258382 458.971893 
L 97.381512 458.853161 
L 97.590949 458.647868 
L 97.709897 458.530499 
L 97.917954 458.323843 
L 98.038282 458.202348 
L 98.239506 457.999818 
L 98.366667 457.868434 
L 98.55555 457.675792 
L 98.695052 457.528302 
L 98.865865 457.351767 
L 99.023438 457.181292 
L 99.170055 457.027742 
L 99.351823 456.826506 
L 99.467524 456.703717 
L 99.680208 456.462762 
L 99.75745 456.379692 
L 100.008593 456.088525 
L 100.038742 456.055667 
L 100.288745 455.731642 
L 100.336978 455.652837 
L 100.496878 455.407617 
L 100.336978 455.249841 
L 100.088462 455.407617 
L 100.008593 455.455212 
L 99.680208 455.701896 
L 99.646911 455.731642 
L 99.351823 455.979454 
L 99.267639 456.055667 
L 99.023438 456.265532 
L 98.899001 456.379692 
L 98.695052 456.559052 
L 98.539443 456.703717 
L 98.366667 456.859203 
L 98.187764 457.027742 
L 98.038282 457.165398 
L 97.843055 457.351767 
L 97.709897 457.477247 
L 97.504648 457.675792 
L 97.381512 457.794529 
L 97.172081 457.999818 
L 97.053127 458.117192 
L 96.845076 458.323843 
L 96.724742 458.445343 
L 96.523525 458.647868 
L 96.396357 458.779257 
L 96.20748 458.971893 
L 96.067972 459.119389 
L 95.897165 459.295918 
L 95.739587 459.466399 
L 95.592975 459.619943 
L 95.411202 459.821184 
L 95.295505 459.943968 
L 95.082817 460.184927 
L 95.005578 460.267993 
L 94.754432 460.559163 
L 94.724285 460.592018 
L 94.474283 460.916043 
L 94.426047 460.994852 
L 94.266148 461.240068 
L 94.426047 461.397844 
" style="fill:none;stroke:#e41a1c;stroke-width:1.142857;"/>
    <path clip-path="url(#p513b46d1c1)" d="M 99.680208 460.691871 
L 99.720318 460.592018 
L 99.680208 460.567794 
L 99.650998 460.592018 
L 99.680208 460.691871 
" style="fill:none;stroke:#e41a1c;stroke-width:1.142857;"/>
    <path clip-path="url(#p513b46d1c1)" d="M 108.546604 460.598943 
L 108.47228 460.592018 
L 108.546604 460.549232 
L 108.551969 460.592018 
L 108.546604 460.598943 
" style="fill:none;stroke:#e41a1c;stroke-width:1.142857;"/>
    <path clip-path="url(#p513b46d1c1)" d="M 100.665363 455.11483 
L 100.684709 455.083592 
L 100.665363 455.064503 
L 100.633705 455.083592 
L 100.665363 455.11483 
" style="fill:none;stroke:#e41a1c;stroke-width:1.142857;"/>
    <path clip-path="url(#p513b46d1c1)" d="M 207.3905 370.198705 
L 207.377664 370.189035 
L 207.3905 370.162483 
L 207.410871 370.189035 
L 207.3905 370.198705 
" style="fill:none;stroke:#e41a1c;stroke-width:1.142857;"/>
    <path clip-path="url(#p513b46d1c1)" d="M 239.572233 327.425164 
L 239.549181 327.417732 
L 239.572233 327.361649 
L 239.582994 327.417732 
L 239.572233 327.425164 
" style="fill:none;stroke:#e41a1c;stroke-width:1.142857;"/>
    <path clip-path="url(#p513b46d1c1)" d="M 244.826394 317.09196 
L 245.160049 317.048931 
L 247.125089 315.532632 
L 251.899401 310.892456 
L 255.090111 307.32818 
L 257.357211 304.411955 
L 258.29018 302.93556 
L 258.378742 302.79183 
L 258.29018 302.434577 
L 256.837574 303.43988 
L 255.334715 304.743045 
L 252.634596 307.32818 
L 249.917537 310.244406 
L 248.110244 312.600015 
L 246.760503 314.456731 
L 244.809922 317.048931 
L 244.826394 317.09196 
L 244.826394 317.09196 
" style="fill:none;stroke:#e41a1c;stroke-width:1.142857;"/>
   </g>
   <g id="patch_3">
    <path d="M 35.289375 525.1 
L 35.289375 266.15 
" style="fill:none;stroke:#000000;stroke-linecap:square;stroke-linejoin:miter;stroke-width:0.8;"/>
   </g>
   <g id="patch_4">
    <path d="M 297.72375 525.1 
L 297.72375 266.15 
" style="fill:none;stroke:#000000;stroke-linecap:square;stroke-linejoin:miter;stroke-width:0.8;"/>
   </g>
   <g id="patch_5">
    <path d="M 35.289375 525.1 
L 297.72375 525.1 
" style="fill:none;stroke:#000000;stroke-linecap:square;stroke-linejoin:miter;stroke-width:0.8;"/>
   </g>
   <g id="patch_6">
    <path d="M 35.289375 266.15 
L 297.72375 266.15 
" style="fill:none;stroke:#000000;stroke-linecap:square;stroke-linejoin:miter;stroke-width:0.8;"/>
   </g>
  </g>
  <g id="axes_2">
   <g id="patch_7">
    <path d="M 35.289375 266.15 
L 297.72375 266.15 
L 297.72375 7.2 
L 35.289375 7.2 
z
" style="fill:#ffffff;"/>
   </g>
   <g id="matplotlib.axis_3">
    <g id="xtick_8">
     <g id="line2d_21">
      <g>
       <use style="stroke:#000000;stroke-width:0.8;" x="66.01742" xlink:href="#m7169a38d7f" y="266.15"/>
      </g>
     </g>
    </g>
    <g id="xtick_9">
     <g id="line2d_22">
      <g>
       <use style="stroke:#000000;stroke-width:0.8;" x="101.462011" xlink:href="#m7169a38d7f" y="266.15"/>
      </g>
     </g>
    </g>
    <g id="xtick_10">
     <g id="line2d_23">
      <g>
       <use style="stroke:#000000;stroke-width:0.8;" x="136.906602" xlink:href="#m7169a38d7f" y="266.15"/>
      </g>
     </g>
    </g>
    <g id="xtick_11">
     <g id="line2d_24">
      <g>
       <use style="stroke:#000000;stroke-width:0.8;" x="172.351193" xlink:href="#m7169a38d7f" y="266.15"/>
      </g>
     </g>
    </g>
    <g id="xtick_12">
     <g id="line2d_25">
      <g>
       <use style="stroke:#000000;stroke-width:0.8;" x="207.795784" xlink:href="#m7169a38d7f" y="266.15"/>
      </g>
     </g>
    </g>
    <g id="xtick_13">
     <g id="line2d_26">
      <g>
       <use style="stroke:#000000;stroke-width:0.8;" x="243.240375" xlink:href="#m7169a38d7f" y="266.15"/>
      </g>
     </g>
    </g>
    <g id="xtick_14">
     <g id="line2d_27">
      <g>
       <use style="stroke:#000000;stroke-width:0.8;" x="278.684965" xlink:href="#m7169a38d7f" y="266.15"/>
      </g>
     </g>
    </g>
   </g>
   <g id="matplotlib.axis_4">
    <g id="ytick_4"/>
    <g id="ytick_5"/>
    <g id="ytick_6"/>
    <g id="ytick_7"/>
    <g id="ytick_8"/>
   </g>
   <g id="line2d_28">
    <path clip-path="url(#pa90d3d17b3)" d="M 35.212415 265.418724 
L 37.675142 264.973885 
L 39.214347 264.601287 
L 40.137869 264.282363 
L 41.984915 263.641982 
L 44.139801 262.645526 
L 45.679006 261.746331 
L 47.21821 260.670276 
L 49.065256 259.094228 
L 50.60446 257.506663 
L 52.451506 255.231471 
L 54.298551 252.518966 
L 55.529915 250.402412 
L 57.37696 246.770893 
L 59.224006 242.563552 
L 61.378892 236.872948 
L 63.225938 231.338496 
L 65.380824 224.082835 
L 67.53571 215.947694 
L 69.690597 206.94957 
L 72.769006 192.922461 
L 76.463097 174.77328 
L 82.312074 144.762236 
L 86.006165 126.857445 
L 91.23946 103.914729 
L 94.317869 92.665467 
L 97.088438 83.921574 
L 99.243324 78.225266 
L 102.321733 71.362257 
L 104.168778 68.024027 
L 106.631506 64.192151 
L 107.862869 62.546123 
L 108.478551 61.657121 
L 110.017756 60.059725 
L 111.864801 58.467115 
L 113.096165 57.505355 
L 114.327528 56.447175 
L 118.32946 53.636476 
L 121.407869 52.072576 
L 121.71571 51.799139 
L 122.639233 51.387403 
L 127.564688 48.987033 
L 127.872528 48.867039 
L 128.48821 48.405693 
L 133.105824 45.999445 
L 133.413665 46.29332 
L 134.337188 45.772037 
L 137.415597 44.235608 
L 137.723437 45.175594 
L 138.339119 44.830365 
L 139.570483 44.059145 
L 139.878324 47.735716 
L 141.725369 46.00638 
L 142.03321 45.960126 
L 142.648892 45.287731 
L 142.956733 45.146296 
L 143.880256 44.340045 
L 144.188097 44.300793 
L 144.495938 44.47835 
L 145.727301 43.253348 
L 146.035142 43.950616 
L 146.342983 43.871092 
L 147.266506 42.863762 
L 147.882187 42.287018 
L 149.113551 41.23503 
L 150.652756 39.798136 
L 152.19196 38.756028 
L 152.499801 38.495988 
L 153.115483 38.855713 
L 153.423324 38.635904 
L 153.731165 38.651746 
L 154.654688 38.091027 
L 154.962528 38.08867 
L 155.270369 37.974047 
L 155.57821 38.510797 
L 156.501733 37.827599 
L 157.117415 37.545891 
L 157.733097 37.096583 
L 158.348778 36.801347 
L 158.96446 36.32863 
L 159.272301 36.166383 
L 159.580142 36.136218 
L 160.195824 35.742199 
L 160.503665 35.407501 
L 160.811506 35.377569 
L 161.427188 34.826595 
L 162.042869 34.470248 
L 162.658551 34.041656 
L 165.429119 33.119878 
L 165.73696 33.0803 
L 166.044801 32.772499 
L 167.584006 32.300103 
L 168.507528 31.977751 
L 168.815369 31.930059 
L 169.12321 31.704698 
L 170.046733 31.437141 
L 170.662415 31.191536 
L 171.278097 31.270499 
L 172.201619 31.191036 
L 174.048665 31.097147 
L 175.280028 30.908454 
L 175.587869 31.012832 
L 175.89571 30.967511 
L 176.203551 30.740583 
L 177.127074 30.874464 
L 177.434915 30.85695 
L 177.742756 30.71321 
L 178.358438 30.830601 
L 179.28196 30.526706 
L 180.513324 30.647088 
L 180.821165 30.540762 
L 182.360369 30.966513 
L 182.66821 30.92581 
L 183.899574 31.315763 
L 185.746619 31.907815 
L 188.209347 33.043744 
L 188.517188 32.655946 
L 189.132869 33.130251 
L 190.364233 33.788162 
L 192.211278 35.305901 
L 192.519119 35.730279 
L 192.82696 35.805553 
L 195.289688 38.267016 
L 195.597528 36.876278 
L 196.521051 37.807892 
L 198.060256 39.839558 
L 198.983778 40.93055 
L 199.59946 41.618391 
L 199.907301 41.648276 
L 200.830824 42.941229 
L 201.754347 44.252002 
L 202.98571 46.083286 
L 204.217074 48.222399 
L 204.832756 49.314943 
L 205.756278 51.032165 
L 207.603324 54.454288 
L 209.75821 58.931718 
L 211.913097 63.684029 
L 215.607188 72.989318 
L 217.146392 77.277427 
L 220.840483 88.256237 
L 228.536506 114.711527 
L 231.614915 126.602207 
L 233.769801 135.275578 
L 239.926619 160.360467 
L 247.00696 189.055056 
L 249.469688 198.395233 
L 253.471619 212.576671 
L 255.626506 219.60705 
L 257.781392 226.136331 
L 259.628438 231.336784 
L 261.475483 236.092622 
L 263.630369 241.114962 
L 266.093097 246.041946 
L 267.940142 249.262626 
L 270.095028 252.498655 
L 271.942074 254.908145 
L 274.09696 257.287661 
L 275.944006 259.029632 
L 278.406733 260.933306 
L 280.253778 262.013044 
L 282.408665 263.055252 
L 284.871392 263.960942 
L 286.718437 264.496329 
L 289.796847 265.121059 
L 293.490937 265.600819 
L 296.569347 265.847229 
L 297.80071 265.913388 
L 297.80071 265.913388 
" style="fill:none;stroke:#e41a1c;stroke-linecap:square;stroke-width:1.142857;"/>
   </g>
   <g id="patch_8">
    <path d="M 35.289375 266.15 
L 35.289375 7.2 
" style="fill:none;stroke:#000000;stroke-linecap:square;stroke-linejoin:miter;stroke-width:0.8;"/>
   </g>
   <g id="patch_9">
    <path d="M 297.72375 266.15 
L 297.72375 7.2 
" style="fill:none;stroke:#000000;stroke-linecap:square;stroke-linejoin:miter;stroke-width:0.8;"/>
   </g>
   <g id="patch_10">
    <path d="M 35.289375 266.15 
L 297.72375 266.15 
" style="fill:none;stroke:#000000;stroke-linecap:square;stroke-linejoin:miter;stroke-width:0.8;"/>
   </g>
   <g id="patch_11">
    <path d="M 35.289375 7.2 
L 297.72375 7.2 
" style="fill:none;stroke:#000000;stroke-linecap:square;stroke-linejoin:miter;stroke-width:0.8;"/>
   </g>
  </g>
  <g id="axes_3">
   <g id="patch_12">
    <path d="M 297.72375 525.1 
L 560.158125 525.1 
L 560.158125 266.15 
L 297.72375 266.15 
z
" style="fill:#ffffff;"/>
   </g>
   <g id="matplotlib.axis_5">
    <g id="xtick_15">
     <g id="line2d_29">
      <g>
       <use style="stroke:#000000;stroke-width:0.8;" x="324.883992" xlink:href="#m7169a38d7f" y="525.1"/>
      </g>
     </g>
     <g id="text_13">
      <!-- $\mathdefault{0}$ -->
      <g transform="translate(321.363992 536.958281)scale(0.11 -0.11)">
       <use transform="translate(0 0.78125)" xlink:href="#DejaVuSans-48"/>
      </g>
     </g>
    </g>
    <g id="xtick_16">
     <g id="line2d_30">
      <g>
       <use style="stroke:#000000;stroke-width:0.8;" x="417.077538" xlink:href="#m7169a38d7f" y="525.1"/>
      </g>
     </g>
     <g id="text_14">
      <!-- $\mathdefault{1}$ -->
      <g transform="translate(413.557538 536.958281)scale(0.11 -0.11)">
       <use transform="translate(0 0.09375)" xlink:href="#DejaVuSans-49"/>
      </g>
     </g>
    </g>
    <g id="xtick_17">
     <g id="line2d_31">
      <g>
       <use style="stroke:#000000;stroke-width:0.8;" x="509.271084" xlink:href="#m7169a38d7f" y="525.1"/>
      </g>
     </g>
     <g id="text_15">
      <!-- $\mathdefault{2}$ -->
      <g transform="translate(505.751084 536.958281)scale(0.11 -0.11)">
       <use transform="translate(0 0.78125)" xlink:href="#DejaVuSans-50"/>
      </g>
     </g>
    </g>
    <g id="text_16">
     <!-- Kunz -->
     <g transform="translate(412.154062 557.245937)scale(0.14 -0.14)">
      <use xlink:href="#DejaVuSans-75"/>
      <use x="60.576172" xlink:href="#DejaVuSans-117"/>
      <use x="123.955078" xlink:href="#DejaVuSans-110"/>
      <use x="187.333984" xlink:href="#DejaVuSans-122"/>
     </g>
    </g>
   </g>
   <g id="matplotlib.axis_6">
    <g id="ytick_9"/>
    <g id="ytick_10"/>
    <g id="ytick_11"/>
    <g id="ytick_12"/>
    <g id="ytick_13"/>
   </g>
   <g id="line2d_32">
    <path clip-path="url(#p236255be64)" d="M 297.64679 524.757053 
L 301.03304 524.426966 
L 302.572244 524.146051 
L 305.034972 523.619978 
L 307.189858 522.935787 
L 308.729062 522.310275 
L 310.268267 521.4455 
L 312.115312 520.242117 
L 313.962358 518.694779 
L 315.809403 516.810405 
L 317.656449 514.449722 
L 319.195653 512.070072 
L 321.042699 508.747099 
L 322.889744 504.772924 
L 324.428949 500.974091 
L 326.275994 495.663349 
L 327.815199 490.665212 
L 329.970085 482.695591 
L 332.124972 473.537148 
L 334.279858 463.446259 
L 336.434744 452.324468 
L 339.513153 434.790181 
L 342.283722 418.137684 
L 349.979744 369.640829 
L 353.058153 351.731783 
L 355.828722 336.787045 
L 358.907131 322.444189 
L 361.062017 314.164227 
L 363.524744 306.001083 
L 365.063949 301.681187 
L 366.910994 297.548462 
L 368.450199 294.68181 
L 370.605085 291.916866 
L 372.759972 290.207176 
L 373.991335 289.674956 
L 375.838381 289.476706 
L 376.761903 289.599847 
L 379.224631 290.709906 
L 381.071676 292.101341 
L 382.918722 293.825662 
L 386.304972 297.760569 
L 393.077472 307.358227 
L 393.385312 308.217144 
L 397.079403 313.651016 
L 399.849972 317.81171 
L 400.157812 319.161991 
L 400.465653 319.527936 
L 400.773494 320.162831 
L 401.389176 320.928196 
L 402.004858 321.832266 
L 403.236222 323.120976 
L 404.159744 324.339549 
L 404.467585 325.043928 
L 405.083267 325.666576 
L 405.391108 326.092184 
L 405.698949 329.322231 
L 406.314631 329.883198 
L 406.622472 330.580701 
L 406.930312 330.867907 
L 407.238153 331.546236 
L 408.161676 332.260385 
L 408.777358 332.646826 
L 409.700881 333.437687 
L 410.932244 334.36753 
L 412.77929 335.861802 
L 414.010653 336.834162 
L 414.318494 337.659773 
L 415.549858 338.772298 
L 417.396903 340.187778 
L 418.936108 341.476697 
L 421.706676 343.730969 
L 422.014517 344.431613 
L 425.400767 347.276762 
L 426.32429 348.00581 
L 428.787017 349.900002 
L 429.402699 350.452589 
L 430.018381 350.820372 
L 430.941903 351.652457 
L 431.865426 352.446796 
L 432.481108 352.982605 
L 436.48304 356.434333 
L 439.253608 359.325648 
L 439.86929 359.753431 
L 440.792812 360.579601 
L 441.408494 361.385975 
L 442.024176 361.672982 
L 442.639858 362.413573 
L 442.947699 362.622909 
L 445.102585 365.299902 
L 446.64179 366.991917 
L 446.949631 367.199152 
L 447.873153 368.326657 
L 448.796676 369.362637 
L 450.02804 370.991077 
L 453.41429 375.595628 
L 453.722131 375.459015 
L 454.953494 377.128724 
L 457.108381 380.540079 
L 457.416222 380.767872 
L 459.878949 384.574878 
L 462.033835 388.193762 
L 462.341676 387.109087 
L 466.651449 393.394231 
L 471.884744 402.080673 
L 473.73179 405.029626 
L 476.194517 409.293458 
L 490.047358 434.810798 
L 500.206108 455.315121 
L 501.745312 458.574615 
L 517.137358 491.093973 
L 521.13929 498.437239 
L 522.986335 501.650162 
L 526.680426 507.349091 
L 528.219631 509.441098 
L 530.990199 512.768077 
L 532.529403 514.367215 
L 535.299972 516.93163 
L 537.454858 518.575735 
L 540.225426 520.320857 
L 542.380312 521.396413 
L 543.919517 522.056056 
L 546.382244 522.894765 
L 548.844972 523.544766 
L 552.539062 524.205649 
L 556.233153 524.623785 
L 560.235085 524.864933 
L 560.235085 524.864933 
" style="fill:none;stroke:#e41a1c;stroke-linecap:square;stroke-width:1.142857;"/>
   </g>
   <g id="patch_13">
    <path d="M 297.72375 525.1 
L 297.72375 266.15 
" style="fill:none;stroke:#000000;stroke-linecap:square;stroke-linejoin:miter;stroke-width:0.8;"/>
   </g>
   <g id="patch_14">
    <path d="M 560.158125 525.1 
L 560.158125 266.15 
" style="fill:none;stroke:#000000;stroke-linecap:square;stroke-linejoin:miter;stroke-width:0.8;"/>
   </g>
   <g id="patch_15">
    <path d="M 297.72375 525.1 
L 560.158125 525.1 
" style="fill:none;stroke:#000000;stroke-linecap:square;stroke-linejoin:miter;stroke-width:0.8;"/>
   </g>
   <g id="patch_16">
    <path d="M 297.72375 266.15 
L 560.158125 266.15 
" style="fill:none;stroke:#000000;stroke-linecap:square;stroke-linejoin:miter;stroke-width:0.8;"/>
   </g>
  </g>
 </g>
 <defs>
  <clipPath id="p513b46d1c1">
   <rect height="258.95" width="262.434375" x="35.289375" y="266.15"/>
  </clipPath>
  <clipPath id="pa90d3d17b3">
   <rect height="258.95" width="262.434375" x="35.289375" y="7.2"/>
  </clipPath>
  <clipPath id="p236255be64">
   <rect height="258.95" width="262.434375" x="297.72375" y="266.15"/>
  </clipPath>
 </defs>
</svg>
