<?xml version="1.0" encoding="utf-8" standalone="no"?>
<!DOCTYPE svg PUBLIC "-//W3C//DTD SVG 1.1//EN"
  "http://www.w3.org/Graphics/SVG/1.1/DTD/svg11.dtd">
<!-- Created with matplotlib (https://matplotlib.org/) -->
<svg height="319.536641pt" version="1.1" viewBox="0 0 432.158125 319.536641" width="432.158125pt" xmlns="http://www.w3.org/2000/svg" xmlns:xlink="http://www.w3.org/1999/xlink">
 <metadata>
  <rdf:RDF xmlns:cc="http://creativecommons.org/ns#" xmlns:dc="http://purl.org/dc/elements/1.1/" xmlns:rdf="http://www.w3.org/1999/02/22-rdf-syntax-ns#">
   <cc:Work>
    <dc:type rdf:resource="http://purl.org/dc/dcmitype/StillImage"/>
    <dc:date>2021-02-04T13:44:32.217112</dc:date>
    <dc:format>image/svg+xml</dc:format>
    <dc:creator>
     <cc:Agent>
      <dc:title>Matplotlib v3.3.2, https://matplotlib.org/</dc:title>
     </cc:Agent>
    </dc:creator>
   </cc:Work>
  </rdf:RDF>
 </metadata>
 <defs>
  <style type="text/css">*{stroke-linecap:butt;stroke-linejoin:round;}</style>
 </defs>
 <g id="figure_1">
  <g id="patch_1">
   <path d="M 0 319.536641 
L 432.158125 319.536641 
L 432.158125 0 
L 0 0 
z
" style="fill:#ffffff;"/>
  </g>
  <g id="axes_1">
   <g id="patch_2">
    <path d="M 38.789375 273.779141 
L 416.158125 273.779141 
L 416.158125 11.379141 
L 38.789375 11.379141 
z
" style="fill:#ffffff;"/>
   </g>
   <g id="matplotlib.axis_1">
    <g id="xtick_1">
     <g id="line2d_1">
      <defs>
       <path d="M 0 0 
L 0 3.5 
" id="mab88f3b0f4" style="stroke:#000000;stroke-width:0.8;"/>
      </defs>
      <g>
       <use style="stroke:#000000;stroke-width:0.8;" x="38.789375" xlink:href="#mab88f3b0f4" y="273.779141"/>
      </g>
     </g>
     <g id="text_1">
      <!-- $\mathdefault{−0.5}$ -->
      <g transform="translate(25.424375 289.137422)scale(0.11 -0.11)">
       <defs>
        <path d="M 10.59375 35.5 
L 73.1875 35.5 
L 73.1875 27.203125 
L 10.59375 27.203125 
z
" id="DejaVuSans-8722"/>
        <path d="M 31.78125 66.40625 
Q 24.171875 66.40625 20.328125 58.90625 
Q 16.5 51.421875 16.5 36.375 
Q 16.5 21.390625 20.328125 13.890625 
Q 24.171875 6.390625 31.78125 6.390625 
Q 39.453125 6.390625 43.28125 13.890625 
Q 47.125 21.390625 47.125 36.375 
Q 47.125 51.421875 43.28125 58.90625 
Q 39.453125 66.40625 31.78125 66.40625 
z
M 31.78125 74.21875 
Q 44.046875 74.21875 50.515625 64.515625 
Q 56.984375 54.828125 56.984375 36.375 
Q 56.984375 17.96875 50.515625 8.265625 
Q 44.046875 -1.421875 31.78125 -1.421875 
Q 19.53125 -1.421875 13.0625 8.265625 
Q 6.59375 17.96875 6.59375 36.375 
Q 6.59375 54.828125 13.0625 64.515625 
Q 19.53125 74.21875 31.78125 74.21875 
z
" id="DejaVuSans-48"/>
        <path d="M 10.6875 12.40625 
L 21 12.40625 
L 21 0 
L 10.6875 0 
z
" id="DejaVuSans-46"/>
        <path d="M 10.796875 72.90625 
L 49.515625 72.90625 
L 49.515625 64.59375 
L 19.828125 64.59375 
L 19.828125 46.734375 
Q 21.96875 47.46875 24.109375 47.828125 
Q 26.265625 48.1875 28.421875 48.1875 
Q 40.625 48.1875 47.75 41.5 
Q 54.890625 34.8125 54.890625 23.390625 
Q 54.890625 11.625 47.5625 5.09375 
Q 40.234375 -1.421875 26.90625 -1.421875 
Q 22.3125 -1.421875 17.546875 -0.640625 
Q 12.796875 0.140625 7.71875 1.703125 
L 7.71875 11.625 
Q 12.109375 9.234375 16.796875 8.0625 
Q 21.484375 6.890625 26.703125 6.890625 
Q 35.15625 6.890625 40.078125 11.328125 
Q 45.015625 15.765625 45.015625 23.390625 
Q 45.015625 31 40.078125 35.4375 
Q 35.15625 39.890625 26.703125 39.890625 
Q 22.75 39.890625 18.8125 39.015625 
Q 14.890625 38.140625 10.796875 36.28125 
z
" id="DejaVuSans-53"/>
       </defs>
       <use transform="translate(0 0.78125)" xlink:href="#DejaVuSans-8722"/>
       <use transform="translate(83.789062 0.78125)" xlink:href="#DejaVuSans-48"/>
       <use transform="translate(147.412109 0.78125)" xlink:href="#DejaVuSans-46"/>
       <use transform="translate(179.199219 0.78125)" xlink:href="#DejaVuSans-53"/>
      </g>
     </g>
    </g>
    <g id="xtick_2">
     <g id="line2d_2">
      <g>
       <use style="stroke:#000000;stroke-width:0.8;" x="114.263125" xlink:href="#mab88f3b0f4" y="273.779141"/>
      </g>
     </g>
     <g id="text_2">
      <!-- $\mathdefault{0.0}$ -->
      <g transform="translate(105.463125 289.137422)scale(0.11 -0.11)">
       <use transform="translate(0 0.78125)" xlink:href="#DejaVuSans-48"/>
       <use transform="translate(63.623047 0.78125)" xlink:href="#DejaVuSans-46"/>
       <use transform="translate(95.410156 0.78125)" xlink:href="#DejaVuSans-48"/>
      </g>
     </g>
    </g>
    <g id="xtick_3">
     <g id="line2d_3">
      <g>
       <use style="stroke:#000000;stroke-width:0.8;" x="189.736875" xlink:href="#mab88f3b0f4" y="273.779141"/>
      </g>
     </g>
     <g id="text_3">
      <!-- $\mathdefault{0.5}$ -->
      <g transform="translate(180.936875 289.137422)scale(0.11 -0.11)">
       <use transform="translate(0 0.78125)" xlink:href="#DejaVuSans-48"/>
       <use transform="translate(63.623047 0.78125)" xlink:href="#DejaVuSans-46"/>
       <use transform="translate(95.410156 0.78125)" xlink:href="#DejaVuSans-53"/>
      </g>
     </g>
    </g>
    <g id="xtick_4">
     <g id="line2d_4">
      <g>
       <use style="stroke:#000000;stroke-width:0.8;" x="265.210625" xlink:href="#mab88f3b0f4" y="273.779141"/>
      </g>
     </g>
     <g id="text_4">
      <!-- $\mathdefault{1.0}$ -->
      <g transform="translate(256.410625 289.137422)scale(0.11 -0.11)">
       <defs>
        <path d="M 12.40625 8.296875 
L 28.515625 8.296875 
L 28.515625 63.921875 
L 10.984375 60.40625 
L 10.984375 69.390625 
L 28.421875 72.90625 
L 38.28125 72.90625 
L 38.28125 8.296875 
L 54.390625 8.296875 
L 54.390625 0 
L 12.40625 0 
z
" id="DejaVuSans-49"/>
       </defs>
       <use transform="translate(0 0.78125)" xlink:href="#DejaVuSans-49"/>
       <use transform="translate(63.623047 0.78125)" xlink:href="#DejaVuSans-46"/>
       <use transform="translate(95.410156 0.78125)" xlink:href="#DejaVuSans-48"/>
      </g>
     </g>
    </g>
    <g id="xtick_5">
     <g id="line2d_5">
      <g>
       <use style="stroke:#000000;stroke-width:0.8;" x="340.684375" xlink:href="#mab88f3b0f4" y="273.779141"/>
      </g>
     </g>
     <g id="text_5">
      <!-- $\mathdefault{1.5}$ -->
      <g transform="translate(331.884375 289.137422)scale(0.11 -0.11)">
       <use transform="translate(0 0.09375)" xlink:href="#DejaVuSans-49"/>
       <use transform="translate(63.623047 0.09375)" xlink:href="#DejaVuSans-46"/>
       <use transform="translate(95.410156 0.09375)" xlink:href="#DejaVuSans-53"/>
      </g>
     </g>
    </g>
    <g id="xtick_6">
     <g id="line2d_6">
      <g>
       <use style="stroke:#000000;stroke-width:0.8;" x="416.158125" xlink:href="#mab88f3b0f4" y="273.779141"/>
      </g>
     </g>
     <g id="text_6">
      <!-- $\mathdefault{2.0}$ -->
      <g transform="translate(407.358125 289.137422)scale(0.11 -0.11)">
       <defs>
        <path d="M 19.1875 8.296875 
L 53.609375 8.296875 
L 53.609375 0 
L 7.328125 0 
L 7.328125 8.296875 
Q 12.9375 14.109375 22.625 23.890625 
Q 32.328125 33.6875 34.8125 36.53125 
Q 39.546875 41.84375 41.421875 45.53125 
Q 43.3125 49.21875 43.3125 52.78125 
Q 43.3125 58.59375 39.234375 62.25 
Q 35.15625 65.921875 28.609375 65.921875 
Q 23.96875 65.921875 18.8125 64.3125 
Q 13.671875 62.703125 7.8125 59.421875 
L 7.8125 69.390625 
Q 13.765625 71.78125 18.9375 73 
Q 24.125 74.21875 28.421875 74.21875 
Q 39.75 74.21875 46.484375 68.546875 
Q 53.21875 62.890625 53.21875 53.421875 
Q 53.21875 48.921875 51.53125 44.890625 
Q 49.859375 40.875 45.40625 35.40625 
Q 44.1875 33.984375 37.640625 27.21875 
Q 31.109375 20.453125 19.1875 8.296875 
z
" id="DejaVuSans-50"/>
       </defs>
       <use transform="translate(0 0.78125)" xlink:href="#DejaVuSans-50"/>
       <use transform="translate(63.623047 0.78125)" xlink:href="#DejaVuSans-46"/>
       <use transform="translate(95.410156 0.78125)" xlink:href="#DejaVuSans-48"/>
      </g>
     </g>
    </g>
    <g id="text_7">
     <!-- Hinz -->
     <g transform="translate(212.154687 309.425078)scale(0.14 -0.14)">
      <defs>
       <path d="M 9.8125 72.90625 
L 19.671875 72.90625 
L 19.671875 43.015625 
L 55.515625 43.015625 
L 55.515625 72.90625 
L 65.375 72.90625 
L 65.375 0 
L 55.515625 0 
L 55.515625 34.71875 
L 19.671875 34.71875 
L 19.671875 0 
L 9.8125 0 
z
" id="DejaVuSans-72"/>
       <path d="M 9.421875 54.6875 
L 18.40625 54.6875 
L 18.40625 0 
L 9.421875 0 
z
M 9.421875 75.984375 
L 18.40625 75.984375 
L 18.40625 64.59375 
L 9.421875 64.59375 
z
" id="DejaVuSans-105"/>
       <path d="M 54.890625 33.015625 
L 54.890625 0 
L 45.90625 0 
L 45.90625 32.71875 
Q 45.90625 40.484375 42.875 44.328125 
Q 39.84375 48.1875 33.796875 48.1875 
Q 26.515625 48.1875 22.3125 43.546875 
Q 18.109375 38.921875 18.109375 30.90625 
L 18.109375 0 
L 9.078125 0 
L 9.078125 54.6875 
L 18.109375 54.6875 
L 18.109375 46.1875 
Q 21.34375 51.125 25.703125 53.5625 
Q 30.078125 56 35.796875 56 
Q 45.21875 56 50.046875 50.171875 
Q 54.890625 44.34375 54.890625 33.015625 
z
" id="DejaVuSans-110"/>
       <path d="M 5.515625 54.6875 
L 48.1875 54.6875 
L 48.1875 46.484375 
L 14.40625 7.171875 
L 48.1875 7.171875 
L 48.1875 0 
L 4.296875 0 
L 4.296875 8.203125 
L 38.09375 47.515625 
L 5.515625 47.515625 
z
" id="DejaVuSans-122"/>
      </defs>
      <use xlink:href="#DejaVuSans-72"/>
      <use x="75.195312" xlink:href="#DejaVuSans-105"/>
      <use x="102.978516" xlink:href="#DejaVuSans-110"/>
      <use x="166.357422" xlink:href="#DejaVuSans-122"/>
     </g>
    </g>
   </g>
   <g id="matplotlib.axis_2">
    <g id="ytick_1">
     <g id="line2d_7">
      <defs>
       <path d="M 0 0 
L -3.5 0 
" id="m5e6709f89b" style="stroke:#000000;stroke-width:0.8;"/>
      </defs>
      <g>
       <use style="stroke:#000000;stroke-width:0.8;" x="38.789375" xlink:href="#m5e6709f89b" y="244.623585"/>
      </g>
     </g>
     <g id="text_8">
      <!-- $\mathdefault{0}$ -->
      <g transform="translate(24.749375 248.802726)scale(0.11 -0.11)">
       <use transform="translate(0 0.78125)" xlink:href="#DejaVuSans-48"/>
      </g>
     </g>
    </g>
    <g id="ytick_2">
     <g id="line2d_8">
      <g>
       <use style="stroke:#000000;stroke-width:0.8;" x="38.789375" xlink:href="#m5e6709f89b" y="186.312474"/>
      </g>
     </g>
     <g id="text_9">
      <!-- $\mathdefault{1}$ -->
      <g transform="translate(24.749375 190.491615)scale(0.11 -0.11)">
       <use transform="translate(0 0.09375)" xlink:href="#DejaVuSans-49"/>
      </g>
     </g>
    </g>
    <g id="ytick_3">
     <g id="line2d_9">
      <g>
       <use style="stroke:#000000;stroke-width:0.8;" x="38.789375" xlink:href="#m5e6709f89b" y="128.001363"/>
      </g>
     </g>
     <g id="text_10">
      <!-- $\mathdefault{2}$ -->
      <g transform="translate(24.749375 132.180503)scale(0.11 -0.11)">
       <use transform="translate(0 0.78125)" xlink:href="#DejaVuSans-50"/>
      </g>
     </g>
    </g>
    <g id="ytick_4">
     <g id="line2d_10">
      <g>
       <use style="stroke:#000000;stroke-width:0.8;" x="38.789375" xlink:href="#m5e6709f89b" y="69.690252"/>
      </g>
     </g>
     <g id="text_11">
      <!-- $\mathdefault{3}$ -->
      <g transform="translate(24.749375 73.869392)scale(0.11 -0.11)">
       <defs>
        <path d="M 40.578125 39.3125 
Q 47.65625 37.796875 51.625 33 
Q 55.609375 28.21875 55.609375 21.1875 
Q 55.609375 10.40625 48.1875 4.484375 
Q 40.765625 -1.421875 27.09375 -1.421875 
Q 22.515625 -1.421875 17.65625 -0.515625 
Q 12.796875 0.390625 7.625 2.203125 
L 7.625 11.71875 
Q 11.71875 9.328125 16.59375 8.109375 
Q 21.484375 6.890625 26.8125 6.890625 
Q 36.078125 6.890625 40.9375 10.546875 
Q 45.796875 14.203125 45.796875 21.1875 
Q 45.796875 27.640625 41.28125 31.265625 
Q 36.765625 34.90625 28.71875 34.90625 
L 20.21875 34.90625 
L 20.21875 43.015625 
L 29.109375 43.015625 
Q 36.375 43.015625 40.234375 45.921875 
Q 44.09375 48.828125 44.09375 54.296875 
Q 44.09375 59.90625 40.109375 62.90625 
Q 36.140625 65.921875 28.71875 65.921875 
Q 24.65625 65.921875 20.015625 65.03125 
Q 15.375 64.15625 9.8125 62.3125 
L 9.8125 71.09375 
Q 15.4375 72.65625 20.34375 73.4375 
Q 25.25 74.21875 29.59375 74.21875 
Q 40.828125 74.21875 47.359375 69.109375 
Q 53.90625 64.015625 53.90625 55.328125 
Q 53.90625 49.265625 50.4375 45.09375 
Q 46.96875 40.921875 40.578125 39.3125 
z
" id="DejaVuSans-51"/>
       </defs>
       <use transform="translate(0 0.78125)" xlink:href="#DejaVuSans-51"/>
      </g>
     </g>
    </g>
    <g id="ytick_5">
     <g id="line2d_11">
      <g>
       <use style="stroke:#000000;stroke-width:0.8;" x="38.789375" xlink:href="#m5e6709f89b" y="11.379141"/>
      </g>
     </g>
     <g id="text_12">
      <!-- $\mathdefault{4}$ -->
      <g transform="translate(24.749375 15.558281)scale(0.11 -0.11)">
       <defs>
        <path d="M 37.796875 64.3125 
L 12.890625 25.390625 
L 37.796875 25.390625 
z
M 35.203125 72.90625 
L 47.609375 72.90625 
L 47.609375 25.390625 
L 58.015625 25.390625 
L 58.015625 17.1875 
L 47.609375 17.1875 
L 47.609375 0 
L 37.796875 0 
L 37.796875 17.1875 
L 4.890625 17.1875 
L 4.890625 26.703125 
z
" id="DejaVuSans-52"/>
       </defs>
       <use transform="translate(0 0.09375)" xlink:href="#DejaVuSans-52"/>
      </g>
     </g>
    </g>
    <g id="text_13">
     <!-- Kunz -->
     <g transform="translate(17.837813 159.366016)rotate(-90)scale(0.14 -0.14)">
      <defs>
       <path d="M 9.8125 72.90625 
L 19.671875 72.90625 
L 19.671875 42.09375 
L 52.390625 72.90625 
L 65.09375 72.90625 
L 28.90625 38.921875 
L 67.671875 0 
L 54.6875 0 
L 19.671875 35.109375 
L 19.671875 0 
L 9.8125 0 
z
" id="DejaVuSans-75"/>
       <path d="M 8.5 21.578125 
L 8.5 54.6875 
L 17.484375 54.6875 
L 17.484375 21.921875 
Q 17.484375 14.15625 20.5 10.265625 
Q 23.53125 6.390625 29.59375 6.390625 
Q 36.859375 6.390625 41.078125 11.03125 
Q 45.3125 15.671875 45.3125 23.6875 
L 45.3125 54.6875 
L 54.296875 54.6875 
L 54.296875 0 
L 45.3125 0 
L 45.3125 8.40625 
Q 42.046875 3.421875 37.71875 1 
Q 33.40625 -1.421875 27.6875 -1.421875 
Q 18.265625 -1.421875 13.375 4.4375 
Q 8.5 10.296875 8.5 21.578125 
z
M 31.109375 56 
z
" id="DejaVuSans-117"/>
      </defs>
      <use xlink:href="#DejaVuSans-75"/>
      <use x="60.576172" xlink:href="#DejaVuSans-117"/>
      <use x="123.955078" xlink:href="#DejaVuSans-110"/>
      <use x="187.333984" xlink:href="#DejaVuSans-122"/>
     </g>
    </g>
   </g>
   <g id="LineCollection_1">
    <path clip-path="url(#p69df10d15f)" d="M 144.664503 247.13753 
L 146.529564 246.181365 
L 148.890499 244.656758 
L 149.242665 244.475331 
L 150.090549 244.078338 
L 151.003497 243.523238 
L 151.348045 243.610998 
L 150.682159 244.312007 
L 151.164779 244.312007 
L 153.820827 243.287357 
L 154.01582 243.377328 
L 153.858606 243.844668 
L 152.710114 245.480356 
L 152.764328 245.634767 
L 153.116494 245.658035 
L 154.172993 245.296615 
L 154.93586 245.013017 
L 155.581658 244.777403 
L 162.624984 241.479401 
L 162.944579 241.50797 
L 162.450932 242.20898 
L 161.330716 243.610998 
L 161.310642 243.844668 
L 161.71136 244.078338 
L 162.272818 244.146646 
L 162.97715 243.978273 
L 164.737982 243.219987 
L 169.746841 240.806961 
L 171.781308 240.038809 
L 172.020816 240.105952 
L 171.896515 241.040631 
L 172.133474 241.12037 
L 173.189973 240.941469 
L 175.131837 240.339622 
L 176.820341 239.638613 
L 178.472467 239.005244 
L 180.937631 238.258552 
L 188.333123 234.933283 
L 189.069406 234.731548 
L 189.165412 234.965218 
L 188.685289 235.58723 
L 188.276476 236.133566 
L 188.333123 236.375258 
L 188.353971 236.367236 
L 189.741788 235.782045 
L 193.97689 233.32953 
L 198.193779 230.946435 
L 198.898112 230.682752 
L 199.007807 230.759162 
L 198.732455 231.226502 
L 198.437264 231.693841 
L 198.545945 231.821564 
L 199.250278 231.633732 
L 201.142671 230.759162 
L 204.180606 229.273394 
L 206.64577 228.181672 
L 210.167433 226.670975 
L 216.201288 223.5154 
L 218.97159 222.062073 
L 219.380096 222.113382 
L 219.323756 222.603052 
L 220.028089 222.504756 
L 221.436754 221.805958 
L 224.254084 220.017544 
L 234.819073 212.660929 
L 238.340736 210.142951 
L 242.918898 207.031058 
L 244.679729 206.116518 
L 245.777212 206.22384 
L 250.31986 203.887142 
L 253.483886 202.064064 
L 256.034451 200.382096 
L 258.438837 198.512738 
L 260.957727 196.176041 
L 262.848162 194.540353 
L 265.899563 192.203655 
L 272.247902 187.296591 
L 282.361522 178.782799 
L 284.978831 176.547783 
L 286.939684 174.603369 
L 289.404848 172.245183 
L 292.296081 169.53769 
L 294.375969 167.668332 
L 297.872736 164.630626 
L 303.845877 158.321543 
L 309.478326 152.92232 
L 311.591324 150.517734 
L 313.835183 148.273744 
L 314.510781 147.339065 
L 315.112987 146.141809 
L 316.661248 144.768698 
L 319.691149 142.366326 
L 321.812539 140.562643 
L 322.579659 139.627964 
L 323.299632 138.459615 
L 326.560956 134.25356 
L 330.608303 130.402869 
L 331.477104 129.112825 
L 331.691157 128.645486 
L 331.814244 127.710807 
L 332.404344 126.776128 
L 333.425634 125.589114 
L 337.299463 122.492617 
L 338.89975 121.168054 
L 340.001945 119.999705 
L 340.116793 119.755797 
L 339.764627 119.641444 
L 338.673481 119.999705 
L 336.947297 120.831574 
L 330.608303 124.635137 
L 323.917144 129.147457 
L 318.701509 132.851541 
L 314.73287 135.889248 
L 312.572032 137.758606 
L 310.482356 139.861633 
L 307.648498 142.66567 
L 305.335869 145.002368 
L 304.547998 146.430997 
L 302.787167 148.438387 
L 300.921401 150.143102 
L 296.448174 153.821173 
L 295.108269 155.050167 
L 294.75311 155.517506 
L 294.760628 155.751176 
L 294.96805 155.984845 
L 294.851752 156.452185 
L 294.335176 157.20638 
L 293.244801 158.321543 
L 291.413083 159.723561 
L 280.073006 167.902002 
L 274.107012 172.575397 
L 272.684428 173.977415 
L 271.038832 175.613104 
L 267.476368 178.417141 
L 264.048875 180.781283 
L 258.73078 184.492554 
L 255.025578 187.53026 
L 252.779554 189.49567 
L 249.842807 191.736316 
L 243.62323 195.976728 
L 236.969101 200.148426 
L 228.127914 205.584704 
L 222.493253 209.302951 
L 220.028089 210.665706 
L 217.210759 211.851603 
L 214.745595 212.84126 
L 211.223932 214.669382 
L 204.180606 218.488674 
L 203.124107 218.698889 
L 201.763091 219.309345 
L 199.954611 220.267083 
L 190.798287 225.371563 
L 188.685289 226.074327 
L 182.346296 229.415985 
L 182.191872 229.357144 
L 182.593883 228.889804 
L 184.689652 226.786777 
L 184.792309 226.553107 
L 184.459294 226.358533 
L 183.402795 226.683818 
L 180.585465 227.910828 
L 180.428681 227.721456 
L 180.487596 227.487786 
L 180.233299 227.229159 
L 178.81551 227.721456 
L 173.356952 230.291823 
L 171.076975 231.56236 
L 165.312832 235.198887 
L 160.712105 238.236594 
L 158.046822 239.903663 
L 156.638157 240.645424 
L 155.551756 241.040631 
L 155.581658 240.996392 
L 155.623924 240.806961 
L 157.34249 239.610797 
L 163.681483 235.190471 
L 166.174251 233.09586 
L 166.474851 232.62852 
L 166.146647 232.430056 
L 164.737982 232.295944 
L 163.681483 232.679145 
L 161.513721 233.796869 
L 159.455488 235.005467 
L 154.877326 238.033709 
L 152.412162 239.883146 
L 150.796133 241.274301 
L 148.022039 244.078338 
L 146.777056 245.013017 
L 146.646903 245.246686 
L 144.7879 246.648705 
L 144.401094 247.116044 
L 144.664503 247.13753 
L 144.664503 247.13753 
" style="fill:none;stroke:#000000;stroke-width:1.714286;"/>
    <path clip-path="url(#p69df10d15f)" d="M 151.355663 243.603428 
L 151.255554 243.377328 
L 151.355663 243.315709 
L 151.555691 243.377328 
L 151.355663 243.603428 
" style="fill:none;stroke:#000000;stroke-width:1.714286;"/>
    <path clip-path="url(#p69df10d15f)" d="M 151.707829 243.238808 
L 151.652321 243.143659 
L 151.707829 243.110432 
L 151.796233 243.143659 
L 151.707829 243.238808 
" style="fill:none;stroke:#000000;stroke-width:1.714286;"/>
    <path clip-path="url(#p69df10d15f)" d="M 165.442314 237.538474 
L 165.436082 237.535585 
L 165.442314 237.528666 
L 165.447312 237.535585 
L 165.442314 237.538474 
" style="fill:none;stroke:#000000;stroke-width:1.714286;"/>
    <path clip-path="url(#p69df10d15f)" d="M 165.794481 237.351069 
L 165.667389 237.301915 
L 165.794481 237.14305 
L 165.878768 237.301915 
L 165.794481 237.351069 
" style="fill:none;stroke:#000000;stroke-width:1.714286;"/>
    <path clip-path="url(#p69df10d15f)" d="M 166.146647 237.160557 
L 165.859604 237.068245 
L 166.12498 236.834576 
L 166.146647 236.820588 
L 166.474982 236.600906 
L 166.498813 236.583732 
L 166.786894 236.367236 
L 166.85098 236.315519 
L 167.097355 236.133566 
L 167.203146 236.060601 
L 167.436497 235.899897 
L 167.555312 235.818566 
L 167.779408 235.666227 
L 167.907478 235.579416 
L 168.124462 235.432557 
L 168.259645 235.341419 
L 168.472025 235.198887 
L 168.611811 235.105318 
L 168.822333 234.965218 
L 168.963977 234.871052 
L 169.175352 234.731548 
L 169.316144 234.638556 
L 169.531039 234.497878 
L 169.66831 234.407762 
L 169.885619 234.264208 
L 170.020476 234.172413 
L 170.241685 234.030539 
L 170.372642 233.946171 
L 170.606963 233.796869 
L 170.724809 233.721208 
L 170.954709 233.563199 
L 171.076975 233.477088 
L 171.315215 233.32953 
L 171.429141 233.258081 
L 171.692049 233.09586 
L 171.781308 233.039834 
L 172.070163 232.86219 
L 172.133474 232.82239 
L 172.417902 232.62852 
L 172.48564 232.580165 
L 172.790936 232.394851 
L 172.837806 232.36589 
L 173.178548 232.161181 
L 173.189973 232.154065 
L 173.542139 232.032825 
L 173.753998 231.927511 
L 173.894305 231.858611 
L 174.169168 231.927511 
L 173.910255 232.161181 
L 173.894305 232.171812 
L 173.588695 232.394851 
L 173.542139 232.428716 
L 173.291955 232.62852 
L 173.189973 232.693019 
L 172.945727 232.86219 
L 172.837806 232.930507 
L 172.598237 233.09586 
L 172.48564 233.167161 
L 172.224508 233.32953 
L 172.133474 233.382639 
L 171.865642 233.563199 
L 171.781308 233.615895 
L 171.511674 233.796869 
L 171.429141 233.848463 
L 171.156795 234.030539 
L 171.076975 234.080494 
L 170.781293 234.264208 
L 170.724809 234.297583 
L 170.419631 234.497878 
L 170.372642 234.527092 
L 170.061149 234.731548 
L 170.020476 234.757116 
L 169.70243 234.965218 
L 169.66831 234.986848 
L 169.341796 235.198887 
L 169.316144 235.21493 
L 168.980576 235.432557 
L 168.963977 235.443 
L 168.619486 235.666227 
L 168.611811 235.671088 
L 168.259645 235.898263 
L 168.25707 235.899897 
L 167.907478 236.118853 
L 167.884414 236.133566 
L 167.555312 236.346577 
L 167.518169 236.367236 
L 167.203146 236.541132 
L 167.103775 236.600906 
L 166.85098 236.76152 
L 166.727281 236.834576 
L 166.498813 236.964391 
L 166.313886 237.068245 
L 166.146647 237.160557 
" style="fill:none;stroke:#000000;stroke-width:1.714286;"/>
    <path clip-path="url(#p69df10d15f)" d="M 174.246472 231.785754 
L 174.221521 231.693841 
L 174.246472 231.681317 
L 174.31261 231.693841 
L 174.246472 231.785754 
" style="fill:none;stroke:#000000;stroke-width:1.714286;"/>
   </g>
   <g id="LineCollection_2">
    <path clip-path="url(#p69df10d15f)" d="M 153.468661 240.277677 
L 153.820827 240.176759 
L 153.989811 240.105952 
L 154.172993 240.0394 
L 154.525159 239.886272 
L 154.554616 239.872282 
L 154.877326 239.733399 
L 155.074322 239.638613 
L 155.229492 239.57001 
L 155.568168 239.404943 
L 155.581658 239.398818 
L 155.933825 239.239945 
L 156.078714 239.171273 
L 156.285991 239.077389 
L 156.578933 238.937603 
L 156.638157 238.910277 
L 156.990324 238.744846 
L 157.074438 238.703934 
L 157.34249 238.577843 
L 157.560178 238.470264 
L 157.694656 238.40534 
L 158.02917 238.236594 
L 158.046822 238.227802 
L 158.398989 238.039921 
L 158.463712 238.002924 
L 158.751155 237.843777 
L 158.878519 237.769255 
L 159.103321 237.6406 
L 159.251821 237.535585 
L 159.455488 237.386485 
L 159.597327 237.301915 
L 159.807654 237.177784 
L 159.985173 237.068245 
L 160.15982 236.960244 
L 160.356557 236.834576 
L 160.511986 236.733844 
L 160.712936 236.600906 
L 160.864153 236.498154 
L 161.05511 236.367236 
L 161.216319 236.252314 
L 161.383317 236.133566 
L 161.568485 235.99497 
L 161.697275 235.899897 
L 161.920652 235.724182 
L 161.996192 235.666227 
L 162.272818 235.437282 
L 162.278736 235.432557 
L 162.491217 235.198887 
L 162.624984 235.002723 
L 162.651803 234.965218 
L 162.647996 234.731548 
L 162.624984 234.650397 
L 162.600195 234.497878 
L 162.598369 234.264208 
L 162.272818 234.077069 
L 161.920652 234.169639 
L 161.676916 234.264208 
L 161.568485 234.302479 
L 161.216319 234.458995 
L 161.143923 234.497878 
L 160.864153 234.634461 
L 160.686936 234.731548 
L 160.511986 234.819624 
L 160.251468 234.965218 
L 160.15982 235.012801 
L 159.833443 235.198887 
L 159.807654 235.212698 
L 159.455488 235.416281 
L 159.429218 235.432557 
L 159.103321 235.624085 
L 159.036078 235.666227 
L 158.751155 235.837455 
L 158.652655 235.899897 
L 158.398989 236.055786 
L 158.277692 236.133566 
L 158.046822 236.278655 
L 157.910262 236.367236 
L 157.694656 236.505798 
L 157.549713 236.600906 
L 157.34249 236.737099 
L 157.19564 236.834576 
L 156.990324 236.972575 
L 156.847852 237.068245 
L 156.638157 237.210884 
L 156.503719 237.301915 
L 156.285991 237.45465 
L 156.168131 237.535585 
L 155.933825 237.703606 
L 155.839308 237.769255 
L 155.581658 237.958111 
L 155.517868 238.002924 
L 155.229492 238.218967 
L 155.204682 238.236594 
L 154.897846 238.470264 
L 154.877326 238.487128 
L 154.596494 238.703934 
L 154.525159 238.764273 
L 154.304906 238.937603 
L 154.172993 239.052369 
L 154.024694 239.171273 
L 153.820827 239.353542 
L 153.757864 239.404943 
L 153.516933 239.638613 
L 153.468661 239.696634 
L 153.31055 239.872282 
L 153.12885 240.105952 
L 153.468661 240.277677 
" style="fill:none;stroke:#000000;stroke-width:1.714286;"/>
    <path clip-path="url(#p69df10d15f)" d="M 169.316144 238.51275 
L 169.393107 238.470264 
L 169.66831 238.314889 
L 169.799511 238.236594 
L 170.020476 238.098885 
L 170.169015 238.002924 
L 170.372642 237.864286 
L 170.510802 237.769255 
L 170.724809 237.610019 
L 170.822909 237.535585 
L 171.076975 237.329404 
L 171.111353 237.301915 
L 171.428689 237.068245 
L 171.429141 237.065234 
L 171.520495 236.834576 
L 171.429141 236.821208 
L 171.392759 236.834576 
L 171.076975 236.94231 
L 170.821867 237.068245 
L 170.724809 237.134858 
L 170.558198 237.301915 
L 170.372642 237.403603 
L 170.179075 237.535585 
L 170.020476 237.634649 
L 169.839574 237.769255 
L 169.66831 237.889767 
L 169.53021 238.002924 
L 169.316144 238.168563 
L 169.239203 238.236594 
L 168.973156 238.470264 
L 169.316144 238.51275 
" style="fill:none;stroke:#000000;stroke-width:1.714286;"/>
    <path clip-path="url(#p69df10d15f)" d="M 162.272818 238.240328 
L 162.280325 238.236594 
L 162.272818 238.229664 
L 162.267146 238.236594 
L 162.272818 238.240328 
" style="fill:none;stroke:#000000;stroke-width:1.714286;"/>
    <path clip-path="url(#p69df10d15f)" d="M 162.624984 238.090601 
L 162.792677 238.002924 
L 162.97715 237.919109 
L 163.252917 237.769255 
L 163.329317 237.732607 
L 163.681453 237.535585 
L 163.681483 237.53557 
L 164.033649 237.320632 
L 164.061891 237.301915 
L 164.385816 237.101948 
L 164.436476 237.068245 
L 164.737982 236.880145 
L 164.809462 236.834576 
L 165.090148 236.661773 
L 165.191348 236.600906 
L 165.442314 236.459522 
L 165.583427 236.367236 
L 165.794481 236.233383 
L 165.944355 236.133566 
L 166.146647 236.000312 
L 166.29404 235.899897 
L 166.498813 235.769735 
L 166.656947 235.666227 
L 166.85098 235.541348 
L 167.01631 235.432557 
L 167.203146 235.310755 
L 167.372222 235.198887 
L 167.555312 235.077933 
L 167.724712 234.965218 
L 167.907478 234.842812 
L 168.073664 234.731548 
L 168.259645 234.605197 
L 168.418908 234.497878 
L 168.611811 234.364867 
L 168.760174 234.264208 
L 168.963977 234.121492 
L 169.097064 234.030539 
L 169.316144 233.874624 
L 169.429036 233.796869 
L 169.66831 233.623663 
L 169.751058 233.563199 
L 170.020476 233.337945 
L 170.031984 233.32953 
L 170.333411 233.09586 
L 170.372642 233.060085 
L 170.608561 232.86219 
L 170.724809 232.747632 
L 170.858405 232.62852 
L 170.724809 232.521192 
L 170.372642 232.627987 
L 170.371672 232.62852 
L 170.020476 232.818884 
L 169.94391 232.86219 
L 169.66831 233.000101 
L 169.486181 233.09586 
L 169.316144 233.190775 
L 169.076291 233.32953 
L 168.963977 233.39234 
L 168.671792 233.563199 
L 168.611811 233.598294 
L 168.282004 233.796869 
L 168.259645 233.810288 
L 167.907478 234.027615 
L 167.902915 234.030539 
L 167.555312 234.251611 
L 167.535852 234.264208 
L 167.203146 234.479242 
L 167.174647 234.497878 
L 166.85098 234.710389 
L 166.818941 234.731548 
L 166.498813 234.944974 
L 166.468454 234.965218 
L 166.146647 235.182955 
L 166.122973 235.198887 
L 165.794481 235.424319 
L 165.782349 235.432557 
L 165.447744 235.666227 
L 165.442314 235.67018 
L 165.135614 235.899897 
L 165.090148 235.934921 
L 164.787483 236.133566 
L 164.737982 236.168509 
L 164.463667 236.367236 
L 164.385816 236.425666 
L 164.147162 236.600906 
L 164.033649 236.687388 
L 163.835293 236.834576 
L 163.681483 236.953305 
L 163.527966 237.068245 
L 163.329317 237.223325 
L 163.225131 237.301915 
L 162.97715 237.497402 
L 162.926843 237.535585 
L 162.648761 237.769255 
L 162.624984 237.798383 
L 162.463931 238.002924 
L 162.624984 238.090601 
" style="fill:none;stroke:#000000;stroke-width:1.714286;"/>
    <path clip-path="url(#p69df10d15f)" d="M 167.555312 237.570824 
L 167.647942 237.535585 
L 167.555312 237.481238 
L 167.470163 237.535585 
L 167.555312 237.570824 
" style="fill:none;stroke:#000000;stroke-width:1.714286;"/>
    <path clip-path="url(#p69df10d15f)" d="M 167.907478 237.442486 
L 168.259645 237.322209 
L 168.308004 237.301915 
L 168.611811 237.144657 
L 168.749596 237.068245 
L 168.963977 236.930963 
L 169.159975 236.834576 
L 169.316144 236.745253 
L 169.591959 236.600906 
L 169.66831 236.55285 
L 170.020476 236.403916 
L 170.092585 236.367236 
L 170.372642 236.262243 
L 170.715201 236.133566 
L 170.724809 236.127842 
L 171.076975 235.936292 
L 171.137874 235.899897 
L 171.429141 235.719359 
L 171.508002 235.666227 
L 171.781308 235.475828 
L 171.837964 235.432557 
L 172.133474 235.20376 
L 172.139245 235.198887 
L 172.392641 234.965218 
L 172.48564 234.863551 
L 172.608267 234.731548 
L 172.48564 234.60708 
L 172.133474 234.703616 
L 172.071446 234.731548 
L 171.781308 234.875992 
L 171.575567 234.965218 
L 171.429141 235.037506 
L 171.076975 235.192325 
L 171.064568 235.198887 
L 170.724809 235.387639 
L 170.641327 235.432557 
L 170.372642 235.585078 
L 170.234371 235.666227 
L 170.020476 235.80323 
L 169.86431 235.899897 
L 169.66831 236.035507 
L 169.488967 236.133566 
L 169.316144 236.236408 
L 169.087654 236.367236 
L 168.963977 236.446069 
L 168.709468 236.600906 
L 168.611811 236.658641 
L 168.299319 236.834576 
L 168.259645 236.863912 
L 167.966355 237.068245 
L 167.907478 237.117344 
L 167.709627 237.301915 
L 167.907478 237.442486 
" style="fill:none;stroke:#000000;stroke-width:1.714286;"/>
    <path clip-path="url(#p69df10d15f)" d="M 175.30297 236.622801 
L 176.711636 235.991923 
L 181.110151 233.796869 
L 180.585465 234.329244 
L 179.164663 235.666227 
L 178.867565 236.133566 
L 179.1768 236.291741 
L 180.328004 235.899897 
L 181.721924 235.198887 
L 184.465219 233.563199 
L 189.037456 230.514165 
L 192.206952 228.183604 
L 194.386599 226.319437 
L 194.31995 226.113267 
L 192.79837 226.786777 
L 190.446121 228.018285 
L 186.924458 229.867274 
L 186.220125 230.0416 
L 185.515793 230.327849 
L 179.1768 233.641131 
L 176.711636 235.266592 
L 175.271832 236.367236 
L 175.186993 236.600906 
L 175.30297 236.622801 
L 175.30297 236.622801 
" style="fill:none;stroke:#000000;stroke-width:1.714286;"/>
    <path clip-path="url(#p69df10d15f)" d="M 188.333123 233.015771 
L 189.037456 232.833829 
L 199.250278 228.74034 
L 206.687359 224.917419 
L 208.406602 223.935691 
L 215.449927 219.686017 
L 215.593129 219.776685 
L 214.393428 220.734287 
L 205.941438 226.585508 
L 205.274368 227.254116 
L 205.589271 227.343118 
L 206.64577 226.870852 
L 210.871766 224.605069 
L 215.539361 222.113382 
L 218.97159 220.325955 
L 224.028208 216.972648 
L 227.071415 215.046194 
L 230.945244 212.976275 
L 232.706075 212.444405 
L 234.114741 211.766279 
L 236.966154 209.962555 
L 241.862399 206.530494 
L 249.966629 200.849436 
L 258.062048 195.937438 
L 260.879378 193.995581 
L 265.838753 190.100628 
L 275.318196 182.131954 
L 277.483801 180.052829 
L 279.896358 178.221353 
L 284.622546 174.444755 
L 286.7324 172.341727 
L 287.175546 171.640718 
L 287.13624 171.173379 
L 287.423292 170.706039 
L 288.348349 169.858398 
L 290.813513 167.862539 
L 292.396724 166.499984 
L 293.983009 164.754658 
L 295.805649 162.293928 
L 297.152506 161.044659 
L 300.825933 157.854203 
L 301.839519 156.919524 
L 305.252331 154.146625 
L 307.216137 152.479799 
L 307.775901 151.77879 
L 307.717495 151.643238 
L 307.013162 151.693454 
L 306.641779 151.77879 
L 306.660996 151.52369 
L 309.478326 149.158652 
L 315.570632 144.301358 
L 316.220499 143.600349 
L 318.093704 141.029982 
L 320.688851 137.992275 
L 321.85681 136.823927 
L 325.027297 133.78622 
L 326.382308 132.104444 
L 328.143139 130.044493 
L 328.870553 129.112825 
L 328.942647 128.879156 
L 328.762517 128.411816 
L 331.879768 126.075119 
L 335.538631 123.384448 
L 337.08003 122.102733 
L 337.712239 121.401724 
L 337.651629 121.154323 
L 337.594184 121.168054 
L 336.831866 121.401724 
L 335.380079 122.102733 
L 333.425634 123.20282 
L 327.870717 126.776128 
L 323.037221 130.281174 
L 320.806722 132.150532 
L 320.747647 132.482829 
L 322.162945 132.384202 
L 322.156313 132.388673 
L 317.965673 135.421908 
L 315.192263 137.758606 
L 309.169295 143.834019 
L 308.113556 145.469707 
L 305.540547 148.040074 
L 300.304661 152.947139 
L 299.226193 154.115488 
L 298.859663 154.816497 
L 298.561171 155.580965 
L 298.209005 156.41282 
L 298.647628 156.452185 
L 295.743841 158.230679 
L 295.039508 158.50146 
L 291.517845 160.538214 
L 287.644016 163.097321 
L 284.122353 165.698465 
L 281.657189 167.718164 
L 281.150678 168.369342 
L 281.305023 168.523191 
L 282.009356 168.321673 
L 283.065855 167.861695 
L 283.403616 167.902002 
L 282.361522 168.932087 
L 280.868549 170.2387 
L 279.544192 171.432734 
L 262.625492 184.492554 
L 244.942482 197.34439 
L 241.510233 199.704468 
L 234.819073 204.416987 
L 229.184413 207.900923 
L 221.436754 212.646 
L 216.123845 215.804299 
L 213.689096 216.992502 
L 213.242381 216.972648 
L 212.984763 216.728206 
L 212.280431 216.877138 
L 210.167433 217.866321 
L 204.180606 221.24914 
L 201.715442 222.836856 
L 190.656565 230.759162 
L 188.420304 232.62852 
L 188.234269 232.86219 
L 188.333123 233.015771 
L 188.333123 233.015771 
" style="fill:none;stroke:#000000;stroke-width:1.714286;"/>
   </g>
   <g id="LineCollection_3">
    <path clip-path="url(#p69df10d15f)" d="M 415.066347 11.379141 
L 414.82335 14.029646 
L 416.158125 15.284218 
L 416.549305 14.029646 
L 417.145549 11.379141 
" style="fill:none;stroke:#fff5f0;stroke-width:1.5;"/>
    <path clip-path="url(#p69df10d15f)" d="M 100.540625 247.355494 
L 107.401875 248.026153 
L 114.263125 248.528663 
L 121.124375 248.780768 
L 127.985625 248.742353 
L 134.846875 248.429527 
L 141.708125 247.890837 
L 148.569375 247.116934 
L 162.39709 244.623585 
L 172.618525 241.97308 
L 182.875625 238.895389 
L 189.736875 236.539545 
L 196.598125 233.879455 
L 203.459375 230.920273 
L 217.181875 224.298709 
L 218.708333 223.419545 
L 224.043125 220.737767 
L 228.152925 218.118535 
L 230.904375 216.697565 
L 232.720931 215.46803 
L 237.765625 212.616401 
L 241.061974 210.167019 
L 244.626875 208.138931 
L 249.024749 204.866009 
L 251.488125 203.430979 
L 252.946083 202.215504 
L 256.579187 199.564999 
L 258.349375 198.510821 
L 260.131281 196.914494 
L 263.698844 194.263989 
L 265.210625 193.341613 
L 267.018011 191.613484 
L 270.394994 188.962979 
L 272.071875 187.908801 
L 273.649633 186.312474 
L 276.734156 183.661969 
L 278.933125 182.226939 
L 280.078861 181.011464 
L 282.821627 178.360959 
L 285.794375 176.332871 
L 288.764386 173.059949 
L 292.655625 170.20832 
L 294.642433 167.758939 
L 297.453082 165.108434 
L 299.516875 163.687464 
L 300.501645 162.457929 
L 302.775293 159.807423 
L 306.378125 157.125646 
L 308.268875 154.506413 
L 310.772864 151.855908 
L 313.239375 150.084568 
L 315.833041 146.554898 
L 318.623724 143.904393 
L 320.100625 142.890655 
L 321.207429 141.253888 
L 323.182257 138.603383 
L 326.961875 135.502091 
L 328.340581 133.302373 
L 330.301785 130.651868 
L 333.823125 127.859253 
L 335.293048 125.350858 
L 337.186753 122.700353 
L 340.684375 119.917322 
L 342.083041 117.399343 
L 343.855249 114.748838 
L 346.845261 112.098333 
L 347.545625 111.671146 
L 348.735902 109.447827 
L 350.350657 106.797322 
L 352.868638 104.146817 
L 354.406875 103.161512 
L 356.728714 98.845807 
L 358.754002 96.195302 
L 361.268125 94.455425 
L 363.038937 90.894292 
L 364.662332 88.243787 
L 368.141838 85.593282 
L 369.313653 82.942777 
L 370.652869 80.292272 
L 372.67336 77.641767 
L 374.990625 76.245766 
L 378.113896 69.690252 
L 381.41312 67.039747 
L 381.851875 66.88259 
L 383.950873 61.738737 
L 385.382911 59.088232 
L 388.713125 57.054473 
L 388.98004 56.437726 
L 390.984729 51.136716 
L 392.329408 48.486211 
L 395.574375 46.991143 
L 396.026562 45.835706 
L 397.802438 40.534696 
L 398.505571 37.884191 
L 395.574375 37.174945 
L 395.266038 37.884191 
L 393.225571 43.185201 
L 391.509854 45.835706 
L 388.713125 46.6919 
L 386.846524 51.136716 
L 385.441504 53.787221 
L 381.851875 55.934872 
L 381.605391 56.437726 
L 380.46777 59.088232 
L 379.129135 61.738737 
L 376.524976 64.389242 
L 374.990625 65.019839 
L 372.718124 69.690252 
L 370.764452 72.340757 
L 368.129375 73.902338 
L 366.218904 77.641767 
L 364.436343 80.292272 
L 361.268125 82.468053 
L 360.998768 82.942777 
L 359.627361 85.593282 
L 357.885 88.243787 
L 354.35113 90.894292 
L 352.934207 93.544797 
L 351.167327 96.195302 
L 347.545625 98.984665 
L 346.126071 101.496312 
L 344.285353 104.146817 
L 340.684375 106.929848 
L 339.184474 109.447827 
L 337.216042 112.098333 
L 333.749997 114.748838 
L 332.083019 117.399343 
L 329.909906 120.049848 
L 326.961875 122.194347 
L 324.781333 125.350858 
L 322.269117 128.001363 
L 320.100625 129.501963 
L 317.21108 133.302373 
L 314.075889 135.952878 
L 313.239375 136.488184 
L 311.661016 138.603383 
L 309.238809 141.253888 
L 306.378125 143.296651 
L 303.709224 146.554898 
L 300.543205 149.205403 
L 299.516875 149.872849 
L 297.86526 151.855908 
L 295.164438 154.506413 
L 292.655625 156.232204 
L 289.299848 159.807423 
L 285.603706 162.457929 
L 283.141377 165.108434 
L 278.933125 168.171775 
L 276.750147 170.409444 
L 273.335912 173.059949 
L 272.071875 173.85867 
L 270.138197 175.710454 
L 266.688383 178.360959 
L 265.210625 179.283335 
L 263.290394 181.011464 
L 259.660871 183.661969 
L 258.349375 184.46069 
L 256.16808 186.312474 
L 251.488125 189.375815 
L 248.701856 191.613484 
L 244.356765 194.263989 
L 240.768651 196.914494 
L 237.765625 198.640285 
L 236.418284 199.564999 
L 227.852236 204.866009 
L 223.016502 207.516514 
L 213.388526 212.817524 
L 202.365594 218.118535 
L 196.347347 220.76904 
L 189.736875 223.55207 
L 182.875625 226.208907 
L 175.712104 228.720555 
L 167.387258 231.37106 
L 162.291875 232.932641 
L 148.569375 236.169215 
L 145.556089 236.67207 
L 141.708125 237.528263 
L 134.846875 238.613329 
L 127.985625 239.368606 
L 121.124375 240.206579 
L 114.263125 240.718508 
L 107.401875 241.008356 
L 93.679375 241.170298 
L 86.818125 241.243128 
L 80.65998 241.97308 
L 87.045836 244.623585 
L 93.679375 245.851974 
L 100.540625 247.355494 
L 100.540625 247.355494 
" style="fill:none;stroke:#fff5f0;stroke-width:1.5;"/>
    <path clip-path="url(#p69df10d15f)" d="M 402.435625 36.701949 
L 402.958087 35.233686 
L 403.758048 32.583181 
L 404.407214 29.932676 
L 402.435625 27.328202 
L 401.547651 29.932676 
L 400.660319 32.583181 
L 399.840354 35.233686 
L 402.435625 36.701949 
" style="fill:none;stroke:#fff5f0;stroke-width:1.5;"/>
    <path clip-path="url(#p69df10d15f)" d="M 409.296875 26.138343 
L 409.792227 24.631666 
L 410.486336 21.981161 
L 410.858459 19.330656 
L 409.296875 17.564154 
L 408.689263 19.330656 
L 407.917532 21.981161 
L 407.42468 24.631666 
L 409.296875 26.138343 
" style="fill:none;stroke:#fff5f0;stroke-width:1.5;"/>
   </g>
   <g id="LineCollection_4">
    <path clip-path="url(#p69df10d15f)" d="M 121.124375 245.663306 
L 127.985625 246.192042 
L 134.846875 246.172685 
L 141.708125 245.780169 
L 148.569375 245.157033 
L 152.847591 244.623585 
L 155.430625 244.159795 
L 166.314876 241.97308 
L 176.662984 239.322575 
L 184.786819 236.67207 
L 192.092617 234.021565 
L 196.598125 232.311534 
L 198.756814 231.37106 
L 204.968024 228.720555 
L 210.896179 226.07005 
L 217.181875 222.950951 
L 220.853543 220.76904 
L 224.043125 219.236566 
L 225.797412 218.118535 
L 230.923648 215.46803 
L 234.641241 212.817524 
L 237.765625 211.176473 
L 239.124136 210.167019 
L 243.237804 207.516514 
L 244.626875 206.785044 
L 246.971912 204.866009 
L 251.511639 202.215504 
L 254.463486 199.564999 
L 258.724872 196.914494 
L 261.596251 194.263989 
L 265.210625 192.058769 
L 268.390813 188.962979 
L 272.404352 186.312474 
L 274.90166 183.661969 
L 278.951603 181.011464 
L 281.205676 178.360959 
L 284.552277 175.710454 
L 285.794375 174.978983 
L 287.378046 173.059949 
L 290.077732 170.409444 
L 292.655625 168.768393 
L 295.686271 165.108434 
L 299.527323 162.457929 
L 301.396413 159.807423 
L 303.971059 157.156918 
L 306.378125 155.624445 
L 309.135419 151.855908 
L 312.39427 149.205403 
L 313.239375 148.736809 
L 314.640619 146.554898 
L 316.68424 143.904393 
L 320.100625 141.559401 
L 320.307217 141.253888 
L 321.895042 138.603383 
L 324.011558 135.952878 
L 326.961875 134.032165 
L 328.95134 130.651868 
L 331.065986 128.001363 
L 333.823125 126.291332 
L 335.821553 122.700353 
L 337.809698 120.049848 
L 340.684375 118.313767 
L 341.192312 117.399343 
L 342.532229 114.748838 
L 344.274684 112.098333 
L 347.545625 110.103225 
L 347.896499 109.447827 
L 349.121467 106.797322 
L 350.573823 104.146817 
L 354.509277 101.496312 
L 356.83034 96.195302 
L 358.858274 93.544797 
L 361.268125 92.825663 
L 363.110104 88.243787 
L 364.123558 85.593282 
L 361.268125 84.185554 
L 357.974174 90.894292 
L 354.406875 92.515317 
L 353.864136 93.544797 
L 352.600871 96.195302 
L 350.937272 98.845807 
L 347.545625 100.625512 
L 347.053459 101.496312 
L 345.690896 104.146817 
L 343.825754 106.797322 
L 340.684375 108.533403 
L 338.663174 112.098333 
L 336.51692 114.748838 
L 333.823125 116.230207 
L 331.474317 120.049848 
L 328.848991 122.700353 
L 326.961875 123.679955 
L 325.901127 125.350858 
L 324.057887 128.001363 
L 320.100625 130.795064 
L 318.49889 133.302373 
L 316.281038 135.952878 
L 313.239375 137.899313 
L 310.807178 141.253888 
L 307.783065 143.904393 
L 306.378125 144.691434 
L 304.990594 146.554898 
L 302.62964 149.205403 
L 299.516875 151.229703 
L 296.845899 154.506413 
L 292.655625 157.51971 
L 290.781734 159.807423 
L 287.844687 162.457929 
L 285.794375 163.70199 
L 284.525349 165.108434 
L 281.79129 167.758939 
L 278.933125 169.555235 
L 275.403707 173.059949 
L 272.071875 175.165271 
L 268.743656 178.360959 
L 265.210625 180.566179 
L 261.806303 183.661969 
L 258.349375 185.767291 
L 254.541388 188.962979 
L 251.488125 190.759275 
L 250.424493 191.613484 
L 246.837029 194.263989 
L 244.626875 195.50805 
L 242.781344 196.914494 
L 237.765625 199.927791 
L 234.617988 202.215504 
L 229.940579 204.866009 
L 225.576959 207.516514 
L 224.043125 208.303556 
L 221.025614 210.167019 
L 210.320625 215.611226 
L 205.577321 218.118535 
L 193.874822 223.419545 
L 187.372577 226.07005 
L 182.875625 227.849755 
L 169.153125 232.613837 
L 148.569375 238.152337 
L 141.708125 239.356592 
L 134.846875 240.903039 
L 126.189832 241.97308 
L 121.124375 243.37592 
L 114.263125 244.623585 
L 121.124375 245.663306 
L 121.124375 245.663306 
" style="fill:none;stroke:#fb694a;stroke-width:1.5;"/>
    <path clip-path="url(#p69df10d15f)" d="M 368.129375 83.774325 
L 368.495698 82.942777 
L 369.421238 80.292272 
L 370.18147 77.641767 
L 368.129375 75.566628 
L 367.266593 77.641767 
L 366.238786 80.292272 
L 365.242305 82.942777 
L 368.129375 83.774325 
" style="fill:none;stroke:#fb694a;stroke-width:1.5;"/>
    <path clip-path="url(#p69df10d15f)" d="M 374.990625 74.527472 
L 375.745862 72.340757 
L 376.45919 69.690252 
L 375.941386 67.039747 
L 374.990625 66.740727 
L 374.850634 67.039747 
L 373.922093 69.690252 
L 373.145649 72.340757 
L 374.990625 74.527472 
" style="fill:none;stroke:#fb694a;stroke-width:1.5;"/>
    <path clip-path="url(#p69df10d15f)" d="M 381.851875 64.922689 
L 382.063003 64.389242 
L 382.783532 61.738737 
L 383.025075 59.088232 
L 381.851875 57.917993 
L 381.392001 59.088232 
L 380.643366 61.738737 
L 380.712194 64.389242 
L 381.851875 64.922689 
" style="fill:none;stroke:#fb694a;stroke-width:1.5;"/>
    <path clip-path="url(#p69df10d15f)" d="M 388.713125 54.943805 
L 389.09427 53.787221 
L 389.591467 51.136716 
L 388.713125 48.520229 
L 387.991382 51.136716 
L 387.70938 53.787221 
L 388.713125 54.943805 
" style="fill:none;stroke:#fb694a;stroke-width:1.5;"/>
    <path clip-path="url(#p69df10d15f)" d="M 395.574375 44.734301 
L 395.986062 43.185201 
L 396.168934 40.534696 
L 395.574375 39.464655 
L 395.229757 40.534696 
L 394.857694 43.185201 
L 395.574375 44.734301 
" style="fill:none;stroke:#fb694a;stroke-width:1.5;"/>
    <path clip-path="url(#p69df10d15f)" d="M 402.435625 34.151637 
L 402.766315 32.583181 
L 402.565446 29.932676 
L 402.435625 29.761182 
L 402.377156 29.932676 
L 401.991685 32.583181 
L 402.435625 34.151637 
" style="fill:none;stroke:#fb694a;stroke-width:1.5;"/>
    <path clip-path="url(#p69df10d15f)" d="M 409.296875 23.020882 
L 409.475605 21.981161 
L 409.296875 20.733496 
L 409.089613 21.981161 
L 409.296875 23.020882 
" style="fill:none;stroke:#fb694a;stroke-width:1.5;"/>
   </g>
   <g id="LineCollection_5">
    <path clip-path="url(#p69df10d15f)" d="M 162.291875 239.53823 
L 163.966834 239.322575 
L 162.291875 238.747496 
L 160.212884 239.322575 
L 162.291875 239.53823 
" style="fill:none;stroke:#67000d;stroke-width:1.5;"/>
    <path clip-path="url(#p69df10d15f)" d="M 169.153125 238.13547 
L 176.014375 236.969371 
L 177.101333 236.67207 
L 182.875625 234.886698 
L 185.594184 234.021565 
L 189.736875 232.643302 
L 193.152504 231.37106 
L 196.598125 230.143446 
L 199.888018 228.720555 
L 203.459375 227.354155 
L 206.069883 226.07005 
L 210.320625 224.316364 
L 211.962714 223.419545 
L 217.181875 221.094202 
L 217.729051 220.76904 
L 222.345192 218.118535 
L 224.043125 217.398175 
L 226.847619 215.46803 
L 230.904375 213.529145 
L 231.899774 212.817524 
L 236.038971 210.167019 
L 237.765625 209.38579 
L 240.047624 207.516514 
L 244.626875 205.105128 
L 244.919076 204.866009 
L 247.893115 202.215504 
L 251.488125 200.339832 
L 252.347786 199.564999 
L 255.395826 196.914494 
L 258.349375 195.393359 
L 259.493659 194.263989 
L 262.492231 191.613484 
L 265.210625 190.217551 
L 266.386632 188.962979 
L 269.169777 186.312474 
L 272.071875 184.791339 
L 273.069165 183.661969 
L 275.522277 181.011464 
L 278.933125 179.135792 
L 279.589726 178.360959 
L 281.699642 175.710454 
L 285.794375 173.299068 
L 285.991707 173.059949 
L 287.815779 170.409444 
L 290.820059 167.758939 
L 292.655625 166.977709 
L 293.91946 165.108434 
L 295.930116 162.457929 
L 299.516875 160.519044 
L 300.017533 159.807423 
L 301.613113 157.156918 
L 304.302476 154.506413 
L 306.378125 153.786054 
L 307.497975 151.855908 
L 309.045639 149.205403 
L 313.239375 146.880061 
L 313.448197 146.554898 
L 314.744757 143.904393 
L 316.0995 141.253888 
L 313.239375 139.865987 
L 312.375546 141.253888 
L 310.855006 143.904393 
L 306.378125 146.412323 
L 306.271964 146.554898 
L 304.716074 149.205403 
L 302.539398 151.855908 
L 299.516875 153.122368 
L 298.527361 154.506413 
L 296.59771 157.156918 
L 292.655625 159.32885 
L 292.26362 159.807423 
L 290.37257 162.457929 
L 286.508147 165.108434 
L 285.794375 165.352601 
L 283.992573 167.758939 
L 280.989848 170.409444 
L 278.933125 171.340195 
L 277.471503 173.059949 
L 274.647221 175.710454 
L 272.071875 176.995346 
L 270.798928 178.360959 
L 267.929019 181.011464 
L 265.210625 182.407397 
L 263.951735 183.661969 
L 260.875599 186.312474 
L 258.349375 187.597367 
L 256.892931 188.962979 
L 253.393517 191.613484 
L 251.488125 192.544235 
L 249.561987 194.263989 
L 245.168119 196.914494 
L 244.626875 197.158662 
L 241.845331 199.564999 
L 237.765625 201.736931 
L 237.107161 202.215504 
L 233.467226 204.866009 
L 230.904375 206.132469 
L 228.930732 207.516514 
L 224.043125 210.024445 
L 223.812253 210.167019 
L 219.831179 212.817524 
L 217.181875 214.080129 
L 214.851737 215.46803 
L 210.320625 217.627124 
L 209.390979 218.118535 
L 203.920334 220.76904 
L 203.459375 220.975725 
L 198.763455 223.419545 
L 196.598125 224.38543 
L 192.903528 226.07005 
L 189.736875 227.448312 
L 186.593872 228.720555 
L 182.875625 230.297318 
L 179.896155 231.37106 
L 176.014375 233.003128 
L 172.839555 234.021565 
L 169.153125 235.658947 
L 165.626362 236.67207 
L 169.153125 238.13547 
" style="fill:none;stroke:#67000d;stroke-width:1.5;"/>
    <path clip-path="url(#p69df10d15f)" d="M 320.100625 139.500202 
L 320.607827 138.603383 
L 321.753673 135.952878 
L 322.338793 133.302373 
L 320.100625 132.810962 
L 319.786699 133.302373 
L 318.486187 135.952878 
L 317.080209 138.603383 
L 320.100625 139.500202 
" style="fill:none;stroke:#67000d;stroke-width:1.5;"/>
    <path clip-path="url(#p69df10d15f)" d="M 326.961875 131.935973 
L 327.600894 130.651868 
L 328.537975 128.001363 
L 326.961875 125.557544 
L 325.846658 128.001363 
L 324.859405 130.651868 
L 326.961875 131.935973 
" style="fill:none;stroke:#67000d;stroke-width:1.5;"/>
    <path clip-path="url(#p69df10d15f)" d="M 333.823125 124.123244 
L 334.456352 122.700353 
L 335.154461 120.049848 
L 333.823125 118.365228 
L 333.038729 120.049848 
L 332.247008 122.700353 
L 333.823125 124.123244 
" style="fill:none;stroke:#67000d;stroke-width:1.5;"/>
    <path clip-path="url(#p69df10d15f)" d="M 340.684375 116.02108 
L 341.209209 114.748838 
L 341.704108 112.098333 
L 340.684375 110.82609 
L 340.110306 112.098333 
L 339.500719 114.748838 
L 340.684375 116.02108 
" style="fill:none;stroke:#67000d;stroke-width:1.5;"/>
    <path clip-path="url(#p69df10d15f)" d="M 347.545625 107.662456 
L 347.892277 106.797322 
L 348.279007 104.146817 
L 347.545625 103.073076 
L 347.096439 104.146817 
L 346.727333 106.797322 
L 347.545625 107.662456 
" style="fill:none;stroke:#67000d;stroke-width:1.5;"/>
    <path clip-path="url(#p69df10d15f)" d="M 354.406875 99.143109 
L 354.527455 98.845807 
L 354.906678 96.195302 
L 354.406875 95.176866 
L 354.034414 96.195302 
L 354.064293 98.845807 
L 354.406875 99.143109 
" style="fill:none;stroke:#67000d;stroke-width:1.5;"/>
    <path clip-path="url(#p69df10d15f)" d="M 361.268125 89.707187 
L 361.557876 88.243787 
L 361.268125 87.230664 
L 360.97932 88.243787 
L 361.268125 89.707187 
" style="fill:none;stroke:#67000d;stroke-width:1.5;"/>
    <path clip-path="url(#p69df10d15f)" d="M 368.129375 80.507927 
L 368.189606 80.292272 
L 368.129375 79.717193 
L 368.041229 80.292272 
L 368.129375 80.507927 
" style="fill:none;stroke:#67000d;stroke-width:1.5;"/>
   </g>
   <g id="patch_3">
    <path d="M 38.789375 273.779141 
L 38.789375 11.379141 
" style="fill:none;stroke:#000000;stroke-linecap:square;stroke-linejoin:miter;stroke-width:0.8;"/>
   </g>
   <g id="patch_4">
    <path d="M 416.158125 273.779141 
L 416.158125 11.379141 
" style="fill:none;stroke:#000000;stroke-linecap:square;stroke-linejoin:miter;stroke-width:0.8;"/>
   </g>
   <g id="patch_5">
    <path d="M 38.789375 273.779141 
L 416.158125 273.779141 
" style="fill:none;stroke:#000000;stroke-linecap:square;stroke-linejoin:miter;stroke-width:0.8;"/>
   </g>
   <g id="patch_6">
    <path d="M 38.789375 11.379141 
L 416.158125 11.379141 
" style="fill:none;stroke:#000000;stroke-linecap:square;stroke-linejoin:miter;stroke-width:0.8;"/>
   </g>
  </g>
 </g>
 <defs>
  <clipPath id="p69df10d15f">
   <rect height="262.4" width="377.36875" x="38.789375" y="11.379141"/>
  </clipPath>
 </defs>
</svg>
