<?xml version="1.0" encoding="utf-8" standalone="no"?>
<!DOCTYPE svg PUBLIC "-//W3C//DTD SVG 1.1//EN"
  "http://www.w3.org/Graphics/SVG/1.1/DTD/svg11.dtd">
<!-- Created with matplotlib (https://matplotlib.org/) -->
<svg height="567.3575pt" version="1.1" viewBox="0 0 567.358125 567.3575" width="567.358125pt" xmlns="http://www.w3.org/2000/svg" xmlns:xlink="http://www.w3.org/1999/xlink">
 <metadata>
  <rdf:RDF xmlns:cc="http://creativecommons.org/ns#" xmlns:dc="http://purl.org/dc/elements/1.1/" xmlns:rdf="http://www.w3.org/1999/02/22-rdf-syntax-ns#">
   <cc:Work>
    <dc:type rdf:resource="http://purl.org/dc/dcmitype/StillImage"/>
    <dc:date>2021-02-04T14:03:45.058714</dc:date>
    <dc:format>image/svg+xml</dc:format>
    <dc:creator>
     <cc:Agent>
      <dc:title>Matplotlib v3.3.2, https://matplotlib.org/</dc:title>
     </cc:Agent>
    </dc:creator>
   </cc:Work>
  </rdf:RDF>
 </metadata>
 <defs>
  <style type="text/css">*{stroke-linecap:butt;stroke-linejoin:round;}</style>
 </defs>
 <g id="figure_1">
  <g id="patch_1">
   <path d="M 0 567.3575 
L 567.358125 567.3575 
L 567.358125 0 
L 0 0 
z
" style="fill:#ffffff;"/>
  </g>
  <g id="axes_1">
   <g id="patch_2">
    <path d="M 35.289375 525.1 
L 297.72375 525.1 
L 297.72375 266.15 
L 35.289375 266.15 
z
" style="fill:#ffffff;"/>
   </g>
   <g id="matplotlib.axis_1">
    <g id="xtick_1">
     <g id="line2d_1">
      <defs>
       <path d="M 0 0 
L 0 -3.5 
" id="m1e717e2b0c" style="stroke:#000000;stroke-width:0.8;"/>
      </defs>
      <g>
       <use style="stroke:#000000;stroke-width:0.8;" x="72.357342" xlink:href="#m1e717e2b0c" y="525.1"/>
      </g>
     </g>
     <g id="line2d_2">
      <defs>
       <path d="M 0 0 
L 0 3.5 
" id="m05a3305bee" style="stroke:#000000;stroke-width:0.8;"/>
      </defs>
      <g>
       <use style="stroke:#000000;stroke-width:0.8;" x="72.357342" xlink:href="#m05a3305bee" y="266.15"/>
      </g>
     </g>
     <g id="text_1">
      <!-- $\mathdefault{0.5}$ -->
      <g transform="translate(63.557342 536.958281)scale(0.11 -0.11)">
       <defs>
        <path d="M 31.78125 66.40625 
Q 24.171875 66.40625 20.328125 58.90625 
Q 16.5 51.421875 16.5 36.375 
Q 16.5 21.390625 20.328125 13.890625 
Q 24.171875 6.390625 31.78125 6.390625 
Q 39.453125 6.390625 43.28125 13.890625 
Q 47.125 21.390625 47.125 36.375 
Q 47.125 51.421875 43.28125 58.90625 
Q 39.453125 66.40625 31.78125 66.40625 
z
M 31.78125 74.21875 
Q 44.046875 74.21875 50.515625 64.515625 
Q 56.984375 54.828125 56.984375 36.375 
Q 56.984375 17.96875 50.515625 8.265625 
Q 44.046875 -1.421875 31.78125 -1.421875 
Q 19.53125 -1.421875 13.0625 8.265625 
Q 6.59375 17.96875 6.59375 36.375 
Q 6.59375 54.828125 13.0625 64.515625 
Q 19.53125 74.21875 31.78125 74.21875 
z
" id="DejaVuSans-48"/>
        <path d="M 10.6875 12.40625 
L 21 12.40625 
L 21 0 
L 10.6875 0 
z
" id="DejaVuSans-46"/>
        <path d="M 10.796875 72.90625 
L 49.515625 72.90625 
L 49.515625 64.59375 
L 19.828125 64.59375 
L 19.828125 46.734375 
Q 21.96875 47.46875 24.109375 47.828125 
Q 26.265625 48.1875 28.421875 48.1875 
Q 40.625 48.1875 47.75 41.5 
Q 54.890625 34.8125 54.890625 23.390625 
Q 54.890625 11.625 47.5625 5.09375 
Q 40.234375 -1.421875 26.90625 -1.421875 
Q 22.3125 -1.421875 17.546875 -0.640625 
Q 12.796875 0.140625 7.71875 1.703125 
L 7.71875 11.625 
Q 12.109375 9.234375 16.796875 8.0625 
Q 21.484375 6.890625 26.703125 6.890625 
Q 35.15625 6.890625 40.078125 11.328125 
Q 45.015625 15.765625 45.015625 23.390625 
Q 45.015625 31 40.078125 35.4375 
Q 35.15625 39.890625 26.703125 39.890625 
Q 22.75 39.890625 18.8125 39.015625 
Q 14.890625 38.140625 10.796875 36.28125 
z
" id="DejaVuSans-53"/>
       </defs>
       <use transform="translate(0 0.78125)" xlink:href="#DejaVuSans-48"/>
       <use transform="translate(63.623047 0.78125)" xlink:href="#DejaVuSans-46"/>
       <use transform="translate(95.410156 0.78125)" xlink:href="#DejaVuSans-53"/>
      </g>
     </g>
    </g>
    <g id="xtick_2">
     <g id="line2d_3">
      <g>
       <use style="stroke:#000000;stroke-width:0.8;" x="158.355951" xlink:href="#m1e717e2b0c" y="525.1"/>
      </g>
     </g>
     <g id="line2d_4">
      <g>
       <use style="stroke:#000000;stroke-width:0.8;" x="158.355951" xlink:href="#m05a3305bee" y="266.15"/>
      </g>
     </g>
     <g id="text_2">
      <!-- $\mathdefault{1.0}$ -->
      <g transform="translate(149.555951 536.958281)scale(0.11 -0.11)">
       <defs>
        <path d="M 12.40625 8.296875 
L 28.515625 8.296875 
L 28.515625 63.921875 
L 10.984375 60.40625 
L 10.984375 69.390625 
L 28.421875 72.90625 
L 38.28125 72.90625 
L 38.28125 8.296875 
L 54.390625 8.296875 
L 54.390625 0 
L 12.40625 0 
z
" id="DejaVuSans-49"/>
       </defs>
       <use transform="translate(0 0.78125)" xlink:href="#DejaVuSans-49"/>
       <use transform="translate(63.623047 0.78125)" xlink:href="#DejaVuSans-46"/>
       <use transform="translate(95.410156 0.78125)" xlink:href="#DejaVuSans-48"/>
      </g>
     </g>
    </g>
    <g id="xtick_3">
     <g id="line2d_5">
      <g>
       <use style="stroke:#000000;stroke-width:0.8;" x="244.35456" xlink:href="#m1e717e2b0c" y="525.1"/>
      </g>
     </g>
     <g id="line2d_6">
      <g>
       <use style="stroke:#000000;stroke-width:0.8;" x="244.35456" xlink:href="#m05a3305bee" y="266.15"/>
      </g>
     </g>
     <g id="text_3">
      <!-- $\mathdefault{1.5}$ -->
      <g transform="translate(235.55456 536.958281)scale(0.11 -0.11)">
       <use transform="translate(0 0.09375)" xlink:href="#DejaVuSans-49"/>
       <use transform="translate(63.623047 0.09375)" xlink:href="#DejaVuSans-46"/>
       <use transform="translate(95.410156 0.09375)" xlink:href="#DejaVuSans-53"/>
      </g>
     </g>
    </g>
    <g id="text_4">
     <!-- Hinz -->
     <g transform="translate(151.1875 557.245937)scale(0.14 -0.14)">
      <defs>
       <path d="M 9.8125 72.90625 
L 19.671875 72.90625 
L 19.671875 43.015625 
L 55.515625 43.015625 
L 55.515625 72.90625 
L 65.375 72.90625 
L 65.375 0 
L 55.515625 0 
L 55.515625 34.71875 
L 19.671875 34.71875 
L 19.671875 0 
L 9.8125 0 
z
" id="DejaVuSans-72"/>
       <path d="M 9.421875 54.6875 
L 18.40625 54.6875 
L 18.40625 0 
L 9.421875 0 
z
M 9.421875 75.984375 
L 18.40625 75.984375 
L 18.40625 64.59375 
L 9.421875 64.59375 
z
" id="DejaVuSans-105"/>
       <path d="M 54.890625 33.015625 
L 54.890625 0 
L 45.90625 0 
L 45.90625 32.71875 
Q 45.90625 40.484375 42.875 44.328125 
Q 39.84375 48.1875 33.796875 48.1875 
Q 26.515625 48.1875 22.3125 43.546875 
Q 18.109375 38.921875 18.109375 30.90625 
L 18.109375 0 
L 9.078125 0 
L 9.078125 54.6875 
L 18.109375 54.6875 
L 18.109375 46.1875 
Q 21.34375 51.125 25.703125 53.5625 
Q 30.078125 56 35.796875 56 
Q 45.21875 56 50.046875 50.171875 
Q 54.890625 44.34375 54.890625 33.015625 
z
" id="DejaVuSans-110"/>
       <path d="M 5.515625 54.6875 
L 48.1875 54.6875 
L 48.1875 46.484375 
L 14.40625 7.171875 
L 48.1875 7.171875 
L 48.1875 0 
L 4.296875 0 
L 4.296875 8.203125 
L 38.09375 47.515625 
L 5.515625 47.515625 
z
" id="DejaVuSans-122"/>
      </defs>
      <use xlink:href="#DejaVuSans-72"/>
      <use x="75.195312" xlink:href="#DejaVuSans-105"/>
      <use x="102.978516" xlink:href="#DejaVuSans-110"/>
      <use x="166.357422" xlink:href="#DejaVuSans-122"/>
     </g>
    </g>
   </g>
   <g id="matplotlib.axis_2">
    <g id="ytick_1">
     <g id="line2d_7">
      <defs>
       <path d="M 0 0 
L 3.5 0 
" id="m920ceb0944" style="stroke:#000000;stroke-width:0.8;"/>
      </defs>
      <g>
       <use style="stroke:#000000;stroke-width:0.8;" x="35.289375" xlink:href="#m920ceb0944" y="496.410502"/>
      </g>
     </g>
     <g id="line2d_8">
      <defs>
       <path d="M 0 0 
L -3.5 0 
" id="mde15d59d06" style="stroke:#000000;stroke-width:0.8;"/>
      </defs>
      <g>
       <use style="stroke:#000000;stroke-width:0.8;" x="297.72375" xlink:href="#mde15d59d06" y="496.410502"/>
      </g>
     </g>
     <g id="text_5">
      <!-- $\mathdefault{0}$ -->
      <g transform="translate(24.749375 500.589642)scale(0.11 -0.11)">
       <use transform="translate(0 0.78125)" xlink:href="#DejaVuSans-48"/>
      </g>
     </g>
    </g>
    <g id="ytick_2">
     <g id="line2d_9">
      <g>
       <use style="stroke:#000000;stroke-width:0.8;" x="35.289375" xlink:href="#m920ceb0944" y="418.314983"/>
      </g>
     </g>
     <g id="line2d_10">
      <g>
       <use style="stroke:#000000;stroke-width:0.8;" x="297.72375" xlink:href="#mde15d59d06" y="418.314983"/>
      </g>
     </g>
     <g id="text_6">
      <!-- $\mathdefault{1}$ -->
      <g transform="translate(24.749375 422.494124)scale(0.11 -0.11)">
       <use transform="translate(0 0.09375)" xlink:href="#DejaVuSans-49"/>
      </g>
     </g>
    </g>
    <g id="ytick_3">
     <g id="line2d_11">
      <g>
       <use style="stroke:#000000;stroke-width:0.8;" x="35.289375" xlink:href="#m920ceb0944" y="340.219465"/>
      </g>
     </g>
     <g id="line2d_12">
      <g>
       <use style="stroke:#000000;stroke-width:0.8;" x="297.72375" xlink:href="#mde15d59d06" y="340.219465"/>
      </g>
     </g>
     <g id="text_7">
      <!-- $\mathdefault{2}$ -->
      <g transform="translate(24.749375 344.398606)scale(0.11 -0.11)">
       <defs>
        <path d="M 19.1875 8.296875 
L 53.609375 8.296875 
L 53.609375 0 
L 7.328125 0 
L 7.328125 8.296875 
Q 12.9375 14.109375 22.625 23.890625 
Q 32.328125 33.6875 34.8125 36.53125 
Q 39.546875 41.84375 41.421875 45.53125 
Q 43.3125 49.21875 43.3125 52.78125 
Q 43.3125 58.59375 39.234375 62.25 
Q 35.15625 65.921875 28.609375 65.921875 
Q 23.96875 65.921875 18.8125 64.3125 
Q 13.671875 62.703125 7.8125 59.421875 
L 7.8125 69.390625 
Q 13.765625 71.78125 18.9375 73 
Q 24.125 74.21875 28.421875 74.21875 
Q 39.75 74.21875 46.484375 68.546875 
Q 53.21875 62.890625 53.21875 53.421875 
Q 53.21875 48.921875 51.53125 44.890625 
Q 49.859375 40.875 45.40625 35.40625 
Q 44.1875 33.984375 37.640625 27.21875 
Q 31.109375 20.453125 19.1875 8.296875 
z
" id="DejaVuSans-50"/>
       </defs>
       <use transform="translate(0 0.78125)" xlink:href="#DejaVuSans-50"/>
      </g>
     </g>
    </g>
    <g id="text_8">
     <!-- Kunz -->
     <g transform="translate(17.837813 412.411875)rotate(-90)scale(0.14 -0.14)">
      <defs>
       <path d="M 9.8125 72.90625 
L 19.671875 72.90625 
L 19.671875 42.09375 
L 52.390625 72.90625 
L 65.09375 72.90625 
L 28.90625 38.921875 
L 67.671875 0 
L 54.6875 0 
L 19.671875 35.109375 
L 19.671875 0 
L 9.8125 0 
z
" id="DejaVuSans-75"/>
       <path d="M 8.5 21.578125 
L 8.5 54.6875 
L 17.484375 54.6875 
L 17.484375 21.921875 
Q 17.484375 14.15625 20.5 10.265625 
Q 23.53125 6.390625 29.59375 6.390625 
Q 36.859375 6.390625 41.078125 11.03125 
Q 45.3125 15.671875 45.3125 23.6875 
L 45.3125 54.6875 
L 54.296875 54.6875 
L 54.296875 0 
L 45.3125 0 
L 45.3125 8.40625 
Q 42.046875 3.421875 37.71875 1 
Q 33.40625 -1.421875 27.6875 -1.421875 
Q 18.265625 -1.421875 13.375 4.4375 
Q 8.5 10.296875 8.5 21.578125 
z
M 31.109375 56 
z
" id="DejaVuSans-117"/>
      </defs>
      <use xlink:href="#DejaVuSans-75"/>
      <use x="60.576172" xlink:href="#DejaVuSans-117"/>
      <use x="123.955078" xlink:href="#DejaVuSans-110"/>
      <use x="187.333984" xlink:href="#DejaVuSans-122"/>
     </g>
    </g>
   </g>
   <g id="LineCollection_1">
    <path clip-path="url(#pb867af95e9)" d="M 61.915928 493.04022 
L 61.987498 492.99452 
L 61.915928 492.93421 
L 61.87384 492.99452 
L 61.915928 493.04022 
" style="fill:none;stroke:#e41a1c;stroke-width:1.142857;"/>
    <path clip-path="url(#pb867af95e9)" d="M 62.244313 492.844213 
L 62.505258 492.670495 
L 62.572698 492.62893 
L 62.901083 492.377636 
L 62.935691 492.34647 
L 63.229469 492.100588 
L 63.315281 492.022445 
L 63.557854 491.815143 
L 63.684623 491.69842 
L 63.886239 491.522501 
L 64.045333 491.374395 
L 64.214624 491.223588 
L 64.398705 491.05037 
L 64.543009 490.919143 
L 64.745687 490.726345 
L 64.871394 490.60965 
L 65.118319 490.40232 
L 65.199779 490.331608 
L 65.467145 490.078295 
L 65.528164 490.020213 
L 65.806538 489.75427 
L 65.856549 489.705697 
L 66.142537 489.430245 
L 66.184934 489.388214 
L 66.47545 489.10622 
L 66.513319 489.067882 
L 66.805256 488.782195 
L 66.841704 488.744478 
L 67.131976 488.45817 
L 67.170089 488.417813 
L 67.455404 488.134145 
L 67.498474 488.0874 
L 67.775095 487.81012 
L 67.826859 487.752393 
L 68.090348 487.486095 
L 68.155244 487.411457 
L 68.399646 487.16207 
L 68.483629 487.061868 
L 68.701501 486.838045 
L 68.812014 486.700017 
L 68.990104 486.51402 
L 69.140399 486.313953 
L 69.257041 486.189995 
L 69.468784 485.879991 
L 69.481629 485.86597 
L 69.497671 485.541945 
L 69.468784 485.535137 
L 69.459386 485.541945 
L 69.140399 485.757441 
L 68.993025 485.86597 
L 68.812014 485.991099 
L 68.547016 486.189995 
L 68.483629 486.234971 
L 68.155244 486.495914 
L 68.135516 486.51402 
L 67.826859 486.778083 
L 67.76207 486.838045 
L 67.498474 487.067565 
L 67.397217 487.16207 
L 67.170089 487.363379 
L 67.039715 487.486095 
L 66.841704 487.664762 
L 66.688587 487.81012 
L 66.513319 487.971133 
L 66.343071 488.134145 
L 66.184934 488.282066 
L 66.002588 488.45817 
L 65.856549 488.597273 
L 65.666718 488.782195 
L 65.528164 488.91659 
L 65.335177 489.10622 
L 65.199779 489.239969 
L 65.007969 489.430245 
L 64.871394 489.568436 
L 64.685512 489.75427 
L 64.543009 489.90017 
L 64.366389 490.078295 
L 64.214624 490.236575 
L 64.051711 490.40232 
L 63.886239 490.578114 
L 63.741809 490.726345 
L 63.557854 490.925422 
L 63.437171 491.05037 
L 63.229469 491.27934 
L 63.138459 491.374395 
L 62.901083 491.640961 
L 62.84655 491.69842 
L 62.572698 492.011691 
L 62.562581 492.022445 
L 62.31303 492.34647 
L 62.244313 492.449284 
L 62.084464 492.670495 
L 62.244313 492.844213 
" style="fill:none;stroke:#e41a1c;stroke-width:1.142857;"/>
    <path clip-path="url(#pb867af95e9)" d="M 69.140399 487.853461 
L 70.453939 487.108886 
L 73.73779 485.09147 
L 74.066175 485.051558 
L 74.39456 485.315418 
L 75.074916 484.893895 
L 77.225457 482.949745 
L 82.604186 478.215093 
L 83.260956 477.758047 
L 83.917726 477.524058 
L 84.265866 477.765344 
L 84.246111 478.151317 
L 83.824742 479.061444 
L 83.040439 480.681569 
L 83.260956 480.937334 
L 83.917726 480.645265 
L 87.858346 478.34953 
L 87.97383 478.413394 
L 88.186731 478.658178 
L 88.515116 478.699954 
L 90.584455 478.089369 
L 91.798967 477.256041 
L 93.773831 475.821194 
L 96.067972 474.432954 
L 99.527818 471.608869 
L 104.277598 467.860202 
L 105.063527 467.396543 
L 104.934368 467.80584 
L 102.557962 470.960819 
L 102.697639 470.960819 
L 104.277598 469.916778 
L 105.262753 469.287319 
L 105.591138 469.150468 
L 106.247908 469.329834 
L 106.904678 468.964796 
L 108.874989 467.304245 
L 112.815609 463.80694 
L 115.511215 461.888118 
L 116.451765 461.240068 
L 119.711695 458.555951 
L 121.975639 456.703717 
L 124.366921 455.083592 
L 125.95101 454.3721 
L 127.921321 453.047576 
L 131.861941 450.113779 
L 135.474177 447.299862 
L 136.262179 446.982967 
L 135.919721 447.631017 
L 135.32925 448.603092 
L 135.474177 448.692782 
L 136.204244 448.279067 
L 138.248871 446.658942 
L 140.075593 445.038816 
L 143.524628 441.798566 
L 148.049182 437.262216 
L 156.819204 428.186802 
L 159.446284 425.79052 
L 160.103054 425.2626 
L 160.431439 425.147212 
L 160.759824 425.359628 
L 161.744979 424.728286 
L 162.40175 424.218012 
L 162.760153 424.301215 
L 162.328488 424.949265 
L 161.19151 426.56939 
L 161.451169 426.56939 
L 163.05852 425.214358 
L 165.6856 422.660646 
L 168.329675 419.764864 
L 170.93976 416.746688 
L 184.075162 402.650372 
L 192.284788 394.406106 
L 194.911868 391.478522 
L 197.027899 388.982487 
L 201.151184 384.049219 
L 208.798337 375.373436 
L 209.032425 374.953523 
L 208.306539 375.049411 
L 209.689195 373.340983 
L 215.372724 367.27281 
L 223.519865 358.84816 
L 224.959682 356.904009 
L 226.765217 354.189526 
L 227.890691 352.691684 
L 229.722621 350.423509 
L 230.565931 349.127409 
L 231.471881 347.507284 
L 232.694435 345.887158 
L 236.288383 340.991291 
L 235.959998 340.904504 
L 235.959998 340.581145 
L 236.616768 339.694886 
L 237.979382 338.110558 
L 244.571888 330.009932 
L 245.811549 328.319688 
L 246.098318 327.741757 
L 246.139934 327.070152 
L 246.874454 325.797607 
L 248.528832 323.529432 
L 251.065709 320.099164 
L 258.485332 311.216481 
L 258.618565 310.793445 
L 258.161645 310.892456 
L 256.648255 311.712877 
L 256.648255 311.476104 
L 258.29018 309.268776 
L 261.032499 306.03208 
L 262.559186 304.162664 
L 265.616812 300.523655 
L 267.350062 298.25548 
L 267.156576 298.062297 
L 265.514651 299.421127 
L 262.230801 302.386687 
L 262.116035 302.14378 
L 266.558674 297.283405 
L 267.813346 295.572894 
L 267.813346 295.26638 
L 266.828191 295.854774 
L 261.902416 299.941875 
L 261.574031 300.065237 
L 261.44259 299.875605 
L 261.245646 299.803367 
L 260.26049 300.349331 
L 256.58431 303.43988 
L 254.459863 305.38403 
L 252.050865 307.71988 
L 248.008771 311.864531 
L 243.908335 316.724906 
L 242.856083 318.216098 
L 241.840849 319.317106 
L 237.930308 322.961491 
L 232.584129 328.065782 
L 217.767432 343.294958 
L 216.22007 345.239108 
L 216.062769 345.563133 
L 216.256896 345.736808 
L 216.913666 345.418975 
L 217.094594 345.563133 
L 216.585281 346.322531 
L 212.64466 351.412925 
L 208.04727 355.955291 
L 204.435034 359.591457 
L 203.102409 361.116335 
L 202.943263 361.44036 
L 203.206091 361.44036 
L 203.778264 361.029408 
L 204.106649 360.949789 
L 204.211021 361.116335 
L 203.749786 361.764385 
L 202.464724 363.106752 
L 196.553793 369.237644 
L 194.583225 371.485136 
L 193.883966 372.457211 
L 193.926713 372.594752 
L 194.255098 372.578347 
L 194.392371 372.781236 
L 193.926713 373.45126 
L 190.314478 377.071048 
L 181.776467 385.542217 
L 177.94816 389.630537 
L 172.581686 395.640418 
L 168.96945 399.384241 
L 165.592331 402.591538 
L 164.37206 403.316558 
L 163.430371 403.563613 
L 162.730135 404.190606 
L 145.325728 422.036064 
L 142.041877 425.078232 
L 139.743182 427.201538 
L 139.622064 426.893415 
L 141.888497 423.97719 
L 141.713492 423.851848 
L 140.262658 424.949265 
L 137.116102 427.667713 
L 126.936166 436.638045 
L 125.921484 437.262216 
L 125.22095 437.586241 
L 123.9807 438.476167 
L 117.084615 444.770325 
L 112.932802 448.603092 
L 108.218219 452.56964 
L 108.103829 452.491392 
L 108.546604 451.827272 
L 112.815609 447.271373 
L 115.952701 444.390766 
L 117.413 443.060852 
L 122.995545 437.612849 
L 125.622625 434.830789 
L 126.867271 433.373916 
L 127.749034 432.077815 
L 127.592936 431.923798 
L 126.936166 432.2921 
L 122.995545 435.664975 
L 117.717087 440.826491 
L 117.084615 441.362626 
L 116.099459 442.294536 
L 113.754401 444.390766 
L 112.487224 445.400151 
L 107.233063 450.020271 
L 101.161634 456.055667 
L 95.192993 462.536168 
L 92.345535 465.452393 
L 85.195452 471.932894 
L 82.275801 474.103441 
L 76.36487 479.475678 
L 71.623778 484.245845 
L 69.468784 486.909012 
L 69.098046 487.486095 
L 69.140399 487.853461 
L 69.140399 487.853461 
" style="fill:none;stroke:#e41a1c;stroke-width:1.142857;"/>
    <path clip-path="url(#pb867af95e9)" d="M 107.889833 452.821595 
L 107.881208 452.815417 
L 107.889833 452.801269 
L 107.898527 452.815417 
L 107.889833 452.821595 
" style="fill:none;stroke:#e41a1c;stroke-width:1.142857;"/>
    <path clip-path="url(#pb867af95e9)" d="M 139.414797 427.359052 
L 139.359026 427.21744 
L 139.414797 427.145436 
L 139.711829 427.21744 
L 139.414797 427.359052 
" style="fill:none;stroke:#e41a1c;stroke-width:1.142857;"/>
    <path clip-path="url(#pb867af95e9)" d="M 194.583483 372.475447 
L 194.543393 372.457211 
L 194.583483 372.442263 
L 194.595366 372.457211 
L 194.583483 372.475447 
" style="fill:none;stroke:#e41a1c;stroke-width:1.142857;"/>
    <path clip-path="url(#pb867af95e9)" d="M 204.435034 360.803945 
L 204.409435 360.79231 
L 204.435034 360.781094 
L 204.444144 360.79231 
L 204.435034 360.803945 
" style="fill:none;stroke:#e41a1c;stroke-width:1.142857;"/>
    <path clip-path="url(#pb867af95e9)" d="M 217.242051 345.366857 
L 217.144088 345.239108 
L 217.242051 345.157645 
L 217.309946 345.239108 
L 217.242051 345.366857 
" style="fill:none;stroke:#e41a1c;stroke-width:1.142857;"/>
    <path clip-path="url(#pb867af95e9)" d="M 223.809751 338.761646 
L 223.804378 338.758608 
L 223.809751 338.753451 
L 223.813576 338.758608 
L 223.809751 338.761646 
" style="fill:none;stroke:#e41a1c;stroke-width:1.142857;"/>
    <path clip-path="url(#pb867af95e9)" d="M 224.466521 338.115373 
L 224.459855 338.110558 
L 224.466521 338.101916 
L 224.472423 338.110558 
L 224.466521 338.115373 
" style="fill:none;stroke:#e41a1c;stroke-width:1.142857;"/>
    <path clip-path="url(#pb867af95e9)" d="M 224.794906 337.843265 
L 224.715712 337.786533 
L 224.794906 337.68449 
L 224.849635 337.786533 
L 224.794906 337.843265 
" style="fill:none;stroke:#e41a1c;stroke-width:1.142857;"/>
    <path clip-path="url(#pb867af95e9)" d="M 225.123292 337.517113 
L 225.018927 337.462508 
L 225.123292 337.34633 
L 225.186318 337.462508 
L 225.123292 337.517113 
" style="fill:none;stroke:#e41a1c;stroke-width:1.142857;"/>
    <path clip-path="url(#pb867af95e9)" d="M 225.451677 337.229954 
L 225.293823 337.138483 
L 225.451677 336.935952 
L 225.554527 337.138483 
L 225.451677 337.229954 
" style="fill:none;stroke:#e41a1c;stroke-width:1.142857;"/>
    <path clip-path="url(#pb867af95e9)" d="M 225.780062 336.941433 
L 225.549541 336.814458 
L 225.780062 336.533565 
L 225.817717 336.490433 
L 226.103462 336.166408 
L 226.108447 336.161138 
L 226.419245 335.842383 
L 226.436832 335.823981 
L 226.738201 335.518358 
L 226.765217 335.490439 
L 227.061002 335.194333 
L 227.093602 335.161127 
L 227.388119 334.870308 
L 227.421987 334.836368 
L 227.720309 334.546283 
L 227.750372 334.516698 
L 228.058237 334.222258 
L 228.078757 334.202458 
L 228.407142 333.907697 
L 228.503483 334.222258 
L 228.407142 334.330763 
L 228.216691 334.546283 
L 228.078757 334.712711 
L 227.928319 334.870308 
L 227.750372 335.056933 
L 227.615855 335.194333 
L 227.421987 335.392363 
L 227.295473 335.518358 
L 227.093602 335.718696 
L 226.966629 335.842383 
L 226.765217 336.038968 
L 226.630951 336.166408 
L 226.436832 336.34945 
L 226.284958 336.490433 
L 226.108447 336.65325 
L 225.931123 336.814458 
L 225.780062 336.941433 
" style="fill:none;stroke:#e41a1c;stroke-width:1.142857;"/>
    <path clip-path="url(#pb867af95e9)" d="M 228.735527 333.965373 
L 228.422121 333.898233 
L 228.735527 333.693398 
L 228.792635 333.898233 
L 228.735527 333.965373 
" style="fill:none;stroke:#e41a1c;stroke-width:1.142857;"/>
    <path clip-path="url(#pb867af95e9)" d="M 229.063912 333.589907 
L 228.967489 333.574208 
L 229.063912 333.546711 
L 229.077053 333.574208 
L 229.063912 333.589907 
" style="fill:none;stroke:#e41a1c;stroke-width:1.142857;"/>
    <path clip-path="url(#pb867af95e9)" d="M 260.91726 303.457771 
L 260.905592 303.43988 
L 260.91726 303.426741 
L 260.938995 303.43988 
L 260.91726 303.457771 
" style="fill:none;stroke:#e41a1c;stroke-width:1.142857;"/>
    <path clip-path="url(#pb867af95e9)" d="M 261.245646 303.196917 
L 261.191156 303.115855 
L 261.245646 303.058838 
L 261.357179 303.115855 
L 261.245646 303.196917 
" style="fill:none;stroke:#e41a1c;stroke-width:1.142857;"/>
    <path clip-path="url(#pb867af95e9)" d="M 261.574031 302.923201 
L 261.501573 302.79183 
L 261.574031 302.714443 
L 261.73048 302.79183 
L 261.574031 302.923201 
" style="fill:none;stroke:#e41a1c;stroke-width:1.142857;"/>
    <path clip-path="url(#pb867af95e9)" d="M 261.902416 302.646238 
L 261.804864 302.467805 
L 261.902416 302.364896 
L 262.139432 302.467805 
L 261.902416 302.646238 
" style="fill:none;stroke:#e41a1c;stroke-width:1.142857;"/>
    <path clip-path="url(#pb867af95e9)" d="M 267.484961 298.040755 
L 267.553112 297.931455 
L 267.484961 297.849855 
L 267.372054 297.931455 
L 267.484961 298.040755 
" style="fill:none;stroke:#e41a1c;stroke-width:1.142857;"/>
   </g>
   <g id="LineCollection_2">
    <path clip-path="url(#pb867af95e9)" d="M 73.409405 483.755604 
L 74.722945 483.24228 
L 76.36487 482.200331 
L 80.30549 479.493145 
L 83.805508 476.469244 
L 85.559651 475.168997 
L 87.529961 474.429186 
L 87.858346 474.346946 
L 88.041019 474.525094 
L 87.760285 475.173144 
L 87.231561 476.469244 
L 87.529961 476.543253 
L 88.515116 476.086365 
L 90.485427 474.772883 
L 94.426047 471.857903 
L 94.512159 471.932894 
L 93.973389 473.228994 
L 94.097662 473.359218 
L 94.754432 473.114433 
L 99.680208 470.592872 
L 102.054948 468.692643 
L 110.712024 461.888118 
L 110.845299 461.830871 
L 111.830454 461.813384 
L 113.526846 460.916043 
L 113.356275 461.564093 
L 113.472379 461.662353 
L 113.800764 461.542781 
L 117.084615 458.920111 
L 119.054925 457.341868 
L 122.711667 454.759567 
L 125.152432 453.139442 
L 128.578091 451.052898 
L 130.254916 449.899192 
L 132.518711 448.18984 
L 135.474177 445.892565 
L 137.116102 444.70542 
L 140.071567 442.288367 
L 143.027032 439.905485 
L 143.392996 439.854416 
L 142.853567 440.826491 
L 141.982773 442.122591 
L 142.041877 442.253562 
L 142.370262 442.122569 
L 144.997343 439.68372 
L 149.923118 434.636493 
L 155.399784 428.837565 
L 162.730135 421.880828 
L 169.62622 415.689119 
L 171.995466 413.608389 
L 175.208766 410.479599 
L 181.10104 404.535688 
L 183.173345 402.591538 
L 190.642863 395.350508 
L 192.941558 392.785656 
L 194.945691 390.278587 
L 198.195719 386.2844 
L 200.168767 383.798087 
L 200.166029 383.715 
L 199.837644 383.66356 
L 199.509259 383.855308 
L 199.12037 383.798087 
L 199.515037 383.150036 
L 202.793109 379.563961 
L 211.002735 371.009576 
L 215.658698 365.97671 
L 217.245456 364.03256 
L 218.039605 362.73646 
L 218.227206 362.056134 
L 219.461156 360.468285 
L 224.23927 354.959859 
L 225.123292 353.631599 
L 225.982999 352.367659 
L 229.788777 347.507284 
L 230.059196 346.859234 
L 230.22746 346.211184 
L 230.88469 345.239108 
L 232.019377 343.835351 
L 235.303228 339.967274 
L 236.31262 338.434583 
L 237.273538 337.087876 
L 240.949873 332.602132 
L 241.4317 331.630057 
L 241.870928 330.799255 
L 242.649681 329.685907 
L 244.826394 326.943819 
L 247.125089 323.983164 
L 252.862921 316.724906 
L 252.707635 316.582485 
L 251.394094 317.230894 
L 251.298092 317.048931 
L 253.03602 313.808555 
L 255.6631 310.860151 
L 260.818884 305.38403 
L 262.357917 303.43988 
L 262.230801 303.24139 
L 261.245646 304.001642 
L 256.648255 308.078319 
L 255.483358 308.948306 
L 255.334715 309.033635 
L 255.224418 308.948306 
L 255.557451 308.300255 
L 257.23817 306.356105 
L 258.887181 304.73598 
L 260.91726 302.739603 
L 263.953981 299.55158 
L 264.724521 298.579505 
L 264.529496 298.39027 
L 263.450606 299.227555 
L 261.245646 301.222592 
L 257.63341 304.788692 
L 257.305025 305.146453 
L 257.072081 305.060005 
L 257.63341 304.372834 
L 258.406718 303.43988 
L 259.315485 301.819755 
L 259.227904 301.819755 
L 258.600793 302.14378 
L 257.305025 303.158699 
L 253.69279 306.419773 
L 249.2337 310.892456 
L 246.452639 314.132706 
L 246.139934 314.86465 
L 247.125089 314.355692 
L 249.752169 312.176147 
L 256.156496 306.03208 
L 256.648255 305.506133 
L 256.792364 305.708055 
L 255.334715 307.460337 
L 253.875988 308.948306 
L 250.988089 311.540506 
L 249.423784 312.908258 
L 248.110244 314.156671 
L 238.258693 323.297788 
L 234.511889 326.769682 
L 232.40407 329.037857 
L 232.676147 329.18034 
L 233.332917 328.945261 
L 233.401515 329.037857 
L 233.332917 329.390615 
L 232.676147 330.407409 
L 231.362607 332.065904 
L 225.713453 338.434583 
L 225.8432 338.758608 
L 225.451677 339.414461 
L 222.662355 342.322883 
L 214.286585 350.765946 
L 211.95899 353.339734 
L 211.529059 353.987784 
L 211.659505 354.283483 
L 213.08728 353.663759 
L 212.340851 354.635834 
L 209.36081 357.565202 
L 206.733729 360.16579 
L 204.435034 362.762435 
L 203.778264 363.8043 
L 199.355888 369.21696 
L 199.509259 369.355297 
L 201.479569 367.728068 
L 203.6104 365.97671 
L 203.778264 365.877279 
L 203.863225 365.97671 
L 203.121494 366.977185 
L 199.97376 370.189035 
L 191.808291 377.641611 
L 188.344167 380.385435 
L 181.472908 387.362362 
L 177.382248 391.898712 
L 172.910071 396.779446 
L 168.31268 401.45584 
L 162.40175 407.164367 
L 159.446284 409.764496 
L 157.475974 411.194379 
L 155.834049 412.452012 
L 152.845399 415.228514 
L 149.266348 418.799766 
L 144.906154 423.005115 
L 134.489021 432.438541 
L 134.196819 432.40184 
L 135.145792 431.053707 
L 136.021572 429.80964 
L 135.802562 429.701872 
L 132.190326 432.617173 
L 127.592936 436.725671 
L 123.9807 439.972702 
L 122.995545 440.708655 
L 122.66716 440.881734 
L 122.01039 440.965767 
L 121.277525 441.474541 
L 119.054925 443.427716 
L 111.331323 450.547242 
L 108.218219 453.227143 
L 105.988879 455.083592 
L 104.605983 456.125726 
L 104.414242 456.055667 
L 104.934368 455.375224 
L 108.389814 451.519317 
L 109.860144 449.873249 
L 113.834321 445.686867 
L 120.760506 439.530391 
L 123.871498 436.290141 
L 125.29424 434.44083 
L 125.29424 434.290256 
L 124.226111 434.994041 
L 122.66716 436.338527 
L 119.009672 439.854416 
L 114.129149 444.754699 
L 112.430746 446.010892 
L 110.516914 447.436214 
L 105.919523 451.580054 
L 101.468657 456.055667 
L 94.946313 463.184218 
L 90.485427 467.554358 
L 85.231266 472.481445 
L 82.604186 474.669629 
L 78.99195 477.504614 
L 75.994682 480.357544 
L 73.915649 482.625719 
L 73.257933 483.597795 
L 73.409405 483.755604 
L 73.409405 483.755604 
" style="fill:none;stroke:#e41a1c;stroke-width:1.142857;"/>
    <path clip-path="url(#pb867af95e9)" d="M 104.277598 456.385398 
L 104.262258 456.379692 
L 104.277598 456.343665 
L 104.28548 456.379692 
L 104.277598 456.385398 
" style="fill:none;stroke:#e41a1c;stroke-width:1.142857;"/>
    <path clip-path="url(#pb867af95e9)" d="M 136.130947 429.562152 
L 136.16717 429.485615 
L 136.130947 429.468341 
L 136.107479 429.485615 
L 136.130947 429.562152 
" style="fill:none;stroke:#e41a1c;stroke-width:1.142857;"/>
    <path clip-path="url(#pb867af95e9)" d="M 175.537151 409.074263 
L 175.515409 409.072039 
L 175.531559 408.748014 
L 175.537151 408.741692 
L 175.834822 408.423989 
L 175.865536 408.389686 
L 176.14547 408.099964 
L 176.193921 408.045372 
L 176.442081 407.775938 
L 176.522306 407.683046 
L 176.743962 407.451913 
L 176.850691 407.334221 
L 177.060849 407.127888 
L 177.179076 406.998731 
L 177.360674 406.803863 
L 177.507461 406.646073 
L 177.675066 406.479838 
L 177.835846 406.310394 
L 178.007812 406.155813 
L 178.164231 405.978928 
L 178.320915 405.831788 
L 178.492616 405.66629 
L 178.666306 405.507763 
L 178.821001 405.342465 
L 178.997352 405.183738 
L 179.149386 404.981419 
L 179.284646 404.859713 
L 179.477771 404.703479 
L 179.620988 404.859713 
L 179.497177 405.183738 
L 179.477771 405.210381 
L 179.149386 405.485984 
L 179.1309 405.507763 
L 178.844448 405.831788 
L 178.821001 405.85762 
L 178.556424 406.155813 
L 178.492616 406.224765 
L 178.262212 406.479838 
L 178.164231 406.604174 
L 177.994429 406.803863 
L 177.835846 406.934813 
L 177.612971 407.127888 
L 177.507461 407.226514 
L 177.277071 407.451913 
L 177.179076 407.546144 
L 176.954806 407.775938 
L 176.850691 407.89445 
L 176.653081 408.099964 
L 176.522306 408.216969 
L 176.253171 408.423989 
L 176.193921 408.471409 
L 175.909997 408.748014 
L 175.865536 408.793162 
L 175.539738 409.072039 
L 175.537151 409.074263 
" style="fill:none;stroke:#e41a1c;stroke-width:1.142857;"/>
    <path clip-path="url(#pb867af95e9)" d="M 179.806156 404.616609 
L 179.712211 404.535688 
L 179.806156 404.456225 
L 179.861943 404.535688 
L 179.806156 404.616609 
" style="fill:none;stroke:#e41a1c;stroke-width:1.142857;"/>
    <path clip-path="url(#pb867af95e9)" d="M 199.180874 369.576021 
L 199.231605 369.540985 
L 199.180874 369.483665 
L 199.145553 369.540985 
L 199.180874 369.576021 
" style="fill:none;stroke:#e41a1c;stroke-width:1.142857;"/>
    <path clip-path="url(#pb867af95e9)" d="M 232.347762 329.372587 
L 232.367919 329.361882 
L 232.347762 329.268874 
L 232.319255 329.361882 
L 232.347762 329.372587 
" style="fill:none;stroke:#e41a1c;stroke-width:1.142857;"/>
    <path clip-path="url(#pb867af95e9)" d="M 256.97664 305.512151 
L 256.78606 305.38403 
L 256.97664 305.137124 
L 257.08274 305.38403 
L 256.97664 305.512151 
" style="fill:none;stroke:#e41a1c;stroke-width:1.142857;"/>
    <path clip-path="url(#pb867af95e9)" d="M 262.559186 303.158164 
L 262.588781 303.115855 
L 262.559186 303.061401 
L 262.469455 303.115855 
L 262.559186 303.158164 
" style="fill:none;stroke:#e41a1c;stroke-width:1.142857;"/>
    <path clip-path="url(#pb867af95e9)" d="M 264.857881 298.356353 
L 264.925333 298.25548 
L 264.857881 298.19418 
L 264.758501 298.25548 
L 264.857881 298.356353 
" style="fill:none;stroke:#e41a1c;stroke-width:1.142857;"/>
   </g>
   <g id="LineCollection_3">
    <path clip-path="url(#pb867af95e9)" d="M 83.917726 475.192943 
L 85.888036 473.738343 
L 89.500271 470.930134 
L 90.929725 470.312769 
L 92.595053 469.016668 
L 95.411202 466.78926 
L 95.411202 467.105734 
L 93.942658 469.340693 
L 94.097662 469.613872 
L 95.260559 468.692643 
L 97.053127 467.001969 
L 101.989408 462.212143 
L 104.934368 459.632358 
L 105.311439 459.619943 
L 104.489777 460.916043 
L 103.620828 462.245512 
L 103.501928 462.536168 
L 103.620828 462.794561 
L 104.277598 462.444131 
L 105.745743 461.240068 
L 109.203374 458.115865 
L 110.270701 457.027742 
L 111.173684 456.002299 
L 114.129149 452.681419 
L 118.72654 447.614237 
L 123.504369 442.446616 
L 124.018825 441.798566 
L 124.145961 441.474541 
L 123.97563 441.474541 
L 108.218219 454.188222 
L 106.576293 455.55952 
L 101.55593 459.619943 
L 98.695052 462.021887 
L 96.396357 463.930378 
L 96.186975 463.832268 
L 96.724742 463.122561 
L 98.695052 461.027265 
L 101.765681 457.999818 
L 104.298705 455.407617 
L 107.561448 451.815193 
L 109.531759 449.349005 
L 109.601255 449.251142 
L 109.531759 448.998834 
L 108.874989 449.403506 
L 106.762804 451.195292 
L 104.605983 453.255959 
L 101.621843 456.379692 
L 94.754432 463.983959 
L 84.574496 474.043858 
L 83.874512 474.849119 
L 83.794073 475.173144 
L 83.917726 475.192943 
L 83.917726 475.192943 
" style="fill:none;stroke:#e41a1c;stroke-width:1.142857;"/>
    <path clip-path="url(#pb867af95e9)" d="M 93.769277 469.684615 
L 93.84327 469.664718 
L 93.769277 469.64976 
L 93.761243 469.664718 
L 93.769277 469.684615 
" style="fill:none;stroke:#e41a1c;stroke-width:1.142857;"/>
    <path clip-path="url(#pb867af95e9)" d="M 96.067972 464.185546 
L 96.008073 464.156293 
L 96.067972 464.046872 
L 96.10468 464.156293 
L 96.067972 464.185546 
" style="fill:none;stroke:#e41a1c;stroke-width:1.142857;"/>
    <path clip-path="url(#pb867af95e9)" d="M 108.546604 461.414469 
L 109.531759 460.889475 
L 110.963785 459.943968 
L 116.108141 456.055667 
L 118.398155 454.613327 
L 122.01039 452.118867 
L 123.652315 451.179608 
L 127.497988 448.279067 
L 128.425935 447.631017 
L 129.891631 446.717248 
L 131.205171 445.889601 
L 131.533556 445.830144 
L 131.533556 446.055271 
L 131.425307 446.334917 
L 131.533556 446.668485 
L 131.558627 446.658942 
L 132.245967 446.334917 
L 133.966887 445.038816 
L 136.130947 443.093898 
L 139.086412 440.164319 
L 144.099973 434.994041 
L 145.654113 433.45312 
L 149.594733 429.960539 
L 149.923118 429.750976 
L 150.361076 429.80964 
L 151.336933 429.16159 
L 157.475974 423.919614 
L 161.088209 420.412859 
L 164.544793 416.848639 
L 168.31268 412.89197 
L 169.297835 412.074313 
L 169.954605 411.68258 
L 170.401029 411.664239 
L 170.611375 411.587066 
L 173.895226 408.374783 
L 178.164231 403.859234 
L 184.075162 397.91763 
L 189.677835 392.222737 
L 193.617817 387.686387 
L 193.926713 386.995684 
L 193.598328 387.066297 
L 191.956403 388.113234 
L 191.186779 388.658462 
L 190.971248 388.778735 
L 190.806583 388.658462 
L 191.299633 387.980995 
L 197.867333 381.164854 
L 206.076959 373.038153 
L 210.67435 368.221791 
L 212.850263 365.652685 
L 213.231438 365.004635 
L 213.30143 364.418469 
L 213.322788 364.356585 
L 216.256896 360.676838 
L 221.182671 355.409123 
L 223.604857 352.691684 
L 224.466521 351.437546 
L 224.466521 351.272917 
L 224.050279 351.395584 
L 223.152981 352.059781 
L 220.010288 354.635834 
L 219.518209 354.959859 
L 219.212361 355.050232 
L 218.954176 354.959859 
L 219.212361 354.414185 
L 219.540746 353.965464 
L 221.641331 351.719609 
L 232.889945 340.378733 
L 233.989688 338.905587 
L 233.989688 338.661615 
L 233.332917 338.92379 
L 232.676147 339.292465 
L 232.504587 339.082633 
L 233.450466 337.786533 
L 233.989688 337.071754 
L 234.380225 336.490433 
L 234.318073 336.359674 
L 233.989687 336.563649 
L 233.661302 336.700257 
L 233.573507 336.490433 
L 239.243848 330.969914 
L 241.401567 328.713832 
L 243.657883 326.121632 
L 244.802247 324.501507 
L 244.498009 324.225858 
L 244.169624 324.291072 
L 243.971508 324.177482 
L 244.228252 323.529432 
L 244.498009 322.788198 
L 244.169624 322.781457 
L 244.053371 322.557357 
L 245.055548 321.261257 
L 248.110244 317.804126 
L 250.452272 315.104781 
L 250.661256 314.780756 
L 250.29958 314.780756 
L 248.767014 315.807727 
L 248.434467 315.752831 
L 248.438629 315.74739 
L 249.336719 314.456731 
L 249.423784 314.08104 
L 248.732376 314.456731 
L 246.742826 316.076856 
L 244.275217 318.345031 
L 240.696691 321.909307 
L 239.035479 323.853457 
L 238.850816 324.177482 
L 238.915463 324.870033 
L 236.616768 327.524832 
L 233.949271 330.657982 
L 233.884886 330.982007 
L 234.058628 330.982007 
L 235.303228 330.189765 
L 238.587078 327.697346 
L 238.915463 327.5735 
L 238.915463 327.753328 
L 236.945153 329.881085 
L 234.573284 332.278107 
L 228.735527 338.222003 
L 225.451677 341.815161 
L 220.261651 347.831309 
L 220.040345 348.155334 
L 220.197516 348.4141 
L 221.182671 347.680674 
L 228.078757 341.646703 
L 228.344265 341.674833 
L 227.421987 342.666549 
L 220.854286 349.013786 
L 216.913666 352.539751 
L 212.629732 357.228034 
L 212.316275 357.992992 
L 212.458112 358.200109 
L 212.316275 358.540744 
L 204.435034 367.428708 
L 200.166029 371.631561 
L 197.033764 374.725386 
L 191.956403 380.103797 
L 173.476511 400.323363 
L 170.611375 402.961011 
L 170.224241 403.239588 
L 170.28299 402.834422 
L 171.34749 401.295438 
L 171.268146 401.070762 
L 170.611375 401.511386 
L 168.248278 403.563613 
L 164.37206 407.262671 
L 157.475974 414.342365 
L 155.32041 416.524614 
L 151.149499 420.412914 
L 148.258115 423.005115 
L 144.997343 426.329563 
L 141.36027 430.133665 
L 139.414797 431.843453 
L 138.758027 432.305252 
L 138.641716 432.077815 
L 139.518722 430.781715 
L 140.114329 429.80964 
L 140.497686 428.837565 
L 140.842943 428.189515 
L 140.645147 428.189515 
L 139.065551 429.485615 
L 130.548401 437.319554 
L 126.279396 440.570605 
L 123.358558 443.418691 
L 121.682005 445.58801 
L 121.609574 445.686867 
L 121.35362 446.365378 
L 120.04008 447.994224 
L 112.69693 455.407617 
L 112.28237 456.055667 
L 110.99552 457.675792 
L 108.463189 460.916043 
L 108.247744 461.240068 
L 108.546604 461.414469 
L 108.546604 461.414469 
" style="fill:none;stroke:#e41a1c;stroke-width:1.142857;"/>
    <path clip-path="url(#pb867af95e9)" d="M 190.642863 389.002529 
L 190.620095 388.982487 
L 190.642863 388.94001 
L 190.669575 388.982487 
L 190.642863 389.002529 
" style="fill:none;stroke:#e41a1c;stroke-width:1.142857;"/>
    <path clip-path="url(#pb867af95e9)" d="M 219.869131 348.54606 
L 220.013868 348.479359 
L 219.869131 348.429361 
L 219.838386 348.479359 
L 219.869131 348.54606 
" style="fill:none;stroke:#e41a1c;stroke-width:1.142857;"/>
    <path clip-path="url(#pb867af95e9)" d="M 228.407142 341.514536 
L 228.39976 341.350808 
L 228.407142 341.34415 
L 228.719604 341.350808 
L 228.407142 341.514536 
" style="fill:none;stroke:#e41a1c;stroke-width:1.142857;"/>
    <path clip-path="url(#pb867af95e9)" d="M 232.676147 337.467929 
L 232.67156 337.462508 
L 232.676147 337.458018 
L 232.684774 337.462508 
L 232.676147 337.467929 
" style="fill:none;stroke:#e41a1c;stroke-width:1.142857;"/>
    <path clip-path="url(#pb867af95e9)" d="M 233.004532 337.227134 
L 232.950682 337.138483 
L 233.004532 337.08934 
L 233.112924 337.138483 
L 233.004532 337.227134 
" style="fill:none;stroke:#e41a1c;stroke-width:1.142857;"/>
    <path clip-path="url(#pb867af95e9)" d="M 233.332917 336.908348 
L 233.290574 336.814458 
L 233.332917 336.771667 
L 233.475363 336.814458 
L 233.332917 336.908348 
" style="fill:none;stroke:#e41a1c;stroke-width:1.142857;"/>
    <path clip-path="url(#pb867af95e9)" d="M 234.646458 336.169397 
L 234.648817 336.166408 
L 234.646458 336.160684 
L 234.637828 336.166408 
L 234.646458 336.169397 
" style="fill:none;stroke:#e41a1c;stroke-width:1.142857;"/>
    <path clip-path="url(#pb867af95e9)" d="M 243.841239 322.903687 
L 243.828866 322.881382 
L 243.841239 322.864088 
L 243.902801 322.881382 
L 243.841239 322.903687 
" style="fill:none;stroke:#e41a1c;stroke-width:1.142857;"/>
    <path clip-path="url(#pb867af95e9)" d="M 249.095399 311.892487 
L 249.140426 311.864531 
L 249.095399 311.829512 
L 249.070827 311.864531 
L 249.095399 311.892487 
" style="fill:none;stroke:#e41a1c;stroke-width:1.142857;"/>
    <path clip-path="url(#pb867af95e9)" d="M 249.423784 311.703323 
L 249.668922 311.540506 
L 249.752169 311.489802 
L 250.080554 311.242153 
L 250.108786 311.216481 
L 250.408939 310.964693 
L 250.487572 310.892456 
L 250.737324 310.678437 
L 250.855901 310.568431 
L 251.065709 310.38487 
L 251.215686 310.244406 
L 251.394094 310.085108 
L 251.568355 309.920381 
L 251.722479 309.779102 
L 251.912144 309.596356 
L 252.050865 309.467543 
L 252.253947 309.272331 
L 252.37925 309.153665 
L 252.590958 308.948306 
L 252.707635 308.835617 
L 252.923542 308.624281 
L 253.03602 308.513491 
L 253.251898 308.300255 
L 253.364405 308.187228 
L 253.576072 307.97623 
L 253.69279 307.856407 
L 253.895032 307.652205 
L 254.021175 307.520364 
L 254.210517 307.32818 
L 254.34956 307.179769 
L 254.520624 307.004155 
L 254.677945 306.832844 
L 254.825499 306.68013 
L 255.00633 306.478976 
L 255.12381 306.356105 
L 255.334715 306.116287 
L 255.414346 306.03208 
L 255.6631 305.742712 
L 255.695494 305.708055 
L 255.949279 305.38403 
L 255.991485 305.31553 
L 256.163562 305.060005 
L 255.991485 304.917559 
L 255.790448 305.060005 
L 255.6631 305.143743 
L 255.334866 305.38403 
L 255.334715 305.384134 
L 255.00633 305.663715 
L 254.958349 305.708055 
L 254.677945 305.951263 
L 254.591254 306.03208 
L 254.34956 306.245612 
L 254.232067 306.356105 
L 254.021175 306.54589 
L 253.879673 306.68013 
L 253.69279 306.851438 
L 253.533211 307.004155 
L 253.364405 307.161769 
L 253.192031 307.32818 
L 253.03602 307.476561 
L 252.855664 307.652205 
L 252.707635 307.7956 
L 252.523771 307.97623 
L 252.37925 308.118846 
L 252.196203 308.300255 
L 252.050865 308.446347 
L 251.872888 308.624281 
L 251.722479 308.778283 
L 251.553896 308.948306 
L 251.394094 309.114973 
L 251.239427 309.272331 
L 251.065709 309.456886 
L 250.929819 309.596356 
L 250.737324 309.804518 
L 250.625403 309.920381 
L 250.408939 310.158955 
L 250.327122 310.244406 
L 250.080554 310.52121 
L 250.035735 310.568431 
L 249.752513 310.892456 
L 249.752169 310.892945 
L 249.50938 311.216481 
L 249.423784 311.343576 
L 249.280913 311.540506 
L 249.423784 311.703323 
" style="fill:none;stroke:#e41a1c;stroke-width:1.142857;"/>
    <path clip-path="url(#pb867af95e9)" d="M 256.31987 304.78928 
L 256.35389 304.73598 
L 256.31987 304.708266 
L 256.279468 304.73598 
L 256.31987 304.78928 
" style="fill:none;stroke:#e41a1c;stroke-width:1.142857;"/>
   </g>
   <g id="patch_3">
    <path d="M 35.289375 525.1 
L 35.289375 266.15 
" style="fill:none;stroke:#000000;stroke-linecap:square;stroke-linejoin:miter;stroke-width:0.8;"/>
   </g>
   <g id="patch_4">
    <path d="M 297.72375 525.1 
L 297.72375 266.15 
" style="fill:none;stroke:#000000;stroke-linecap:square;stroke-linejoin:miter;stroke-width:0.8;"/>
   </g>
   <g id="patch_5">
    <path d="M 35.289375 525.1 
L 297.72375 525.1 
" style="fill:none;stroke:#000000;stroke-linecap:square;stroke-linejoin:miter;stroke-width:0.8;"/>
   </g>
   <g id="patch_6">
    <path d="M 35.289375 266.15 
L 297.72375 266.15 
" style="fill:none;stroke:#000000;stroke-linecap:square;stroke-linejoin:miter;stroke-width:0.8;"/>
   </g>
  </g>
  <g id="axes_2">
   <g id="patch_7">
    <path d="M 35.289375 266.15 
L 297.72375 266.15 
L 297.72375 7.2 
L 35.289375 7.2 
z
" style="fill:#ffffff;"/>
   </g>
   <g id="matplotlib.axis_3">
    <g id="xtick_4">
     <g id="line2d_13">
      <g>
       <use style="stroke:#000000;stroke-width:0.8;" x="72.357342" xlink:href="#m1e717e2b0c" y="266.15"/>
      </g>
     </g>
    </g>
    <g id="xtick_5">
     <g id="line2d_14">
      <g>
       <use style="stroke:#000000;stroke-width:0.8;" x="158.355951" xlink:href="#m1e717e2b0c" y="266.15"/>
      </g>
     </g>
    </g>
    <g id="xtick_6">
     <g id="line2d_15">
      <g>
       <use style="stroke:#000000;stroke-width:0.8;" x="244.35456" xlink:href="#m1e717e2b0c" y="266.15"/>
      </g>
     </g>
    </g>
   </g>
   <g id="matplotlib.axis_4">
    <g id="ytick_4"/>
    <g id="ytick_5"/>
    <g id="ytick_6"/>
    <g id="ytick_7"/>
    <g id="ytick_8"/>
   </g>
   <g id="line2d_16">
    <path clip-path="url(#pc423a717cf)" d="M 35.212415 266.144224 
L 46.910369 266.028337 
L 52.451506 265.700658 
L 55.529915 265.314152 
L 57.684801 264.890377 
L 58.916165 264.517268 
L 60.76321 263.948503 
L 61.378892 263.566219 
L 62.918097 262.836838 
L 64.457301 261.901216 
L 65.996506 260.767899 
L 67.53571 259.367045 
L 70.306278 256.222829 
L 71.845483 254.033498 
L 73.692528 250.909024 
L 74.923892 248.484468 
L 76.155256 245.580498 
L 78.310142 240.215153 
L 80.157187 234.754573 
L 81.696392 229.666954 
L 83.235597 224.104387 
L 85.390483 215.24908 
L 87.237528 206.944085 
L 90.623778 190.159212 
L 96.780597 156.300055 
L 103.245256 120.60632 
L 105.400142 109.465102 
L 108.478551 95.058004 
L 110.017756 88.808835 
L 112.172642 80.163413 
L 115.866733 67.694193 
L 117.713778 62.597326 
L 118.637301 60.19286 
L 121.100028 54.467809 
L 121.407869 54.334747 
L 123.254915 50.823476 
L 123.870597 49.837324 
L 124.486278 48.857696 
L 125.10196 48.111079 
L 128.796051 43.211659 
L 129.411733 42.746534 
L 132.182301 40.24233 
L 132.797983 39.794184 
L 134.029347 39.108053 
L 134.337188 38.904427 
L 134.952869 38.720097 
L 136.184233 38.344647 
L 136.492074 38.744545 
L 137.107756 38.236387 
L 137.415597 37.892215 
L 137.723438 37.764823 
L 138.031278 37.758344 
L 138.339119 37.458837 
L 138.954801 37.216299 
L 140.186165 36.293145 
L 140.801847 35.764154 
L 141.109688 35.601713 
L 141.417528 35.626362 
L 142.648892 35.124234 
L 143.264574 34.66351 
L 143.572415 34.687438 
L 145.111619 34.058311 
L 145.727301 34.064044 
L 146.342983 33.655762 
L 146.958665 33.702143 
L 147.266506 34.157607 
L 147.882188 33.707755 
L 149.113551 32.939572 
L 149.421392 33.885516 
L 149.729233 33.84187 
L 150.037074 33.555586 
L 150.344915 33.519665 
L 152.19196 32.587684 
L 152.499801 32.621078 
L 153.115483 32.287124 
L 153.423324 32.062699 
L 153.731165 32.063464 
L 154.346847 31.768652 
L 155.270369 31.781878 
L 155.886051 31.531725 
L 156.193892 31.678579 
L 156.501733 31.587253 
L 156.809574 31.353592 
L 157.117415 31.301032 
L 157.733097 30.928955 
L 159.580142 30.88114 
L 159.887983 30.658993 
L 160.503665 30.734282 
L 162.042869 30.526706 
L 162.966392 30.647195 
L 163.274233 30.956642 
L 163.582074 31.017453 
L 164.197756 30.956768 
L 164.505597 31.660644 
L 165.121278 31.478519 
L 165.429119 31.267229 
L 166.968324 31.247655 
L 169.12321 31.566758 
L 169.431051 31.782606 
L 170.354574 32.028543 
L 171.278097 32.417797 
L 172.201619 32.689511 
L 172.50946 32.998522 
L 174.048665 33.706733 
L 174.356506 33.999326 
L 174.664347 34.068979 
L 175.280028 34.382444 
L 176.511392 34.964028 
L 178.666278 35.906295 
L 181.129006 37.30348 
L 181.436847 37.353702 
L 182.360369 38.242181 
L 182.66821 38.4894 
L 182.976051 38.428982 
L 183.899574 38.972015 
L 185.438778 39.663303 
L 186.05446 40.225024 
L 186.362301 40.490796 
L 186.670142 40.552066 
L 187.901506 41.401503 
L 190.364233 43.150148 
L 190.979915 43.392992 
L 191.595597 43.941653 
L 193.750483 45.701773 
L 194.058324 45.826204 
L 196.521051 47.815279 
L 197.752415 48.291914 
L 198.060256 48.421876 
L 198.983778 49.106077 
L 199.291619 49.072265 
L 199.907301 49.70472 
L 201.138665 50.432086 
L 202.062187 51.383682 
L 202.370028 51.476378 
L 205.140597 53.99631 
L 205.756278 54.451633 
L 207.603324 56.021632 
L 208.526847 57.322776 
L 208.834688 56.349968 
L 210.066051 57.481768 
L 210.989574 58.57978 
L 211.605256 59.219679 
L 213.14446 61.070476 
L 213.452301 61.301978 
L 214.067983 62.054648 
L 214.991506 63.065679 
L 216.838551 65.79277 
L 217.146392 65.812046 
L 218.685597 68.078633 
L 221.148324 72.526031 
L 223.30321 77.025122 
L 224.842415 80.597543 
L 226.68946 85.557949 
L 230.691392 97.95696 
L 231.922756 102.425885 
L 234.077642 110.570151 
L 236.84821 122.258183 
L 239.926619 136.553811 
L 242.389347 149.003472 
L 249.469688 185.536949 
L 251.008892 193.329227 
L 255.318665 213.774824 
L 257.781392 224.014421 
L 259.628438 230.804291 
L 261.475483 237.016481 
L 263.630369 243.244657 
L 265.477415 247.853124 
L 267.32446 251.690887 
L 268.863665 254.433866 
L 270.402869 256.712896 
L 272.249915 259.034553 
L 273.789119 260.607532 
L 275.944006 262.303477 
L 278.098892 263.530662 
L 279.945938 264.328706 
L 281.792983 264.891943 
L 283.947869 265.364085 
L 287.949801 265.866217 
L 292.567415 266.065633 
L 297.80071 266.14158 
L 297.80071 266.14158 
" style="fill:none;stroke:#e41a1c;stroke-linecap:square;stroke-width:1.142857;"/>
   </g>
   <g id="patch_8">
    <path d="M 35.289375 266.15 
L 35.289375 7.2 
" style="fill:none;stroke:#000000;stroke-linecap:square;stroke-linejoin:miter;stroke-width:0.8;"/>
   </g>
   <g id="patch_9">
    <path d="M 297.72375 266.15 
L 297.72375 7.2 
" style="fill:none;stroke:#000000;stroke-linecap:square;stroke-linejoin:miter;stroke-width:0.8;"/>
   </g>
   <g id="patch_10">
    <path d="M 35.289375 266.15 
L 297.72375 266.15 
" style="fill:none;stroke:#000000;stroke-linecap:square;stroke-linejoin:miter;stroke-width:0.8;"/>
   </g>
   <g id="patch_11">
    <path d="M 35.289375 7.2 
L 297.72375 7.2 
" style="fill:none;stroke:#000000;stroke-linecap:square;stroke-linejoin:miter;stroke-width:0.8;"/>
   </g>
  </g>
  <g id="axes_3">
   <g id="patch_12">
    <path d="M 297.72375 525.1 
L 560.158125 525.1 
L 560.158125 266.15 
L 297.72375 266.15 
z
" style="fill:#ffffff;"/>
   </g>
   <g id="matplotlib.axis_5">
    <g id="xtick_7">
     <g id="line2d_17">
      <g>
       <use style="stroke:#000000;stroke-width:0.8;" x="326.799288" xlink:href="#m1e717e2b0c" y="525.1"/>
      </g>
     </g>
     <g id="text_9">
      <!-- $\mathdefault{0}$ -->
      <g transform="translate(323.279288 536.958281)scale(0.11 -0.11)">
       <use transform="translate(0 0.78125)" xlink:href="#DejaVuSans-48"/>
      </g>
     </g>
    </g>
    <g id="xtick_8">
     <g id="line2d_18">
      <g>
       <use style="stroke:#000000;stroke-width:0.8;" x="405.945643" xlink:href="#m1e717e2b0c" y="525.1"/>
      </g>
     </g>
     <g id="text_10">
      <!-- $\mathdefault{1}$ -->
      <g transform="translate(402.425643 536.958281)scale(0.11 -0.11)">
       <use transform="translate(0 0.09375)" xlink:href="#DejaVuSans-49"/>
      </g>
     </g>
    </g>
    <g id="xtick_9">
     <g id="line2d_19">
      <g>
       <use style="stroke:#000000;stroke-width:0.8;" x="485.091997" xlink:href="#m1e717e2b0c" y="525.1"/>
      </g>
     </g>
     <g id="text_11">
      <!-- $\mathdefault{2}$ -->
      <g transform="translate(481.571997 536.958281)scale(0.11 -0.11)">
       <use transform="translate(0 0.78125)" xlink:href="#DejaVuSans-50"/>
      </g>
     </g>
    </g>
    <g id="text_12">
     <!-- Kunz -->
     <g transform="translate(412.154062 557.245937)scale(0.14 -0.14)">
      <use xlink:href="#DejaVuSans-75"/>
      <use x="60.576172" xlink:href="#DejaVuSans-117"/>
      <use x="123.955078" xlink:href="#DejaVuSans-110"/>
      <use x="187.333984" xlink:href="#DejaVuSans-122"/>
     </g>
    </g>
   </g>
   <g id="matplotlib.axis_6">
    <g id="ytick_9"/>
    <g id="ytick_10"/>
    <g id="ytick_11"/>
    <g id="ytick_12"/>
    <g id="ytick_13"/>
   </g>
   <g id="line2d_20">
    <path clip-path="url(#p294f5e36a7)" d="M 297.64679 525.099716 
L 312.730994 524.990347 
L 319.503494 524.475333 
L 322.889744 523.827259 
L 324.428949 523.297364 
L 325.968153 522.691894 
L 326.891676 522.233206 
L 327.507358 521.769961 
L 329.046562 520.735987 
L 330.585767 519.451693 
L 331.817131 518.213967 
L 333.356335 516.383435 
L 335.203381 513.601964 
L 337.050426 510.131217 
L 339.205312 505.104772 
L 340.744517 500.900522 
L 344.438608 487.874959 
L 345.977812 481.318296 
L 348.132699 471.100476 
L 350.287585 459.684132 
L 351.82679 450.781274 
L 356.444403 421.166311 
L 359.214972 401.942085 
L 362.909063 376.057744 
L 366.295312 353.647862 
L 369.065881 337.218577 
L 370.605085 328.864348 
L 372.759972 318.425078 
L 374.299176 312.004014 
L 376.146222 305.490606 
L 377.993267 300.27061 
L 379.224631 297.300088 
L 380.455994 294.857241 
L 382.30304 292.182079 
L 383.842244 290.674082 
L 385.381449 289.819043 
L 385.997131 289.793095 
L 386.920653 289.476706 
L 387.536335 289.642926 
L 387.844176 290.028182 
L 389.07554 290.164415 
L 389.383381 290.515995 
L 389.691222 290.54128 
L 390.614744 291.130923 
L 392.46179 292.332282 
L 393.385312 293.11939 
L 394.308835 294.260995 
L 394.924517 294.933064 
L 396.463722 297.089106 
L 397.387244 298.402102 
L 398.002926 299.320044 
L 400.465653 302.732339 
L 400.773494 303.503974 
L 402.928381 306.596996 
L 404.775426 309.241922 
L 405.698949 310.655408 
L 406.00679 310.979413 
L 407.545994 313.498095 
L 408.777358 314.999352 
L 409.700881 316.51642 
L 410.932244 318.375024 
L 411.240085 319.535622 
L 411.855767 320.220589 
L 412.471449 321.150902 
L 413.087131 322.015492 
L 414.010653 323.473815 
L 414.626335 324.32516 
L 414.934176 325.634923 
L 415.549858 326.385483 
L 415.857699 326.668504 
L 416.473381 327.603278 
L 417.704744 329.149727 
L 418.320426 329.934023 
L 419.243949 331.126627 
L 419.859631 332.079691 
L 421.090994 333.48924 
L 424.169403 338.165927 
L 424.785085 338.880021 
L 425.708608 340.276886 
L 426.939972 342.078363 
L 428.479176 344.111698 
L 428.787017 344.909874 
L 430.941903 347.745917 
L 431.865426 349.056077 
L 435.867358 354.06631 
L 436.48304 354.604491 
L 439.253608 358.136667 
L 439.561449 358.373245 
L 440.177131 359.257691 
L 441.100653 360.236541 
L 441.408494 360.745748 
L 442.024176 361.376421 
L 444.179062 364.089853 
L 445.718267 366.014115 
L 446.333949 367.055512 
L 446.64179 367.217865 
L 447.565312 368.432845 
L 448.180994 369.128508 
L 450.951562 372.619909 
L 451.875085 373.563022 
L 452.798608 374.593731 
L 453.41429 375.443184 
L 454.953494 376.735198 
L 455.569176 377.396004 
L 456.492699 378.466223 
L 458.031903 380.125715 
L 458.339744 380.227623 
L 459.878949 382.045795 
L 460.18679 382.221433 
L 462.341676 384.640832 
L 465.727926 388.021878 
L 466.035767 388.199167 
L 467.267131 389.601588 
L 467.882812 390.269648 
L 468.806335 391.283784 
L 472.808267 396.061754 
L 473.423949 396.74797 
L 473.73179 395.933865 
L 474.347472 396.676792 
L 474.963153 397.328184 
L 475.578835 397.920346 
L 479.888608 403.186131 
L 480.196449 403.119907 
L 481.427812 404.502709 
L 483.274858 406.860564 
L 486.045426 410.656525 
L 491.586562 419.706772 
L 494.357131 425.256939 
L 496.204176 429.389234 
L 499.898267 438.297103 
L 502.053153 444.01967 
L 508.517812 463.107664 
L 510.672699 469.675627 
L 515.905994 485.263818 
L 518.368722 492.046724 
L 521.13929 498.975822 
L 524.217699 505.714055 
L 526.680426 510.173266 
L 528.219631 512.638555 
L 530.066676 515.169074 
L 532.221562 517.629031 
L 534.068608 519.320514 
L 535.299972 520.311873 
L 536.839176 521.320721 
L 539.301903 522.608186 
L 541.764631 523.496991 
L 544.227358 524.125456 
L 546.997926 524.562523 
L 550.999858 524.892787 
L 557.772358 525.066516 
L 560.235085 525.081715 
L 560.235085 525.081715 
" style="fill:none;stroke:#e41a1c;stroke-linecap:square;stroke-width:1.142857;"/>
   </g>
   <g id="patch_13">
    <path d="M 297.72375 525.1 
L 297.72375 266.15 
" style="fill:none;stroke:#000000;stroke-linecap:square;stroke-linejoin:miter;stroke-width:0.8;"/>
   </g>
   <g id="patch_14">
    <path d="M 560.158125 525.1 
L 560.158125 266.15 
" style="fill:none;stroke:#000000;stroke-linecap:square;stroke-linejoin:miter;stroke-width:0.8;"/>
   </g>
   <g id="patch_15">
    <path d="M 297.72375 525.1 
L 560.158125 525.1 
" style="fill:none;stroke:#000000;stroke-linecap:square;stroke-linejoin:miter;stroke-width:0.8;"/>
   </g>
   <g id="patch_16">
    <path d="M 297.72375 266.15 
L 560.158125 266.15 
" style="fill:none;stroke:#000000;stroke-linecap:square;stroke-linejoin:miter;stroke-width:0.8;"/>
   </g>
  </g>
 </g>
 <defs>
  <clipPath id="pb867af95e9">
   <rect height="258.95" width="262.434375" x="35.289375" y="266.15"/>
  </clipPath>
  <clipPath id="pc423a717cf">
   <rect height="258.95" width="262.434375" x="35.289375" y="7.2"/>
  </clipPath>
  <clipPath id="p294f5e36a7">
   <rect height="258.95" width="262.434375" x="297.72375" y="266.15"/>
  </clipPath>
 </defs>
</svg>
