<?xml version="1.0" encoding="utf-8" standalone="no"?>
<!DOCTYPE svg PUBLIC "-//W3C//DTD SVG 1.1//EN"
  "http://www.w3.org/Graphics/SVG/1.1/DTD/svg11.dtd">
<!-- Created with matplotlib (https://matplotlib.org/) -->
<svg height="319.536641pt" version="1.1" viewBox="0 0 432.158125 319.536641" width="432.158125pt" xmlns="http://www.w3.org/2000/svg" xmlns:xlink="http://www.w3.org/1999/xlink">
 <metadata>
  <rdf:RDF xmlns:cc="http://creativecommons.org/ns#" xmlns:dc="http://purl.org/dc/elements/1.1/" xmlns:rdf="http://www.w3.org/1999/02/22-rdf-syntax-ns#">
   <cc:Work>
    <dc:type rdf:resource="http://purl.org/dc/dcmitype/StillImage"/>
    <dc:date>2021-02-04T14:06:37.386641</dc:date>
    <dc:format>image/svg+xml</dc:format>
    <dc:creator>
     <cc:Agent>
      <dc:title>Matplotlib v3.3.2, https://matplotlib.org/</dc:title>
     </cc:Agent>
    </dc:creator>
   </cc:Work>
  </rdf:RDF>
 </metadata>
 <defs>
  <style type="text/css">*{stroke-linecap:butt;stroke-linejoin:round;}</style>
 </defs>
 <g id="figure_1">
  <g id="patch_1">
   <path d="M 0 319.536641 
L 432.158125 319.536641 
L 432.158125 0 
L 0 0 
z
" style="fill:#ffffff;"/>
  </g>
  <g id="axes_1">
   <g id="patch_2">
    <path d="M 38.789375 273.779141 
L 416.158125 273.779141 
L 416.158125 11.379141 
L 38.789375 11.379141 
z
" style="fill:#ffffff;"/>
   </g>
   <g id="matplotlib.axis_1">
    <g id="xtick_1">
     <g id="line2d_1">
      <defs>
       <path d="M 0 0 
L 0 3.5 
" id="m6fa540cf65" style="stroke:#000000;stroke-width:0.8;"/>
      </defs>
      <g>
       <use style="stroke:#000000;stroke-width:0.8;" x="38.789375" xlink:href="#m6fa540cf65" y="273.779141"/>
      </g>
     </g>
     <g id="text_1">
      <!-- $\mathdefault{−0.5}$ -->
      <g transform="translate(25.424375 289.137422)scale(0.11 -0.11)">
       <defs>
        <path d="M 10.59375 35.5 
L 73.1875 35.5 
L 73.1875 27.203125 
L 10.59375 27.203125 
z
" id="DejaVuSans-8722"/>
        <path d="M 31.78125 66.40625 
Q 24.171875 66.40625 20.328125 58.90625 
Q 16.5 51.421875 16.5 36.375 
Q 16.5 21.390625 20.328125 13.890625 
Q 24.171875 6.390625 31.78125 6.390625 
Q 39.453125 6.390625 43.28125 13.890625 
Q 47.125 21.390625 47.125 36.375 
Q 47.125 51.421875 43.28125 58.90625 
Q 39.453125 66.40625 31.78125 66.40625 
z
M 31.78125 74.21875 
Q 44.046875 74.21875 50.515625 64.515625 
Q 56.984375 54.828125 56.984375 36.375 
Q 56.984375 17.96875 50.515625 8.265625 
Q 44.046875 -1.421875 31.78125 -1.421875 
Q 19.53125 -1.421875 13.0625 8.265625 
Q 6.59375 17.96875 6.59375 36.375 
Q 6.59375 54.828125 13.0625 64.515625 
Q 19.53125 74.21875 31.78125 74.21875 
z
" id="DejaVuSans-48"/>
        <path d="M 10.6875 12.40625 
L 21 12.40625 
L 21 0 
L 10.6875 0 
z
" id="DejaVuSans-46"/>
        <path d="M 10.796875 72.90625 
L 49.515625 72.90625 
L 49.515625 64.59375 
L 19.828125 64.59375 
L 19.828125 46.734375 
Q 21.96875 47.46875 24.109375 47.828125 
Q 26.265625 48.1875 28.421875 48.1875 
Q 40.625 48.1875 47.75 41.5 
Q 54.890625 34.8125 54.890625 23.390625 
Q 54.890625 11.625 47.5625 5.09375 
Q 40.234375 -1.421875 26.90625 -1.421875 
Q 22.3125 -1.421875 17.546875 -0.640625 
Q 12.796875 0.140625 7.71875 1.703125 
L 7.71875 11.625 
Q 12.109375 9.234375 16.796875 8.0625 
Q 21.484375 6.890625 26.703125 6.890625 
Q 35.15625 6.890625 40.078125 11.328125 
Q 45.015625 15.765625 45.015625 23.390625 
Q 45.015625 31 40.078125 35.4375 
Q 35.15625 39.890625 26.703125 39.890625 
Q 22.75 39.890625 18.8125 39.015625 
Q 14.890625 38.140625 10.796875 36.28125 
z
" id="DejaVuSans-53"/>
       </defs>
       <use transform="translate(0 0.78125)" xlink:href="#DejaVuSans-8722"/>
       <use transform="translate(83.789062 0.78125)" xlink:href="#DejaVuSans-48"/>
       <use transform="translate(147.412109 0.78125)" xlink:href="#DejaVuSans-46"/>
       <use transform="translate(179.199219 0.78125)" xlink:href="#DejaVuSans-53"/>
      </g>
     </g>
    </g>
    <g id="xtick_2">
     <g id="line2d_2">
      <g>
       <use style="stroke:#000000;stroke-width:0.8;" x="114.263125" xlink:href="#m6fa540cf65" y="273.779141"/>
      </g>
     </g>
     <g id="text_2">
      <!-- $\mathdefault{0.0}$ -->
      <g transform="translate(105.463125 289.137422)scale(0.11 -0.11)">
       <use transform="translate(0 0.78125)" xlink:href="#DejaVuSans-48"/>
       <use transform="translate(63.623047 0.78125)" xlink:href="#DejaVuSans-46"/>
       <use transform="translate(95.410156 0.78125)" xlink:href="#DejaVuSans-48"/>
      </g>
     </g>
    </g>
    <g id="xtick_3">
     <g id="line2d_3">
      <g>
       <use style="stroke:#000000;stroke-width:0.8;" x="189.736875" xlink:href="#m6fa540cf65" y="273.779141"/>
      </g>
     </g>
     <g id="text_3">
      <!-- $\mathdefault{0.5}$ -->
      <g transform="translate(180.936875 289.137422)scale(0.11 -0.11)">
       <use transform="translate(0 0.78125)" xlink:href="#DejaVuSans-48"/>
       <use transform="translate(63.623047 0.78125)" xlink:href="#DejaVuSans-46"/>
       <use transform="translate(95.410156 0.78125)" xlink:href="#DejaVuSans-53"/>
      </g>
     </g>
    </g>
    <g id="xtick_4">
     <g id="line2d_4">
      <g>
       <use style="stroke:#000000;stroke-width:0.8;" x="265.210625" xlink:href="#m6fa540cf65" y="273.779141"/>
      </g>
     </g>
     <g id="text_4">
      <!-- $\mathdefault{1.0}$ -->
      <g transform="translate(256.410625 289.137422)scale(0.11 -0.11)">
       <defs>
        <path d="M 12.40625 8.296875 
L 28.515625 8.296875 
L 28.515625 63.921875 
L 10.984375 60.40625 
L 10.984375 69.390625 
L 28.421875 72.90625 
L 38.28125 72.90625 
L 38.28125 8.296875 
L 54.390625 8.296875 
L 54.390625 0 
L 12.40625 0 
z
" id="DejaVuSans-49"/>
       </defs>
       <use transform="translate(0 0.78125)" xlink:href="#DejaVuSans-49"/>
       <use transform="translate(63.623047 0.78125)" xlink:href="#DejaVuSans-46"/>
       <use transform="translate(95.410156 0.78125)" xlink:href="#DejaVuSans-48"/>
      </g>
     </g>
    </g>
    <g id="xtick_5">
     <g id="line2d_5">
      <g>
       <use style="stroke:#000000;stroke-width:0.8;" x="340.684375" xlink:href="#m6fa540cf65" y="273.779141"/>
      </g>
     </g>
     <g id="text_5">
      <!-- $\mathdefault{1.5}$ -->
      <g transform="translate(331.884375 289.137422)scale(0.11 -0.11)">
       <use transform="translate(0 0.09375)" xlink:href="#DejaVuSans-49"/>
       <use transform="translate(63.623047 0.09375)" xlink:href="#DejaVuSans-46"/>
       <use transform="translate(95.410156 0.09375)" xlink:href="#DejaVuSans-53"/>
      </g>
     </g>
    </g>
    <g id="xtick_6">
     <g id="line2d_6">
      <g>
       <use style="stroke:#000000;stroke-width:0.8;" x="416.158125" xlink:href="#m6fa540cf65" y="273.779141"/>
      </g>
     </g>
     <g id="text_6">
      <!-- $\mathdefault{2.0}$ -->
      <g transform="translate(407.358125 289.137422)scale(0.11 -0.11)">
       <defs>
        <path d="M 19.1875 8.296875 
L 53.609375 8.296875 
L 53.609375 0 
L 7.328125 0 
L 7.328125 8.296875 
Q 12.9375 14.109375 22.625 23.890625 
Q 32.328125 33.6875 34.8125 36.53125 
Q 39.546875 41.84375 41.421875 45.53125 
Q 43.3125 49.21875 43.3125 52.78125 
Q 43.3125 58.59375 39.234375 62.25 
Q 35.15625 65.921875 28.609375 65.921875 
Q 23.96875 65.921875 18.8125 64.3125 
Q 13.671875 62.703125 7.8125 59.421875 
L 7.8125 69.390625 
Q 13.765625 71.78125 18.9375 73 
Q 24.125 74.21875 28.421875 74.21875 
Q 39.75 74.21875 46.484375 68.546875 
Q 53.21875 62.890625 53.21875 53.421875 
Q 53.21875 48.921875 51.53125 44.890625 
Q 49.859375 40.875 45.40625 35.40625 
Q 44.1875 33.984375 37.640625 27.21875 
Q 31.109375 20.453125 19.1875 8.296875 
z
" id="DejaVuSans-50"/>
       </defs>
       <use transform="translate(0 0.78125)" xlink:href="#DejaVuSans-50"/>
       <use transform="translate(63.623047 0.78125)" xlink:href="#DejaVuSans-46"/>
       <use transform="translate(95.410156 0.78125)" xlink:href="#DejaVuSans-48"/>
      </g>
     </g>
    </g>
    <g id="text_7">
     <!-- Hinz -->
     <g transform="translate(212.154687 309.425078)scale(0.14 -0.14)">
      <defs>
       <path d="M 9.8125 72.90625 
L 19.671875 72.90625 
L 19.671875 43.015625 
L 55.515625 43.015625 
L 55.515625 72.90625 
L 65.375 72.90625 
L 65.375 0 
L 55.515625 0 
L 55.515625 34.71875 
L 19.671875 34.71875 
L 19.671875 0 
L 9.8125 0 
z
" id="DejaVuSans-72"/>
       <path d="M 9.421875 54.6875 
L 18.40625 54.6875 
L 18.40625 0 
L 9.421875 0 
z
M 9.421875 75.984375 
L 18.40625 75.984375 
L 18.40625 64.59375 
L 9.421875 64.59375 
z
" id="DejaVuSans-105"/>
       <path d="M 54.890625 33.015625 
L 54.890625 0 
L 45.90625 0 
L 45.90625 32.71875 
Q 45.90625 40.484375 42.875 44.328125 
Q 39.84375 48.1875 33.796875 48.1875 
Q 26.515625 48.1875 22.3125 43.546875 
Q 18.109375 38.921875 18.109375 30.90625 
L 18.109375 0 
L 9.078125 0 
L 9.078125 54.6875 
L 18.109375 54.6875 
L 18.109375 46.1875 
Q 21.34375 51.125 25.703125 53.5625 
Q 30.078125 56 35.796875 56 
Q 45.21875 56 50.046875 50.171875 
Q 54.890625 44.34375 54.890625 33.015625 
z
" id="DejaVuSans-110"/>
       <path d="M 5.515625 54.6875 
L 48.1875 54.6875 
L 48.1875 46.484375 
L 14.40625 7.171875 
L 48.1875 7.171875 
L 48.1875 0 
L 4.296875 0 
L 4.296875 8.203125 
L 38.09375 47.515625 
L 5.515625 47.515625 
z
" id="DejaVuSans-122"/>
      </defs>
      <use xlink:href="#DejaVuSans-72"/>
      <use x="75.195312" xlink:href="#DejaVuSans-105"/>
      <use x="102.978516" xlink:href="#DejaVuSans-110"/>
      <use x="166.357422" xlink:href="#DejaVuSans-122"/>
     </g>
    </g>
   </g>
   <g id="matplotlib.axis_2">
    <g id="ytick_1">
     <g id="line2d_7">
      <defs>
       <path d="M 0 0 
L -3.5 0 
" id="m94ae6023e7" style="stroke:#000000;stroke-width:0.8;"/>
      </defs>
      <g>
       <use style="stroke:#000000;stroke-width:0.8;" x="38.789375" xlink:href="#m94ae6023e7" y="244.623585"/>
      </g>
     </g>
     <g id="text_8">
      <!-- $\mathdefault{0}$ -->
      <g transform="translate(24.749375 248.802726)scale(0.11 -0.11)">
       <use transform="translate(0 0.78125)" xlink:href="#DejaVuSans-48"/>
      </g>
     </g>
    </g>
    <g id="ytick_2">
     <g id="line2d_8">
      <g>
       <use style="stroke:#000000;stroke-width:0.8;" x="38.789375" xlink:href="#m94ae6023e7" y="186.312474"/>
      </g>
     </g>
     <g id="text_9">
      <!-- $\mathdefault{1}$ -->
      <g transform="translate(24.749375 190.491615)scale(0.11 -0.11)">
       <use transform="translate(0 0.09375)" xlink:href="#DejaVuSans-49"/>
      </g>
     </g>
    </g>
    <g id="ytick_3">
     <g id="line2d_9">
      <g>
       <use style="stroke:#000000;stroke-width:0.8;" x="38.789375" xlink:href="#m94ae6023e7" y="128.001363"/>
      </g>
     </g>
     <g id="text_10">
      <!-- $\mathdefault{2}$ -->
      <g transform="translate(24.749375 132.180503)scale(0.11 -0.11)">
       <use transform="translate(0 0.78125)" xlink:href="#DejaVuSans-50"/>
      </g>
     </g>
    </g>
    <g id="ytick_4">
     <g id="line2d_10">
      <g>
       <use style="stroke:#000000;stroke-width:0.8;" x="38.789375" xlink:href="#m94ae6023e7" y="69.690252"/>
      </g>
     </g>
     <g id="text_11">
      <!-- $\mathdefault{3}$ -->
      <g transform="translate(24.749375 73.869392)scale(0.11 -0.11)">
       <defs>
        <path d="M 40.578125 39.3125 
Q 47.65625 37.796875 51.625 33 
Q 55.609375 28.21875 55.609375 21.1875 
Q 55.609375 10.40625 48.1875 4.484375 
Q 40.765625 -1.421875 27.09375 -1.421875 
Q 22.515625 -1.421875 17.65625 -0.515625 
Q 12.796875 0.390625 7.625 2.203125 
L 7.625 11.71875 
Q 11.71875 9.328125 16.59375 8.109375 
Q 21.484375 6.890625 26.8125 6.890625 
Q 36.078125 6.890625 40.9375 10.546875 
Q 45.796875 14.203125 45.796875 21.1875 
Q 45.796875 27.640625 41.28125 31.265625 
Q 36.765625 34.90625 28.71875 34.90625 
L 20.21875 34.90625 
L 20.21875 43.015625 
L 29.109375 43.015625 
Q 36.375 43.015625 40.234375 45.921875 
Q 44.09375 48.828125 44.09375 54.296875 
Q 44.09375 59.90625 40.109375 62.90625 
Q 36.140625 65.921875 28.71875 65.921875 
Q 24.65625 65.921875 20.015625 65.03125 
Q 15.375 64.15625 9.8125 62.3125 
L 9.8125 71.09375 
Q 15.4375 72.65625 20.34375 73.4375 
Q 25.25 74.21875 29.59375 74.21875 
Q 40.828125 74.21875 47.359375 69.109375 
Q 53.90625 64.015625 53.90625 55.328125 
Q 53.90625 49.265625 50.4375 45.09375 
Q 46.96875 40.921875 40.578125 39.3125 
z
" id="DejaVuSans-51"/>
       </defs>
       <use transform="translate(0 0.78125)" xlink:href="#DejaVuSans-51"/>
      </g>
     </g>
    </g>
    <g id="ytick_5">
     <g id="line2d_11">
      <g>
       <use style="stroke:#000000;stroke-width:0.8;" x="38.789375" xlink:href="#m94ae6023e7" y="11.379141"/>
      </g>
     </g>
     <g id="text_12">
      <!-- $\mathdefault{4}$ -->
      <g transform="translate(24.749375 15.558281)scale(0.11 -0.11)">
       <defs>
        <path d="M 37.796875 64.3125 
L 12.890625 25.390625 
L 37.796875 25.390625 
z
M 35.203125 72.90625 
L 47.609375 72.90625 
L 47.609375 25.390625 
L 58.015625 25.390625 
L 58.015625 17.1875 
L 47.609375 17.1875 
L 47.609375 0 
L 37.796875 0 
L 37.796875 17.1875 
L 4.890625 17.1875 
L 4.890625 26.703125 
z
" id="DejaVuSans-52"/>
       </defs>
       <use transform="translate(0 0.09375)" xlink:href="#DejaVuSans-52"/>
      </g>
     </g>
    </g>
    <g id="text_13">
     <!-- Kunz -->
     <g transform="translate(17.837813 159.366016)rotate(-90)scale(0.14 -0.14)">
      <defs>
       <path d="M 9.8125 72.90625 
L 19.671875 72.90625 
L 19.671875 42.09375 
L 52.390625 72.90625 
L 65.09375 72.90625 
L 28.90625 38.921875 
L 67.671875 0 
L 54.6875 0 
L 19.671875 35.109375 
L 19.671875 0 
L 9.8125 0 
z
" id="DejaVuSans-75"/>
       <path d="M 8.5 21.578125 
L 8.5 54.6875 
L 17.484375 54.6875 
L 17.484375 21.921875 
Q 17.484375 14.15625 20.5 10.265625 
Q 23.53125 6.390625 29.59375 6.390625 
Q 36.859375 6.390625 41.078125 11.03125 
Q 45.3125 15.671875 45.3125 23.6875 
L 45.3125 54.6875 
L 54.296875 54.6875 
L 54.296875 0 
L 45.3125 0 
L 45.3125 8.40625 
Q 42.046875 3.421875 37.71875 1 
Q 33.40625 -1.421875 27.6875 -1.421875 
Q 18.265625 -1.421875 13.375 4.4375 
Q 8.5 10.296875 8.5 21.578125 
z
M 31.109375 56 
z
" id="DejaVuSans-117"/>
      </defs>
      <use xlink:href="#DejaVuSans-75"/>
      <use x="60.576172" xlink:href="#DejaVuSans-117"/>
      <use x="123.955078" xlink:href="#DejaVuSans-110"/>
      <use x="187.333984" xlink:href="#DejaVuSans-122"/>
     </g>
    </g>
   </g>
   <g id="LineCollection_1">
    <path clip-path="url(#p7c79519575)" d="M 188.491138 236.49749 
L 189.14761 236.191018 
L 190.520529 235.360823 
L 192.042572 234.489914 
L 192.803593 234.151233 
L 192.981412 234.213405 
L 193.057267 234.517408 
L 193.564614 234.355815 
L 194.832984 233.610861 
L 197.116048 231.832521 
L 200.160134 229.2525 
L 202.752572 226.896236 
L 204.726262 225.11528 
L 207.263 222.857515 
L 208.024022 222.034393 
L 208.156177 221.754442 
L 208.024022 221.699147 
L 207.263 221.982046 
L 205.740957 222.833209 
L 200.160134 226.813077 
L 191.027876 234.019663 
L 188.753779 235.993256 
L 188.491138 236.49749 
L 188.491138 236.49749 
" style="fill:none;stroke:#000000;stroke-width:1.714286;"/>
    <path clip-path="url(#p7c79519575)" d="M 200.160134 230.263166 
L 200.474209 230.258178 
L 202.348342 229.467133 
L 202.237549 229.862656 
L 202.443198 229.941561 
L 203.025546 229.862656 
L 203.204219 229.966598 
L 203.711567 229.802065 
L 204.979936 229.037415 
L 210.814434 225.154713 
L 210.814434 225.400793 
L 209.899104 226.500714 
L 210.084612 226.500714 
L 212.082803 225.282881 
L 215.634236 223.060439 
L 215.802949 223.138772 
L 215.634236 223.601491 
L 216.141584 223.406915 
L 219.946691 220.829675 
L 222.488777 219.183545 
L 223.498124 218.6582 
L 227.700908 215.821603 
L 228.825274 215.193666 
L 229.029222 215.228319 
L 229.078948 215.510833 
L 229.692879 215.623842 
L 229.586295 216.087317 
L 229.966787 216.019365 
L 230.854665 215.495689 
L 235.420793 212.183738 
L 236.312995 211.470855 
L 236.689162 211.067509 
L 238.763892 209.29548 
L 240.240595 208.098879 
L 241.508965 207.211304 
L 241.603352 207.317867 
L 238.718553 209.695837 
L 236.586326 211.470855 
L 236.46055 211.668616 
L 236.732679 211.668616 
L 240.747943 209.544726 
L 241.078768 209.691003 
L 241.508965 209.492985 
L 243.825141 207.71339 
L 251.465921 201.582789 
L 260.561953 195.254428 
L 263.324912 193.013512 
L 266.115324 190.886702 
L 275.501255 183.904413 
L 281.213949 179.235762 
L 282.13088 178.246956 
L 284.633512 176.026224 
L 293.415621 168.556652 
L 297.570876 165.114322 
L 298.234759 164.403664 
L 298.078224 164.332934 
L 297.260659 164.601426 
L 297.317203 164.361718 
L 298.627189 163.019335 
L 299.346593 162.13749 
L 299.703752 161.635006 
L 301.12231 160.242149 
L 302.815197 158.470825 
L 303.912722 157.466924 
L 315.379988 147.791715 
L 315.908866 147.198431 
L 315.835391 147.047426 
L 315.384844 147.00067 
L 315.832639 146.011863 
L 315.657036 145.814102 
L 316.10479 145.220818 
L 317.999955 143.243205 
L 318.879476 141.919859 
L 320.147846 140.788956 
L 324.713974 137.128326 
L 328.112641 134.343946 
L 328.899478 133.552901 
L 328.772755 133.435637 
L 327.75806 133.89342 
L 327.625702 133.750662 
L 328.12036 133.157378 
L 330.821507 130.190959 
L 330.922259 129.993198 
L 330.802146 129.908359 
L 330.294798 130.085955 
L 330.10367 129.993198 
L 331.055819 128.873364 
L 331.612835 128.213346 
L 331.684255 128.015585 
L 331.563167 127.802426 
L 333.338884 126.19531 
L 337.80781 122.280507 
L 339.173381 120.798018 
L 339.173381 120.638188 
L 337.142466 122.082745 
L 333.26253 125.049165 
L 322.938257 132.633217 
L 316.692165 137.705888 
L 308.543359 145.023057 
L 308.225176 145.507628 
L 308.499737 145.616341 
L 308.47885 145.650656 
L 307.99275 146.209624 
L 305.181091 148.465407 
L 301.363973 151.351418 
L 298.331898 153.825083 
L 290.214336 160.529595 
L 285.879736 164.008142 
L 285.737095 164.403664 
L 284.513044 165.392471 
L 283.111469 166.412056 
L 277.167775 170.929787 
L 272.710843 174.407614 
L 270.802467 176.071581 
L 269.055187 178.049194 
L 268.398388 178.788898 
L 267.228151 179.829046 
L 264.085934 182.279982 
L 263.071238 182.861899 
L 263.019147 182.795466 
L 263.247009 182.399943 
L 263.980872 181.411136 
L 263.83226 181.235172 
L 262.056543 182.2775 
L 260.690796 183.38875 
L 257.997762 185.648287 
L 252.924286 189.38218 
L 251.148569 190.677142 
L 245.821419 194.784727 
L 241.718302 197.825325 
L 236.689162 200.898655 
L 231.362012 204.563593 
L 231.108338 204.631491 
L 230.936369 204.549209 
L 230.854665 204.116616 
L 230.771688 204.153686 
L 230.054121 204.549209 
L 226.513 207.120106 
L 219.025131 212.657422 
L 216.141584 215.168785 
L 215.634236 215.767619 
L 215.634236 215.853582 
L 215.711398 215.821603 
L 216.492158 215.426081 
L 218.931995 213.98351 
L 218.723801 214.239513 
L 216.517683 216.414887 
L 216.648931 216.530293 
L 217.554754 216.019365 
L 219.693017 214.60374 
L 220.109329 214.437274 
L 219.693017 214.863961 
L 216.648931 217.298535 
L 213.575358 219.579068 
L 210.307086 221.902611 
L 204.218915 226.634614 
L 201.682176 228.788658 
L 200.346097 230.060417 
L 200.160134 230.263166 
L 200.160134 230.263166 
" style="fill:none;stroke:#000000;stroke-width:1.714286;"/>
    <path clip-path="url(#p7c79519575)" d="M 211.068107 225.122504 
L 211.009217 225.116385 
L 211.068107 225.103383 
L 211.073834 225.116385 
L 211.068107 225.122504 
" style="fill:none;stroke:#000000;stroke-width:1.714286;"/>
    <path clip-path="url(#p7c79519575)" d="M 216.395257 216.61914 
L 216.410787 216.612648 
L 216.395257 216.603251 
L 216.388473 216.612648 
L 216.395257 216.61914 
" style="fill:none;stroke:#000000;stroke-width:1.714286;"/>
    <path clip-path="url(#p7c79519575)" d="M 220.961386 210.106434 
L 221.000962 210.086525 
L 220.961386 210.03694 
L 220.923034 210.086525 
L 220.961386 210.106434 
" style="fill:none;stroke:#000000;stroke-width:1.714286;"/>
    <path clip-path="url(#p7c79519575)" d="M 221.21506 209.98134 
L 222.483429 209.235029 
L 226.034862 206.754739 
L 229.760285 203.758164 
L 230.347317 203.100247 
L 229.839969 203.290336 
L 227.049557 205.151876 
L 223.24445 208.004248 
L 221.21506 209.706847 
L 221.059204 209.888764 
L 221.21506 209.98134 
L 221.21506 209.98134 
" style="fill:none;stroke:#000000;stroke-width:1.714286;"/>
    <path clip-path="url(#p7c79519575)" d="M 241.762638 207.176294 
L 241.65127 207.120106 
L 241.762638 207.051034 
L 241.826802 207.120106 
L 241.762638 207.176294 
" style="fill:none;stroke:#000000;stroke-width:1.714286;"/>
    <path clip-path="url(#p7c79519575)" d="M 242.016312 206.949642 
L 241.964953 206.922345 
L 242.016312 206.892481 
L 242.04732 206.922345 
L 242.016312 206.949642 
" style="fill:none;stroke:#000000;stroke-width:1.714286;"/>
    <path clip-path="url(#p7c79519575)" d="M 253.938981 201.799441 
L 253.969688 201.780551 
L 254.192655 201.651132 
L 254.301007 201.582789 
L 254.446329 201.495762 
L 254.6176 201.385028 
L 254.700003 201.33412 
L 254.921659 201.187267 
L 254.953676 201.166865 
L 255.20735 200.992411 
L 255.211247 200.989506 
L 255.461024 200.808752 
L 255.483656 200.791744 
L 255.714698 200.622073 
L 255.753906 200.593983 
L 255.968372 200.440948 
L 256.027591 200.396222 
L 256.222045 200.250277 
L 256.29021 200.19846 
L 256.475719 200.05738 
L 256.549796 200.000699 
L 256.729393 199.862188 
L 256.806328 199.802938 
L 256.983067 199.664697 
L 257.059856 199.605176 
L 257.236741 199.46484 
L 257.310352 199.407415 
L 257.490415 199.262483 
L 257.557699 199.209654 
L 257.744088 199.057408 
L 257.801681 199.011892 
L 257.997762 198.849297 
L 258.041965 198.814131 
L 258.251436 198.637702 
L 258.278068 198.61637 
L 258.50511 198.422002 
L 258.509317 198.418609 
L 258.724409 198.220847 
L 258.758784 198.185337 
L 258.927988 198.023086 
L 259.012457 197.931548 
L 259.119359 197.825325 
L 259.266131 197.657361 
L 259.294909 197.627563 
L 259.266131 197.491501 
L 259.012457 197.51453 
L 258.758784 197.601086 
L 258.699497 197.627563 
L 258.50511 197.696563 
L 258.275661 197.825325 
L 258.251436 197.83656 
L 257.997762 197.984095 
L 257.952625 198.023086 
L 257.744088 198.161233 
L 257.677508 198.220847 
L 257.490415 198.357804 
L 257.423991 198.418609 
L 257.236741 198.564798 
L 257.181049 198.61637 
L 256.983067 198.778252 
L 256.944693 198.814131 
L 256.729393 198.996522 
L 256.713063 199.011892 
L 256.484237 199.209654 
L 256.475719 199.216529 
L 256.256304 199.407415 
L 256.222045 199.43596 
L 256.017902 199.605176 
L 255.968372 199.645984 
L 255.792329 199.802938 
L 255.714698 199.871084 
L 255.571054 200.000699 
L 255.461024 200.099287 
L 255.352267 200.19846 
L 255.20735 200.331087 
L 255.128971 200.396222 
L 254.953676 200.548531 
L 254.904197 200.593983 
L 254.700003 200.787179 
L 254.695067 200.791744 
L 254.492739 200.989506 
L 254.446329 201.036854 
L 254.295321 201.187267 
L 254.192655 201.294835 
L 254.103396 201.385028 
L 253.938981 201.562051 
L 253.918773 201.582789 
L 253.856726 201.780551 
L 253.938981 201.799441 
" style="fill:none;stroke:#000000;stroke-width:1.714286;"/>
    <path clip-path="url(#p7c79519575)" d="M 270.935126 188.967988 
L 271.004352 188.926066 
L 270.935126 188.880681 
L 270.893506 188.926066 
L 270.935126 188.967988 
" style="fill:none;stroke:#000000;stroke-width:1.714286;"/>
    <path clip-path="url(#p7c79519575)" d="M 271.1888 188.827187 
L 271.34508 188.728305 
L 271.442474 188.67256 
L 271.659007 188.530543 
L 271.696148 188.508092 
L 271.949822 188.334604 
L 271.952218 188.332782 
L 272.203495 188.147625 
L 272.220017 188.135021 
L 272.457169 187.95831 
L 272.48466 187.93726 
L 272.710843 187.768677 
L 272.748899 187.739498 
L 272.964517 187.575303 
L 273.008003 187.541737 
L 273.218191 187.379721 
L 273.264284 187.343976 
L 273.471865 187.18194 
L 273.517703 187.146214 
L 273.725538 186.981846 
L 273.76815 186.948453 
L 273.979212 186.779241 
L 274.015429 186.750692 
L 274.232886 186.555244 
L 274.235576 186.55293 
L 274.474611 186.355169 
L 274.48656 186.344638 
L 274.724077 186.157408 
L 274.740234 186.143299 
L 274.950275 185.959646 
L 274.993907 185.918095 
L 275.167014 185.761885 
L 275.247581 185.690291 
L 275.391713 185.564124 
L 275.501255 185.453799 
L 275.593639 185.366363 
L 275.501255 185.242971 
L 275.24913 185.366363 
L 275.247581 185.367092 
L 274.993907 185.540676 
L 274.961754 185.564124 
L 274.740234 185.729431 
L 274.698731 185.761885 
L 274.48656 185.912999 
L 274.423214 185.959646 
L 274.232886 186.095942 
L 274.150423 186.157408 
L 273.979212 186.282582 
L 273.883034 186.355169 
L 273.725538 186.472756 
L 273.620663 186.55293 
L 273.471865 186.660733 
L 273.353695 186.750692 
L 273.218191 186.85533 
L 273.099207 186.948453 
L 272.964517 187.05463 
L 272.849248 187.146214 
L 272.710843 187.257433 
L 272.603087 187.343976 
L 272.457169 187.463597 
L 272.361202 187.541737 
L 272.203495 187.673571 
L 272.123552 187.739498 
L 271.949822 187.894989 
L 271.901834 187.93726 
L 271.696148 188.11429 
L 271.671413 188.135021 
L 271.450034 188.332782 
L 271.442474 188.340597 
L 271.261701 188.530543 
L 271.1888 188.607738 
L 271.076557 188.728305 
L 271.1888 188.827187 
" style="fill:none;stroke:#000000;stroke-width:1.714286;"/>
    <path clip-path="url(#p7c79519575)" d="M 275.754929 185.197323 
L 275.784309 185.168601 
L 275.754929 185.130033 
L 275.671257 185.168601 
L 275.754929 185.197323 
" style="fill:none;stroke:#000000;stroke-width:1.714286;"/>
    <path clip-path="url(#p7c79519575)" d="M 303.659048 156.484312 
L 303.630472 156.295451 
L 303.659048 156.263947 
L 303.831484 156.09769 
L 303.912722 156.009928 
L 304.019722 155.899928 
L 304.166396 155.745053 
L 304.208787 155.702167 
L 304.405281 155.504406 
L 304.420069 155.490866 
L 304.631692 155.306644 
L 304.673743 155.269201 
L 304.863975 155.108883 
L 304.927417 155.055075 
L 305.100084 154.911122 
L 305.181091 154.841081 
L 305.336015 154.713361 
L 305.434765 154.63 
L 305.575483 154.515599 
L 305.688438 154.419223 
L 305.812197 154.317838 
L 305.942112 154.218123 
L 306.070989 154.120077 
L 306.195786 154.025875 
L 306.335581 153.922315 
L 306.44946 153.835524 
L 306.597761 153.724554 
L 306.703134 153.643323 
L 306.855731 153.526793 
L 306.956807 153.450293 
L 307.120771 153.329031 
L 307.210481 153.264319 
L 307.398006 153.13127 
L 307.464155 153.085077 
L 307.680903 152.933509 
L 307.717829 152.907625 
L 307.959621 152.735747 
L 307.971503 152.727072 
L 308.225176 152.56962 
L 308.275489 152.537986 
L 308.47885 152.416136 
L 308.604631 152.340225 
L 308.732524 152.265903 
L 308.939803 152.340225 
L 308.747532 152.537986 
L 308.732524 152.551186 
L 308.536822 152.735747 
L 308.47885 152.787069 
L 308.312521 152.933509 
L 308.225176 153.007098 
L 308.091081 153.13127 
L 307.971503 153.236128 
L 307.863543 153.329031 
L 307.717829 153.444125 
L 307.621035 153.526793 
L 307.464155 153.65399 
L 307.382383 153.724554 
L 307.210481 153.87307 
L 307.149753 153.922315 
L 306.956807 154.072389 
L 306.89897 154.120077 
L 306.703134 154.279159 
L 306.656172 154.317838 
L 306.44946 154.48523 
L 306.412037 154.515599 
L 306.195786 154.681378 
L 306.153641 154.713361 
L 305.942112 154.878068 
L 305.899767 154.911122 
L 305.688438 155.074996 
L 305.644245 155.108883 
L 305.434765 155.263789 
L 305.378099 155.306644 
L 305.181091 155.456161 
L 305.11654 155.504406 
L 304.927417 155.64949 
L 304.853632 155.702167 
L 304.673743 155.828282 
L 304.564652 155.899928 
L 304.420069 155.996394 
L 304.263016 156.09769 
L 304.166396 156.162131 
L 303.970537 156.295451 
L 303.912722 156.334517 
L 303.659048 156.484312 
" style="fill:none;stroke:#000000;stroke-width:1.714286;"/>
    <path clip-path="url(#p7c79519575)" d="M 308.986198 152.266186 
L 308.939571 152.142464 
L 308.986198 152.114128 
L 309.056595 152.142464 
L 308.986198 152.266186 
" style="fill:none;stroke:#000000;stroke-width:1.714286;"/>
    <path clip-path="url(#p7c79519575)" d="M 327.504386 133.950356 
L 327.502427 133.948424 
L 327.504386 133.945598 
L 327.512843 133.948424 
L 327.504386 133.950356 
" style="fill:none;stroke:#000000;stroke-width:1.714286;"/>
    <path clip-path="url(#p7c79519575)" d="M 329.026429 133.395404 
L 329.056693 133.35514 
L 329.026429 133.32766 
L 328.957502 133.35514 
L 329.026429 133.395404 
" style="fill:none;stroke:#000000;stroke-width:1.714286;"/>
   </g>
   <g id="LineCollection_2">
    <path clip-path="url(#p7c79519575)" d="M 191.535224 234.035583 
L 191.837412 234.015643 
L 195.338445 231.840269 
L 198.891765 229.509237 
L 204.130908 225.314146 
L 206.026731 223.534294 
L 206.151881 223.336533 
L 205.994631 223.198826 
L 205.207481 223.534294 
L 203.608834 224.523101 
L 202.189524 225.524626 
L 196.793115 229.664895 
L 191.535224 234.035583 
L 191.535224 234.035583 
" style="fill:none;stroke:#000000;stroke-width:1.714286;"/>
    <path clip-path="url(#p7c79519575)" d="M 204.979936 226.796805 
L 205.994631 226.312285 
L 207.770348 225.414549 
L 211.068107 223.133498 
L 212.336476 222.301474 
L 212.46386 222.347726 
L 212.033577 223.138772 
L 212.129723 223.138772 
L 213.219928 222.545488 
L 215.126888 221.266885 
L 219.023896 218.590262 
L 218.931995 218.9927 
L 218.090585 219.974591 
L 217.595688 220.567875 
L 217.663626 220.754134 
L 219.185669 219.8475 
L 220.707712 218.896442 
L 221.093335 218.788023 
L 220.961386 219.404422 
L 221.008705 219.381307 
L 222.052072 218.788023 
L 225.527515 216.360316 
L 236.965956 208.306674 
L 239.2259 207.050459 
L 239.2259 207.195348 
L 238.487227 208.108912 
L 238.754491 208.108912 
L 246.328767 202.869743 
L 251.402243 199.115884 
L 255.101374 196.440996 
L 264.932137 189.51935 
L 265.607976 189.080167 
L 266.484425 188.530543 
L 268.205873 187.343976 
L 272.51374 183.982033 
L 274.796401 182.00442 
L 278.193643 178.84024 
L 280.735377 176.862627 
L 283.62112 174.489491 
L 284.126165 173.690967 
L 290.46801 167.927156 
L 292.751074 165.859998 
L 298.022859 161.239484 
L 300.728777 157.877541 
L 300.506156 157.482019 
L 300.868636 156.828501 
L 299.600267 157.387557 
L 299.600267 157.231658 
L 300.695143 156.295451 
L 313.358794 146.407386 
L 313.607859 146.011863 
L 313.461958 146.011863 
L 312.791305 146.355575 
L 310.761915 147.737201 
L 309.747219 148.427563 
L 309.477731 148.384999 
L 309.493546 148.369275 
L 310.146227 147.791715 
L 311.576828 146.605147 
L 315.671252 143.243205 
L 315.581717 143.088741 
L 314.477617 143.440966 
L 316.089065 141.7404 
L 317.207756 140.672308 
L 318.879476 139.201392 
L 319.89861 138.299172 
L 319.937554 138.101411 
L 320.401519 137.624156 
L 326.038678 132.761856 
L 326.43157 132.366333 
L 326.134799 132.366333 
L 324.4603 133.572641 
L 317.864781 138.504395 
L 316.596412 139.274701 
L 316.473716 139.090218 
L 317.03454 138.496934 
L 332.070515 126.79977 
L 333.146628 125.84021 
L 333.08521 125.701571 
L 332.070515 126.341861 
L 323.952953 132.083641 
L 317.998742 136.914843 
L 315.835391 138.91951 
L 314.683787 140.079024 
L 311.904533 142.45216 
L 311.289667 143.045444 
L 311.625505 143.045444 
L 312.590741 142.649921 
L 311.77661 143.511477 
L 308.904775 146.011863 
L 304.927417 149.194916 
L 301.375767 151.944702 
L 297.772536 155.108883 
L 294.913537 157.482019 
L 293.966279 158.470825 
L 293.765769 159.084331 
L 291.990053 160.742237 
L 289.17551 163.414858 
L 289.146637 163.612619 
L 287.857204 165.19471 
L 286.655961 166.381277 
L 285.380549 167.370084 
L 279.81371 171.338427 
L 276.769624 173.614601 
L 273.942489 175.87382 
L 267.637367 181.223545 
L 264.008532 183.982033 
L 258.616259 188.135021 
L 257.169339 189.51935 
L 256.178547 190.508156 
L 254.192655 192.221322 
L 249.711903 195.847712 
L 248.065444 197.232041 
L 245.314072 199.410878 
L 242.401535 201.385028 
L 241.255291 202.059702 
L 241.032293 201.978312 
L 241.762638 201.184778 
L 243.792029 199.492869 
L 248.865505 195.563303 
L 254.03452 191.496963 
L 254.264697 191.299202 
L 254.192655 191.167883 
L 253.372741 191.694724 
L 248.358157 195.153737 
L 242.751956 199.407415 
L 236.689162 204.270066 
L 234.406098 205.673532 
L 232.884055 206.46906 
L 232.775721 206.329061 
L 234.406098 204.809684 
L 236.352388 202.967119 
L 236.181815 202.894518 
L 235.167119 203.389129 
L 232.912807 204.74697 
L 231.108338 205.99572 
L 227.049557 209.196643 
L 224.48192 211.470855 
L 223.46441 212.459661 
L 223.377854 212.657422 
L 223.520434 212.657422 
L 225.273841 211.616565 
L 225.372509 211.668616 
L 224.005472 212.899695 
L 218.678322 217.134494 
L 217.156279 218.268233 
L 216.951295 218.194739 
L 217.9173 217.299703 
L 219.527131 215.821603 
L 219.439343 215.688452 
L 216.141584 218.086603 
L 211.292856 221.556681 
L 208.057827 223.929817 
L 205.23361 226.280224 
L 204.872065 226.698475 
L 204.979936 226.796805 
L 204.979936 226.796805 
" style="fill:none;stroke:#000000;stroke-width:1.714286;"/>
    <path clip-path="url(#p7c79519575)" d="M 216.395257 218.794352 
L 216.386467 218.788023 
L 216.395257 218.778173 
L 216.403524 218.788023 
L 216.395257 218.794352 
" style="fill:none;stroke:#000000;stroke-width:1.714286;"/>
    <path clip-path="url(#p7c79519575)" d="M 216.648931 218.62593 
L 216.584221 218.590262 
L 216.648931 218.517653 
L 216.695519 218.590262 
L 216.648931 218.62593 
" style="fill:none;stroke:#000000;stroke-width:1.714286;"/>
    <path clip-path="url(#p7c79519575)" d="M 216.902605 218.449091 
L 216.773662 218.3925 
L 216.902605 218.245238 
L 216.976325 218.3925 
L 216.902605 218.449091 
" style="fill:none;stroke:#000000;stroke-width:1.714286;"/>
    <path clip-path="url(#p7c79519575)" d="M 219.693017 215.675554 
L 219.754694 215.623842 
L 219.693017 215.534489 
L 219.545981 215.623842 
L 219.693017 215.675554 
" style="fill:none;stroke:#000000;stroke-width:1.714286;"/>
    <path clip-path="url(#p7c79519575)" d="M 219.946691 215.443148 
L 219.963711 215.426081 
L 219.946691 215.39265 
L 219.897207 215.426081 
L 219.946691 215.443148 
" style="fill:none;stroke:#000000;stroke-width:1.714286;"/>
    <path clip-path="url(#p7c79519575)" d="M 225.527515 211.48131 
L 225.51981 211.470855 
L 225.527515 211.466553 
L 225.537723 211.470855 
L 225.527515 211.48131 
" style="fill:none;stroke:#000000;stroke-width:1.714286;"/>
    <path clip-path="url(#p7c79519575)" d="M 232.630381 206.536304 
L 232.619562 206.526822 
L 232.630381 206.515336 
L 232.672748 206.526822 
L 232.630381 206.536304 
" style="fill:none;stroke:#000000;stroke-width:1.714286;"/>
    <path clip-path="url(#p7c79519575)" d="M 241.001617 202.181437 
L 240.988749 202.176073 
L 241.001617 202.110507 
L 241.013171 202.176073 
L 241.001617 202.181437 
" style="fill:none;stroke:#000000;stroke-width:1.714286;"/>
    <path clip-path="url(#p7c79519575)" d="M 254.446329 191.135118 
L 254.489455 191.10144 
L 254.446329 191.033228 
L 254.318065 191.10144 
L 254.446329 191.135118 
" style="fill:none;stroke:#000000;stroke-width:1.714286;"/>
    <path clip-path="url(#p7c79519575)" d="M 254.700003 190.922166 
L 254.724697 190.903679 
L 254.700003 190.87822 
L 254.646846 190.903679 
L 254.700003 190.922166 
" style="fill:none;stroke:#000000;stroke-width:1.714286;"/>
    <path clip-path="url(#p7c79519575)" d="M 301.12231 156.72696 
L 301.165017 156.690974 
L 301.12231 156.64306 
L 301.068605 156.690974 
L 301.12231 156.72696 
" style="fill:none;stroke:#000000;stroke-width:1.714286;"/>
    <path clip-path="url(#p7c79519575)" d="M 301.375984 156.550827 
L 301.439394 156.493212 
L 301.375984 156.423363 
L 301.276113 156.493212 
L 301.375984 156.550827 
" style="fill:none;stroke:#000000;stroke-width:1.714286;"/>
    <path clip-path="url(#p7c79519575)" d="M 301.629657 156.335745 
L 301.670149 156.295451 
L 301.629657 156.250771 
L 301.554719 156.295451 
L 301.629657 156.335745 
" style="fill:none;stroke:#000000;stroke-width:1.714286;"/>
    <path clip-path="url(#p7c79519575)" d="M 301.883331 156.108419 
L 301.895371 156.09769 
L 301.883331 156.081606 
L 301.86278 156.09769 
L 301.883331 156.108419 
" style="fill:none;stroke:#000000;stroke-width:1.714286;"/>
    <path clip-path="url(#p7c79519575)" d="M 302.137005 155.904499 
L 302.142536 155.899928 
L 302.137005 155.892767 
L 302.126772 155.899928 
L 302.137005 155.904499 
" style="fill:none;stroke:#000000;stroke-width:1.714286;"/>
    <path clip-path="url(#p7c79519575)" d="M 302.390679 155.714881 
L 302.405831 155.702167 
L 302.390679 155.674627 
L 302.36435 155.702167 
L 302.390679 155.714881 
" style="fill:none;stroke:#000000;stroke-width:1.714286;"/>
    <path clip-path="url(#p7c79519575)" d="M 302.644353 155.550626 
L 302.707058 155.504406 
L 302.644353 155.418681 
L 302.533449 155.504406 
L 302.644353 155.550626 
" style="fill:none;stroke:#000000;stroke-width:1.714286;"/>
    <path clip-path="url(#p7c79519575)" d="M 302.898026 155.337515 
L 302.938671 155.306644 
L 302.898026 155.25663 
L 302.821618 155.306644 
L 302.898026 155.337515 
" style="fill:none;stroke:#000000;stroke-width:1.714286;"/>
    <path clip-path="url(#p7c79519575)" d="M 303.1517 155.149909 
L 303.204259 155.108883 
L 303.1517 155.045181 
L 303.071252 155.108883 
L 303.1517 155.149909 
" style="fill:none;stroke:#000000;stroke-width:1.714286;"/>
    <path clip-path="url(#p7c79519575)" d="M 303.405374 154.953594 
L 303.460554 154.911122 
L 303.405374 154.848818 
L 303.321121 154.911122 
L 303.405374 154.953594 
" style="fill:none;stroke:#000000;stroke-width:1.714286;"/>
    <path clip-path="url(#p7c79519575)" d="M 303.659048 154.76083 
L 303.722753 154.713361 
L 303.659048 154.637832 
L 303.571982 154.713361 
L 303.659048 154.76083 
" style="fill:none;stroke:#000000;stroke-width:1.714286;"/>
    <path clip-path="url(#p7c79519575)" d="M 303.912722 154.572676 
L 303.979321 154.515599 
L 303.912722 154.43568 
L 303.804207 154.515599 
L 303.912722 154.572676 
" style="fill:none;stroke:#000000;stroke-width:1.714286;"/>
    <path clip-path="url(#p7c79519575)" d="M 304.166396 154.358004 
L 304.218027 154.317838 
L 304.166396 154.258742 
L 304.083486 154.317838 
L 304.166396 154.358004 
" style="fill:none;stroke:#000000;stroke-width:1.714286;"/>
    <path clip-path="url(#p7c79519575)" d="M 304.420069 154.152422 
L 304.458847 154.120077 
L 304.420069 154.070424 
L 304.357687 154.120077 
L 304.420069 154.152422 
" style="fill:none;stroke:#000000;stroke-width:1.714286;"/>
    <path clip-path="url(#p7c79519575)" d="M 304.673743 153.947502 
L 304.705182 153.922315 
L 304.673743 153.887113 
L 304.619633 153.922315 
L 304.673743 153.947502 
" style="fill:none;stroke:#000000;stroke-width:1.714286;"/>
    <path clip-path="url(#p7c79519575)" d="M 315.835391 143.057281 
L 315.848198 143.045444 
L 315.835391 143.032653 
L 315.760814 143.045444 
L 315.835391 143.057281 
" style="fill:none;stroke:#000000;stroke-width:1.714286;"/>
    <path clip-path="url(#p7c79519575)" d="M 326.489691 132.297603 
L 326.591636 132.168572 
L 326.489691 132.126768 
L 326.429031 132.168572 
L 326.489691 132.297603 
" style="fill:none;stroke:#000000;stroke-width:1.714286;"/>
    <path clip-path="url(#p7c79519575)" d="M 326.743365 131.986727 
L 326.755918 131.970811 
L 326.743365 131.965049 
L 326.734805 131.970811 
L 326.743365 131.986727 
" style="fill:none;stroke:#000000;stroke-width:1.714286;"/>
    <path clip-path="url(#p7c79519575)" d="M 333.338884 125.666686 
L 333.366614 125.642449 
L 333.338884 125.581431 
L 333.210464 125.642449 
L 333.338884 125.666686 
" style="fill:none;stroke:#000000;stroke-width:1.714286;"/>
   </g>
   <g id="LineCollection_3">
    <path clip-path="url(#p7c79519575)" d="M 415.066347 11.379141 
L 414.82335 14.029646 
L 416.158125 15.284218 
L 416.549305 14.029646 
L 417.145549 11.379141 
" style="fill:none;stroke:#fff5f0;stroke-width:1.5;"/>
    <path clip-path="url(#p7c79519575)" d="M 100.540625 247.355494 
L 107.401875 248.026153 
L 114.263125 248.528663 
L 121.124375 248.780768 
L 127.985625 248.742353 
L 134.846875 248.429527 
L 141.708125 247.890837 
L 148.569375 247.116934 
L 162.39709 244.623585 
L 172.618525 241.97308 
L 182.875625 238.895389 
L 189.736875 236.539545 
L 196.598125 233.879455 
L 203.459375 230.920273 
L 217.181875 224.298709 
L 218.708333 223.419545 
L 224.043125 220.737767 
L 228.152925 218.118535 
L 230.904375 216.697565 
L 232.720931 215.46803 
L 237.765625 212.616401 
L 241.061974 210.167019 
L 244.626875 208.138931 
L 249.024749 204.866009 
L 251.488125 203.430979 
L 252.946083 202.215504 
L 256.579187 199.564999 
L 258.349375 198.510821 
L 260.131281 196.914494 
L 263.698844 194.263989 
L 265.210625 193.341613 
L 267.018011 191.613484 
L 270.394994 188.962979 
L 272.071875 187.908801 
L 273.649633 186.312474 
L 276.734156 183.661969 
L 278.933125 182.226939 
L 280.078861 181.011464 
L 282.821627 178.360959 
L 285.794375 176.332871 
L 288.764386 173.059949 
L 292.655625 170.20832 
L 294.642433 167.758939 
L 297.453082 165.108434 
L 299.516875 163.687464 
L 300.501645 162.457929 
L 302.775293 159.807423 
L 306.378125 157.125646 
L 308.268875 154.506413 
L 310.772864 151.855908 
L 313.239375 150.084568 
L 315.833041 146.554898 
L 318.623724 143.904393 
L 320.100625 142.890655 
L 321.207429 141.253888 
L 323.182257 138.603383 
L 326.961875 135.502091 
L 328.340581 133.302373 
L 330.301785 130.651868 
L 333.823125 127.859253 
L 335.293048 125.350858 
L 337.186753 122.700353 
L 340.684375 119.917322 
L 342.083041 117.399343 
L 343.855249 114.748838 
L 346.845261 112.098333 
L 347.545625 111.671146 
L 348.735902 109.447827 
L 350.350657 106.797322 
L 352.868638 104.146817 
L 354.406875 103.161512 
L 356.728714 98.845807 
L 358.754002 96.195302 
L 361.268125 94.455425 
L 363.038937 90.894292 
L 364.662332 88.243787 
L 368.141838 85.593282 
L 369.313653 82.942777 
L 370.652869 80.292272 
L 372.67336 77.641767 
L 374.990625 76.245766 
L 378.113896 69.690252 
L 381.41312 67.039747 
L 381.851875 66.88259 
L 383.950873 61.738737 
L 385.382911 59.088232 
L 388.713125 57.054473 
L 388.98004 56.437726 
L 390.984729 51.136716 
L 392.329408 48.486211 
L 395.574375 46.991143 
L 396.026562 45.835706 
L 397.802438 40.534696 
L 398.505571 37.884191 
L 395.574375 37.174945 
L 395.266038 37.884191 
L 393.225571 43.185201 
L 391.509854 45.835706 
L 388.713125 46.6919 
L 386.846524 51.136716 
L 385.441504 53.787221 
L 381.851875 55.934872 
L 381.605391 56.437726 
L 380.46777 59.088232 
L 379.129135 61.738737 
L 376.524976 64.389242 
L 374.990625 65.019839 
L 372.718124 69.690252 
L 370.764452 72.340757 
L 368.129375 73.902338 
L 366.218904 77.641767 
L 364.436343 80.292272 
L 361.268125 82.468053 
L 360.998768 82.942777 
L 359.627361 85.593282 
L 357.885 88.243787 
L 354.35113 90.894292 
L 352.934207 93.544797 
L 351.167327 96.195302 
L 347.545625 98.984665 
L 346.126071 101.496312 
L 344.285353 104.146817 
L 340.684375 106.929848 
L 339.184474 109.447827 
L 337.216042 112.098333 
L 333.749997 114.748838 
L 332.083019 117.399343 
L 329.909906 120.049848 
L 326.961875 122.194347 
L 324.781333 125.350858 
L 322.269117 128.001363 
L 320.100625 129.501963 
L 317.21108 133.302373 
L 314.075889 135.952878 
L 313.239375 136.488184 
L 311.661016 138.603383 
L 309.238809 141.253888 
L 306.378125 143.296651 
L 303.709224 146.554898 
L 300.543205 149.205403 
L 299.516875 149.872849 
L 297.86526 151.855908 
L 295.164438 154.506413 
L 292.655625 156.232204 
L 289.299848 159.807423 
L 285.603706 162.457929 
L 283.141377 165.108434 
L 278.933125 168.171775 
L 276.750147 170.409444 
L 273.335912 173.059949 
L 272.071875 173.85867 
L 270.138197 175.710454 
L 266.688383 178.360959 
L 265.210625 179.283335 
L 263.290394 181.011464 
L 259.660871 183.661969 
L 258.349375 184.46069 
L 256.16808 186.312474 
L 251.488125 189.375815 
L 248.701856 191.613484 
L 244.356765 194.263989 
L 240.768651 196.914494 
L 237.765625 198.640285 
L 236.418284 199.564999 
L 227.852236 204.866009 
L 223.016502 207.516514 
L 213.388526 212.817524 
L 202.365594 218.118535 
L 196.347347 220.76904 
L 189.736875 223.55207 
L 182.875625 226.208907 
L 175.712104 228.720555 
L 167.387258 231.37106 
L 162.291875 232.932641 
L 148.569375 236.169215 
L 145.556089 236.67207 
L 141.708125 237.528263 
L 134.846875 238.613329 
L 127.985625 239.368606 
L 121.124375 240.206579 
L 114.263125 240.718508 
L 107.401875 241.008356 
L 93.679375 241.170298 
L 86.818125 241.243128 
L 80.65998 241.97308 
L 87.045836 244.623585 
L 93.679375 245.851974 
L 100.540625 247.355494 
L 100.540625 247.355494 
" style="fill:none;stroke:#fff5f0;stroke-width:1.5;"/>
    <path clip-path="url(#p7c79519575)" d="M 402.435625 36.701949 
L 402.958087 35.233686 
L 403.758048 32.583181 
L 404.407214 29.932676 
L 402.435625 27.328202 
L 401.547651 29.932676 
L 400.660319 32.583181 
L 399.840354 35.233686 
L 402.435625 36.701949 
" style="fill:none;stroke:#fff5f0;stroke-width:1.5;"/>
    <path clip-path="url(#p7c79519575)" d="M 409.296875 26.138343 
L 409.792227 24.631666 
L 410.486336 21.981161 
L 410.858459 19.330656 
L 409.296875 17.564154 
L 408.689263 19.330656 
L 407.917532 21.981161 
L 407.42468 24.631666 
L 409.296875 26.138343 
" style="fill:none;stroke:#fff5f0;stroke-width:1.5;"/>
   </g>
   <g id="LineCollection_4">
    <path clip-path="url(#p7c79519575)" d="M 121.124375 245.663306 
L 127.985625 246.192042 
L 134.846875 246.172685 
L 141.708125 245.780169 
L 148.569375 245.157033 
L 152.847591 244.623585 
L 155.430625 244.159795 
L 166.314876 241.97308 
L 176.662984 239.322575 
L 184.786819 236.67207 
L 192.092617 234.021565 
L 196.598125 232.311534 
L 198.756814 231.37106 
L 204.968024 228.720555 
L 210.896179 226.07005 
L 217.181875 222.950951 
L 220.853543 220.76904 
L 224.043125 219.236566 
L 225.797412 218.118535 
L 230.923648 215.46803 
L 234.641241 212.817524 
L 237.765625 211.176473 
L 239.124136 210.167019 
L 243.237804 207.516514 
L 244.626875 206.785044 
L 246.971912 204.866009 
L 251.511639 202.215504 
L 254.463486 199.564999 
L 258.724872 196.914494 
L 261.596251 194.263989 
L 265.210625 192.058769 
L 268.390813 188.962979 
L 272.404352 186.312474 
L 274.90166 183.661969 
L 278.951603 181.011464 
L 281.205676 178.360959 
L 284.552277 175.710454 
L 285.794375 174.978983 
L 287.378046 173.059949 
L 290.077732 170.409444 
L 292.655625 168.768393 
L 295.686271 165.108434 
L 299.527323 162.457929 
L 301.396413 159.807423 
L 303.971059 157.156918 
L 306.378125 155.624445 
L 309.135419 151.855908 
L 312.39427 149.205403 
L 313.239375 148.736809 
L 314.640619 146.554898 
L 316.68424 143.904393 
L 320.100625 141.559401 
L 320.307217 141.253888 
L 321.895042 138.603383 
L 324.011558 135.952878 
L 326.961875 134.032165 
L 328.95134 130.651868 
L 331.065986 128.001363 
L 333.823125 126.291332 
L 335.821553 122.700353 
L 337.809698 120.049848 
L 340.684375 118.313767 
L 341.192312 117.399343 
L 342.532229 114.748838 
L 344.274684 112.098333 
L 347.545625 110.103225 
L 347.896499 109.447827 
L 349.121467 106.797322 
L 350.573823 104.146817 
L 354.509277 101.496312 
L 356.83034 96.195302 
L 358.858274 93.544797 
L 361.268125 92.825663 
L 363.110104 88.243787 
L 364.123558 85.593282 
L 361.268125 84.185554 
L 357.974174 90.894292 
L 354.406875 92.515317 
L 353.864136 93.544797 
L 352.600871 96.195302 
L 350.937272 98.845807 
L 347.545625 100.625512 
L 347.053459 101.496312 
L 345.690896 104.146817 
L 343.825754 106.797322 
L 340.684375 108.533403 
L 338.663174 112.098333 
L 336.51692 114.748838 
L 333.823125 116.230207 
L 331.474317 120.049848 
L 328.848991 122.700353 
L 326.961875 123.679955 
L 325.901127 125.350858 
L 324.057887 128.001363 
L 320.100625 130.795064 
L 318.49889 133.302373 
L 316.281038 135.952878 
L 313.239375 137.899313 
L 310.807178 141.253888 
L 307.783065 143.904393 
L 306.378125 144.691434 
L 304.990594 146.554898 
L 302.62964 149.205403 
L 299.516875 151.229703 
L 296.845899 154.506413 
L 292.655625 157.51971 
L 290.781734 159.807423 
L 287.844687 162.457929 
L 285.794375 163.70199 
L 284.525349 165.108434 
L 281.79129 167.758939 
L 278.933125 169.555235 
L 275.403707 173.059949 
L 272.071875 175.165271 
L 268.743656 178.360959 
L 265.210625 180.566179 
L 261.806303 183.661969 
L 258.349375 185.767291 
L 254.541388 188.962979 
L 251.488125 190.759275 
L 250.424493 191.613484 
L 246.837029 194.263989 
L 244.626875 195.50805 
L 242.781344 196.914494 
L 237.765625 199.927791 
L 234.617988 202.215504 
L 229.940579 204.866009 
L 225.576959 207.516514 
L 224.043125 208.303556 
L 221.025614 210.167019 
L 210.320625 215.611226 
L 205.577321 218.118535 
L 193.874822 223.419545 
L 187.372577 226.07005 
L 182.875625 227.849755 
L 169.153125 232.613837 
L 148.569375 238.152337 
L 141.708125 239.356592 
L 134.846875 240.903039 
L 126.189832 241.97308 
L 121.124375 243.37592 
L 114.263125 244.623585 
L 121.124375 245.663306 
L 121.124375 245.663306 
" style="fill:none;stroke:#fb694a;stroke-width:1.5;"/>
    <path clip-path="url(#p7c79519575)" d="M 368.129375 83.774325 
L 368.495698 82.942777 
L 369.421238 80.292272 
L 370.18147 77.641767 
L 368.129375 75.566628 
L 367.266593 77.641767 
L 366.238786 80.292272 
L 365.242305 82.942777 
L 368.129375 83.774325 
" style="fill:none;stroke:#fb694a;stroke-width:1.5;"/>
    <path clip-path="url(#p7c79519575)" d="M 374.990625 74.527472 
L 375.745862 72.340757 
L 376.45919 69.690252 
L 375.941386 67.039747 
L 374.990625 66.740727 
L 374.850634 67.039747 
L 373.922093 69.690252 
L 373.145649 72.340757 
L 374.990625 74.527472 
" style="fill:none;stroke:#fb694a;stroke-width:1.5;"/>
    <path clip-path="url(#p7c79519575)" d="M 381.851875 64.922689 
L 382.063003 64.389242 
L 382.783532 61.738737 
L 383.025075 59.088232 
L 381.851875 57.917993 
L 381.392001 59.088232 
L 380.643366 61.738737 
L 380.712194 64.389242 
L 381.851875 64.922689 
" style="fill:none;stroke:#fb694a;stroke-width:1.5;"/>
    <path clip-path="url(#p7c79519575)" d="M 388.713125 54.943805 
L 389.09427 53.787221 
L 389.591467 51.136716 
L 388.713125 48.520229 
L 387.991382 51.136716 
L 387.70938 53.787221 
L 388.713125 54.943805 
" style="fill:none;stroke:#fb694a;stroke-width:1.5;"/>
    <path clip-path="url(#p7c79519575)" d="M 395.574375 44.734301 
L 395.986062 43.185201 
L 396.168934 40.534696 
L 395.574375 39.464655 
L 395.229757 40.534696 
L 394.857694 43.185201 
L 395.574375 44.734301 
" style="fill:none;stroke:#fb694a;stroke-width:1.5;"/>
    <path clip-path="url(#p7c79519575)" d="M 402.435625 34.151637 
L 402.766315 32.583181 
L 402.565446 29.932676 
L 402.435625 29.761182 
L 402.377156 29.932676 
L 401.991685 32.583181 
L 402.435625 34.151637 
" style="fill:none;stroke:#fb694a;stroke-width:1.5;"/>
    <path clip-path="url(#p7c79519575)" d="M 409.296875 23.020882 
L 409.475605 21.981161 
L 409.296875 20.733496 
L 409.089613 21.981161 
L 409.296875 23.020882 
" style="fill:none;stroke:#fb694a;stroke-width:1.5;"/>
   </g>
   <g id="LineCollection_5">
    <path clip-path="url(#p7c79519575)" d="M 162.291875 239.53823 
L 163.966834 239.322575 
L 162.291875 238.747496 
L 160.212884 239.322575 
L 162.291875 239.53823 
" style="fill:none;stroke:#67000d;stroke-width:1.5;"/>
    <path clip-path="url(#p7c79519575)" d="M 169.153125 238.13547 
L 176.014375 236.969371 
L 177.101333 236.67207 
L 182.875625 234.886698 
L 185.594184 234.021565 
L 189.736875 232.643302 
L 193.152504 231.37106 
L 196.598125 230.143446 
L 199.888018 228.720555 
L 203.459375 227.354155 
L 206.069883 226.07005 
L 210.320625 224.316364 
L 211.962714 223.419545 
L 217.181875 221.094202 
L 217.729051 220.76904 
L 222.345192 218.118535 
L 224.043125 217.398175 
L 226.847619 215.46803 
L 230.904375 213.529145 
L 231.899774 212.817524 
L 236.038971 210.167019 
L 237.765625 209.38579 
L 240.047624 207.516514 
L 244.626875 205.105128 
L 244.919076 204.866009 
L 247.893115 202.215504 
L 251.488125 200.339832 
L 252.347786 199.564999 
L 255.395826 196.914494 
L 258.349375 195.393359 
L 259.493659 194.263989 
L 262.492231 191.613484 
L 265.210625 190.217551 
L 266.386632 188.962979 
L 269.169777 186.312474 
L 272.071875 184.791339 
L 273.069165 183.661969 
L 275.522277 181.011464 
L 278.933125 179.135792 
L 279.589726 178.360959 
L 281.699642 175.710454 
L 285.794375 173.299068 
L 285.991707 173.059949 
L 287.815779 170.409444 
L 290.820059 167.758939 
L 292.655625 166.977709 
L 293.91946 165.108434 
L 295.930116 162.457929 
L 299.516875 160.519044 
L 300.017533 159.807423 
L 301.613113 157.156918 
L 304.302476 154.506413 
L 306.378125 153.786054 
L 307.497975 151.855908 
L 309.045639 149.205403 
L 313.239375 146.880061 
L 313.448197 146.554898 
L 314.744757 143.904393 
L 316.0995 141.253888 
L 313.239375 139.865987 
L 312.375546 141.253888 
L 310.855006 143.904393 
L 306.378125 146.412323 
L 306.271964 146.554898 
L 304.716074 149.205403 
L 302.539398 151.855908 
L 299.516875 153.122368 
L 298.527361 154.506413 
L 296.59771 157.156918 
L 292.655625 159.32885 
L 292.26362 159.807423 
L 290.37257 162.457929 
L 286.508147 165.108434 
L 285.794375 165.352601 
L 283.992573 167.758939 
L 280.989848 170.409444 
L 278.933125 171.340195 
L 277.471503 173.059949 
L 274.647221 175.710454 
L 272.071875 176.995346 
L 270.798928 178.360959 
L 267.929019 181.011464 
L 265.210625 182.407397 
L 263.951735 183.661969 
L 260.875599 186.312474 
L 258.349375 187.597367 
L 256.892931 188.962979 
L 253.393517 191.613484 
L 251.488125 192.544235 
L 249.561987 194.263989 
L 245.168119 196.914494 
L 244.626875 197.158662 
L 241.845331 199.564999 
L 237.765625 201.736931 
L 237.107161 202.215504 
L 233.467226 204.866009 
L 230.904375 206.132469 
L 228.930732 207.516514 
L 224.043125 210.024445 
L 223.812253 210.167019 
L 219.831179 212.817524 
L 217.181875 214.080129 
L 214.851737 215.46803 
L 210.320625 217.627124 
L 209.390979 218.118535 
L 203.920334 220.76904 
L 203.459375 220.975725 
L 198.763455 223.419545 
L 196.598125 224.38543 
L 192.903528 226.07005 
L 189.736875 227.448312 
L 186.593872 228.720555 
L 182.875625 230.297318 
L 179.896155 231.37106 
L 176.014375 233.003128 
L 172.839555 234.021565 
L 169.153125 235.658947 
L 165.626362 236.67207 
L 169.153125 238.13547 
" style="fill:none;stroke:#67000d;stroke-width:1.5;"/>
    <path clip-path="url(#p7c79519575)" d="M 320.100625 139.500202 
L 320.607827 138.603383 
L 321.753673 135.952878 
L 322.338793 133.302373 
L 320.100625 132.810962 
L 319.786699 133.302373 
L 318.486187 135.952878 
L 317.080209 138.603383 
L 320.100625 139.500202 
" style="fill:none;stroke:#67000d;stroke-width:1.5;"/>
    <path clip-path="url(#p7c79519575)" d="M 326.961875 131.935973 
L 327.600894 130.651868 
L 328.537975 128.001363 
L 326.961875 125.557544 
L 325.846658 128.001363 
L 324.859405 130.651868 
L 326.961875 131.935973 
" style="fill:none;stroke:#67000d;stroke-width:1.5;"/>
    <path clip-path="url(#p7c79519575)" d="M 333.823125 124.123244 
L 334.456352 122.700353 
L 335.154461 120.049848 
L 333.823125 118.365228 
L 333.038729 120.049848 
L 332.247008 122.700353 
L 333.823125 124.123244 
" style="fill:none;stroke:#67000d;stroke-width:1.5;"/>
    <path clip-path="url(#p7c79519575)" d="M 340.684375 116.02108 
L 341.209209 114.748838 
L 341.704108 112.098333 
L 340.684375 110.82609 
L 340.110306 112.098333 
L 339.500719 114.748838 
L 340.684375 116.02108 
" style="fill:none;stroke:#67000d;stroke-width:1.5;"/>
    <path clip-path="url(#p7c79519575)" d="M 347.545625 107.662456 
L 347.892277 106.797322 
L 348.279007 104.146817 
L 347.545625 103.073076 
L 347.096439 104.146817 
L 346.727333 106.797322 
L 347.545625 107.662456 
" style="fill:none;stroke:#67000d;stroke-width:1.5;"/>
    <path clip-path="url(#p7c79519575)" d="M 354.406875 99.143109 
L 354.527455 98.845807 
L 354.906678 96.195302 
L 354.406875 95.176866 
L 354.034414 96.195302 
L 354.064293 98.845807 
L 354.406875 99.143109 
" style="fill:none;stroke:#67000d;stroke-width:1.5;"/>
    <path clip-path="url(#p7c79519575)" d="M 361.268125 89.707187 
L 361.557876 88.243787 
L 361.268125 87.230664 
L 360.97932 88.243787 
L 361.268125 89.707187 
" style="fill:none;stroke:#67000d;stroke-width:1.5;"/>
    <path clip-path="url(#p7c79519575)" d="M 368.129375 80.507927 
L 368.189606 80.292272 
L 368.129375 79.717193 
L 368.041229 80.292272 
L 368.129375 80.507927 
" style="fill:none;stroke:#67000d;stroke-width:1.5;"/>
   </g>
   <g id="patch_3">
    <path d="M 38.789375 273.779141 
L 38.789375 11.379141 
" style="fill:none;stroke:#000000;stroke-linecap:square;stroke-linejoin:miter;stroke-width:0.8;"/>
   </g>
   <g id="patch_4">
    <path d="M 416.158125 273.779141 
L 416.158125 11.379141 
" style="fill:none;stroke:#000000;stroke-linecap:square;stroke-linejoin:miter;stroke-width:0.8;"/>
   </g>
   <g id="patch_5">
    <path d="M 38.789375 273.779141 
L 416.158125 273.779141 
" style="fill:none;stroke:#000000;stroke-linecap:square;stroke-linejoin:miter;stroke-width:0.8;"/>
   </g>
   <g id="patch_6">
    <path d="M 38.789375 11.379141 
L 416.158125 11.379141 
" style="fill:none;stroke:#000000;stroke-linecap:square;stroke-linejoin:miter;stroke-width:0.8;"/>
   </g>
  </g>
 </g>
 <defs>
  <clipPath id="p7c79519575">
   <rect height="262.4" width="377.36875" x="38.789375" y="11.379141"/>
  </clipPath>
 </defs>
</svg>
