<?xml version="1.0" encoding="utf-8" standalone="no"?>
<!DOCTYPE svg PUBLIC "-//W3C//DTD SVG 1.1//EN"
  "http://www.w3.org/Graphics/SVG/1.1/DTD/svg11.dtd">
<!-- Created with matplotlib (https://matplotlib.org/) -->
<svg height="319.536641pt" version="1.1" viewBox="0 0 432.158125 319.536641" width="432.158125pt" xmlns="http://www.w3.org/2000/svg" xmlns:xlink="http://www.w3.org/1999/xlink">
 <defs>
  <style type="text/css">
*{stroke-linecap:butt;stroke-linejoin:round;}
  </style>
 </defs>
 <g id="figure_1">
  <g id="patch_1">
   <path d="M 0 319.536641 
L 432.158125 319.536641 
L 432.158125 0 
L 0 0 
z
" style="fill:#ffffff;"/>
  </g>
  <g id="axes_1">
   <g id="patch_2">
    <path d="M 38.789375 273.779141 
L 416.158125 273.779141 
L 416.158125 11.379141 
L 38.789375 11.379141 
z
" style="fill:#ffffff;"/>
   </g>
   <g id="matplotlib.axis_1">
    <g id="xtick_1">
     <g id="line2d_1">
      <defs>
       <path d="M 0 0 
L 0 3.5 
" id="m8ff7be6852" style="stroke:#000000;stroke-width:0.8;"/>
      </defs>
      <g>
       <use style="stroke:#000000;stroke-width:0.8;" x="38.789375" xlink:href="#m8ff7be6852" y="273.779141"/>
      </g>
     </g>
     <g id="text_1">
      <!-- $\mathdefault{−0.5}$ -->
      <defs>
       <path d="M 10.59375 35.5 
L 73.1875 35.5 
L 73.1875 27.203125 
L 10.59375 27.203125 
z
" id="DejaVuSans-8722"/>
       <path d="M 31.78125 66.40625 
Q 24.171875 66.40625 20.328125 58.90625 
Q 16.5 51.421875 16.5 36.375 
Q 16.5 21.390625 20.328125 13.890625 
Q 24.171875 6.390625 31.78125 6.390625 
Q 39.453125 6.390625 43.28125 13.890625 
Q 47.125 21.390625 47.125 36.375 
Q 47.125 51.421875 43.28125 58.90625 
Q 39.453125 66.40625 31.78125 66.40625 
z
M 31.78125 74.21875 
Q 44.046875 74.21875 50.515625 64.515625 
Q 56.984375 54.828125 56.984375 36.375 
Q 56.984375 17.96875 50.515625 8.265625 
Q 44.046875 -1.421875 31.78125 -1.421875 
Q 19.53125 -1.421875 13.0625 8.265625 
Q 6.59375 17.96875 6.59375 36.375 
Q 6.59375 54.828125 13.0625 64.515625 
Q 19.53125 74.21875 31.78125 74.21875 
z
" id="DejaVuSans-48"/>
       <path d="M 10.6875 12.40625 
L 21 12.40625 
L 21 0 
L 10.6875 0 
z
" id="DejaVuSans-46"/>
       <path d="M 10.796875 72.90625 
L 49.515625 72.90625 
L 49.515625 64.59375 
L 19.828125 64.59375 
L 19.828125 46.734375 
Q 21.96875 47.46875 24.109375 47.828125 
Q 26.265625 48.1875 28.421875 48.1875 
Q 40.625 48.1875 47.75 41.5 
Q 54.890625 34.8125 54.890625 23.390625 
Q 54.890625 11.625 47.5625 5.09375 
Q 40.234375 -1.421875 26.90625 -1.421875 
Q 22.3125 -1.421875 17.546875 -0.640625 
Q 12.796875 0.140625 7.71875 1.703125 
L 7.71875 11.625 
Q 12.109375 9.234375 16.796875 8.0625 
Q 21.484375 6.890625 26.703125 6.890625 
Q 35.15625 6.890625 40.078125 11.328125 
Q 45.015625 15.765625 45.015625 23.390625 
Q 45.015625 31 40.078125 35.4375 
Q 35.15625 39.890625 26.703125 39.890625 
Q 22.75 39.890625 18.8125 39.015625 
Q 14.890625 38.140625 10.796875 36.28125 
z
" id="DejaVuSans-53"/>
      </defs>
      <g transform="translate(25.424375 289.137422)scale(0.11 -0.11)">
       <use transform="translate(0 0.78125)" xlink:href="#DejaVuSans-8722"/>
       <use transform="translate(83.789062 0.78125)" xlink:href="#DejaVuSans-48"/>
       <use transform="translate(147.412109 0.78125)" xlink:href="#DejaVuSans-46"/>
       <use transform="translate(179.199219 0.78125)" xlink:href="#DejaVuSans-53"/>
      </g>
     </g>
    </g>
    <g id="xtick_2">
     <g id="line2d_2">
      <g>
       <use style="stroke:#000000;stroke-width:0.8;" x="114.263125" xlink:href="#m8ff7be6852" y="273.779141"/>
      </g>
     </g>
     <g id="text_2">
      <!-- $\mathdefault{0.0}$ -->
      <g transform="translate(105.463125 289.137422)scale(0.11 -0.11)">
       <use transform="translate(0 0.78125)" xlink:href="#DejaVuSans-48"/>
       <use transform="translate(63.623047 0.78125)" xlink:href="#DejaVuSans-46"/>
       <use transform="translate(95.410156 0.78125)" xlink:href="#DejaVuSans-48"/>
      </g>
     </g>
    </g>
    <g id="xtick_3">
     <g id="line2d_3">
      <g>
       <use style="stroke:#000000;stroke-width:0.8;" x="189.736875" xlink:href="#m8ff7be6852" y="273.779141"/>
      </g>
     </g>
     <g id="text_3">
      <!-- $\mathdefault{0.5}$ -->
      <g transform="translate(180.936875 289.137422)scale(0.11 -0.11)">
       <use transform="translate(0 0.78125)" xlink:href="#DejaVuSans-48"/>
       <use transform="translate(63.623047 0.78125)" xlink:href="#DejaVuSans-46"/>
       <use transform="translate(95.410156 0.78125)" xlink:href="#DejaVuSans-53"/>
      </g>
     </g>
    </g>
    <g id="xtick_4">
     <g id="line2d_4">
      <g>
       <use style="stroke:#000000;stroke-width:0.8;" x="265.210625" xlink:href="#m8ff7be6852" y="273.779141"/>
      </g>
     </g>
     <g id="text_4">
      <!-- $\mathdefault{1.0}$ -->
      <defs>
       <path d="M 12.40625 8.296875 
L 28.515625 8.296875 
L 28.515625 63.921875 
L 10.984375 60.40625 
L 10.984375 69.390625 
L 28.421875 72.90625 
L 38.28125 72.90625 
L 38.28125 8.296875 
L 54.390625 8.296875 
L 54.390625 0 
L 12.40625 0 
z
" id="DejaVuSans-49"/>
      </defs>
      <g transform="translate(256.410625 289.137422)scale(0.11 -0.11)">
       <use transform="translate(0 0.78125)" xlink:href="#DejaVuSans-49"/>
       <use transform="translate(63.623047 0.78125)" xlink:href="#DejaVuSans-46"/>
       <use transform="translate(95.410156 0.78125)" xlink:href="#DejaVuSans-48"/>
      </g>
     </g>
    </g>
    <g id="xtick_5">
     <g id="line2d_5">
      <g>
       <use style="stroke:#000000;stroke-width:0.8;" x="340.684375" xlink:href="#m8ff7be6852" y="273.779141"/>
      </g>
     </g>
     <g id="text_5">
      <!-- $\mathdefault{1.5}$ -->
      <g transform="translate(331.884375 289.137422)scale(0.11 -0.11)">
       <use transform="translate(0 0.09375)" xlink:href="#DejaVuSans-49"/>
       <use transform="translate(63.623047 0.09375)" xlink:href="#DejaVuSans-46"/>
       <use transform="translate(95.410156 0.09375)" xlink:href="#DejaVuSans-53"/>
      </g>
     </g>
    </g>
    <g id="xtick_6">
     <g id="line2d_6">
      <g>
       <use style="stroke:#000000;stroke-width:0.8;" x="416.158125" xlink:href="#m8ff7be6852" y="273.779141"/>
      </g>
     </g>
     <g id="text_6">
      <!-- $\mathdefault{2.0}$ -->
      <defs>
       <path d="M 19.1875 8.296875 
L 53.609375 8.296875 
L 53.609375 0 
L 7.328125 0 
L 7.328125 8.296875 
Q 12.9375 14.109375 22.625 23.890625 
Q 32.328125 33.6875 34.8125 36.53125 
Q 39.546875 41.84375 41.421875 45.53125 
Q 43.3125 49.21875 43.3125 52.78125 
Q 43.3125 58.59375 39.234375 62.25 
Q 35.15625 65.921875 28.609375 65.921875 
Q 23.96875 65.921875 18.8125 64.3125 
Q 13.671875 62.703125 7.8125 59.421875 
L 7.8125 69.390625 
Q 13.765625 71.78125 18.9375 73 
Q 24.125 74.21875 28.421875 74.21875 
Q 39.75 74.21875 46.484375 68.546875 
Q 53.21875 62.890625 53.21875 53.421875 
Q 53.21875 48.921875 51.53125 44.890625 
Q 49.859375 40.875 45.40625 35.40625 
Q 44.1875 33.984375 37.640625 27.21875 
Q 31.109375 20.453125 19.1875 8.296875 
z
" id="DejaVuSans-50"/>
      </defs>
      <g transform="translate(407.358125 289.137422)scale(0.11 -0.11)">
       <use transform="translate(0 0.78125)" xlink:href="#DejaVuSans-50"/>
       <use transform="translate(63.623047 0.78125)" xlink:href="#DejaVuSans-46"/>
       <use transform="translate(95.410156 0.78125)" xlink:href="#DejaVuSans-48"/>
      </g>
     </g>
    </g>
    <g id="text_7">
     <!-- Hinz -->
     <defs>
      <path d="M 9.8125 72.90625 
L 19.671875 72.90625 
L 19.671875 43.015625 
L 55.515625 43.015625 
L 55.515625 72.90625 
L 65.375 72.90625 
L 65.375 0 
L 55.515625 0 
L 55.515625 34.71875 
L 19.671875 34.71875 
L 19.671875 0 
L 9.8125 0 
z
" id="DejaVuSans-72"/>
      <path d="M 9.421875 54.6875 
L 18.40625 54.6875 
L 18.40625 0 
L 9.421875 0 
z
M 9.421875 75.984375 
L 18.40625 75.984375 
L 18.40625 64.59375 
L 9.421875 64.59375 
z
" id="DejaVuSans-105"/>
      <path d="M 54.890625 33.015625 
L 54.890625 0 
L 45.90625 0 
L 45.90625 32.71875 
Q 45.90625 40.484375 42.875 44.328125 
Q 39.84375 48.1875 33.796875 48.1875 
Q 26.515625 48.1875 22.3125 43.546875 
Q 18.109375 38.921875 18.109375 30.90625 
L 18.109375 0 
L 9.078125 0 
L 9.078125 54.6875 
L 18.109375 54.6875 
L 18.109375 46.1875 
Q 21.34375 51.125 25.703125 53.5625 
Q 30.078125 56 35.796875 56 
Q 45.21875 56 50.046875 50.171875 
Q 54.890625 44.34375 54.890625 33.015625 
z
" id="DejaVuSans-110"/>
      <path d="M 5.515625 54.6875 
L 48.1875 54.6875 
L 48.1875 46.484375 
L 14.40625 7.171875 
L 48.1875 7.171875 
L 48.1875 0 
L 4.296875 0 
L 4.296875 8.203125 
L 38.09375 47.515625 
L 5.515625 47.515625 
z
" id="DejaVuSans-122"/>
     </defs>
     <g transform="translate(212.154687 309.425078)scale(0.14 -0.14)">
      <use xlink:href="#DejaVuSans-72"/>
      <use x="75.195312" xlink:href="#DejaVuSans-105"/>
      <use x="102.978516" xlink:href="#DejaVuSans-110"/>
      <use x="166.357422" xlink:href="#DejaVuSans-122"/>
     </g>
    </g>
   </g>
   <g id="matplotlib.axis_2">
    <g id="ytick_1">
     <g id="line2d_7">
      <defs>
       <path d="M 0 0 
L -3.5 0 
" id="m416401673a" style="stroke:#000000;stroke-width:0.8;"/>
      </defs>
      <g>
       <use style="stroke:#000000;stroke-width:0.8;" x="38.789375" xlink:href="#m416401673a" y="244.623585"/>
      </g>
     </g>
     <g id="text_8">
      <!-- $\mathdefault{0}$ -->
      <g transform="translate(24.749375 248.802726)scale(0.11 -0.11)">
       <use transform="translate(0 0.78125)" xlink:href="#DejaVuSans-48"/>
      </g>
     </g>
    </g>
    <g id="ytick_2">
     <g id="line2d_8">
      <g>
       <use style="stroke:#000000;stroke-width:0.8;" x="38.789375" xlink:href="#m416401673a" y="186.312474"/>
      </g>
     </g>
     <g id="text_9">
      <!-- $\mathdefault{1}$ -->
      <g transform="translate(24.749375 190.491615)scale(0.11 -0.11)">
       <use transform="translate(0 0.09375)" xlink:href="#DejaVuSans-49"/>
      </g>
     </g>
    </g>
    <g id="ytick_3">
     <g id="line2d_9">
      <g>
       <use style="stroke:#000000;stroke-width:0.8;" x="38.789375" xlink:href="#m416401673a" y="128.001363"/>
      </g>
     </g>
     <g id="text_10">
      <!-- $\mathdefault{2}$ -->
      <g transform="translate(24.749375 132.180503)scale(0.11 -0.11)">
       <use transform="translate(0 0.78125)" xlink:href="#DejaVuSans-50"/>
      </g>
     </g>
    </g>
    <g id="ytick_4">
     <g id="line2d_10">
      <g>
       <use style="stroke:#000000;stroke-width:0.8;" x="38.789375" xlink:href="#m416401673a" y="69.690252"/>
      </g>
     </g>
     <g id="text_11">
      <!-- $\mathdefault{3}$ -->
      <defs>
       <path d="M 40.578125 39.3125 
Q 47.65625 37.796875 51.625 33 
Q 55.609375 28.21875 55.609375 21.1875 
Q 55.609375 10.40625 48.1875 4.484375 
Q 40.765625 -1.421875 27.09375 -1.421875 
Q 22.515625 -1.421875 17.65625 -0.515625 
Q 12.796875 0.390625 7.625 2.203125 
L 7.625 11.71875 
Q 11.71875 9.328125 16.59375 8.109375 
Q 21.484375 6.890625 26.8125 6.890625 
Q 36.078125 6.890625 40.9375 10.546875 
Q 45.796875 14.203125 45.796875 21.1875 
Q 45.796875 27.640625 41.28125 31.265625 
Q 36.765625 34.90625 28.71875 34.90625 
L 20.21875 34.90625 
L 20.21875 43.015625 
L 29.109375 43.015625 
Q 36.375 43.015625 40.234375 45.921875 
Q 44.09375 48.828125 44.09375 54.296875 
Q 44.09375 59.90625 40.109375 62.90625 
Q 36.140625 65.921875 28.71875 65.921875 
Q 24.65625 65.921875 20.015625 65.03125 
Q 15.375 64.15625 9.8125 62.3125 
L 9.8125 71.09375 
Q 15.4375 72.65625 20.34375 73.4375 
Q 25.25 74.21875 29.59375 74.21875 
Q 40.828125 74.21875 47.359375 69.109375 
Q 53.90625 64.015625 53.90625 55.328125 
Q 53.90625 49.265625 50.4375 45.09375 
Q 46.96875 40.921875 40.578125 39.3125 
z
" id="DejaVuSans-51"/>
      </defs>
      <g transform="translate(24.749375 73.869392)scale(0.11 -0.11)">
       <use transform="translate(0 0.78125)" xlink:href="#DejaVuSans-51"/>
      </g>
     </g>
    </g>
    <g id="ytick_5">
     <g id="line2d_11">
      <g>
       <use style="stroke:#000000;stroke-width:0.8;" x="38.789375" xlink:href="#m416401673a" y="11.379141"/>
      </g>
     </g>
     <g id="text_12">
      <!-- $\mathdefault{4}$ -->
      <defs>
       <path d="M 37.796875 64.3125 
L 12.890625 25.390625 
L 37.796875 25.390625 
z
M 35.203125 72.90625 
L 47.609375 72.90625 
L 47.609375 25.390625 
L 58.015625 25.390625 
L 58.015625 17.1875 
L 47.609375 17.1875 
L 47.609375 0 
L 37.796875 0 
L 37.796875 17.1875 
L 4.890625 17.1875 
L 4.890625 26.703125 
z
" id="DejaVuSans-52"/>
      </defs>
      <g transform="translate(24.749375 15.558281)scale(0.11 -0.11)">
       <use transform="translate(0 0.09375)" xlink:href="#DejaVuSans-52"/>
      </g>
     </g>
    </g>
    <g id="text_13">
     <!-- Kunz -->
     <defs>
      <path d="M 9.8125 72.90625 
L 19.671875 72.90625 
L 19.671875 42.09375 
L 52.390625 72.90625 
L 65.09375 72.90625 
L 28.90625 38.921875 
L 67.671875 0 
L 54.6875 0 
L 19.671875 35.109375 
L 19.671875 0 
L 9.8125 0 
z
" id="DejaVuSans-75"/>
      <path d="M 8.5 21.578125 
L 8.5 54.6875 
L 17.484375 54.6875 
L 17.484375 21.921875 
Q 17.484375 14.15625 20.5 10.265625 
Q 23.53125 6.390625 29.59375 6.390625 
Q 36.859375 6.390625 41.078125 11.03125 
Q 45.3125 15.671875 45.3125 23.6875 
L 45.3125 54.6875 
L 54.296875 54.6875 
L 54.296875 0 
L 45.3125 0 
L 45.3125 8.40625 
Q 42.046875 3.421875 37.71875 1 
Q 33.40625 -1.421875 27.6875 -1.421875 
Q 18.265625 -1.421875 13.375 4.4375 
Q 8.5 10.296875 8.5 21.578125 
z
M 31.109375 56 
z
" id="DejaVuSans-117"/>
     </defs>
     <g transform="translate(17.837813 159.366016)rotate(-90)scale(0.14 -0.14)">
      <use xlink:href="#DejaVuSans-75"/>
      <use x="60.576172" xlink:href="#DejaVuSans-117"/>
      <use x="123.955078" xlink:href="#DejaVuSans-110"/>
      <use x="187.333984" xlink:href="#DejaVuSans-122"/>
     </g>
    </g>
   </g>
   <g id="LineCollection_1">
    <path clip-path="url(#p438fad0494)" d="M 162.225422 245.497597 
L 163.602707 244.815296 
L 168.423201 241.814897 
L 170.144807 240.870488 
L 170.833449 240.638579 
L 170.972141 240.817234 
L 171.063763 241.347215 
L 171.17777 241.470009 
L 171.553527 241.612206 
L 172.210733 241.490789 
L 173.588017 240.903249 
L 175.653943 240.012607 
L 178.064191 239.215917 
L 180.130117 238.985496 
L 184.261969 237.361504 
L 186.049229 236.842372 
L 188.049501 236.031908 
L 190.804069 235.018374 
L 193.214317 234.082085 
L 196.313206 232.842934 
L 199.756417 231.376049 
L 211.807653 225.912867 
L 221.104322 221.39585 
L 223.170248 220.382324 
L 226.269137 218.493741 
L 230.094335 216.173091 
L 237.534866 211.933238 
L 241.763585 209.23917 
L 248.480346 204.778487 
L 253.126179 201.462008 
L 261.481246 195.238819 
L 269.706276 188.87904 
L 277.917295 182.165265 
L 285.836679 175.442929 
L 290.675876 171.124657 
L 295.426694 166.619814 
L 300.986805 161.220829 
L 311.393396 151.250348 
L 315.222885 147.275486 
L 332.813516 127.931159 
L 335.41891 124.701878 
L 340.72364 118.656481 
L 345.99123 112.296703 
L 346.94012 110.971749 
L 348.551459 109.116813 
L 352.802966 104.346979 
L 355.38953 101.35852 
L 357.112923 99.312154 
L 357.664439 98.252191 
L 358.144099 97.448773 
L 362.458102 92.157403 
L 362.413093 91.892412 
L 362.234034 91.892412 
L 361.164406 92.422394 
L 359.521383 93.49114 
L 356.642351 95.602283 
L 353.428516 98.252191 
L 348.84743 102.290815 
L 340.921596 108.851822 
L 336.609191 112.826684 
L 331.081351 117.596518 
L 328.813671 119.981435 
L 328.667002 120.246426 
L 328.879177 120.511417 
L 329.39959 120.511417 
L 329.221131 120.828445 
L 327.155204 122.754844 
L 325.622289 124.221288 
L 325.166237 124.75127 
L 325.433599 124.996803 
L 325.694344 125.01626 
L 325.411725 125.546242 
L 323.711994 127.138289 
L 319.218885 131.111048 
L 317.802089 132.700993 
L 316.825573 133.848861 
L 305.390076 145.15556 
L 299.2652 151.066662 
L 283.729615 165.029869 
L 278.781228 169.269722 
L 271.375195 175.373033 
L 262.552109 182.25427 
L 255.192105 187.716437 
L 244.862474 194.90375 
L 237.944104 199.478671 
L 231.778274 203.276325 
L 219.287097 210.608284 
L 202.166664 219.622332 
L 198.379132 221.225015 
L 195.772026 222.79786 
L 191.794924 225.447768 
L 186.327896 229.370701 
L 181.429886 232.86751 
L 179.441475 234.114058 
L 179.328342 233.927473 
L 180.271388 232.86751 
L 181.295492 231.542556 
L 181.16308 231.407606 
L 180.474438 231.666328 
L 178.408512 232.932616 
L 170.833449 238.356657 
L 164.028803 243.467142 
L 162.225422 245.121106 
L 162.068378 245.322077 
L 162.225422 245.497597 
L 162.225422 245.497597 
" style="fill:none;stroke:#000000;stroke-width:1.714286;"/>
   </g>
   <g id="LineCollection_2">
    <path clip-path="url(#p438fad0494)" d="M 172.210733 238.314769 
L 172.555054 238.197308 
L 172.602348 238.167326 
L 172.899375 237.980584 
L 173.020142 237.902335 
L 173.243696 237.757848 
L 173.425054 237.637344 
L 173.588017 237.52872 
L 173.817012 237.372354 
L 173.932338 237.29281 
L 174.195817 237.107363 
L 174.276659 237.048585 
L 174.555547 236.842372 
L 174.62098 236.793739 
L 174.909035 236.577381 
L 174.965301 236.533736 
L 175.249731 236.312391 
L 175.309622 236.263815 
L 175.576673 236.0474 
L 175.653943 235.981661 
L 175.889999 235.782409 
L 175.998264 235.685647 
L 176.189306 235.517418 
L 176.342585 235.373232 
L 176.473892 235.252427 
L 176.342585 235.013822 
L 175.998264 235.223678 
L 175.956546 235.252427 
L 175.653943 235.459124 
L 175.570674 235.517418 
L 175.309622 235.700398 
L 175.194297 235.782409 
L 174.965301 235.94714 
L 174.826494 236.0474 
L 174.62098 236.199122 
L 174.466589 236.312391 
L 174.276659 236.456336 
L 174.114226 236.577381 
L 173.932338 236.718948 
L 173.769304 236.842372 
L 173.588017 236.985908 
L 173.429336 237.107363 
L 173.243696 237.259715 
L 173.099512 237.372354 
L 172.899375 237.541356 
L 172.778544 237.637344 
L 172.555054 237.831806 
L 172.467818 237.902335 
L 172.210733 238.133339 
L 172.169482 238.167326 
L 172.210733 238.314769 
" style="fill:none;stroke:#000000;stroke-width:1.714286;"/>
    <path clip-path="url(#p438fad0494)" d="M 176.686906 235.041157 
L 176.7411 234.987437 
L 176.686906 234.893583 
L 176.415376 234.987437 
L 176.686906 235.041157 
" style="fill:none;stroke:#000000;stroke-width:1.714286;"/>
    <path clip-path="url(#p438fad0494)" d="M 182.884685 234.674606 
L 183.917648 234.352112 
L 185.639254 233.752231 
L 186.672217 233.515453 
L 187.70518 233.031508 
L 190.459748 231.476555 
L 191.837033 230.839333 
L 192.181354 230.792185 
L 192.869996 231.002058 
L 193.558638 230.898396 
L 194.745477 230.482593 
L 201.848662 227.567695 
L 204.23259 226.626643 
L 210.438677 223.857824 
L 212.840616 222.725645 
L 229.023706 214.186168 
L 243.48519 205.429149 
L 255.342101 197.358745 
L 261.389884 192.818072 
L 272.548581 184.109206 
L 277.228652 180.274402 
L 281.360505 176.625085 
L 294.100384 165.267189 
L 310.055239 149.660403 
L 319.681264 139.325763 
L 322.679031 136.120325 
L 326.466562 132.111029 
L 336.796194 119.811509 
L 338.863686 117.331528 
L 340.583725 115.10413 
L 342.675573 112.826684 
L 345.901544 109.381804 
L 346.419935 108.586832 
L 346.613394 108.05685 
L 347.311729 107.261878 
L 349.310124 105.141951 
L 349.49813 104.876961 
L 349.191751 104.717326 
L 348.158788 105.167024 
L 345.708852 106.731896 
L 342.003682 109.381804 
L 338.508747 112.031712 
L 335.321714 114.68162 
L 334.329496 115.741583 
L 334.385946 115.896511 
L 335.074589 115.632674 
L 338.173478 113.921374 
L 338.292338 114.151638 
L 334.711001 117.861509 
L 334.858105 118.1265 
L 334.730267 118.439429 
L 333.562234 119.716445 
L 330.598415 122.50066 
L 328.84633 124.221288 
L 328.093825 125.281251 
L 327.499525 126.089724 
L 325.661847 127.931159 
L 319.876907 133.495965 
L 310.907712 142.505652 
L 308.217547 145.220964 
L 300.298163 152.671123 
L 288.873847 163.174934 
L 281.704826 169.478424 
L 273.313391 176.424473 
L 260.976918 185.964141 
L 254.847784 190.479558 
L 248.305684 195.007025 
L 232.210987 205.573459 
L 226.613458 209.085388 
L 221.792964 212.012574 
L 213.184938 216.876845 
L 211.463332 217.611463 
L 209.053085 218.616792 
L 205.394959 220.412943 
L 201.466612 222.53287 
L 195.746602 225.97775 
L 194.24728 226.813936 
L 193.527061 227.037713 
L 193.214317 226.820158 
L 192.869996 226.837023 
L 191.837033 227.351401 
L 189.771106 228.699721 
L 185.848982 231.542556 
L 183.351267 233.662483 
L 182.739211 234.457455 
L 182.884685 234.674606 
L 182.884685 234.674606 
" style="fill:none;stroke:#000000;stroke-width:1.714286;"/>
    <path clip-path="url(#p438fad0494)" d="M 338.517799 113.907496 
L 338.339491 113.886647 
L 338.517799 113.85245 
L 338.538433 113.886647 
L 338.517799 113.907496 
" style="fill:none;stroke:#000000;stroke-width:1.714286;"/>
   </g>
   <g id="LineCollection_3">
    <path clip-path="url(#p438fad0494)" d="M 415.066347 11.379141 
L 414.82335 14.029646 
L 416.158125 15.284218 
L 416.549305 14.029646 
L 417.145549 11.379141 
" style="fill:none;stroke:#fff5f0;stroke-width:1.5;"/>
    <path clip-path="url(#p438fad0494)" d="M 100.540625 247.355494 
L 107.401875 248.026153 
L 114.263125 248.528663 
L 121.124375 248.780768 
L 127.985625 248.742353 
L 134.846875 248.429527 
L 141.708125 247.890837 
L 148.569375 247.116934 
L 162.39709 244.623585 
L 172.618525 241.97308 
L 182.875625 238.895389 
L 189.736875 236.539545 
L 196.598125 233.879455 
L 203.459375 230.920273 
L 217.181875 224.298709 
L 218.708333 223.419545 
L 224.043125 220.737767 
L 228.152925 218.118535 
L 230.904375 216.697565 
L 232.720931 215.46803 
L 237.765625 212.616401 
L 241.061974 210.167019 
L 244.626875 208.138931 
L 249.024749 204.866009 
L 251.488125 203.430979 
L 252.946083 202.215504 
L 256.579187 199.564999 
L 258.349375 198.510821 
L 260.131281 196.914494 
L 263.698844 194.263989 
L 265.210625 193.341613 
L 267.018011 191.613484 
L 270.394994 188.962979 
L 272.071875 187.908801 
L 273.649633 186.312474 
L 276.734156 183.661969 
L 278.933125 182.226939 
L 280.078861 181.011464 
L 282.821627 178.360959 
L 285.794375 176.332871 
L 288.764386 173.059949 
L 292.655625 170.20832 
L 294.642433 167.758939 
L 297.453082 165.108434 
L 299.516875 163.687464 
L 300.501645 162.457929 
L 302.775293 159.807423 
L 306.378125 157.125646 
L 308.268875 154.506413 
L 310.772864 151.855908 
L 313.239375 150.084568 
L 315.833041 146.554898 
L 318.623724 143.904393 
L 320.100625 142.890655 
L 321.207429 141.253888 
L 323.182257 138.603383 
L 326.961875 135.502091 
L 328.340581 133.302373 
L 330.301785 130.651868 
L 333.823125 127.859253 
L 335.293048 125.350858 
L 337.186753 122.700353 
L 340.684375 119.917322 
L 342.083041 117.399343 
L 343.855249 114.748838 
L 346.845261 112.098333 
L 347.545625 111.671146 
L 348.735902 109.447827 
L 350.350657 106.797322 
L 352.868638 104.146817 
L 354.406875 103.161512 
L 356.728714 98.845807 
L 358.754002 96.195302 
L 361.268125 94.455425 
L 363.038937 90.894292 
L 364.662332 88.243787 
L 368.141838 85.593282 
L 369.313653 82.942777 
L 370.652869 80.292272 
L 372.67336 77.641767 
L 374.990625 76.245766 
L 378.113896 69.690252 
L 381.41312 67.039747 
L 381.851875 66.88259 
L 383.950873 61.738737 
L 385.382911 59.088232 
L 388.713125 57.054473 
L 388.98004 56.437726 
L 390.984729 51.136716 
L 392.329408 48.486211 
L 395.574375 46.991143 
L 396.026562 45.835706 
L 397.802438 40.534696 
L 398.505571 37.884191 
L 395.574375 37.174945 
L 395.266038 37.884191 
L 393.225571 43.185201 
L 391.509854 45.835706 
L 388.713125 46.6919 
L 386.846524 51.136716 
L 385.441504 53.787221 
L 381.851875 55.934872 
L 381.605391 56.437726 
L 380.46777 59.088232 
L 379.129135 61.738737 
L 376.524976 64.389242 
L 374.990625 65.019839 
L 372.718124 69.690252 
L 370.764452 72.340757 
L 368.129375 73.902338 
L 366.218904 77.641767 
L 364.436343 80.292272 
L 361.268125 82.468053 
L 360.998768 82.942777 
L 359.627361 85.593282 
L 357.885 88.243787 
L 354.35113 90.894292 
L 352.934207 93.544797 
L 351.167327 96.195302 
L 347.545625 98.984665 
L 346.126071 101.496312 
L 344.285353 104.146817 
L 340.684375 106.929848 
L 339.184474 109.447827 
L 337.216042 112.098333 
L 333.749997 114.748838 
L 332.083019 117.399343 
L 329.909906 120.049848 
L 326.961875 122.194347 
L 324.781333 125.350858 
L 322.269117 128.001363 
L 320.100625 129.501963 
L 317.21108 133.302373 
L 314.075889 135.952878 
L 313.239375 136.488184 
L 311.661016 138.603383 
L 309.238809 141.253888 
L 306.378125 143.296651 
L 303.709224 146.554898 
L 300.543205 149.205403 
L 299.516875 149.872849 
L 297.86526 151.855908 
L 295.164438 154.506413 
L 292.655625 156.232204 
L 289.299848 159.807423 
L 285.603706 162.457929 
L 283.141377 165.108434 
L 278.933125 168.171775 
L 276.750147 170.409444 
L 273.335912 173.059949 
L 272.071875 173.85867 
L 270.138197 175.710454 
L 266.688383 178.360959 
L 265.210625 179.283335 
L 263.290394 181.011464 
L 259.660871 183.661969 
L 258.349375 184.46069 
L 256.16808 186.312474 
L 251.488125 189.375815 
L 248.701856 191.613484 
L 244.356765 194.263989 
L 240.768651 196.914494 
L 237.765625 198.640285 
L 236.418284 199.564999 
L 227.852236 204.866009 
L 223.016502 207.516514 
L 213.388526 212.817524 
L 202.365594 218.118535 
L 196.347347 220.76904 
L 189.736875 223.55207 
L 182.875625 226.208907 
L 175.712104 228.720555 
L 167.387258 231.37106 
L 162.291875 232.932641 
L 148.569375 236.169215 
L 145.556089 236.67207 
L 141.708125 237.528263 
L 134.846875 238.613329 
L 127.985625 239.368606 
L 121.124375 240.206579 
L 114.263125 240.718508 
L 107.401875 241.008356 
L 93.679375 241.170298 
L 86.818125 241.243128 
L 80.65998 241.97308 
L 87.045836 244.623585 
L 93.679375 245.851974 
L 100.540625 247.355494 
L 100.540625 247.355494 
" style="fill:none;stroke:#fff5f0;stroke-width:1.5;"/>
    <path clip-path="url(#p438fad0494)" d="M 402.435625 36.701949 
L 402.958087 35.233686 
L 403.758048 32.583181 
L 404.407214 29.932676 
L 402.435625 27.328202 
L 401.547651 29.932676 
L 400.660319 32.583181 
L 399.840354 35.233686 
L 402.435625 36.701949 
" style="fill:none;stroke:#fff5f0;stroke-width:1.5;"/>
    <path clip-path="url(#p438fad0494)" d="M 409.296875 26.138343 
L 409.792227 24.631666 
L 410.486336 21.981161 
L 410.858459 19.330656 
L 409.296875 17.564154 
L 408.689263 19.330656 
L 407.917532 21.981161 
L 407.42468 24.631666 
L 409.296875 26.138343 
" style="fill:none;stroke:#fff5f0;stroke-width:1.5;"/>
   </g>
   <g id="LineCollection_4">
    <path clip-path="url(#p438fad0494)" d="M 121.124375 245.663306 
L 127.985625 246.192042 
L 134.846875 246.172685 
L 141.708125 245.780169 
L 148.569375 245.157033 
L 152.847591 244.623585 
L 155.430625 244.159795 
L 166.314876 241.97308 
L 176.662984 239.322575 
L 184.786819 236.67207 
L 192.092617 234.021565 
L 196.598125 232.311534 
L 198.756814 231.37106 
L 204.968024 228.720555 
L 210.896179 226.07005 
L 217.181875 222.950951 
L 220.853543 220.76904 
L 224.043125 219.236566 
L 225.797412 218.118535 
L 230.923648 215.46803 
L 234.641241 212.817524 
L 237.765625 211.176473 
L 239.124136 210.167019 
L 243.237804 207.516514 
L 244.626875 206.785044 
L 246.971912 204.866009 
L 251.511639 202.215504 
L 254.463486 199.564999 
L 258.724872 196.914494 
L 261.596251 194.263989 
L 265.210625 192.058769 
L 268.390813 188.962979 
L 272.404352 186.312474 
L 274.90166 183.661969 
L 278.951603 181.011464 
L 281.205676 178.360959 
L 284.552277 175.710454 
L 285.794375 174.978983 
L 287.378046 173.059949 
L 290.077732 170.409444 
L 292.655625 168.768393 
L 295.686271 165.108434 
L 299.527323 162.457929 
L 301.396413 159.807423 
L 303.971059 157.156918 
L 306.378125 155.624445 
L 309.135419 151.855908 
L 312.39427 149.205403 
L 313.239375 148.736809 
L 314.640619 146.554898 
L 316.68424 143.904393 
L 320.100625 141.559401 
L 320.307217 141.253888 
L 321.895042 138.603383 
L 324.011558 135.952878 
L 326.961875 134.032165 
L 328.95134 130.651868 
L 331.065986 128.001363 
L 333.823125 126.291332 
L 335.821553 122.700353 
L 337.809698 120.049848 
L 340.684375 118.313767 
L 341.192312 117.399343 
L 342.532229 114.748838 
L 344.274684 112.098333 
L 347.545625 110.103225 
L 347.896499 109.447827 
L 349.121467 106.797322 
L 350.573823 104.146817 
L 354.509277 101.496312 
L 356.83034 96.195302 
L 358.858274 93.544797 
L 361.268125 92.825663 
L 363.110104 88.243787 
L 364.123558 85.593282 
L 361.268125 84.185554 
L 357.974174 90.894292 
L 354.406875 92.515317 
L 353.864136 93.544797 
L 352.600871 96.195302 
L 350.937272 98.845807 
L 347.545625 100.625512 
L 347.053459 101.496312 
L 345.690896 104.146817 
L 343.825754 106.797322 
L 340.684375 108.533403 
L 338.663174 112.098333 
L 336.51692 114.748838 
L 333.823125 116.230207 
L 331.474317 120.049848 
L 328.848991 122.700353 
L 326.961875 123.679955 
L 325.901127 125.350858 
L 324.057887 128.001363 
L 320.100625 130.795064 
L 318.49889 133.302373 
L 316.281038 135.952878 
L 313.239375 137.899313 
L 310.807178 141.253888 
L 307.783065 143.904393 
L 306.378125 144.691434 
L 304.990594 146.554898 
L 302.62964 149.205403 
L 299.516875 151.229703 
L 296.845899 154.506413 
L 292.655625 157.51971 
L 290.781734 159.807423 
L 287.844687 162.457929 
L 285.794375 163.70199 
L 284.525349 165.108434 
L 281.79129 167.758939 
L 278.933125 169.555235 
L 275.403707 173.059949 
L 272.071875 175.165271 
L 268.743656 178.360959 
L 265.210625 180.566179 
L 261.806303 183.661969 
L 258.349375 185.767291 
L 254.541388 188.962979 
L 251.488125 190.759275 
L 250.424493 191.613484 
L 246.837029 194.263989 
L 244.626875 195.50805 
L 242.781344 196.914494 
L 237.765625 199.927791 
L 234.617988 202.215504 
L 229.940579 204.866009 
L 225.576959 207.516514 
L 224.043125 208.303556 
L 221.025614 210.167019 
L 210.320625 215.611226 
L 205.577321 218.118535 
L 193.874822 223.419545 
L 187.372577 226.07005 
L 182.875625 227.849755 
L 169.153125 232.613837 
L 148.569375 238.152337 
L 141.708125 239.356592 
L 134.846875 240.903039 
L 126.189832 241.97308 
L 121.124375 243.37592 
L 114.263125 244.623585 
L 121.124375 245.663306 
L 121.124375 245.663306 
" style="fill:none;stroke:#fb694a;stroke-width:1.5;"/>
    <path clip-path="url(#p438fad0494)" d="M 368.129375 83.774325 
L 368.495698 82.942777 
L 369.421238 80.292272 
L 370.18147 77.641767 
L 368.129375 75.566628 
L 367.266593 77.641767 
L 366.238786 80.292272 
L 365.242305 82.942777 
L 368.129375 83.774325 
" style="fill:none;stroke:#fb694a;stroke-width:1.5;"/>
    <path clip-path="url(#p438fad0494)" d="M 374.990625 74.527472 
L 375.745862 72.340757 
L 376.45919 69.690252 
L 375.941386 67.039747 
L 374.990625 66.740727 
L 374.850634 67.039747 
L 373.922093 69.690252 
L 373.145649 72.340757 
L 374.990625 74.527472 
" style="fill:none;stroke:#fb694a;stroke-width:1.5;"/>
    <path clip-path="url(#p438fad0494)" d="M 381.851875 64.922689 
L 382.063003 64.389242 
L 382.783532 61.738737 
L 383.025075 59.088232 
L 381.851875 57.917993 
L 381.392001 59.088232 
L 380.643366 61.738737 
L 380.712194 64.389242 
L 381.851875 64.922689 
" style="fill:none;stroke:#fb694a;stroke-width:1.5;"/>
    <path clip-path="url(#p438fad0494)" d="M 388.713125 54.943805 
L 389.09427 53.787221 
L 389.591467 51.136716 
L 388.713125 48.520229 
L 387.991382 51.136716 
L 387.70938 53.787221 
L 388.713125 54.943805 
" style="fill:none;stroke:#fb694a;stroke-width:1.5;"/>
    <path clip-path="url(#p438fad0494)" d="M 395.574375 44.734301 
L 395.986062 43.185201 
L 396.168934 40.534696 
L 395.574375 39.464655 
L 395.229757 40.534696 
L 394.857694 43.185201 
L 395.574375 44.734301 
" style="fill:none;stroke:#fb694a;stroke-width:1.5;"/>
    <path clip-path="url(#p438fad0494)" d="M 402.435625 34.151637 
L 402.766315 32.583181 
L 402.565446 29.932676 
L 402.435625 29.761182 
L 402.377156 29.932676 
L 401.991685 32.583181 
L 402.435625 34.151637 
" style="fill:none;stroke:#fb694a;stroke-width:1.5;"/>
    <path clip-path="url(#p438fad0494)" d="M 409.296875 23.020882 
L 409.475605 21.981161 
L 409.296875 20.733496 
L 409.089613 21.981161 
L 409.296875 23.020882 
" style="fill:none;stroke:#fb694a;stroke-width:1.5;"/>
   </g>
   <g id="LineCollection_5">
    <path clip-path="url(#p438fad0494)" d="M 162.291875 239.53823 
L 163.966834 239.322575 
L 162.291875 238.747496 
L 160.212884 239.322575 
L 162.291875 239.53823 
" style="fill:none;stroke:#67000d;stroke-width:1.5;"/>
    <path clip-path="url(#p438fad0494)" d="M 169.153125 238.13547 
L 176.014375 236.969371 
L 177.101333 236.67207 
L 182.875625 234.886698 
L 185.594184 234.021565 
L 189.736875 232.643302 
L 193.152504 231.37106 
L 196.598125 230.143446 
L 199.888018 228.720555 
L 203.459375 227.354155 
L 206.069883 226.07005 
L 210.320625 224.316364 
L 211.962714 223.419545 
L 217.181875 221.094202 
L 217.729051 220.76904 
L 222.345192 218.118535 
L 224.043125 217.398175 
L 226.847619 215.46803 
L 230.904375 213.529145 
L 231.899774 212.817524 
L 236.038971 210.167019 
L 237.765625 209.38579 
L 240.047624 207.516514 
L 244.626875 205.105128 
L 244.919076 204.866009 
L 247.893115 202.215504 
L 251.488125 200.339832 
L 252.347786 199.564999 
L 255.395826 196.914494 
L 258.349375 195.393359 
L 259.493659 194.263989 
L 262.492231 191.613484 
L 265.210625 190.217551 
L 266.386632 188.962979 
L 269.169777 186.312474 
L 272.071875 184.791339 
L 273.069165 183.661969 
L 275.522277 181.011464 
L 278.933125 179.135792 
L 279.589726 178.360959 
L 281.699642 175.710454 
L 285.794375 173.299068 
L 285.991707 173.059949 
L 287.815779 170.409444 
L 290.820059 167.758939 
L 292.655625 166.977709 
L 293.91946 165.108434 
L 295.930116 162.457929 
L 299.516875 160.519044 
L 300.017533 159.807423 
L 301.613113 157.156918 
L 304.302476 154.506413 
L 306.378125 153.786054 
L 307.497975 151.855908 
L 309.045639 149.205403 
L 313.239375 146.880061 
L 313.448197 146.554898 
L 314.744757 143.904393 
L 316.0995 141.253888 
L 313.239375 139.865987 
L 312.375546 141.253888 
L 310.855006 143.904393 
L 306.378125 146.412323 
L 306.271964 146.554898 
L 304.716074 149.205403 
L 302.539398 151.855908 
L 299.516875 153.122368 
L 298.527361 154.506413 
L 296.59771 157.156918 
L 292.655625 159.32885 
L 292.26362 159.807423 
L 290.37257 162.457929 
L 286.508147 165.108434 
L 285.794375 165.352601 
L 283.992573 167.758939 
L 280.989848 170.409444 
L 278.933125 171.340195 
L 277.471503 173.059949 
L 274.647221 175.710454 
L 272.071875 176.995346 
L 270.798928 178.360959 
L 267.929019 181.011464 
L 265.210625 182.407397 
L 263.951735 183.661969 
L 260.875599 186.312474 
L 258.349375 187.597367 
L 256.892931 188.962979 
L 253.393517 191.613484 
L 251.488125 192.544235 
L 249.561987 194.263989 
L 245.168119 196.914494 
L 244.626875 197.158662 
L 241.845331 199.564999 
L 237.765625 201.736931 
L 237.107161 202.215504 
L 233.467226 204.866009 
L 230.904375 206.132469 
L 228.930732 207.516514 
L 224.043125 210.024445 
L 223.812253 210.167019 
L 219.831179 212.817524 
L 217.181875 214.080129 
L 214.851737 215.46803 
L 210.320625 217.627124 
L 209.390979 218.118535 
L 203.920334 220.76904 
L 203.459375 220.975725 
L 198.763455 223.419545 
L 196.598125 224.38543 
L 192.903528 226.07005 
L 189.736875 227.448312 
L 186.593872 228.720555 
L 182.875625 230.297318 
L 179.896155 231.37106 
L 176.014375 233.003128 
L 172.839555 234.021565 
L 169.153125 235.658947 
L 165.626362 236.67207 
L 169.153125 238.13547 
" style="fill:none;stroke:#67000d;stroke-width:1.5;"/>
    <path clip-path="url(#p438fad0494)" d="M 320.100625 139.500202 
L 320.607827 138.603383 
L 321.753673 135.952878 
L 322.338793 133.302373 
L 320.100625 132.810962 
L 319.786699 133.302373 
L 318.486187 135.952878 
L 317.080209 138.603383 
L 320.100625 139.500202 
" style="fill:none;stroke:#67000d;stroke-width:1.5;"/>
    <path clip-path="url(#p438fad0494)" d="M 326.961875 131.935973 
L 327.600894 130.651868 
L 328.537975 128.001363 
L 326.961875 125.557544 
L 325.846658 128.001363 
L 324.859405 130.651868 
L 326.961875 131.935973 
" style="fill:none;stroke:#67000d;stroke-width:1.5;"/>
    <path clip-path="url(#p438fad0494)" d="M 333.823125 124.123244 
L 334.456352 122.700353 
L 335.154461 120.049848 
L 333.823125 118.365228 
L 333.038729 120.049848 
L 332.247008 122.700353 
L 333.823125 124.123244 
" style="fill:none;stroke:#67000d;stroke-width:1.5;"/>
    <path clip-path="url(#p438fad0494)" d="M 340.684375 116.02108 
L 341.209209 114.748838 
L 341.704108 112.098333 
L 340.684375 110.82609 
L 340.110306 112.098333 
L 339.500719 114.748838 
L 340.684375 116.02108 
" style="fill:none;stroke:#67000d;stroke-width:1.5;"/>
    <path clip-path="url(#p438fad0494)" d="M 347.545625 107.662456 
L 347.892277 106.797322 
L 348.279007 104.146817 
L 347.545625 103.073076 
L 347.096439 104.146817 
L 346.727333 106.797322 
L 347.545625 107.662456 
" style="fill:none;stroke:#67000d;stroke-width:1.5;"/>
    <path clip-path="url(#p438fad0494)" d="M 354.406875 99.143109 
L 354.527455 98.845807 
L 354.906678 96.195302 
L 354.406875 95.176866 
L 354.034414 96.195302 
L 354.064293 98.845807 
L 354.406875 99.143109 
" style="fill:none;stroke:#67000d;stroke-width:1.5;"/>
    <path clip-path="url(#p438fad0494)" d="M 361.268125 89.707187 
L 361.557876 88.243787 
L 361.268125 87.230664 
L 360.97932 88.243787 
L 361.268125 89.707187 
" style="fill:none;stroke:#67000d;stroke-width:1.5;"/>
    <path clip-path="url(#p438fad0494)" d="M 368.129375 80.507927 
L 368.189606 80.292272 
L 368.129375 79.717193 
L 368.041229 80.292272 
L 368.129375 80.507927 
" style="fill:none;stroke:#67000d;stroke-width:1.5;"/>
   </g>
   <g id="patch_3">
    <path d="M 38.789375 273.779141 
L 38.789375 11.379141 
" style="fill:none;stroke:#000000;stroke-linecap:square;stroke-linejoin:miter;stroke-width:0.8;"/>
   </g>
   <g id="patch_4">
    <path d="M 416.158125 273.779141 
L 416.158125 11.379141 
" style="fill:none;stroke:#000000;stroke-linecap:square;stroke-linejoin:miter;stroke-width:0.8;"/>
   </g>
   <g id="patch_5">
    <path d="M 38.789375 273.779141 
L 416.158125 273.779141 
" style="fill:none;stroke:#000000;stroke-linecap:square;stroke-linejoin:miter;stroke-width:0.8;"/>
   </g>
   <g id="patch_6">
    <path d="M 38.789375 11.379141 
L 416.158125 11.379141 
" style="fill:none;stroke:#000000;stroke-linecap:square;stroke-linejoin:miter;stroke-width:0.8;"/>
   </g>
  </g>
 </g>
 <defs>
  <clipPath id="p438fad0494">
   <rect height="262.4" width="377.36875" x="38.789375" y="11.379141"/>
  </clipPath>
 </defs>
</svg>
