<?xml version="1.0" encoding="utf-8" standalone="no"?>
<!DOCTYPE svg PUBLIC "-//W3C//DTD SVG 1.1//EN"
  "http://www.w3.org/Graphics/SVG/1.1/DTD/svg11.dtd">
<!-- Created with matplotlib (https://matplotlib.org/) -->
<svg height="319.536641pt" version="1.1" viewBox="0 0 432.134687 319.536641" width="432.134687pt" xmlns="http://www.w3.org/2000/svg" xmlns:xlink="http://www.w3.org/1999/xlink">
 <defs>
  <style type="text/css">
*{stroke-linecap:butt;stroke-linejoin:round;}
  </style>
 </defs>
 <g id="figure_1">
  <g id="patch_1">
   <path d="M 0 319.536641 
L 432.134688 319.536641 
L 432.134688 0 
L 0 0 
z
" style="fill:#ffffff;"/>
  </g>
  <g id="axes_1">
   <g id="patch_2">
    <path d="M 38.789375 273.779141 
L 416.134687 273.779141 
L 416.134687 11.379141 
L 38.789375 11.379141 
z
" style="fill:#ffffff;"/>
   </g>
   <g id="matplotlib.axis_1">
    <g id="xtick_1">
     <g id="line2d_1">
      <defs>
       <path d="M 0 0 
L 0 3.5 
" id="m769cb488f7" style="stroke:#000000;stroke-width:0.8;"/>
      </defs>
      <g>
       <use style="stroke:#000000;stroke-width:0.8;" x="38.789375" xlink:href="#m769cb488f7" y="273.779141"/>
      </g>
     </g>
     <g id="text_1">
      <!-- $\mathdefault{−0.5}$ -->
      <defs>
       <path d="M 10.59375 35.5 
L 73.1875 35.5 
L 73.1875 27.203125 
L 10.59375 27.203125 
z
" id="DejaVuSans-8722"/>
       <path d="M 31.78125 66.40625 
Q 24.171875 66.40625 20.328125 58.90625 
Q 16.5 51.421875 16.5 36.375 
Q 16.5 21.390625 20.328125 13.890625 
Q 24.171875 6.390625 31.78125 6.390625 
Q 39.453125 6.390625 43.28125 13.890625 
Q 47.125 21.390625 47.125 36.375 
Q 47.125 51.421875 43.28125 58.90625 
Q 39.453125 66.40625 31.78125 66.40625 
z
M 31.78125 74.21875 
Q 44.046875 74.21875 50.515625 64.515625 
Q 56.984375 54.828125 56.984375 36.375 
Q 56.984375 17.96875 50.515625 8.265625 
Q 44.046875 -1.421875 31.78125 -1.421875 
Q 19.53125 -1.421875 13.0625 8.265625 
Q 6.59375 17.96875 6.59375 36.375 
Q 6.59375 54.828125 13.0625 64.515625 
Q 19.53125 74.21875 31.78125 74.21875 
z
" id="DejaVuSans-48"/>
       <path d="M 10.6875 12.40625 
L 21 12.40625 
L 21 0 
L 10.6875 0 
z
" id="DejaVuSans-46"/>
       <path d="M 10.796875 72.90625 
L 49.515625 72.90625 
L 49.515625 64.59375 
L 19.828125 64.59375 
L 19.828125 46.734375 
Q 21.96875 47.46875 24.109375 47.828125 
Q 26.265625 48.1875 28.421875 48.1875 
Q 40.625 48.1875 47.75 41.5 
Q 54.890625 34.8125 54.890625 23.390625 
Q 54.890625 11.625 47.5625 5.09375 
Q 40.234375 -1.421875 26.90625 -1.421875 
Q 22.3125 -1.421875 17.546875 -0.640625 
Q 12.796875 0.140625 7.71875 1.703125 
L 7.71875 11.625 
Q 12.109375 9.234375 16.796875 8.0625 
Q 21.484375 6.890625 26.703125 6.890625 
Q 35.15625 6.890625 40.078125 11.328125 
Q 45.015625 15.765625 45.015625 23.390625 
Q 45.015625 31 40.078125 35.4375 
Q 35.15625 39.890625 26.703125 39.890625 
Q 22.75 39.890625 18.8125 39.015625 
Q 14.890625 38.140625 10.796875 36.28125 
z
" id="DejaVuSans-53"/>
      </defs>
      <g transform="translate(25.424375 289.137422)scale(0.11 -0.11)">
       <use transform="translate(0 0.78125)" xlink:href="#DejaVuSans-8722"/>
       <use transform="translate(83.789062 0.78125)" xlink:href="#DejaVuSans-48"/>
       <use transform="translate(147.412109 0.78125)" xlink:href="#DejaVuSans-46"/>
       <use transform="translate(179.199219 0.78125)" xlink:href="#DejaVuSans-53"/>
      </g>
     </g>
    </g>
    <g id="xtick_2">
     <g id="line2d_2">
      <g>
       <use style="stroke:#000000;stroke-width:0.8;" x="114.258437" xlink:href="#m769cb488f7" y="273.779141"/>
      </g>
     </g>
     <g id="text_2">
      <!-- $\mathdefault{0.0}$ -->
      <g transform="translate(105.458438 289.137422)scale(0.11 -0.11)">
       <use transform="translate(0 0.78125)" xlink:href="#DejaVuSans-48"/>
       <use transform="translate(63.623047 0.78125)" xlink:href="#DejaVuSans-46"/>
       <use transform="translate(95.410156 0.78125)" xlink:href="#DejaVuSans-48"/>
      </g>
     </g>
    </g>
    <g id="xtick_3">
     <g id="line2d_3">
      <g>
       <use style="stroke:#000000;stroke-width:0.8;" x="189.7275" xlink:href="#m769cb488f7" y="273.779141"/>
      </g>
     </g>
     <g id="text_3">
      <!-- $\mathdefault{0.5}$ -->
      <g transform="translate(180.9275 289.137422)scale(0.11 -0.11)">
       <use transform="translate(0 0.78125)" xlink:href="#DejaVuSans-48"/>
       <use transform="translate(63.623047 0.78125)" xlink:href="#DejaVuSans-46"/>
       <use transform="translate(95.410156 0.78125)" xlink:href="#DejaVuSans-53"/>
      </g>
     </g>
    </g>
    <g id="xtick_4">
     <g id="line2d_4">
      <g>
       <use style="stroke:#000000;stroke-width:0.8;" x="265.196562" xlink:href="#m769cb488f7" y="273.779141"/>
      </g>
     </g>
     <g id="text_4">
      <!-- $\mathdefault{1.0}$ -->
      <defs>
       <path d="M 12.40625 8.296875 
L 28.515625 8.296875 
L 28.515625 63.921875 
L 10.984375 60.40625 
L 10.984375 69.390625 
L 28.421875 72.90625 
L 38.28125 72.90625 
L 38.28125 8.296875 
L 54.390625 8.296875 
L 54.390625 0 
L 12.40625 0 
z
" id="DejaVuSans-49"/>
      </defs>
      <g transform="translate(256.396562 289.137422)scale(0.11 -0.11)">
       <use transform="translate(0 0.78125)" xlink:href="#DejaVuSans-49"/>
       <use transform="translate(63.623047 0.78125)" xlink:href="#DejaVuSans-46"/>
       <use transform="translate(95.410156 0.78125)" xlink:href="#DejaVuSans-48"/>
      </g>
     </g>
    </g>
    <g id="xtick_5">
     <g id="line2d_5">
      <g>
       <use style="stroke:#000000;stroke-width:0.8;" x="340.665625" xlink:href="#m769cb488f7" y="273.779141"/>
      </g>
     </g>
     <g id="text_5">
      <!-- $\mathdefault{1.5}$ -->
      <g transform="translate(331.865625 289.137422)scale(0.11 -0.11)">
       <use transform="translate(0 0.09375)" xlink:href="#DejaVuSans-49"/>
       <use transform="translate(63.623047 0.09375)" xlink:href="#DejaVuSans-46"/>
       <use transform="translate(95.410156 0.09375)" xlink:href="#DejaVuSans-53"/>
      </g>
     </g>
    </g>
    <g id="xtick_6">
     <g id="line2d_6">
      <g>
       <use style="stroke:#000000;stroke-width:0.8;" x="416.134687" xlink:href="#m769cb488f7" y="273.779141"/>
      </g>
     </g>
     <g id="text_6">
      <!-- $\mathdefault{2.0}$ -->
      <defs>
       <path d="M 19.1875 8.296875 
L 53.609375 8.296875 
L 53.609375 0 
L 7.328125 0 
L 7.328125 8.296875 
Q 12.9375 14.109375 22.625 23.890625 
Q 32.328125 33.6875 34.8125 36.53125 
Q 39.546875 41.84375 41.421875 45.53125 
Q 43.3125 49.21875 43.3125 52.78125 
Q 43.3125 58.59375 39.234375 62.25 
Q 35.15625 65.921875 28.609375 65.921875 
Q 23.96875 65.921875 18.8125 64.3125 
Q 13.671875 62.703125 7.8125 59.421875 
L 7.8125 69.390625 
Q 13.765625 71.78125 18.9375 73 
Q 24.125 74.21875 28.421875 74.21875 
Q 39.75 74.21875 46.484375 68.546875 
Q 53.21875 62.890625 53.21875 53.421875 
Q 53.21875 48.921875 51.53125 44.890625 
Q 49.859375 40.875 45.40625 35.40625 
Q 44.1875 33.984375 37.640625 27.21875 
Q 31.109375 20.453125 19.1875 8.296875 
z
" id="DejaVuSans-50"/>
      </defs>
      <g transform="translate(407.334687 289.137422)scale(0.11 -0.11)">
       <use transform="translate(0 0.78125)" xlink:href="#DejaVuSans-50"/>
       <use transform="translate(63.623047 0.78125)" xlink:href="#DejaVuSans-46"/>
       <use transform="translate(95.410156 0.78125)" xlink:href="#DejaVuSans-48"/>
      </g>
     </g>
    </g>
    <g id="text_7">
     <!-- Hinz -->
     <defs>
      <path d="M 9.8125 72.90625 
L 19.671875 72.90625 
L 19.671875 43.015625 
L 55.515625 43.015625 
L 55.515625 72.90625 
L 65.375 72.90625 
L 65.375 0 
L 55.515625 0 
L 55.515625 34.71875 
L 19.671875 34.71875 
L 19.671875 0 
L 9.8125 0 
z
" id="DejaVuSans-72"/>
      <path d="M 9.421875 54.6875 
L 18.40625 54.6875 
L 18.40625 0 
L 9.421875 0 
z
M 9.421875 75.984375 
L 18.40625 75.984375 
L 18.40625 64.59375 
L 9.421875 64.59375 
z
" id="DejaVuSans-105"/>
      <path d="M 54.890625 33.015625 
L 54.890625 0 
L 45.90625 0 
L 45.90625 32.71875 
Q 45.90625 40.484375 42.875 44.328125 
Q 39.84375 48.1875 33.796875 48.1875 
Q 26.515625 48.1875 22.3125 43.546875 
Q 18.109375 38.921875 18.109375 30.90625 
L 18.109375 0 
L 9.078125 0 
L 9.078125 54.6875 
L 18.109375 54.6875 
L 18.109375 46.1875 
Q 21.34375 51.125 25.703125 53.5625 
Q 30.078125 56 35.796875 56 
Q 45.21875 56 50.046875 50.171875 
Q 54.890625 44.34375 54.890625 33.015625 
z
" id="DejaVuSans-110"/>
      <path d="M 5.515625 54.6875 
L 48.1875 54.6875 
L 48.1875 46.484375 
L 14.40625 7.171875 
L 48.1875 7.171875 
L 48.1875 0 
L 4.296875 0 
L 4.296875 8.203125 
L 38.09375 47.515625 
L 5.515625 47.515625 
z
" id="DejaVuSans-122"/>
     </defs>
     <g transform="translate(212.142969 309.425078)scale(0.14 -0.14)">
      <use xlink:href="#DejaVuSans-72"/>
      <use x="75.195312" xlink:href="#DejaVuSans-105"/>
      <use x="102.978516" xlink:href="#DejaVuSans-110"/>
      <use x="166.357422" xlink:href="#DejaVuSans-122"/>
     </g>
    </g>
   </g>
   <g id="matplotlib.axis_2">
    <g id="ytick_1">
     <g id="line2d_7">
      <defs>
       <path d="M 0 0 
L -3.5 0 
" id="m6263f87837" style="stroke:#000000;stroke-width:0.8;"/>
      </defs>
      <g>
       <use style="stroke:#000000;stroke-width:0.8;" x="38.789375" xlink:href="#m6263f87837" y="244.623585"/>
      </g>
     </g>
     <g id="text_8">
      <!-- $\mathdefault{0}$ -->
      <g transform="translate(24.749375 248.802726)scale(0.11 -0.11)">
       <use transform="translate(0 0.78125)" xlink:href="#DejaVuSans-48"/>
      </g>
     </g>
    </g>
    <g id="ytick_2">
     <g id="line2d_8">
      <g>
       <use style="stroke:#000000;stroke-width:0.8;" x="38.789375" xlink:href="#m6263f87837" y="186.312474"/>
      </g>
     </g>
     <g id="text_9">
      <!-- $\mathdefault{1}$ -->
      <g transform="translate(24.749375 190.491615)scale(0.11 -0.11)">
       <use transform="translate(0 0.09375)" xlink:href="#DejaVuSans-49"/>
      </g>
     </g>
    </g>
    <g id="ytick_3">
     <g id="line2d_9">
      <g>
       <use style="stroke:#000000;stroke-width:0.8;" x="38.789375" xlink:href="#m6263f87837" y="128.001363"/>
      </g>
     </g>
     <g id="text_10">
      <!-- $\mathdefault{2}$ -->
      <g transform="translate(24.749375 132.180503)scale(0.11 -0.11)">
       <use transform="translate(0 0.78125)" xlink:href="#DejaVuSans-50"/>
      </g>
     </g>
    </g>
    <g id="ytick_4">
     <g id="line2d_10">
      <g>
       <use style="stroke:#000000;stroke-width:0.8;" x="38.789375" xlink:href="#m6263f87837" y="69.690252"/>
      </g>
     </g>
     <g id="text_11">
      <!-- $\mathdefault{3}$ -->
      <defs>
       <path d="M 40.578125 39.3125 
Q 47.65625 37.796875 51.625 33 
Q 55.609375 28.21875 55.609375 21.1875 
Q 55.609375 10.40625 48.1875 4.484375 
Q 40.765625 -1.421875 27.09375 -1.421875 
Q 22.515625 -1.421875 17.65625 -0.515625 
Q 12.796875 0.390625 7.625 2.203125 
L 7.625 11.71875 
Q 11.71875 9.328125 16.59375 8.109375 
Q 21.484375 6.890625 26.8125 6.890625 
Q 36.078125 6.890625 40.9375 10.546875 
Q 45.796875 14.203125 45.796875 21.1875 
Q 45.796875 27.640625 41.28125 31.265625 
Q 36.765625 34.90625 28.71875 34.90625 
L 20.21875 34.90625 
L 20.21875 43.015625 
L 29.109375 43.015625 
Q 36.375 43.015625 40.234375 45.921875 
Q 44.09375 48.828125 44.09375 54.296875 
Q 44.09375 59.90625 40.109375 62.90625 
Q 36.140625 65.921875 28.71875 65.921875 
Q 24.65625 65.921875 20.015625 65.03125 
Q 15.375 64.15625 9.8125 62.3125 
L 9.8125 71.09375 
Q 15.4375 72.65625 20.34375 73.4375 
Q 25.25 74.21875 29.59375 74.21875 
Q 40.828125 74.21875 47.359375 69.109375 
Q 53.90625 64.015625 53.90625 55.328125 
Q 53.90625 49.265625 50.4375 45.09375 
Q 46.96875 40.921875 40.578125 39.3125 
z
" id="DejaVuSans-51"/>
      </defs>
      <g transform="translate(24.749375 73.869392)scale(0.11 -0.11)">
       <use transform="translate(0 0.78125)" xlink:href="#DejaVuSans-51"/>
      </g>
     </g>
    </g>
    <g id="ytick_5">
     <g id="line2d_11">
      <g>
       <use style="stroke:#000000;stroke-width:0.8;" x="38.789375" xlink:href="#m6263f87837" y="11.379141"/>
      </g>
     </g>
     <g id="text_12">
      <!-- $\mathdefault{4}$ -->
      <defs>
       <path d="M 37.796875 64.3125 
L 12.890625 25.390625 
L 37.796875 25.390625 
z
M 35.203125 72.90625 
L 47.609375 72.90625 
L 47.609375 25.390625 
L 58.015625 25.390625 
L 58.015625 17.1875 
L 47.609375 17.1875 
L 47.609375 0 
L 37.796875 0 
L 37.796875 17.1875 
L 4.890625 17.1875 
L 4.890625 26.703125 
z
" id="DejaVuSans-52"/>
      </defs>
      <g transform="translate(24.749375 15.558281)scale(0.11 -0.11)">
       <use transform="translate(0 0.09375)" xlink:href="#DejaVuSans-52"/>
      </g>
     </g>
    </g>
    <g id="text_13">
     <!-- Kunz -->
     <defs>
      <path d="M 9.8125 72.90625 
L 19.671875 72.90625 
L 19.671875 42.09375 
L 52.390625 72.90625 
L 65.09375 72.90625 
L 28.90625 38.921875 
L 67.671875 0 
L 54.6875 0 
L 19.671875 35.109375 
L 19.671875 0 
L 9.8125 0 
z
" id="DejaVuSans-75"/>
      <path d="M 8.5 21.578125 
L 8.5 54.6875 
L 17.484375 54.6875 
L 17.484375 21.921875 
Q 17.484375 14.15625 20.5 10.265625 
Q 23.53125 6.390625 29.59375 6.390625 
Q 36.859375 6.390625 41.078125 11.03125 
Q 45.3125 15.671875 45.3125 23.6875 
L 45.3125 54.6875 
L 54.296875 54.6875 
L 54.296875 0 
L 45.3125 0 
L 45.3125 8.40625 
Q 42.046875 3.421875 37.71875 1 
Q 33.40625 -1.421875 27.6875 -1.421875 
Q 18.265625 -1.421875 13.375 4.4375 
Q 8.5 10.296875 8.5 21.578125 
z
M 31.109375 56 
z
" id="DejaVuSans-117"/>
     </defs>
     <g transform="translate(17.837813 159.366016)rotate(-90)scale(0.14 -0.14)">
      <use xlink:href="#DejaVuSans-75"/>
      <use x="60.576172" xlink:href="#DejaVuSans-117"/>
      <use x="123.955078" xlink:href="#DejaVuSans-110"/>
      <use x="187.333984" xlink:href="#DejaVuSans-122"/>
     </g>
    </g>
   </g>
   <g id="LineCollection_1">
    <path clip-path="url(#pf21ffbcba1)" d="M 148.988025 247.144361 
L 149.429417 247.224542 
L 149.870809 247.10585 
L 150.312201 247.121326 
L 153.401944 245.97982 
L 154.72612 245.557648 
L 157.815863 245.037175 
L 159.58143 244.533817 
L 160.464214 244.454156 
L 161.78839 244.430082 
L 163.553957 244.019959 
L 168.409268 242.697814 
L 170.799367 242.251846 
L 173.264579 241.551986 
L 181.209632 238.988989 
L 187.830511 236.780278 
L 191.361646 235.338679 
L 195.775564 233.613268 
L 199.748091 231.93947 
L 204.769015 229.745995 
L 208.134537 228.31479 
L 211.22428 226.830332 
L 216.962374 223.887226 
L 223.869933 220.098625 
L 227.114388 218.269609 
L 235.059441 213.524796 
L 246.150404 206.520844 
L 251.399896 202.947744 
L 256.919818 199.017334 
L 262.86713 194.584791 
L 271.34576 187.940723 
L 277.433062 182.933297 
L 284.90262 176.506803 
L 293.764561 168.5517 
L 297.386902 165.072882 
L 303.917879 158.641302 
L 309.33673 153.281652 
L 315.392763 147.189794 
L 318.923898 143.574353 
L 321.860381 140.418491 
L 326.060982 135.773461 
L 337.245141 123.26761 
L 352.911073 104.613385 
L 355.118032 101.797709 
L 365.08414 88.965849 
L 367.977277 85.035439 
L 376.814881 73.244208 
L 378.753385 70.385728 
L 380.718761 67.370406 
L 383.036212 64.311458 
L 387.970242 57.879877 
L 388.883099 56.450637 
L 389.155903 55.736017 
L 389.103893 55.378707 
L 388.663815 55.190856 
L 387.781031 55.243653 
L 386.898247 55.448992 
L 385.574072 56.096145 
L 383.808504 57.388559 
L 382.443946 58.594497 
L 378.318803 62.882218 
L 374.980666 66.471638 
L 373.367655 68.599178 
L 371.422621 71.100348 
L 360.826137 83.606199 
L 357.766383 87.350692 
L 354.222955 91.467019 
L 349.196922 97.541289 
L 346.731586 100.490102 
L 338.644026 109.68983 
L 336.138181 112.557669 
L 319.277083 130.771121 
L 312.744412 137.56506 
L 304.718875 145.420831 
L 298.619872 151.146618 
L 285.819507 162.794379 
L 273.955508 172.933703 
L 268.163832 177.597305 
L 261.984346 182.310163 
L 255.285695 187.226103 
L 246.094238 193.670532 
L 239.47336 198.003923 
L 233.860428 201.518504 
L 220.630036 209.379324 
L 210.339301 214.738975 
L 198.478024 220.455935 
L 193.539764 222.599795 
L 188.524029 224.743655 
L 185.182159 225.815957 
L 182.87822 226.887515 
L 177.141345 229.745995 
L 176.795714 229.8327 
L 176.267185 229.745995 
L 175.91293 228.890079 
L 175.471538 228.850051 
L 174.588754 229.118662 
L 172.823187 229.996469 
L 168.753115 232.604475 
L 166.643701 234.101647 
L 158.698647 239.890834 
L 156.050295 241.447832 
L 153.401944 243.063577 
L 151.029865 244.753016 
L 149.395328 246.182256 
L 148.91141 246.896876 
L 148.988025 247.144361 
L 148.988025 247.144361 
" style="fill:none;stroke:#000000;stroke-width:1.714286;"/>
    <path clip-path="url(#pf21ffbcba1)" d="M 403.229747 34.331386 
L 403.330846 34.297416 
L 403.671138 34.191519 
L 404.11253 33.984833 
L 404.18069 33.940106 
L 404.553922 33.713587 
L 404.748832 33.582796 
L 404.995314 33.428304 
L 405.290906 33.225486 
L 405.436706 33.131115 
L 405.81151 32.868176 
L 405.878098 32.823671 
L 406.314224 32.510866 
L 406.31949 32.507232 
L 406.760882 32.182786 
L 406.7987 32.153556 
L 407.202274 31.850406 
L 407.27154 31.796246 
L 407.643665 31.510679 
L 407.734363 31.438936 
L 408.085057 31.164001 
L 408.187999 31.081626 
L 408.526449 30.810559 
L 408.632985 30.724316 
L 408.967841 30.450335 
L 409.069594 30.367006 
L 409.409233 30.08311 
L 409.497847 30.009696 
L 409.850625 29.708447 
L 409.917516 29.652386 
L 410.292017 29.325677 
L 410.328109 29.295076 
L 410.728903 28.937766 
L 410.733409 28.933488 
L 411.119804 28.580456 
L 411.1748 28.526535 
L 411.499595 28.223146 
L 411.616192 28.105102 
L 411.866719 27.865836 
L 412.057584 27.66629 
L 412.219137 27.508526 
L 412.498976 27.20638 
L 412.554217 27.151216 
L 412.809538 26.793906 
L 412.940368 26.518423 
L 412.982327 26.436596 
L 412.940368 26.402631 
L 412.839291 26.436596 
L 412.498976 26.542509 
L 412.057584 26.749194 
L 411.989449 26.793906 
L 411.616192 27.020447 
L 411.421319 27.151216 
L 411.1748 27.305735 
L 410.879253 27.508526 
L 410.733409 27.602928 
L 410.358654 27.865836 
L 410.292017 27.910375 
L 409.855941 28.223146 
L 409.850625 28.226815 
L 409.409233 28.551266 
L 409.371466 28.580456 
L 408.967841 28.883649 
L 408.898629 28.937766 
L 408.526449 29.223378 
L 408.435807 29.295076 
L 408.085057 29.570055 
L 407.98217 29.652386 
L 407.643665 29.923497 
L 407.537181 30.009696 
L 407.202274 30.283718 
L 407.100569 30.367006 
L 406.760882 30.65094 
L 406.672311 30.724316 
L 406.31949 31.025598 
L 406.252638 31.081626 
L 405.878098 31.408363 
L 405.842038 31.438936 
L 405.441238 31.796246 
L 405.436706 31.80055 
L 405.050333 32.153556 
L 404.995314 32.207499 
L 404.670539 32.510866 
L 404.553922 32.628928 
L 404.303411 32.868176 
L 404.11253 33.067735 
L 403.950988 33.225486 
L 403.671138 33.52764 
L 403.615905 33.582796 
L 403.360582 33.940106 
L 403.229747 34.215588 
L 403.187785 34.297416 
L 403.229747 34.331386 
" style="fill:none;stroke:#000000;stroke-width:1.714286;"/>
   </g>
   <g id="LineCollection_2">
    <path clip-path="url(#pf21ffbcba1)" d="M 178.119889 235.704122 
L 179.002673 235.776936 
L 180.529198 235.462955 
L 182.533808 234.7406 
L 185.623551 233.59333 
L 187.830511 233.061044 
L 189.596078 232.576539 
L 197.09974 229.978919 
L 207.251753 225.75772 
L 218.727942 220.332396 
L 223.882759 217.597455 
L 231.528306 213.224987 
L 236.825009 210.067973 
L 244.092553 205.448914 
L 250.066765 201.428937 
L 258.944831 195.086924 
L 265.100423 190.441893 
L 272.317378 184.724933 
L 280.081413 178.29224 
L 286.702291 172.554003 
L 291.998994 167.685786 
L 300.698616 159.355922 
L 311.905614 148.279311 
L 317.259696 142.562351 
L 329.958695 128.574913 
L 336.347035 121.12375 
L 346.731586 108.507231 
L 349.821329 104.29706 
L 351.352149 102.186319 
L 356.932788 95.040119 
L 357.438465 93.968189 
L 357.477991 93.610879 
L 357.324991 93.374319 
L 356.835179 93.610879 
L 355.53486 94.682809 
L 352.218431 97.898599 
L 349.821329 100.372726 
L 346.671836 103.972869 
L 342.961672 108.26059 
L 333.463268 118.62258 
L 325.371822 127.198021 
L 313.476548 139.346561 
L 304.350974 148.279311 
L 294.433584 157.569372 
L 288.026467 163.354227 
L 279.828508 170.432533 
L 272.903157 176.149493 
L 265.515481 181.943216 
L 257.53095 187.940723 
L 249.029393 194.014994 
L 242.112345 198.660024 
L 232.145183 205.091604 
L 225.021388 209.379324 
L 215.005376 215.096285 
L 209.017321 218.166904 
L 194.451389 225.460043 
L 185.990661 229.388685 
L 178.906219 233.319095 
L 177.966362 234.033715 
L 177.514606 234.748335 
L 177.524817 235.105645 
L 177.699727 235.462955 
L 178.119889 235.704122 
L 178.119889 235.704122 
" style="fill:none;stroke:#000000;stroke-width:1.714286;"/>
   </g>
   <g id="LineCollection_3">
    <path clip-path="url(#pf21ffbcba1)" d="M 415.042978 11.379141 
L 414.799995 14.029646 
L 416.134687 15.284218 
L 416.525843 14.029646 
L 417.12205 11.379141 
" style="fill:none;stroke:#fff5f0;stroke-width:1.5;"/>
    <path clip-path="url(#pf21ffbcba1)" d="M 100.53679 247.355494 
L 107.397614 248.026153 
L 114.258437 248.528663 
L 121.119261 248.780768 
L 127.980085 248.742353 
L 134.840909 248.429527 
L 141.701733 247.890837 
L 148.562557 247.116934 
L 162.389413 244.623585 
L 172.610213 241.97308 
L 182.866676 238.895389 
L 189.7275 236.539545 
L 196.588324 233.879455 
L 203.449148 230.920273 
L 217.170795 224.298709 
L 218.697158 223.419545 
L 224.031619 220.737767 
L 228.141164 218.118535 
L 230.892443 216.697565 
L 232.708887 215.46803 
L 237.753267 212.616401 
L 241.049411 210.167019 
L 244.614091 208.138931 
L 249.011692 204.866009 
L 251.474915 203.430979 
L 252.932782 202.215504 
L 256.56566 199.564999 
L 258.335739 198.510821 
L 260.117534 196.914494 
L 263.684875 194.263989 
L 265.196562 193.341613 
L 267.003837 191.613484 
L 270.380609 188.962979 
L 272.057386 187.908801 
L 273.635047 186.312474 
L 276.719377 183.661969 
L 278.91821 182.226939 
L 280.063875 181.011464 
L 282.80647 178.360959 
L 285.779034 176.332871 
L 288.748861 173.059949 
L 292.639858 170.20832 
L 294.626543 167.758939 
L 297.437017 165.108434 
L 299.500682 163.687464 
L 300.485391 162.457929 
L 302.758897 159.807423 
L 306.361506 157.125646 
L 308.252138 154.506413 
L 310.755971 151.855908 
L 313.22233 150.084568 
L 315.815834 146.554898 
L 318.606344 143.904393 
L 320.083153 142.890655 
L 321.189889 141.253888 
L 323.164594 138.603383 
L 326.943977 135.502091 
L 328.322598 133.302373 
L 330.28368 130.651868 
L 333.804801 127.859253 
L 335.274633 125.350858 
L 337.168221 122.700353 
L 340.665625 119.917322 
L 342.064204 117.399343 
L 343.836302 114.748838 
L 346.826128 112.098333 
L 347.526449 111.671146 
L 348.716652 109.447827 
L 350.331306 106.797322 
L 352.849132 104.146817 
L 354.387273 103.161512 
L 356.708968 98.845807 
L 358.73413 96.195302 
L 361.248097 94.455425 
L 363.018799 90.894292 
L 364.642093 88.243787 
L 368.121382 85.593282 
L 369.293125 82.942777 
L 370.632258 80.292272 
L 372.652623 77.641767 
L 374.969744 76.245766 
L 378.092821 69.690252 
L 381.39184 67.039747 
L 381.830568 66.88259 
L 383.929436 61.738737 
L 385.361384 59.088232 
L 388.691392 57.054473 
L 388.95829 56.437726 
L 390.962855 51.136716 
L 392.30745 48.486211 
L 395.552216 46.991143 
L 396.004375 45.835706 
L 397.78014 40.534696 
L 398.48323 37.884191 
L 395.552216 37.174945 
L 395.243898 37.884191 
L 393.203558 43.185201 
L 391.487948 45.835706 
L 388.691392 46.6919 
L 386.824907 51.136716 
L 385.419974 53.787221 
L 381.830568 55.934872 
L 381.5841 56.437726 
L 380.446549 59.088232 
L 379.107998 61.738737 
L 376.504 64.389242 
L 374.969744 65.019839 
L 372.697385 69.690252 
L 370.743833 72.340757 
L 368.10892 73.902338 
L 366.198569 77.641767 
L 364.416117 80.292272 
L 361.248097 82.468053 
L 360.978756 82.942777 
L 359.607435 85.593282 
L 357.865182 88.243787 
L 354.331531 90.894292 
L 352.914696 93.544797 
L 351.147926 96.195302 
L 347.526449 98.984665 
L 346.106983 101.496312 
L 344.266379 104.146817 
L 340.665625 106.929848 
L 339.165817 109.447827 
L 337.197508 112.098333 
L 333.731678 114.748838 
L 332.064803 117.399343 
L 329.891825 120.049848 
L 326.943977 122.194347 
L 324.763571 125.350858 
L 322.25151 128.001363 
L 320.083153 129.501963 
L 317.193788 133.302373 
L 314.058791 135.952878 
L 313.22233 136.488184 
L 311.644069 138.603383 
L 309.222012 141.253888 
L 306.361506 143.296651 
L 303.692771 146.554898 
L 300.526948 149.205403 
L 299.500682 149.872849 
L 297.849169 151.855908 
L 295.148515 154.506413 
L 292.639858 156.232204 
L 289.28429 159.807423 
L 285.588377 162.457929 
L 283.126201 165.108434 
L 278.91821 168.171775 
L 276.735367 170.409444 
L 273.321345 173.059949 
L 272.057386 173.85867 
L 270.123828 175.710454 
L 266.674229 178.360959 
L 265.196562 179.283335 
L 263.276451 181.011464 
L 259.647153 183.661969 
L 258.335739 184.46069 
L 256.154579 186.312474 
L 251.474915 189.375815 
L 248.688819 191.613484 
L 244.343997 194.263989 
L 240.756106 196.914494 
L 237.753267 198.640285 
L 236.40601 199.564999 
L 227.840494 204.866009 
L 223.005061 207.516514 
L 213.377682 212.817524 
L 202.355435 218.118535 
L 196.337561 220.76904 
L 189.7275 223.55207 
L 182.866676 226.208907 
L 175.7036 228.720555 
L 167.379271 231.37106 
L 162.284205 232.932641 
L 148.562557 236.169215 
L 145.549458 236.67207 
L 141.701733 237.528263 
L 134.840909 238.613329 
L 127.980085 239.368606 
L 121.119261 240.206579 
L 114.258437 240.718508 
L 107.397614 241.008356 
L 93.675966 241.170298 
L 86.815142 241.243128 
L 80.657379 241.97308 
L 87.042839 244.623585 
L 93.675966 245.851974 
L 100.53679 247.355494 
L 100.53679 247.355494 
" style="fill:none;stroke:#fff5f0;stroke-width:1.5;"/>
    <path clip-path="url(#pf21ffbcba1)" d="M 402.41304 36.701949 
L 402.93547 35.233686 
L 403.735381 32.583181 
L 404.384506 29.932676 
L 402.41304 27.328202 
L 401.52512 29.932676 
L 400.637844 32.583181 
L 399.81793 35.233686 
L 402.41304 36.701949 
" style="fill:none;stroke:#fff5f0;stroke-width:1.5;"/>
    <path clip-path="url(#pf21ffbcba1)" d="M 409.273864 26.138343 
L 409.769185 24.631666 
L 410.463251 21.981161 
L 410.83535 19.330656 
L 409.273864 17.564154 
L 408.666289 19.330656 
L 407.894606 21.981161 
L 407.401785 24.631666 
L 409.273864 26.138343 
" style="fill:none;stroke:#fff5f0;stroke-width:1.5;"/>
   </g>
   <g id="LineCollection_4">
    <path clip-path="url(#pf21ffbcba1)" d="M 121.119261 245.663306 
L 127.980085 246.192042 
L 134.840909 246.172685 
L 141.701733 245.780169 
L 148.562557 245.157033 
L 152.840508 244.623585 
L 155.423381 244.159795 
L 166.306955 241.97308 
L 176.654421 239.322575 
L 184.777752 236.67207 
L 192.083096 234.021565 
L 196.588324 232.311534 
L 198.746879 231.37106 
L 204.957703 228.720555 
L 210.885489 226.07005 
L 217.170795 222.950951 
L 220.842236 220.76904 
L 224.031619 219.236566 
L 225.785797 218.118535 
L 230.911715 215.46803 
L 234.629077 212.817524 
L 237.753267 211.176473 
L 239.111694 210.167019 
L 243.225106 207.516514 
L 244.614091 206.785044 
L 246.958983 204.866009 
L 251.498427 202.215504 
L 254.450091 199.564999 
L 258.711212 196.914494 
L 261.582413 194.263989 
L 265.196562 192.058769 
L 268.376553 188.962979 
L 272.389843 186.312474 
L 274.886996 183.661969 
L 278.936687 181.011464 
L 281.19062 178.360959 
L 284.537014 175.710454 
L 285.779034 174.978983 
L 287.362607 173.059949 
L 290.062125 170.409444 
L 292.639858 168.768393 
L 295.670316 165.108434 
L 299.511129 162.457929 
L 301.380103 159.807423 
L 303.954589 157.156918 
L 306.361506 155.624445 
L 309.118629 151.855908 
L 312.377277 149.205403 
L 313.22233 148.736809 
L 314.623487 146.554898 
L 316.666981 143.904393 
L 320.083153 141.559401 
L 320.289733 141.253888 
L 321.877459 138.603383 
L 323.993843 135.952878 
L 326.943977 134.032165 
L 328.933318 130.651868 
L 331.047833 128.001363 
L 333.804801 126.291332 
L 335.803105 122.700353 
L 337.791126 120.049848 
L 340.665625 118.313767 
L 341.17353 117.399343 
L 342.513364 114.748838 
L 344.255711 112.098333 
L 347.526449 110.103225 
L 347.877301 109.447827 
L 349.102193 106.797322 
L 350.554458 104.146817 
L 354.489668 101.496312 
L 356.810587 96.195302 
L 358.838396 93.544797 
L 361.248097 92.825663 
L 363.089961 88.243787 
L 364.103352 85.593282 
L 361.248097 84.185554 
L 357.95435 90.894292 
L 354.387273 92.515317 
L 353.844567 93.544797 
L 352.581381 96.195302 
L 350.917885 98.845807 
L 347.526449 100.625512 
L 347.034313 101.496312 
L 345.671835 104.146817 
L 343.806809 106.797322 
L 340.665625 108.533403 
L 338.64455 112.098333 
L 336.498429 114.748838 
L 333.804801 116.230207 
L 331.456139 120.049848 
L 328.830977 122.700353 
L 326.943977 123.679955 
L 325.883295 125.350858 
L 324.04017 128.001363 
L 320.083153 130.795064 
L 318.481518 133.302373 
L 316.263803 135.952878 
L 313.22233 137.899313 
L 310.790283 141.253888 
L 307.766358 143.904393 
L 306.361506 144.691434 
L 304.974061 146.554898 
L 302.613253 149.205403 
L 299.500682 151.229703 
L 296.829872 154.506413 
L 292.639858 157.51971 
L 290.766084 159.807423 
L 287.829219 162.457929 
L 285.779034 163.70199 
L 284.510087 165.108434 
L 281.776198 167.758939 
L 278.91821 169.555235 
L 275.389012 173.059949 
L 272.057386 175.165271 
L 268.729374 178.360959 
L 265.196562 180.566179 
L 261.792452 183.661969 
L 258.335739 185.767291 
L 254.527989 188.962979 
L 251.474915 190.759275 
L 250.411349 191.613484 
L 246.824108 194.263989 
L 244.614091 195.50805 
L 242.768675 196.914494 
L 237.753267 199.927791 
L 234.605826 202.215504 
L 229.928707 204.866009 
L 225.565358 207.516514 
L 224.031619 208.303556 
L 221.014296 210.167019 
L 210.309972 215.611226 
L 205.566962 218.118535 
L 193.86519 223.419545 
L 187.363349 226.07005 
L 182.866676 227.849755 
L 169.145028 232.613837 
L 148.562557 238.152337 
L 141.701733 239.356592 
L 134.840909 240.903039 
L 126.184404 241.97308 
L 121.119261 243.37592 
L 114.258437 244.623585 
L 121.119261 245.663306 
L 121.119261 245.663306 
" style="fill:none;stroke:#fb694a;stroke-width:1.5;"/>
    <path clip-path="url(#pf21ffbcba1)" d="M 368.10892 83.774325 
L 368.475221 82.942777 
L 369.400703 80.292272 
L 370.160888 77.641767 
L 368.10892 75.566628 
L 367.246192 77.641767 
L 366.218449 80.292272 
L 365.222029 82.942777 
L 368.10892 83.774325 
" style="fill:none;stroke:#fb694a;stroke-width:1.5;"/>
    <path clip-path="url(#pf21ffbcba1)" d="M 374.969744 74.527472 
L 375.724935 72.340757 
L 376.438218 69.690252 
L 375.920446 67.039747 
L 374.969744 66.740727 
L 374.829762 67.039747 
L 373.901279 69.690252 
L 373.124882 72.340757 
L 374.969744 74.527472 
" style="fill:none;stroke:#fb694a;stroke-width:1.5;"/>
    <path clip-path="url(#pf21ffbcba1)" d="M 381.830568 64.922689 
L 382.041683 64.389242 
L 382.762167 61.738737 
L 383.003696 59.088232 
L 381.830568 57.917993 
L 381.370722 59.088232 
L 380.622134 61.738737 
L 380.690958 64.389242 
L 381.830568 64.922689 
" style="fill:none;stroke:#fb694a;stroke-width:1.5;"/>
    <path clip-path="url(#pf21ffbcba1)" d="M 388.691392 54.943805 
L 389.072513 53.787221 
L 389.56968 51.136716 
L 388.691392 48.520229 
L 387.969694 51.136716 
L 387.687709 53.787221 
L 388.691392 54.943805 
" style="fill:none;stroke:#fb694a;stroke-width:1.5;"/>
    <path clip-path="url(#pf21ffbcba1)" d="M 395.552216 44.734301 
L 395.963877 43.185201 
L 396.146738 40.534696 
L 395.552216 39.464655 
L 395.20762 40.534696 
L 394.83558 43.185201 
L 395.552216 44.734301 
" style="fill:none;stroke:#fb694a;stroke-width:1.5;"/>
    <path clip-path="url(#pf21ffbcba1)" d="M 402.41304 34.151637 
L 402.74371 32.583181 
L 402.542852 29.932676 
L 402.41304 29.761182 
L 402.354574 29.932676 
L 401.969127 32.583181 
L 402.41304 34.151637 
" style="fill:none;stroke:#fb694a;stroke-width:1.5;"/>
    <path clip-path="url(#pf21ffbcba1)" d="M 409.273864 23.020882 
L 409.452582 21.981161 
L 409.273864 20.733496 
L 409.066615 21.981161 
L 409.273864 23.020882 
" style="fill:none;stroke:#fb694a;stroke-width:1.5;"/>
   </g>
   <g id="LineCollection_5">
    <path clip-path="url(#pf21ffbcba1)" d="M 162.284205 239.53823 
L 163.95906 239.322575 
L 162.284205 238.747496 
L 160.205343 239.322575 
L 162.284205 239.53823 
" style="fill:none;stroke:#67000d;stroke-width:1.5;"/>
    <path clip-path="url(#pf21ffbcba1)" d="M 169.145028 238.13547 
L 176.005852 236.969371 
L 177.092742 236.67207 
L 182.866676 234.886698 
L 185.585066 234.021565 
L 189.7275 232.643302 
L 193.142917 231.37106 
L 196.588324 230.143446 
L 199.878012 228.720555 
L 203.449148 227.354155 
L 206.059494 226.07005 
L 210.309972 224.316364 
L 211.951958 223.419545 
L 217.170795 221.094202 
L 217.717937 220.76904 
L 222.333791 218.118535 
L 224.031619 217.398175 
L 226.835939 215.46803 
L 230.892443 213.529145 
L 231.88778 212.817524 
L 236.02672 210.167019 
L 237.753267 209.38579 
L 240.035124 207.516514 
L 244.614091 205.105128 
L 244.906274 204.866009 
L 247.880128 202.215504 
L 251.474915 200.339832 
L 252.334523 199.564999 
L 255.382373 196.914494 
L 258.335739 195.393359 
L 259.479951 194.263989 
L 262.478337 191.613484 
L 265.196562 190.217551 
L 266.372496 188.962979 
L 269.155469 186.312474 
L 272.057386 184.791339 
L 273.054614 183.661969 
L 275.507574 181.011464 
L 278.91821 179.135792 
L 279.57477 178.360959 
L 281.684555 175.710454 
L 285.779034 173.299068 
L 285.976353 173.059949 
L 287.800313 170.409444 
L 290.804406 167.758939 
L 292.639858 166.977709 
L 293.903615 165.108434 
L 295.914145 162.457929 
L 299.500682 160.519044 
L 300.001308 159.807423 
L 301.59679 157.156918 
L 304.285986 154.506413 
L 306.361506 153.786054 
L 307.481286 151.855908 
L 309.028854 149.205403 
L 313.22233 146.880061 
L 313.431139 146.554898 
L 314.727618 143.904393 
L 316.082277 141.253888 
L 313.22233 139.865987 
L 312.358554 141.253888 
L 310.838109 143.904393 
L 306.361506 146.412323 
L 306.255351 146.554898 
L 304.699558 149.205403 
L 302.523017 151.855908 
L 299.500682 153.122368 
L 298.511229 154.506413 
L 296.581698 157.156918 
L 292.639858 159.32885 
L 292.247877 159.807423 
L 290.356945 162.457929 
L 286.492762 165.108434 
L 285.779034 165.352601 
L 283.977344 167.758939 
L 280.974805 170.409444 
L 278.91821 171.340195 
L 277.456679 173.059949 
L 274.632572 175.710454 
L 272.057386 176.995346 
L 270.784519 178.360959 
L 267.914788 181.011464 
L 265.196562 182.407397 
L 263.937751 183.661969 
L 260.861806 186.312474 
L 258.335739 187.597367 
L 256.879385 188.962979 
L 253.380189 191.613484 
L 251.474915 192.544235 
L 249.548896 194.263989 
L 245.155302 196.914494 
L 244.614091 197.158662 
L 241.83272 199.564999 
L 237.753267 201.736931 
L 237.094844 202.215504 
L 233.455135 204.866009 
L 230.892443 206.132469 
L 228.918923 207.516514 
L 224.031619 210.024445 
L 223.800762 210.167019 
L 219.819935 212.817524 
L 217.170795 214.080129 
L 214.840802 215.46803 
L 210.309972 217.627124 
L 209.380383 218.118535 
L 203.910079 220.76904 
L 203.449148 220.975725 
L 198.753519 223.419545 
L 196.588324 224.38543 
L 192.893957 226.07005 
L 189.7275 227.448312 
L 186.584692 228.720555 
L 182.866676 230.297318 
L 179.887391 231.37106 
L 176.005852 233.003128 
L 172.831229 234.021565 
L 169.145028 235.658947 
L 165.618485 236.67207 
L 169.145028 238.13547 
" style="fill:none;stroke:#67000d;stroke-width:1.5;"/>
    <path clip-path="url(#pf21ffbcba1)" d="M 320.083153 139.500202 
L 320.590324 138.603383 
L 321.736098 135.952878 
L 322.321183 133.302373 
L 320.083153 132.810962 
L 319.769247 133.302373 
L 318.468815 135.952878 
L 317.062925 138.603383 
L 320.083153 139.500202 
" style="fill:none;stroke:#67000d;stroke-width:1.5;"/>
    <path clip-path="url(#pf21ffbcba1)" d="M 326.943977 131.935973 
L 327.582957 130.651868 
L 328.519979 128.001363 
L 326.943977 125.557544 
L 325.828829 128.001363 
L 324.841638 130.651868 
L 326.943977 131.935973 
" style="fill:none;stroke:#67000d;stroke-width:1.5;"/>
    <path clip-path="url(#pf21ffbcba1)" d="M 333.804801 124.123244 
L 334.437989 122.700353 
L 335.136054 120.049848 
L 333.804801 118.365228 
L 333.020454 120.049848 
L 332.228782 122.700353 
L 333.804801 124.123244 
" style="fill:none;stroke:#67000d;stroke-width:1.5;"/>
    <path clip-path="url(#pf21ffbcba1)" d="M 340.665625 116.02108 
L 341.190427 114.748838 
L 341.685295 112.098333 
L 340.665625 110.82609 
L 340.091592 112.098333 
L 339.482043 114.748838 
L 340.665625 116.02108 
" style="fill:none;stroke:#67000d;stroke-width:1.5;"/>
    <path clip-path="url(#pf21ffbcba1)" d="M 347.526449 107.662456 
L 347.873079 106.797322 
L 348.259785 104.146817 
L 347.526449 103.073076 
L 347.077291 104.146817 
L 346.708207 106.797322 
L 347.526449 107.662456 
" style="fill:none;stroke:#67000d;stroke-width:1.5;"/>
    <path clip-path="url(#pf21ffbcba1)" d="M 354.387273 99.143109 
L 354.507845 98.845807 
L 354.887044 96.195302 
L 354.387273 95.176866 
L 354.014835 96.195302 
L 354.044712 98.845807 
L 354.387273 99.143109 
" style="fill:none;stroke:#67000d;stroke-width:1.5;"/>
    <path clip-path="url(#pf21ffbcba1)" d="M 361.248097 89.707187 
L 361.537829 88.243787 
L 361.248097 87.230664 
L 360.95931 88.243787 
L 361.248097 89.707187 
" style="fill:none;stroke:#67000d;stroke-width:1.5;"/>
    <path clip-path="url(#pf21ffbcba1)" d="M 368.10892 80.507927 
L 368.169148 80.292272 
L 368.10892 79.717193 
L 368.02078 80.292272 
L 368.10892 80.507927 
" style="fill:none;stroke:#67000d;stroke-width:1.5;"/>
   </g>
   <g id="patch_3">
    <path d="M 38.789375 273.779141 
L 38.789375 11.379141 
" style="fill:none;stroke:#000000;stroke-linecap:square;stroke-linejoin:miter;stroke-width:0.8;"/>
   </g>
   <g id="patch_4">
    <path d="M 416.134687 273.779141 
L 416.134687 11.379141 
" style="fill:none;stroke:#000000;stroke-linecap:square;stroke-linejoin:miter;stroke-width:0.8;"/>
   </g>
   <g id="patch_5">
    <path d="M 38.789375 273.779141 
L 416.134687 273.779141 
" style="fill:none;stroke:#000000;stroke-linecap:square;stroke-linejoin:miter;stroke-width:0.8;"/>
   </g>
   <g id="patch_6">
    <path d="M 38.789375 11.379141 
L 416.134687 11.379141 
" style="fill:none;stroke:#000000;stroke-linecap:square;stroke-linejoin:miter;stroke-width:0.8;"/>
   </g>
  </g>
 </g>
 <defs>
  <clipPath id="pf21ffbcba1">
   <rect height="262.4" width="377.345312" x="38.789375" y="11.379141"/>
  </clipPath>
 </defs>
</svg>
