<?xml version="1.0" encoding="utf-8" standalone="no"?>
<!DOCTYPE svg PUBLIC "-//W3C//DTD SVG 1.1//EN"
  "http://www.w3.org/Graphics/SVG/1.1/DTD/svg11.dtd">
<!-- Created with matplotlib (https://matplotlib.org/) -->
<svg height="567.3575pt" version="1.1" viewBox="0 0 567.358125 567.3575" width="567.358125pt" xmlns="http://www.w3.org/2000/svg" xmlns:xlink="http://www.w3.org/1999/xlink">
 <defs>
  <style type="text/css">
*{stroke-linecap:butt;stroke-linejoin:round;}
  </style>
 </defs>
 <g id="figure_1">
  <g id="patch_1">
   <path d="M 0 567.3575 
L 567.358125 567.3575 
L 567.358125 0 
L 0 0 
z
" style="fill:#ffffff;"/>
  </g>
  <g id="axes_1">
   <g id="patch_2">
    <path d="M 35.289375 525.1 
L 297.72375 525.1 
L 297.72375 266.15 
L 35.289375 266.15 
z
" style="fill:#ffffff;"/>
   </g>
   <g id="matplotlib.axis_1">
    <g id="xtick_1">
     <g id="line2d_1">
      <defs>
       <path d="M 0 0 
L 0 -3.5 
" id="m0d4835bddb" style="stroke:#000000;stroke-width:0.8;"/>
      </defs>
      <g>
       <use style="stroke:#000000;stroke-width:0.8;" x="80.382959" xlink:href="#m0d4835bddb" y="525.1"/>
      </g>
     </g>
     <g id="line2d_2">
      <defs>
       <path d="M 0 0 
L 0 3.5 
" id="m6d00a2701f" style="stroke:#000000;stroke-width:0.8;"/>
      </defs>
      <g>
       <use style="stroke:#000000;stroke-width:0.8;" x="80.382959" xlink:href="#m6d00a2701f" y="266.15"/>
      </g>
     </g>
     <g id="text_1">
      <!-- $\mathdefault{0.5}$ -->
      <defs>
       <path d="M 31.78125 66.40625 
Q 24.171875 66.40625 20.328125 58.90625 
Q 16.5 51.421875 16.5 36.375 
Q 16.5 21.390625 20.328125 13.890625 
Q 24.171875 6.390625 31.78125 6.390625 
Q 39.453125 6.390625 43.28125 13.890625 
Q 47.125 21.390625 47.125 36.375 
Q 47.125 51.421875 43.28125 58.90625 
Q 39.453125 66.40625 31.78125 66.40625 
z
M 31.78125 74.21875 
Q 44.046875 74.21875 50.515625 64.515625 
Q 56.984375 54.828125 56.984375 36.375 
Q 56.984375 17.96875 50.515625 8.265625 
Q 44.046875 -1.421875 31.78125 -1.421875 
Q 19.53125 -1.421875 13.0625 8.265625 
Q 6.59375 17.96875 6.59375 36.375 
Q 6.59375 54.828125 13.0625 64.515625 
Q 19.53125 74.21875 31.78125 74.21875 
z
" id="DejaVuSans-48"/>
       <path d="M 10.6875 12.40625 
L 21 12.40625 
L 21 0 
L 10.6875 0 
z
" id="DejaVuSans-46"/>
       <path d="M 10.796875 72.90625 
L 49.515625 72.90625 
L 49.515625 64.59375 
L 19.828125 64.59375 
L 19.828125 46.734375 
Q 21.96875 47.46875 24.109375 47.828125 
Q 26.265625 48.1875 28.421875 48.1875 
Q 40.625 48.1875 47.75 41.5 
Q 54.890625 34.8125 54.890625 23.390625 
Q 54.890625 11.625 47.5625 5.09375 
Q 40.234375 -1.421875 26.90625 -1.421875 
Q 22.3125 -1.421875 17.546875 -0.640625 
Q 12.796875 0.140625 7.71875 1.703125 
L 7.71875 11.625 
Q 12.109375 9.234375 16.796875 8.0625 
Q 21.484375 6.890625 26.703125 6.890625 
Q 35.15625 6.890625 40.078125 11.328125 
Q 45.015625 15.765625 45.015625 23.390625 
Q 45.015625 31 40.078125 35.4375 
Q 35.15625 39.890625 26.703125 39.890625 
Q 22.75 39.890625 18.8125 39.015625 
Q 14.890625 38.140625 10.796875 36.28125 
z
" id="DejaVuSans-53"/>
      </defs>
      <g transform="translate(71.582959 536.958281)scale(0.11 -0.11)">
       <use transform="translate(0 0.78125)" xlink:href="#DejaVuSans-48"/>
       <use transform="translate(63.623047 0.78125)" xlink:href="#DejaVuSans-46"/>
       <use transform="translate(95.410156 0.78125)" xlink:href="#DejaVuSans-53"/>
      </g>
     </g>
    </g>
    <g id="xtick_2">
     <g id="line2d_3">
      <g>
       <use style="stroke:#000000;stroke-width:0.8;" x="152.832754" xlink:href="#m0d4835bddb" y="525.1"/>
      </g>
     </g>
     <g id="line2d_4">
      <g>
       <use style="stroke:#000000;stroke-width:0.8;" x="152.832754" xlink:href="#m6d00a2701f" y="266.15"/>
      </g>
     </g>
     <g id="text_2">
      <!-- $\mathdefault{1.0}$ -->
      <defs>
       <path d="M 12.40625 8.296875 
L 28.515625 8.296875 
L 28.515625 63.921875 
L 10.984375 60.40625 
L 10.984375 69.390625 
L 28.421875 72.90625 
L 38.28125 72.90625 
L 38.28125 8.296875 
L 54.390625 8.296875 
L 54.390625 0 
L 12.40625 0 
z
" id="DejaVuSans-49"/>
      </defs>
      <g transform="translate(144.032754 536.958281)scale(0.11 -0.11)">
       <use transform="translate(0 0.78125)" xlink:href="#DejaVuSans-49"/>
       <use transform="translate(63.623047 0.78125)" xlink:href="#DejaVuSans-46"/>
       <use transform="translate(95.410156 0.78125)" xlink:href="#DejaVuSans-48"/>
      </g>
     </g>
    </g>
    <g id="xtick_3">
     <g id="line2d_5">
      <g>
       <use style="stroke:#000000;stroke-width:0.8;" x="225.28255" xlink:href="#m0d4835bddb" y="525.1"/>
      </g>
     </g>
     <g id="line2d_6">
      <g>
       <use style="stroke:#000000;stroke-width:0.8;" x="225.28255" xlink:href="#m6d00a2701f" y="266.15"/>
      </g>
     </g>
     <g id="text_3">
      <!-- $\mathdefault{1.5}$ -->
      <g transform="translate(216.48255 536.958281)scale(0.11 -0.11)">
       <use transform="translate(0 0.09375)" xlink:href="#DejaVuSans-49"/>
       <use transform="translate(63.623047 0.09375)" xlink:href="#DejaVuSans-46"/>
       <use transform="translate(95.410156 0.09375)" xlink:href="#DejaVuSans-53"/>
      </g>
     </g>
    </g>
    <g id="text_4">
     <!-- Hinz -->
     <defs>
      <path d="M 9.8125 72.90625 
L 19.671875 72.90625 
L 19.671875 43.015625 
L 55.515625 43.015625 
L 55.515625 72.90625 
L 65.375 72.90625 
L 65.375 0 
L 55.515625 0 
L 55.515625 34.71875 
L 19.671875 34.71875 
L 19.671875 0 
L 9.8125 0 
z
" id="DejaVuSans-72"/>
      <path d="M 9.421875 54.6875 
L 18.40625 54.6875 
L 18.40625 0 
L 9.421875 0 
z
M 9.421875 75.984375 
L 18.40625 75.984375 
L 18.40625 64.59375 
L 9.421875 64.59375 
z
" id="DejaVuSans-105"/>
      <path d="M 54.890625 33.015625 
L 54.890625 0 
L 45.90625 0 
L 45.90625 32.71875 
Q 45.90625 40.484375 42.875 44.328125 
Q 39.84375 48.1875 33.796875 48.1875 
Q 26.515625 48.1875 22.3125 43.546875 
Q 18.109375 38.921875 18.109375 30.90625 
L 18.109375 0 
L 9.078125 0 
L 9.078125 54.6875 
L 18.109375 54.6875 
L 18.109375 46.1875 
Q 21.34375 51.125 25.703125 53.5625 
Q 30.078125 56 35.796875 56 
Q 45.21875 56 50.046875 50.171875 
Q 54.890625 44.34375 54.890625 33.015625 
z
" id="DejaVuSans-110"/>
      <path d="M 5.515625 54.6875 
L 48.1875 54.6875 
L 48.1875 46.484375 
L 14.40625 7.171875 
L 48.1875 7.171875 
L 48.1875 0 
L 4.296875 0 
L 4.296875 8.203125 
L 38.09375 47.515625 
L 5.515625 47.515625 
z
" id="DejaVuSans-122"/>
     </defs>
     <g transform="translate(151.1875 557.245937)scale(0.14 -0.14)">
      <use xlink:href="#DejaVuSans-72"/>
      <use x="75.195312" xlink:href="#DejaVuSans-105"/>
      <use x="102.978516" xlink:href="#DejaVuSans-110"/>
      <use x="166.357422" xlink:href="#DejaVuSans-122"/>
     </g>
    </g>
   </g>
   <g id="matplotlib.axis_2">
    <g id="ytick_1">
     <g id="line2d_7">
      <defs>
       <path d="M 0 0 
L 3.5 0 
" id="m20cea4b142" style="stroke:#000000;stroke-width:0.8;"/>
      </defs>
      <g>
       <use style="stroke:#000000;stroke-width:0.8;" x="35.289375" xlink:href="#m20cea4b142" y="495.833766"/>
      </g>
     </g>
     <g id="line2d_8">
      <defs>
       <path d="M 0 0 
L -3.5 0 
" id="m629a26c007" style="stroke:#000000;stroke-width:0.8;"/>
      </defs>
      <g>
       <use style="stroke:#000000;stroke-width:0.8;" x="297.72375" xlink:href="#m629a26c007" y="495.833766"/>
      </g>
     </g>
     <g id="text_5">
      <!-- $\mathdefault{0}$ -->
      <g transform="translate(24.749375 500.012907)scale(0.11 -0.11)">
       <use transform="translate(0 0.78125)" xlink:href="#DejaVuSans-48"/>
      </g>
     </g>
    </g>
    <g id="ytick_2">
     <g id="line2d_9">
      <g>
       <use style="stroke:#000000;stroke-width:0.8;" x="35.289375" xlink:href="#m20cea4b142" y="430.16451"/>
      </g>
     </g>
     <g id="line2d_10">
      <g>
       <use style="stroke:#000000;stroke-width:0.8;" x="297.72375" xlink:href="#m629a26c007" y="430.16451"/>
      </g>
     </g>
     <g id="text_6">
      <!-- $\mathdefault{1}$ -->
      <g transform="translate(24.749375 434.343651)scale(0.11 -0.11)">
       <use transform="translate(0 0.09375)" xlink:href="#DejaVuSans-49"/>
      </g>
     </g>
    </g>
    <g id="ytick_3">
     <g id="line2d_11">
      <g>
       <use style="stroke:#000000;stroke-width:0.8;" x="35.289375" xlink:href="#m20cea4b142" y="364.495254"/>
      </g>
     </g>
     <g id="line2d_12">
      <g>
       <use style="stroke:#000000;stroke-width:0.8;" x="297.72375" xlink:href="#m629a26c007" y="364.495254"/>
      </g>
     </g>
     <g id="text_7">
      <!-- $\mathdefault{2}$ -->
      <defs>
       <path d="M 19.1875 8.296875 
L 53.609375 8.296875 
L 53.609375 0 
L 7.328125 0 
L 7.328125 8.296875 
Q 12.9375 14.109375 22.625 23.890625 
Q 32.328125 33.6875 34.8125 36.53125 
Q 39.546875 41.84375 41.421875 45.53125 
Q 43.3125 49.21875 43.3125 52.78125 
Q 43.3125 58.59375 39.234375 62.25 
Q 35.15625 65.921875 28.609375 65.921875 
Q 23.96875 65.921875 18.8125 64.3125 
Q 13.671875 62.703125 7.8125 59.421875 
L 7.8125 69.390625 
Q 13.765625 71.78125 18.9375 73 
Q 24.125 74.21875 28.421875 74.21875 
Q 39.75 74.21875 46.484375 68.546875 
Q 53.21875 62.890625 53.21875 53.421875 
Q 53.21875 48.921875 51.53125 44.890625 
Q 49.859375 40.875 45.40625 35.40625 
Q 44.1875 33.984375 37.640625 27.21875 
Q 31.109375 20.453125 19.1875 8.296875 
z
" id="DejaVuSans-50"/>
      </defs>
      <g transform="translate(24.749375 368.674395)scale(0.11 -0.11)">
       <use transform="translate(0 0.78125)" xlink:href="#DejaVuSans-50"/>
      </g>
     </g>
    </g>
    <g id="ytick_4">
     <g id="line2d_13">
      <g>
       <use style="stroke:#000000;stroke-width:0.8;" x="35.289375" xlink:href="#m20cea4b142" y="298.825998"/>
      </g>
     </g>
     <g id="line2d_14">
      <g>
       <use style="stroke:#000000;stroke-width:0.8;" x="297.72375" xlink:href="#m629a26c007" y="298.825998"/>
      </g>
     </g>
     <g id="text_8">
      <!-- $\mathdefault{3}$ -->
      <defs>
       <path d="M 40.578125 39.3125 
Q 47.65625 37.796875 51.625 33 
Q 55.609375 28.21875 55.609375 21.1875 
Q 55.609375 10.40625 48.1875 4.484375 
Q 40.765625 -1.421875 27.09375 -1.421875 
Q 22.515625 -1.421875 17.65625 -0.515625 
Q 12.796875 0.390625 7.625 2.203125 
L 7.625 11.71875 
Q 11.71875 9.328125 16.59375 8.109375 
Q 21.484375 6.890625 26.8125 6.890625 
Q 36.078125 6.890625 40.9375 10.546875 
Q 45.796875 14.203125 45.796875 21.1875 
Q 45.796875 27.640625 41.28125 31.265625 
Q 36.765625 34.90625 28.71875 34.90625 
L 20.21875 34.90625 
L 20.21875 43.015625 
L 29.109375 43.015625 
Q 36.375 43.015625 40.234375 45.921875 
Q 44.09375 48.828125 44.09375 54.296875 
Q 44.09375 59.90625 40.109375 62.90625 
Q 36.140625 65.921875 28.71875 65.921875 
Q 24.65625 65.921875 20.015625 65.03125 
Q 15.375 64.15625 9.8125 62.3125 
L 9.8125 71.09375 
Q 15.4375 72.65625 20.34375 73.4375 
Q 25.25 74.21875 29.59375 74.21875 
Q 40.828125 74.21875 47.359375 69.109375 
Q 53.90625 64.015625 53.90625 55.328125 
Q 53.90625 49.265625 50.4375 45.09375 
Q 46.96875 40.921875 40.578125 39.3125 
z
" id="DejaVuSans-51"/>
      </defs>
      <g transform="translate(24.749375 303.005139)scale(0.11 -0.11)">
       <use transform="translate(0 0.78125)" xlink:href="#DejaVuSans-51"/>
      </g>
     </g>
    </g>
    <g id="text_9">
     <!-- Kunz -->
     <defs>
      <path d="M 9.8125 72.90625 
L 19.671875 72.90625 
L 19.671875 42.09375 
L 52.390625 72.90625 
L 65.09375 72.90625 
L 28.90625 38.921875 
L 67.671875 0 
L 54.6875 0 
L 19.671875 35.109375 
L 19.671875 0 
L 9.8125 0 
z
" id="DejaVuSans-75"/>
      <path d="M 8.5 21.578125 
L 8.5 54.6875 
L 17.484375 54.6875 
L 17.484375 21.921875 
Q 17.484375 14.15625 20.5 10.265625 
Q 23.53125 6.390625 29.59375 6.390625 
Q 36.859375 6.390625 41.078125 11.03125 
Q 45.3125 15.671875 45.3125 23.6875 
L 45.3125 54.6875 
L 54.296875 54.6875 
L 54.296875 0 
L 45.3125 0 
L 45.3125 8.40625 
Q 42.046875 3.421875 37.71875 1 
Q 33.40625 -1.421875 27.6875 -1.421875 
Q 18.265625 -1.421875 13.375 4.4375 
Q 8.5 10.296875 8.5 21.578125 
z
M 31.109375 56 
z
" id="DejaVuSans-117"/>
     </defs>
     <g transform="translate(17.837813 412.411875)rotate(-90)scale(0.14 -0.14)">
      <use xlink:href="#DejaVuSans-75"/>
      <use x="60.576172" xlink:href="#DejaVuSans-117"/>
      <use x="123.955078" xlink:href="#DejaVuSans-110"/>
      <use x="187.333984" xlink:href="#DejaVuSans-122"/>
     </g>
    </g>
   </g>
   <g id="LineCollection_1">
    <path clip-path="url(#p24e2330e48)" d="M 65.528164 493.331183 
L 67.498474 492.36941 
L 69.797169 491.262703 
L 70.453939 491.072763 
L 71.439094 491.501408 
L 72.42425 491.238862 
L 73.73779 490.759994 
L 76.693255 489.20149 
L 79.977105 487.980078 
L 82.275801 486.82356 
L 86.121774 484.893895 
L 87.340186 484.56987 
L 88.215309 484.245845 
L 89.828656 483.410785 
L 93.112507 481.531704 
L 98.782503 478.413394 
L 100.665363 477.233256 
L 101.978903 476.430524 
L 104.605983 475.135951 
L 109.13733 472.256919 
L 110.516914 471.459117 
L 119.054925 465.681594 
L 120.499164 464.804343 
L 121.025235 464.656584 
L 121.35362 464.806839 
L 121.694241 464.804343 
L 122.995545 463.991591 
L 124.965855 462.45517 
L 130.876786 457.311263 
L 134.572724 454.111517 
L 146.967653 444.060116 
L 148.995885 442.446616 
L 151.920574 439.854416 
L 160.759824 431.746214 
L 167.076301 425.597315 
L 174.223611 418.06037 
L 182.716246 408.748014 
L 187.687397 403.060058 
L 194.812491 395.138962 
L 200.935097 387.686387 
L 213.392759 372.457211 
L 217.639565 366.62476 
L 219.765581 363.708535 
L 223.585993 358.524135 
L 224.867931 356.579984 
L 226.765217 354.117508 
L 228.329547 352.043634 
L 230.705837 348.749844 
L 233.396982 345.239108 
L 234.209964 343.943008 
L 235.303228 341.664256 
L 242.865447 330.982007 
L 246.616175 325.473582 
L 251.394094 318.216395 
L 254.779275 312.836606 
L 255.991485 310.853986 
L 256.97664 309.243182 
L 259.60372 305.088974 
L 263.570417 299.55158 
L 264.139373 298.579505 
L 263.872726 298.46732 
L 262.230801 299.625064 
L 258.29018 302.883008 
L 258.127495 302.79183 
L 258.94695 301.788673 
L 262.72402 297.60743 
L 265.186266 294.874635 
L 266.235638 293.719129 
L 266.32364 293.395104 
L 266.171421 293.246376 
L 265.743915 293.395104 
L 261.031157 297.60743 
L 258.831198 299.55158 
L 256.97664 301.246241 
L 251.065709 307.056747 
L 248.702065 309.596356 
L 246.119088 312.836606 
L 246.009704 313.160631 
L 246.139934 313.294073 
L 246.796704 312.999866 
L 249.752169 310.805293 
L 249.908414 310.892456 
L 248.438629 312.545424 
L 241.397794 319.641131 
L 233.627224 327.093707 
L 232.280148 328.713832 
L 232.214436 329.037857 
L 232.40584 329.037857 
L 233.332917 328.674428 
L 233.429478 328.713832 
L 233.281305 329.361882 
L 232.408211 330.657982 
L 229.720682 334.414329 
L 217.723828 349.775459 
L 215.92851 352.508324 
L 212.64466 356.727879 
L 203.010562 367.92086 
L 199.180874 372.854741 
L 189.536203 383.798087 
L 186.873348 387.038337 
L 182.981009 391.574687 
L 180.134542 394.768424 
L 176.522306 398.453814 
L 172.581686 402.13148 
L 166.34237 407.862655 
L 162.40175 411.810398 
L 155.177279 419.15011 
L 147.837466 425.92134 
L 140.399952 432.277988 
L 138.758027 433.449938 
L 135.437884 435.642091 
L 130.876786 439.86693 
L 127.264551 443.134494 
L 125.95101 444.122433 
L 124.851738 444.714791 
L 123.652315 445.456118 
L 122.01039 446.684207 
L 118.900612 449.251142 
L 115.442689 452.255675 
L 112.815609 454.476426 
L 110.711292 456.055667 
L 108.874989 457.409891 
L 105.262753 460.133658 
L 103.230666 461.564093 
L 100.122775 463.508243 
L 98.973937 464.156293 
L 97.709897 465.021012 
L 89.828656 471.829732 
L 86.475166 474.849119 
L 72.641432 486.189995 
L 68.483629 489.838815 
L 66.184934 492.064715 
L 65.406019 492.99452 
L 65.338613 493.318545 
L 65.528164 493.331183 
L 65.528164 493.331183 
" style="fill:none;stroke:#e41a1c;stroke-width:1.142857;"/>
    <path clip-path="url(#p24e2330e48)" d="M 250.080554 310.671211 
L 250.028508 310.568431 
L 250.080554 310.530536 
L 250.16475 310.568431 
L 250.080554 310.671211 
" style="fill:none;stroke:#e41a1c;stroke-width:1.142857;"/>
    <path clip-path="url(#p24e2330e48)" d="M 250.408939 310.251245 
L 250.406242 310.244406 
L 250.408939 310.242385 
L 250.414732 310.244406 
L 250.408939 310.251245 
" style="fill:none;stroke:#e41a1c;stroke-width:1.142857;"/>
    <path clip-path="url(#p24e2330e48)" d="M 257.63341 303.44221 
L 257.628939 303.43988 
L 257.63341 303.433958 
L 257.636359 303.43988 
L 257.63341 303.44221 
" style="fill:none;stroke:#e41a1c;stroke-width:1.142857;"/>
    <path clip-path="url(#p24e2330e48)" d="M 257.961795 303.157129 
L 257.886022 303.115855 
L 257.961795 303.010685 
L 258.014611 303.115855 
L 257.961795 303.157129 
" style="fill:none;stroke:#e41a1c;stroke-width:1.142857;"/>
    <path clip-path="url(#p24e2330e48)" d="M 268.141731 291.500562 
L 268.20791 291.450954 
L 268.141731 291.390115 
L 268.094049 291.450954 
L 268.141731 291.500562 
" style="fill:none;stroke:#e41a1c;stroke-width:1.142857;"/>
    <path clip-path="url(#p24e2330e48)" d="M 268.470116 291.261149 
L 268.640923 291.126929 
L 268.798501 291.006128 
L 269.045341 290.802904 
L 269.126886 290.736735 
L 269.425947 290.478879 
L 269.455271 290.453703 
L 269.783656 290.156084 
L 269.784924 290.154854 
L 270.112042 289.838944 
L 270.1203 289.830829 
L 270.440427 289.514676 
L 270.448339 289.506804 
L 270.768812 289.183164 
L 270.769194 289.182779 
L 271.069079 288.858754 
L 271.097197 288.826864 
L 271.355324 288.534729 
L 271.425582 288.450498 
L 271.628106 288.210704 
L 271.753967 288.051187 
L 271.886754 287.886679 
L 271.753967 287.760315 
L 271.595216 287.886679 
L 271.425582 288.018386 
L 271.194215 288.210704 
L 271.097197 288.290168 
L 270.815386 288.534729 
L 270.768812 288.574962 
L 270.455523 288.858754 
L 270.440427 288.872506 
L 270.112239 289.182779 
L 270.112042 289.182969 
L 269.783817 289.506804 
L 269.783656 289.506967 
L 269.469106 289.830829 
L 269.455271 289.8456 
L 269.167452 290.154854 
L 269.126886 290.200518 
L 268.878655 290.478879 
L 268.798501 290.574023 
L 268.602955 290.802904 
L 268.470116 290.9692 
L 268.341034 291.126929 
L 268.470116 291.261149 
" style="fill:none;stroke:#e41a1c;stroke-width:1.142857;"/>
    <path clip-path="url(#p24e2330e48)" d="M 272.082352 287.624558 
L 272.130097 287.562654 
L 272.082352 287.517127 
L 272.022606 287.562654 
L 272.082352 287.624558 
" style="fill:none;stroke:#e41a1c;stroke-width:1.142857;"/>
   </g>
   <g id="LineCollection_2">
    <path clip-path="url(#p24e2330e48)" d="M 74.722945 487.687154 
L 75.05133 487.763845 
L 75.938127 487.486095 
L 81.619031 485.074597 
L 84.246111 483.680149 
L 90.639726 480.681569 
L 92.455737 479.950422 
L 95.411202 478.301756 
L 97.381512 477.23469 
L 101.650518 474.950729 
L 104.934368 472.817285 
L 106.576293 471.848432 
L 108.546604 470.829409 
L 110.845299 469.262 
L 113.151985 467.720568 
L 115.442689 466.320502 
L 122.754843 461.240068 
L 126.936166 458.320473 
L 129.563246 456.562011 
L 133.189352 453.787492 
L 144.340573 444.549656 
L 149.266348 440.329996 
L 155.177279 435.003084 
L 159.909201 430.45769 
L 168.119447 422.357065 
L 175.865536 414.673311 
L 178.821001 411.468806 
L 191.773551 396.759088 
L 207.729067 377.641611 
L 214.943355 367.975749 
L 217.245791 365.004635 
L 226.108447 352.984646 
L 228.246183 350.099484 
L 229.165744 348.479359 
L 230.049067 346.979404 
L 232.251111 343.943008 
L 238.742734 334.870308 
L 243.579331 327.741757 
L 247.479792 321.909307 
L 251.394094 315.372731 
L 253.529118 312.188556 
L 255.462632 308.948306 
L 259.932105 302.681665 
L 259.437043 302.79183 
L 258.618565 303.343669 
L 254.34956 307.082549 
L 249.423784 311.961867 
L 241.070071 320.613206 
L 238.012624 324.177482 
L 235.12986 329.037857 
L 232.783542 332.278107 
L 229.955814 335.842383 
L 226.957517 339.730683 
L 224.466521 342.976092 
L 222.496211 345.680896 
L 219.005233 350.423509 
L 215.600125 354.71316 
L 211.33112 360.018567 
L 204.705767 368.244885 
L 196.882178 377.442151 
L 179.054019 397.731163 
L 174.223611 402.733959 
L 167.276222 409.720089 
L 158.789514 417.894461 
L 151.500484 424.62524 
L 146.639268 428.866882 
L 130.548401 441.987404 
L 124.612715 446.658942 
L 121.681309 448.927117 
L 120.69685 449.453923 
L 119.711695 449.620829 
L 118.338996 450.547242 
L 115.597532 452.815417 
L 108.546604 458.557436 
L 104.605983 461.416195 
L 102.307288 463.049594 
L 99.680208 464.825581 
L 98.695052 465.304798 
L 97.583867 465.776418 
L 96.569969 466.424468 
L 95.283998 467.396543 
L 93.769277 468.665865 
L 83.747628 477.765344 
L 79.923468 481.005594 
L 76.036485 484.320642 
L 74.107451 486.189995 
L 73.409405 487.191955 
L 73.73779 487.341695 
L 74.39456 487.421525 
L 74.722945 487.687154 
L 74.722945 487.687154 
" style="fill:none;stroke:#e41a1c;stroke-width:1.142857;"/>
    <path clip-path="url(#p24e2330e48)" d="M 248.110244 311.220242 
L 248.828884 310.892456 
L 250.104222 309.920381 
L 251.722479 308.544305 
L 255.688285 304.73598 
L 259.608975 300.523655 
L 260.940973 298.90353 
L 261.310021 298.25548 
L 261.245646 298.194199 
L 259.932105 299.067257 
L 255.6631 302.833451 
L 251.394094 307.082885 
L 249.423784 309.274641 
L 248.397034 310.568431 
L 248.110244 311.220242 
L 248.110244 311.220242 
" style="fill:none;stroke:#e41a1c;stroke-width:1.142857;"/>
   </g>
   <g id="LineCollection_3">
    <path clip-path="url(#p24e2330e48)" d="M 81.619031 481.662338 
L 82.604186 481.236898 
L 84.978735 480.033519 
L 85.888036 479.611814 
L 87.529961 478.55763 
L 89.171886 477.521969 
L 89.828656 477.454825 
L 90.485427 477.35293 
L 91.624994 476.793269 
L 95.831941 474.525094 
L 97.381512 473.731418 
L 100.749935 471.932894 
L 102.964058 470.820087 
L 107.080877 468.692643 
L 108.874989 467.631165 
L 118.730067 461.240068 
L 130.548401 452.690132 
L 137.123148 447.631017 
L 140.399952 444.96677 
L 152.878583 434.249107 
L 159.342149 428.189515 
L 165.374141 422.357065 
L 170.93976 416.724156 
L 175.719469 411.664239 
L 185.717087 400.639584 
L 193.269943 392.124872 
L 196.94428 387.686387 
L 207.471014 374.401361 
L 210.052627 370.837086 
L 216.922211 362.08841 
L 220.197516 357.399786 
L 226.479666 348.479359 
L 227.851607 346.211184 
L 229.830397 343.618983 
L 231.74052 341.026783 
L 232.715888 339.406658 
L 233.748659 337.462508 
L 235.053587 335.518358 
L 239.243848 329.81925 
L 239.601185 329.037857 
L 239.976303 328.065782 
L 240.557388 326.705055 
L 240.229003 326.795718 
L 239.243848 327.629875 
L 237.601923 329.510641 
L 235.631613 332.28324 
L 231.263989 338.434583 
L 227.421987 343.380471 
L 223.809751 347.848781 
L 218.142326 354.959859 
L 214.481504 359.49621 
L 205.748574 370.332764 
L 203.121494 373.559651 
L 199.163151 377.965636 
L 194.911868 382.834906 
L 189.986093 388.62553 
L 186.666803 392.222737 
L 169.62611 410.044114 
L 157.147589 422.226764 
L 151.893428 426.973309 
L 137.749384 439.206366 
L 121.35362 451.845813 
L 112.487224 458.251292 
L 110.670734 459.295918 
L 109.531759 459.983532 
L 105.262753 462.959633 
L 100.665363 465.936834 
L 98.038282 467.838634 
L 96.067972 469.039792 
L 95.739587 469.177176 
L 95.481291 469.016668 
L 95.454652 468.368618 
L 95.283758 468.368618 
L 95.082817 468.404169 
L 94.092073 469.016668 
L 92.097155 470.636794 
L 89.500271 472.986648 
L 84.619547 477.765344 
L 81.749343 481.005594 
L 81.552076 481.329619 
L 81.619031 481.662338 
L 81.619031 481.662338 
" style="fill:none;stroke:#e41a1c;stroke-width:1.142857;"/>
    <path clip-path="url(#p24e2330e48)" d="M 244.826394 318.085902 
L 244.925501 318.021006 
L 244.826394 317.954867 
L 244.784635 318.021006 
L 244.826394 318.085902 
" style="fill:none;stroke:#e41a1c;stroke-width:1.142857;"/>
    <path clip-path="url(#p24e2330e48)" d="M 245.154779 317.890149 
L 245.413693 317.696981 
L 245.483164 317.651941 
L 245.811549 317.38792 
L 245.827318 317.372956 
L 246.139934 317.092844 
L 246.185031 317.048931 
L 246.468319 316.786922 
L 246.530572 316.724906 
L 246.796704 316.469392 
L 246.863091 316.400881 
L 247.125089 316.144085 
L 247.19047 316.076856 
L 247.453474 315.81604 
L 247.515085 315.752831 
L 247.781859 315.487018 
L 247.837717 315.428806 
L 248.110244 315.151453 
L 248.154157 315.104781 
L 248.438629 314.808896 
L 248.464852 314.780756 
L 248.767014 314.457755 
L 248.767947 314.456731 
L 249.065417 314.132706 
L 249.095399 314.102065 
L 249.368689 313.808681 
L 249.423784 313.751328 
L 249.6686 313.484656 
L 249.752169 313.397526 
L 249.9744 313.160631 
L 250.080554 313.050126 
L 250.277029 312.836606 
L 250.408939 312.695815 
L 250.576435 312.512581 
L 250.737324 312.339095 
L 250.874504 312.188556 
L 251.065709 311.980125 
L 251.170478 311.864531 
L 251.394094 311.61717 
L 251.462777 311.540506 
L 251.722479 311.251663 
L 251.753481 311.216481 
L 252.024606 310.892456 
L 252.050865 310.861463 
L 252.305646 310.568431 
L 252.37925 310.482853 
L 252.578456 310.244406 
L 252.707635 310.091458 
L 252.849246 309.920381 
L 253.03602 309.695592 
L 253.117678 309.596356 
L 253.364405 309.294031 
L 253.382086 309.272331 
L 253.364405 309.167326 
L 253.03602 309.254608 
L 253.016666 309.272331 
L 252.707635 309.547077 
L 252.65531 309.596356 
L 252.37925 309.84686 
L 252.302454 309.920381 
L 252.050865 310.15307 
L 251.956889 310.244406 
L 251.722479 310.456141 
L 251.606411 310.568431 
L 251.394094 310.774255 
L 251.274571 310.892456 
L 251.065709 311.093245 
L 250.942479 311.216481 
L 250.737324 311.416513 
L 250.614564 311.540506 
L 250.408939 311.743501 
L 250.290146 311.864531 
L 250.080554 312.073985 
L 249.969189 312.188556 
L 249.752169 312.408709 
L 249.651677 312.512581 
L 249.423784 312.744935 
L 249.335621 312.836606 
L 249.095399 313.083793 
L 249.022372 313.160631 
L 248.767014 313.428352 
L 248.713331 313.484656 
L 248.438629 313.768971 
L 248.400762 313.808681 
L 248.110244 314.1138 
L 248.092336 314.132706 
L 247.78725 314.456731 
L 247.781859 314.462451 
L 247.498317 314.780756 
L 247.453474 314.829208 
L 247.209007 315.104781 
L 247.125089 315.196028 
L 246.90312 315.428806 
L 246.796704 315.540862 
L 246.608297 315.752831 
L 246.468319 315.907451 
L 246.318015 316.076856 
L 246.139934 316.275304 
L 246.028703 316.400881 
L 245.811549 316.644525 
L 245.740449 316.724906 
L 245.483164 317.016912 
L 245.4549 317.048931 
L 245.204696 317.372956 
L 245.154779 317.447331 
L 245.001454 317.696981 
L 245.154779 317.890149 
" style="fill:none;stroke:#e41a1c;stroke-width:1.142857;"/>
    <path clip-path="url(#p24e2330e48)" d="M 252.050865 307.431638 
L 252.194334 307.32818 
L 252.37925 307.200676 
L 252.63955 307.004155 
L 252.707635 306.954503 
L 253.03602 306.687952 
L 253.04439 306.68013 
L 253.364405 306.39099 
L 253.401279 306.356105 
L 253.69279 306.08682 
L 253.749943 306.03208 
L 254.021175 305.775925 
L 254.091171 305.708055 
L 254.34956 305.458582 
L 254.42551 305.38403 
L 254.677945 305.134878 
L 254.753301 305.060005 
L 255.00633 304.804709 
L 255.074664 304.73598 
L 255.334715 304.467769 
L 255.389538 304.411955 
L 255.6631 304.123544 
L 255.697659 304.08793 
L 255.991485 303.771282 
L 255.998557 303.763905 
L 256.267958 303.43988 
L 256.31987 303.370667 
L 256.517584 303.115855 
L 256.648255 302.931701 
L 256.751971 302.79183 
L 256.648255 302.691244 
L 256.510109 302.79183 
L 256.31987 302.924268 
L 256.068109 303.115855 
L 255.991485 303.172177 
L 255.6631 303.436423 
L 255.659407 303.43988 
L 255.334715 303.733964 
L 255.303109 303.763905 
L 255.00633 304.038526 
L 254.954782 304.08793 
L 254.677945 304.349642 
L 254.613681 304.411955 
L 254.34956 304.667048 
L 254.279293 304.73598 
L 254.021175 304.990669 
L 253.951313 305.060005 
L 253.69279 305.320612 
L 253.629631 305.38403 
L 253.364405 305.657179 
L 253.314323 305.708055 
L 253.03602 306.000874 
L 253.005656 306.03208 
L 252.707635 306.352434 
L 252.704104 306.356105 
L 252.436214 306.68013 
L 252.37925 306.755545 
L 252.184863 307.004155 
L 252.050865 307.191427 
L 251.948544 307.32818 
L 252.050865 307.431638 
" style="fill:none;stroke:#e41a1c;stroke-width:1.142857;"/>
   </g>
   <g id="patch_3">
    <path d="M 35.289375 525.1 
L 35.289375 266.15 
" style="fill:none;stroke:#000000;stroke-linecap:square;stroke-linejoin:miter;stroke-width:0.8;"/>
   </g>
   <g id="patch_4">
    <path d="M 297.72375 525.1 
L 297.72375 266.15 
" style="fill:none;stroke:#000000;stroke-linecap:square;stroke-linejoin:miter;stroke-width:0.8;"/>
   </g>
   <g id="patch_5">
    <path d="M 35.289375 525.1 
L 297.72375 525.1 
" style="fill:none;stroke:#000000;stroke-linecap:square;stroke-linejoin:miter;stroke-width:0.8;"/>
   </g>
   <g id="patch_6">
    <path d="M 35.289375 266.15 
L 297.72375 266.15 
" style="fill:none;stroke:#000000;stroke-linecap:square;stroke-linejoin:miter;stroke-width:0.8;"/>
   </g>
  </g>
  <g id="axes_2">
   <g id="patch_7">
    <path d="M 35.289375 266.15 
L 297.72375 266.15 
L 297.72375 7.2 
L 35.289375 7.2 
z
" style="fill:#ffffff;"/>
   </g>
   <g id="matplotlib.axis_3">
    <g id="xtick_4">
     <g id="line2d_15">
      <g>
       <use style="stroke:#000000;stroke-width:0.8;" x="80.382959" xlink:href="#m0d4835bddb" y="266.15"/>
      </g>
     </g>
    </g>
    <g id="xtick_5">
     <g id="line2d_16">
      <g>
       <use style="stroke:#000000;stroke-width:0.8;" x="152.832754" xlink:href="#m0d4835bddb" y="266.15"/>
      </g>
     </g>
    </g>
    <g id="xtick_6">
     <g id="line2d_17">
      <g>
       <use style="stroke:#000000;stroke-width:0.8;" x="225.28255" xlink:href="#m0d4835bddb" y="266.15"/>
      </g>
     </g>
    </g>
   </g>
   <g id="matplotlib.axis_4">
    <g id="ytick_5"/>
    <g id="ytick_6"/>
    <g id="ytick_7"/>
    <g id="ytick_8"/>
    <g id="ytick_9"/>
   </g>
   <g id="line2d_18">
    <path clip-path="url(#pc539e91f81)" d="M 35.212415 266.148649 
L 47.833892 266.033604 
L 51.220142 265.813996 
L 52.759347 265.613522 
L 55.222074 265.186117 
L 57.069119 264.696592 
L 58.916165 263.977714 
L 60.455369 263.187612 
L 61.994574 262.171588 
L 63.533778 260.888713 
L 65.072983 259.264435 
L 66.304347 257.683385 
L 67.53571 255.853497 
L 69.074915 253.144379 
L 70.614119 249.894767 
L 72.153324 246.081156 
L 73.692528 241.641561 
L 75.231733 236.588271 
L 76.770938 230.897537 
L 78.617983 223.193701 
L 80.772869 213.088588 
L 82.927756 201.964409 
L 86.006165 184.657228 
L 90.931619 155.283333 
L 95.549233 128.575727 
L 98.01196 115.565394 
L 100.474687 103.73744 
L 102.629574 94.460567 
L 104.78446 86.130698 
L 106.631506 79.775664 
L 108.786392 73.137632 
L 110.941278 67.294743 
L 113.096165 62.249005 
L 114.94321 58.50909 
L 116.482415 55.614012 
L 118.021619 53.004069 
L 118.637301 52.125118 
L 120.484347 49.261396 
L 122.331392 46.740992 
L 122.947074 46.036906 
L 124.486278 44.158335 
L 125.717642 42.781239 
L 126.025483 42.646342 
L 127.256847 41.314591 
L 128.180369 40.510852 
L 129.719574 39.14241 
L 130.027415 39.879919 
L 131.87446 37.994116 
L 132.182301 37.704424 
L 132.490142 38.224116 
L 134.952869 35.965561 
L 137.415597 34.397219 
L 138.339119 33.865902 
L 138.64696 33.912121 
L 140.494006 32.864354 
L 143.264574 31.79772 
L 144.495937 31.378309 
L 146.342983 30.987291 
L 146.650824 31.038345 
L 148.190028 30.762224 
L 150.037074 30.526706 
L 154.654687 30.818015 
L 157.117415 31.183616 
L 159.580142 31.840726 
L 161.735028 32.590696 
L 162.966392 33.088137 
L 163.889915 33.484287 
L 168.507528 35.943167 
L 170.046733 36.951539 
L 170.970256 37.650885 
L 173.740824 39.847751 
L 177.127074 42.928819 
L 181.129006 47.025161 
L 185.438778 52.136629 
L 191.287756 60.264954 
L 200.522983 74.799161 
L 207.603324 87.344426 
L 210.373892 92.743688 
L 212.220937 96.421029 
L 212.836619 97.582962 
L 213.760142 99.491539 
L 214.067983 98.630981 
L 215.299347 100.922572 
L 217.146392 104.463954 
L 223.30321 117.342255 
L 225.765937 122.919194 
L 229.152187 131.213548 
L 232.538437 140.254695 
L 235.309006 148.609914 
L 237.463892 155.628339 
L 240.542301 166.509948 
L 243.62071 178.24514 
L 247.930483 195.578293 
L 253.163778 216.452158 
L 256.242187 227.686685 
L 258.704915 235.723025 
L 260.55196 241.0986 
L 262.399006 245.854761 
L 264.246051 249.993021 
L 265.785256 252.969535 
L 267.32446 255.51852 
L 268.863665 257.693288 
L 270.402869 259.51095 
L 271.942074 261.010687 
L 273.481278 262.223911 
L 275.020483 263.198363 
L 276.867528 264.095192 
L 279.022415 264.845633 
L 281.177301 265.350318 
L 283.947869 265.746216 
L 287.949801 266.014194 
L 293.798778 266.128453 
L 297.80071 266.148702 
L 297.80071 266.148702 
" style="fill:none;stroke:#e41a1c;stroke-linecap:square;stroke-width:1.142857;"/>
   </g>
   <g id="patch_8">
    <path d="M 35.289375 266.15 
L 35.289375 7.2 
" style="fill:none;stroke:#000000;stroke-linecap:square;stroke-linejoin:miter;stroke-width:0.8;"/>
   </g>
   <g id="patch_9">
    <path d="M 297.72375 266.15 
L 297.72375 7.2 
" style="fill:none;stroke:#000000;stroke-linecap:square;stroke-linejoin:miter;stroke-width:0.8;"/>
   </g>
   <g id="patch_10">
    <path d="M 35.289375 266.15 
L 297.72375 266.15 
" style="fill:none;stroke:#000000;stroke-linecap:square;stroke-linejoin:miter;stroke-width:0.8;"/>
   </g>
   <g id="patch_11">
    <path d="M 35.289375 7.2 
L 297.72375 7.2 
" style="fill:none;stroke:#000000;stroke-linecap:square;stroke-linejoin:miter;stroke-width:0.8;"/>
   </g>
  </g>
  <g id="axes_3">
   <g id="patch_12">
    <path d="M 297.72375 525.1 
L 560.158125 525.1 
L 560.158125 266.15 
L 297.72375 266.15 
z
" style="fill:#ffffff;"/>
   </g>
   <g id="matplotlib.axis_5">
    <g id="xtick_7">
     <g id="line2d_19">
      <g>
       <use style="stroke:#000000;stroke-width:0.8;" x="327.383784" xlink:href="#m0d4835bddb" y="525.1"/>
      </g>
     </g>
     <g id="text_10">
      <!-- $\mathdefault{0}$ -->
      <g transform="translate(323.863784 536.958281)scale(0.11 -0.11)">
       <use transform="translate(0 0.78125)" xlink:href="#DejaVuSans-48"/>
      </g>
     </g>
    </g>
    <g id="xtick_8">
     <g id="line2d_20">
      <g>
       <use style="stroke:#000000;stroke-width:0.8;" x="393.936671" xlink:href="#m0d4835bddb" y="525.1"/>
      </g>
     </g>
     <g id="text_11">
      <!-- $\mathdefault{1}$ -->
      <g transform="translate(390.416671 536.958281)scale(0.11 -0.11)">
       <use transform="translate(0 0.09375)" xlink:href="#DejaVuSans-49"/>
      </g>
     </g>
    </g>
    <g id="xtick_9">
     <g id="line2d_21">
      <g>
       <use style="stroke:#000000;stroke-width:0.8;" x="460.489558" xlink:href="#m0d4835bddb" y="525.1"/>
      </g>
     </g>
     <g id="text_12">
      <!-- $\mathdefault{2}$ -->
      <g transform="translate(456.969558 536.958281)scale(0.11 -0.11)">
       <use transform="translate(0 0.78125)" xlink:href="#DejaVuSans-50"/>
      </g>
     </g>
    </g>
    <g id="xtick_10">
     <g id="line2d_22">
      <g>
       <use style="stroke:#000000;stroke-width:0.8;" x="527.042445" xlink:href="#m0d4835bddb" y="525.1"/>
      </g>
     </g>
     <g id="text_13">
      <!-- $\mathdefault{3}$ -->
      <g transform="translate(523.522445 536.958281)scale(0.11 -0.11)">
       <use transform="translate(0 0.78125)" xlink:href="#DejaVuSans-51"/>
      </g>
     </g>
    </g>
    <g id="text_14">
     <!-- Kunz -->
     <g transform="translate(412.154062 557.245937)scale(0.14 -0.14)">
      <use xlink:href="#DejaVuSans-75"/>
      <use x="60.576172" xlink:href="#DejaVuSans-117"/>
      <use x="123.955078" xlink:href="#DejaVuSans-110"/>
      <use x="187.333984" xlink:href="#DejaVuSans-122"/>
     </g>
    </g>
   </g>
   <g id="matplotlib.axis_6">
    <g id="ytick_10"/>
    <g id="ytick_11"/>
    <g id="ytick_12"/>
    <g id="ytick_13"/>
    <g id="ytick_14"/>
   </g>
   <g id="line2d_23">
    <path clip-path="url(#pc7070fb13d)" d="M 297.64679 525.099345 
L 309.344744 524.98831 
L 312.115313 524.778465 
L 314.885881 524.395819 
L 316.732926 523.962804 
L 318.887812 523.167882 
L 320.734858 522.174667 
L 322.274063 521.045102 
L 323.505426 519.878392 
L 324.73679 518.470185 
L 325.968153 516.756206 
L 327.199517 514.707855 
L 328.738722 511.592426 
L 329.970085 508.599212 
L 331.50929 504.183873 
L 333.048494 498.977573 
L 334.587699 492.894691 
L 336.126903 485.889133 
L 337.666108 477.925748 
L 339.513153 467.201993 
L 341.66804 453.177528 
L 344.130767 435.462274 
L 347.517017 409.051992 
L 353.673835 360.844308 
L 356.136562 343.605624 
L 358.291449 330.236266 
L 360.138494 320.215246 
L 361.98554 311.683981 
L 363.524744 305.677215 
L 364.756108 301.627576 
L 365.987472 298.214899 
L 367.218835 295.410846 
L 368.450199 293.226206 
L 369.681562 291.54922 
L 370.605085 290.654113 
L 371.528608 290.011212 
L 372.452131 289.636123 
L 373.375653 289.476706 
L 374.299176 289.585961 
L 374.914858 289.816159 
L 376.454062 290.578094 
L 377.685426 291.632055 
L 378.608949 292.593517 
L 379.840312 293.959103 
L 381.379517 295.852243 
L 383.226562 298.750077 
L 384.150085 300.21987 
L 385.381449 302.428076 
L 386.304972 304.022335 
L 387.536335 306.202874 
L 389.383381 309.475492 
L 389.691222 310.733872 
L 391.538267 313.890329 
L 391.846108 315.046572 
L 394.616676 319.801197 
L 401.389176 331.507343 
L 410.316562 346.325387 
L 415.242017 354.298614 
L 420.167472 362.253984 
L 427.863494 374.374427 
L 446.949631 403.035344 
L 451.875085 410.178012 
L 455.569176 415.517457 
L 458.647585 419.792839 
L 462.033835 424.412812 
L 468.190653 432.185346 
L 469.422017 433.645365 
L 470.653381 435.180238 
L 471.269063 435.859759 
L 476.502358 441.938379 
L 477.11804 442.581072 
L 478.349403 443.920494 
L 480.50429 446.224211 
L 480.812131 445.409085 
L 484.814062 449.299046 
L 492.817926 457.058132 
L 495.896335 460.359107 
L 499.898267 465.048228 
L 502.360994 468.371149 
L 504.515881 471.554532 
L 507.59429 476.576673 
L 510.672699 482.059882 
L 516.213835 492.744199 
L 520.523608 501.034784 
L 523.294176 505.998225 
L 525.756903 509.979336 
L 528.219631 513.475448 
L 530.374517 516.101004 
L 532.221563 518.001313 
L 534.068608 519.598731 
L 535.915653 520.93165 
L 537.762699 522.000574 
L 539.917585 522.974655 
L 542.072472 523.665323 
L 544.84304 524.285111 
L 547.613608 524.649864 
L 550.692017 524.88849 
L 556.540994 525.056692 
L 560.235085 525.08672 
L 560.235085 525.08672 
" style="fill:none;stroke:#e41a1c;stroke-linecap:square;stroke-width:1.142857;"/>
   </g>
   <g id="patch_13">
    <path d="M 297.72375 525.1 
L 297.72375 266.15 
" style="fill:none;stroke:#000000;stroke-linecap:square;stroke-linejoin:miter;stroke-width:0.8;"/>
   </g>
   <g id="patch_14">
    <path d="M 560.158125 525.1 
L 560.158125 266.15 
" style="fill:none;stroke:#000000;stroke-linecap:square;stroke-linejoin:miter;stroke-width:0.8;"/>
   </g>
   <g id="patch_15">
    <path d="M 297.72375 525.1 
L 560.158125 525.1 
" style="fill:none;stroke:#000000;stroke-linecap:square;stroke-linejoin:miter;stroke-width:0.8;"/>
   </g>
   <g id="patch_16">
    <path d="M 297.72375 266.15 
L 560.158125 266.15 
" style="fill:none;stroke:#000000;stroke-linecap:square;stroke-linejoin:miter;stroke-width:0.8;"/>
   </g>
  </g>
 </g>
 <defs>
  <clipPath id="p24e2330e48">
   <rect height="258.95" width="262.434375" x="35.289375" y="266.15"/>
  </clipPath>
  <clipPath id="pc539e91f81">
   <rect height="258.95" width="262.434375" x="35.289375" y="7.2"/>
  </clipPath>
  <clipPath id="pc7070fb13d">
   <rect height="258.95" width="262.434375" x="297.72375" y="266.15"/>
  </clipPath>
 </defs>
</svg>
