<?xml version="1.0" encoding="utf-8" standalone="no"?>
<!DOCTYPE svg PUBLIC "-//W3C//DTD SVG 1.1//EN"
  "http://www.w3.org/Graphics/SVG/1.1/DTD/svg11.dtd">
<!-- Created with matplotlib (https://matplotlib.org/) -->
<svg height="319.536641pt" version="1.1" viewBox="0 0 432.158125 319.536641" width="432.158125pt" xmlns="http://www.w3.org/2000/svg" xmlns:xlink="http://www.w3.org/1999/xlink">
 <metadata>
  <rdf:RDF xmlns:cc="http://creativecommons.org/ns#" xmlns:dc="http://purl.org/dc/elements/1.1/" xmlns:rdf="http://www.w3.org/1999/02/22-rdf-syntax-ns#">
   <cc:Work>
    <dc:type rdf:resource="http://purl.org/dc/dcmitype/StillImage"/>
    <dc:date>2021-02-04T14:03:44.113540</dc:date>
    <dc:format>image/svg+xml</dc:format>
    <dc:creator>
     <cc:Agent>
      <dc:title>Matplotlib v3.3.2, https://matplotlib.org/</dc:title>
     </cc:Agent>
    </dc:creator>
   </cc:Work>
  </rdf:RDF>
 </metadata>
 <defs>
  <style type="text/css">*{stroke-linecap:butt;stroke-linejoin:round;}</style>
 </defs>
 <g id="figure_1">
  <g id="patch_1">
   <path d="M 0 319.536641 
L 432.158125 319.536641 
L 432.158125 0 
L 0 0 
z
" style="fill:#ffffff;"/>
  </g>
  <g id="axes_1">
   <g id="patch_2">
    <path d="M 38.789375 273.779141 
L 416.158125 273.779141 
L 416.158125 11.379141 
L 38.789375 11.379141 
z
" style="fill:#ffffff;"/>
   </g>
   <g id="matplotlib.axis_1">
    <g id="xtick_1">
     <g id="line2d_1">
      <defs>
       <path d="M 0 0 
L 0 3.5 
" id="m778a8258e3" style="stroke:#000000;stroke-width:0.8;"/>
      </defs>
      <g>
       <use style="stroke:#000000;stroke-width:0.8;" x="38.789375" xlink:href="#m778a8258e3" y="273.779141"/>
      </g>
     </g>
     <g id="text_1">
      <!-- $\mathdefault{−0.5}$ -->
      <g transform="translate(25.424375 289.137422)scale(0.11 -0.11)">
       <defs>
        <path d="M 10.59375 35.5 
L 73.1875 35.5 
L 73.1875 27.203125 
L 10.59375 27.203125 
z
" id="DejaVuSans-8722"/>
        <path d="M 31.78125 66.40625 
Q 24.171875 66.40625 20.328125 58.90625 
Q 16.5 51.421875 16.5 36.375 
Q 16.5 21.390625 20.328125 13.890625 
Q 24.171875 6.390625 31.78125 6.390625 
Q 39.453125 6.390625 43.28125 13.890625 
Q 47.125 21.390625 47.125 36.375 
Q 47.125 51.421875 43.28125 58.90625 
Q 39.453125 66.40625 31.78125 66.40625 
z
M 31.78125 74.21875 
Q 44.046875 74.21875 50.515625 64.515625 
Q 56.984375 54.828125 56.984375 36.375 
Q 56.984375 17.96875 50.515625 8.265625 
Q 44.046875 -1.421875 31.78125 -1.421875 
Q 19.53125 -1.421875 13.0625 8.265625 
Q 6.59375 17.96875 6.59375 36.375 
Q 6.59375 54.828125 13.0625 64.515625 
Q 19.53125 74.21875 31.78125 74.21875 
z
" id="DejaVuSans-48"/>
        <path d="M 10.6875 12.40625 
L 21 12.40625 
L 21 0 
L 10.6875 0 
z
" id="DejaVuSans-46"/>
        <path d="M 10.796875 72.90625 
L 49.515625 72.90625 
L 49.515625 64.59375 
L 19.828125 64.59375 
L 19.828125 46.734375 
Q 21.96875 47.46875 24.109375 47.828125 
Q 26.265625 48.1875 28.421875 48.1875 
Q 40.625 48.1875 47.75 41.5 
Q 54.890625 34.8125 54.890625 23.390625 
Q 54.890625 11.625 47.5625 5.09375 
Q 40.234375 -1.421875 26.90625 -1.421875 
Q 22.3125 -1.421875 17.546875 -0.640625 
Q 12.796875 0.140625 7.71875 1.703125 
L 7.71875 11.625 
Q 12.109375 9.234375 16.796875 8.0625 
Q 21.484375 6.890625 26.703125 6.890625 
Q 35.15625 6.890625 40.078125 11.328125 
Q 45.015625 15.765625 45.015625 23.390625 
Q 45.015625 31 40.078125 35.4375 
Q 35.15625 39.890625 26.703125 39.890625 
Q 22.75 39.890625 18.8125 39.015625 
Q 14.890625 38.140625 10.796875 36.28125 
z
" id="DejaVuSans-53"/>
       </defs>
       <use transform="translate(0 0.78125)" xlink:href="#DejaVuSans-8722"/>
       <use transform="translate(83.789062 0.78125)" xlink:href="#DejaVuSans-48"/>
       <use transform="translate(147.412109 0.78125)" xlink:href="#DejaVuSans-46"/>
       <use transform="translate(179.199219 0.78125)" xlink:href="#DejaVuSans-53"/>
      </g>
     </g>
    </g>
    <g id="xtick_2">
     <g id="line2d_2">
      <g>
       <use style="stroke:#000000;stroke-width:0.8;" x="114.263125" xlink:href="#m778a8258e3" y="273.779141"/>
      </g>
     </g>
     <g id="text_2">
      <!-- $\mathdefault{0.0}$ -->
      <g transform="translate(105.463125 289.137422)scale(0.11 -0.11)">
       <use transform="translate(0 0.78125)" xlink:href="#DejaVuSans-48"/>
       <use transform="translate(63.623047 0.78125)" xlink:href="#DejaVuSans-46"/>
       <use transform="translate(95.410156 0.78125)" xlink:href="#DejaVuSans-48"/>
      </g>
     </g>
    </g>
    <g id="xtick_3">
     <g id="line2d_3">
      <g>
       <use style="stroke:#000000;stroke-width:0.8;" x="189.736875" xlink:href="#m778a8258e3" y="273.779141"/>
      </g>
     </g>
     <g id="text_3">
      <!-- $\mathdefault{0.5}$ -->
      <g transform="translate(180.936875 289.137422)scale(0.11 -0.11)">
       <use transform="translate(0 0.78125)" xlink:href="#DejaVuSans-48"/>
       <use transform="translate(63.623047 0.78125)" xlink:href="#DejaVuSans-46"/>
       <use transform="translate(95.410156 0.78125)" xlink:href="#DejaVuSans-53"/>
      </g>
     </g>
    </g>
    <g id="xtick_4">
     <g id="line2d_4">
      <g>
       <use style="stroke:#000000;stroke-width:0.8;" x="265.210625" xlink:href="#m778a8258e3" y="273.779141"/>
      </g>
     </g>
     <g id="text_4">
      <!-- $\mathdefault{1.0}$ -->
      <g transform="translate(256.410625 289.137422)scale(0.11 -0.11)">
       <defs>
        <path d="M 12.40625 8.296875 
L 28.515625 8.296875 
L 28.515625 63.921875 
L 10.984375 60.40625 
L 10.984375 69.390625 
L 28.421875 72.90625 
L 38.28125 72.90625 
L 38.28125 8.296875 
L 54.390625 8.296875 
L 54.390625 0 
L 12.40625 0 
z
" id="DejaVuSans-49"/>
       </defs>
       <use transform="translate(0 0.78125)" xlink:href="#DejaVuSans-49"/>
       <use transform="translate(63.623047 0.78125)" xlink:href="#DejaVuSans-46"/>
       <use transform="translate(95.410156 0.78125)" xlink:href="#DejaVuSans-48"/>
      </g>
     </g>
    </g>
    <g id="xtick_5">
     <g id="line2d_5">
      <g>
       <use style="stroke:#000000;stroke-width:0.8;" x="340.684375" xlink:href="#m778a8258e3" y="273.779141"/>
      </g>
     </g>
     <g id="text_5">
      <!-- $\mathdefault{1.5}$ -->
      <g transform="translate(331.884375 289.137422)scale(0.11 -0.11)">
       <use transform="translate(0 0.09375)" xlink:href="#DejaVuSans-49"/>
       <use transform="translate(63.623047 0.09375)" xlink:href="#DejaVuSans-46"/>
       <use transform="translate(95.410156 0.09375)" xlink:href="#DejaVuSans-53"/>
      </g>
     </g>
    </g>
    <g id="xtick_6">
     <g id="line2d_6">
      <g>
       <use style="stroke:#000000;stroke-width:0.8;" x="416.158125" xlink:href="#m778a8258e3" y="273.779141"/>
      </g>
     </g>
     <g id="text_6">
      <!-- $\mathdefault{2.0}$ -->
      <g transform="translate(407.358125 289.137422)scale(0.11 -0.11)">
       <defs>
        <path d="M 19.1875 8.296875 
L 53.609375 8.296875 
L 53.609375 0 
L 7.328125 0 
L 7.328125 8.296875 
Q 12.9375 14.109375 22.625 23.890625 
Q 32.328125 33.6875 34.8125 36.53125 
Q 39.546875 41.84375 41.421875 45.53125 
Q 43.3125 49.21875 43.3125 52.78125 
Q 43.3125 58.59375 39.234375 62.25 
Q 35.15625 65.921875 28.609375 65.921875 
Q 23.96875 65.921875 18.8125 64.3125 
Q 13.671875 62.703125 7.8125 59.421875 
L 7.8125 69.390625 
Q 13.765625 71.78125 18.9375 73 
Q 24.125 74.21875 28.421875 74.21875 
Q 39.75 74.21875 46.484375 68.546875 
Q 53.21875 62.890625 53.21875 53.421875 
Q 53.21875 48.921875 51.53125 44.890625 
Q 49.859375 40.875 45.40625 35.40625 
Q 44.1875 33.984375 37.640625 27.21875 
Q 31.109375 20.453125 19.1875 8.296875 
z
" id="DejaVuSans-50"/>
       </defs>
       <use transform="translate(0 0.78125)" xlink:href="#DejaVuSans-50"/>
       <use transform="translate(63.623047 0.78125)" xlink:href="#DejaVuSans-46"/>
       <use transform="translate(95.410156 0.78125)" xlink:href="#DejaVuSans-48"/>
      </g>
     </g>
    </g>
    <g id="text_7">
     <!-- Hinz -->
     <g transform="translate(212.154687 309.425078)scale(0.14 -0.14)">
      <defs>
       <path d="M 9.8125 72.90625 
L 19.671875 72.90625 
L 19.671875 43.015625 
L 55.515625 43.015625 
L 55.515625 72.90625 
L 65.375 72.90625 
L 65.375 0 
L 55.515625 0 
L 55.515625 34.71875 
L 19.671875 34.71875 
L 19.671875 0 
L 9.8125 0 
z
" id="DejaVuSans-72"/>
       <path d="M 9.421875 54.6875 
L 18.40625 54.6875 
L 18.40625 0 
L 9.421875 0 
z
M 9.421875 75.984375 
L 18.40625 75.984375 
L 18.40625 64.59375 
L 9.421875 64.59375 
z
" id="DejaVuSans-105"/>
       <path d="M 54.890625 33.015625 
L 54.890625 0 
L 45.90625 0 
L 45.90625 32.71875 
Q 45.90625 40.484375 42.875 44.328125 
Q 39.84375 48.1875 33.796875 48.1875 
Q 26.515625 48.1875 22.3125 43.546875 
Q 18.109375 38.921875 18.109375 30.90625 
L 18.109375 0 
L 9.078125 0 
L 9.078125 54.6875 
L 18.109375 54.6875 
L 18.109375 46.1875 
Q 21.34375 51.125 25.703125 53.5625 
Q 30.078125 56 35.796875 56 
Q 45.21875 56 50.046875 50.171875 
Q 54.890625 44.34375 54.890625 33.015625 
z
" id="DejaVuSans-110"/>
       <path d="M 5.515625 54.6875 
L 48.1875 54.6875 
L 48.1875 46.484375 
L 14.40625 7.171875 
L 48.1875 7.171875 
L 48.1875 0 
L 4.296875 0 
L 4.296875 8.203125 
L 38.09375 47.515625 
L 5.515625 47.515625 
z
" id="DejaVuSans-122"/>
      </defs>
      <use xlink:href="#DejaVuSans-72"/>
      <use x="75.195312" xlink:href="#DejaVuSans-105"/>
      <use x="102.978516" xlink:href="#DejaVuSans-110"/>
      <use x="166.357422" xlink:href="#DejaVuSans-122"/>
     </g>
    </g>
   </g>
   <g id="matplotlib.axis_2">
    <g id="ytick_1">
     <g id="line2d_7">
      <defs>
       <path d="M 0 0 
L -3.5 0 
" id="m30059ee818" style="stroke:#000000;stroke-width:0.8;"/>
      </defs>
      <g>
       <use style="stroke:#000000;stroke-width:0.8;" x="38.789375" xlink:href="#m30059ee818" y="244.623585"/>
      </g>
     </g>
     <g id="text_8">
      <!-- $\mathdefault{0}$ -->
      <g transform="translate(24.749375 248.802726)scale(0.11 -0.11)">
       <use transform="translate(0 0.78125)" xlink:href="#DejaVuSans-48"/>
      </g>
     </g>
    </g>
    <g id="ytick_2">
     <g id="line2d_8">
      <g>
       <use style="stroke:#000000;stroke-width:0.8;" x="38.789375" xlink:href="#m30059ee818" y="186.312474"/>
      </g>
     </g>
     <g id="text_9">
      <!-- $\mathdefault{1}$ -->
      <g transform="translate(24.749375 190.491615)scale(0.11 -0.11)">
       <use transform="translate(0 0.09375)" xlink:href="#DejaVuSans-49"/>
      </g>
     </g>
    </g>
    <g id="ytick_3">
     <g id="line2d_9">
      <g>
       <use style="stroke:#000000;stroke-width:0.8;" x="38.789375" xlink:href="#m30059ee818" y="128.001363"/>
      </g>
     </g>
     <g id="text_10">
      <!-- $\mathdefault{2}$ -->
      <g transform="translate(24.749375 132.180503)scale(0.11 -0.11)">
       <use transform="translate(0 0.78125)" xlink:href="#DejaVuSans-50"/>
      </g>
     </g>
    </g>
    <g id="ytick_4">
     <g id="line2d_10">
      <g>
       <use style="stroke:#000000;stroke-width:0.8;" x="38.789375" xlink:href="#m30059ee818" y="69.690252"/>
      </g>
     </g>
     <g id="text_11">
      <!-- $\mathdefault{3}$ -->
      <g transform="translate(24.749375 73.869392)scale(0.11 -0.11)">
       <defs>
        <path d="M 40.578125 39.3125 
Q 47.65625 37.796875 51.625 33 
Q 55.609375 28.21875 55.609375 21.1875 
Q 55.609375 10.40625 48.1875 4.484375 
Q 40.765625 -1.421875 27.09375 -1.421875 
Q 22.515625 -1.421875 17.65625 -0.515625 
Q 12.796875 0.390625 7.625 2.203125 
L 7.625 11.71875 
Q 11.71875 9.328125 16.59375 8.109375 
Q 21.484375 6.890625 26.8125 6.890625 
Q 36.078125 6.890625 40.9375 10.546875 
Q 45.796875 14.203125 45.796875 21.1875 
Q 45.796875 27.640625 41.28125 31.265625 
Q 36.765625 34.90625 28.71875 34.90625 
L 20.21875 34.90625 
L 20.21875 43.015625 
L 29.109375 43.015625 
Q 36.375 43.015625 40.234375 45.921875 
Q 44.09375 48.828125 44.09375 54.296875 
Q 44.09375 59.90625 40.109375 62.90625 
Q 36.140625 65.921875 28.71875 65.921875 
Q 24.65625 65.921875 20.015625 65.03125 
Q 15.375 64.15625 9.8125 62.3125 
L 9.8125 71.09375 
Q 15.4375 72.65625 20.34375 73.4375 
Q 25.25 74.21875 29.59375 74.21875 
Q 40.828125 74.21875 47.359375 69.109375 
Q 53.90625 64.015625 53.90625 55.328125 
Q 53.90625 49.265625 50.4375 45.09375 
Q 46.96875 40.921875 40.578125 39.3125 
z
" id="DejaVuSans-51"/>
       </defs>
       <use transform="translate(0 0.78125)" xlink:href="#DejaVuSans-51"/>
      </g>
     </g>
    </g>
    <g id="ytick_5">
     <g id="line2d_11">
      <g>
       <use style="stroke:#000000;stroke-width:0.8;" x="38.789375" xlink:href="#m30059ee818" y="11.379141"/>
      </g>
     </g>
     <g id="text_12">
      <!-- $\mathdefault{4}$ -->
      <g transform="translate(24.749375 15.558281)scale(0.11 -0.11)">
       <defs>
        <path d="M 37.796875 64.3125 
L 12.890625 25.390625 
L 37.796875 25.390625 
z
M 35.203125 72.90625 
L 47.609375 72.90625 
L 47.609375 25.390625 
L 58.015625 25.390625 
L 58.015625 17.1875 
L 47.609375 17.1875 
L 47.609375 0 
L 37.796875 0 
L 37.796875 17.1875 
L 4.890625 17.1875 
L 4.890625 26.703125 
z
" id="DejaVuSans-52"/>
       </defs>
       <use transform="translate(0 0.09375)" xlink:href="#DejaVuSans-52"/>
      </g>
     </g>
    </g>
    <g id="text_13">
     <!-- Kunz -->
     <g transform="translate(17.837813 159.366016)rotate(-90)scale(0.14 -0.14)">
      <defs>
       <path d="M 9.8125 72.90625 
L 19.671875 72.90625 
L 19.671875 42.09375 
L 52.390625 72.90625 
L 65.09375 72.90625 
L 28.90625 38.921875 
L 67.671875 0 
L 54.6875 0 
L 19.671875 35.109375 
L 19.671875 0 
L 9.8125 0 
z
" id="DejaVuSans-75"/>
       <path d="M 8.5 21.578125 
L 8.5 54.6875 
L 17.484375 54.6875 
L 17.484375 21.921875 
Q 17.484375 14.15625 20.5 10.265625 
Q 23.53125 6.390625 29.59375 6.390625 
Q 36.859375 6.390625 41.078125 11.03125 
Q 45.3125 15.671875 45.3125 23.6875 
L 45.3125 54.6875 
L 54.296875 54.6875 
L 54.296875 0 
L 45.3125 0 
L 45.3125 8.40625 
Q 42.046875 3.421875 37.71875 1 
Q 33.40625 -1.421875 27.6875 -1.421875 
Q 18.265625 -1.421875 13.375 4.4375 
Q 8.5 10.296875 8.5 21.578125 
z
M 31.109375 56 
z
" id="DejaVuSans-117"/>
      </defs>
      <use xlink:href="#DejaVuSans-75"/>
      <use x="60.576172" xlink:href="#DejaVuSans-117"/>
      <use x="123.955078" xlink:href="#DejaVuSans-110"/>
      <use x="187.333984" xlink:href="#DejaVuSans-122"/>
     </g>
    </g>
   </g>
   <g id="LineCollection_1">
    <path clip-path="url(#pf73d5b1428)" d="M 190.660182 235.174629 
L 191.812966 234.791348 
L 194.694925 233.283766 
L 196.135905 232.394829 
L 201.611628 228.657964 
L 203.340803 228.149522 
L 203.50112 228.282539 
L 203.121746 229.008353 
L 202.790727 229.734166 
L 203.240652 229.734166 
L 203.917195 229.448284 
L 205.934567 228.2778 
L 209.104722 226.291044 
L 209.180295 226.347037 
L 208.707462 227.314788 
L 208.816526 227.412022 
L 209.392918 227.22925 
L 213.715857 225.346491 
L 216.309621 223.575159 
L 220.36412 220.782467 
L 223.514519 218.80422 
L 224.379107 218.791163 
L 225.867888 218.121151 
L 225.820087 218.678394 
L 226.396479 218.40234 
L 232.160398 214.582361 
L 236.195141 212.246104 
L 241.670864 209.185678 
L 250.713039 203.121006 
L 251.901992 202.395193 
L 252.078897 202.395193 
L 252.045918 202.459664 
L 251.469526 203.290248 
L 250.841263 204.088757 
L 250.893134 204.186548 
L 251.469526 203.874431 
L 255.324295 200.701628 
L 260.199026 196.346747 
L 264.438343 192.631155 
L 267.667011 190.056364 
L 277.983552 182.179331 
L 279.28392 181.104665 
L 289.416961 172.636841 
L 292.681545 169.925919 
L 295.275309 167.543678 
L 297.869072 164.782697 
L 300.462836 162.10651 
L 301.906219 160.53995 
L 301.903815 160.477912 
L 301.615619 160.439504 
L 301.039228 160.614506 
L 301.039228 160.45218 
L 301.582396 159.814137 
L 304.497579 157.127992 
L 312.361629 150.136624 
L 316.601808 146.107728 
L 317.478865 145.05593 
L 318.120505 143.846241 
L 319.195572 142.781084 
L 323.442997 138.523609 
L 325.247687 136.312138 
L 327.84145 133.517653 
L 328.129646 132.983126 
L 328.448619 132.233225 
L 329.858822 130.701214 
L 332.89545 127.636407 
L 335.910937 124.213822 
L 337.492964 122.555713 
L 337.996631 121.829899 
L 338.579269 120.862148 
L 339.657484 119.619043 
L 343.205377 115.781454 
L 345.223524 113.604013 
L 348.151448 110.458822 
L 348.015166 110.352481 
L 346.862382 110.836625 
L 346.778129 110.70076 
L 348.544137 108.039444 
L 350.897126 105.826923 
L 354.931869 102.179512 
L 356.277909 100.781309 
L 356.484407 100.539371 
L 356.372848 100.391166 
L 355.42574 101.023247 
L 353.490889 102.492222 
L 350.897126 104.417162 
L 350.320734 104.716027 
L 350.223936 104.652314 
L 350.51621 104.168438 
L 352.049909 102.672274 
L 358.39022 97.118346 
L 358.561377 96.910304 
L 358.39022 96.769009 
L 357.237436 97.543099 
L 353.490889 100.552929 
L 352.049909 101.813608 
L 351.845474 101.74906 
L 352.626301 100.953786 
L 353.490889 99.949605 
L 353.779085 99.475885 
L 353.779085 99.311136 
L 353.737458 99.329682 
L 352.914497 99.735979 
L 348.879754 102.76435 
L 344.700797 106.345879 
L 342.36073 108.765257 
L 342.251247 109.069836 
L 343.115835 108.689815 
L 345.997794 106.628186 
L 347.267506 105.620065 
L 350.466212 102.958749 
L 351.473517 102.082168 
L 351.59999 102.232936 
L 350.172156 103.684563 
L 346.16888 106.829754 
L 344.845011 107.868083 
L 330.938688 118.926645 
L 330.196434 119.652459 
L 330.435214 119.758846 
L 331.011606 119.58332 
L 331.071807 119.652459 
L 330.86987 120.136334 
L 330.435214 120.675054 
L 329.28243 121.913393 
L 324.324642 126.668656 
L 324.43851 126.910593 
L 323.842731 127.636407 
L 319.771964 131.155844 
L 313.431653 136.665852 
L 311.990673 138.117009 
L 311.876192 138.281671 
L 311.990673 138.502458 
L 313.243711 138.039733 
L 313.143457 138.173497 
L 312.855261 138.526355 
L 310.261498 140.713517 
L 306.350869 144.088178 
L 305.508982 145.05593 
L 305.073971 145.61131 
L 301.192823 149.652748 
L 301.327424 149.75604 
L 303.344795 148.327449 
L 305.073971 147.159129 
L 305.148534 147.23337 
L 304.497579 147.980389 
L 301.432829 150.6205 
L 295.275309 155.464274 
L 293.257937 156.780578 
L 292.62098 157.152821 
L 290.95237 158.454256 
L 287.114214 161.749639 
L 283.429006 165.136769 
L 278.788437 169.491649 
L 275.101593 172.764875 
L 272.362572 175.056219 
L 267.220344 179.169162 
L 265.302931 180.487815 
L 263.148514 181.830478 
L 261.556384 183.051628 
L 259.506868 184.733732 
L 254.02036 189.33055 
L 244.264627 196.858026 
L 244.008186 196.830623 
L 245.022875 195.620934 
L 245.609618 194.89512 
L 245.417411 194.814654 
L 241.804264 197.314498 
L 238.212512 200.059071 
L 234.754161 202.686906 
L 233.889573 203.162254 
L 233.313181 203.224998 
L 232.670007 203.604882 
L 230.425183 205.298446 
L 220.056168 213.205414 
L 218.038796 214.544394 
L 217.870521 214.492084 
L 218.326992 213.984021 
L 222.136566 210.379141 
L 224.686442 207.959762 
L 226.465459 206.508136 
L 231.035943 203.121006 
L 233.889573 200.695339 
L 235.91098 198.766125 
L 236.195141 198.240635 
L 235.042357 198.910898 
L 231.242068 201.911317 
L 225.734326 206.508136 
L 221.208952 209.537501 
L 215.733229 214.09604 
L 213.427661 216.235092 
L 206.985335 221.992156 
L 204.205391 224.24477 
L 200.170648 227.399655 
L 198.137428 228.766415 
L 196.135905 230.077573 
L 193.210251 232.395482 
L 191.10447 234.330985 
L 190.527248 235.056798 
L 190.660182 235.174629 
L 190.660182 235.174629 
" style="fill:none;stroke:#000000;stroke-width:1.714286;"/>
    <path clip-path="url(#pf73d5b1428)" d="M 217.7506 214.738282 
L 217.737138 214.734021 
L 217.7506 214.707121 
L 217.757518 214.734021 
L 217.7506 214.738282 
" style="fill:none;stroke:#000000;stroke-width:1.714286;"/>
    <path clip-path="url(#pf73d5b1428)" d="M 245.705607 194.71033 
L 245.737397 194.653182 
L 245.705607 194.640284 
L 245.685011 194.653182 
L 245.705607 194.71033 
" style="fill:none;stroke:#000000;stroke-width:1.714286;"/>
    <path clip-path="url(#pf73d5b1428)" d="M 280.28912 179.412761 
L 280.270039 179.4111 
L 280.284212 179.169162 
L 280.28912 179.164442 
L 280.550361 178.927224 
L 280.577316 178.901611 
L 280.82299 178.685286 
L 280.865512 178.644525 
L 281.083301 178.443349 
L 281.153708 178.373989 
L 281.348236 178.201411 
L 281.441904 178.113534 
L 281.626341 177.959473 
L 281.7301 177.863036 
L 281.889473 177.717535 
L 282.018295 177.599719 
L 282.165388 177.475597 
L 282.306491 177.349079 
L 282.457412 177.23366 
L 282.594687 177.101585 
L 282.732196 176.991722 
L 282.882883 176.86815 
L 283.035316 176.749784 
L 283.171079 176.626362 
L 283.325848 176.507846 
L 283.459275 176.356781 
L 283.577981 176.265908 
L 283.747471 176.149254 
L 283.873161 176.265908 
L 283.764502 176.507846 
L 283.747471 176.527739 
L 283.459275 176.733522 
L 283.443051 176.749784 
L 283.191656 176.991722 
L 283.171079 177.011009 
L 282.938882 177.23366 
L 282.882883 177.285144 
L 282.680676 177.475597 
L 282.594687 177.568434 
L 282.445666 177.717535 
L 282.306491 177.815311 
L 282.110892 177.959473 
L 282.018295 178.033113 
L 281.816101 178.201411 
L 281.7301 178.271769 
L 281.533277 178.443349 
L 281.441904 178.531837 
L 281.268478 178.685286 
L 281.153708 178.77265 
L 280.91751 178.927224 
L 280.865512 178.962632 
L 280.616335 179.169162 
L 280.577316 179.202873 
L 280.29139 179.4111 
L 280.28912 179.412761 
" style="fill:none;stroke:#000000;stroke-width:1.714286;"/>
    <path clip-path="url(#pf73d5b1428)" d="M 284.035667 176.084391 
L 283.953219 176.02397 
L 284.035667 175.964638 
L 284.084626 176.02397 
L 284.035667 176.084391 
" style="fill:none;stroke:#000000;stroke-width:1.714286;"/>
    <path clip-path="url(#pf73d5b1428)" d="M 301.039228 149.920846 
L 301.08375 149.894686 
L 301.039228 149.851887 
L 301.00823 149.894686 
L 301.039228 149.920846 
" style="fill:none;stroke:#000000;stroke-width:1.714286;"/>
    <path clip-path="url(#pf73d5b1428)" d="M 330.147018 119.902389 
L 330.164707 119.894397 
L 330.147018 119.824951 
L 330.122 119.894397 
L 330.147018 119.902389 
" style="fill:none;stroke:#000000;stroke-width:1.714286;"/>
    <path clip-path="url(#pf73d5b1428)" d="M 351.761713 102.086661 
L 351.594457 101.990998 
L 351.761713 101.806642 
L 351.854829 101.990998 
L 351.761713 102.086661 
" style="fill:none;stroke:#000000;stroke-width:1.714286;"/>
    <path clip-path="url(#pf73d5b1428)" d="M 356.661044 100.329024 
L 356.687018 100.297433 
L 356.661044 100.256775 
L 356.582295 100.297433 
L 356.661044 100.329024 
" style="fill:none;stroke:#000000;stroke-width:1.714286;"/>
    <path clip-path="url(#pf73d5b1428)" d="M 358.678416 96.743685 
L 358.737613 96.668366 
L 358.678416 96.622596 
L 358.591198 96.668366 
L 358.678416 96.743685 
" style="fill:none;stroke:#000000;stroke-width:1.714286;"/>
   </g>
   <g id="LineCollection_2">
    <path clip-path="url(#pf73d5b1428)" d="M 199.882452 228.781198 
L 201.899824 227.496433 
L 204.781783 225.598312 
L 206.222763 225.026431 
L 208.240134 223.638979 
L 209.96931 222.50647 
L 209.96931 222.74277 
L 208.680492 224.411534 
L 208.816526 224.615507 
L 209.96931 223.830513 
L 218.038796 217.350983 
L 218.615188 217.093481 
L 218.615188 217.217559 
L 217.462405 218.723511 
L 217.06986 219.33084 
L 217.174209 219.523773 
L 217.7506 219.262119 
L 219.19158 218.251288 
L 223.010243 215.217897 
L 224.090911 214.185909 
L 225.290936 213.040457 
L 227.549262 210.846401 
L 233.646968 205.298446 
L 235.075816 203.84682 
L 235.187392 203.604882 
L 235.037908 203.604882 
L 219.767972 214.121628 
L 210.833898 220.371847 
L 210.650141 220.298591 
L 211.122094 219.768678 
L 212.945569 218.121151 
L 217.512741 214.250146 
L 222.23622 209.653327 
L 222.422727 209.411389 
L 222.361736 209.223 
L 221.497148 209.712173 
L 218.903384 211.682078 
L 215.673927 214.492084 
L 209.104722 220.645358 
L 201.035236 227.390931 
L 199.844527 228.524477 
L 199.773933 228.766415 
L 199.882452 228.781198 
" style="fill:none;stroke:#000000;stroke-width:1.714286;"/>
    <path clip-path="url(#pf73d5b1428)" d="M 208.52833 224.668328 
L 208.593268 224.653472 
L 208.52833 224.642303 
L 208.521279 224.653472 
L 208.52833 224.668328 
" style="fill:none;stroke:#000000;stroke-width:1.714286;"/>
    <path clip-path="url(#pf73d5b1428)" d="M 210.545702 220.562371 
L 210.493134 220.540529 
L 210.545702 220.458828 
L 210.577917 220.540529 
L 210.545702 220.562371 
" style="fill:none;stroke:#000000;stroke-width:1.714286;"/>
    <path clip-path="url(#pf73d5b1428)" d="M 221.497148 218.493307 
L 222.818366 217.879213 
L 224.090911 217.086528 
L 228.702046 214.231543 
L 230.143026 213.41514 
L 233.601377 211.429211 
L 235.042357 210.674979 
L 241.174428 206.992011 
L 241.670864 206.857054 
L 241.670864 207.025147 
L 241.575863 207.233949 
L 241.670864 207.483012 
L 241.692866 207.475887 
L 242.535451 207.09406 
L 244.264627 205.932112 
L 246.879716 203.84682 
L 256.945249 195.363645 
L 257.809836 194.851318 
L 258.194195 194.89512 
L 259.250816 194.269755 
L 261.564847 192.71768 
L 264.726539 190.268744 
L 269.049478 186.640672 
L 274.962855 181.58854 
L 275.389789 181.360297 
L 275.781577 181.346602 
L 276.197345 181.104665 
L 276.542573 180.861333 
L 278.559944 179.153928 
L 284.035667 174.251193 
L 294.740444 164.894831 
L 296.157 163.443204 
L 296.428093 162.927481 
L 295.851701 163.12353 
L 293.834329 164.258821 
L 293.689817 164.169017 
L 294.122525 163.663177 
L 300.688064 157.878634 
L 308.143067 151.588251 
L 311.617721 148.443059 
L 313.2292 146.749494 
L 313.370227 146.507557 
L 313.450397 146.023681 
L 316.191396 143.120427 
L 323.07982 136.588106 
L 323.230315 136.254577 
L 322.865014 136.346168 
L 321.765551 137.071982 
L 318.887597 139.007484 
L 318.61918 139.074962 
L 318.392593 139.007484 
L 318.61918 138.600049 
L 319.139337 138.039733 
L 323.518511 134.280013 
L 328.994234 129.638366 
L 331.098757 127.636407 
L 331.649261 126.910593 
L 331.587997 126.838172 
L 331.011606 127.033929 
L 330.435214 127.309205 
L 330.284649 127.152531 
L 331.876193 125.119396 
L 331.720117 125.217029 
L 331.299801 125.373697 
L 331.299801 125.154956 
L 339.843923 117.716956 
L 341.077272 116.265329 
L 340.810268 116.059512 
L 340.522072 116.108205 
L 340.348203 116.023392 
L 340.573525 115.539516 
L 340.810268 114.986064 
L 340.522072 114.98103 
L 340.420046 114.813702 
L 341.386659 113.757958 
L 346.219232 109.007195 
L 345.901819 109.007195 
L 344.556815 109.773997 
L 344.264966 109.733008 
L 344.268619 109.728946 
L 345.056797 108.765257 
L 345.133207 108.484742 
L 344.268619 108.931549 
L 341.674855 110.821493 
L 337.928308 113.93017 
L 336.196334 115.539516 
L 335.854201 116.023392 
L 335.910937 116.540494 
L 333.469882 118.926645 
L 331.552527 120.862148 
L 331.587997 121.136879 
L 333.893565 119.767072 
L 335.622741 118.651548 
L 335.910937 118.559076 
L 335.910937 118.693347 
L 333.893565 120.537679 
L 322.190495 131.023536 
L 319.744859 133.442914 
L 319.345832 133.92679 
L 319.483768 134.120001 
L 320.521052 133.442914 
L 322.804362 131.74935 
L 326.633485 129.088034 
L 325.824079 129.828513 
L 319.771964 134.78431 
L 316.025417 137.690763 
L 313.996193 139.49136 
L 312.84216 140.701049 
L 312.567065 141.272215 
L 312.691544 141.426862 
L 312.567065 141.681202 
L 305.362167 148.56526 
L 303.632991 150.017374 
L 295.563505 156.978866 
L 284.964707 166.830333 
L 282.54532 169.249712 
L 280.865512 170.811216 
L 277.40716 173.763109 
L 275.626425 175.056219 
L 275.677985 174.753696 
L 276.612206 173.604592 
L 276.542573 173.436835 
L 275.850035 173.84653 
L 273.892288 175.298157 
L 270.202262 178.30503 
L 264.438343 183.346263 
L 262.257311 185.217608 
L 258.558437 188.120861 
L 255.503706 190.54024 
L 248.875762 196.21464 
L 248.011174 196.758504 
L 247.909098 196.588685 
L 248.678772 195.620934 
L 249.201487 194.89512 
L 249.537927 194.169307 
L 249.84093 193.685431 
L 249.667341 193.685431 
L 248.281062 194.653182 
L 240.51808 200.681419 
L 238.212512 202.066023 
L 235.295715 204.330695 
L 233.313181 206.305932 
L 232.876047 206.992011 
L 232.541916 207.475887 
L 228.990242 210.731193 
L 225.13954 214.008208 
L 224.667303 214.621582 
L 223.802715 215.526932 
L 221.234864 218.363089 
L 221.497148 218.493307 
L 221.497148 218.493307 
" style="fill:none;stroke:#000000;stroke-width:1.714286;"/>
    <path clip-path="url(#pf73d5b1428)" d="M 293.546133 164.42592 
L 293.526152 164.410955 
L 293.546133 164.379239 
L 293.569576 164.410955 
L 293.546133 164.42592 
" style="fill:none;stroke:#000000;stroke-width:1.714286;"/>
    <path clip-path="url(#pf73d5b1428)" d="M 319.195572 134.218532 
L 319.322595 134.168728 
L 319.195572 134.131396 
L 319.16859 134.168728 
L 319.195572 134.218532 
" style="fill:none;stroke:#000000;stroke-width:1.714286;"/>
    <path clip-path="url(#pf73d5b1428)" d="M 326.688666 128.968346 
L 326.682188 128.846096 
L 326.688666 128.841124 
L 326.962888 128.846096 
L 326.688666 128.968346 
" style="fill:none;stroke:#000000;stroke-width:1.714286;"/>
    <path clip-path="url(#pf73d5b1428)" d="M 330.435214 125.94689 
L 330.431188 125.942842 
L 330.435214 125.93949 
L 330.442785 125.942842 
L 330.435214 125.94689 
" style="fill:none;stroke:#000000;stroke-width:1.714286;"/>
    <path clip-path="url(#pf73d5b1428)" d="M 330.72341 125.767097 
L 330.67615 125.700904 
L 330.72341 125.664211 
L 330.818536 125.700904 
L 330.72341 125.767097 
" style="fill:none;stroke:#000000;stroke-width:1.714286;"/>
    <path clip-path="url(#pf73d5b1428)" d="M 331.011606 125.529071 
L 330.974444 125.458966 
L 331.011606 125.427016 
L 331.136618 125.458966 
L 331.011606 125.529071 
" style="fill:none;stroke:#000000;stroke-width:1.714286;"/>
    <path clip-path="url(#pf73d5b1428)" d="M 332.164389 124.977323 
L 332.16646 124.975091 
L 332.164389 124.970817 
L 332.156816 124.975091 
L 332.164389 124.977323 
" style="fill:none;stroke:#000000;stroke-width:1.714286;"/>
    <path clip-path="url(#pf73d5b1428)" d="M 340.233876 115.072295 
L 340.223017 115.05564 
L 340.233876 115.042728 
L 340.287904 115.05564 
L 340.233876 115.072295 
" style="fill:none;stroke:#000000;stroke-width:1.714286;"/>
    <path clip-path="url(#pf73d5b1428)" d="M 344.845011 106.850629 
L 344.884527 106.829754 
L 344.845011 106.803607 
L 344.823446 106.829754 
L 344.845011 106.850629 
" style="fill:none;stroke:#000000;stroke-width:1.714286;"/>
    <path clip-path="url(#pf73d5b1428)" d="M 345.133207 106.709386 
L 345.348343 106.587817 
L 345.421403 106.549958 
L 345.709599 106.365047 
L 345.734375 106.345879 
L 345.997794 106.157878 
L 346.066804 106.103941 
L 346.28599 105.944141 
L 346.390055 105.862003 
L 346.574186 105.724945 
L 346.705808 105.620065 
L 346.862382 105.501124 
L 347.015316 105.378128 
L 347.150578 105.27264 
L 347.317031 105.13619 
L 347.438774 105.04001 
L 347.617003 104.894252 
L 347.72697 104.805648 
L 347.912769 104.652314 
L 348.015166 104.568174 
L 348.20465 104.410376 
L 348.303362 104.327654 
L 348.49282 104.168438 
L 348.591558 104.084045 
L 348.777321 103.926501 
L 348.879754 103.837033 
L 349.057245 103.684563 
L 349.16795 103.586122 
L 349.33412 103.442625 
L 349.456146 103.331812 
L 349.606274 103.200687 
L 349.744342 103.072775 
L 349.873838 102.958749 
L 350.032538 102.808554 
L 350.13564 102.716812 
L 350.320734 102.537748 
L 350.390619 102.474874 
L 350.60893 102.258813 
L 350.637359 102.232936 
L 350.860085 101.990998 
L 350.897126 101.939852 
L 351.048143 101.74906 
L 350.897126 101.642701 
L 350.720692 101.74906 
L 350.60893 101.811584 
L 350.320866 101.990998 
L 350.320734 101.991075 
L 350.032538 102.199829 
L 349.990429 102.232936 
L 349.744342 102.414531 
L 349.668261 102.474874 
L 349.456146 102.63431 
L 349.353032 102.716812 
L 349.16795 102.858517 
L 349.043765 102.958749 
L 348.879754 103.086658 
L 348.739706 103.200687 
L 348.591558 103.318372 
L 348.44028 103.442625 
L 348.303362 103.553415 
L 348.145079 103.684563 
L 348.015166 103.79163 
L 347.853805 103.926501 
L 347.72697 104.032987 
L 347.566325 104.168438 
L 347.438774 104.27752 
L 347.282579 104.410376 
L 347.150578 104.525364 
L 347.002627 104.652314 
L 346.862382 104.776759 
L 346.726644 104.894252 
L 346.574186 105.032053 
L 346.454927 105.13619 
L 346.28599 105.291617 
L 346.187767 105.378128 
L 345.997794 105.556263 
L 345.92599 105.620065 
L 345.709599 105.826745 
L 345.670264 105.862003 
L 345.421704 106.103941 
L 345.421403 106.104306 
L 345.208327 106.345879 
L 345.133207 106.440776 
L 345.00782 106.587817 
L 345.133207 106.709386 
" style="fill:none;stroke:#000000;stroke-width:1.714286;"/>
    <path clip-path="url(#pf73d5b1428)" d="M 351.185321 101.546919 
L 351.215178 101.507122 
L 351.185321 101.486429 
L 351.149864 101.507122 
L 351.185321 101.546919 
" style="fill:none;stroke:#000000;stroke-width:1.714286;"/>
   </g>
   <g id="LineCollection_3">
    <path clip-path="url(#pf73d5b1428)" d="M 415.066347 11.379141 
L 414.82335 14.029646 
L 416.158125 15.284218 
L 416.549305 14.029646 
L 417.145549 11.379141 
" style="fill:none;stroke:#fff5f0;stroke-width:1.5;"/>
    <path clip-path="url(#pf73d5b1428)" d="M 100.540625 247.355494 
L 107.401875 248.026153 
L 114.263125 248.528663 
L 121.124375 248.780768 
L 127.985625 248.742353 
L 134.846875 248.429527 
L 141.708125 247.890837 
L 148.569375 247.116934 
L 162.39709 244.623585 
L 172.618525 241.97308 
L 182.875625 238.895389 
L 189.736875 236.539545 
L 196.598125 233.879455 
L 203.459375 230.920273 
L 217.181875 224.298709 
L 218.708333 223.419545 
L 224.043125 220.737767 
L 228.152925 218.118535 
L 230.904375 216.697565 
L 232.720931 215.46803 
L 237.765625 212.616401 
L 241.061974 210.167019 
L 244.626875 208.138931 
L 249.024749 204.866009 
L 251.488125 203.430979 
L 252.946083 202.215504 
L 256.579187 199.564999 
L 258.349375 198.510821 
L 260.131281 196.914494 
L 263.698844 194.263989 
L 265.210625 193.341613 
L 267.018011 191.613484 
L 270.394994 188.962979 
L 272.071875 187.908801 
L 273.649633 186.312474 
L 276.734156 183.661969 
L 278.933125 182.226939 
L 280.078861 181.011464 
L 282.821627 178.360959 
L 285.794375 176.332871 
L 288.764386 173.059949 
L 292.655625 170.20832 
L 294.642433 167.758939 
L 297.453082 165.108434 
L 299.516875 163.687464 
L 300.501645 162.457929 
L 302.775293 159.807423 
L 306.378125 157.125646 
L 308.268875 154.506413 
L 310.772864 151.855908 
L 313.239375 150.084568 
L 315.833041 146.554898 
L 318.623724 143.904393 
L 320.100625 142.890655 
L 321.207429 141.253888 
L 323.182257 138.603383 
L 326.961875 135.502091 
L 328.340581 133.302373 
L 330.301785 130.651868 
L 333.823125 127.859253 
L 335.293048 125.350858 
L 337.186753 122.700353 
L 340.684375 119.917322 
L 342.083041 117.399343 
L 343.855249 114.748838 
L 346.845261 112.098333 
L 347.545625 111.671146 
L 348.735902 109.447827 
L 350.350657 106.797322 
L 352.868638 104.146817 
L 354.406875 103.161512 
L 356.728714 98.845807 
L 358.754002 96.195302 
L 361.268125 94.455425 
L 363.038937 90.894292 
L 364.662332 88.243787 
L 368.141838 85.593282 
L 369.313653 82.942777 
L 370.652869 80.292272 
L 372.67336 77.641767 
L 374.990625 76.245766 
L 378.113896 69.690252 
L 381.41312 67.039747 
L 381.851875 66.88259 
L 383.950873 61.738737 
L 385.382911 59.088232 
L 388.713125 57.054473 
L 388.98004 56.437726 
L 390.984729 51.136716 
L 392.329408 48.486211 
L 395.574375 46.991143 
L 396.026562 45.835706 
L 397.802438 40.534696 
L 398.505571 37.884191 
L 395.574375 37.174945 
L 395.266038 37.884191 
L 393.225571 43.185201 
L 391.509854 45.835706 
L 388.713125 46.6919 
L 386.846524 51.136716 
L 385.441504 53.787221 
L 381.851875 55.934872 
L 381.605391 56.437726 
L 380.46777 59.088232 
L 379.129135 61.738737 
L 376.524976 64.389242 
L 374.990625 65.019839 
L 372.718124 69.690252 
L 370.764452 72.340757 
L 368.129375 73.902338 
L 366.218904 77.641767 
L 364.436343 80.292272 
L 361.268125 82.468053 
L 360.998768 82.942777 
L 359.627361 85.593282 
L 357.885 88.243787 
L 354.35113 90.894292 
L 352.934207 93.544797 
L 351.167327 96.195302 
L 347.545625 98.984665 
L 346.126071 101.496312 
L 344.285353 104.146817 
L 340.684375 106.929848 
L 339.184474 109.447827 
L 337.216042 112.098333 
L 333.749997 114.748838 
L 332.083019 117.399343 
L 329.909906 120.049848 
L 326.961875 122.194347 
L 324.781333 125.350858 
L 322.269117 128.001363 
L 320.100625 129.501963 
L 317.21108 133.302373 
L 314.075889 135.952878 
L 313.239375 136.488184 
L 311.661016 138.603383 
L 309.238809 141.253888 
L 306.378125 143.296651 
L 303.709224 146.554898 
L 300.543205 149.205403 
L 299.516875 149.872849 
L 297.86526 151.855908 
L 295.164438 154.506413 
L 292.655625 156.232204 
L 289.299848 159.807423 
L 285.603706 162.457929 
L 283.141377 165.108434 
L 278.933125 168.171775 
L 276.750147 170.409444 
L 273.335912 173.059949 
L 272.071875 173.85867 
L 270.138197 175.710454 
L 266.688383 178.360959 
L 265.210625 179.283335 
L 263.290394 181.011464 
L 259.660871 183.661969 
L 258.349375 184.46069 
L 256.16808 186.312474 
L 251.488125 189.375815 
L 248.701856 191.613484 
L 244.356765 194.263989 
L 240.768651 196.914494 
L 237.765625 198.640285 
L 236.418284 199.564999 
L 227.852236 204.866009 
L 223.016502 207.516514 
L 213.388526 212.817524 
L 202.365594 218.118535 
L 196.347347 220.76904 
L 189.736875 223.55207 
L 182.875625 226.208907 
L 175.712104 228.720555 
L 167.387258 231.37106 
L 162.291875 232.932641 
L 148.569375 236.169215 
L 145.556089 236.67207 
L 141.708125 237.528263 
L 134.846875 238.613329 
L 127.985625 239.368606 
L 121.124375 240.206579 
L 114.263125 240.718508 
L 107.401875 241.008356 
L 93.679375 241.170298 
L 86.818125 241.243128 
L 80.65998 241.97308 
L 87.045836 244.623585 
L 93.679375 245.851974 
L 100.540625 247.355494 
L 100.540625 247.355494 
" style="fill:none;stroke:#fff5f0;stroke-width:1.5;"/>
    <path clip-path="url(#pf73d5b1428)" d="M 402.435625 36.701949 
L 402.958087 35.233686 
L 403.758048 32.583181 
L 404.407214 29.932676 
L 402.435625 27.328202 
L 401.547651 29.932676 
L 400.660319 32.583181 
L 399.840354 35.233686 
L 402.435625 36.701949 
" style="fill:none;stroke:#fff5f0;stroke-width:1.5;"/>
    <path clip-path="url(#pf73d5b1428)" d="M 409.296875 26.138343 
L 409.792227 24.631666 
L 410.486336 21.981161 
L 410.858459 19.330656 
L 409.296875 17.564154 
L 408.689263 19.330656 
L 407.917532 21.981161 
L 407.42468 24.631666 
L 409.296875 26.138343 
" style="fill:none;stroke:#fff5f0;stroke-width:1.5;"/>
   </g>
   <g id="LineCollection_4">
    <path clip-path="url(#pf73d5b1428)" d="M 121.124375 245.663306 
L 127.985625 246.192042 
L 134.846875 246.172685 
L 141.708125 245.780169 
L 148.569375 245.157033 
L 152.847591 244.623585 
L 155.430625 244.159795 
L 166.314876 241.97308 
L 176.662984 239.322575 
L 184.786819 236.67207 
L 192.092617 234.021565 
L 196.598125 232.311534 
L 198.756814 231.37106 
L 204.968024 228.720555 
L 210.896179 226.07005 
L 217.181875 222.950951 
L 220.853543 220.76904 
L 224.043125 219.236566 
L 225.797412 218.118535 
L 230.923648 215.46803 
L 234.641241 212.817524 
L 237.765625 211.176473 
L 239.124136 210.167019 
L 243.237804 207.516514 
L 244.626875 206.785044 
L 246.971912 204.866009 
L 251.511639 202.215504 
L 254.463486 199.564999 
L 258.724872 196.914494 
L 261.596251 194.263989 
L 265.210625 192.058769 
L 268.390813 188.962979 
L 272.404352 186.312474 
L 274.90166 183.661969 
L 278.951603 181.011464 
L 281.205676 178.360959 
L 284.552277 175.710454 
L 285.794375 174.978983 
L 287.378046 173.059949 
L 290.077732 170.409444 
L 292.655625 168.768393 
L 295.686271 165.108434 
L 299.527323 162.457929 
L 301.396413 159.807423 
L 303.971059 157.156918 
L 306.378125 155.624445 
L 309.135419 151.855908 
L 312.39427 149.205403 
L 313.239375 148.736809 
L 314.640619 146.554898 
L 316.68424 143.904393 
L 320.100625 141.559401 
L 320.307217 141.253888 
L 321.895042 138.603383 
L 324.011558 135.952878 
L 326.961875 134.032165 
L 328.95134 130.651868 
L 331.065986 128.001363 
L 333.823125 126.291332 
L 335.821553 122.700353 
L 337.809698 120.049848 
L 340.684375 118.313767 
L 341.192312 117.399343 
L 342.532229 114.748838 
L 344.274684 112.098333 
L 347.545625 110.103225 
L 347.896499 109.447827 
L 349.121467 106.797322 
L 350.573823 104.146817 
L 354.509277 101.496312 
L 356.83034 96.195302 
L 358.858274 93.544797 
L 361.268125 92.825663 
L 363.110104 88.243787 
L 364.123558 85.593282 
L 361.268125 84.185554 
L 357.974174 90.894292 
L 354.406875 92.515317 
L 353.864136 93.544797 
L 352.600871 96.195302 
L 350.937272 98.845807 
L 347.545625 100.625512 
L 347.053459 101.496312 
L 345.690896 104.146817 
L 343.825754 106.797322 
L 340.684375 108.533403 
L 338.663174 112.098333 
L 336.51692 114.748838 
L 333.823125 116.230207 
L 331.474317 120.049848 
L 328.848991 122.700353 
L 326.961875 123.679955 
L 325.901127 125.350858 
L 324.057887 128.001363 
L 320.100625 130.795064 
L 318.49889 133.302373 
L 316.281038 135.952878 
L 313.239375 137.899313 
L 310.807178 141.253888 
L 307.783065 143.904393 
L 306.378125 144.691434 
L 304.990594 146.554898 
L 302.62964 149.205403 
L 299.516875 151.229703 
L 296.845899 154.506413 
L 292.655625 157.51971 
L 290.781734 159.807423 
L 287.844687 162.457929 
L 285.794375 163.70199 
L 284.525349 165.108434 
L 281.79129 167.758939 
L 278.933125 169.555235 
L 275.403707 173.059949 
L 272.071875 175.165271 
L 268.743656 178.360959 
L 265.210625 180.566179 
L 261.806303 183.661969 
L 258.349375 185.767291 
L 254.541388 188.962979 
L 251.488125 190.759275 
L 250.424493 191.613484 
L 246.837029 194.263989 
L 244.626875 195.50805 
L 242.781344 196.914494 
L 237.765625 199.927791 
L 234.617988 202.215504 
L 229.940579 204.866009 
L 225.576959 207.516514 
L 224.043125 208.303556 
L 221.025614 210.167019 
L 210.320625 215.611226 
L 205.577321 218.118535 
L 193.874822 223.419545 
L 187.372577 226.07005 
L 182.875625 227.849755 
L 169.153125 232.613837 
L 148.569375 238.152337 
L 141.708125 239.356592 
L 134.846875 240.903039 
L 126.189832 241.97308 
L 121.124375 243.37592 
L 114.263125 244.623585 
L 121.124375 245.663306 
L 121.124375 245.663306 
" style="fill:none;stroke:#fb694a;stroke-width:1.5;"/>
    <path clip-path="url(#pf73d5b1428)" d="M 368.129375 83.774325 
L 368.495698 82.942777 
L 369.421238 80.292272 
L 370.18147 77.641767 
L 368.129375 75.566628 
L 367.266593 77.641767 
L 366.238786 80.292272 
L 365.242305 82.942777 
L 368.129375 83.774325 
" style="fill:none;stroke:#fb694a;stroke-width:1.5;"/>
    <path clip-path="url(#pf73d5b1428)" d="M 374.990625 74.527472 
L 375.745862 72.340757 
L 376.45919 69.690252 
L 375.941386 67.039747 
L 374.990625 66.740727 
L 374.850634 67.039747 
L 373.922093 69.690252 
L 373.145649 72.340757 
L 374.990625 74.527472 
" style="fill:none;stroke:#fb694a;stroke-width:1.5;"/>
    <path clip-path="url(#pf73d5b1428)" d="M 381.851875 64.922689 
L 382.063003 64.389242 
L 382.783532 61.738737 
L 383.025075 59.088232 
L 381.851875 57.917993 
L 381.392001 59.088232 
L 380.643366 61.738737 
L 380.712194 64.389242 
L 381.851875 64.922689 
" style="fill:none;stroke:#fb694a;stroke-width:1.5;"/>
    <path clip-path="url(#pf73d5b1428)" d="M 388.713125 54.943805 
L 389.09427 53.787221 
L 389.591467 51.136716 
L 388.713125 48.520229 
L 387.991382 51.136716 
L 387.70938 53.787221 
L 388.713125 54.943805 
" style="fill:none;stroke:#fb694a;stroke-width:1.5;"/>
    <path clip-path="url(#pf73d5b1428)" d="M 395.574375 44.734301 
L 395.986062 43.185201 
L 396.168934 40.534696 
L 395.574375 39.464655 
L 395.229757 40.534696 
L 394.857694 43.185201 
L 395.574375 44.734301 
" style="fill:none;stroke:#fb694a;stroke-width:1.5;"/>
    <path clip-path="url(#pf73d5b1428)" d="M 402.435625 34.151637 
L 402.766315 32.583181 
L 402.565446 29.932676 
L 402.435625 29.761182 
L 402.377156 29.932676 
L 401.991685 32.583181 
L 402.435625 34.151637 
" style="fill:none;stroke:#fb694a;stroke-width:1.5;"/>
    <path clip-path="url(#pf73d5b1428)" d="M 409.296875 23.020882 
L 409.475605 21.981161 
L 409.296875 20.733496 
L 409.089613 21.981161 
L 409.296875 23.020882 
" style="fill:none;stroke:#fb694a;stroke-width:1.5;"/>
   </g>
   <g id="LineCollection_5">
    <path clip-path="url(#pf73d5b1428)" d="M 162.291875 239.53823 
L 163.966834 239.322575 
L 162.291875 238.747496 
L 160.212884 239.322575 
L 162.291875 239.53823 
" style="fill:none;stroke:#67000d;stroke-width:1.5;"/>
    <path clip-path="url(#pf73d5b1428)" d="M 169.153125 238.13547 
L 176.014375 236.969371 
L 177.101333 236.67207 
L 182.875625 234.886698 
L 185.594184 234.021565 
L 189.736875 232.643302 
L 193.152504 231.37106 
L 196.598125 230.143446 
L 199.888018 228.720555 
L 203.459375 227.354155 
L 206.069883 226.07005 
L 210.320625 224.316364 
L 211.962714 223.419545 
L 217.181875 221.094202 
L 217.729051 220.76904 
L 222.345192 218.118535 
L 224.043125 217.398175 
L 226.847619 215.46803 
L 230.904375 213.529145 
L 231.899774 212.817524 
L 236.038971 210.167019 
L 237.765625 209.38579 
L 240.047624 207.516514 
L 244.626875 205.105128 
L 244.919076 204.866009 
L 247.893115 202.215504 
L 251.488125 200.339832 
L 252.347786 199.564999 
L 255.395826 196.914494 
L 258.349375 195.393359 
L 259.493659 194.263989 
L 262.492231 191.613484 
L 265.210625 190.217551 
L 266.386632 188.962979 
L 269.169777 186.312474 
L 272.071875 184.791339 
L 273.069165 183.661969 
L 275.522277 181.011464 
L 278.933125 179.135792 
L 279.589726 178.360959 
L 281.699642 175.710454 
L 285.794375 173.299068 
L 285.991707 173.059949 
L 287.815779 170.409444 
L 290.820059 167.758939 
L 292.655625 166.977709 
L 293.91946 165.108434 
L 295.930116 162.457929 
L 299.516875 160.519044 
L 300.017533 159.807423 
L 301.613113 157.156918 
L 304.302476 154.506413 
L 306.378125 153.786054 
L 307.497975 151.855908 
L 309.045639 149.205403 
L 313.239375 146.880061 
L 313.448197 146.554898 
L 314.744757 143.904393 
L 316.0995 141.253888 
L 313.239375 139.865987 
L 312.375546 141.253888 
L 310.855006 143.904393 
L 306.378125 146.412323 
L 306.271964 146.554898 
L 304.716074 149.205403 
L 302.539398 151.855908 
L 299.516875 153.122368 
L 298.527361 154.506413 
L 296.59771 157.156918 
L 292.655625 159.32885 
L 292.26362 159.807423 
L 290.37257 162.457929 
L 286.508147 165.108434 
L 285.794375 165.352601 
L 283.992573 167.758939 
L 280.989848 170.409444 
L 278.933125 171.340195 
L 277.471503 173.059949 
L 274.647221 175.710454 
L 272.071875 176.995346 
L 270.798928 178.360959 
L 267.929019 181.011464 
L 265.210625 182.407397 
L 263.951735 183.661969 
L 260.875599 186.312474 
L 258.349375 187.597367 
L 256.892931 188.962979 
L 253.393517 191.613484 
L 251.488125 192.544235 
L 249.561987 194.263989 
L 245.168119 196.914494 
L 244.626875 197.158662 
L 241.845331 199.564999 
L 237.765625 201.736931 
L 237.107161 202.215504 
L 233.467226 204.866009 
L 230.904375 206.132469 
L 228.930732 207.516514 
L 224.043125 210.024445 
L 223.812253 210.167019 
L 219.831179 212.817524 
L 217.181875 214.080129 
L 214.851737 215.46803 
L 210.320625 217.627124 
L 209.390979 218.118535 
L 203.920334 220.76904 
L 203.459375 220.975725 
L 198.763455 223.419545 
L 196.598125 224.38543 
L 192.903528 226.07005 
L 189.736875 227.448312 
L 186.593872 228.720555 
L 182.875625 230.297318 
L 179.896155 231.37106 
L 176.014375 233.003128 
L 172.839555 234.021565 
L 169.153125 235.658947 
L 165.626362 236.67207 
L 169.153125 238.13547 
" style="fill:none;stroke:#67000d;stroke-width:1.5;"/>
    <path clip-path="url(#pf73d5b1428)" d="M 320.100625 139.500202 
L 320.607827 138.603383 
L 321.753673 135.952878 
L 322.338793 133.302373 
L 320.100625 132.810962 
L 319.786699 133.302373 
L 318.486187 135.952878 
L 317.080209 138.603383 
L 320.100625 139.500202 
" style="fill:none;stroke:#67000d;stroke-width:1.5;"/>
    <path clip-path="url(#pf73d5b1428)" d="M 326.961875 131.935973 
L 327.600894 130.651868 
L 328.537975 128.001363 
L 326.961875 125.557544 
L 325.846658 128.001363 
L 324.859405 130.651868 
L 326.961875 131.935973 
" style="fill:none;stroke:#67000d;stroke-width:1.5;"/>
    <path clip-path="url(#pf73d5b1428)" d="M 333.823125 124.123244 
L 334.456352 122.700353 
L 335.154461 120.049848 
L 333.823125 118.365228 
L 333.038729 120.049848 
L 332.247008 122.700353 
L 333.823125 124.123244 
" style="fill:none;stroke:#67000d;stroke-width:1.5;"/>
    <path clip-path="url(#pf73d5b1428)" d="M 340.684375 116.02108 
L 341.209209 114.748838 
L 341.704108 112.098333 
L 340.684375 110.82609 
L 340.110306 112.098333 
L 339.500719 114.748838 
L 340.684375 116.02108 
" style="fill:none;stroke:#67000d;stroke-width:1.5;"/>
    <path clip-path="url(#pf73d5b1428)" d="M 347.545625 107.662456 
L 347.892277 106.797322 
L 348.279007 104.146817 
L 347.545625 103.073076 
L 347.096439 104.146817 
L 346.727333 106.797322 
L 347.545625 107.662456 
" style="fill:none;stroke:#67000d;stroke-width:1.5;"/>
    <path clip-path="url(#pf73d5b1428)" d="M 354.406875 99.143109 
L 354.527455 98.845807 
L 354.906678 96.195302 
L 354.406875 95.176866 
L 354.034414 96.195302 
L 354.064293 98.845807 
L 354.406875 99.143109 
" style="fill:none;stroke:#67000d;stroke-width:1.5;"/>
    <path clip-path="url(#pf73d5b1428)" d="M 361.268125 89.707187 
L 361.557876 88.243787 
L 361.268125 87.230664 
L 360.97932 88.243787 
L 361.268125 89.707187 
" style="fill:none;stroke:#67000d;stroke-width:1.5;"/>
    <path clip-path="url(#pf73d5b1428)" d="M 368.129375 80.507927 
L 368.189606 80.292272 
L 368.129375 79.717193 
L 368.041229 80.292272 
L 368.129375 80.507927 
" style="fill:none;stroke:#67000d;stroke-width:1.5;"/>
   </g>
   <g id="patch_3">
    <path d="M 38.789375 273.779141 
L 38.789375 11.379141 
" style="fill:none;stroke:#000000;stroke-linecap:square;stroke-linejoin:miter;stroke-width:0.8;"/>
   </g>
   <g id="patch_4">
    <path d="M 416.158125 273.779141 
L 416.158125 11.379141 
" style="fill:none;stroke:#000000;stroke-linecap:square;stroke-linejoin:miter;stroke-width:0.8;"/>
   </g>
   <g id="patch_5">
    <path d="M 38.789375 273.779141 
L 416.158125 273.779141 
" style="fill:none;stroke:#000000;stroke-linecap:square;stroke-linejoin:miter;stroke-width:0.8;"/>
   </g>
   <g id="patch_6">
    <path d="M 38.789375 11.379141 
L 416.158125 11.379141 
" style="fill:none;stroke:#000000;stroke-linecap:square;stroke-linejoin:miter;stroke-width:0.8;"/>
   </g>
  </g>
 </g>
 <defs>
  <clipPath id="pf73d5b1428">
   <rect height="262.4" width="377.36875" x="38.789375" y="11.379141"/>
  </clipPath>
 </defs>
</svg>
